<?xml version="1.0" encoding="utf-8"?>
<!-- Generator: Adobe Illustrator 15.0.0, SVG Export Plug-In . SVG Version: 6.00 Build 0)  -->
<!DOCTYPE svg PUBLIC "-//W3C//DTD SVG 1.1//EN" "http://www.w3.org/Graphics/SVG/1.1/DTD/svg11.dtd">
<svg version="1.1" id="Layer_1" xmlns="http://www.w3.org/2000/svg" xmlns:xlink="http://www.w3.org/1999/xlink" x="0px" y="0px"
	 width="80px" height="80px" viewBox="0 0 80 80" enable-background="new 0 0 80 80" xml:space="preserve">
<linearGradient id="SVGID_1_" gradientUnits="userSpaceOnUse" x1="-182.0811" y1="-2.1328" x2="-182.0811" y2="70.582" gradientTransform="matrix(1 0 0 1 222.0234 0)">
	<stop  offset="0" style="stop-color:#0065B1"/>
	<stop  offset="0.9636" style="stop-color:#0076BF"/>
</linearGradient>
<path fill="url(#SVGID_1_)" d="M79.723,65.265c0,7.982-6.477,14.457-14.459,14.457H14.617c-7.982,0-14.454-6.475-14.454-14.457
	V14.617c0-7.982,6.472-14.454,14.454-14.454h50.647c7.982,0,14.459,6.472,14.459,14.454V65.265z"/>
<linearGradient id="SVGID_2_" gradientUnits="userSpaceOnUse" x1="-182.084" y1="1.8828" x2="-182.084" y2="79.1903" gradientTransform="matrix(1 0 0 1 222.0234 0)">
	<stop  offset="0" style="stop-color:#FFFFFF"/>
	<stop  offset="0.9286" style="stop-color:#C7E4F7"/>
</linearGradient>
<path fill="url(#SVGID_2_)" d="M63.178,3.435H16.702c-7.326,0-13.268,5.942-13.268,13.269v46.481c0,7.32,5.941,13.262,13.268,13.262
	h5.349V70.2c0,0,0.095-15.993-3.389-20.192c-0.058-0.062-0.096-0.14-0.145-0.203c-3.61-4.252-5.796-9.743-5.796-15.747
	c0-13.436,10.892-24.328,24.328-24.328c21.839,0,24.308,22.455,24.33,22.528c0.318,1.109,3.07,7.364,4.715,11.654
	c1.641,4.291-1.693,4.08-1.693,4.08h-3.451c0,0,0,5.828,0,10.708c0,4.878-9.006,5.512-9.006,5.512V70.2v6.246h11.234
	c7.326,0,13.268-5.941,13.268-13.262V16.703C76.445,9.377,70.504,3.435,63.178,3.435z"/>
<g>
	
		<linearGradient id="SVGID_3_" gradientUnits="userSpaceOnUse" x1="47.0479" y1="65.9971" x2="47.0479" y2="76.3252" gradientTransform="matrix(1 0 0 1 -5.5176 0)">
		<stop  offset="0" style="stop-color:#FFFFFF"/>
		<stop  offset="0.9286" style="stop-color:#C7E4F7"/>
	</linearGradient>
	<path fill="url(#SVGID_3_)" d="M36.402,65.997c0,1.932,0.044,3.446,0.074,4.176v6.152h10.182v-6.348
		c-0.053-1.191-0.094-2.536-0.105-3.98H36.402z"/>
</g>
<linearGradient id="SVGID_4_" gradientUnits="userSpaceOnUse" x1="37.4741" y1="15.7188" x2="37.4741" y2="58.3276">
	<stop  offset="0" style="stop-color:#FFFFFF"/>
	<stop  offset="0.9286" style="stop-color:#C7E4F7"/>
</linearGradient>
<path fill="url(#SVGID_4_)" d="M37.364,15.732c-16.037,0.642-17.829,13.938-17.717,17.949c0.119,4.245,1.521,8.372,4.274,11.616
	l0.128,0.15l0.114,0.153c0.053,0.066,0.104,0.146,0.153,0.213c0.692,0.896,1.255,1.982,1.739,3.177
	c3.271-0.763,6.39-2.53,9.006-4.886c-0.731-1.587-1.561-3.035-2.543-4.333c-0.067-0.093-0.135-0.191-0.204-0.279l-0.305-0.406
	l-0.332-0.386c-0.842-0.995-1.845-2.671-1.845-5.02c0-0.817,0.154-1.666,0.411-2.485c0.309-0.82,1.872-5.006,7.119-5.277
	c4.271-0.226,7.761,3.48,7.761,7.763c0,2.349-1.004,4.024-1.85,5.02l-0.328,0.386l-0.305,0.406c-0.07,0.088-0.139,0.187-0.207,0.279
	c-3.296,4.353-5.097,10.173-5.749,18.555h10.184c0.463-4.844,1.525-9.607,3.758-12.513c0.055-0.067,0.109-0.146,0.166-0.213
	l0.115-0.153l0.125-0.15c2.75-3.244,4.271-7.364,4.271-11.616C55.307,23.782,47.248,15.335,37.364,15.732z"/>
<linearGradient id="SVGID_5_" gradientUnits="userSpaceOnUse" x1="27.1826" y1="1.3096" x2="27.1826" y2="65.6292">
	<stop  offset="0" style="stop-color:#0065B1"/>
	<stop  offset="0.9636" style="stop-color:#0076BF"/>
</linearGradient>
<path fill="url(#SVGID_5_)" d="M17.906,39.742l14.724-5.01l3.83,7.771c0,0-4.087,6.747-4.598,7.163
	c-0.512,0.406-9.513,1.528-9.513,1.528L17.906,39.742z"/>
</svg>
