<?xml version="1.0" encoding="utf-8"?>
<!-- Generator: Adobe Illustrator 15.0.0, SVG Export Plug-In . SVG Version: 6.00 Build 0)  -->
<!DOCTYPE svg PUBLIC "-//W3C//DTD SVG 1.1//EN" "http://www.w3.org/Graphics/SVG/1.1/DTD/svg11.dtd">
<svg version="1.1" id="Layer_1" xmlns="http://www.w3.org/2000/svg" xmlns:xlink="http://www.w3.org/1999/xlink" x="0px" y="0px"
	 width="688px" height="579px" viewBox="0 0 688 579" enable-background="new 0 0 688 579" xml:space="preserve">
<text transform="matrix(1 0 0 1 34.1318 27.333)"><tspan x="0" y="0" fill="#737370" font-family="'Verdana'" font-size="18">Burned </tspan><tspan x="10.714" y="21.6" fill="#737370" font-family="'Verdana'" font-size="18">times</tspan></text>
<text transform="matrix(1 0 0 1 162.874 27.333)"><tspan x="0" y="0" fill="#737370" font-family="'Verdana'" font-size="18">New</tspan><tspan x="-6.68" y="21.6" fill="#737370" font-family="'Verdana'" font-size="18">figure</tspan></text>
<g>
	<g>
		<g>
			<path fill="#284270" d="M167.245,103.514c0-1.257-1.02-2.276-2.276-2.276h-6.526c-1.256,0-2.275,1.02-2.275,2.276v6.525
				c0,1.257,1.02,2.277,2.275,2.277h6.526c1.257,0,2.276-1.021,2.276-2.277V103.514z"/>
			<path fill="#284270" d="M181.529,103.514c0-1.257-1.02-2.276-2.277-2.276h-6.525c-1.257,0-2.276,1.02-2.276,2.276v6.525
				c0,1.257,1.02,2.277,2.276,2.277h6.525c1.258,0,2.277-1.021,2.277-2.277V103.514z"/>
			<path fill="#284270" d="M167.246,89.167c0-1.257-1.02-2.276-2.277-2.276h-6.525c-1.257,0-2.276,1.02-2.276,2.276v6.525
				c0,1.257,1.02,2.277,2.276,2.277h6.525c1.258,0,2.277-1.021,2.277-2.277V89.167z"/>
			<path fill="#284270" d="M195.279,103.514c0-1.257-1.02-2.276-2.277-2.276h-6.525c-1.257,0-2.276,1.02-2.276,2.276v6.525
				c0,1.257,1.02,2.277,2.276,2.277h6.525c1.258,0,2.277-1.021,2.277-2.277V103.514z"/>
			<path fill="#284270" d="M195.279,89.25c0-1.257-1.02-2.276-2.277-2.276h-6.525c-1.257,0-2.276,1.02-2.276,2.276v6.525
				c0,1.257,1.02,2.277,2.276,2.277h6.525c1.258,0,2.277-1.021,2.277-2.277V89.25z"/>
			<path fill="#284270" d="M181.529,89.333c0-1.257-1.02-2.276-2.277-2.276h-6.525c-1.257,0-2.276,1.02-2.276,2.276v6.525
				c0,1.257,1.02,2.277,2.276,2.277h6.525c1.258,0,2.277-1.021,2.277-2.277V89.333z"/>
		</g>
		<g>
			<path fill="#221E20" d="M164.77,78.667c0,1.566-0.245,2.716-0.735,3.448s-1.251,1.099-2.282,1.099
				c-1.047,0-1.812-0.371-2.294-1.113s-0.724-1.883-0.724-3.422c0-1.551,0.244-2.696,0.732-3.437s1.25-1.11,2.285-1.11
				c1.047,0,1.812,0.376,2.294,1.128S164.77,77.147,164.77,78.667z M163.229,81.327c0.137-0.316,0.229-0.688,0.278-1.116
				s0.073-0.942,0.073-1.544c0-0.594-0.024-1.109-0.073-1.547s-0.144-0.809-0.284-1.113c-0.137-0.301-0.323-0.527-0.56-0.68
				s-0.54-0.229-0.911-0.229c-0.367,0-0.671,0.076-0.911,0.229s-0.431,0.383-0.571,0.691c-0.133,0.289-0.224,0.666-0.272,1.131
				s-0.073,0.975-0.073,1.529c0,0.609,0.021,1.119,0.064,1.529s0.135,0.777,0.275,1.102c0.129,0.305,0.312,0.537,0.548,0.697
				s0.55,0.24,0.94,0.24c0.367,0,0.672-0.076,0.914-0.229S163.096,81.636,163.229,81.327z"/>
			<path fill="#221E20" d="M178.108,83.032h-4.723v-0.891h1.816v-5.848h-1.816v-0.797c0.246,0,0.51-0.021,0.791-0.062
				s0.494-0.101,0.639-0.179c0.18-0.098,0.321-0.222,0.425-0.372s0.163-0.353,0.179-0.606h0.908v7.863h1.781V83.032z"/>
			<path fill="#221E20" d="M192.695,83.032h-5.906v-1.225c0.41-0.352,0.822-0.703,1.234-1.055s0.795-0.701,1.15-1.049
				c0.75-0.727,1.264-1.304,1.541-1.731s0.416-0.89,0.416-1.386c0-0.453-0.148-0.808-0.447-1.063s-0.717-0.384-1.252-0.384
				c-0.355,0-0.74,0.062-1.154,0.188s-0.818,0.316-1.213,0.574h-0.059v-1.23c0.277-0.137,0.648-0.262,1.111-0.375
				s0.91-0.17,1.344-0.17c0.895,0,1.596,0.216,2.104,0.647s0.762,1.017,0.762,1.755c0,0.332-0.041,0.642-0.125,0.929
				s-0.209,0.56-0.373,0.817c-0.152,0.242-0.33,0.48-0.535,0.715s-0.455,0.494-0.748,0.779c-0.418,0.41-0.85,0.808-1.295,1.192
				s-0.861,0.741-1.248,1.069h4.693V83.032z"/>
			<path fill="#221E20" d="M205.968,78.831c0.188,0.168,0.342,0.379,0.463,0.633s0.182,0.582,0.182,0.984
				c0,0.398-0.072,0.764-0.217,1.096s-0.348,0.621-0.609,0.867c-0.293,0.273-0.638,0.476-1.034,0.606s-0.831,0.196-1.304,0.196
				c-0.484,0-0.961-0.058-1.43-0.173s-0.854-0.241-1.154-0.378v-1.225h0.088c0.332,0.219,0.723,0.4,1.172,0.545
				s0.883,0.217,1.301,0.217c0.246,0,0.508-0.041,0.785-0.123s0.502-0.203,0.674-0.363c0.18-0.172,0.313-0.361,0.401-0.568
				s0.132-0.469,0.132-0.785c0-0.312-0.05-0.571-0.149-0.776s-0.237-0.366-0.413-0.483c-0.176-0.121-0.389-0.204-0.639-0.249
				s-0.52-0.067-0.809-0.067h-0.527v-0.973h0.41c0.594,0,1.067-0.124,1.421-0.372s0.53-0.61,0.53-1.087
				c0-0.211-0.045-0.396-0.135-0.554s-0.215-0.288-0.375-0.39c-0.168-0.102-0.348-0.172-0.539-0.211s-0.408-0.059-0.65-0.059
				c-0.371,0-0.766,0.066-1.184,0.199s-0.812,0.32-1.184,0.562h-0.059v-1.225c0.277-0.137,0.647-0.263,1.11-0.378
				s0.911-0.173,1.345-0.173c0.426,0,0.801,0.039,1.125,0.117s0.617,0.203,0.879,0.375c0.281,0.188,0.494,0.414,0.639,0.68
				s0.217,0.576,0.217,0.932c0,0.484-0.171,0.907-0.513,1.269s-0.745,0.589-1.21,0.683v0.082c0.188,0.031,0.402,0.097,0.645,0.196
				S205.8,78.683,205.968,78.831z"/>
		</g>
		<g>
			<path fill="#221E20" d="M148.349,134.421c0.188,0.168,0.342,0.379,0.463,0.633s0.182,0.582,0.182,0.984
				c0,0.398-0.072,0.764-0.217,1.096s-0.348,0.621-0.609,0.867c-0.293,0.273-0.638,0.476-1.034,0.606s-0.831,0.196-1.304,0.196
				c-0.484,0-0.961-0.058-1.43-0.173s-0.854-0.241-1.154-0.378v-1.225h0.088c0.332,0.219,0.723,0.4,1.172,0.545
				s0.883,0.217,1.301,0.217c0.246,0,0.508-0.041,0.785-0.123s0.502-0.203,0.674-0.363c0.18-0.172,0.313-0.361,0.401-0.568
				s0.132-0.469,0.132-0.785c0-0.312-0.05-0.571-0.149-0.776s-0.237-0.366-0.413-0.483c-0.176-0.121-0.389-0.204-0.639-0.249
				s-0.52-0.067-0.809-0.067h-0.527v-0.973h0.41c0.594,0,1.067-0.124,1.421-0.372s0.53-0.61,0.53-1.087
				c0-0.211-0.045-0.396-0.135-0.554s-0.215-0.288-0.375-0.39c-0.168-0.102-0.348-0.172-0.539-0.211s-0.408-0.059-0.65-0.059
				c-0.371,0-0.766,0.066-1.184,0.199s-0.812,0.32-1.184,0.562h-0.059v-1.225c0.277-0.137,0.647-0.263,1.11-0.378
				s0.911-0.173,1.345-0.173c0.426,0,0.801,0.039,1.125,0.117s0.617,0.203,0.879,0.375c0.281,0.188,0.494,0.414,0.639,0.68
				s0.217,0.576,0.217,0.932c0,0.484-0.171,0.907-0.513,1.269s-0.745,0.589-1.21,0.683v0.082c0.188,0.031,0.402,0.097,0.645,0.196
				S148.181,134.272,148.349,134.421z"/>
			<path fill="#221E20" d="M149.116,124.751h-5.906v-1.225c0.41-0.352,0.821-0.703,1.233-1.055s0.796-0.701,1.151-1.049
				c0.75-0.727,1.264-1.304,1.541-1.731s0.416-0.89,0.416-1.386c0-0.453-0.149-0.808-0.448-1.063s-0.716-0.384-1.251-0.384
				c-0.355,0-0.74,0.062-1.154,0.188s-0.818,0.316-1.213,0.574h-0.059v-1.23c0.277-0.137,0.647-0.262,1.11-0.375
				s0.911-0.17,1.345-0.17c0.895,0,1.596,0.216,2.104,0.647s0.762,1.017,0.762,1.755c0,0.332-0.042,0.642-0.126,0.929
				s-0.208,0.56-0.372,0.817c-0.152,0.242-0.331,0.48-0.536,0.715s-0.454,0.494-0.747,0.779c-0.418,0.41-0.85,0.808-1.295,1.192
				s-0.861,0.741-1.248,1.069h4.693V124.751z"/>
			<path fill="#221E20" d="M148.618,112.133h-4.723v-0.891h1.816v-5.848h-1.816v-0.797c0.246,0,0.51-0.021,0.791-0.062
				s0.494-0.101,0.639-0.179c0.18-0.098,0.321-0.222,0.425-0.372s0.163-0.353,0.179-0.606h0.908v7.863h1.781V112.133z"/>
			<path fill="#221E20" d="M149.104,93.126c0,1.566-0.245,2.716-0.735,3.448s-1.251,1.099-2.282,1.099
				c-1.047,0-1.812-0.371-2.294-1.113s-0.724-1.883-0.724-3.422c0-1.551,0.244-2.696,0.732-3.437s1.25-1.11,2.285-1.11
				c1.047,0,1.812,0.376,2.294,1.128S149.104,91.606,149.104,93.126z M147.563,95.786c0.137-0.316,0.229-0.688,0.278-1.116
				s0.073-0.942,0.073-1.544c0-0.594-0.024-1.109-0.073-1.547s-0.144-0.809-0.284-1.113c-0.137-0.301-0.323-0.527-0.56-0.68
				s-0.54-0.229-0.911-0.229c-0.367,0-0.671,0.076-0.911,0.229s-0.431,0.383-0.571,0.691c-0.133,0.289-0.224,0.666-0.272,1.131
				s-0.073,0.975-0.073,1.529c0,0.609,0.021,1.119,0.064,1.529s0.135,0.777,0.275,1.102c0.129,0.305,0.312,0.537,0.548,0.697
				s0.55,0.24,0.94,0.24c0.367,0,0.672-0.076,0.914-0.229S147.431,96.095,147.563,95.786z"/>
		</g>
		<line fill="#221E20" stroke="#221E20" stroke-miterlimit="10" x1="154.866" y1="68.001" x2="154.866" y2="155.6"/>
		<line fill="#221E20" stroke="#221E20" stroke-miterlimit="10" x1="168.866" y1="68.001" x2="168.866" y2="155.6"/>
		<line fill="#221E20" stroke="#221E20" stroke-miterlimit="10" x1="182.866" y1="68.001" x2="182.866" y2="155.6"/>
		<line fill="#221E20" stroke="#221E20" stroke-miterlimit="10" x1="196.866" y1="68.001" x2="196.866" y2="155.6"/>
		<line fill="#221E20" stroke="#221E20" stroke-miterlimit="10" x1="210.866" y1="68.001" x2="210.866" y2="155.6"/>
		<line fill="#221E20" stroke="#221E20" stroke-miterlimit="10" x1="139.199" y1="85.602" x2="224.865" y2="85.602"/>
		<line fill="#221E20" stroke="#221E20" stroke-miterlimit="10" x1="139.199" y1="99.602" x2="224.865" y2="99.602"/>
		<line fill="#221E20" stroke="#221E20" stroke-miterlimit="10" x1="139.199" y1="113.602" x2="224.865" y2="113.602"/>
		<line fill="#221E20" stroke="#221E20" stroke-miterlimit="10" x1="139.199" y1="127.602" x2="224.865" y2="127.602"/>
		<line fill="#221E20" stroke="#221E20" stroke-miterlimit="10" x1="139.199" y1="141.602" x2="224.865" y2="141.602"/>
	</g>
	<text transform="matrix(1 0 0 1 41.6055 127.2671)" fill="#294270" font-family="'Verdana-Bold'" font-size="21">100</text>
</g>
<g>
	<g>
		<g>
			<path fill="#284270" d="M588.28,497.994c0-1.257-1.02-2.276-2.277-2.276h-6.525c-1.256,0-2.275,1.02-2.275,2.276v6.525
				c0,1.257,1.02,2.277,2.275,2.277h6.525c1.258,0,2.277-1.021,2.277-2.277V497.994z"/>
			<path fill="#284270" d="M588.28,483.647c0-1.257-1.02-2.276-2.277-2.276h-6.525c-1.256,0-2.275,1.02-2.275,2.276v6.525
				c0,1.257,1.02,2.277,2.275,2.277h6.525c1.258,0,2.277-1.021,2.277-2.277V483.647z"/>
			<path fill="#284270" d="M616.314,497.994c0-1.257-1.02-2.276-2.277-2.276h-6.525c-1.257,0-2.276,1.02-2.276,2.276v6.525
				c0,1.257,1.02,2.277,2.276,2.277h6.525c1.258,0,2.277-1.021,2.277-2.277V497.994z"/>
			<path fill="#284270" d="M588.28,511.808c0-1.257-1.02-2.276-2.277-2.276h-6.525c-1.256,0-2.275,1.02-2.275,2.276v6.525
				c0,1.257,1.02,2.277,2.275,2.277h6.525c1.258,0,2.277-1.021,2.277-2.277V511.808z"/>
			<path fill="#284270" d="M602.564,511.808c0-1.257-1.02-2.276-2.277-2.276h-6.525c-1.257,0-2.276,1.02-2.276,2.276v6.525
				c0,1.257,1.02,2.277,2.276,2.277h6.525c1.258,0,2.277-1.021,2.277-2.277V511.808z"/>
			<path fill="#284270" d="M616.314,511.808c0-1.257-1.02-2.276-2.277-2.276h-6.525c-1.257,0-2.276,1.02-2.276,2.276v6.525
				c0,1.257,1.02,2.277,2.276,2.277h6.525c1.258,0,2.277-1.021,2.277-2.277V511.808z"/>
			<path fill="#284270" d="M616.314,483.73c0-1.257-1.02-2.276-2.277-2.276h-6.525c-1.257,0-2.276,1.02-2.276,2.276v6.525
				c0,1.257,1.02,2.277,2.276,2.277h6.525c1.258,0,2.277-1.021,2.277-2.277V483.73z"/>
			<path fill="#284270" d="M602.564,483.813c0-1.257-1.02-2.276-2.277-2.276h-6.525c-1.257,0-2.276,1.02-2.276,2.276v6.525
				c0,1.257,1.02,2.277,2.276,2.277h6.525c1.258,0,2.277-1.021,2.277-2.277V483.813z"/>
		</g>
		<g>
			<path fill="#221E20" d="M585.805,473.147c0,1.566-0.245,2.716-0.735,3.448s-1.251,1.099-2.282,1.099
				c-1.047,0-1.812-0.371-2.294-1.113s-0.724-1.883-0.724-3.422c0-1.551,0.244-2.696,0.732-3.437s1.25-1.11,2.285-1.11
				c1.047,0,1.812,0.376,2.294,1.128S585.805,471.628,585.805,473.147z M584.264,475.808c0.137-0.316,0.229-0.688,0.278-1.116
				s0.073-0.942,0.073-1.544c0-0.594-0.024-1.109-0.073-1.547s-0.144-0.809-0.284-1.113c-0.137-0.301-0.323-0.527-0.56-0.68
				s-0.54-0.229-0.911-0.229c-0.367,0-0.671,0.076-0.911,0.229s-0.431,0.383-0.571,0.691c-0.133,0.289-0.224,0.666-0.272,1.131
				s-0.073,0.975-0.073,1.529c0,0.609,0.021,1.119,0.064,1.529s0.135,0.777,0.275,1.102c0.129,0.305,0.312,0.537,0.548,0.697
				s0.55,0.24,0.94,0.24c0.367,0,0.672-0.076,0.914-0.229S584.131,476.116,584.264,475.808z"/>
			<path fill="#221E20" d="M599.144,477.513h-4.723v-0.891h1.816v-5.848h-1.816v-0.797c0.246,0,0.51-0.021,0.791-0.062
				s0.494-0.101,0.639-0.179c0.18-0.098,0.321-0.222,0.425-0.372s0.163-0.353,0.179-0.606h0.908v7.863h1.781V477.513z"/>
			<path fill="#221E20" d="M613.73,477.513h-5.906v-1.225c0.41-0.352,0.822-0.703,1.234-1.055s0.795-0.701,1.15-1.049
				c0.75-0.727,1.264-1.304,1.541-1.731s0.416-0.89,0.416-1.386c0-0.453-0.148-0.808-0.447-1.063s-0.717-0.384-1.252-0.384
				c-0.355,0-0.74,0.062-1.154,0.188s-0.818,0.316-1.213,0.574h-0.059v-1.23c0.277-0.137,0.648-0.262,1.111-0.375
				s0.91-0.17,1.344-0.17c0.895,0,1.596,0.216,2.104,0.647s0.762,1.017,0.762,1.755c0,0.332-0.041,0.642-0.125,0.929
				s-0.209,0.56-0.373,0.817c-0.152,0.242-0.33,0.48-0.535,0.715s-0.455,0.494-0.748,0.779c-0.418,0.41-0.85,0.808-1.295,1.192
				s-0.861,0.741-1.248,1.069h4.693V477.513z"/>
			<path fill="#221E20" d="M627.003,473.312c0.188,0.168,0.342,0.379,0.463,0.633s0.182,0.582,0.182,0.984
				c0,0.398-0.072,0.764-0.217,1.096s-0.348,0.621-0.609,0.867c-0.293,0.273-0.638,0.476-1.034,0.606s-0.831,0.196-1.304,0.196
				c-0.484,0-0.961-0.058-1.43-0.173s-0.854-0.241-1.154-0.378v-1.225h0.088c0.332,0.219,0.723,0.4,1.172,0.545
				s0.883,0.217,1.301,0.217c0.246,0,0.508-0.041,0.785-0.123s0.502-0.203,0.674-0.363c0.18-0.172,0.313-0.361,0.401-0.568
				s0.132-0.469,0.132-0.785c0-0.312-0.05-0.571-0.149-0.776s-0.237-0.366-0.413-0.483c-0.176-0.121-0.389-0.204-0.639-0.249
				s-0.52-0.067-0.809-0.067h-0.527v-0.973h0.41c0.594,0,1.067-0.124,1.421-0.372s0.53-0.61,0.53-1.087
				c0-0.211-0.045-0.396-0.135-0.554s-0.215-0.288-0.375-0.39c-0.168-0.102-0.348-0.172-0.539-0.211s-0.408-0.059-0.65-0.059
				c-0.371,0-0.766,0.066-1.184,0.199s-0.812,0.32-1.184,0.562h-0.059v-1.225c0.277-0.137,0.647-0.263,1.11-0.378
				s0.911-0.173,1.345-0.173c0.426,0,0.801,0.039,1.125,0.117s0.617,0.203,0.879,0.375c0.281,0.188,0.494,0.414,0.639,0.68
				s0.217,0.576,0.217,0.932c0,0.484-0.171,0.907-0.513,1.269s-0.745,0.589-1.21,0.683v0.082c0.188,0.031,0.402,0.097,0.645,0.196
				S626.835,473.163,627.003,473.312z"/>
		</g>
		<g>
			<path fill="#221E20" d="M569.384,528.901c0.188,0.168,0.342,0.379,0.463,0.633s0.182,0.582,0.182,0.984
				c0,0.398-0.072,0.764-0.217,1.096s-0.348,0.621-0.609,0.867c-0.293,0.273-0.638,0.476-1.034,0.606s-0.831,0.196-1.304,0.196
				c-0.484,0-0.961-0.058-1.43-0.173s-0.854-0.241-1.154-0.378v-1.225h0.088c0.332,0.219,0.723,0.4,1.172,0.545
				s0.883,0.217,1.301,0.217c0.246,0,0.508-0.041,0.785-0.123s0.502-0.203,0.674-0.363c0.18-0.172,0.313-0.361,0.401-0.568
				s0.132-0.469,0.132-0.785c0-0.312-0.05-0.571-0.149-0.776s-0.237-0.366-0.413-0.483c-0.176-0.121-0.389-0.204-0.639-0.249
				s-0.52-0.067-0.809-0.067h-0.527v-0.973h0.41c0.594,0,1.067-0.124,1.421-0.372s0.53-0.61,0.53-1.087
				c0-0.211-0.045-0.396-0.135-0.554s-0.215-0.288-0.375-0.39c-0.168-0.102-0.348-0.172-0.539-0.211s-0.408-0.059-0.65-0.059
				c-0.371,0-0.766,0.066-1.184,0.199s-0.812,0.32-1.184,0.562h-0.059v-1.225c0.277-0.137,0.647-0.263,1.11-0.378
				s0.911-0.173,1.345-0.173c0.426,0,0.801,0.039,1.125,0.117s0.617,0.203,0.879,0.375c0.281,0.188,0.494,0.414,0.639,0.68
				s0.217,0.576,0.217,0.932c0,0.484-0.171,0.907-0.513,1.269s-0.745,0.589-1.21,0.683v0.082c0.188,0.031,0.402,0.097,0.645,0.196
				S569.216,528.753,569.384,528.901z"/>
			<path fill="#221E20" d="M570.151,519.231h-5.906v-1.225c0.41-0.352,0.821-0.703,1.233-1.055s0.796-0.701,1.151-1.049
				c0.75-0.727,1.264-1.304,1.541-1.731s0.416-0.89,0.416-1.386c0-0.453-0.149-0.808-0.448-1.063s-0.716-0.384-1.251-0.384
				c-0.355,0-0.74,0.062-1.154,0.188s-0.818,0.316-1.213,0.574h-0.059v-1.23c0.277-0.137,0.647-0.262,1.11-0.375
				s0.911-0.17,1.345-0.17c0.895,0,1.596,0.216,2.104,0.647s0.762,1.017,0.762,1.755c0,0.332-0.042,0.642-0.126,0.929
				s-0.208,0.56-0.372,0.817c-0.152,0.242-0.331,0.48-0.536,0.715s-0.454,0.494-0.747,0.779c-0.418,0.41-0.85,0.808-1.295,1.192
				s-0.861,0.741-1.248,1.069h4.693V519.231z"/>
			<path fill="#221E20" d="M569.653,506.613h-4.723v-0.891h1.816v-5.848h-1.816v-0.797c0.246,0,0.51-0.021,0.791-0.062
				s0.494-0.101,0.639-0.179c0.18-0.098,0.321-0.222,0.425-0.372s0.163-0.353,0.179-0.606h0.908v7.863h1.781V506.613z"/>
			<path fill="#221E20" d="M570.14,487.606c0,1.566-0.245,2.716-0.735,3.448s-1.251,1.099-2.282,1.099
				c-1.047,0-1.812-0.371-2.294-1.113s-0.724-1.883-0.724-3.422c0-1.551,0.244-2.696,0.732-3.437s1.25-1.11,2.285-1.11
				c1.047,0,1.812,0.376,2.294,1.128S570.14,486.087,570.14,487.606z M568.599,490.267c0.137-0.316,0.229-0.688,0.278-1.116
				s0.073-0.942,0.073-1.544c0-0.594-0.024-1.109-0.073-1.547s-0.144-0.809-0.284-1.113c-0.137-0.301-0.323-0.527-0.56-0.68
				s-0.54-0.229-0.911-0.229c-0.367,0-0.671,0.076-0.911,0.229s-0.431,0.383-0.571,0.691c-0.133,0.289-0.224,0.666-0.272,1.131
				s-0.073,0.975-0.073,1.529c0,0.609,0.021,1.119,0.064,1.529s0.135,0.777,0.275,1.102c0.129,0.305,0.312,0.537,0.548,0.697
				s0.55,0.24,0.94,0.24c0.367,0,0.672-0.076,0.914-0.229S568.466,490.575,568.599,490.267z"/>
		</g>
		<line fill="#221E20" stroke="#221E20" stroke-miterlimit="10" x1="575.901" y1="462.481" x2="575.901" y2="550.08"/>
		<line fill="#221E20" stroke="#221E20" stroke-miterlimit="10" x1="589.901" y1="462.481" x2="589.901" y2="550.08"/>
		<line fill="#221E20" stroke="#221E20" stroke-miterlimit="10" x1="603.901" y1="462.481" x2="603.901" y2="550.08"/>
		<line fill="#221E20" stroke="#221E20" stroke-miterlimit="10" x1="617.901" y1="462.481" x2="617.901" y2="550.08"/>
		<line fill="#221E20" stroke="#221E20" stroke-miterlimit="10" x1="631.901" y1="462.481" x2="631.901" y2="550.08"/>
		<line fill="#221E20" stroke="#221E20" stroke-miterlimit="10" x1="560.234" y1="480.082" x2="645.9" y2="480.082"/>
		<line fill="#221E20" stroke="#221E20" stroke-miterlimit="10" x1="560.234" y1="494.082" x2="645.9" y2="494.082"/>
		<line fill="#221E20" stroke="#221E20" stroke-miterlimit="10" x1="560.234" y1="508.082" x2="645.9" y2="508.082"/>
		<line fill="#221E20" stroke="#221E20" stroke-miterlimit="10" x1="560.234" y1="522.082" x2="645.9" y2="522.082"/>
		<line fill="#221E20" stroke="#221E20" stroke-miterlimit="10" x1="560.234" y1="536.082" x2="645.9" y2="536.082"/>
	</g>
	<text transform="matrix(1 0 0 1 455.1758 526.9473)" fill="#294270" font-family="'Verdana-Bold'" font-size="21">1100</text>
	<text transform="matrix(1 0 0 1 417.9434 497.5479)" fill="#F0801B" font-family="'Verdana-Bold'" font-size="21">Final bomb</text>
</g>
<text transform="matrix(1 0 0 1 462.6328 27.333)"><tspan x="0" y="0" fill="#737370" font-family="'Verdana'" font-size="18">Burned </tspan><tspan x="10.713" y="21.6" fill="#737370" font-family="'Verdana'" font-size="18">times</tspan></text>
<text transform="matrix(1 0 0 1 591.374 27.333)"><tspan x="0" y="0" fill="#737370" font-family="'Verdana'" font-size="18">New</tspan><tspan x="-6.68" y="21.6" fill="#737370" font-family="'Verdana'" font-size="18">figure</tspan></text>
<g>
	<g>
		<g>
			<path fill="#284270" d="M595.744,103.514c0-1.257-1.02-2.276-2.275-2.276h-6.527c-1.256,0-2.275,1.02-2.275,2.276v6.525
				c0,1.257,1.02,2.277,2.275,2.277h6.527c1.256,0,2.275-1.021,2.275-2.277V103.514z"/>
			<path fill="#284270" d="M610.029,103.514c0-1.257-1.02-2.276-2.277-2.276h-6.525c-1.257,0-2.276,1.02-2.276,2.276v6.525
				c0,1.257,1.02,2.277,2.276,2.277h6.525c1.258,0,2.277-1.021,2.277-2.277V103.514z"/>
			<path fill="#284270" d="M623.779,103.514c0-1.257-1.02-2.276-2.277-2.276h-6.525c-1.257,0-2.276,1.02-2.276,2.276v6.525
				c0,1.257,1.02,2.277,2.276,2.277h6.525c1.258,0,2.277-1.021,2.277-2.277V103.514z"/>
			<path fill="#284270" d="M610.029,89.333c0-1.257-1.02-2.276-2.277-2.276h-6.525c-1.257,0-2.276,1.02-2.276,2.276v6.525
				c0,1.257,1.02,2.277,2.276,2.277h6.525c1.258,0,2.277-1.021,2.277-2.277V89.333z"/>
			<path fill="#284270" d="M610.029,117.333c0-1.257-1.02-2.276-2.277-2.276h-6.525c-1.257,0-2.276,1.02-2.276,2.276v6.525
				c0,1.257,1.02,2.277,2.276,2.277h6.525c1.258,0,2.277-1.021,2.277-2.277V117.333z"/>
		</g>
		<g>
			<path fill="#221E20" d="M593.27,78.667c0,1.566-0.245,2.716-0.735,3.448s-1.251,1.099-2.282,1.099
				c-1.047,0-1.812-0.371-2.294-1.113s-0.724-1.883-0.724-3.422c0-1.551,0.244-2.696,0.732-3.437s1.25-1.11,2.285-1.11
				c1.047,0,1.812,0.376,2.294,1.128S593.27,77.147,593.27,78.667z M591.729,81.327c0.137-0.316,0.229-0.688,0.278-1.116
				s0.073-0.942,0.073-1.544c0-0.594-0.024-1.109-0.073-1.547s-0.144-0.809-0.284-1.113c-0.137-0.301-0.323-0.527-0.56-0.68
				s-0.54-0.229-0.911-0.229c-0.367,0-0.671,0.076-0.911,0.229s-0.431,0.383-0.571,0.691c-0.133,0.289-0.224,0.666-0.272,1.131
				s-0.073,0.975-0.073,1.529c0,0.609,0.021,1.119,0.064,1.529s0.135,0.777,0.275,1.102c0.129,0.305,0.312,0.537,0.548,0.697
				s0.55,0.24,0.94,0.24c0.367,0,0.672-0.076,0.914-0.229S591.596,81.636,591.729,81.327z"/>
			<path fill="#221E20" d="M606.608,83.032h-4.723v-0.891h1.816v-5.848h-1.816v-0.797c0.246,0,0.51-0.021,0.791-0.062
				s0.494-0.101,0.639-0.179c0.18-0.098,0.321-0.222,0.425-0.372s0.163-0.353,0.179-0.606h0.908v7.863h1.781V83.032z"/>
			<path fill="#221E20" d="M621.195,83.032h-5.906v-1.225c0.41-0.352,0.822-0.703,1.234-1.055s0.795-0.701,1.15-1.049
				c0.75-0.727,1.264-1.304,1.541-1.731s0.416-0.89,0.416-1.386c0-0.453-0.148-0.808-0.447-1.063s-0.717-0.384-1.252-0.384
				c-0.355,0-0.74,0.062-1.154,0.188s-0.818,0.316-1.213,0.574h-0.059v-1.23c0.277-0.137,0.648-0.262,1.111-0.375
				s0.91-0.17,1.344-0.17c0.895,0,1.596,0.216,2.104,0.647s0.762,1.017,0.762,1.755c0,0.332-0.041,0.642-0.125,0.929
				s-0.209,0.56-0.373,0.817c-0.152,0.242-0.33,0.48-0.535,0.715s-0.455,0.494-0.748,0.779c-0.418,0.41-0.85,0.808-1.295,1.192
				s-0.861,0.741-1.248,1.069h4.693V83.032z"/>
			<path fill="#221E20" d="M634.468,78.831c0.188,0.168,0.342,0.379,0.463,0.633s0.182,0.582,0.182,0.984
				c0,0.398-0.072,0.764-0.217,1.096s-0.348,0.621-0.609,0.867c-0.293,0.273-0.638,0.476-1.034,0.606s-0.831,0.196-1.304,0.196
				c-0.484,0-0.961-0.058-1.43-0.173s-0.854-0.241-1.154-0.378v-1.225h0.088c0.332,0.219,0.723,0.4,1.172,0.545
				s0.883,0.217,1.301,0.217c0.246,0,0.508-0.041,0.785-0.123s0.502-0.203,0.674-0.363c0.18-0.172,0.313-0.361,0.401-0.568
				s0.132-0.469,0.132-0.785c0-0.312-0.05-0.571-0.149-0.776s-0.237-0.366-0.413-0.483c-0.176-0.121-0.389-0.204-0.639-0.249
				s-0.52-0.067-0.809-0.067h-0.527v-0.973h0.41c0.594,0,1.067-0.124,1.421-0.372s0.53-0.61,0.53-1.087
				c0-0.211-0.045-0.396-0.135-0.554s-0.215-0.288-0.375-0.39c-0.168-0.102-0.348-0.172-0.539-0.211s-0.408-0.059-0.65-0.059
				c-0.371,0-0.766,0.066-1.184,0.199s-0.812,0.32-1.184,0.562h-0.059v-1.225c0.277-0.137,0.647-0.263,1.11-0.378
				s0.911-0.173,1.345-0.173c0.426,0,0.801,0.039,1.125,0.117s0.617,0.203,0.879,0.375c0.281,0.188,0.494,0.414,0.639,0.68
				s0.217,0.576,0.217,0.932c0,0.484-0.171,0.907-0.513,1.269s-0.745,0.589-1.21,0.683v0.082c0.188,0.031,0.402,0.097,0.645,0.196
				S634.3,78.683,634.468,78.831z"/>
		</g>
		<g>
			<path fill="#221E20" d="M576.849,134.421c0.188,0.168,0.342,0.379,0.463,0.633s0.182,0.582,0.182,0.984
				c0,0.398-0.072,0.764-0.217,1.096s-0.348,0.621-0.609,0.867c-0.293,0.273-0.638,0.476-1.034,0.606s-0.831,0.196-1.304,0.196
				c-0.484,0-0.961-0.058-1.43-0.173s-0.854-0.241-1.154-0.378v-1.225h0.088c0.332,0.219,0.723,0.4,1.172,0.545
				s0.883,0.217,1.301,0.217c0.246,0,0.508-0.041,0.785-0.123s0.502-0.203,0.674-0.363c0.18-0.172,0.313-0.361,0.401-0.568
				s0.132-0.469,0.132-0.785c0-0.312-0.05-0.571-0.149-0.776s-0.237-0.366-0.413-0.483c-0.176-0.121-0.389-0.204-0.639-0.249
				s-0.52-0.067-0.809-0.067h-0.527v-0.973h0.41c0.594,0,1.067-0.124,1.421-0.372s0.53-0.61,0.53-1.087
				c0-0.211-0.045-0.396-0.135-0.554s-0.215-0.288-0.375-0.39c-0.168-0.102-0.348-0.172-0.539-0.211s-0.408-0.059-0.65-0.059
				c-0.371,0-0.766,0.066-1.184,0.199s-0.812,0.32-1.184,0.562h-0.059v-1.225c0.277-0.137,0.647-0.263,1.11-0.378
				s0.911-0.173,1.345-0.173c0.426,0,0.801,0.039,1.125,0.117s0.617,0.203,0.879,0.375c0.281,0.188,0.494,0.414,0.639,0.68
				s0.217,0.576,0.217,0.932c0,0.484-0.171,0.907-0.513,1.269s-0.745,0.589-1.21,0.683v0.082c0.188,0.031,0.402,0.097,0.645,0.196
				S576.681,134.272,576.849,134.421z"/>
			<path fill="#221E20" d="M577.616,124.751h-5.906v-1.225c0.41-0.352,0.821-0.703,1.233-1.055s0.796-0.701,1.151-1.049
				c0.75-0.727,1.264-1.304,1.541-1.731s0.416-0.89,0.416-1.386c0-0.453-0.149-0.808-0.448-1.063s-0.716-0.384-1.251-0.384
				c-0.355,0-0.74,0.062-1.154,0.188s-0.818,0.316-1.213,0.574h-0.059v-1.23c0.277-0.137,0.647-0.262,1.11-0.375
				s0.911-0.17,1.345-0.17c0.895,0,1.596,0.216,2.104,0.647s0.762,1.017,0.762,1.755c0,0.332-0.042,0.642-0.126,0.929
				s-0.208,0.56-0.372,0.817c-0.152,0.242-0.331,0.48-0.536,0.715s-0.454,0.494-0.747,0.779c-0.418,0.41-0.85,0.808-1.295,1.192
				s-0.861,0.741-1.248,1.069h4.693V124.751z"/>
			<path fill="#221E20" d="M577.118,112.133h-4.723v-0.891h1.816v-5.848h-1.816v-0.797c0.246,0,0.51-0.021,0.791-0.062
				s0.494-0.101,0.639-0.179c0.18-0.098,0.321-0.222,0.425-0.372s0.163-0.353,0.179-0.606h0.908v7.863h1.781V112.133z"/>
			<path fill="#221E20" d="M577.604,93.126c0,1.566-0.245,2.716-0.735,3.448s-1.251,1.099-2.282,1.099
				c-1.047,0-1.812-0.371-2.294-1.113s-0.724-1.883-0.724-3.422c0-1.551,0.244-2.696,0.732-3.437s1.25-1.11,2.285-1.11
				c1.047,0,1.812,0.376,2.294,1.128S577.604,91.606,577.604,93.126z M576.063,95.786c0.137-0.316,0.229-0.688,0.278-1.116
				s0.073-0.942,0.073-1.544c0-0.594-0.024-1.109-0.073-1.547s-0.144-0.809-0.284-1.113c-0.137-0.301-0.323-0.527-0.56-0.68
				s-0.54-0.229-0.911-0.229c-0.367,0-0.671,0.076-0.911,0.229s-0.431,0.383-0.571,0.691c-0.133,0.289-0.224,0.666-0.272,1.131
				s-0.073,0.975-0.073,1.529c0,0.609,0.021,1.119,0.064,1.529s0.135,0.777,0.275,1.102c0.129,0.305,0.312,0.537,0.548,0.697
				s0.55,0.24,0.94,0.24c0.367,0,0.672-0.076,0.914-0.229S575.931,96.095,576.063,95.786z"/>
		</g>
		<line fill="#221E20" stroke="#221E20" stroke-miterlimit="10" x1="583.366" y1="68.001" x2="583.366" y2="155.6"/>
		<line fill="#221E20" stroke="#221E20" stroke-miterlimit="10" x1="597.366" y1="68.001" x2="597.366" y2="155.6"/>
		<line fill="#221E20" stroke="#221E20" stroke-miterlimit="10" x1="611.366" y1="68.001" x2="611.366" y2="155.6"/>
		<line fill="#221E20" stroke="#221E20" stroke-miterlimit="10" x1="625.366" y1="68.001" x2="625.366" y2="155.6"/>
		<line fill="#221E20" stroke="#221E20" stroke-miterlimit="10" x1="639.366" y1="68.001" x2="639.366" y2="155.6"/>
		<line fill="#221E20" stroke="#221E20" stroke-miterlimit="10" x1="567.699" y1="85.602" x2="653.365" y2="85.602"/>
		<line fill="#221E20" stroke="#221E20" stroke-miterlimit="10" x1="567.699" y1="99.602" x2="653.365" y2="99.602"/>
		<line fill="#221E20" stroke="#221E20" stroke-miterlimit="10" x1="567.699" y1="113.602" x2="653.365" y2="113.602"/>
		<line fill="#221E20" stroke="#221E20" stroke-miterlimit="10" x1="567.699" y1="127.602" x2="653.365" y2="127.602"/>
		<line fill="#221E20" stroke="#221E20" stroke-miterlimit="10" x1="567.699" y1="141.602" x2="653.365" y2="141.602"/>
	</g>
	<text transform="matrix(1 0 0 1 470.1055 127.2671)" fill="#294270" font-family="'Verdana-Bold'" font-size="21">800</text>
</g>
<g>
	<g>
		<g>
			<path fill="#284270" d="M595.744,199.014c0-1.257-1.02-2.276-2.275-2.276h-6.527c-1.256,0-2.275,1.02-2.275,2.276v6.525
				c0,1.257,1.02,2.277,2.275,2.277h6.527c1.256,0,2.275-1.021,2.275-2.277V199.014z"/>
			<path fill="#284270" d="M595.746,184.667c0-1.257-1.02-2.276-2.277-2.276h-6.525c-1.258,0-2.277,1.02-2.277,2.276v6.525
				c0,1.257,1.02,2.277,2.277,2.277h6.525c1.258,0,2.277-1.021,2.277-2.277V184.667z"/>
			<path fill="#284270" d="M623.779,199.014c0-1.257-1.02-2.276-2.277-2.276h-6.525c-1.257,0-2.276,1.02-2.276,2.276v6.525
				c0,1.257,1.02,2.277,2.276,2.277h6.525c1.258,0,2.277-1.021,2.277-2.277V199.014z"/>
			<path fill="#284270" d="M623.779,184.75c0-1.257-1.02-2.276-2.277-2.276h-6.525c-1.257,0-2.276,1.02-2.276,2.276v6.525
				c0,1.257,1.02,2.277,2.276,2.277h6.525c1.258,0,2.277-1.021,2.277-2.277V184.75z"/>
			<path fill="#284270" d="M610.029,184.833c0-1.257-1.02-2.276-2.277-2.276h-6.525c-1.257,0-2.276,1.02-2.276,2.276v6.525
				c0,1.257,1.02,2.277,2.276,2.277h6.525c1.258,0,2.277-1.021,2.277-2.277V184.833z"/>
			<path fill="#284270" d="M595.746,212.667c0-1.257-1.02-2.276-2.277-2.276h-6.525c-1.258,0-2.277,1.02-2.277,2.276v6.525
				c0,1.257,1.02,2.277,2.277,2.277h6.525c1.258,0,2.277-1.021,2.277-2.277V212.667z"/>
			<path fill="#284270" d="M623.779,212.75c0-1.257-1.02-2.276-2.277-2.276h-6.525c-1.257,0-2.276,1.02-2.276,2.276v6.525
				c0,1.257,1.02,2.277,2.276,2.277h6.525c1.258,0,2.277-1.021,2.277-2.277V212.75z"/>
		</g>
		<g>
			<path fill="#221E20" d="M593.27,174.167c0,1.566-0.245,2.716-0.735,3.448s-1.251,1.099-2.282,1.099
				c-1.047,0-1.812-0.371-2.294-1.113s-0.724-1.883-0.724-3.422c0-1.551,0.244-2.696,0.732-3.437s1.25-1.11,2.285-1.11
				c1.047,0,1.812,0.376,2.294,1.128S593.27,172.647,593.27,174.167z M591.729,176.827c0.137-0.316,0.229-0.688,0.278-1.116
				s0.073-0.942,0.073-1.544c0-0.594-0.024-1.109-0.073-1.547s-0.144-0.809-0.284-1.113c-0.137-0.301-0.323-0.527-0.56-0.68
				s-0.54-0.229-0.911-0.229c-0.367,0-0.671,0.076-0.911,0.229s-0.431,0.383-0.571,0.691c-0.133,0.289-0.224,0.666-0.272,1.131
				s-0.073,0.975-0.073,1.529c0,0.609,0.021,1.119,0.064,1.529s0.135,0.777,0.275,1.102c0.129,0.305,0.312,0.537,0.548,0.697
				s0.55,0.24,0.94,0.24c0.367,0,0.672-0.076,0.914-0.229S591.596,177.136,591.729,176.827z"/>
			<path fill="#221E20" d="M606.608,178.532h-4.723v-0.891h1.816v-5.848h-1.816v-0.797c0.246,0,0.51-0.021,0.791-0.062
				s0.494-0.101,0.639-0.179c0.18-0.098,0.321-0.222,0.425-0.372s0.163-0.353,0.179-0.606h0.908v7.863h1.781V178.532z"/>
			<path fill="#221E20" d="M621.195,178.532h-5.906v-1.225c0.41-0.352,0.822-0.703,1.234-1.055s0.795-0.701,1.15-1.049
				c0.75-0.727,1.264-1.304,1.541-1.731s0.416-0.89,0.416-1.386c0-0.453-0.148-0.808-0.447-1.063s-0.717-0.384-1.252-0.384
				c-0.355,0-0.74,0.062-1.154,0.188s-0.818,0.316-1.213,0.574h-0.059v-1.23c0.277-0.137,0.648-0.262,1.111-0.375
				s0.91-0.17,1.344-0.17c0.895,0,1.596,0.216,2.104,0.647s0.762,1.017,0.762,1.755c0,0.332-0.041,0.642-0.125,0.929
				s-0.209,0.56-0.373,0.817c-0.152,0.242-0.33,0.48-0.535,0.715s-0.455,0.494-0.748,0.779c-0.418,0.41-0.85,0.808-1.295,1.192
				s-0.861,0.741-1.248,1.069h4.693V178.532z"/>
			<path fill="#221E20" d="M634.468,174.331c0.188,0.168,0.342,0.379,0.463,0.633s0.182,0.582,0.182,0.984
				c0,0.398-0.072,0.764-0.217,1.096s-0.348,0.621-0.609,0.867c-0.293,0.273-0.638,0.476-1.034,0.606s-0.831,0.196-1.304,0.196
				c-0.484,0-0.961-0.058-1.43-0.173s-0.854-0.241-1.154-0.378v-1.225h0.088c0.332,0.219,0.723,0.4,1.172,0.545
				s0.883,0.217,1.301,0.217c0.246,0,0.508-0.041,0.785-0.123s0.502-0.203,0.674-0.363c0.18-0.172,0.313-0.361,0.401-0.568
				s0.132-0.469,0.132-0.785c0-0.312-0.05-0.571-0.149-0.776s-0.237-0.366-0.413-0.483c-0.176-0.121-0.389-0.204-0.639-0.249
				s-0.52-0.067-0.809-0.067h-0.527v-0.973h0.41c0.594,0,1.067-0.124,1.421-0.372s0.53-0.61,0.53-1.087
				c0-0.211-0.045-0.396-0.135-0.554s-0.215-0.288-0.375-0.39c-0.168-0.102-0.348-0.172-0.539-0.211s-0.408-0.059-0.65-0.059
				c-0.371,0-0.766,0.066-1.184,0.199s-0.812,0.32-1.184,0.562h-0.059v-1.225c0.277-0.137,0.647-0.263,1.11-0.378
				s0.911-0.173,1.345-0.173c0.426,0,0.801,0.039,1.125,0.117s0.617,0.203,0.879,0.375c0.281,0.188,0.494,0.414,0.639,0.68
				s0.217,0.576,0.217,0.932c0,0.484-0.171,0.907-0.513,1.269s-0.745,0.589-1.21,0.683v0.082c0.188,0.031,0.402,0.097,0.645,0.196
				S634.3,174.183,634.468,174.331z"/>
		</g>
		<g>
			<path fill="#221E20" d="M576.849,229.921c0.188,0.168,0.342,0.379,0.463,0.633s0.182,0.582,0.182,0.984
				c0,0.398-0.072,0.764-0.217,1.096s-0.348,0.621-0.609,0.867c-0.293,0.273-0.638,0.476-1.034,0.606s-0.831,0.196-1.304,0.196
				c-0.484,0-0.961-0.058-1.43-0.173s-0.854-0.241-1.154-0.378v-1.225h0.088c0.332,0.219,0.723,0.4,1.172,0.545
				s0.883,0.217,1.301,0.217c0.246,0,0.508-0.041,0.785-0.123s0.502-0.203,0.674-0.363c0.18-0.172,0.313-0.361,0.401-0.568
				s0.132-0.469,0.132-0.785c0-0.312-0.05-0.571-0.149-0.776s-0.237-0.366-0.413-0.483c-0.176-0.121-0.389-0.204-0.639-0.249
				s-0.52-0.067-0.809-0.067h-0.527v-0.973h0.41c0.594,0,1.067-0.124,1.421-0.372s0.53-0.61,0.53-1.087
				c0-0.211-0.045-0.396-0.135-0.554s-0.215-0.288-0.375-0.39c-0.168-0.102-0.348-0.172-0.539-0.211s-0.408-0.059-0.65-0.059
				c-0.371,0-0.766,0.066-1.184,0.199s-0.812,0.32-1.184,0.562h-0.059v-1.225c0.277-0.137,0.647-0.263,1.11-0.378
				s0.911-0.173,1.345-0.173c0.426,0,0.801,0.039,1.125,0.117s0.617,0.203,0.879,0.375c0.281,0.188,0.494,0.414,0.639,0.68
				s0.217,0.576,0.217,0.932c0,0.484-0.171,0.907-0.513,1.269s-0.745,0.589-1.21,0.683v0.082c0.188,0.031,0.402,0.097,0.645,0.196
				S576.681,229.772,576.849,229.921z"/>
			<path fill="#221E20" d="M577.616,220.251h-5.906v-1.225c0.41-0.352,0.821-0.703,1.233-1.055s0.796-0.701,1.151-1.049
				c0.75-0.727,1.264-1.304,1.541-1.731s0.416-0.89,0.416-1.386c0-0.453-0.149-0.808-0.448-1.063s-0.716-0.384-1.251-0.384
				c-0.355,0-0.74,0.062-1.154,0.188s-0.818,0.316-1.213,0.574h-0.059v-1.23c0.277-0.137,0.647-0.262,1.11-0.375
				s0.911-0.17,1.345-0.17c0.895,0,1.596,0.216,2.104,0.647s0.762,1.017,0.762,1.755c0,0.332-0.042,0.642-0.126,0.929
				s-0.208,0.56-0.372,0.817c-0.152,0.242-0.331,0.48-0.536,0.715s-0.454,0.494-0.747,0.779c-0.418,0.41-0.85,0.808-1.295,1.192
				s-0.861,0.741-1.248,1.069h4.693V220.251z"/>
			<path fill="#221E20" d="M577.118,207.633h-4.723v-0.891h1.816v-5.848h-1.816v-0.797c0.246,0,0.51-0.021,0.791-0.062
				s0.494-0.101,0.639-0.179c0.18-0.098,0.321-0.222,0.425-0.372s0.163-0.353,0.179-0.606h0.908v7.863h1.781V207.633z"/>
			<path fill="#221E20" d="M577.604,188.626c0,1.566-0.245,2.716-0.735,3.448s-1.251,1.099-2.282,1.099
				c-1.047,0-1.812-0.371-2.294-1.113s-0.724-1.883-0.724-3.422c0-1.551,0.244-2.696,0.732-3.437s1.25-1.11,2.285-1.11
				c1.047,0,1.812,0.376,2.294,1.128S577.604,187.106,577.604,188.626z M576.063,191.286c0.137-0.316,0.229-0.688,0.278-1.116
				s0.073-0.942,0.073-1.544c0-0.594-0.024-1.109-0.073-1.547s-0.144-0.809-0.284-1.113c-0.137-0.301-0.323-0.527-0.56-0.68
				s-0.54-0.229-0.911-0.229c-0.367,0-0.671,0.076-0.911,0.229s-0.431,0.383-0.571,0.691c-0.133,0.289-0.224,0.666-0.272,1.131
				s-0.073,0.975-0.073,1.529c0,0.609,0.021,1.119,0.064,1.529s0.135,0.777,0.275,1.102c0.129,0.305,0.312,0.537,0.548,0.697
				s0.55,0.24,0.94,0.24c0.367,0,0.672-0.076,0.914-0.229S575.931,191.595,576.063,191.286z"/>
		</g>
		<line fill="#221E20" stroke="#221E20" stroke-miterlimit="10" x1="583.366" y1="163.501" x2="583.366" y2="251.1"/>
		<line fill="#221E20" stroke="#221E20" stroke-miterlimit="10" x1="597.366" y1="163.501" x2="597.366" y2="251.1"/>
		<line fill="#221E20" stroke="#221E20" stroke-miterlimit="10" x1="611.366" y1="163.501" x2="611.366" y2="251.1"/>
		<line fill="#221E20" stroke="#221E20" stroke-miterlimit="10" x1="625.366" y1="163.501" x2="625.366" y2="251.1"/>
		<line fill="#221E20" stroke="#221E20" stroke-miterlimit="10" x1="639.366" y1="163.501" x2="639.366" y2="251.1"/>
		<line fill="#221E20" stroke="#221E20" stroke-miterlimit="10" x1="567.699" y1="181.102" x2="653.365" y2="181.102"/>
		<line fill="#221E20" stroke="#221E20" stroke-miterlimit="10" x1="567.699" y1="195.102" x2="653.365" y2="195.102"/>
		<line fill="#221E20" stroke="#221E20" stroke-miterlimit="10" x1="567.699" y1="209.102" x2="653.365" y2="209.102"/>
		<line fill="#221E20" stroke="#221E20" stroke-miterlimit="10" x1="567.699" y1="223.102" x2="653.365" y2="223.102"/>
		<line fill="#221E20" stroke="#221E20" stroke-miterlimit="10" x1="567.699" y1="237.102" x2="653.365" y2="237.102"/>
	</g>
	<text transform="matrix(1 0 0 1 470.1055 222.7671)" fill="#294270" font-family="'Verdana-Bold'" font-size="21">900</text>
</g>
<g>
	<g>
		<g>
			<path fill="#284270" d="M610.029,294.014c0-1.257-1.02-2.276-2.277-2.276h-6.525c-1.257,0-2.276,1.02-2.276,2.276v6.525
				c0,1.257,1.02,2.277,2.276,2.277h6.525c1.258,0,2.277-1.021,2.277-2.277V294.014z"/>
			<path fill="#284270" d="M595.746,279.667c0-1.257-1.02-2.276-2.277-2.276h-6.525c-1.258,0-2.277,1.02-2.277,2.276v6.525
				c0,1.257,1.02,2.277,2.277,2.277h6.525c1.258,0,2.277-1.021,2.277-2.277V279.667z"/>
			<path fill="#284270" d="M623.779,279.75c0-1.257-1.02-2.276-2.277-2.276h-6.525c-1.257,0-2.276,1.02-2.276,2.276v6.525
				c0,1.257,1.02,2.277,2.276,2.277h6.525c1.258,0,2.277-1.021,2.277-2.277V279.75z"/>
			<path fill="#284270" d="M610.029,279.833c0-1.257-1.02-2.276-2.277-2.276h-6.525c-1.257,0-2.276,1.02-2.276,2.276v6.525
				c0,1.257,1.02,2.277,2.276,2.277h6.525c1.258,0,2.277-1.021,2.277-2.277V279.833z"/>
			<path fill="#284270" d="M595.746,307.667c0-1.257-1.02-2.276-2.277-2.276h-6.525c-1.258,0-2.277,1.02-2.277,2.276v6.525
				c0,1.257,1.02,2.277,2.277,2.277h6.525c1.258,0,2.277-1.021,2.277-2.277V307.667z"/>
			<path fill="#284270" d="M623.779,307.75c0-1.257-1.02-2.276-2.277-2.276h-6.525c-1.257,0-2.276,1.02-2.276,2.276v6.525
				c0,1.257,1.02,2.277,2.276,2.277h6.525c1.258,0,2.277-1.021,2.277-2.277V307.75z"/>
			<path fill="#284270" d="M610.029,307.833c0-1.257-1.02-2.276-2.277-2.276h-6.525c-1.257,0-2.276,1.02-2.276,2.276v6.525
				c0,1.257,1.02,2.277,2.276,2.277h6.525c1.258,0,2.277-1.021,2.277-2.277V307.833z"/>
		</g>
		<g>
			<path fill="#221E20" d="M593.27,269.167c0,1.566-0.245,2.716-0.735,3.448s-1.251,1.099-2.282,1.099
				c-1.047,0-1.812-0.371-2.294-1.113s-0.724-1.883-0.724-3.422c0-1.551,0.244-2.696,0.732-3.437s1.25-1.11,2.285-1.11
				c1.047,0,1.812,0.376,2.294,1.128S593.27,267.647,593.27,269.167z M591.729,271.827c0.137-0.316,0.229-0.688,0.278-1.116
				s0.073-0.942,0.073-1.544c0-0.594-0.024-1.109-0.073-1.547s-0.144-0.809-0.284-1.113c-0.137-0.301-0.323-0.527-0.56-0.68
				s-0.54-0.229-0.911-0.229c-0.367,0-0.671,0.076-0.911,0.229s-0.431,0.383-0.571,0.691c-0.133,0.289-0.224,0.666-0.272,1.131
				s-0.073,0.975-0.073,1.529c0,0.609,0.021,1.119,0.064,1.529s0.135,0.777,0.275,1.102c0.129,0.305,0.312,0.537,0.548,0.697
				s0.55,0.24,0.94,0.24c0.367,0,0.672-0.076,0.914-0.229S591.596,272.136,591.729,271.827z"/>
			<path fill="#221E20" d="M606.608,273.532h-4.723v-0.891h1.816v-5.848h-1.816v-0.797c0.246,0,0.51-0.021,0.791-0.062
				s0.494-0.101,0.639-0.179c0.18-0.098,0.321-0.222,0.425-0.372s0.163-0.353,0.179-0.606h0.908v7.863h1.781V273.532z"/>
			<path fill="#221E20" d="M621.195,273.532h-5.906v-1.225c0.41-0.352,0.822-0.703,1.234-1.055s0.795-0.701,1.15-1.049
				c0.75-0.727,1.264-1.304,1.541-1.731s0.416-0.89,0.416-1.386c0-0.453-0.148-0.808-0.447-1.063s-0.717-0.384-1.252-0.384
				c-0.355,0-0.74,0.062-1.154,0.188s-0.818,0.316-1.213,0.574h-0.059v-1.23c0.277-0.137,0.648-0.262,1.111-0.375
				s0.91-0.17,1.344-0.17c0.895,0,1.596,0.216,2.104,0.647s0.762,1.017,0.762,1.755c0,0.332-0.041,0.642-0.125,0.929
				s-0.209,0.56-0.373,0.817c-0.152,0.242-0.33,0.48-0.535,0.715s-0.455,0.494-0.748,0.779c-0.418,0.41-0.85,0.808-1.295,1.192
				s-0.861,0.741-1.248,1.069h4.693V273.532z"/>
			<path fill="#221E20" d="M634.468,269.331c0.188,0.168,0.342,0.379,0.463,0.633s0.182,0.582,0.182,0.984
				c0,0.398-0.072,0.764-0.217,1.096s-0.348,0.621-0.609,0.867c-0.293,0.273-0.638,0.476-1.034,0.606s-0.831,0.196-1.304,0.196
				c-0.484,0-0.961-0.058-1.43-0.173s-0.854-0.241-1.154-0.378v-1.225h0.088c0.332,0.219,0.723,0.4,1.172,0.545
				s0.883,0.217,1.301,0.217c0.246,0,0.508-0.041,0.785-0.123s0.502-0.203,0.674-0.363c0.18-0.172,0.313-0.361,0.401-0.568
				s0.132-0.469,0.132-0.785c0-0.312-0.05-0.571-0.149-0.776s-0.237-0.366-0.413-0.483c-0.176-0.121-0.389-0.204-0.639-0.249
				s-0.52-0.067-0.809-0.067h-0.527v-0.973h0.41c0.594,0,1.067-0.124,1.421-0.372s0.53-0.61,0.53-1.087
				c0-0.211-0.045-0.396-0.135-0.554s-0.215-0.288-0.375-0.39c-0.168-0.102-0.348-0.172-0.539-0.211s-0.408-0.059-0.65-0.059
				c-0.371,0-0.766,0.066-1.184,0.199s-0.812,0.32-1.184,0.562h-0.059v-1.225c0.277-0.137,0.647-0.263,1.11-0.378
				s0.911-0.173,1.345-0.173c0.426,0,0.801,0.039,1.125,0.117s0.617,0.203,0.879,0.375c0.281,0.188,0.494,0.414,0.639,0.68
				s0.217,0.576,0.217,0.932c0,0.484-0.171,0.907-0.513,1.269s-0.745,0.589-1.21,0.683v0.082c0.188,0.031,0.402,0.097,0.645,0.196
				S634.3,269.183,634.468,269.331z"/>
		</g>
		<g>
			<path fill="#221E20" d="M576.849,324.921c0.188,0.168,0.342,0.379,0.463,0.633s0.182,0.582,0.182,0.984
				c0,0.398-0.072,0.764-0.217,1.096s-0.348,0.621-0.609,0.867c-0.293,0.273-0.638,0.476-1.034,0.606s-0.831,0.196-1.304,0.196
				c-0.484,0-0.961-0.058-1.43-0.173s-0.854-0.241-1.154-0.378v-1.225h0.088c0.332,0.219,0.723,0.4,1.172,0.545
				s0.883,0.217,1.301,0.217c0.246,0,0.508-0.041,0.785-0.123s0.502-0.203,0.674-0.363c0.18-0.172,0.313-0.361,0.401-0.568
				s0.132-0.469,0.132-0.785c0-0.312-0.05-0.571-0.149-0.776s-0.237-0.366-0.413-0.483c-0.176-0.121-0.389-0.204-0.639-0.249
				s-0.52-0.067-0.809-0.067h-0.527v-0.973h0.41c0.594,0,1.067-0.124,1.421-0.372s0.53-0.61,0.53-1.087
				c0-0.211-0.045-0.396-0.135-0.554s-0.215-0.288-0.375-0.39c-0.168-0.102-0.348-0.172-0.539-0.211s-0.408-0.059-0.65-0.059
				c-0.371,0-0.766,0.066-1.184,0.199s-0.812,0.32-1.184,0.562h-0.059v-1.225c0.277-0.137,0.647-0.263,1.11-0.378
				s0.911-0.173,1.345-0.173c0.426,0,0.801,0.039,1.125,0.117s0.617,0.203,0.879,0.375c0.281,0.188,0.494,0.414,0.639,0.68
				s0.217,0.576,0.217,0.932c0,0.484-0.171,0.907-0.513,1.269s-0.745,0.589-1.21,0.683v0.082c0.188,0.031,0.402,0.097,0.645,0.196
				S576.681,324.772,576.849,324.921z"/>
			<path fill="#221E20" d="M577.616,315.251h-5.906v-1.225c0.41-0.352,0.821-0.703,1.233-1.055s0.796-0.701,1.151-1.049
				c0.75-0.727,1.264-1.304,1.541-1.731s0.416-0.89,0.416-1.386c0-0.453-0.149-0.808-0.448-1.063s-0.716-0.384-1.251-0.384
				c-0.355,0-0.74,0.062-1.154,0.188s-0.818,0.316-1.213,0.574h-0.059v-1.23c0.277-0.137,0.647-0.262,1.11-0.375
				s0.911-0.17,1.345-0.17c0.895,0,1.596,0.216,2.104,0.647s0.762,1.017,0.762,1.755c0,0.332-0.042,0.642-0.126,0.929
				s-0.208,0.56-0.372,0.817c-0.152,0.242-0.331,0.48-0.536,0.715s-0.454,0.494-0.747,0.779c-0.418,0.41-0.85,0.808-1.295,1.192
				s-0.861,0.741-1.248,1.069h4.693V315.251z"/>
			<path fill="#221E20" d="M577.118,302.633h-4.723v-0.891h1.816v-5.848h-1.816v-0.797c0.246,0,0.51-0.021,0.791-0.062
				s0.494-0.101,0.639-0.179c0.18-0.098,0.321-0.222,0.425-0.372s0.163-0.353,0.179-0.606h0.908v7.863h1.781V302.633z"/>
			<path fill="#221E20" d="M577.604,283.626c0,1.566-0.245,2.716-0.735,3.448s-1.251,1.099-2.282,1.099
				c-1.047,0-1.812-0.371-2.294-1.113s-0.724-1.883-0.724-3.422c0-1.551,0.244-2.696,0.732-3.437s1.25-1.11,2.285-1.11
				c1.047,0,1.812,0.376,2.294,1.128S577.604,282.106,577.604,283.626z M576.063,286.286c0.137-0.316,0.229-0.688,0.278-1.116
				s0.073-0.942,0.073-1.544c0-0.594-0.024-1.109-0.073-1.547s-0.144-0.809-0.284-1.113c-0.137-0.301-0.323-0.527-0.56-0.68
				s-0.54-0.229-0.911-0.229c-0.367,0-0.671,0.076-0.911,0.229s-0.431,0.383-0.571,0.691c-0.133,0.289-0.224,0.666-0.272,1.131
				s-0.073,0.975-0.073,1.529c0,0.609,0.021,1.119,0.064,1.529s0.135,0.777,0.275,1.102c0.129,0.305,0.312,0.537,0.548,0.697
				s0.55,0.24,0.94,0.24c0.367,0,0.672-0.076,0.914-0.229S575.931,286.595,576.063,286.286z"/>
		</g>
		<line fill="#221E20" stroke="#221E20" stroke-miterlimit="10" x1="583.366" y1="258.501" x2="583.366" y2="346.1"/>
		<line fill="#221E20" stroke="#221E20" stroke-miterlimit="10" x1="597.366" y1="258.501" x2="597.366" y2="346.1"/>
		<line fill="#221E20" stroke="#221E20" stroke-miterlimit="10" x1="611.366" y1="258.501" x2="611.366" y2="346.1"/>
		<line fill="#221E20" stroke="#221E20" stroke-miterlimit="10" x1="625.366" y1="258.501" x2="625.366" y2="346.1"/>
		<line fill="#221E20" stroke="#221E20" stroke-miterlimit="10" x1="639.366" y1="258.501" x2="639.366" y2="346.1"/>
		<line fill="#221E20" stroke="#221E20" stroke-miterlimit="10" x1="567.699" y1="276.102" x2="653.365" y2="276.102"/>
		<line fill="#221E20" stroke="#221E20" stroke-miterlimit="10" x1="567.699" y1="290.102" x2="653.365" y2="290.102"/>
		<line fill="#221E20" stroke="#221E20" stroke-miterlimit="10" x1="567.699" y1="304.102" x2="653.365" y2="304.102"/>
		<line fill="#221E20" stroke="#221E20" stroke-miterlimit="10" x1="567.699" y1="318.102" x2="653.365" y2="318.102"/>
		<line fill="#221E20" stroke="#221E20" stroke-miterlimit="10" x1="567.699" y1="332.102" x2="653.365" y2="332.102"/>
	</g>
	<text transform="matrix(1 0 0 1 462.6406 317.7676)" fill="#294270" font-family="'Verdana-Bold'" font-size="21">1000</text>
</g>
<text transform="matrix(1 0 0 1 256.1323 27.333)"><tspan x="0" y="0" fill="#737370" font-family="'Verdana'" font-size="18">Burned </tspan><tspan x="10.714" y="21.6" fill="#737370" font-family="'Verdana'" font-size="18">times</tspan></text>
<text transform="matrix(1 0 0 1 384.874 27.333)"><tspan x="0" y="0" fill="#737370" font-family="'Verdana'" font-size="18">New</tspan><tspan x="-6.68" y="21.6" fill="#737370" font-family="'Verdana'" font-size="18">figure</tspan></text>
<g>
	<g>
		<g>
			<path fill="#284270" d="M389.244,103.514c0-1.257-1.02-2.276-2.275-2.276h-6.527c-1.256,0-2.275,1.02-2.275,2.276v6.525
				c0,1.257,1.02,2.277,2.275,2.277h6.527c1.256,0,2.275-1.021,2.275-2.277V103.514z"/>
			<path fill="#284270" d="M403.529,103.514c0-1.257-1.02-2.276-2.277-2.276h-6.525c-1.257,0-2.276,1.02-2.276,2.276v6.525
				c0,1.257,1.02,2.277,2.276,2.277h6.525c1.258,0,2.277-1.021,2.277-2.277V103.514z"/>
			<path fill="#284270" d="M389.246,89.167c0-1.257-1.02-2.276-2.277-2.276h-6.525c-1.258,0-2.277,1.02-2.277,2.276v6.525
				c0,1.257,1.02,2.277,2.277,2.277h6.525c1.258,0,2.277-1.021,2.277-2.277V89.167z"/>
			<path fill="#284270" d="M417.279,103.514c0-1.257-1.02-2.276-2.277-2.276h-6.525c-1.257,0-2.276,1.02-2.276,2.276v6.525
				c0,1.257,1.02,2.277,2.276,2.277h6.525c1.258,0,2.277-1.021,2.277-2.277V103.514z"/>
			<path fill="#284270" d="M431.479,103.514c0-1.257-1.02-2.276-2.277-2.276h-6.525c-1.257,0-2.276,1.02-2.276,2.276v6.525
				c0,1.257,1.02,2.277,2.276,2.277h6.525c1.258,0,2.277-1.021,2.277-2.277V103.514z"/>
		</g>
		<g>
			<path fill="#221E20" d="M386.77,78.667c0,1.566-0.245,2.716-0.735,3.448s-1.251,1.099-2.282,1.099
				c-1.047,0-1.812-0.371-2.294-1.113s-0.724-1.883-0.724-3.422c0-1.551,0.244-2.696,0.732-3.437s1.25-1.11,2.285-1.11
				c1.047,0,1.812,0.376,2.294,1.128S386.77,77.147,386.77,78.667z M385.229,81.327c0.137-0.316,0.229-0.688,0.278-1.116
				s0.073-0.942,0.073-1.544c0-0.594-0.024-1.109-0.073-1.547s-0.144-0.809-0.284-1.113c-0.137-0.301-0.323-0.527-0.56-0.68
				s-0.54-0.229-0.911-0.229c-0.367,0-0.671,0.076-0.911,0.229s-0.431,0.383-0.571,0.691c-0.133,0.289-0.224,0.666-0.272,1.131
				s-0.073,0.975-0.073,1.529c0,0.609,0.021,1.119,0.064,1.529s0.135,0.777,0.275,1.102c0.129,0.305,0.312,0.537,0.548,0.697
				s0.55,0.24,0.94,0.24c0.367,0,0.672-0.076,0.914-0.229S385.096,81.636,385.229,81.327z"/>
			<path fill="#221E20" d="M400.108,83.032h-4.723v-0.891h1.816v-5.848h-1.816v-0.797c0.246,0,0.51-0.021,0.791-0.062
				s0.494-0.101,0.639-0.179c0.18-0.098,0.321-0.222,0.425-0.372s0.163-0.353,0.179-0.606h0.908v7.863h1.781V83.032z"/>
			<path fill="#221E20" d="M414.695,83.032h-5.906v-1.225c0.41-0.352,0.822-0.703,1.234-1.055s0.795-0.701,1.15-1.049
				c0.75-0.727,1.264-1.304,1.541-1.731s0.416-0.89,0.416-1.386c0-0.453-0.148-0.808-0.447-1.063s-0.717-0.384-1.252-0.384
				c-0.355,0-0.74,0.062-1.154,0.188s-0.818,0.316-1.213,0.574h-0.059v-1.23c0.277-0.137,0.648-0.262,1.111-0.375
				s0.91-0.17,1.344-0.17c0.895,0,1.596,0.216,2.104,0.647s0.762,1.017,0.762,1.755c0,0.332-0.041,0.642-0.125,0.929
				s-0.209,0.56-0.373,0.817c-0.152,0.242-0.33,0.48-0.535,0.715s-0.455,0.494-0.748,0.779c-0.418,0.41-0.85,0.808-1.295,1.192
				s-0.861,0.741-1.248,1.069h4.693V83.032z"/>
			<path fill="#221E20" d="M427.968,78.831c0.188,0.168,0.342,0.379,0.463,0.633s0.182,0.582,0.182,0.984
				c0,0.398-0.072,0.764-0.217,1.096s-0.348,0.621-0.609,0.867c-0.293,0.273-0.638,0.476-1.034,0.606s-0.831,0.196-1.304,0.196
				c-0.484,0-0.961-0.058-1.43-0.173s-0.854-0.241-1.154-0.378v-1.225h0.088c0.332,0.219,0.723,0.4,1.172,0.545
				s0.883,0.217,1.301,0.217c0.246,0,0.508-0.041,0.785-0.123s0.502-0.203,0.674-0.363c0.18-0.172,0.313-0.361,0.401-0.568
				s0.132-0.469,0.132-0.785c0-0.312-0.05-0.571-0.149-0.776s-0.237-0.366-0.413-0.483c-0.176-0.121-0.389-0.204-0.639-0.249
				s-0.52-0.067-0.809-0.067h-0.527v-0.973h0.41c0.594,0,1.067-0.124,1.421-0.372s0.53-0.61,0.53-1.087
				c0-0.211-0.045-0.396-0.135-0.554s-0.215-0.288-0.375-0.39c-0.168-0.102-0.348-0.172-0.539-0.211s-0.408-0.059-0.65-0.059
				c-0.371,0-0.766,0.066-1.184,0.199s-0.812,0.32-1.184,0.562h-0.059v-1.225c0.277-0.137,0.647-0.263,1.11-0.378
				s0.911-0.173,1.345-0.173c0.426,0,0.801,0.039,1.125,0.117s0.617,0.203,0.879,0.375c0.281,0.188,0.494,0.414,0.639,0.68
				s0.217,0.576,0.217,0.932c0,0.484-0.171,0.907-0.513,1.269s-0.745,0.589-1.21,0.683v0.082c0.188,0.031,0.402,0.097,0.645,0.196
				S427.8,78.683,427.968,78.831z"/>
		</g>
		<g>
			<path fill="#221E20" d="M370.349,134.421c0.188,0.168,0.342,0.379,0.463,0.633s0.182,0.582,0.182,0.984
				c0,0.398-0.072,0.764-0.217,1.096s-0.348,0.621-0.609,0.867c-0.293,0.273-0.638,0.476-1.034,0.606s-0.831,0.196-1.304,0.196
				c-0.484,0-0.961-0.058-1.43-0.173s-0.854-0.241-1.154-0.378v-1.225h0.088c0.332,0.219,0.723,0.4,1.172,0.545
				s0.883,0.217,1.301,0.217c0.246,0,0.508-0.041,0.785-0.123s0.502-0.203,0.674-0.363c0.18-0.172,0.313-0.361,0.401-0.568
				s0.132-0.469,0.132-0.785c0-0.312-0.05-0.571-0.149-0.776s-0.237-0.366-0.413-0.483c-0.176-0.121-0.389-0.204-0.639-0.249
				s-0.52-0.067-0.809-0.067h-0.527v-0.973h0.41c0.594,0,1.067-0.124,1.421-0.372s0.53-0.61,0.53-1.087
				c0-0.211-0.045-0.396-0.135-0.554s-0.215-0.288-0.375-0.39c-0.168-0.102-0.348-0.172-0.539-0.211s-0.408-0.059-0.65-0.059
				c-0.371,0-0.766,0.066-1.184,0.199s-0.812,0.32-1.184,0.562h-0.059v-1.225c0.277-0.137,0.647-0.263,1.11-0.378
				s0.911-0.173,1.345-0.173c0.426,0,0.801,0.039,1.125,0.117s0.617,0.203,0.879,0.375c0.281,0.188,0.494,0.414,0.639,0.68
				s0.217,0.576,0.217,0.932c0,0.484-0.171,0.907-0.513,1.269s-0.745,0.589-1.21,0.683v0.082c0.188,0.031,0.402,0.097,0.645,0.196
				S370.181,134.272,370.349,134.421z"/>
			<path fill="#221E20" d="M371.116,124.751h-5.906v-1.225c0.41-0.352,0.821-0.703,1.233-1.055s0.796-0.701,1.151-1.049
				c0.75-0.727,1.264-1.304,1.541-1.731s0.416-0.89,0.416-1.386c0-0.453-0.149-0.808-0.448-1.063s-0.716-0.384-1.251-0.384
				c-0.355,0-0.74,0.062-1.154,0.188s-0.818,0.316-1.213,0.574h-0.059v-1.23c0.277-0.137,0.647-0.262,1.11-0.375
				s0.911-0.17,1.345-0.17c0.895,0,1.596,0.216,2.104,0.647s0.762,1.017,0.762,1.755c0,0.332-0.042,0.642-0.126,0.929
				s-0.208,0.56-0.372,0.817c-0.152,0.242-0.331,0.48-0.536,0.715s-0.454,0.494-0.747,0.779c-0.418,0.41-0.85,0.808-1.295,1.192
				s-0.861,0.741-1.248,1.069h4.693V124.751z"/>
			<path fill="#221E20" d="M370.618,112.133h-4.723v-0.891h1.816v-5.848h-1.816v-0.797c0.246,0,0.51-0.021,0.791-0.062
				s0.494-0.101,0.639-0.179c0.18-0.098,0.321-0.222,0.425-0.372s0.163-0.353,0.179-0.606h0.908v7.863h1.781V112.133z"/>
			<path fill="#221E20" d="M371.104,93.126c0,1.566-0.245,2.716-0.735,3.448s-1.251,1.099-2.282,1.099
				c-1.047,0-1.812-0.371-2.294-1.113s-0.724-1.883-0.724-3.422c0-1.551,0.244-2.696,0.732-3.437s1.25-1.11,2.285-1.11
				c1.047,0,1.812,0.376,2.294,1.128S371.104,91.606,371.104,93.126z M369.563,95.786c0.137-0.316,0.229-0.688,0.278-1.116
				s0.073-0.942,0.073-1.544c0-0.594-0.024-1.109-0.073-1.547s-0.144-0.809-0.284-1.113c-0.137-0.301-0.323-0.527-0.56-0.68
				s-0.54-0.229-0.911-0.229c-0.367,0-0.671,0.076-0.911,0.229s-0.431,0.383-0.571,0.691c-0.133,0.289-0.224,0.666-0.272,1.131
				s-0.073,0.975-0.073,1.529c0,0.609,0.021,1.119,0.064,1.529s0.135,0.777,0.275,1.102c0.129,0.305,0.312,0.537,0.548,0.697
				s0.55,0.24,0.94,0.24c0.367,0,0.672-0.076,0.914-0.229S369.431,96.095,369.563,95.786z"/>
		</g>
		<line fill="#221E20" stroke="#221E20" stroke-miterlimit="10" x1="376.866" y1="68.001" x2="376.866" y2="155.6"/>
		<line fill="#221E20" stroke="#221E20" stroke-miterlimit="10" x1="390.866" y1="68.001" x2="390.866" y2="155.6"/>
		<line fill="#221E20" stroke="#221E20" stroke-miterlimit="10" x1="404.866" y1="68.001" x2="404.866" y2="155.6"/>
		<line fill="#221E20" stroke="#221E20" stroke-miterlimit="10" x1="418.866" y1="68.001" x2="418.866" y2="155.6"/>
		<line fill="#221E20" stroke="#221E20" stroke-miterlimit="10" x1="432.866" y1="68.001" x2="432.866" y2="155.6"/>
		<line fill="#221E20" stroke="#221E20" stroke-miterlimit="10" x1="361.199" y1="85.602" x2="446.865" y2="85.602"/>
		<line fill="#221E20" stroke="#221E20" stroke-miterlimit="10" x1="361.199" y1="99.602" x2="446.865" y2="99.602"/>
		<line fill="#221E20" stroke="#221E20" stroke-miterlimit="10" x1="361.199" y1="113.602" x2="446.865" y2="113.602"/>
		<line fill="#221E20" stroke="#221E20" stroke-miterlimit="10" x1="361.199" y1="127.602" x2="446.865" y2="127.602"/>
		<line fill="#221E20" stroke="#221E20" stroke-miterlimit="10" x1="361.199" y1="141.602" x2="446.865" y2="141.602"/>
	</g>
	<text transform="matrix(1 0 0 1 263.6055 127.2671)" fill="#294270" font-family="'Verdana-Bold'" font-size="21">400</text>
</g>
<g>
	<g>
		<g>
			<path fill="#284270" d="M389.244,199.514c0-1.257-1.02-2.276-2.275-2.276h-6.527c-1.256,0-2.275,1.02-2.275,2.276v6.525
				c0,1.257,1.02,2.277,2.275,2.277h6.527c1.256,0,2.275-1.021,2.275-2.277V199.514z"/>
			<path fill="#284270" d="M403.529,199.514c0-1.257-1.02-2.276-2.277-2.276h-6.525c-1.257,0-2.276,1.02-2.276,2.276v6.525
				c0,1.257,1.02,2.277,2.276,2.277h6.525c1.258,0,2.277-1.021,2.277-2.277V199.514z"/>
			<path fill="#284270" d="M389.246,185.167c0-1.257-1.02-2.276-2.277-2.276h-6.525c-1.258,0-2.277,1.02-2.277,2.276v6.525
				c0,1.257,1.02,2.277,2.277,2.277h6.525c1.258,0,2.277-1.021,2.277-2.277V185.167z"/>
			<path fill="#284270" d="M417.279,199.514c0-1.257-1.02-2.276-2.277-2.276h-6.525c-1.257,0-2.276,1.02-2.276,2.276v6.525
				c0,1.257,1.02,2.277,2.276,2.277h6.525c1.258,0,2.277-1.021,2.277-2.277V199.514z"/>
			<path fill="#284270" d="M431.479,199.514c0-1.257-1.02-2.276-2.277-2.276h-6.525c-1.257,0-2.276,1.02-2.276,2.276v6.525
				c0,1.257,1.02,2.277,2.276,2.277h6.525c1.258,0,2.277-1.021,2.277-2.277V199.514z"/>
			<path fill="#284270" d="M431.479,185.25c0-1.257-1.02-2.276-2.277-2.276h-6.525c-1.257,0-2.276,1.02-2.276,2.276v6.525
				c0,1.257,1.02,2.277,2.276,2.277h6.525c1.258,0,2.277-1.021,2.277-2.277V185.25z"/>
		</g>
		<g>
			<path fill="#221E20" d="M386.77,174.667c0,1.566-0.245,2.716-0.735,3.448s-1.251,1.099-2.282,1.099
				c-1.047,0-1.812-0.371-2.294-1.113s-0.724-1.883-0.724-3.422c0-1.551,0.244-2.696,0.732-3.437s1.25-1.11,2.285-1.11
				c1.047,0,1.812,0.376,2.294,1.128S386.77,173.147,386.77,174.667z M385.229,177.327c0.137-0.316,0.229-0.688,0.278-1.116
				s0.073-0.942,0.073-1.544c0-0.594-0.024-1.109-0.073-1.547s-0.144-0.809-0.284-1.113c-0.137-0.301-0.323-0.527-0.56-0.68
				s-0.54-0.229-0.911-0.229c-0.367,0-0.671,0.076-0.911,0.229s-0.431,0.383-0.571,0.691c-0.133,0.289-0.224,0.666-0.272,1.131
				s-0.073,0.975-0.073,1.529c0,0.609,0.021,1.119,0.064,1.529s0.135,0.777,0.275,1.102c0.129,0.305,0.312,0.537,0.548,0.697
				s0.55,0.24,0.94,0.24c0.367,0,0.672-0.076,0.914-0.229S385.096,177.636,385.229,177.327z"/>
			<path fill="#221E20" d="M400.108,179.032h-4.723v-0.891h1.816v-5.848h-1.816v-0.797c0.246,0,0.51-0.021,0.791-0.062
				s0.494-0.101,0.639-0.179c0.18-0.098,0.321-0.222,0.425-0.372s0.163-0.353,0.179-0.606h0.908v7.863h1.781V179.032z"/>
			<path fill="#221E20" d="M414.695,179.032h-5.906v-1.225c0.41-0.352,0.822-0.703,1.234-1.055s0.795-0.701,1.15-1.049
				c0.75-0.727,1.264-1.304,1.541-1.731s0.416-0.89,0.416-1.386c0-0.453-0.148-0.808-0.447-1.063s-0.717-0.384-1.252-0.384
				c-0.355,0-0.74,0.062-1.154,0.188s-0.818,0.316-1.213,0.574h-0.059v-1.23c0.277-0.137,0.648-0.262,1.111-0.375
				s0.91-0.17,1.344-0.17c0.895,0,1.596,0.216,2.104,0.647s0.762,1.017,0.762,1.755c0,0.332-0.041,0.642-0.125,0.929
				s-0.209,0.56-0.373,0.817c-0.152,0.242-0.33,0.48-0.535,0.715s-0.455,0.494-0.748,0.779c-0.418,0.41-0.85,0.808-1.295,1.192
				s-0.861,0.741-1.248,1.069h4.693V179.032z"/>
			<path fill="#221E20" d="M427.968,174.831c0.188,0.168,0.342,0.379,0.463,0.633s0.182,0.582,0.182,0.984
				c0,0.398-0.072,0.764-0.217,1.096s-0.348,0.621-0.609,0.867c-0.293,0.273-0.638,0.476-1.034,0.606s-0.831,0.196-1.304,0.196
				c-0.484,0-0.961-0.058-1.43-0.173s-0.854-0.241-1.154-0.378v-1.225h0.088c0.332,0.219,0.723,0.4,1.172,0.545
				s0.883,0.217,1.301,0.217c0.246,0,0.508-0.041,0.785-0.123s0.502-0.203,0.674-0.363c0.18-0.172,0.313-0.361,0.401-0.568
				s0.132-0.469,0.132-0.785c0-0.312-0.05-0.571-0.149-0.776s-0.237-0.366-0.413-0.483c-0.176-0.121-0.389-0.204-0.639-0.249
				s-0.52-0.067-0.809-0.067h-0.527v-0.973h0.41c0.594,0,1.067-0.124,1.421-0.372s0.53-0.61,0.53-1.087
				c0-0.211-0.045-0.396-0.135-0.554s-0.215-0.288-0.375-0.39c-0.168-0.102-0.348-0.172-0.539-0.211s-0.408-0.059-0.65-0.059
				c-0.371,0-0.766,0.066-1.184,0.199s-0.812,0.32-1.184,0.562h-0.059v-1.225c0.277-0.137,0.647-0.263,1.11-0.378
				s0.911-0.173,1.345-0.173c0.426,0,0.801,0.039,1.125,0.117s0.617,0.203,0.879,0.375c0.281,0.188,0.494,0.414,0.639,0.68
				s0.217,0.576,0.217,0.932c0,0.484-0.171,0.907-0.513,1.269s-0.745,0.589-1.21,0.683v0.082c0.188,0.031,0.402,0.097,0.645,0.196
				S427.8,174.683,427.968,174.831z"/>
		</g>
		<g>
			<path fill="#221E20" d="M370.349,230.421c0.188,0.168,0.342,0.379,0.463,0.633s0.182,0.582,0.182,0.984
				c0,0.398-0.072,0.764-0.217,1.096s-0.348,0.621-0.609,0.867c-0.293,0.273-0.638,0.476-1.034,0.606s-0.831,0.196-1.304,0.196
				c-0.484,0-0.961-0.058-1.43-0.173s-0.854-0.241-1.154-0.378v-1.225h0.088c0.332,0.219,0.723,0.4,1.172,0.545
				s0.883,0.217,1.301,0.217c0.246,0,0.508-0.041,0.785-0.123s0.502-0.203,0.674-0.363c0.18-0.172,0.313-0.361,0.401-0.568
				s0.132-0.469,0.132-0.785c0-0.312-0.05-0.571-0.149-0.776s-0.237-0.366-0.413-0.483c-0.176-0.121-0.389-0.204-0.639-0.249
				s-0.52-0.067-0.809-0.067h-0.527v-0.973h0.41c0.594,0,1.067-0.124,1.421-0.372s0.53-0.61,0.53-1.087
				c0-0.211-0.045-0.396-0.135-0.554s-0.215-0.288-0.375-0.39c-0.168-0.102-0.348-0.172-0.539-0.211s-0.408-0.059-0.65-0.059
				c-0.371,0-0.766,0.066-1.184,0.199s-0.812,0.32-1.184,0.562h-0.059v-1.225c0.277-0.137,0.647-0.263,1.11-0.378
				s0.911-0.173,1.345-0.173c0.426,0,0.801,0.039,1.125,0.117s0.617,0.203,0.879,0.375c0.281,0.188,0.494,0.414,0.639,0.68
				s0.217,0.576,0.217,0.932c0,0.484-0.171,0.907-0.513,1.269s-0.745,0.589-1.21,0.683v0.082c0.188,0.031,0.402,0.097,0.645,0.196
				S370.181,230.272,370.349,230.421z"/>
			<path fill="#221E20" d="M371.116,220.751h-5.906v-1.225c0.41-0.352,0.821-0.703,1.233-1.055s0.796-0.701,1.151-1.049
				c0.75-0.727,1.264-1.304,1.541-1.731s0.416-0.89,0.416-1.386c0-0.453-0.149-0.808-0.448-1.063s-0.716-0.384-1.251-0.384
				c-0.355,0-0.74,0.062-1.154,0.188s-0.818,0.316-1.213,0.574h-0.059v-1.23c0.277-0.137,0.647-0.262,1.11-0.375
				s0.911-0.17,1.345-0.17c0.895,0,1.596,0.216,2.104,0.647s0.762,1.017,0.762,1.755c0,0.332-0.042,0.642-0.126,0.929
				s-0.208,0.56-0.372,0.817c-0.152,0.242-0.331,0.48-0.536,0.715s-0.454,0.494-0.747,0.779c-0.418,0.41-0.85,0.808-1.295,1.192
				s-0.861,0.741-1.248,1.069h4.693V220.751z"/>
			<path fill="#221E20" d="M370.618,208.133h-4.723v-0.891h1.816v-5.848h-1.816v-0.797c0.246,0,0.51-0.021,0.791-0.062
				s0.494-0.101,0.639-0.179c0.18-0.098,0.321-0.222,0.425-0.372s0.163-0.353,0.179-0.606h0.908v7.863h1.781V208.133z"/>
			<path fill="#221E20" d="M371.104,189.126c0,1.566-0.245,2.716-0.735,3.448s-1.251,1.099-2.282,1.099
				c-1.047,0-1.812-0.371-2.294-1.113s-0.724-1.883-0.724-3.422c0-1.551,0.244-2.696,0.732-3.437s1.25-1.11,2.285-1.11
				c1.047,0,1.812,0.376,2.294,1.128S371.104,187.606,371.104,189.126z M369.563,191.786c0.137-0.316,0.229-0.688,0.278-1.116
				s0.073-0.942,0.073-1.544c0-0.594-0.024-1.109-0.073-1.547s-0.144-0.809-0.284-1.113c-0.137-0.301-0.323-0.527-0.56-0.68
				s-0.54-0.229-0.911-0.229c-0.367,0-0.671,0.076-0.911,0.229s-0.431,0.383-0.571,0.691c-0.133,0.289-0.224,0.666-0.272,1.131
				s-0.073,0.975-0.073,1.529c0,0.609,0.021,1.119,0.064,1.529s0.135,0.777,0.275,1.102c0.129,0.305,0.312,0.537,0.548,0.697
				s0.55,0.24,0.94,0.24c0.367,0,0.672-0.076,0.914-0.229S369.431,192.095,369.563,191.786z"/>
		</g>
		<line fill="#221E20" stroke="#221E20" stroke-miterlimit="10" x1="376.866" y1="164.001" x2="376.866" y2="251.6"/>
		<line fill="#221E20" stroke="#221E20" stroke-miterlimit="10" x1="390.866" y1="164.001" x2="390.866" y2="251.6"/>
		<line fill="#221E20" stroke="#221E20" stroke-miterlimit="10" x1="404.866" y1="164.001" x2="404.866" y2="251.6"/>
		<line fill="#221E20" stroke="#221E20" stroke-miterlimit="10" x1="418.866" y1="164.001" x2="418.866" y2="251.6"/>
		<line fill="#221E20" stroke="#221E20" stroke-miterlimit="10" x1="432.866" y1="164.001" x2="432.866" y2="251.6"/>
		<line fill="#221E20" stroke="#221E20" stroke-miterlimit="10" x1="361.199" y1="181.602" x2="446.865" y2="181.602"/>
		<line fill="#221E20" stroke="#221E20" stroke-miterlimit="10" x1="361.199" y1="195.602" x2="446.865" y2="195.602"/>
		<line fill="#221E20" stroke="#221E20" stroke-miterlimit="10" x1="361.199" y1="209.602" x2="446.865" y2="209.602"/>
		<line fill="#221E20" stroke="#221E20" stroke-miterlimit="10" x1="361.199" y1="223.602" x2="446.865" y2="223.602"/>
		<line fill="#221E20" stroke="#221E20" stroke-miterlimit="10" x1="361.199" y1="237.602" x2="446.865" y2="237.602"/>
	</g>
	<text transform="matrix(1 0 0 1 263.6055 223.2671)" fill="#294270" font-family="'Verdana-Bold'" font-size="21">500</text>
</g>
<g>
	<g>
		<g>
			<path fill="#284270" d="M389.244,295.514c0-1.257-1.02-2.276-2.275-2.276h-6.527c-1.256,0-2.275,1.02-2.275,2.276v6.525
				c0,1.257,1.02,2.277,2.275,2.277h6.527c1.256,0,2.275-1.021,2.275-2.277V295.514z"/>
			<path fill="#284270" d="M403.529,295.514c0-1.257-1.02-2.276-2.277-2.276h-6.525c-1.257,0-2.276,1.02-2.276,2.276v6.525
				c0,1.257,1.02,2.277,2.276,2.277h6.525c1.258,0,2.277-1.021,2.277-2.277V295.514z"/>
			<path fill="#284270" d="M389.246,281.167c0-1.257-1.02-2.276-2.277-2.276h-6.525c-1.258,0-2.277,1.02-2.277,2.276v6.525
				c0,1.257,1.02,2.277,2.277,2.277h6.525c1.258,0,2.277-1.021,2.277-2.277V281.167z"/>
			<path fill="#284270" d="M417.279,295.514c0-1.257-1.02-2.276-2.277-2.276h-6.525c-1.257,0-2.276,1.02-2.276,2.276v6.525
				c0,1.257,1.02,2.277,2.276,2.277h6.525c1.258,0,2.277-1.021,2.277-2.277V295.514z"/>
			<path fill="#284270" d="M417.279,281.25c0-1.257-1.02-2.276-2.277-2.276h-6.525c-1.257,0-2.276,1.02-2.276,2.276v6.525
				c0,1.257,1.02,2.277,2.276,2.277h6.525c1.258,0,2.277-1.021,2.277-2.277V281.25z"/>
			<path fill="#284270" d="M431.479,281.25c0-1.257-1.02-2.276-2.277-2.276h-6.525c-1.257,0-2.276,1.02-2.276,2.276v6.525
				c0,1.257,1.02,2.277,2.276,2.277h6.525c1.258,0,2.277-1.021,2.277-2.277V281.25z"/>
		</g>
		<g>
			<path fill="#221E20" d="M386.77,270.667c0,1.566-0.245,2.716-0.735,3.448s-1.251,1.099-2.282,1.099
				c-1.047,0-1.812-0.371-2.294-1.113s-0.724-1.883-0.724-3.422c0-1.551,0.244-2.696,0.732-3.437s1.25-1.11,2.285-1.11
				c1.047,0,1.812,0.376,2.294,1.128S386.77,269.147,386.77,270.667z M385.229,273.327c0.137-0.316,0.229-0.688,0.278-1.116
				s0.073-0.942,0.073-1.544c0-0.594-0.024-1.109-0.073-1.547s-0.144-0.809-0.284-1.113c-0.137-0.301-0.323-0.527-0.56-0.68
				s-0.54-0.229-0.911-0.229c-0.367,0-0.671,0.076-0.911,0.229s-0.431,0.383-0.571,0.691c-0.133,0.289-0.224,0.666-0.272,1.131
				s-0.073,0.975-0.073,1.529c0,0.609,0.021,1.119,0.064,1.529s0.135,0.777,0.275,1.102c0.129,0.305,0.312,0.537,0.548,0.697
				s0.55,0.24,0.94,0.24c0.367,0,0.672-0.076,0.914-0.229S385.096,273.636,385.229,273.327z"/>
			<path fill="#221E20" d="M400.108,275.032h-4.723v-0.891h1.816v-5.848h-1.816v-0.797c0.246,0,0.51-0.021,0.791-0.062
				s0.494-0.101,0.639-0.179c0.18-0.098,0.321-0.222,0.425-0.372s0.163-0.353,0.179-0.606h0.908v7.863h1.781V275.032z"/>
			<path fill="#221E20" d="M414.695,275.032h-5.906v-1.225c0.41-0.352,0.822-0.703,1.234-1.055s0.795-0.701,1.15-1.049
				c0.75-0.727,1.264-1.304,1.541-1.731s0.416-0.89,0.416-1.386c0-0.453-0.148-0.808-0.447-1.063s-0.717-0.384-1.252-0.384
				c-0.355,0-0.74,0.062-1.154,0.188s-0.818,0.316-1.213,0.574h-0.059v-1.23c0.277-0.137,0.648-0.262,1.111-0.375
				s0.91-0.17,1.344-0.17c0.895,0,1.596,0.216,2.104,0.647s0.762,1.017,0.762,1.755c0,0.332-0.041,0.642-0.125,0.929
				s-0.209,0.56-0.373,0.817c-0.152,0.242-0.33,0.48-0.535,0.715s-0.455,0.494-0.748,0.779c-0.418,0.41-0.85,0.808-1.295,1.192
				s-0.861,0.741-1.248,1.069h4.693V275.032z"/>
			<path fill="#221E20" d="M427.968,270.831c0.188,0.168,0.342,0.379,0.463,0.633s0.182,0.582,0.182,0.984
				c0,0.398-0.072,0.764-0.217,1.096s-0.348,0.621-0.609,0.867c-0.293,0.273-0.638,0.476-1.034,0.606s-0.831,0.196-1.304,0.196
				c-0.484,0-0.961-0.058-1.43-0.173s-0.854-0.241-1.154-0.378v-1.225h0.088c0.332,0.219,0.723,0.4,1.172,0.545
				s0.883,0.217,1.301,0.217c0.246,0,0.508-0.041,0.785-0.123s0.502-0.203,0.674-0.363c0.18-0.172,0.313-0.361,0.401-0.568
				s0.132-0.469,0.132-0.785c0-0.312-0.05-0.571-0.149-0.776s-0.237-0.366-0.413-0.483c-0.176-0.121-0.389-0.204-0.639-0.249
				s-0.52-0.067-0.809-0.067h-0.527v-0.973h0.41c0.594,0,1.067-0.124,1.421-0.372s0.53-0.61,0.53-1.087
				c0-0.211-0.045-0.396-0.135-0.554s-0.215-0.288-0.375-0.39c-0.168-0.102-0.348-0.172-0.539-0.211s-0.408-0.059-0.65-0.059
				c-0.371,0-0.766,0.066-1.184,0.199s-0.812,0.32-1.184,0.562h-0.059v-1.225c0.277-0.137,0.647-0.263,1.11-0.378
				s0.911-0.173,1.345-0.173c0.426,0,0.801,0.039,1.125,0.117s0.617,0.203,0.879,0.375c0.281,0.188,0.494,0.414,0.639,0.68
				s0.217,0.576,0.217,0.932c0,0.484-0.171,0.907-0.513,1.269s-0.745,0.589-1.21,0.683v0.082c0.188,0.031,0.402,0.097,0.645,0.196
				S427.8,270.683,427.968,270.831z"/>
		</g>
		<g>
			<path fill="#221E20" d="M370.349,326.421c0.188,0.168,0.342,0.379,0.463,0.633s0.182,0.582,0.182,0.984
				c0,0.398-0.072,0.764-0.217,1.096s-0.348,0.621-0.609,0.867c-0.293,0.273-0.638,0.476-1.034,0.606s-0.831,0.196-1.304,0.196
				c-0.484,0-0.961-0.058-1.43-0.173s-0.854-0.241-1.154-0.378v-1.225h0.088c0.332,0.219,0.723,0.4,1.172,0.545
				s0.883,0.217,1.301,0.217c0.246,0,0.508-0.041,0.785-0.123s0.502-0.203,0.674-0.363c0.18-0.172,0.313-0.361,0.401-0.568
				s0.132-0.469,0.132-0.785c0-0.312-0.05-0.571-0.149-0.776s-0.237-0.366-0.413-0.483c-0.176-0.121-0.389-0.204-0.639-0.249
				s-0.52-0.067-0.809-0.067h-0.527v-0.973h0.41c0.594,0,1.067-0.124,1.421-0.372s0.53-0.61,0.53-1.087
				c0-0.211-0.045-0.396-0.135-0.554s-0.215-0.288-0.375-0.39c-0.168-0.102-0.348-0.172-0.539-0.211s-0.408-0.059-0.65-0.059
				c-0.371,0-0.766,0.066-1.184,0.199s-0.812,0.32-1.184,0.562h-0.059v-1.225c0.277-0.137,0.647-0.263,1.11-0.378
				s0.911-0.173,1.345-0.173c0.426,0,0.801,0.039,1.125,0.117s0.617,0.203,0.879,0.375c0.281,0.188,0.494,0.414,0.639,0.68
				s0.217,0.576,0.217,0.932c0,0.484-0.171,0.907-0.513,1.269s-0.745,0.589-1.21,0.683v0.082c0.188,0.031,0.402,0.097,0.645,0.196
				S370.181,326.272,370.349,326.421z"/>
			<path fill="#221E20" d="M371.116,316.751h-5.906v-1.225c0.41-0.352,0.821-0.703,1.233-1.055s0.796-0.701,1.151-1.049
				c0.75-0.727,1.264-1.304,1.541-1.731s0.416-0.89,0.416-1.386c0-0.453-0.149-0.808-0.448-1.063s-0.716-0.384-1.251-0.384
				c-0.355,0-0.74,0.062-1.154,0.188s-0.818,0.316-1.213,0.574h-0.059v-1.23c0.277-0.137,0.647-0.262,1.11-0.375
				s0.911-0.17,1.345-0.17c0.895,0,1.596,0.216,2.104,0.647s0.762,1.017,0.762,1.755c0,0.332-0.042,0.642-0.126,0.929
				s-0.208,0.56-0.372,0.817c-0.152,0.242-0.331,0.48-0.536,0.715s-0.454,0.494-0.747,0.779c-0.418,0.41-0.85,0.808-1.295,1.192
				s-0.861,0.741-1.248,1.069h4.693V316.751z"/>
			<path fill="#221E20" d="M370.618,304.133h-4.723v-0.891h1.816v-5.848h-1.816v-0.797c0.246,0,0.51-0.021,0.791-0.062
				s0.494-0.101,0.639-0.179c0.18-0.098,0.321-0.222,0.425-0.372s0.163-0.353,0.179-0.606h0.908v7.863h1.781V304.133z"/>
			<path fill="#221E20" d="M371.104,285.126c0,1.566-0.245,2.716-0.735,3.448s-1.251,1.099-2.282,1.099
				c-1.047,0-1.812-0.371-2.294-1.113s-0.724-1.883-0.724-3.422c0-1.551,0.244-2.696,0.732-3.437s1.25-1.11,2.285-1.11
				c1.047,0,1.812,0.376,2.294,1.128S371.104,283.606,371.104,285.126z M369.563,287.786c0.137-0.316,0.229-0.688,0.278-1.116
				s0.073-0.942,0.073-1.544c0-0.594-0.024-1.109-0.073-1.547s-0.144-0.809-0.284-1.113c-0.137-0.301-0.323-0.527-0.56-0.68
				s-0.54-0.229-0.911-0.229c-0.367,0-0.671,0.076-0.911,0.229s-0.431,0.383-0.571,0.691c-0.133,0.289-0.224,0.666-0.272,1.131
				s-0.073,0.975-0.073,1.529c0,0.609,0.021,1.119,0.064,1.529s0.135,0.777,0.275,1.102c0.129,0.305,0.312,0.537,0.548,0.697
				s0.55,0.24,0.94,0.24c0.367,0,0.672-0.076,0.914-0.229S369.431,288.095,369.563,287.786z"/>
		</g>
		<line fill="#221E20" stroke="#221E20" stroke-miterlimit="10" x1="376.866" y1="260.001" x2="376.866" y2="347.6"/>
		<line fill="#221E20" stroke="#221E20" stroke-miterlimit="10" x1="390.866" y1="260.001" x2="390.866" y2="347.6"/>
		<line fill="#221E20" stroke="#221E20" stroke-miterlimit="10" x1="404.866" y1="260.001" x2="404.866" y2="347.6"/>
		<line fill="#221E20" stroke="#221E20" stroke-miterlimit="10" x1="418.866" y1="260.001" x2="418.866" y2="347.6"/>
		<line fill="#221E20" stroke="#221E20" stroke-miterlimit="10" x1="432.866" y1="260.001" x2="432.866" y2="347.6"/>
		<line fill="#221E20" stroke="#221E20" stroke-miterlimit="10" x1="361.199" y1="277.602" x2="446.865" y2="277.602"/>
		<line fill="#221E20" stroke="#221E20" stroke-miterlimit="10" x1="361.199" y1="291.602" x2="446.865" y2="291.602"/>
		<line fill="#221E20" stroke="#221E20" stroke-miterlimit="10" x1="361.199" y1="305.602" x2="446.865" y2="305.602"/>
		<line fill="#221E20" stroke="#221E20" stroke-miterlimit="10" x1="361.199" y1="319.602" x2="446.865" y2="319.602"/>
		<line fill="#221E20" stroke="#221E20" stroke-miterlimit="10" x1="361.199" y1="333.602" x2="446.865" y2="333.602"/>
	</g>
	<text transform="matrix(1 0 0 1 263.6055 319.2676)" fill="#294270" font-family="'Verdana-Bold'" font-size="21">600</text>
</g>
<g>
	<g>
		<g>
			<path fill="#284270" d="M389.244,395.514c0-1.257-1.02-2.276-2.275-2.276h-6.527c-1.256,0-2.275,1.02-2.275,2.276v6.525
				c0,1.257,1.02,2.277,2.275,2.277h6.527c1.256,0,2.275-1.021,2.275-2.277V395.514z"/>
			<path fill="#284270" d="M403.529,395.514c0-1.257-1.02-2.276-2.277-2.276h-6.525c-1.257,0-2.276,1.02-2.276,2.276v6.525
				c0,1.257,1.02,2.277,2.276,2.277h6.525c1.258,0,2.277-1.021,2.277-2.277V395.514z"/>
			<path fill="#284270" d="M389.246,381.167c0-1.257-1.02-2.276-2.277-2.276h-6.525c-1.258,0-2.277,1.02-2.277,2.276v6.525
				c0,1.257,1.02,2.277,2.277,2.277h6.525c1.258,0,2.277-1.021,2.277-2.277V381.167z"/>
			<path fill="#284270" d="M417.279,395.514c0-1.257-1.02-2.276-2.277-2.276h-6.525c-1.257,0-2.276,1.02-2.276,2.276v6.525
				c0,1.257,1.02,2.277,2.276,2.277h6.525c1.258,0,2.277-1.021,2.277-2.277V395.514z"/>
			<path fill="#284270" d="M417.279,381.25c0-1.257-1.02-2.276-2.277-2.276h-6.525c-1.257,0-2.276,1.02-2.276,2.276v6.525
				c0,1.257,1.02,2.277,2.276,2.277h6.525c1.258,0,2.277-1.021,2.277-2.277V381.25z"/>
			<path fill="#284270" d="M431.479,395.514c0-1.257-1.02-2.276-2.277-2.276h-6.525c-1.257,0-2.276,1.02-2.276,2.276v6.525
				c0,1.257,1.02,2.277,2.276,2.277h6.525c1.258,0,2.277-1.021,2.277-2.277V395.514z"/>
		</g>
		<g>
			<path fill="#221E20" d="M386.77,370.667c0,1.566-0.245,2.716-0.735,3.448s-1.251,1.099-2.282,1.099
				c-1.047,0-1.812-0.371-2.294-1.113s-0.724-1.883-0.724-3.422c0-1.551,0.244-2.696,0.732-3.437s1.25-1.11,2.285-1.11
				c1.047,0,1.812,0.376,2.294,1.128S386.77,369.147,386.77,370.667z M385.229,373.327c0.137-0.316,0.229-0.688,0.278-1.116
				s0.073-0.942,0.073-1.544c0-0.594-0.024-1.109-0.073-1.547s-0.144-0.809-0.284-1.113c-0.137-0.301-0.323-0.527-0.56-0.68
				s-0.54-0.229-0.911-0.229c-0.367,0-0.671,0.076-0.911,0.229s-0.431,0.383-0.571,0.691c-0.133,0.289-0.224,0.666-0.272,1.131
				s-0.073,0.975-0.073,1.529c0,0.609,0.021,1.119,0.064,1.529s0.135,0.777,0.275,1.102c0.129,0.305,0.312,0.537,0.548,0.697
				s0.55,0.24,0.94,0.24c0.367,0,0.672-0.076,0.914-0.229S385.096,373.636,385.229,373.327z"/>
			<path fill="#221E20" d="M400.108,375.032h-4.723v-0.891h1.816v-5.848h-1.816v-0.797c0.246,0,0.51-0.021,0.791-0.062
				s0.494-0.101,0.639-0.179c0.18-0.098,0.321-0.222,0.425-0.372s0.163-0.353,0.179-0.606h0.908v7.863h1.781V375.032z"/>
			<path fill="#221E20" d="M414.695,375.032h-5.906v-1.225c0.41-0.352,0.822-0.703,1.234-1.055s0.795-0.701,1.15-1.049
				c0.75-0.727,1.264-1.304,1.541-1.731s0.416-0.89,0.416-1.386c0-0.453-0.148-0.808-0.447-1.063s-0.717-0.384-1.252-0.384
				c-0.355,0-0.74,0.062-1.154,0.188s-0.818,0.316-1.213,0.574h-0.059v-1.23c0.277-0.137,0.648-0.262,1.111-0.375
				s0.91-0.17,1.344-0.17c0.895,0,1.596,0.216,2.104,0.647s0.762,1.017,0.762,1.755c0,0.332-0.041,0.642-0.125,0.929
				s-0.209,0.56-0.373,0.817c-0.152,0.242-0.33,0.48-0.535,0.715s-0.455,0.494-0.748,0.779c-0.418,0.41-0.85,0.808-1.295,1.192
				s-0.861,0.741-1.248,1.069h4.693V375.032z"/>
			<path fill="#221E20" d="M427.968,370.831c0.188,0.168,0.342,0.379,0.463,0.633s0.182,0.582,0.182,0.984
				c0,0.398-0.072,0.764-0.217,1.096s-0.348,0.621-0.609,0.867c-0.293,0.273-0.638,0.476-1.034,0.606s-0.831,0.196-1.304,0.196
				c-0.484,0-0.961-0.058-1.43-0.173s-0.854-0.241-1.154-0.378v-1.225h0.088c0.332,0.219,0.723,0.4,1.172,0.545
				s0.883,0.217,1.301,0.217c0.246,0,0.508-0.041,0.785-0.123s0.502-0.203,0.674-0.363c0.18-0.172,0.313-0.361,0.401-0.568
				s0.132-0.469,0.132-0.785c0-0.312-0.05-0.571-0.149-0.776s-0.237-0.366-0.413-0.483c-0.176-0.121-0.389-0.204-0.639-0.249
				s-0.52-0.067-0.809-0.067h-0.527v-0.973h0.41c0.594,0,1.067-0.124,1.421-0.372s0.53-0.61,0.53-1.087
				c0-0.211-0.045-0.396-0.135-0.554s-0.215-0.288-0.375-0.39c-0.168-0.102-0.348-0.172-0.539-0.211s-0.408-0.059-0.65-0.059
				c-0.371,0-0.766,0.066-1.184,0.199s-0.812,0.32-1.184,0.562h-0.059v-1.225c0.277-0.137,0.647-0.263,1.11-0.378
				s0.911-0.173,1.345-0.173c0.426,0,0.801,0.039,1.125,0.117s0.617,0.203,0.879,0.375c0.281,0.188,0.494,0.414,0.639,0.68
				s0.217,0.576,0.217,0.932c0,0.484-0.171,0.907-0.513,1.269s-0.745,0.589-1.21,0.683v0.082c0.188,0.031,0.402,0.097,0.645,0.196
				S427.8,370.683,427.968,370.831z"/>
		</g>
		<g>
			<path fill="#221E20" d="M370.349,426.421c0.188,0.168,0.342,0.379,0.463,0.633s0.182,0.582,0.182,0.984
				c0,0.398-0.072,0.764-0.217,1.096s-0.348,0.621-0.609,0.867c-0.293,0.273-0.638,0.476-1.034,0.606s-0.831,0.196-1.304,0.196
				c-0.484,0-0.961-0.058-1.43-0.173s-0.854-0.241-1.154-0.378v-1.225h0.088c0.332,0.219,0.723,0.4,1.172,0.545
				s0.883,0.217,1.301,0.217c0.246,0,0.508-0.041,0.785-0.123s0.502-0.203,0.674-0.363c0.18-0.172,0.313-0.361,0.401-0.568
				s0.132-0.469,0.132-0.785c0-0.312-0.05-0.571-0.149-0.776s-0.237-0.366-0.413-0.483c-0.176-0.121-0.389-0.204-0.639-0.249
				s-0.52-0.067-0.809-0.067h-0.527v-0.973h0.41c0.594,0,1.067-0.124,1.421-0.372s0.53-0.61,0.53-1.087
				c0-0.211-0.045-0.396-0.135-0.554s-0.215-0.288-0.375-0.39c-0.168-0.102-0.348-0.172-0.539-0.211s-0.408-0.059-0.65-0.059
				c-0.371,0-0.766,0.066-1.184,0.199s-0.812,0.32-1.184,0.562h-0.059v-1.225c0.277-0.137,0.647-0.263,1.11-0.378
				s0.911-0.173,1.345-0.173c0.426,0,0.801,0.039,1.125,0.117s0.617,0.203,0.879,0.375c0.281,0.188,0.494,0.414,0.639,0.68
				s0.217,0.576,0.217,0.932c0,0.484-0.171,0.907-0.513,1.269s-0.745,0.589-1.21,0.683v0.082c0.188,0.031,0.402,0.097,0.645,0.196
				S370.181,426.272,370.349,426.421z"/>
			<path fill="#221E20" d="M371.116,416.751h-5.906v-1.225c0.41-0.352,0.821-0.703,1.233-1.055s0.796-0.701,1.151-1.049
				c0.75-0.727,1.264-1.304,1.541-1.731s0.416-0.89,0.416-1.386c0-0.453-0.149-0.808-0.448-1.063s-0.716-0.384-1.251-0.384
				c-0.355,0-0.74,0.062-1.154,0.188s-0.818,0.316-1.213,0.574h-0.059v-1.23c0.277-0.137,0.647-0.262,1.11-0.375
				s0.911-0.17,1.345-0.17c0.895,0,1.596,0.216,2.104,0.647s0.762,1.017,0.762,1.755c0,0.332-0.042,0.642-0.126,0.929
				s-0.208,0.56-0.372,0.817c-0.152,0.242-0.331,0.48-0.536,0.715s-0.454,0.494-0.747,0.779c-0.418,0.41-0.85,0.808-1.295,1.192
				s-0.861,0.741-1.248,1.069h4.693V416.751z"/>
			<path fill="#221E20" d="M370.618,404.133h-4.723v-0.891h1.816v-5.848h-1.816v-0.797c0.246,0,0.51-0.021,0.791-0.062
				s0.494-0.101,0.639-0.179c0.18-0.098,0.321-0.222,0.425-0.372s0.163-0.353,0.179-0.606h0.908v7.863h1.781V404.133z"/>
			<path fill="#221E20" d="M371.104,385.126c0,1.566-0.245,2.716-0.735,3.448s-1.251,1.099-2.282,1.099
				c-1.047,0-1.812-0.371-2.294-1.113s-0.724-1.883-0.724-3.422c0-1.551,0.244-2.696,0.732-3.437s1.25-1.11,2.285-1.11
				c1.047,0,1.812,0.376,2.294,1.128S371.104,383.606,371.104,385.126z M369.563,387.786c0.137-0.316,0.229-0.688,0.278-1.116
				s0.073-0.942,0.073-1.544c0-0.594-0.024-1.109-0.073-1.547s-0.144-0.809-0.284-1.113c-0.137-0.301-0.323-0.527-0.56-0.68
				s-0.54-0.229-0.911-0.229c-0.367,0-0.671,0.076-0.911,0.229s-0.431,0.383-0.571,0.691c-0.133,0.289-0.224,0.666-0.272,1.131
				s-0.073,0.975-0.073,1.529c0,0.609,0.021,1.119,0.064,1.529s0.135,0.777,0.275,1.102c0.129,0.305,0.312,0.537,0.548,0.697
				s0.55,0.24,0.94,0.24c0.367,0,0.672-0.076,0.914-0.229S369.431,388.095,369.563,387.786z"/>
		</g>
		<line fill="#221E20" stroke="#221E20" stroke-miterlimit="10" x1="376.866" y1="360.001" x2="376.866" y2="447.6"/>
		<line fill="#221E20" stroke="#221E20" stroke-miterlimit="10" x1="390.866" y1="360.001" x2="390.866" y2="447.6"/>
		<line fill="#221E20" stroke="#221E20" stroke-miterlimit="10" x1="404.866" y1="360.001" x2="404.866" y2="447.6"/>
		<line fill="#221E20" stroke="#221E20" stroke-miterlimit="10" x1="418.866" y1="360.001" x2="418.866" y2="447.6"/>
		<line fill="#221E20" stroke="#221E20" stroke-miterlimit="10" x1="432.866" y1="360.001" x2="432.866" y2="447.6"/>
		<line fill="#221E20" stroke="#221E20" stroke-miterlimit="10" x1="361.199" y1="377.602" x2="446.865" y2="377.602"/>
		<line fill="#221E20" stroke="#221E20" stroke-miterlimit="10" x1="361.199" y1="391.602" x2="446.865" y2="391.602"/>
		<line fill="#221E20" stroke="#221E20" stroke-miterlimit="10" x1="361.199" y1="405.602" x2="446.865" y2="405.602"/>
		<line fill="#221E20" stroke="#221E20" stroke-miterlimit="10" x1="361.199" y1="419.602" x2="446.865" y2="419.602"/>
		<line fill="#221E20" stroke="#221E20" stroke-miterlimit="10" x1="361.199" y1="433.602" x2="446.865" y2="433.602"/>
	</g>
	<text transform="matrix(1 0 0 1 263.6055 419.2676)" fill="#294270" font-family="'Verdana-Bold'" font-size="21">700</text>
</g>
<g>
	<g>
		<g>
			<path fill="#284270" d="M167.245,310.847c0-1.257-1.02-2.276-2.276-2.276h-6.526c-1.256,0-2.275,1.02-2.275,2.276v6.525
				c0,1.257,1.02,2.277,2.275,2.277h6.526c1.257,0,2.276-1.021,2.276-2.277V310.847z"/>
			<path fill="#284270" d="M181.529,310.847c0-1.257-1.02-2.276-2.277-2.276h-6.525c-1.257,0-2.276,1.02-2.276,2.276v6.525
				c0,1.257,1.02,2.277,2.276,2.277h6.525c1.258,0,2.277-1.021,2.277-2.277V310.847z"/>
			<path fill="#284270" d="M167.246,296.5c0-1.257-1.02-2.276-2.277-2.276h-6.525c-1.257,0-2.276,1.02-2.276,2.276v6.525
				c0,1.257,1.02,2.277,2.276,2.277h6.525c1.258,0,2.277-1.021,2.277-2.277V296.5z"/>
			<path fill="#284270" d="M195.279,310.847c0-1.257-1.02-2.276-2.277-2.276h-6.525c-1.257,0-2.276,1.02-2.276,2.276v6.525
				c0,1.257,1.02,2.277,2.276,2.277h6.525c1.258,0,2.277-1.021,2.277-2.277V310.847z"/>
			<path fill="#284270" d="M195.279,296.583c0-1.257-1.02-2.276-2.277-2.276h-6.525c-1.257,0-2.276,1.02-2.276,2.276v6.525
				c0,1.257,1.02,2.277,2.276,2.277h6.525c1.258,0,2.277-1.021,2.277-2.277V296.583z"/>
		</g>
		<g>
			<path fill="#221E20" d="M164.77,286c0,1.566-0.245,2.716-0.735,3.448s-1.251,1.099-2.282,1.099c-1.047,0-1.812-0.371-2.294-1.113
				s-0.724-1.883-0.724-3.422c0-1.551,0.244-2.696,0.732-3.437s1.25-1.11,2.285-1.11c1.047,0,1.812,0.376,2.294,1.128
				S164.77,284.48,164.77,286z M163.229,288.66c0.137-0.316,0.229-0.688,0.278-1.116s0.073-0.942,0.073-1.544
				c0-0.594-0.024-1.109-0.073-1.547s-0.144-0.809-0.284-1.113c-0.137-0.301-0.323-0.527-0.56-0.68s-0.54-0.229-0.911-0.229
				c-0.367,0-0.671,0.076-0.911,0.229s-0.431,0.383-0.571,0.691c-0.133,0.289-0.224,0.666-0.272,1.131s-0.073,0.975-0.073,1.529
				c0,0.609,0.021,1.119,0.064,1.529s0.135,0.777,0.275,1.102c0.129,0.305,0.312,0.537,0.548,0.697s0.55,0.24,0.94,0.24
				c0.367,0,0.672-0.076,0.914-0.229S163.096,288.969,163.229,288.66z"/>
			<path fill="#221E20" d="M178.108,290.365h-4.723v-0.891h1.816v-5.848h-1.816v-0.797c0.246,0,0.51-0.021,0.791-0.062
				s0.494-0.101,0.639-0.179c0.18-0.098,0.321-0.222,0.425-0.372s0.163-0.353,0.179-0.606h0.908v7.863h1.781V290.365z"/>
			<path fill="#221E20" d="M192.695,290.365h-5.906v-1.225c0.41-0.352,0.822-0.703,1.234-1.055s0.795-0.701,1.15-1.049
				c0.75-0.727,1.264-1.304,1.541-1.731s0.416-0.89,0.416-1.386c0-0.453-0.148-0.808-0.447-1.063s-0.717-0.384-1.252-0.384
				c-0.355,0-0.74,0.062-1.154,0.188s-0.818,0.316-1.213,0.574h-0.059v-1.23c0.277-0.137,0.648-0.262,1.111-0.375
				s0.91-0.17,1.344-0.17c0.895,0,1.596,0.216,2.104,0.647s0.762,1.017,0.762,1.755c0,0.332-0.041,0.642-0.125,0.929
				s-0.209,0.56-0.373,0.817c-0.152,0.242-0.33,0.48-0.535,0.715s-0.455,0.494-0.748,0.779c-0.418,0.41-0.85,0.808-1.295,1.192
				s-0.861,0.741-1.248,1.069h4.693V290.365z"/>
			<path fill="#221E20" d="M205.968,286.164c0.188,0.168,0.342,0.379,0.463,0.633s0.182,0.582,0.182,0.984
				c0,0.398-0.072,0.764-0.217,1.096s-0.348,0.621-0.609,0.867c-0.293,0.273-0.638,0.476-1.034,0.606s-0.831,0.196-1.304,0.196
				c-0.484,0-0.961-0.058-1.43-0.173s-0.854-0.241-1.154-0.378v-1.225h0.088c0.332,0.219,0.723,0.4,1.172,0.545
				s0.883,0.217,1.301,0.217c0.246,0,0.508-0.041,0.785-0.123s0.502-0.203,0.674-0.363c0.18-0.172,0.313-0.361,0.401-0.568
				s0.132-0.469,0.132-0.785c0-0.312-0.05-0.571-0.149-0.776s-0.237-0.366-0.413-0.483c-0.176-0.121-0.389-0.204-0.639-0.249
				s-0.52-0.067-0.809-0.067h-0.527v-0.973h0.41c0.594,0,1.067-0.124,1.421-0.372s0.53-0.61,0.53-1.087
				c0-0.211-0.045-0.396-0.135-0.554s-0.215-0.288-0.375-0.39c-0.168-0.102-0.348-0.172-0.539-0.211s-0.408-0.059-0.65-0.059
				c-0.371,0-0.766,0.066-1.184,0.199s-0.812,0.32-1.184,0.562h-0.059v-1.225c0.277-0.137,0.647-0.263,1.11-0.378
				s0.911-0.173,1.345-0.173c0.426,0,0.801,0.039,1.125,0.117s0.617,0.203,0.879,0.375c0.281,0.188,0.494,0.414,0.639,0.68
				s0.217,0.576,0.217,0.932c0,0.484-0.171,0.907-0.513,1.269s-0.745,0.589-1.21,0.683v0.082c0.188,0.031,0.402,0.097,0.645,0.196
				S205.8,286.016,205.968,286.164z"/>
		</g>
		<g>
			<path fill="#221E20" d="M148.349,341.754c0.188,0.168,0.342,0.379,0.463,0.633s0.182,0.582,0.182,0.984
				c0,0.398-0.072,0.764-0.217,1.096s-0.348,0.621-0.609,0.867c-0.293,0.273-0.638,0.476-1.034,0.606s-0.831,0.196-1.304,0.196
				c-0.484,0-0.961-0.058-1.43-0.173s-0.854-0.241-1.154-0.378v-1.225h0.088c0.332,0.219,0.723,0.4,1.172,0.545
				s0.883,0.217,1.301,0.217c0.246,0,0.508-0.041,0.785-0.123s0.502-0.203,0.674-0.363c0.18-0.172,0.313-0.361,0.401-0.568
				s0.132-0.469,0.132-0.785c0-0.312-0.05-0.571-0.149-0.776s-0.237-0.366-0.413-0.483c-0.176-0.121-0.389-0.204-0.639-0.249
				s-0.52-0.067-0.809-0.067h-0.527v-0.973h0.41c0.594,0,1.067-0.124,1.421-0.372s0.53-0.61,0.53-1.087
				c0-0.211-0.045-0.396-0.135-0.554s-0.215-0.288-0.375-0.39c-0.168-0.102-0.348-0.172-0.539-0.211s-0.408-0.059-0.65-0.059
				c-0.371,0-0.766,0.066-1.184,0.199s-0.812,0.32-1.184,0.562h-0.059V337.6c0.277-0.137,0.647-0.263,1.11-0.378
				s0.911-0.173,1.345-0.173c0.426,0,0.801,0.039,1.125,0.117s0.617,0.203,0.879,0.375c0.281,0.188,0.494,0.414,0.639,0.68
				s0.217,0.576,0.217,0.932c0,0.484-0.171,0.907-0.513,1.269s-0.745,0.589-1.21,0.683v0.082c0.188,0.031,0.402,0.097,0.645,0.196
				S148.181,341.605,148.349,341.754z"/>
			<path fill="#221E20" d="M149.116,332.084h-5.906v-1.225c0.41-0.352,0.821-0.703,1.233-1.055s0.796-0.701,1.151-1.049
				c0.75-0.727,1.264-1.304,1.541-1.731s0.416-0.89,0.416-1.386c0-0.453-0.149-0.808-0.448-1.063s-0.716-0.384-1.251-0.384
				c-0.355,0-0.74,0.062-1.154,0.188s-0.818,0.316-1.213,0.574h-0.059v-1.23c0.277-0.137,0.647-0.262,1.11-0.375
				s0.911-0.17,1.345-0.17c0.895,0,1.596,0.216,2.104,0.647s0.762,1.017,0.762,1.755c0,0.332-0.042,0.642-0.126,0.929
				s-0.208,0.56-0.372,0.817c-0.152,0.242-0.331,0.48-0.536,0.715s-0.454,0.494-0.747,0.779c-0.418,0.41-0.85,0.808-1.295,1.192
				s-0.861,0.741-1.248,1.069h4.693V332.084z"/>
			<path fill="#221E20" d="M148.618,319.466h-4.723v-0.891h1.816v-5.848h-1.816v-0.797c0.246,0,0.51-0.021,0.791-0.062
				s0.494-0.101,0.639-0.179c0.18-0.098,0.321-0.222,0.425-0.372s0.163-0.353,0.179-0.606h0.908v7.863h1.781V319.466z"/>
			<path fill="#221E20" d="M149.104,300.459c0,1.566-0.245,2.716-0.735,3.448s-1.251,1.099-2.282,1.099
				c-1.047,0-1.812-0.371-2.294-1.113s-0.724-1.883-0.724-3.422c0-1.551,0.244-2.696,0.732-3.437s1.25-1.11,2.285-1.11
				c1.047,0,1.812,0.376,2.294,1.128S149.104,298.939,149.104,300.459z M147.563,303.119c0.137-0.316,0.229-0.688,0.278-1.116
				s0.073-0.942,0.073-1.544c0-0.594-0.024-1.109-0.073-1.547s-0.144-0.809-0.284-1.113c-0.137-0.301-0.323-0.527-0.56-0.68
				s-0.54-0.229-0.911-0.229c-0.367,0-0.671,0.076-0.911,0.229s-0.431,0.383-0.571,0.691c-0.133,0.289-0.224,0.666-0.272,1.131
				s-0.073,0.975-0.073,1.529c0,0.609,0.021,1.119,0.064,1.529s0.135,0.777,0.275,1.102c0.129,0.305,0.312,0.537,0.548,0.697
				s0.55,0.24,0.94,0.24c0.367,0,0.672-0.076,0.914-0.229S147.431,303.428,147.563,303.119z"/>
		</g>
		<line fill="#221E20" stroke="#221E20" stroke-miterlimit="10" x1="154.866" y1="275.334" x2="154.866" y2="362.933"/>
		<line fill="#221E20" stroke="#221E20" stroke-miterlimit="10" x1="168.866" y1="275.334" x2="168.866" y2="362.933"/>
		<line fill="#221E20" stroke="#221E20" stroke-miterlimit="10" x1="182.866" y1="275.334" x2="182.866" y2="362.933"/>
		<line fill="#221E20" stroke="#221E20" stroke-miterlimit="10" x1="196.866" y1="275.334" x2="196.866" y2="362.933"/>
		<line fill="#221E20" stroke="#221E20" stroke-miterlimit="10" x1="210.866" y1="275.334" x2="210.866" y2="362.933"/>
		<line fill="#221E20" stroke="#221E20" stroke-miterlimit="10" x1="139.199" y1="292.935" x2="224.865" y2="292.935"/>
		<line fill="#221E20" stroke="#221E20" stroke-miterlimit="10" x1="139.199" y1="306.935" x2="224.865" y2="306.935"/>
		<line fill="#221E20" stroke="#221E20" stroke-miterlimit="10" x1="139.199" y1="320.935" x2="224.865" y2="320.935"/>
		<line fill="#221E20" stroke="#221E20" stroke-miterlimit="10" x1="139.199" y1="334.935" x2="224.865" y2="334.935"/>
		<line fill="#221E20" stroke="#221E20" stroke-miterlimit="10" x1="139.199" y1="348.935" x2="224.865" y2="348.935"/>
	</g>
	<text transform="matrix(1 0 0 1 41.6055 335)" fill="#294270" font-family="'Verdana-Bold'" font-size="21">300</text>
</g>
<g>
	<g>
		<g>
			<path fill="#284270" d="M167.245,209.514c0-1.257-1.02-2.276-2.276-2.276h-6.526c-1.256,0-2.275,1.02-2.275,2.276v6.525
				c0,1.257,1.02,2.277,2.275,2.277h6.526c1.257,0,2.276-1.021,2.276-2.277V209.514z"/>
			<path fill="#284270" d="M181.529,209.514c0-1.257-1.02-2.276-2.277-2.276h-6.525c-1.257,0-2.276,1.02-2.276,2.276v6.525
				c0,1.257,1.02,2.277,2.276,2.277h6.525c1.258,0,2.277-1.021,2.277-2.277V209.514z"/>
			<path fill="#284270" d="M167.246,195.167c0-1.257-1.02-2.276-2.277-2.276h-6.525c-1.257,0-2.276,1.02-2.276,2.276v6.525
				c0,1.257,1.02,2.277,2.276,2.277h6.525c1.258,0,2.277-1.021,2.277-2.277V195.167z"/>
			<path fill="#284270" d="M195.279,209.514c0-1.257-1.02-2.276-2.277-2.276h-6.525c-1.257,0-2.276,1.02-2.276,2.276v6.525
				c0,1.257,1.02,2.277,2.276,2.277h6.525c1.258,0,2.277-1.021,2.277-2.277V209.514z"/>
			<path fill="#284270" d="M181.529,195.333c0-1.257-1.02-2.276-2.277-2.276h-6.525c-1.257,0-2.276,1.02-2.276,2.276v6.525
				c0,1.257,1.02,2.277,2.276,2.277h6.525c1.258,0,2.277-1.021,2.277-2.277V195.333z"/>
		</g>
		<g>
			<path fill="#221E20" d="M164.77,184.667c0,1.566-0.245,2.716-0.735,3.448s-1.251,1.099-2.282,1.099
				c-1.047,0-1.812-0.371-2.294-1.113s-0.724-1.883-0.724-3.422c0-1.551,0.244-2.696,0.732-3.437s1.25-1.11,2.285-1.11
				c1.047,0,1.812,0.376,2.294,1.128S164.77,183.147,164.77,184.667z M163.229,187.327c0.137-0.316,0.229-0.688,0.278-1.116
				s0.073-0.942,0.073-1.544c0-0.594-0.024-1.109-0.073-1.547s-0.144-0.809-0.284-1.113c-0.137-0.301-0.323-0.527-0.56-0.68
				s-0.54-0.229-0.911-0.229c-0.367,0-0.671,0.076-0.911,0.229s-0.431,0.383-0.571,0.691c-0.133,0.289-0.224,0.666-0.272,1.131
				s-0.073,0.975-0.073,1.529c0,0.609,0.021,1.119,0.064,1.529s0.135,0.777,0.275,1.102c0.129,0.305,0.312,0.537,0.548,0.697
				s0.55,0.24,0.94,0.24c0.367,0,0.672-0.076,0.914-0.229S163.096,187.636,163.229,187.327z"/>
			<path fill="#221E20" d="M178.108,189.032h-4.723v-0.891h1.816v-5.848h-1.816v-0.797c0.246,0,0.51-0.021,0.791-0.062
				s0.494-0.101,0.639-0.179c0.18-0.098,0.321-0.222,0.425-0.372s0.163-0.353,0.179-0.606h0.908v7.863h1.781V189.032z"/>
			<path fill="#221E20" d="M192.695,189.032h-5.906v-1.225c0.41-0.352,0.822-0.703,1.234-1.055s0.795-0.701,1.15-1.049
				c0.75-0.727,1.264-1.304,1.541-1.731s0.416-0.89,0.416-1.386c0-0.453-0.148-0.808-0.447-1.063s-0.717-0.384-1.252-0.384
				c-0.355,0-0.74,0.062-1.154,0.188s-0.818,0.316-1.213,0.574h-0.059v-1.23c0.277-0.137,0.648-0.262,1.111-0.375
				s0.91-0.17,1.344-0.17c0.895,0,1.596,0.216,2.104,0.647s0.762,1.017,0.762,1.755c0,0.332-0.041,0.642-0.125,0.929
				s-0.209,0.56-0.373,0.817c-0.152,0.242-0.33,0.48-0.535,0.715s-0.455,0.494-0.748,0.779c-0.418,0.41-0.85,0.808-1.295,1.192
				s-0.861,0.741-1.248,1.069h4.693V189.032z"/>
			<path fill="#221E20" d="M205.968,184.831c0.188,0.168,0.342,0.379,0.463,0.633s0.182,0.582,0.182,0.984
				c0,0.398-0.072,0.764-0.217,1.096s-0.348,0.621-0.609,0.867c-0.293,0.273-0.638,0.476-1.034,0.606s-0.831,0.196-1.304,0.196
				c-0.484,0-0.961-0.058-1.43-0.173s-0.854-0.241-1.154-0.378v-1.225h0.088c0.332,0.219,0.723,0.4,1.172,0.545
				s0.883,0.217,1.301,0.217c0.246,0,0.508-0.041,0.785-0.123s0.502-0.203,0.674-0.363c0.18-0.172,0.313-0.361,0.401-0.568
				s0.132-0.469,0.132-0.785c0-0.312-0.05-0.571-0.149-0.776s-0.237-0.366-0.413-0.483c-0.176-0.121-0.389-0.204-0.639-0.249
				s-0.52-0.067-0.809-0.067h-0.527v-0.973h0.41c0.594,0,1.067-0.124,1.421-0.372s0.53-0.61,0.53-1.087
				c0-0.211-0.045-0.396-0.135-0.554s-0.215-0.288-0.375-0.39c-0.168-0.102-0.348-0.172-0.539-0.211s-0.408-0.059-0.65-0.059
				c-0.371,0-0.766,0.066-1.184,0.199s-0.812,0.32-1.184,0.562h-0.059v-1.225c0.277-0.137,0.647-0.263,1.11-0.378
				s0.911-0.173,1.345-0.173c0.426,0,0.801,0.039,1.125,0.117s0.617,0.203,0.879,0.375c0.281,0.188,0.494,0.414,0.639,0.68
				s0.217,0.576,0.217,0.932c0,0.484-0.171,0.907-0.513,1.269s-0.745,0.589-1.21,0.683v0.082c0.188,0.031,0.402,0.097,0.645,0.196
				S205.8,184.683,205.968,184.831z"/>
		</g>
		<g>
			<path fill="#221E20" d="M148.349,240.421c0.188,0.168,0.342,0.379,0.463,0.633s0.182,0.582,0.182,0.984
				c0,0.398-0.072,0.764-0.217,1.096s-0.348,0.621-0.609,0.867c-0.293,0.273-0.638,0.476-1.034,0.606s-0.831,0.196-1.304,0.196
				c-0.484,0-0.961-0.058-1.43-0.173s-0.854-0.241-1.154-0.378v-1.225h0.088c0.332,0.219,0.723,0.4,1.172,0.545
				s0.883,0.217,1.301,0.217c0.246,0,0.508-0.041,0.785-0.123s0.502-0.203,0.674-0.363c0.18-0.172,0.313-0.361,0.401-0.568
				s0.132-0.469,0.132-0.785c0-0.312-0.05-0.571-0.149-0.776s-0.237-0.366-0.413-0.483c-0.176-0.121-0.389-0.204-0.639-0.249
				s-0.52-0.067-0.809-0.067h-0.527v-0.973h0.41c0.594,0,1.067-0.124,1.421-0.372s0.53-0.61,0.53-1.087
				c0-0.211-0.045-0.396-0.135-0.554s-0.215-0.288-0.375-0.39c-0.168-0.102-0.348-0.172-0.539-0.211s-0.408-0.059-0.65-0.059
				c-0.371,0-0.766,0.066-1.184,0.199s-0.812,0.32-1.184,0.562h-0.059v-1.225c0.277-0.137,0.647-0.263,1.11-0.378
				s0.911-0.173,1.345-0.173c0.426,0,0.801,0.039,1.125,0.117s0.617,0.203,0.879,0.375c0.281,0.188,0.494,0.414,0.639,0.68
				s0.217,0.576,0.217,0.932c0,0.484-0.171,0.907-0.513,1.269s-0.745,0.589-1.21,0.683v0.082c0.188,0.031,0.402,0.097,0.645,0.196
				S148.181,240.272,148.349,240.421z"/>
			<path fill="#221E20" d="M149.116,230.751h-5.906v-1.225c0.41-0.352,0.821-0.703,1.233-1.055s0.796-0.701,1.151-1.049
				c0.75-0.727,1.264-1.304,1.541-1.731s0.416-0.89,0.416-1.386c0-0.453-0.149-0.808-0.448-1.063s-0.716-0.384-1.251-0.384
				c-0.355,0-0.74,0.062-1.154,0.188s-0.818,0.316-1.213,0.574h-0.059v-1.23c0.277-0.137,0.647-0.262,1.11-0.375
				s0.911-0.17,1.345-0.17c0.895,0,1.596,0.216,2.104,0.647s0.762,1.017,0.762,1.755c0,0.332-0.042,0.642-0.126,0.929
				s-0.208,0.56-0.372,0.817c-0.152,0.242-0.331,0.48-0.536,0.715s-0.454,0.494-0.747,0.779c-0.418,0.41-0.85,0.808-1.295,1.192
				s-0.861,0.741-1.248,1.069h4.693V230.751z"/>
			<path fill="#221E20" d="M148.618,218.133h-4.723v-0.891h1.816v-5.848h-1.816v-0.797c0.246,0,0.51-0.021,0.791-0.062
				s0.494-0.101,0.639-0.179c0.18-0.098,0.321-0.222,0.425-0.372s0.163-0.353,0.179-0.606h0.908v7.863h1.781V218.133z"/>
			<path fill="#221E20" d="M149.104,199.126c0,1.566-0.245,2.716-0.735,3.448s-1.251,1.099-2.282,1.099
				c-1.047,0-1.812-0.371-2.294-1.113s-0.724-1.883-0.724-3.422c0-1.551,0.244-2.696,0.732-3.437s1.25-1.11,2.285-1.11
				c1.047,0,1.812,0.376,2.294,1.128S149.104,197.606,149.104,199.126z M147.563,201.786c0.137-0.316,0.229-0.688,0.278-1.116
				s0.073-0.942,0.073-1.544c0-0.594-0.024-1.109-0.073-1.547s-0.144-0.809-0.284-1.113c-0.137-0.301-0.323-0.527-0.56-0.68
				s-0.54-0.229-0.911-0.229c-0.367,0-0.671,0.076-0.911,0.229s-0.431,0.383-0.571,0.691c-0.133,0.289-0.224,0.666-0.272,1.131
				s-0.073,0.975-0.073,1.529c0,0.609,0.021,1.119,0.064,1.529s0.135,0.777,0.275,1.102c0.129,0.305,0.312,0.537,0.548,0.697
				s0.55,0.24,0.94,0.24c0.367,0,0.672-0.076,0.914-0.229S147.431,202.095,147.563,201.786z"/>
		</g>
		<line fill="#221E20" stroke="#221E20" stroke-miterlimit="10" x1="154.866" y1="174.001" x2="154.866" y2="261.6"/>
		<line fill="#221E20" stroke="#221E20" stroke-miterlimit="10" x1="168.866" y1="174.001" x2="168.866" y2="261.6"/>
		<line fill="#221E20" stroke="#221E20" stroke-miterlimit="10" x1="182.866" y1="174.001" x2="182.866" y2="261.6"/>
		<line fill="#221E20" stroke="#221E20" stroke-miterlimit="10" x1="196.866" y1="174.001" x2="196.866" y2="261.6"/>
		<line fill="#221E20" stroke="#221E20" stroke-miterlimit="10" x1="210.866" y1="174.001" x2="210.866" y2="261.6"/>
		<line fill="#221E20" stroke="#221E20" stroke-miterlimit="10" x1="139.199" y1="191.602" x2="224.865" y2="191.602"/>
		<line fill="#221E20" stroke="#221E20" stroke-miterlimit="10" x1="139.199" y1="205.602" x2="224.865" y2="205.602"/>
		<line fill="#221E20" stroke="#221E20" stroke-miterlimit="10" x1="139.199" y1="219.602" x2="224.865" y2="219.602"/>
		<line fill="#221E20" stroke="#221E20" stroke-miterlimit="10" x1="139.199" y1="233.602" x2="224.865" y2="233.602"/>
		<line fill="#221E20" stroke="#221E20" stroke-miterlimit="10" x1="139.199" y1="247.602" x2="224.865" y2="247.602"/>
	</g>
	<text transform="matrix(1 0 0 1 41.6055 235.667)" fill="#294270" font-family="'Verdana-Bold'" font-size="21">200</text>
</g>
</svg>
