<?xml version="1.0" encoding="utf-8"?>
<!-- Generator: Adobe Illustrator 15.0.0, SVG Export Plug-In . SVG Version: 6.00 Build 0)  -->
<!DOCTYPE svg PUBLIC "-//W3C//DTD SVG 1.1//EN" "http://www.w3.org/Graphics/SVG/1.1/DTD/svg11.dtd">
<svg version="1.1" id="Layer_1" xmlns="http://www.w3.org/2000/svg" xmlns:xlink="http://www.w3.org/1999/xlink" x="0px" y="0px"
	 width="686px" height="847px" viewBox="0 0 686 847" enable-background="new 0 0 686 847" xml:space="preserve">
<g>
	<polygon fill-rule="evenodd" clip-rule="evenodd" fill="#184173" points="469.269,125.639 474.086,125.639 474.086,129.574 
		485.163,121.697 474.086,113.819 474.086,117.76 469.269,117.76 	"/>
	<polygon fill-rule="evenodd" clip-rule="evenodd" fill="#7FC2EB" points="457.926,125.696 468.496,125.696 468.496,129.634 
		479.57,121.758 468.496,113.879 468.496,117.818 457.926,117.818 	"/>
</g>
<g>
	<polygon fill-rule="evenodd" clip-rule="evenodd" fill="#184173" points="234.343,447.609 239.161,447.609 239.161,451.545 
		250.238,443.668 239.161,435.79 239.161,439.73 234.343,439.73 	"/>
	<polygon fill-rule="evenodd" clip-rule="evenodd" fill="#7FC2EB" points="223,447.667 233.571,447.667 233.571,451.604 
		244.645,443.729 233.571,435.85 233.571,439.789 223,439.789 	"/>
</g>
<g>
	<polygon fill-rule="evenodd" clip-rule="evenodd" fill="#184173" points="170.602,287.305 175.419,287.305 175.419,291.24 
		186.497,283.363 175.419,275.485 175.419,279.426 170.602,279.426 	"/>
	<polygon fill-rule="evenodd" clip-rule="evenodd" fill="#7FC2EB" points="159.259,287.362 169.83,287.362 169.83,291.3 
		180.904,283.424 169.83,275.545 169.83,279.484 159.259,279.484 	"/>
</g>
<g>
	<polygon fill-rule="evenodd" clip-rule="evenodd" fill="#184173" points="469.269,53.441 474.086,53.441 474.086,57.377 
		485.163,49.5 474.086,41.622 474.086,45.562 469.269,45.562 	"/>
	<polygon fill-rule="evenodd" clip-rule="evenodd" fill="#7FC2EB" points="457.926,53.499 468.496,53.499 468.496,57.437 
		479.57,49.561 468.496,41.682 468.496,45.621 457.926,45.621 	"/>
</g>
<g>
	<path fill="#294270" d="M542.277,140.264c0-1.257-1.02-2.276-2.276-2.276h-6.526c-1.256,0-2.275,1.02-2.275,2.276v6.525
		c0,1.257,1.02,2.277,2.275,2.277h6.526c1.257,0,2.276-1.021,2.276-2.277V140.264z"/>
	<path fill="#294270" d="M556.529,140.264c0-1.257-1.02-2.276-2.277-2.276h-6.525c-1.257,0-2.276,1.02-2.276,2.276v6.525
		c0,1.257,1.02,2.277,2.276,2.277h6.525c1.258,0,2.277-1.021,2.277-2.277V140.264z"/>
	<path fill="#294270" d="M556.529,126.666c0-1.257-1.02-2.276-2.277-2.276h-6.525c-1.257,0-2.276,1.02-2.276,2.276v6.525
		c0,1.257,1.02,2.277,2.276,2.277h6.525c1.258,0,2.277-1.021,2.277-2.277V126.666z"/>
	<path fill="#294270" d="M570.279,126.666c0-1.257-1.02-2.276-2.277-2.276h-6.525c-1.257,0-2.276,1.02-2.276,2.276v6.525
		c0,1.257,1.02,2.277,2.276,2.277h6.525c1.258,0,2.277-1.021,2.277-2.277V126.666z"/>
	<path fill="#294270" d="M654.477,140.613c0-1.257-1.02-2.276-2.276-2.276h-6.526c-1.256,0-2.275,1.02-2.275,2.276v6.525
		c0,1.257,1.02,2.277,2.275,2.277h6.526c1.257,0,2.276-1.021,2.276-2.277V140.613z"/>
	<path fill="#294270" d="M668.227,140.613c0-1.257-1.02-2.276-2.276-2.276h-6.526c-1.256,0-2.275,1.02-2.275,2.276v6.525
		c0,1.257,1.02,2.277,2.275,2.277h6.526c1.257,0,2.276-1.021,2.276-2.277V140.613z"/>
	<g>
		<path fill="#231F20" d="M539.77,157.527c0,1.566-0.245,2.716-0.735,3.448s-1.251,1.099-2.282,1.099
			c-1.047,0-1.812-0.371-2.294-1.113s-0.724-1.883-0.724-3.422c0-1.551,0.244-2.696,0.732-3.437s1.25-1.11,2.285-1.11
			c1.047,0,1.812,0.376,2.294,1.128S539.77,156.008,539.77,157.527z M538.229,160.188c0.137-0.316,0.229-0.688,0.278-1.116
			s0.073-0.942,0.073-1.544c0-0.594-0.024-1.109-0.073-1.547s-0.144-0.809-0.284-1.113c-0.137-0.301-0.323-0.527-0.56-0.68
			s-0.54-0.229-0.911-0.229c-0.367,0-0.671,0.076-0.911,0.229s-0.431,0.383-0.571,0.691c-0.133,0.289-0.224,0.666-0.272,1.131
			s-0.073,0.975-0.073,1.529c0,0.609,0.021,1.119,0.064,1.529s0.135,0.777,0.275,1.102c0.129,0.305,0.312,0.537,0.548,0.697
			s0.55,0.24,0.94,0.24c0.367,0,0.672-0.076,0.914-0.229S538.096,160.496,538.229,160.188z"/>
		<path fill="#231F20" d="M553.108,161.893h-4.723v-0.891h1.816v-5.848h-1.816v-0.797c0.246,0,0.51-0.021,0.791-0.062
			s0.494-0.101,0.639-0.179c0.18-0.098,0.321-0.222,0.425-0.372s0.163-0.353,0.179-0.606h0.908v7.863h1.781V161.893z"/>
		<path fill="#231F20" d="M567.695,161.893h-5.906v-1.225c0.41-0.352,0.822-0.703,1.234-1.055s0.795-0.701,1.15-1.049
			c0.75-0.727,1.264-1.304,1.541-1.731s0.416-0.89,0.416-1.386c0-0.453-0.148-0.808-0.447-1.063S564.967,154,564.432,154
			c-0.355,0-0.74,0.062-1.154,0.188s-0.818,0.316-1.213,0.574h-0.059v-1.23c0.277-0.137,0.648-0.262,1.111-0.375
			s0.91-0.17,1.344-0.17c0.895,0,1.596,0.216,2.104,0.647s0.762,1.017,0.762,1.755c0,0.332-0.041,0.642-0.125,0.929
			s-0.209,0.56-0.373,0.817c-0.152,0.242-0.33,0.48-0.535,0.715s-0.455,0.494-0.748,0.779c-0.418,0.41-0.85,0.808-1.295,1.192
			s-0.861,0.741-1.248,1.069h4.693V161.893z"/>
		<path fill="#231F20" d="M580.968,157.691c0.188,0.168,0.342,0.379,0.463,0.633s0.182,0.582,0.182,0.984
			c0,0.398-0.072,0.764-0.217,1.096s-0.348,0.621-0.609,0.867c-0.293,0.273-0.638,0.476-1.034,0.606s-0.831,0.196-1.304,0.196
			c-0.484,0-0.961-0.058-1.43-0.173s-0.854-0.241-1.154-0.378v-1.225h0.088c0.332,0.219,0.723,0.4,1.172,0.545
			s0.883,0.217,1.301,0.217c0.246,0,0.508-0.041,0.785-0.123s0.502-0.203,0.674-0.363c0.18-0.172,0.313-0.361,0.401-0.568
			s0.132-0.469,0.132-0.785c0-0.312-0.05-0.571-0.149-0.776s-0.237-0.366-0.413-0.483c-0.176-0.121-0.389-0.204-0.639-0.249
			s-0.52-0.067-0.809-0.067h-0.527v-0.973h0.41c0.594,0,1.067-0.124,1.421-0.372s0.53-0.61,0.53-1.087
			c0-0.211-0.045-0.396-0.135-0.554s-0.215-0.288-0.375-0.39c-0.168-0.102-0.348-0.172-0.539-0.211s-0.408-0.059-0.65-0.059
			c-0.371,0-0.766,0.066-1.184,0.199s-0.812,0.32-1.184,0.562h-0.059v-1.225c0.277-0.137,0.647-0.263,1.11-0.378
			s0.911-0.173,1.345-0.173c0.426,0,0.801,0.039,1.125,0.117s0.617,0.203,0.879,0.375c0.281,0.188,0.494,0.414,0.639,0.68
			s0.217,0.576,0.217,0.932c0,0.484-0.171,0.907-0.513,1.269s-0.745,0.589-1.21,0.683v0.082c0.188,0.031,0.402,0.097,0.645,0.196
			S580.8,157.543,580.968,157.691z"/>
		<path fill="#231F20" d="M596.032,159.438h-1.295v2.455h-1.125v-2.455h-4.178v-1.348l4.225-4.922h1.078v5.332h1.295V159.438z
			 M593.612,158.5v-3.938l-3.381,3.938H593.612z"/>
		<path fill="#231F20" d="M609.57,159.121c0,0.406-0.074,0.795-0.223,1.166s-0.352,0.684-0.609,0.938
			c-0.281,0.273-0.615,0.483-1.004,0.63s-0.84,0.22-1.352,0.22c-0.477,0-0.936-0.05-1.377-0.149s-0.814-0.22-1.119-0.36v-1.236
			h0.082c0.32,0.203,0.695,0.376,1.125,0.519s0.852,0.214,1.266,0.214c0.277,0,0.547-0.039,0.807-0.117s0.49-0.215,0.693-0.41
			c0.172-0.168,0.303-0.369,0.391-0.604s0.131-0.506,0.131-0.814c0-0.301-0.051-0.555-0.154-0.762s-0.248-0.373-0.432-0.498
			c-0.203-0.148-0.449-0.253-0.74-0.313s-0.617-0.091-0.977-0.091c-0.344,0-0.674,0.023-0.992,0.07s-0.594,0.094-0.824,0.141v-4.494
			h5.25v1.025h-4.119v2.32c0.168-0.016,0.34-0.027,0.516-0.035s0.328-0.012,0.457-0.012c0.473,0,0.887,0.04,1.242,0.12
			s0.682,0.222,0.979,0.425c0.312,0.215,0.555,0.492,0.727,0.832S609.57,158.609,609.57,159.121z"/>
		<path fill="#231F20" d="M623.812,159.062c0,0.887-0.293,1.61-0.877,2.171s-1.299,0.841-2.146,0.841
			c-0.43,0-0.82-0.066-1.172-0.199s-0.662-0.33-0.932-0.592c-0.336-0.324-0.596-0.754-0.777-1.289s-0.271-1.18-0.271-1.934
			c0-0.773,0.082-1.459,0.248-2.057s0.432-1.129,0.795-1.594c0.344-0.441,0.787-0.786,1.33-1.034s1.176-0.372,1.898-0.372
			c0.23,0,0.424,0.01,0.58,0.029s0.314,0.055,0.475,0.105v1.119h-0.059c-0.109-0.059-0.275-0.114-0.496-0.167
			s-0.445-0.079-0.676-0.079c-0.84,0-1.51,0.263-2.01,0.788s-0.791,1.235-0.873,2.13c0.328-0.199,0.65-0.351,0.969-0.454
			s0.688-0.155,1.105-0.155c0.371,0,0.697,0.034,0.98,0.103s0.574,0.206,0.871,0.413c0.344,0.238,0.602,0.539,0.775,0.902
			S623.812,158.543,623.812,159.062z M622.623,159.109c0-0.363-0.055-0.664-0.162-0.902s-0.283-0.445-0.529-0.621
			c-0.18-0.125-0.379-0.207-0.598-0.246s-0.447-0.059-0.686-0.059c-0.332,0-0.641,0.039-0.926,0.117s-0.578,0.199-0.879,0.363
			c-0.008,0.086-0.014,0.169-0.018,0.249s-0.006,0.181-0.006,0.302c0,0.617,0.062,1.104,0.189,1.462s0.303,0.64,0.525,0.847
			c0.18,0.172,0.373,0.298,0.582,0.378s0.438,0.12,0.684,0.12c0.566,0,1.012-0.173,1.336-0.519S622.623,159.758,622.623,159.109z"/>
		<path fill="#231F20" d="M637.705,154.475l-3.949,7.418h-1.254l4.201-7.699h-4.969v-1.025h5.971V154.475z"/>
		<path fill="#231F20" d="M651.814,159.461c0,0.754-0.294,1.381-0.882,1.881s-1.327,0.75-2.218,0.75
			c-0.945,0-1.698-0.244-2.259-0.732s-0.841-1.113-0.841-1.875c0-0.484,0.141-0.923,0.422-1.315s0.678-0.704,1.189-0.935v-0.035
			c-0.469-0.25-0.815-0.523-1.04-0.82s-0.337-0.668-0.337-1.113c0-0.656,0.27-1.203,0.809-1.641s1.225-0.656,2.057-0.656
			c0.871,0,1.566,0.209,2.086,0.627s0.779,0.949,0.779,1.594c0,0.395-0.123,0.782-0.369,1.163s-0.607,0.679-1.084,0.894v0.035
			c0.547,0.234,0.965,0.523,1.254,0.867S651.814,158.93,651.814,159.461z M650.607,159.572c0-0.359-0.079-0.647-0.237-0.864
			s-0.468-0.435-0.929-0.653c-0.184-0.086-0.385-0.166-0.604-0.24s-0.51-0.178-0.873-0.311c-0.352,0.191-0.634,0.451-0.847,0.779
			s-0.319,0.699-0.319,1.113c0,0.527,0.182,0.963,0.545,1.307s0.824,0.516,1.383,0.516c0.57,0,1.026-0.146,1.368-0.439
			S650.607,160.084,650.607,159.572z M650.426,155.201c0-0.418-0.161-0.751-0.483-0.999s-0.733-0.372-1.233-0.372
			c-0.492,0-0.896,0.117-1.21,0.352s-0.472,0.551-0.472,0.949c0,0.281,0.079,0.524,0.237,0.729s0.397,0.388,0.718,0.548
			c0.145,0.07,0.353,0.162,0.624,0.275s0.536,0.207,0.794,0.281c0.387-0.258,0.654-0.525,0.803-0.803
			S650.426,155.564,650.426,155.201z"/>
		<path fill="#231F20" d="M665.798,157.006c0,0.762-0.087,1.453-0.261,2.074s-0.437,1.15-0.788,1.588
			c-0.355,0.445-0.801,0.789-1.336,1.031s-1.164,0.363-1.887,0.363c-0.203,0-0.395-0.011-0.574-0.032s-0.34-0.056-0.48-0.103v-1.119
			h0.059c0.113,0.059,0.273,0.114,0.48,0.167s0.438,0.079,0.691,0.079c0.863,0,1.54-0.259,2.03-0.776s0.774-1.231,0.853-2.142
			c-0.363,0.219-0.705,0.375-1.025,0.469s-0.67,0.141-1.049,0.141c-0.359,0-0.685-0.035-0.976-0.105s-0.583-0.207-0.876-0.41
			c-0.344-0.238-0.603-0.541-0.776-0.908s-0.261-0.807-0.261-1.318c0-0.891,0.293-1.615,0.879-2.174s1.301-0.838,2.145-0.838
			c0.422,0,0.812,0.065,1.172,0.196s0.674,0.327,0.943,0.589c0.332,0.324,0.588,0.741,0.768,1.251S665.798,156.197,665.798,157.006z
			 M664.614,156.754c0-0.605-0.062-1.092-0.188-1.459s-0.297-0.652-0.516-0.855c-0.184-0.176-0.381-0.302-0.592-0.378
			s-0.439-0.114-0.686-0.114c-0.562,0-1.007,0.176-1.333,0.527s-0.489,0.846-0.489,1.482c0,0.371,0.053,0.674,0.158,0.908
			s0.283,0.439,0.533,0.615c0.176,0.121,0.369,0.202,0.58,0.243s0.445,0.062,0.703,0.062c0.305,0,0.613-0.041,0.926-0.123
			s0.605-0.201,0.879-0.357c0.004-0.082,0.009-0.163,0.015-0.243S664.614,156.879,664.614,156.754z"/>
	</g>
	<g>
		<path fill="#231F20" d="M523.349,102.531c0.188,0.168,0.342,0.379,0.463,0.633s0.182,0.582,0.182,0.984
			c0,0.398-0.072,0.764-0.217,1.096s-0.348,0.621-0.609,0.867c-0.293,0.273-0.638,0.476-1.034,0.606s-0.831,0.196-1.304,0.196
			c-0.484,0-0.961-0.058-1.43-0.173s-0.854-0.241-1.154-0.378v-1.225h0.088c0.332,0.219,0.723,0.4,1.172,0.545
			s0.883,0.217,1.301,0.217c0.246,0,0.508-0.041,0.785-0.123s0.502-0.203,0.674-0.363c0.18-0.172,0.313-0.361,0.401-0.568
			s0.132-0.469,0.132-0.785c0-0.312-0.05-0.571-0.149-0.776s-0.237-0.366-0.413-0.483c-0.176-0.121-0.389-0.204-0.639-0.249
			s-0.52-0.067-0.809-0.067h-0.527v-0.973h0.41c0.594,0,1.067-0.124,1.421-0.372s0.53-0.61,0.53-1.087
			c0-0.211-0.045-0.396-0.135-0.554s-0.215-0.288-0.375-0.39c-0.168-0.102-0.348-0.172-0.539-0.211s-0.408-0.059-0.65-0.059
			c-0.371,0-0.766,0.066-1.184,0.199s-0.812,0.32-1.184,0.562h-0.059v-1.225c0.277-0.137,0.647-0.263,1.11-0.378
			s0.911-0.173,1.345-0.173c0.426,0,0.801,0.039,1.125,0.117s0.617,0.203,0.879,0.375c0.281,0.188,0.494,0.414,0.639,0.68
			s0.217,0.576,0.217,0.932c0,0.484-0.171,0.907-0.513,1.269s-0.745,0.589-1.21,0.683v0.082c0.188,0.031,0.402,0.097,0.645,0.196
			S523.181,102.383,523.349,102.531z"/>
		<path fill="#231F20" d="M524.116,120.732h-5.906v-1.225c0.41-0.352,0.821-0.703,1.233-1.055s0.796-0.701,1.151-1.049
			c0.75-0.727,1.264-1.304,1.541-1.731s0.416-0.89,0.416-1.386c0-0.453-0.149-0.808-0.448-1.063s-0.716-0.384-1.251-0.384
			c-0.355,0-0.74,0.062-1.154,0.188s-0.818,0.316-1.213,0.574h-0.059v-1.23c0.277-0.137,0.647-0.262,1.11-0.375
			s0.911-0.17,1.345-0.17c0.895,0,1.596,0.216,2.104,0.647s0.762,1.017,0.762,1.755c0,0.332-0.042,0.642-0.126,0.929
			s-0.208,0.56-0.372,0.817c-0.152,0.242-0.331,0.48-0.536,0.715s-0.454,0.494-0.747,0.779c-0.418,0.41-0.85,0.808-1.295,1.192
			s-0.861,0.741-1.248,1.069h4.693V120.732z"/>
		<path fill="#231F20" d="M523.618,135.133h-4.723v-0.891h1.816v-5.848h-1.816v-0.797c0.246,0,0.51-0.021,0.791-0.062
			s0.494-0.101,0.639-0.179c0.18-0.098,0.321-0.222,0.425-0.372s0.163-0.353,0.179-0.606h0.908v7.863h1.781V135.133z"/>
		<path fill="#231F20" d="M524.104,144.366c0,1.566-0.245,2.716-0.735,3.448s-1.251,1.099-2.282,1.099
			c-1.047,0-1.812-0.371-2.294-1.113s-0.724-1.883-0.724-3.422c0-1.551,0.244-2.696,0.732-3.437s1.25-1.11,2.285-1.11
			c1.047,0,1.812,0.376,2.294,1.128S524.104,142.847,524.104,144.366z M522.563,147.026c0.137-0.316,0.229-0.688,0.278-1.116
			s0.073-0.942,0.073-1.544c0-0.594-0.024-1.109-0.073-1.547s-0.144-0.809-0.284-1.113c-0.137-0.301-0.323-0.527-0.56-0.68
			s-0.54-0.229-0.911-0.229c-0.367,0-0.671,0.076-0.911,0.229s-0.431,0.383-0.571,0.691c-0.133,0.289-0.224,0.666-0.272,1.131
			s-0.073,0.975-0.073,1.529c0,0.609,0.021,1.119,0.064,1.529s0.135,0.777,0.275,1.102c0.129,0.305,0.312,0.537,0.548,0.697
			s0.55,0.24,0.94,0.24c0.367,0,0.672-0.076,0.914-0.229S522.431,147.335,522.563,147.026z"/>
	</g>
	<line fill="#231F20" stroke="#231F20" stroke-miterlimit="10" x1="529.866" y1="91.001" x2="529.866" y2="163"/>
	<line fill="#231F20" stroke="#231F20" stroke-miterlimit="10" x1="543.866" y1="91.001" x2="543.866" y2="163"/>
	<line fill="#231F20" stroke="#231F20" stroke-miterlimit="10" x1="557.866" y1="91.001" x2="557.866" y2="163"/>
	<line fill="#231F20" stroke="#231F20" stroke-miterlimit="10" x1="571.866" y1="91.001" x2="571.866" y2="163"/>
	<line fill="#231F20" stroke="#231F20" stroke-miterlimit="10" x1="585.866" y1="91.001" x2="585.866" y2="163"/>
	<line fill="#231F20" stroke="#231F20" stroke-miterlimit="10" x1="599.866" y1="91.001" x2="599.866" y2="163"/>
	<line fill="#231F20" stroke="#231F20" stroke-miterlimit="10" x1="613.866" y1="91.001" x2="613.866" y2="163"/>
	<line fill="#231F20" stroke="#231F20" stroke-miterlimit="10" x1="627.866" y1="91.001" x2="627.866" y2="163"/>
	<line fill="#231F20" stroke="#231F20" stroke-miterlimit="10" x1="641.866" y1="91.001" x2="641.866" y2="163"/>
	<line fill="#231F20" stroke="#231F20" stroke-miterlimit="10" x1="655.866" y1="91.001" x2="655.866" y2="163"/>
	<line fill="#231F20" stroke="#231F20" stroke-miterlimit="10" x1="669.866" y1="91.001" x2="669.866" y2="163"/>
	<line fill="#231F20" stroke="#231F20" stroke-miterlimit="10" x1="514.199" y1="108.602" x2="669.467" y2="108.602"/>
	<line fill="#231F20" stroke="#231F20" stroke-miterlimit="10" x1="514.199" y1="122.602" x2="669.467" y2="122.602"/>
	<line fill="#231F20" stroke="#231F20" stroke-miterlimit="10" x1="514.199" y1="136.602" x2="669.467" y2="136.602"/>
	<line fill="#231F20" stroke="#231F20" stroke-miterlimit="10" x1="514.199" y1="150.602" x2="669.467" y2="150.602"/>
</g>
<g>
	<path fill="#737370" d="M336.478,809.327c0-1.257-1.02-2.276-2.276-2.276h-6.526c-1.257,0-2.276,1.02-2.276,2.276v6.525
		c0,1.257,1.02,2.277,2.276,2.277h6.526c1.257,0,2.276-1.021,2.276-2.277V809.327z"/>
	<path fill="#737370" d="M350.729,809.327c0-1.257-1.02-2.276-2.275-2.276h-6.526c-1.257,0-2.276,1.02-2.276,2.276v6.525
		c0,1.257,1.02,2.277,2.276,2.277h6.526c1.256,0,2.275-1.021,2.275-2.277V809.327z"/>
	<path fill="#737370" d="M350.729,795.729c0-1.257-1.02-2.276-2.275-2.276h-6.526c-1.257,0-2.276,1.02-2.276,2.276v6.525
		c0,1.257,1.02,2.277,2.276,2.277h6.526c1.256,0,2.275-1.021,2.275-2.277V795.729z"/>
	<path fill="#737370" d="M364.479,795.729c0-1.257-1.02-2.276-2.275-2.276h-6.526c-1.257,0-2.276,1.02-2.276,2.276v6.525
		c0,1.257,1.02,2.277,2.276,2.277h6.526c1.256,0,2.275-1.021,2.275-2.277V795.729z"/>
	<path fill="#737370" d="M448.677,809.677c0-1.257-1.02-2.276-2.276-2.276h-6.525c-1.258,0-2.277,1.02-2.277,2.276v6.525
		c0,1.257,1.02,2.277,2.277,2.277h6.525c1.257,0,2.276-1.021,2.276-2.277V809.677z"/>
	<path fill="#737370" d="M462.427,809.677c0-1.257-1.02-2.276-2.276-2.276h-6.525c-1.258,0-2.277,1.02-2.277,2.276v6.525
		c0,1.257,1.02,2.277,2.277,2.277h6.525c1.257,0,2.276-1.021,2.276-2.277V809.677z"/>
	<g>
		<path fill="#231F20" d="M333.97,826.591c0,1.566-0.245,2.716-0.735,3.448s-1.251,1.099-2.282,1.099
			c-1.047,0-1.812-0.371-2.294-1.113s-0.724-1.883-0.724-3.422c0-1.551,0.244-2.696,0.732-3.437s1.25-1.11,2.285-1.11
			c1.047,0,1.812,0.376,2.294,1.128S333.97,825.071,333.97,826.591z M332.429,829.251c0.137-0.316,0.229-0.688,0.278-1.116
			s0.073-0.942,0.073-1.544c0-0.594-0.024-1.109-0.073-1.547s-0.144-0.809-0.284-1.113c-0.137-0.301-0.323-0.527-0.56-0.68
			s-0.54-0.229-0.911-0.229c-0.367,0-0.671,0.076-0.911,0.229s-0.431,0.383-0.571,0.691c-0.133,0.289-0.224,0.666-0.272,1.131
			s-0.073,0.975-0.073,1.529c0,0.609,0.021,1.119,0.064,1.529s0.135,0.777,0.275,1.102c0.129,0.305,0.312,0.537,0.548,0.697
			s0.55,0.24,0.94,0.24c0.367,0,0.672-0.076,0.914-0.229S332.296,829.56,332.429,829.251z"/>
		<path fill="#231F20" d="M347.309,830.956h-4.723v-0.891h1.816v-5.848h-1.816v-0.797c0.246,0,0.51-0.021,0.791-0.062
			s0.494-0.101,0.639-0.179c0.18-0.098,0.321-0.222,0.425-0.372s0.163-0.353,0.179-0.606h0.908v7.863h1.781V830.956z"/>
		<path fill="#231F20" d="M361.896,830.956h-5.906v-1.225c0.41-0.352,0.82-0.703,1.232-1.055s0.797-0.701,1.152-1.049
			c0.75-0.727,1.264-1.304,1.541-1.731s0.416-0.89,0.416-1.386c0-0.453-0.15-0.808-0.449-1.063s-0.715-0.384-1.25-0.384
			c-0.355,0-0.74,0.062-1.154,0.188s-0.818,0.316-1.213,0.574h-0.059v-1.23c0.277-0.137,0.646-0.262,1.109-0.375
			s0.912-0.17,1.346-0.17c0.895,0,1.596,0.216,2.104,0.647s0.762,1.017,0.762,1.755c0,0.332-0.043,0.642-0.127,0.929
			s-0.207,0.56-0.371,0.817c-0.152,0.242-0.332,0.48-0.537,0.715s-0.453,0.494-0.746,0.779c-0.418,0.41-0.85,0.808-1.295,1.192
			s-0.861,0.741-1.248,1.069h4.693V830.956z"/>
		<path fill="#231F20" d="M375.168,826.755c0.188,0.168,0.342,0.379,0.463,0.633s0.182,0.582,0.182,0.984
			c0,0.398-0.072,0.764-0.217,1.096s-0.348,0.621-0.609,0.867c-0.293,0.273-0.638,0.476-1.034,0.606s-0.831,0.196-1.304,0.196
			c-0.484,0-0.961-0.058-1.43-0.173s-0.854-0.241-1.154-0.378v-1.225h0.088c0.332,0.219,0.723,0.4,1.172,0.545
			s0.883,0.217,1.301,0.217c0.246,0,0.508-0.041,0.785-0.123s0.502-0.203,0.674-0.363c0.18-0.172,0.313-0.361,0.401-0.568
			s0.132-0.469,0.132-0.785c0-0.312-0.05-0.571-0.149-0.776s-0.237-0.366-0.413-0.483c-0.176-0.121-0.389-0.204-0.639-0.249
			s-0.52-0.067-0.809-0.067h-0.527v-0.973h0.41c0.594,0,1.067-0.124,1.421-0.372s0.53-0.61,0.53-1.087
			c0-0.211-0.045-0.396-0.135-0.554s-0.215-0.288-0.375-0.39c-0.168-0.102-0.348-0.172-0.539-0.211s-0.408-0.059-0.65-0.059
			c-0.371,0-0.766,0.066-1.184,0.199s-0.812,0.32-1.184,0.562h-0.059v-1.225c0.277-0.137,0.647-0.263,1.11-0.378
			s0.911-0.173,1.345-0.173c0.426,0,0.801,0.039,1.125,0.117s0.617,0.203,0.879,0.375c0.281,0.188,0.494,0.414,0.639,0.68
			s0.217,0.576,0.217,0.932c0,0.484-0.171,0.907-0.513,1.269s-0.745,0.589-1.21,0.683v0.082c0.188,0.031,0.402,0.097,0.645,0.196
			S375,826.606,375.168,826.755z"/>
		<path fill="#231F20" d="M390.232,828.501h-1.295v2.455h-1.125v-2.455h-4.178v-1.348l4.225-4.922h1.078v5.332h1.295V828.501z
			 M387.812,827.563v-3.938l-3.381,3.938H387.812z"/>
		<path fill="#231F20" d="M403.771,828.185c0,0.406-0.074,0.795-0.223,1.166s-0.352,0.684-0.609,0.938
			c-0.281,0.273-0.617,0.483-1.006,0.63s-0.838,0.22-1.35,0.22c-0.477,0-0.936-0.05-1.377-0.149s-0.814-0.22-1.119-0.36v-1.236
			h0.082c0.32,0.203,0.695,0.376,1.125,0.519s0.852,0.214,1.266,0.214c0.277,0,0.545-0.039,0.805-0.117s0.492-0.215,0.695-0.41
			c0.172-0.168,0.301-0.369,0.389-0.604s0.133-0.506,0.133-0.814c0-0.301-0.053-0.555-0.156-0.762s-0.246-0.373-0.43-0.498
			c-0.203-0.148-0.451-0.253-0.742-0.313s-0.615-0.091-0.975-0.091c-0.344,0-0.676,0.023-0.994,0.07s-0.592,0.094-0.822,0.141
			v-4.494h5.25v1.025h-4.119v2.32c0.168-0.016,0.34-0.027,0.516-0.035s0.328-0.012,0.457-0.012c0.473,0,0.887,0.04,1.242,0.12
			s0.682,0.222,0.979,0.425c0.312,0.215,0.555,0.492,0.727,0.832S403.771,827.673,403.771,828.185z"/>
		<path fill="#231F20" d="M418.012,828.126c0,0.887-0.291,1.61-0.875,2.171s-1.301,0.841-2.148,0.841
			c-0.43,0-0.82-0.066-1.172-0.199s-0.662-0.33-0.932-0.592c-0.336-0.324-0.594-0.754-0.775-1.289s-0.273-1.18-0.273-1.934
			c0-0.773,0.084-1.459,0.25-2.057s0.43-1.129,0.793-1.594c0.344-0.441,0.787-0.786,1.33-1.034s1.176-0.372,1.898-0.372
			c0.23,0,0.424,0.01,0.58,0.029s0.314,0.055,0.475,0.105v1.119h-0.059c-0.109-0.059-0.273-0.114-0.494-0.167
			s-0.447-0.079-0.678-0.079c-0.84,0-1.51,0.263-2.01,0.788s-0.791,1.235-0.873,2.13c0.328-0.199,0.652-0.351,0.971-0.454
			s0.686-0.155,1.104-0.155c0.371,0,0.699,0.034,0.982,0.103s0.572,0.206,0.869,0.413c0.344,0.238,0.604,0.539,0.777,0.902
			S418.012,827.606,418.012,828.126z M416.822,828.173c0-0.363-0.053-0.664-0.16-0.902s-0.285-0.445-0.531-0.621
			c-0.18-0.125-0.379-0.207-0.598-0.246s-0.447-0.059-0.686-0.059c-0.332,0-0.641,0.039-0.926,0.117s-0.578,0.199-0.879,0.363
			c-0.008,0.086-0.014,0.169-0.018,0.249s-0.006,0.181-0.006,0.302c0,0.617,0.064,1.104,0.191,1.462s0.301,0.64,0.523,0.847
			c0.18,0.172,0.375,0.298,0.584,0.378s0.436,0.12,0.682,0.12c0.566,0,1.012-0.173,1.336-0.519S416.822,828.821,416.822,828.173z"/>
		<path fill="#231F20" d="M431.905,823.538l-3.949,7.418h-1.254l4.201-7.699h-4.969v-1.025h5.971V823.538z"/>
		<path fill="#231F20" d="M446.015,828.524c0,0.754-0.294,1.381-0.882,1.881s-1.327,0.75-2.218,0.75
			c-0.945,0-1.698-0.244-2.259-0.732s-0.841-1.113-0.841-1.875c0-0.484,0.141-0.923,0.422-1.315s0.678-0.704,1.189-0.935v-0.035
			c-0.469-0.25-0.815-0.523-1.04-0.82s-0.337-0.668-0.337-1.113c0-0.656,0.27-1.203,0.809-1.641s1.225-0.656,2.057-0.656
			c0.871,0,1.566,0.209,2.086,0.627s0.779,0.949,0.779,1.594c0,0.395-0.123,0.782-0.369,1.163s-0.607,0.679-1.084,0.894v0.035
			c0.547,0.234,0.965,0.523,1.254,0.867S446.015,827.993,446.015,828.524z M444.808,828.636c0-0.359-0.079-0.647-0.237-0.864
			s-0.468-0.435-0.929-0.653c-0.184-0.086-0.385-0.166-0.604-0.24s-0.51-0.178-0.873-0.311c-0.352,0.191-0.634,0.451-0.847,0.779
			s-0.319,0.699-0.319,1.113c0,0.527,0.182,0.963,0.545,1.307s0.824,0.516,1.383,0.516c0.57,0,1.026-0.146,1.368-0.439
			S444.808,829.147,444.808,828.636z M444.626,824.265c0-0.418-0.161-0.751-0.483-0.999s-0.733-0.372-1.233-0.372
			c-0.492,0-0.896,0.117-1.21,0.352s-0.472,0.551-0.472,0.949c0,0.281,0.079,0.524,0.237,0.729s0.397,0.388,0.718,0.548
			c0.145,0.07,0.353,0.162,0.624,0.275s0.536,0.207,0.794,0.281c0.387-0.258,0.654-0.525,0.803-0.803
			S444.626,824.628,444.626,824.265z"/>
		<path fill="#231F20" d="M459.998,826.069c0,0.762-0.087,1.453-0.261,2.074s-0.437,1.15-0.788,1.588
			c-0.355,0.445-0.801,0.789-1.336,1.031s-1.164,0.363-1.887,0.363c-0.203,0-0.395-0.011-0.574-0.032s-0.34-0.056-0.48-0.103v-1.119
			h0.059c0.113,0.059,0.273,0.114,0.48,0.167s0.438,0.079,0.691,0.079c0.863,0,1.54-0.259,2.03-0.776s0.774-1.231,0.853-2.142
			c-0.363,0.219-0.705,0.375-1.025,0.469s-0.67,0.141-1.049,0.141c-0.359,0-0.685-0.035-0.976-0.105s-0.583-0.207-0.876-0.41
			c-0.344-0.238-0.603-0.541-0.776-0.908s-0.261-0.807-0.261-1.318c0-0.891,0.293-1.615,0.879-2.174s1.301-0.838,2.145-0.838
			c0.422,0,0.812,0.065,1.172,0.196s0.674,0.327,0.943,0.589c0.332,0.324,0.588,0.741,0.768,1.251S459.998,825.261,459.998,826.069z
			 M458.814,825.817c0-0.605-0.062-1.092-0.188-1.459s-0.297-0.652-0.516-0.855c-0.184-0.176-0.381-0.302-0.592-0.378
			s-0.439-0.114-0.686-0.114c-0.562,0-1.007,0.176-1.333,0.527s-0.489,0.846-0.489,1.482c0,0.371,0.053,0.674,0.158,0.908
			s0.283,0.439,0.533,0.615c0.176,0.121,0.369,0.202,0.58,0.243s0.445,0.062,0.703,0.062c0.305,0,0.613-0.041,0.926-0.123
			s0.605-0.201,0.879-0.357c0.004-0.082,0.009-0.163,0.015-0.243S458.814,825.942,458.814,825.817z"/>
	</g>
	<g>
		<path fill="#231F20" d="M317.549,771.595c0.188,0.168,0.342,0.379,0.463,0.633s0.182,0.582,0.182,0.984
			c0,0.398-0.072,0.764-0.217,1.096s-0.348,0.621-0.609,0.867c-0.293,0.273-0.638,0.476-1.034,0.606s-0.831,0.196-1.304,0.196
			c-0.484,0-0.961-0.058-1.43-0.173s-0.854-0.241-1.154-0.378v-1.225h0.088c0.332,0.219,0.723,0.4,1.172,0.545
			s0.883,0.217,1.301,0.217c0.246,0,0.508-0.041,0.785-0.123s0.502-0.203,0.674-0.363c0.18-0.172,0.313-0.361,0.401-0.568
			s0.132-0.469,0.132-0.785c0-0.312-0.05-0.571-0.149-0.776s-0.237-0.366-0.413-0.483c-0.176-0.121-0.389-0.204-0.639-0.249
			s-0.52-0.067-0.809-0.067h-0.527v-0.973h0.41c0.594,0,1.067-0.124,1.421-0.372s0.53-0.61,0.53-1.087
			c0-0.211-0.045-0.396-0.135-0.554s-0.215-0.288-0.375-0.39c-0.168-0.102-0.348-0.172-0.539-0.211s-0.408-0.059-0.65-0.059
			c-0.371,0-0.766,0.066-1.184,0.199s-0.812,0.32-1.184,0.562h-0.059v-1.225c0.277-0.137,0.647-0.263,1.11-0.378
			s0.911-0.173,1.345-0.173c0.426,0,0.801,0.039,1.125,0.117s0.617,0.203,0.879,0.375c0.281,0.188,0.494,0.414,0.639,0.68
			s0.217,0.576,0.217,0.932c0,0.484-0.171,0.907-0.513,1.269s-0.745,0.589-1.21,0.683v0.082c0.188,0.031,0.402,0.097,0.645,0.196
			S317.381,771.446,317.549,771.595z"/>
		<path fill="#231F20" d="M318.316,789.796h-5.906v-1.225c0.41-0.352,0.821-0.703,1.233-1.055s0.796-0.701,1.151-1.049
			c0.75-0.727,1.264-1.304,1.541-1.731s0.416-0.89,0.416-1.386c0-0.453-0.149-0.808-0.448-1.063s-0.716-0.384-1.251-0.384
			c-0.355,0-0.74,0.062-1.154,0.188s-0.818,0.316-1.213,0.574h-0.059v-1.23c0.277-0.137,0.647-0.262,1.11-0.375
			s0.911-0.17,1.345-0.17c0.895,0,1.596,0.216,2.104,0.647s0.762,1.017,0.762,1.755c0,0.332-0.042,0.642-0.126,0.929
			s-0.208,0.56-0.372,0.817c-0.152,0.242-0.331,0.48-0.536,0.715s-0.454,0.494-0.747,0.779c-0.418,0.41-0.85,0.808-1.295,1.192
			s-0.861,0.741-1.248,1.069h4.693V789.796z"/>
		<path fill="#231F20" d="M317.818,804.196h-4.723v-0.891h1.816v-5.848h-1.816v-0.797c0.246,0,0.51-0.021,0.791-0.062
			s0.494-0.101,0.639-0.179c0.18-0.098,0.321-0.222,0.425-0.372s0.163-0.353,0.179-0.606h0.908v7.863h1.781V804.196z"/>
		<path fill="#231F20" d="M318.305,813.43c0,1.566-0.245,2.716-0.735,3.448s-1.251,1.099-2.282,1.099
			c-1.047,0-1.812-0.371-2.294-1.113s-0.724-1.883-0.724-3.422c0-1.551,0.244-2.696,0.732-3.437s1.25-1.11,2.285-1.11
			c1.047,0,1.812,0.376,2.294,1.128S318.305,811.91,318.305,813.43z M316.764,816.09c0.137-0.316,0.229-0.688,0.278-1.116
			s0.073-0.942,0.073-1.544c0-0.594-0.024-1.109-0.073-1.547s-0.144-0.809-0.284-1.113c-0.137-0.301-0.323-0.527-0.56-0.68
			s-0.54-0.229-0.911-0.229c-0.367,0-0.671,0.076-0.911,0.229s-0.431,0.383-0.571,0.691c-0.133,0.289-0.224,0.666-0.272,1.131
			s-0.073,0.975-0.073,1.529c0,0.609,0.021,1.119,0.064,1.529s0.135,0.777,0.275,1.102c0.129,0.305,0.312,0.537,0.548,0.697
			s0.55,0.24,0.94,0.24c0.367,0,0.672-0.076,0.914-0.229S316.631,816.398,316.764,816.09z"/>
	</g>
	<line fill="#231F20" stroke="#231F20" stroke-miterlimit="10" x1="324.066" y1="760.064" x2="324.066" y2="832.063"/>
	<line fill="#231F20" stroke="#231F20" stroke-miterlimit="10" x1="338.066" y1="760.064" x2="338.066" y2="832.063"/>
	<line fill="#231F20" stroke="#231F20" stroke-miterlimit="10" x1="352.066" y1="760.064" x2="352.066" y2="832.063"/>
	<line fill="#231F20" stroke="#231F20" stroke-miterlimit="10" x1="366.066" y1="760.064" x2="366.066" y2="832.063"/>
	<line fill="#231F20" stroke="#231F20" stroke-miterlimit="10" x1="380.066" y1="760.064" x2="380.066" y2="832.063"/>
	<line fill="#231F20" stroke="#231F20" stroke-miterlimit="10" x1="394.066" y1="760.064" x2="394.066" y2="832.063"/>
	<line fill="#231F20" stroke="#231F20" stroke-miterlimit="10" x1="408.066" y1="760.064" x2="408.066" y2="832.063"/>
	<line fill="#231F20" stroke="#231F20" stroke-miterlimit="10" x1="422.066" y1="760.064" x2="422.066" y2="832.063"/>
	<line fill="#231F20" stroke="#231F20" stroke-miterlimit="10" x1="436.066" y1="760.064" x2="436.066" y2="832.063"/>
	<line fill="#231F20" stroke="#231F20" stroke-miterlimit="10" x1="450.066" y1="760.064" x2="450.066" y2="832.063"/>
	<line fill="#231F20" stroke="#231F20" stroke-miterlimit="10" x1="464.066" y1="760.064" x2="464.066" y2="832.063"/>
	<line fill="#231F20" stroke="#231F20" stroke-miterlimit="10" x1="308.4" y1="777.665" x2="463.667" y2="777.665"/>
	<line fill="#231F20" stroke="#231F20" stroke-miterlimit="10" x1="308.4" y1="791.665" x2="463.667" y2="791.665"/>
	<line fill="#231F20" stroke="#231F20" stroke-miterlimit="10" x1="308.4" y1="805.665" x2="463.667" y2="805.665"/>
	<line fill="#231F20" stroke="#231F20" stroke-miterlimit="10" x1="308.4" y1="819.665" x2="463.667" y2="819.665"/>
</g>
<text transform="matrix(1 0 0 1 5 16)"><tspan x="0" y="0" fill="#231F20" font-family="'Verdana'" font-size="12">checkio({</tspan><tspan x="0" y="14.4" fill="#231F20" font-family="'Verdana'" font-size="12">    </tspan><tspan x="16.875" y="14.4" fill="#294270" font-family="'Verdana-Bold'" font-size="12">&apos;figure&apos;</tspan><tspan x="64.887" y="14.4" fill="#231F20" font-family="'Verdana'" font-size="12">:[</tspan><tspan x="0" y="28.8" fill="#231F20" font-family="'Verdana'" font-size="12">       </tspan><tspan x="29.531" y="28.8" fill="#F0801A" font-family="'Verdana'" font-size="12"> [False, True],</tspan><tspan x="0" y="43.2" fill="#F0801A" font-family="'Verdana'" font-size="12">        [True, True],</tspan><tspan x="0" y="57.6" fill="#F0801A" font-family="'Verdana'" font-size="12">        [False, True]</tspan><tspan x="0" y="72" fill="#231F20" font-family="'Verdana'" font-size="12">    ],</tspan><tspan x="0" y="86.4" fill="#231F20" font-family="'Verdana'" font-size="12">    </tspan><tspan x="16.875" y="86.4" fill="#294270" font-family="'Verdana-Bold'" font-size="12">&apos;map&apos;</tspan><tspan x="53.947" y="86.4" fill="#231F20" font-family="'Verdana'" font-size="12">:[</tspan><tspan x="0" y="100.8" fill="#231F20" font-family="'Verdana'" font-size="12">        </tspan><tspan x="33.75" y="100.8" fill="#F0801A" font-family="'Verdana'" font-size="12">[True, True, False, False, False, False, False, False, True, True],</tspan><tspan x="0" y="115.2" fill="#F0801A" font-family="'Verdana'" font-size="12">        [False, True, True, False, False, False, False, False, False, False]</tspan><tspan x="0" y="129.6" fill="#231F20" font-family="'Verdana'" font-size="12">    ],</tspan><tspan x="0" y="158.4" fill="#231F20" font-family="'Verdana'" font-size="12">    </tspan><tspan x="16.875" y="158.4" fill="#294270" font-family="'Verdana-Bold'" font-size="12">&apos;stack&apos;</tspan><tspan x="60.557" y="158.4" fill="#231F20" font-family="'Verdana'" font-size="12">:[</tspan><tspan x="0" y="172.8" fill="#231F20" font-family="'Verdana'" font-size="12">        [</tspan><tspan x="0" y="187.2" fill="#231F20" font-family="'Verdana'" font-size="12">            </tspan><tspan x="50.625" y="187.2" fill="#F0801A" font-family="'Verdana'" font-size="12">[False, True],</tspan><tspan x="0" y="201.6" fill="#F0801A" font-family="'Verdana'" font-size="12">            [True, True],</tspan><tspan x="0" y="216" fill="#F0801A" font-family="'Verdana'" font-size="12">            [False, True]</tspan><tspan x="0" y="230.4" fill="#231F20" font-family="'Verdana'" font-size="12">        ],[</tspan><tspan x="0" y="244.8" fill="#231F20" font-family="'Verdana'" font-size="12">            </tspan><tspan x="50.625" y="244.8" fill="#F0801A" font-family="'Verdana'" font-size="12">[True],</tspan><tspan x="0" y="259.2" fill="#F0801A" font-family="'Verdana'" font-size="12">            [True],</tspan><tspan x="0" y="273.6" fill="#F0801A" font-family="'Verdana'" font-size="12">            [True],</tspan><tspan x="0" y="288" fill="#F0801A" font-family="'Verdana'" font-size="12">            [True]</tspan><tspan x="0" y="302.4" fill="#231F20" font-family="'Verdana'" font-size="12">        ],[</tspan><tspan x="0" y="316.8" fill="#231F20" font-family="'Verdana'" font-size="12">            </tspan><tspan x="50.625" y="316.8" fill="#F0801A" font-family="'Verdana'" font-size="12">[True, True],</tspan><tspan x="0" y="331.2" fill="#F0801A" font-family="'Verdana'" font-size="12">            [True, True]</tspan><tspan x="0" y="345.6" fill="#231F20" font-family="'Verdana'" font-size="12">        ],[</tspan><tspan x="0" y="360" fill="#231F20" font-family="'Verdana'" font-size="12">            </tspan><tspan x="50.625" y="360" fill="#F0801A" font-family="'Verdana'" font-size="12">[True, True, False],</tspan><tspan x="0" y="374.4" fill="#F0801A" font-family="'Verdana'" font-size="12">            [False, True, True]</tspan><tspan x="0" y="388.8" fill="#231F20" font-family="'Verdana'" font-size="12">        ]</tspan><tspan x="0" y="417.6" fill="#231F20" font-family="'Verdana'" font-size="12">    ]</tspan><tspan x="0" y="432" fill="#231F20" font-family="'Verdana'" font-size="12">}) </tspan></text>
<g>
	<path fill="#294270" d="M597.963,61.143c0-1.257-1.02-2.276-2.277-2.276h-6.525c-1.257,0-2.276,1.02-2.276,2.276v6.525
		c0,1.257,1.02,2.277,2.276,2.277h6.525c1.258,0,2.277-1.021,2.277-2.277V61.143z"/>
	<path fill="#294270" d="M584.213,47.975c0-1.257-1.02-2.276-2.277-2.276h-6.525c-1.257,0-2.276,1.02-2.276,2.276V54.5
		c0,1.257,1.02,2.277,2.276,2.277h6.525c1.258,0,2.277-1.021,2.277-2.277V47.975z"/>
	<path fill="#294270" d="M597.963,47.975c0-1.257-1.02-2.276-2.277-2.276h-6.525c-1.257,0-2.276,1.02-2.276,2.276V54.5
		c0,1.257,1.02,2.277,2.276,2.277h6.525c1.258,0,2.277-1.021,2.277-2.277V47.975z"/>
	<path fill="#294270" d="M597.963,34.475c0-1.257-1.02-2.276-2.277-2.276h-6.525c-1.257,0-2.276,1.02-2.276,2.276V41
		c0,1.257,1.02,2.277,2.276,2.277h6.525c1.258,0,2.277-1.021,2.277-2.277V34.475z"/>
</g>
<g>
	<path fill="#294270" d="M392.672,448.337c0-1.257-1.02-2.276-2.276-2.276h-6.526c-1.256,0-2.275,1.02-2.275,2.276v6.525
		c0,1.257,1.02,2.277,2.275,2.277h6.526c1.257,0,2.276-1.021,2.276-2.277V448.337z"/>
	<path fill="#294270" d="M378.922,435.169c0-1.257-1.02-2.276-2.276-2.276h-6.526c-1.256,0-2.275,1.02-2.275,2.276v6.525
		c0,1.257,1.02,2.277,2.275,2.277h6.526c1.257,0,2.276-1.021,2.276-2.277V435.169z"/>
	<path fill="#294270" d="M392.672,435.169c0-1.257-1.02-2.276-2.276-2.276h-6.526c-1.256,0-2.275,1.02-2.275,2.276v6.525
		c0,1.257,1.02,2.277,2.275,2.277h6.526c1.257,0,2.276-1.021,2.276-2.277V435.169z"/>
	<path fill="#294270" d="M392.672,421.669c0-1.257-1.02-2.276-2.276-2.276h-6.526c-1.256,0-2.275,1.02-2.275,2.276v6.525
		c0,1.257,1.02,2.277,2.275,2.277h6.526c1.257,0,2.276-1.021,2.276-2.277V421.669z"/>
</g>
<g>
	<path fill="#294270" d="M376.788,498.681c1.257,0,2.276-1.02,2.276-2.276v-6.526c0-1.256-1.02-2.275-2.276-2.275h-6.525
		c-1.257,0-2.277,1.02-2.277,2.275v6.526c0,1.257,1.021,2.276,2.277,2.276H376.788z"/>
	<path fill="#294270" d="M390.557,484.931c1.257,0,2.276-1.02,2.276-2.276v-6.526c0-1.256-1.02-2.275-2.276-2.275h-6.525
		c-1.257,0-2.277,1.02-2.277,2.275v6.526c0,1.257,1.021,2.276,2.277,2.276H390.557z"/>
	<path fill="#294270" d="M390.557,498.681c1.257,0,2.276-1.02,2.276-2.276v-6.526c0-1.256-1.02-2.275-2.276-2.275h-6.525
		c-1.257,0-2.277,1.02-2.277,2.275v6.526c0,1.257,1.021,2.276,2.277,2.276H390.557z"/>
	<path fill="#294270" d="M404.657,498.681c1.257,0,2.276-1.02,2.276-2.276v-6.526c0-1.256-1.02-2.275-2.276-2.275h-6.525
		c-1.257,0-2.277,1.02-2.277,2.275v6.526c0,1.257,1.021,2.276,2.277,2.276H404.657z"/>
</g>
<g>
	<path fill="#294270" d="M243.29,218.904c0-1.257-1.02-2.276-2.276-2.276h-6.526c-1.257,0-2.276,1.02-2.276,2.276v6.525
		c0,1.257,1.02,2.277,2.276,2.277h6.526c1.257,0,2.276-1.021,2.276-2.277V218.904z"/>
	<path fill="#294270" d="M229.54,205.736c0-1.257-1.02-2.276-2.276-2.276h-6.526c-1.257,0-2.276,1.02-2.276,2.276v6.525
		c0,1.257,1.02,2.277,2.276,2.277h6.526c1.257,0,2.276-1.021,2.276-2.277V205.736z"/>
	<path fill="#294270" d="M243.29,205.736c0-1.257-1.02-2.276-2.276-2.276h-6.526c-1.257,0-2.276,1.02-2.276,2.276v6.525
		c0,1.257,1.02,2.277,2.276,2.277h6.526c1.257,0,2.276-1.021,2.276-2.277V205.736z"/>
	<path fill="#294270" d="M243.29,192.236c0-1.257-1.02-2.276-2.276-2.276h-6.526c-1.257,0-2.276,1.02-2.276,2.276v6.525
		c0,1.257,1.02,2.277,2.276,2.277h6.526c1.257,0,2.276-1.021,2.276-2.277V192.236z"/>
</g>
<g>
	<path fill="#294270" d="M243,280c0-1.257-1.02-2.276-2.276-2.276h-6.526c-1.257,0-2.276,1.02-2.276,2.276v6.525
		c0,1.257,1.02,2.277,2.276,2.277h6.526c1.257,0,2.276-1.021,2.276-2.277V280z"/>
	<path fill="#294270" d="M243,292.582c0-1.257-1.02-2.276-2.276-2.276h-6.526c-1.257,0-2.276,1.02-2.276,2.276v6.525
		c0,1.257,1.02,2.277,2.276,2.277h6.526c1.257,0,2.276-1.021,2.276-2.277V292.582z"/>
	<path fill="#294270" d="M243,266.832c0-1.257-1.02-2.276-2.276-2.276h-6.526c-1.257,0-2.276,1.02-2.276,2.276v6.525
		c0,1.257,1.02,2.277,2.276,2.277h6.526c1.257,0,2.276-1.021,2.276-2.277V266.832z"/>
	<path fill="#294270" d="M243,253.332c0-1.257-1.02-2.276-2.276-2.276h-6.526c-1.257,0-2.276,1.02-2.276,2.276v6.525
		c0,1.257,1.02,2.277,2.276,2.277h6.526c1.257,0,2.276-1.021,2.276-2.277V253.332z"/>
</g>
<g>
	<path fill="#294270" d="M249.302,321.197c0-1.257-1.02-2.276-2.276-2.276H240.5c-1.257,0-2.276,1.02-2.276,2.276v6.525
		c0,1.257,1.02,2.277,2.276,2.277h6.526c1.257,0,2.276-1.021,2.276-2.277V321.197z"/>
	<path fill="#294270" d="M249.302,333.947c0-1.257-1.02-2.276-2.276-2.276H240.5c-1.257,0-2.276,1.02-2.276,2.276v6.525
		c0,1.257,1.02,2.277,2.276,2.277h6.526c1.257,0,2.276-1.021,2.276-2.277V333.947z"/>
	<path fill="#294270" d="M236.276,333.947c0-1.257-1.02-2.276-2.276-2.276h-6.526c-1.257,0-2.276,1.02-2.276,2.276v6.525
		c0,1.257,1.02,2.277,2.276,2.277H234c1.257,0,2.276-1.021,2.276-2.277V333.947z"/>
	<path fill="#294270" d="M236.276,321.197c0-1.257-1.02-2.276-2.276-2.276h-6.526c-1.257,0-2.276,1.02-2.276,2.276v6.525
		c0,1.257,1.02,2.277,2.276,2.277H234c1.257,0,2.276-1.021,2.276-2.277V321.197z"/>
</g>
<g>
	<path fill="#294270" d="M238.253,367.447c0-1.257-1.02-2.276-2.276-2.276h-6.526c-1.257,0-2.276,1.02-2.276,2.276v6.525
		c0,1.257,1.02,2.277,2.276,2.277h6.526c1.257,0,2.276-1.021,2.276-2.277V367.447z"/>
	<path fill="#294270" d="M251.052,380.197c0-1.257-1.02-2.276-2.276-2.276h-6.526c-1.257,0-2.276,1.02-2.276,2.276v6.525
		c0,1.257,1.02,2.277,2.276,2.277h6.526c1.257,0,2.276-1.021,2.276-2.277V380.197z"/>
	<path fill="#294270" d="M238.026,380.197c0-1.257-1.02-2.276-2.276-2.276h-6.526c-1.257,0-2.276,1.02-2.276,2.276v6.525
		c0,1.257,1.02,2.277,2.276,2.277h6.526c1.257,0,2.276-1.021,2.276-2.277V380.197z"/>
	<path fill="#294270" d="M225.228,367.447c0-1.257-1.02-2.276-2.276-2.276h-6.526c-1.257,0-2.276,1.02-2.276,2.276v6.525
		c0,1.257,1.02,2.277,2.276,2.277h6.526c1.257,0,2.276-1.021,2.276-2.277V367.447z"/>
</g>
<text transform="matrix(1 0 0 1 57.999 450.3027)" fill="#184173" font-family="'Verdana'" font-size="21.2097">== ‘CCRRR’</text>
<path fill="#184173" d="M295.928,496.368c-0.38,0.165-0.723,0.32-1.03,0.466c-0.308,0.145-0.709,0.297-1.207,0.456
	c-0.421,0.131-0.879,0.243-1.372,0.336c-0.494,0.094-1.038,0.14-1.631,0.14c-1.119,0-2.135-0.157-3.05-0.471
	c-0.915-0.314-1.71-0.807-2.387-1.476c-0.663-0.656-1.181-1.49-1.554-2.501c-0.373-1.012-0.559-2.188-0.559-3.526
	c0-1.271,0.18-2.406,0.539-3.407s0.877-1.848,1.553-2.538c0.656-0.669,1.448-1.181,2.377-1.532c0.929-0.353,1.959-0.528,3.091-0.528
	c0.829,0,1.655,0.101,2.48,0.301c0.825,0.2,1.742,0.552,2.75,1.056v2.434h-0.155c-0.849-0.711-1.691-1.229-2.527-1.553
	c-0.835-0.325-1.729-0.487-2.682-0.487c-0.781,0-1.483,0.126-2.108,0.378s-1.182,0.645-1.672,1.176
	c-0.477,0.518-0.848,1.172-1.113,1.963c-0.266,0.79-0.399,1.703-0.399,2.739c0,1.084,0.147,2.016,0.44,2.796
	s0.671,1.415,1.134,1.905c0.483,0.511,1.048,0.89,1.693,1.134c0.646,0.245,1.327,0.368,2.045,0.368c0.987,0,1.912-0.169,2.775-0.508
	c0.863-0.338,1.671-0.846,2.423-1.522h0.145V496.368z"/>
<g>
	<path fill="#294270" d="M381.486,523.378c0,1.256,1.02,2.275,2.276,2.275h6.526c1.256,0,2.275-1.02,2.275-2.275v-6.525
		c0-1.258-1.02-2.277-2.275-2.277h-6.526c-1.257,0-2.276,1.02-2.276,2.277V523.378z"/>
	<path fill="#294270" d="M395.236,536.546c0,1.256,1.02,2.275,2.276,2.275h6.526c1.256,0,2.275-1.02,2.275-2.275v-6.525
		c0-1.258-1.02-2.277-2.275-2.277h-6.526c-1.257,0-2.276,1.02-2.276,2.277V536.546z"/>
	<path fill="#294270" d="M381.486,536.546c0,1.256,1.02,2.275,2.276,2.275h6.526c1.256,0,2.275-1.02,2.275-2.275v-6.525
		c0-1.258-1.02-2.277-2.275-2.277h-6.526c-1.257,0-2.276,1.02-2.276,2.277V536.546z"/>
	<path fill="#294270" d="M381.486,550.046c0,1.256,1.02,2.275,2.276,2.275h6.526c1.256,0,2.275-1.02,2.275-2.275v-6.525
		c0-1.258-1.02-2.277-2.275-2.277h-6.526c-1.257,0-2.276,1.02-2.276,2.277V550.046z"/>
</g>
<g>
	<path fill="#294270" d="M395.589,577.72c0,1.256,1.02,2.275,2.276,2.275h6.526c1.256,0,2.275-1.02,2.275-2.275v-6.525
		c0-1.258-1.02-2.277-2.275-2.277h-6.526c-1.257,0-2.276,1.02-2.276,2.277V577.72z"/>
	<path fill="#294270" d="M409.339,590.888c0,1.256,1.02,2.275,2.276,2.275h6.526c1.256,0,2.275-1.02,2.275-2.275v-6.525
		c0-1.258-1.02-2.277-2.275-2.277h-6.526c-1.257,0-2.276,1.02-2.276,2.277V590.888z"/>
	<path fill="#294270" d="M395.589,590.888c0,1.256,1.02,2.275,2.276,2.275h6.526c1.256,0,2.275-1.02,2.275-2.275v-6.525
		c0-1.258-1.02-2.277-2.275-2.277h-6.526c-1.257,0-2.276,1.02-2.276,2.277V590.888z"/>
	<path fill="#294270" d="M395.589,604.388c0,1.256,1.02,2.275,2.276,2.275h6.526c1.256,0,2.275-1.02,2.275-2.275v-6.525
		c0-1.258-1.02-2.277-2.275-2.277h-6.526c-1.257,0-2.276,1.02-2.276,2.277V604.388z"/>
</g>
<path fill="#184173" d="M295.928,543.55c-0.38,0.165-0.723,0.32-1.03,0.466c-0.308,0.145-0.709,0.297-1.207,0.456
	c-0.421,0.131-0.879,0.243-1.372,0.336c-0.494,0.094-1.038,0.14-1.631,0.14c-1.119,0-2.135-0.157-3.05-0.471
	c-0.915-0.314-1.71-0.807-2.387-1.476c-0.663-0.656-1.181-1.49-1.554-2.501c-0.373-1.012-0.559-2.188-0.559-3.526
	c0-1.271,0.18-2.406,0.539-3.407s0.877-1.848,1.553-2.538c0.656-0.669,1.448-1.181,2.377-1.532c0.929-0.353,1.959-0.528,3.091-0.528
	c0.829,0,1.655,0.101,2.48,0.301c0.825,0.2,1.742,0.552,2.75,1.056v2.434h-0.155c-0.849-0.711-1.691-1.229-2.527-1.553
	c-0.835-0.325-1.729-0.487-2.682-0.487c-0.781,0-1.483,0.126-2.108,0.378s-1.182,0.645-1.672,1.176
	c-0.477,0.518-0.848,1.172-1.113,1.963c-0.266,0.79-0.399,1.703-0.399,2.739c0,1.084,0.147,2.016,0.44,2.796
	s0.671,1.415,1.134,1.905c0.483,0.511,1.048,0.89,1.693,1.134c0.646,0.245,1.327,0.368,2.045,0.368c0.987,0,1.912-0.169,2.775-0.508
	c0.863-0.338,1.671-0.846,2.423-1.522h0.145V543.55z"/>
<path fill="#184173" d="M295.928,594.862h-2.662l-5.157-6.131h-2.89v6.131h-2.05v-15.421h4.318c0.932,0,1.709,0.061,2.331,0.182
	c0.621,0.121,1.181,0.337,1.678,0.647c0.559,0.352,0.996,0.796,1.31,1.33c0.314,0.535,0.471,1.214,0.471,2.035
	c0,1.112-0.28,2.042-0.839,2.791c-0.56,0.75-1.329,1.313-2.31,1.693L295.928,594.862z M291.133,583.781
	c0-0.442-0.078-0.834-0.233-1.176s-0.413-0.63-0.771-0.864c-0.297-0.2-0.649-0.341-1.056-0.42c-0.408-0.079-0.888-0.119-1.44-0.119
	h-2.413v5.82h2.071c0.649,0,1.215-0.057,1.699-0.171c0.483-0.114,0.894-0.326,1.232-0.637c0.311-0.29,0.54-0.623,0.688-0.999
	C291.059,584.839,291.133,584.361,291.133,583.781z"/>
<g>
	<path fill="#294270" d="M409.591,627.919c0,1.256,1.02,2.275,2.276,2.275h6.526c1.256,0,2.275-1.02,2.275-2.275v-6.525
		c0-1.258-1.02-2.277-2.275-2.277h-6.526c-1.257,0-2.276,1.02-2.276,2.277V627.919z"/>
	<path fill="#294270" d="M423.341,641.087c0,1.256,1.02,2.275,2.276,2.275h6.526c1.256,0,2.275-1.02,2.275-2.275v-6.525
		c0-1.258-1.02-2.277-2.275-2.277h-6.526c-1.257,0-2.276,1.02-2.276,2.277V641.087z"/>
	<path fill="#294270" d="M409.591,641.087c0,1.256,1.02,2.275,2.276,2.275h6.526c1.256,0,2.275-1.02,2.275-2.275v-6.525
		c0-1.258-1.02-2.277-2.275-2.277h-6.526c-1.257,0-2.276,1.02-2.276,2.277V641.087z"/>
	<path fill="#294270" d="M409.591,654.587c0,1.256,1.02,2.275,2.276,2.275h6.526c1.256,0,2.275-1.02,2.275-2.275v-6.525
		c0-1.258-1.02-2.277-2.275-2.277h-6.526c-1.257,0-2.276,1.02-2.276,2.277V654.587z"/>
</g>
<path fill="#184173" d="M295.928,645.062h-2.662l-5.157-6.131h-2.89v6.131h-2.05v-15.421h4.318c0.932,0,1.709,0.061,2.331,0.182
	c0.621,0.121,1.181,0.337,1.678,0.647c0.559,0.352,0.996,0.796,1.31,1.33c0.314,0.535,0.471,1.214,0.471,2.035
	c0,1.112-0.28,2.042-0.839,2.791c-0.56,0.75-1.329,1.313-2.31,1.693L295.928,645.062z M291.133,633.98
	c0-0.442-0.078-0.834-0.233-1.176s-0.413-0.63-0.771-0.864c-0.297-0.2-0.649-0.341-1.056-0.42c-0.408-0.079-0.888-0.119-1.44-0.119
	h-2.413v5.82h2.071c0.649,0,1.215-0.057,1.699-0.171c0.483-0.114,0.894-0.326,1.232-0.637c0.311-0.29,0.54-0.623,0.688-0.999
	C291.059,635.038,291.133,634.561,291.133,633.98z"/>
<g>
	<path fill="#294270" d="M423.389,680.919c0,1.256,1.02,2.275,2.276,2.275h6.526c1.256,0,2.275-1.02,2.275-2.275v-6.525
		c0-1.258-1.02-2.277-2.275-2.277h-6.526c-1.257,0-2.276,1.02-2.276,2.277V680.919z"/>
	<path fill="#294270" d="M437.139,694.087c0,1.256,1.02,2.275,2.276,2.275h6.526c1.256,0,2.275-1.02,2.275-2.275v-6.525
		c0-1.258-1.02-2.277-2.275-2.277h-6.526c-1.257,0-2.276,1.02-2.276,2.277V694.087z"/>
	<path fill="#294270" d="M423.389,694.087c0,1.256,1.02,2.275,2.276,2.275h6.526c1.256,0,2.275-1.02,2.275-2.275v-6.525
		c0-1.258-1.02-2.277-2.275-2.277h-6.526c-1.257,0-2.276,1.02-2.276,2.277V694.087z"/>
	<path fill="#294270" d="M423.389,707.587c0,1.256,1.02,2.275,2.276,2.275h6.526c1.256,0,2.275-1.02,2.275-2.275v-6.525
		c0-1.258-1.02-2.277-2.275-2.277h-6.526c-1.257,0-2.276,1.02-2.276,2.277V707.587z"/>
</g>
<g>
	<path fill="#294270" d="M423.99,788.586c0,1.256,1.02,2.275,2.276,2.275h6.526c1.256,0,2.275-1.02,2.275-2.275v-6.525
		c0-1.258-1.02-2.277-2.275-2.277h-6.526c-1.257,0-2.276,1.02-2.276,2.277V788.586z"/>
	<path fill="#294270" d="M437.74,801.754c0,1.256,1.02,2.275,2.276,2.275h6.526c1.256,0,2.275-1.02,2.275-2.275v-6.525
		c0-1.258-1.02-2.277-2.275-2.277h-6.526c-1.257,0-2.276,1.02-2.276,2.277V801.754z"/>
	<path fill="#294270" d="M423.99,801.754c0,1.256,1.02,2.275,2.276,2.275h6.526c1.256,0,2.275-1.02,2.275-2.275v-6.525
		c0-1.258-1.02-2.277-2.275-2.277h-6.526c-1.257,0-2.276,1.02-2.276,2.277V801.754z"/>
	<path fill="#294270" d="M423.99,815.254c0,1.256,1.02,2.275,2.276,2.275h6.526c1.256,0,2.275-1.02,2.275-2.275v-6.525
		c0-1.258-1.02-2.277-2.275-2.277h-6.526c-1.257,0-2.276,1.02-2.276,2.277V815.254z"/>
</g>
<path fill="#184173" d="M295.928,698.062h-2.662l-5.157-6.131h-2.89v6.131h-2.05v-15.421h4.318c0.932,0,1.709,0.061,2.331,0.182
	c0.621,0.121,1.181,0.337,1.678,0.647c0.559,0.352,0.996,0.796,1.31,1.33c0.314,0.535,0.471,1.214,0.471,2.035
	c0,1.112-0.28,2.042-0.839,2.791c-0.56,0.75-1.329,1.313-2.31,1.693L295.928,698.062z M291.133,686.98
	c0-0.442-0.078-0.834-0.233-1.176s-0.413-0.63-0.771-0.864c-0.297-0.2-0.649-0.341-1.056-0.42c-0.408-0.079-0.888-0.119-1.44-0.119
	h-2.413v5.82h2.071c0.649,0,1.215-0.057,1.699-0.171c0.483-0.114,0.894-0.326,1.232-0.637c0.311-0.29,0.54-0.623,0.688-0.999
	C291.059,688.038,291.133,687.561,291.133,686.98z"/>
<path fill-rule="evenodd" clip-rule="evenodd" fill="#7FC2EB" d="M341.283,495.581l-8.896,5.421l-3.251-10.071l3.957,1.515
	c0.622-2.537,0.092-5.323-1.682-7.507c-3.006-3.705-8.447-4.271-12.151-1.264c-1.584,1.285-2.597,3.015-2.999,4.863
	c0.314-2.905,1.732-5.691,4.182-7.679c4.923-3.994,12.153-3.241,16.15,1.683c2.799,3.451,3.266,8.042,1.594,11.854L341.283,495.581z
	"/>
<path fill-rule="evenodd" clip-rule="evenodd" fill="#7FC2EB" d="M341.283,542.079l-8.896,5.421l-3.251-10.071l3.957,1.515
	c0.622-2.537,0.092-5.323-1.682-7.507c-3.006-3.705-8.447-4.271-12.151-1.264c-1.584,1.285-2.597,3.015-2.999,4.863
	c0.314-2.905,1.732-5.691,4.182-7.679c4.923-3.994,12.153-3.241,16.15,1.683c2.799,3.451,3.266,8.042,1.594,11.854L341.283,542.079z
	"/>
<polygon fill-rule="evenodd" clip-rule="evenodd" fill="#7FC2EB" points="317.95,589.062 328.52,589.062 328.52,593 
	339.594,585.124 328.52,577.245 328.52,581.185 317.95,581.185 "/>
<polygon fill-rule="evenodd" clip-rule="evenodd" fill="#7FC2EB" points="317.95,639.062 328.52,639.062 328.52,643 
	339.594,635.124 328.52,627.245 328.52,631.185 317.95,631.185 "/>
<polygon fill-rule="evenodd" clip-rule="evenodd" fill="#7FC2EB" points="317.95,691.562 328.52,691.562 328.52,695.5 
	339.594,687.624 328.52,679.745 328.52,683.685 317.95,683.685 "/>
<line fill="none" stroke="#231F20" stroke-miterlimit="10" stroke-dasharray="4,8" x1="366.098" y1="402" x2="366.098" y2="761.703"/>
<line fill="none" stroke="#231F20" stroke-miterlimit="10" stroke-dasharray="4,8" x1="380.098" y1="402" x2="380.098" y2="761.703"/>
<line fill="none" stroke="#231F20" stroke-miterlimit="10" stroke-dasharray="4,8" x1="394.098" y1="402" x2="394.098" y2="761.703"/>
<line fill="none" stroke="#231F20" stroke-miterlimit="10" stroke-dasharray="4,8" x1="408.098" y1="402" x2="408.098" y2="761.703"/>
<line fill="none" stroke="#231F20" stroke-miterlimit="10" stroke-dasharray="4,8" x1="422.098" y1="402" x2="422.098" y2="761.703"/>
<line fill="none" stroke="#231F20" stroke-miterlimit="10" stroke-dasharray="4,8" x1="436.098" y1="402" x2="436.098" y2="761.703"/>
<line fill="none" stroke="#231F20" stroke-miterlimit="10" stroke-dasharray="4,8" x1="450.098" y1="402" x2="450.098" y2="761.703"/>
<line fill="none" stroke="#231F20" stroke-miterlimit="10" stroke-dasharray="4,8" x1="464.098" y1="402" x2="464.098" y2="761.703"/>
<rect id="_x3C_Slice_x3E_" fill="none" width="686" height="847"/>
</svg>
