<?xml version="1.0" encoding="UTF-8"?>
<!DOCTYPE svg PUBLIC "-//W3C//DTD SVG 1.1//EN" "http://www.w3.org/Graphics/SVG/1.1/DTD/svg11.dtd">
<svg version="1.1" xmlns="http://www.w3.org/2000/svg" xmlns:xlink="http://www.w3.org/1999/xlink" x="0px" y="0px" width="1200" height="750" viewBox="0, 0, 1200, 750">
  <g id="Background">
    <rect x="0" y="0" width="1200" height="750" fill="#000000" fill-opacity="0"/>
  </g>
  <g id="Layer 1">
    <g>
      <path d="M120.5,110.5 L180.5,110.5 C186.023,110.5 190.5,114.977 190.5,120.5 L190.5,180.5 C190.5,186.023 186.023,190.5 180.5,190.5 L120.5,190.5 C114.977,190.5 110.5,186.023 110.5,180.5 L110.5,120.5 C110.5,114.977 114.977,110.5 120.5,110.5 z" fill="#8FC7ED"/>
      <path d="M120.5,110.5 L180.5,110.5 C186.023,110.5 190.5,114.977 190.5,120.5 L190.5,180.5 C190.5,186.023 186.023,190.5 180.5,190.5 L120.5,190.5 C114.977,190.5 110.5,186.023 110.5,180.5 L110.5,120.5 C110.5,114.977 114.977,110.5 120.5,110.5 z" fill-opacity="0" stroke="#294270" stroke-width="4"/>
    </g>
    <g>
      <path d="M220.5,110.5 L280.5,110.5 C286.023,110.5 290.5,114.977 290.5,120.5 L290.5,180.5 C290.5,186.023 286.023,190.5 280.5,190.5 L220.5,190.5 C214.977,190.5 210.5,186.023 210.5,180.5 L210.5,120.5 C210.5,114.977 214.977,110.5 220.5,110.5 z" fill="#8FC7ED"/>
      <path d="M220.5,110.5 L280.5,110.5 C286.023,110.5 290.5,114.977 290.5,120.5 L290.5,180.5 C290.5,186.023 286.023,190.5 280.5,190.5 L220.5,190.5 C214.977,190.5 210.5,186.023 210.5,180.5 L210.5,120.5 C210.5,114.977 214.977,110.5 220.5,110.5 z" fill-opacity="0" stroke="#294270" stroke-width="4"/>
    </g>
    <text transform="matrix(1, 0, 0, 1, 250, 160)">
      <tspan x="-12.797" y="6" font-family="Verdana-Bold" font-size="36" fill="#294270">2</tspan>
    </text>
    <g>
      <path d="M320.5,110.5 L380.5,110.5 C386.023,110.5 390.5,114.977 390.5,120.5 L390.5,180.5 C390.5,186.023 386.023,190.5 380.5,190.5 L320.5,190.5 C314.977,190.5 310.5,186.023 310.5,180.5 L310.5,120.5 C310.5,114.977 314.977,110.5 320.5,110.5 z" fill="#8FC7ED"/>
      <path d="M320.5,110.5 L380.5,110.5 C386.023,110.5 390.5,114.977 390.5,120.5 L390.5,180.5 C390.5,186.023 386.023,190.5 380.5,190.5 L320.5,190.5 C314.977,190.5 310.5,186.023 310.5,180.5 L310.5,120.5 C310.5,114.977 314.977,110.5 320.5,110.5 z" fill-opacity="0" stroke="#294270" stroke-width="4"/>
    </g>
    <text transform="matrix(1, 0, 0, 1, 350, 160)">
      <tspan x="-12.797" y="6" font-family="Verdana-Bold" font-size="36" fill="#294270">3</tspan>
    </text>
    <g>
      <path d="M420.5,110.5 L480.5,110.5 C486.023,110.5 490.5,114.977 490.5,120.5 L490.5,180.5 C490.5,186.023 486.023,190.5 480.5,190.5 L420.5,190.5 C414.977,190.5 410.5,186.023 410.5,180.5 L410.5,120.5 C410.5,114.977 414.977,110.5 420.5,110.5 z" fill="#8FC7ED"/>
      <path d="M420.5,110.5 L480.5,110.5 C486.023,110.5 490.5,114.977 490.5,120.5 L490.5,180.5 C490.5,186.023 486.023,190.5 480.5,190.5 L420.5,190.5 C414.977,190.5 410.5,186.023 410.5,180.5 L410.5,120.5 C410.5,114.977 414.977,110.5 420.5,110.5 z" fill-opacity="0" stroke="#294270" stroke-width="4"/>
    </g>
    <text transform="matrix(1, 0, 0, 1, 450, 160)">
      <tspan x="-12.797" y="6" font-family="Verdana-Bold" font-size="36" fill="#294270">4</tspan>
    </text>
    <g>
      <path d="M120.5,210.5 L180.5,210.5 C186.023,210.5 190.5,214.977 190.5,220.5 L190.5,280.5 C190.5,286.023 186.023,290.5 180.5,290.5 L120.5,290.5 C114.977,290.5 110.5,286.023 110.5,280.5 L110.5,220.5 C110.5,214.977 114.977,210.5 120.5,210.5 z" fill="#8FC7ED"/>
      <path d="M120.5,210.5 L180.5,210.5 C186.023,210.5 190.5,214.977 190.5,220.5 L190.5,280.5 C190.5,286.023 186.023,290.5 180.5,290.5 L120.5,290.5 C114.977,290.5 110.5,286.023 110.5,280.5 L110.5,220.5 C110.5,214.977 114.977,210.5 120.5,210.5 z" fill-opacity="0" stroke="#294270" stroke-width="4"/>
    </g>
    <text transform="matrix(1, 0, 0, 1, 150, 260)">
      <tspan x="-12.797" y="6" font-family="Verdana-Bold" font-size="36" fill="#294270">5</tspan>
    </text>
    <g>
      <path d="M220.5,210.5 L280.5,210.5 C286.023,210.5 290.5,214.977 290.5,220.5 L290.5,280.5 C290.5,286.023 286.023,290.5 280.5,290.5 L220.5,290.5 C214.977,290.5 210.5,286.023 210.5,280.5 L210.5,220.5 C210.5,214.977 214.977,210.5 220.5,210.5 z" fill="#8FC7ED"/>
      <path d="M220.5,210.5 L280.5,210.5 C286.023,210.5 290.5,214.977 290.5,220.5 L290.5,280.5 C290.5,286.023 286.023,290.5 280.5,290.5 L220.5,290.5 C214.977,290.5 210.5,286.023 210.5,280.5 L210.5,220.5 C210.5,214.977 214.977,210.5 220.5,210.5 z" fill-opacity="0" stroke="#294270" stroke-width="4"/>
    </g>
    <text transform="matrix(1, 0, 0, 1, 250, 274.5)">
      <tspan x="-12.797" y="-8.5" font-family="Verdana-Bold" font-size="36" fill="#294270">6</tspan>
    </text>
    <g>
      <path d="M320.5,210.5 L380.5,210.5 C386.023,210.5 390.5,214.977 390.5,220.5 L390.5,280.5 C390.5,286.023 386.023,290.5 380.5,290.5 L320.5,290.5 C314.977,290.5 310.5,286.023 310.5,280.5 L310.5,220.5 C310.5,214.977 314.977,210.5 320.5,210.5 z" fill="#8FC7ED"/>
      <path d="M320.5,210.5 L380.5,210.5 C386.023,210.5 390.5,214.977 390.5,220.5 L390.5,280.5 C390.5,286.023 386.023,290.5 380.5,290.5 L320.5,290.5 C314.977,290.5 310.5,286.023 310.5,280.5 L310.5,220.5 C310.5,214.977 314.977,210.5 320.5,210.5 z" fill-opacity="0" stroke="#294270" stroke-width="4"/>
    </g>
    <text transform="matrix(1, 0, 0, 1, 350, 260)">
      <tspan x="-12.797" y="6" font-family="Verdana-Bold" font-size="36" fill="#294270">7</tspan>
    </text>
    <g>
      <path d="M420.5,210.5 L480.5,210.5 C486.023,210.5 490.5,214.977 490.5,220.5 L490.5,280.5 C490.5,286.023 486.023,290.5 480.5,290.5 L420.5,290.5 C414.977,290.5 410.5,286.023 410.5,280.5 L410.5,220.5 C410.5,214.977 414.977,210.5 420.5,210.5 z" fill="#8FC7ED"/>
      <path d="M420.5,210.5 L480.5,210.5 C486.023,210.5 490.5,214.977 490.5,220.5 L490.5,280.5 C490.5,286.023 486.023,290.5 480.5,290.5 L420.5,290.5 C414.977,290.5 410.5,286.023 410.5,280.5 L410.5,220.5 C410.5,214.977 414.977,210.5 420.5,210.5 z" fill-opacity="0" stroke="#294270" stroke-width="4"/>
    </g>
    <text transform="matrix(1, 0, 0, 1, 450, 260)">
      <tspan x="-12.797" y="6" font-family="Verdana-Bold" font-size="36" fill="#294270">8</tspan>
    </text>
    <g>
      <path d="M120.5,310.5 L180.5,310.5 C186.023,310.5 190.5,314.977 190.5,320.5 L190.5,380.5 C190.5,386.023 186.023,390.5 180.5,390.5 L120.5,390.5 C114.977,390.5 110.5,386.023 110.5,380.5 L110.5,320.5 C110.5,314.977 114.977,310.5 120.5,310.5 z" fill="#8FC7ED"/>
      <path d="M120.5,310.5 L180.5,310.5 C186.023,310.5 190.5,314.977 190.5,320.5 L190.5,380.5 C190.5,386.023 186.023,390.5 180.5,390.5 L120.5,390.5 C114.977,390.5 110.5,386.023 110.5,380.5 L110.5,320.5 C110.5,314.977 114.977,310.5 120.5,310.5 z" fill-opacity="0" stroke="#294270" stroke-width="4"/>
    </g>
    <text transform="matrix(1, 0, 0, 1, 150, 360)">
      <tspan x="-12.797" y="6" font-family="Verdana-Bold" font-size="36" fill="#294270">9</tspan>
    </text>
    <g>
      <path d="M220.5,310.5 L280.5,310.5 C286.023,310.5 290.5,314.977 290.5,320.5 L290.5,380.5 C290.5,386.023 286.023,390.5 280.5,390.5 L220.5,390.5 C214.977,390.5 210.5,386.023 210.5,380.5 L210.5,320.5 C210.5,314.977 214.977,310.5 220.5,310.5 z" fill="#8FC7ED"/>
      <path d="M220.5,310.5 L280.5,310.5 C286.023,310.5 290.5,314.977 290.5,320.5 L290.5,380.5 C290.5,386.023 286.023,390.5 280.5,390.5 L220.5,390.5 C214.977,390.5 210.5,386.023 210.5,380.5 L210.5,320.5 C210.5,314.977 214.977,310.5 220.5,310.5 z" fill-opacity="0" stroke="#294270" stroke-width="4"/>
    </g>
    <text transform="matrix(1, 0, 0, 1, 250, 355)">
      <tspan x="-25.594" y="11" font-family="Verdana-Bold" font-size="36" fill="#294270">10</tspan>
    </text>
    <g>
      <path d="M320.5,310.5 L380.5,310.5 C386.023,310.5 390.5,314.977 390.5,320.5 L390.5,380.5 C390.5,386.023 386.023,390.5 380.5,390.5 L320.5,390.5 C314.977,390.5 310.5,386.023 310.5,380.5 L310.5,320.5 C310.5,314.977 314.977,310.5 320.5,310.5 z" fill="#FABA00"/>
      <path d="M320.5,310.5 L380.5,310.5 C386.023,310.5 390.5,314.977 390.5,320.5 L390.5,380.5 C390.5,386.023 386.023,390.5 380.5,390.5 L320.5,390.5 C314.977,390.5 310.5,386.023 310.5,380.5 L310.5,320.5 C310.5,314.977 314.977,310.5 320.5,310.5 z" fill-opacity="0" stroke="#294270" stroke-width="4"/>
    </g>
    <text transform="matrix(1, 0, 0, 1, 350, 355)">
      <tspan x="-25.594" y="11" font-family="Verdana-Bold" font-size="36" fill="#294270">12</tspan>
    </text>
    <g>
      <path d="M420.5,310.5 L480.5,310.5 C486.023,310.5 490.5,314.977 490.5,320.5 L490.5,380.5 C490.5,386.023 486.023,390.5 480.5,390.5 L420.5,390.5 C414.977,390.5 410.5,386.023 410.5,380.5 L410.5,320.5 C410.5,314.977 414.977,310.5 420.5,310.5 z" fill="#FABA00"/>
      <path d="M420.5,310.5 L480.5,310.5 C486.023,310.5 490.5,314.977 490.5,320.5 L490.5,380.5 C490.5,386.023 486.023,390.5 480.5,390.5 L420.5,390.5 C414.977,390.5 410.5,386.023 410.5,380.5 L410.5,320.5 C410.5,314.977 414.977,310.5 420.5,310.5 z" fill-opacity="0" stroke="#294270" stroke-width="4"/>
    </g>
    <text transform="matrix(1, 0, 0, 1, 450, 355)">
      <tspan x="-25.594" y="11" font-family="Verdana-Bold" font-size="36" fill="#294270">15</tspan>
    </text>
    <g>
      <path d="M120.5,410.5 L180.5,410.5 C186.023,410.5 190.5,414.977 190.5,420.5 L190.5,480.5 C190.5,486.023 186.023,490.5 180.5,490.5 L120.5,490.5 C114.977,490.5 110.5,486.023 110.5,480.5 L110.5,420.5 C110.5,414.977 114.977,410.5 120.5,410.5 z" fill="#8FC7ED"/>
      <path d="M120.5,410.5 L180.5,410.5 C186.023,410.5 190.5,414.977 190.5,420.5 L190.5,480.5 C190.5,486.023 186.023,490.5 180.5,490.5 L120.5,490.5 C114.977,490.5 110.5,486.023 110.5,480.5 L110.5,420.5 C110.5,414.977 114.977,410.5 120.5,410.5 z" fill-opacity="0" stroke="#294270" stroke-width="4"/>
    </g>
    <text transform="matrix(1, 0, 0, 1, 150, 455)">
      <tspan x="-25.594" y="11" font-family="Verdana-Bold" font-size="36" fill="#294270">13</tspan>
    </text>
    <g>
      <path d="M220.5,410.5 L280.5,410.5 C286.023,410.5 290.5,414.977 290.5,420.5 L290.5,480.5 C290.5,486.023 286.023,490.5 280.5,490.5 L220.5,490.5 C214.977,490.5 210.5,486.023 210.5,480.5 L210.5,420.5 C210.5,414.977 214.977,410.5 220.5,410.5 z" fill="#8FC7ED"/>
      <path d="M220.5,410.5 L280.5,410.5 C286.023,410.5 290.5,414.977 290.5,420.5 L290.5,480.5 C290.5,486.023 286.023,490.5 280.5,490.5 L220.5,490.5 C214.977,490.5 210.5,486.023 210.5,480.5 L210.5,420.5 C210.5,414.977 214.977,410.5 220.5,410.5 z" fill-opacity="0" stroke="#294270" stroke-width="4"/>
    </g>
    <text transform="matrix(1, 0, 0, 1, 250, 455)">
      <tspan x="-25.594" y="11" font-family="Verdana-Bold" font-size="36" fill="#294270">14</tspan>
    </text>
    <g>
      <path d="M320.5,410.5 L380.5,410.5 C386.023,410.5 390.5,414.977 390.5,420.5 L390.5,480.5 C390.5,486.023 386.023,490.5 380.5,490.5 L320.5,490.5 C314.977,490.5 310.5,486.023 310.5,480.5 L310.5,420.5 C310.5,414.977 314.977,410.5 320.5,410.5 z" fill="#FABA00"/>
      <path d="M320.5,410.5 L380.5,410.5 C386.023,410.5 390.5,414.977 390.5,420.5 L390.5,480.5 C390.5,486.023 386.023,490.5 380.5,490.5 L320.5,490.5 C314.977,490.5 310.5,486.023 310.5,480.5 L310.5,420.5 C310.5,414.977 314.977,410.5 320.5,410.5 z" fill-opacity="0" stroke="#294270" stroke-width="4"/>
    </g>
    <text transform="matrix(1, 0, 0, 1, 350, 455)">
      <tspan x="-25.594" y="11" font-family="Verdana-Bold" font-size="36" fill="#294270">11</tspan>
    </text>
    <path d="M110.5,100.5 L490.5,100.5 C496.023,100.5 500.5,104.977 500.5,110.5 L500.5,490.5 C500.5,496.023 496.023,500.5 490.5,500.5 L110.5,500.5 C104.977,500.5 100.5,496.023 100.5,490.5 L100.5,110.5 C100.5,104.977 104.977,100.5 110.5,100.5 z" fill-opacity="0" stroke="#294270" stroke-width="4"/>
    <path d="M200.5,100.5 L200.5,500.5" fill-opacity="0" stroke="#294270" stroke-width="0.5"/>
    <path d="M300.5,100.5 L300.5,500.5" fill-opacity="0" stroke="#294270" stroke-width="0.5"/>
    <path d="M400.5,100.5 L400.5,500.5" fill-opacity="0" stroke="#294270" stroke-width="0.5"/>
    <path d="M100.5,400.5 L500.5,400.5" fill-opacity="0" stroke="#294270" stroke-width="0.5"/>
    <path d="M500.5,300.5 L100.5,300.5" fill-opacity="0" stroke="#294270" stroke-width="0.5"/>
    <path d="M100.5,200.5 L500.5,200.5" fill-opacity="0" stroke="#294270" stroke-width="0.5"/>
    <g>
      <text transform="matrix(1, 0, 0, 1, 150, 160)">
        <tspan x="-12.797" y="6" font-family="Verdana-Bold" font-size="36" fill="#000000">1</tspan>
      </text>
      <path d="M159.352,166 L141.879,166 L141.879,161.43 L147.398,161.43 L147.398,147.596 L141.879,147.596 L141.879,143.324 Q143.145,143.324 144.305,143.175 Q145.465,143.025 146.238,142.656 Q147.152,142.217 147.609,141.514 Q148.066,140.811 148.137,139.756 L153.955,139.756 L153.955,161.43 L159.352,161.43 z" fill="#294270"/>
    </g>
    <text transform="matrix(1, 0, 0, 1, 305, 84.5)">
      <tspan x="-201.243" y="-8.5" font-family="Verdana-Bold" font-size="36" fill="#294270">Example start order</tspan>
    </text>
    <text transform="matrix(1, 0, 0, 1, 305.92, 608.5)">
      <tspan x="-165.92" y="-52.5" font-family="Verdana-Bold" font-size="36" fill="#294270">[[1, 2, 3, 4],</tspan>
      <tspan x="-165.92" y="-8.5" font-family="Verdana-Bold" font-size="36" fill="#294270">[5, 6, 7, 8],</tspan>
      <tspan x="-165.92" y="35.5" font-family="Verdana-Bold" font-size="36" fill="#294270">[9, 10, 12, 15],</tspan>
      <tspan x="-165.92" y="79.5" font-family="Verdana-Bold" font-size="36" fill="#294270">[13, 14, 11, 0]]</tspan>
    </text>
    <g>
      <path d="M720.5,110.5 L780.5,110.5 C786.023,110.5 790.5,114.977 790.5,120.5 L790.5,180.5 C790.5,186.023 786.023,190.5 780.5,190.5 L720.5,190.5 C714.977,190.5 710.5,186.023 710.5,180.5 L710.5,120.5 C710.5,114.977 714.977,110.5 720.5,110.5 z" fill="#8FC7ED"/>
      <path d="M720.5,110.5 L780.5,110.5 C786.023,110.5 790.5,114.977 790.5,120.5 L790.5,180.5 C790.5,186.023 786.023,190.5 780.5,190.5 L720.5,190.5 C714.977,190.5 710.5,186.023 710.5,180.5 L710.5,120.5 C710.5,114.977 714.977,110.5 720.5,110.5 z" fill-opacity="0" stroke="#294270" stroke-width="4"/>
    </g>
    <g>
      <path d="M820.5,110.5 L880.5,110.5 C886.023,110.5 890.5,114.977 890.5,120.5 L890.5,180.5 C890.5,186.023 886.023,190.5 880.5,190.5 L820.5,190.5 C814.977,190.5 810.5,186.023 810.5,180.5 L810.5,120.5 C810.5,114.977 814.977,110.5 820.5,110.5 z" fill="#8FC7ED"/>
      <path d="M820.5,110.5 L880.5,110.5 C886.023,110.5 890.5,114.977 890.5,120.5 L890.5,180.5 C890.5,186.023 886.023,190.5 880.5,190.5 L820.5,190.5 C814.977,190.5 810.5,186.023 810.5,180.5 L810.5,120.5 C810.5,114.977 814.977,110.5 820.5,110.5 z" fill-opacity="0" stroke="#294270" stroke-width="4"/>
    </g>
    <text transform="matrix(1, 0, 0, 1, 850, 160)">
      <tspan x="-12.797" y="6" font-family="Verdana-Bold" font-size="36" fill="#294270">2</tspan>
    </text>
    <g>
      <path d="M920.5,110.5 L980.5,110.5 C986.023,110.5 990.5,114.977 990.5,120.5 L990.5,180.5 C990.5,186.023 986.023,190.5 980.5,190.5 L920.5,190.5 C914.977,190.5 910.5,186.023 910.5,180.5 L910.5,120.5 C910.5,114.977 914.977,110.5 920.5,110.5 z" fill="#8FC7ED"/>
      <path d="M920.5,110.5 L980.5,110.5 C986.023,110.5 990.5,114.977 990.5,120.5 L990.5,180.5 C990.5,186.023 986.023,190.5 980.5,190.5 L920.5,190.5 C914.977,190.5 910.5,186.023 910.5,180.5 L910.5,120.5 C910.5,114.977 914.977,110.5 920.5,110.5 z" fill-opacity="0" stroke="#294270" stroke-width="4"/>
    </g>
    <text transform="matrix(1, 0, 0, 1, 950, 160)">
      <tspan x="-12.797" y="6" font-family="Verdana-Bold" font-size="36" fill="#294270">3</tspan>
    </text>
    <g>
      <path d="M1020.5,110.5 L1080.5,110.5 C1086.023,110.5 1090.5,114.977 1090.5,120.5 L1090.5,180.5 C1090.5,186.023 1086.023,190.5 1080.5,190.5 L1020.5,190.5 C1014.977,190.5 1010.5,186.023 1010.5,180.5 L1010.5,120.5 C1010.5,114.977 1014.977,110.5 1020.5,110.5 z" fill="#8FC7ED"/>
      <path d="M1020.5,110.5 L1080.5,110.5 C1086.023,110.5 1090.5,114.977 1090.5,120.5 L1090.5,180.5 C1090.5,186.023 1086.023,190.5 1080.5,190.5 L1020.5,190.5 C1014.977,190.5 1010.5,186.023 1010.5,180.5 L1010.5,120.5 C1010.5,114.977 1014.977,110.5 1020.5,110.5 z" fill-opacity="0" stroke="#294270" stroke-width="4"/>
    </g>
    <text transform="matrix(1, 0, 0, 1, 1050, 160)">
      <tspan x="-12.797" y="6" font-family="Verdana-Bold" font-size="36" fill="#294270">4</tspan>
    </text>
    <g>
      <path d="M720.5,210.5 L780.5,210.5 C786.023,210.5 790.5,214.977 790.5,220.5 L790.5,280.5 C790.5,286.023 786.023,290.5 780.5,290.5 L720.5,290.5 C714.977,290.5 710.5,286.023 710.5,280.5 L710.5,220.5 C710.5,214.977 714.977,210.5 720.5,210.5 z" fill="#8FC7ED"/>
      <path d="M720.5,210.5 L780.5,210.5 C786.023,210.5 790.5,214.977 790.5,220.5 L790.5,280.5 C790.5,286.023 786.023,290.5 780.5,290.5 L720.5,290.5 C714.977,290.5 710.5,286.023 710.5,280.5 L710.5,220.5 C710.5,214.977 714.977,210.5 720.5,210.5 z" fill-opacity="0" stroke="#294270" stroke-width="4"/>
    </g>
    <text transform="matrix(1, 0, 0, 1, 750, 260)">
      <tspan x="-12.797" y="6" font-family="Verdana-Bold" font-size="36" fill="#294270">5</tspan>
    </text>
    <g>
      <path d="M820.5,210.5 L880.5,210.5 C886.023,210.5 890.5,214.977 890.5,220.5 L890.5,280.5 C890.5,286.023 886.023,290.5 880.5,290.5 L820.5,290.5 C814.977,290.5 810.5,286.023 810.5,280.5 L810.5,220.5 C810.5,214.977 814.977,210.5 820.5,210.5 z" fill="#8FC7ED"/>
      <path d="M820.5,210.5 L880.5,210.5 C886.023,210.5 890.5,214.977 890.5,220.5 L890.5,280.5 C890.5,286.023 886.023,290.5 880.5,290.5 L820.5,290.5 C814.977,290.5 810.5,286.023 810.5,280.5 L810.5,220.5 C810.5,214.977 814.977,210.5 820.5,210.5 z" fill-opacity="0" stroke="#294270" stroke-width="4"/>
    </g>
    <text transform="matrix(1, 0, 0, 1, 850, 260)">
      <tspan x="-12.797" y="6" font-family="Verdana-Bold" font-size="36" fill="#294270">6</tspan>
    </text>
    <g>
      <path d="M920.5,210.5 L980.5,210.5 C986.023,210.5 990.5,214.977 990.5,220.5 L990.5,280.5 C990.5,286.023 986.023,290.5 980.5,290.5 L920.5,290.5 C914.977,290.5 910.5,286.023 910.5,280.5 L910.5,220.5 C910.5,214.977 914.977,210.5 920.5,210.5 z" fill="#8FC7ED"/>
      <path d="M920.5,210.5 L980.5,210.5 C986.023,210.5 990.5,214.977 990.5,220.5 L990.5,280.5 C990.5,286.023 986.023,290.5 980.5,290.5 L920.5,290.5 C914.977,290.5 910.5,286.023 910.5,280.5 L910.5,220.5 C910.5,214.977 914.977,210.5 920.5,210.5 z" fill-opacity="0" stroke="#294270" stroke-width="4"/>
    </g>
    <text transform="matrix(1, 0, 0, 1, 950, 260)">
      <tspan x="-12.797" y="6" font-family="Verdana-Bold" font-size="36" fill="#294270">7</tspan>
    </text>
    <g>
      <path d="M1020.5,210.5 L1080.5,210.5 C1086.023,210.5 1090.5,214.977 1090.5,220.5 L1090.5,280.5 C1090.5,286.023 1086.023,290.5 1080.5,290.5 L1020.5,290.5 C1014.977,290.5 1010.5,286.023 1010.5,280.5 L1010.5,220.5 C1010.5,214.977 1014.977,210.5 1020.5,210.5 z" fill="#8FC7ED"/>
      <path d="M1020.5,210.5 L1080.5,210.5 C1086.023,210.5 1090.5,214.977 1090.5,220.5 L1090.5,280.5 C1090.5,286.023 1086.023,290.5 1080.5,290.5 L1020.5,290.5 C1014.977,290.5 1010.5,286.023 1010.5,280.5 L1010.5,220.5 C1010.5,214.977 1014.977,210.5 1020.5,210.5 z" fill-opacity="0" stroke="#294270" stroke-width="4"/>
    </g>
    <text transform="matrix(1, 0, 0, 1, 1050, 260)">
      <tspan x="-12.797" y="6" font-family="Verdana-Bold" font-size="36" fill="#294270">8</tspan>
    </text>
    <g>
      <path d="M720.5,310.5 L780.5,310.5 C786.023,310.5 790.5,314.977 790.5,320.5 L790.5,380.5 C790.5,386.023 786.023,390.5 780.5,390.5 L720.5,390.5 C714.977,390.5 710.5,386.023 710.5,380.5 L710.5,320.5 C710.5,314.977 714.977,310.5 720.5,310.5 z" fill="#8FC7ED"/>
      <path d="M720.5,310.5 L780.5,310.5 C786.023,310.5 790.5,314.977 790.5,320.5 L790.5,380.5 C790.5,386.023 786.023,390.5 780.5,390.5 L720.5,390.5 C714.977,390.5 710.5,386.023 710.5,380.5 L710.5,320.5 C710.5,314.977 714.977,310.5 720.5,310.5 z" fill-opacity="0" stroke="#294270" stroke-width="4"/>
    </g>
    <text transform="matrix(1, 0, 0, 1, 750, 360)">
      <tspan x="-12.797" y="6" font-family="Verdana-Bold" font-size="36" fill="#294270">9</tspan>
    </text>
    <g>
      <path d="M820.5,310.5 L880.5,310.5 C886.023,310.5 890.5,314.977 890.5,320.5 L890.5,380.5 C890.5,386.023 886.023,390.5 880.5,390.5 L820.5,390.5 C814.977,390.5 810.5,386.023 810.5,380.5 L810.5,320.5 C810.5,314.977 814.977,310.5 820.5,310.5 z" fill="#8FC7ED"/>
      <path d="M820.5,310.5 L880.5,310.5 C886.023,310.5 890.5,314.977 890.5,320.5 L890.5,380.5 C890.5,386.023 886.023,390.5 880.5,390.5 L820.5,390.5 C814.977,390.5 810.5,386.023 810.5,380.5 L810.5,320.5 C810.5,314.977 814.977,310.5 820.5,310.5 z" fill-opacity="0" stroke="#294270" stroke-width="4"/>
    </g>
    <text transform="matrix(1, 0, 0, 1, 850, 355)">
      <tspan x="-25.594" y="11" font-family="Verdana-Bold" font-size="36" fill="#294270">10</tspan>
    </text>
    <g>
      <path d="M920.5,310.5 L980.5,310.5 C986.023,310.5 990.5,314.977 990.5,320.5 L990.5,380.5 C990.5,386.023 986.023,390.5 980.5,390.5 L920.5,390.5 C914.977,390.5 910.5,386.023 910.5,380.5 L910.5,320.5 C910.5,314.977 914.977,310.5 920.5,310.5 z" fill="#8FC7ED"/>
      <path d="M920.5,310.5 L980.5,310.5 C986.023,310.5 990.5,314.977 990.5,320.5 L990.5,380.5 C990.5,386.023 986.023,390.5 980.5,390.5 L920.5,390.5 C914.977,390.5 910.5,386.023 910.5,380.5 L910.5,320.5 C910.5,314.977 914.977,310.5 920.5,310.5 z" fill-opacity="0" stroke="#294270" stroke-width="4"/>
    </g>
    <text transform="matrix(1, 0, 0, 1, 950, 355)">
      <tspan x="-25.594" y="11" font-family="Verdana-Bold" font-size="36" fill="#294270">11</tspan>
    </text>
    <g>
      <path d="M1020.5,310.5 L1080.5,310.5 C1086.023,310.5 1090.5,314.977 1090.5,320.5 L1090.5,380.5 C1090.5,386.023 1086.023,390.5 1080.5,390.5 L1020.5,390.5 C1014.977,390.5 1010.5,386.023 1010.5,380.5 L1010.5,320.5 C1010.5,314.977 1014.977,310.5 1020.5,310.5 z" fill="#8FC7ED"/>
      <path d="M1020.5,310.5 L1080.5,310.5 C1086.023,310.5 1090.5,314.977 1090.5,320.5 L1090.5,380.5 C1090.5,386.023 1086.023,390.5 1080.5,390.5 L1020.5,390.5 C1014.977,390.5 1010.5,386.023 1010.5,380.5 L1010.5,320.5 C1010.5,314.977 1014.977,310.5 1020.5,310.5 z" fill-opacity="0" stroke="#294270" stroke-width="4"/>
    </g>
    <text transform="matrix(1, 0, 0, 1, 1050, 355)">
      <tspan x="-25.594" y="11" font-family="Verdana-Bold" font-size="36" fill="#294270">12</tspan>
    </text>
    <g>
      <path d="M720.5,410.5 L780.5,410.5 C786.023,410.5 790.5,414.977 790.5,420.5 L790.5,480.5 C790.5,486.023 786.023,490.5 780.5,490.5 L720.5,490.5 C714.977,490.5 710.5,486.023 710.5,480.5 L710.5,420.5 C710.5,414.977 714.977,410.5 720.5,410.5 z" fill="#8FC7ED"/>
      <path d="M720.5,410.5 L780.5,410.5 C786.023,410.5 790.5,414.977 790.5,420.5 L790.5,480.5 C790.5,486.023 786.023,490.5 780.5,490.5 L720.5,490.5 C714.977,490.5 710.5,486.023 710.5,480.5 L710.5,420.5 C710.5,414.977 714.977,410.5 720.5,410.5 z" fill-opacity="0" stroke="#294270" stroke-width="4"/>
    </g>
    <text transform="matrix(1, 0, 0, 1, 750, 455)">
      <tspan x="-25.594" y="11" font-family="Verdana-Bold" font-size="36" fill="#294270">13</tspan>
    </text>
    <g>
      <path d="M820.5,410.5 L880.5,410.5 C886.023,410.5 890.5,414.977 890.5,420.5 L890.5,480.5 C890.5,486.023 886.023,490.5 880.5,490.5 L820.5,490.5 C814.977,490.5 810.5,486.023 810.5,480.5 L810.5,420.5 C810.5,414.977 814.977,410.5 820.5,410.5 z" fill="#8FC7ED"/>
      <path d="M820.5,410.5 L880.5,410.5 C886.023,410.5 890.5,414.977 890.5,420.5 L890.5,480.5 C890.5,486.023 886.023,490.5 880.5,490.5 L820.5,490.5 C814.977,490.5 810.5,486.023 810.5,480.5 L810.5,420.5 C810.5,414.977 814.977,410.5 820.5,410.5 z" fill-opacity="0" stroke="#294270" stroke-width="4"/>
    </g>
    <text transform="matrix(1, 0, 0, 1, 850, 455)">
      <tspan x="-25.594" y="11" font-family="Verdana-Bold" font-size="36" fill="#294270">14</tspan>
    </text>
    <g>
      <path d="M920.5,410.5 L980.5,410.5 C986.023,410.5 990.5,414.977 990.5,420.5 L990.5,480.5 C990.5,486.023 986.023,490.5 980.5,490.5 L920.5,490.5 C914.977,490.5 910.5,486.023 910.5,480.5 L910.5,420.5 C910.5,414.977 914.977,410.5 920.5,410.5 z" fill="#8FC7ED"/>
      <path d="M920.5,410.5 L980.5,410.5 C986.023,410.5 990.5,414.977 990.5,420.5 L990.5,480.5 C990.5,486.023 986.023,490.5 980.5,490.5 L920.5,490.5 C914.977,490.5 910.5,486.023 910.5,480.5 L910.5,420.5 C910.5,414.977 914.977,410.5 920.5,410.5 z" fill-opacity="0" stroke="#294270" stroke-width="4"/>
    </g>
    <text transform="matrix(1, 0, 0, 1, 950, 455)">
      <tspan x="-25.594" y="11" font-family="Verdana-Bold" font-size="36" fill="#294270">15</tspan>
    </text>
    <path d="M710.5,100.5 L1090.5,100.5 C1096.023,100.5 1100.5,104.977 1100.5,110.5 L1100.5,490.5 C1100.5,496.023 1096.023,500.5 1090.5,500.5 L710.5,500.5 C704.977,500.5 700.5,496.023 700.5,490.5 L700.5,110.5 C700.5,104.977 704.977,100.5 710.5,100.5 z" fill-opacity="0" stroke="#294270" stroke-width="4"/>
    <path d="M800.5,100.5 L800.5,500.5" fill-opacity="0" stroke="#294270" stroke-width="0.5"/>
    <path d="M900.5,100.5 L900.5,500.5" fill-opacity="0" stroke="#294270" stroke-width="0.5"/>
    <path d="M1000.5,100.5 L1000.5,500.5" fill-opacity="0" stroke="#294270" stroke-width="0.5"/>
    <path d="M700.5,400.5 L1100.5,400.5" fill-opacity="0" stroke="#294270" stroke-width="0.5"/>
    <path d="M1100.5,300.5 L700.5,300.5" fill-opacity="0" stroke="#294270" stroke-width="0.5"/>
    <path d="M700.5,200.5 L1100.5,200.5" fill-opacity="0" stroke="#294270" stroke-width="0.5"/>
    <g>
      <text transform="matrix(1, 0, 0, 1, 750, 160)">
        <tspan x="-12.797" y="6" font-family="Verdana-Bold" font-size="36" fill="#000000">1</tspan>
      </text>
      <path d="M759.352,166 L741.879,166 L741.879,161.43 L747.398,161.43 L747.398,147.596 L741.879,147.596 L741.879,143.324 Q743.145,143.324 744.305,143.175 Q745.465,143.025 746.238,142.656 Q747.152,142.217 747.609,141.514 Q748.066,140.811 748.137,139.756 L753.955,139.756 L753.955,161.43 L759.352,161.43 z" fill="#294270"/>
    </g>
    <text transform="matrix(1, 0, 0, 1, 899.802, 62.5)">
      <tspan x="-109.802" y="13.5" font-family="Verdana-Bold" font-size="36" fill="#294270">Final order</tspan>
    </text>
    <text transform="matrix(1, 0, 0, 1, 905.92, 608.5)">
      <tspan x="-165.92" y="-52.5" font-family="Verdana-Bold" font-size="36" fill="#294270">[[1, 2, 3, 4],</tspan>
      <tspan x="-165.92" y="-8.5" font-family="Verdana-Bold" font-size="36" fill="#294270">[5, 6, 7, 8],</tspan>
      <tspan x="-165.92" y="35.5" font-family="Verdana-Bold" font-size="36" fill="#294270">[9, 10, 11, 12],</tspan>
      <tspan x="-165.92" y="79.5" font-family="Verdana-Bold" font-size="36" fill="#294270">[13, 14, 15, 0]]</tspan>
    </text>
    <text transform="matrix(1, 0, 0, 1, 596.254, 302.5)">
      <tspan x="-76.254" y="13.5" font-family="Verdana-Bold" font-size="36" fill="#294270">"ULDR"</tspan>
    </text>
    <g>
      <path d="M450.5,450.5 L450.5,366.9" fill-opacity="0" stroke="#F0811A" stroke-width="4"/>
      <path d="M455.3,366.9 L450.5,354.1 L445.7,366.9 z" fill="#F0811A" fill-opacity="1" stroke="#F0811A" stroke-width="4" stroke-opacity="1"/>
    </g>
    <g>
      <path d="M450.5,350.5 L366.9,350.5" fill-opacity="0" stroke="#F0811A" stroke-width="4"/>
      <path d="M366.9,345.7 L354.1,350.5 L366.9,355.3 z" fill="#F0811A" fill-opacity="1" stroke="#F0811A" stroke-width="4" stroke-opacity="1"/>
    </g>
    <g>
      <path d="M350.5,350.5 L350.5,434.1" fill-opacity="0" stroke="#F0811A" stroke-width="4"/>
      <path d="M345.7,434.1 L350.5,446.9 L355.3,434.1 z" fill="#F0811A" fill-opacity="1" stroke="#F0811A" stroke-width="4" stroke-opacity="1"/>
    </g>
    <g>
      <path d="M350.5,450.5 L434.1,450.5" fill-opacity="0" stroke="#F0811A" stroke-width="4"/>
      <path d="M434.1,455.3 L446.9,450.5 L434.1,445.7 z" fill="#F0811A" fill-opacity="1" stroke="#F0811A" stroke-width="4" stroke-opacity="1"/>
    </g>
  </g>
  <defs/>
</svg>
