<?xml version="1.0" encoding="UTF-8"?>
<!DOCTYPE svg PUBLIC "-//W3C//DTD SVG 1.1//EN" "http://www.w3.org/Graphics/SVG/1.1/DTD/svg11.dtd">
<svg version="1.1" xmlns="http://www.w3.org/2000/svg" xmlns:xlink="http://www.w3.org/1999/xlink" x="0px" y="0px" width="1100" height="600" viewBox="0, 0, 1100, 600">
  <g id="Background">
    <rect x="0" y="0" width="1100" height="600" fill="#000000" fill-opacity="0"/>
  </g>
  <g id="Layer 1">
    <g>
      <path d="M120.5,110.5 L180.5,110.5 C186.023,110.5 190.5,114.977 190.5,120.5 L190.5,180.5 C190.5,186.023 186.023,190.5 180.5,190.5 L120.5,190.5 C114.977,190.5 110.5,186.023 110.5,180.5 L110.5,120.5 C110.5,114.977 114.977,110.5 120.5,110.5 z" fill="#8FC7ED"/>
      <path d="M120.5,110.5 L180.5,110.5 C186.023,110.5 190.5,114.977 190.5,120.5 L190.5,180.5 C190.5,186.023 186.023,190.5 180.5,190.5 L120.5,190.5 C114.977,190.5 110.5,186.023 110.5,180.5 L110.5,120.5 C110.5,114.977 114.977,110.5 120.5,110.5 z" fill-opacity="0" stroke="#294270" stroke-width="4"/>
    </g>
    <g>
      <path d="M220.5,110.5 L280.5,110.5 C286.023,110.5 290.5,114.977 290.5,120.5 L290.5,180.5 C290.5,186.023 286.023,190.5 280.5,190.5 L220.5,190.5 C214.977,190.5 210.5,186.023 210.5,180.5 L210.5,120.5 C210.5,114.977 214.977,110.5 220.5,110.5 z" fill="#8FC7ED"/>
      <path d="M220.5,110.5 L280.5,110.5 C286.023,110.5 290.5,114.977 290.5,120.5 L290.5,180.5 C290.5,186.023 286.023,190.5 280.5,190.5 L220.5,190.5 C214.977,190.5 210.5,186.023 210.5,180.5 L210.5,120.5 C210.5,114.977 214.977,110.5 220.5,110.5 z" fill-opacity="0" stroke="#294270" stroke-width="4"/>
    </g>
    <text transform="matrix(1, 0, 0, 1, 250, 160)">
      <tspan x="-12.797" y="6" font-family="Verdana-Bold" font-size="36" fill="#294270">2</tspan>
    </text>
    <g>
      <path d="M320.5,110.5 L380.5,110.5 C386.023,110.5 390.5,114.977 390.5,120.5 L390.5,180.5 C390.5,186.023 386.023,190.5 380.5,190.5 L320.5,190.5 C314.977,190.5 310.5,186.023 310.5,180.5 L310.5,120.5 C310.5,114.977 314.977,110.5 320.5,110.5 z" fill="#8FC7ED"/>
      <path d="M320.5,110.5 L380.5,110.5 C386.023,110.5 390.5,114.977 390.5,120.5 L390.5,180.5 C390.5,186.023 386.023,190.5 380.5,190.5 L320.5,190.5 C314.977,190.5 310.5,186.023 310.5,180.5 L310.5,120.5 C310.5,114.977 314.977,110.5 320.5,110.5 z" fill-opacity="0" stroke="#294270" stroke-width="4"/>
    </g>
    <text transform="matrix(1, 0, 0, 1, 350, 160)">
      <tspan x="-12.797" y="6" font-family="Verdana-Bold" font-size="36" fill="#294270">3</tspan>
    </text>
    <g>
      <path d="M120.5,210.5 L180.5,210.5 C186.023,210.5 190.5,214.977 190.5,220.5 L190.5,280.5 C190.5,286.023 186.023,290.5 180.5,290.5 L120.5,290.5 C114.977,290.5 110.5,286.023 110.5,280.5 L110.5,220.5 C110.5,214.977 114.977,210.5 120.5,210.5 z" fill="#8FC7ED"/>
      <path d="M120.5,210.5 L180.5,210.5 C186.023,210.5 190.5,214.977 190.5,220.5 L190.5,280.5 C190.5,286.023 186.023,290.5 180.5,290.5 L120.5,290.5 C114.977,290.5 110.5,286.023 110.5,280.5 L110.5,220.5 C110.5,214.977 114.977,210.5 120.5,210.5 z" fill-opacity="0" stroke="#294270" stroke-width="4"/>
    </g>
    <text transform="matrix(1, 0, 0, 1, 150, 260)">
      <tspan x="-12.797" y="6" font-family="Verdana-Bold" font-size="36" fill="#294270">4</tspan>
    </text>
    <g>
      <path d="M220.5,210.5 L280.5,210.5 C286.023,210.5 290.5,214.977 290.5,220.5 L290.5,280.5 C290.5,286.023 286.023,290.5 280.5,290.5 L220.5,290.5 C214.977,290.5 210.5,286.023 210.5,280.5 L210.5,220.5 C210.5,214.977 214.977,210.5 220.5,210.5 z" fill="#FABA00"/>
      <path d="M220.5,210.5 L280.5,210.5 C286.023,210.5 290.5,214.977 290.5,220.5 L290.5,280.5 C290.5,286.023 286.023,290.5 280.5,290.5 L220.5,290.5 C214.977,290.5 210.5,286.023 210.5,280.5 L210.5,220.5 C210.5,214.977 214.977,210.5 220.5,210.5 z" fill-opacity="0" stroke="#294270" stroke-width="4"/>
    </g>
    <text transform="matrix(1, 0, 0, 1, 250, 274.5)">
      <tspan x="-12.797" y="-8.5" font-family="Verdana-Bold" font-size="36" fill="#294270">6</tspan>
    </text>
    <g>
      <path d="M320.5,210.5 L380.5,210.5 C386.023,210.5 390.5,214.977 390.5,220.5 L390.5,280.5 C390.5,286.023 386.023,290.5 380.5,290.5 L320.5,290.5 C314.977,290.5 310.5,286.023 310.5,280.5 L310.5,220.5 C310.5,214.977 314.977,210.5 320.5,210.5 z" fill="#FABA00"/>
      <path d="M320.5,210.5 L380.5,210.5 C386.023,210.5 390.5,214.977 390.5,220.5 L390.5,280.5 C390.5,286.023 386.023,290.5 380.5,290.5 L320.5,290.5 C314.977,290.5 310.5,286.023 310.5,280.5 L310.5,220.5 C310.5,214.977 314.977,210.5 320.5,210.5 z" fill-opacity="0" stroke="#294270" stroke-width="4"/>
    </g>
    <text transform="matrix(1, 0, 0, 1, 350, 260)">
      <tspan x="-12.797" y="6" font-family="Verdana-Bold" font-size="36" fill="#294270">8</tspan>
    </text>
    <g>
      <path d="M120.5,310.5 L180.5,310.5 C186.023,310.5 190.5,314.977 190.5,320.5 L190.5,380.5 C190.5,386.023 186.023,390.5 180.5,390.5 L120.5,390.5 C114.977,390.5 110.5,386.023 110.5,380.5 L110.5,320.5 C110.5,314.977 114.977,310.5 120.5,310.5 z" fill="#8FC7ED"/>
      <path d="M120.5,310.5 L180.5,310.5 C186.023,310.5 190.5,314.977 190.5,320.5 L190.5,380.5 C190.5,386.023 186.023,390.5 180.5,390.5 L120.5,390.5 C114.977,390.5 110.5,386.023 110.5,380.5 L110.5,320.5 C110.5,314.977 114.977,310.5 120.5,310.5 z" fill-opacity="0" stroke="#294270" stroke-width="4"/>
    </g>
    <text transform="matrix(1, 0, 0, 1, 150, 360)">
      <tspan x="-12.797" y="6" font-family="Verdana-Bold" font-size="36" fill="#294270">7</tspan>
    </text>
    <g>
      <path d="M220.5,310.5 L280.5,310.5 C286.023,310.5 290.5,314.977 290.5,320.5 L290.5,380.5 C290.5,386.023 286.023,390.5 280.5,390.5 L220.5,390.5 C214.977,390.5 210.5,386.023 210.5,380.5 L210.5,320.5 C210.5,314.977 214.977,310.5 220.5,310.5 z" fill="#FABA00"/>
      <path d="M220.5,310.5 L280.5,310.5 C286.023,310.5 290.5,314.977 290.5,320.5 L290.5,380.5 C290.5,386.023 286.023,390.5 280.5,390.5 L220.5,390.5 C214.977,390.5 210.5,386.023 210.5,380.5 L210.5,320.5 C210.5,314.977 214.977,310.5 220.5,310.5 z" fill-opacity="0" stroke="#294270" stroke-width="4"/>
    </g>
    <text transform="matrix(1, 0, 0, 1, 250, 355)">
      <tspan x="-12.797" y="11" font-family="Verdana-Bold" font-size="36" fill="#294270">5</tspan>
    </text>
    <path d="M108,100.5 L393,100.5 C397.142,100.5 400.5,103.858 400.5,108 L400.5,393 C400.5,397.142 397.142,400.5 393,400.5 L108,400.5 C103.858,400.5 100.5,397.142 100.5,393 L100.5,108 C100.5,103.858 103.858,100.5 108,100.5 z" fill-opacity="0" stroke="#294270" stroke-width="4"/>
    <path d="M200.5,100.5 L200.5,400.5" fill-opacity="0" stroke="#294270" stroke-width="1"/>
    <path d="M300.5,100.5 L300.5,400.5" fill-opacity="0" stroke="#294270" stroke-width="1"/>
    <path d="M400.5,100.5 L400.5,393" fill-opacity="0" stroke="#294270" stroke-width="0.5"/>
    <path d="M100.5,400.5 L400.5,400.5" fill-opacity="0" stroke="#294270" stroke-width="0.5"/>
    <path d="M400.5,300.5 L100.5,300.5" fill-opacity="0" stroke="#294270" stroke-width="1"/>
    <path d="M100.5,200.5 L400.5,200.5" fill-opacity="0" stroke="#294270" stroke-width="1"/>
    <g>
      <text transform="matrix(1, 0, 0, 1, 150, 160)">
        <tspan x="-12.797" y="6" font-family="Verdana-Bold" font-size="36" fill="#000000">1</tspan>
      </text>
      <path d="M159.352,166 L141.879,166 L141.879,161.43 L147.398,161.43 L147.398,147.596 L141.879,147.596 L141.879,143.324 Q143.145,143.324 144.305,143.175 Q145.465,143.025 146.238,142.656 Q147.152,142.217 147.609,141.514 Q148.066,140.811 148.137,139.756 L153.955,139.756 L153.955,161.43 L159.352,161.43 z" fill="#294270"/>
    </g>
    <text transform="matrix(1, 0, 0, 1, 255, 65)">
      <tspan x="-201.243" y="11" font-family="Verdana-Bold" font-size="36" fill="#294270">Example start order</tspan>
    </text>
    <text transform="matrix(1, 0, 0, 1, 315.92, 486.5)">
      <tspan x="-165.92" y="-30.5" font-family="Verdana-Bold" font-size="36" fill="#294270">[[1, 2, 3],</tspan>
      <tspan x="-165.92" y="13.5" font-family="Verdana-Bold" font-size="36" fill="#294270">[4, 6, 8],</tspan>
      <tspan x="-165.92" y="57.5" font-family="Verdana-Bold" font-size="36" fill="#294270">[7, 5, 0]]</tspan>
    </text>
    <text transform="matrix(1, 0, 0, 1, 859.802, 62.5)">
      <tspan x="-109.802" y="13.5" font-family="Verdana-Bold" font-size="36" fill="#294270">Final order</tspan>
    </text>
    <text transform="matrix(1, 0, 0, 1, 925.92, 508.5)">
      <tspan x="-165.92" y="-52.5" font-family="Verdana-Bold" font-size="36" fill="#294270">[[1, 2, 3],</tspan>
      <tspan x="-165.92" y="-8.5" font-family="Verdana-Bold" font-size="36" fill="#294270">[4, 5, 6],</tspan>
      <tspan x="-165.92" y="35.5" font-family="Verdana-Bold" font-size="36" fill="#294270">[7, 8, 0]]</tspan>
    </text>
    <text transform="matrix(1, 0, 0, 1, 546.254, 222.5)">
      <tspan x="-76.254" y="13.5" font-family="Verdana-Bold" font-size="36" fill="#294270">"ULDR"</tspan>
    </text>
    <g>
      <path d="M350.5,330.5 L350.5,286.9" fill-opacity="0" stroke="#F0811A" stroke-width="4"/>
      <path d="M355.3,286.9 L350.5,274.1 L345.7,286.9 z" fill="#F0811A" fill-opacity="1" stroke="#F0811A" stroke-width="4" stroke-opacity="1"/>
    </g>
    <g>
      <path d="M330.5,250.5 L286.9,250.5" fill-opacity="0" stroke="#F0811A" stroke-width="4"/>
      <path d="M286.9,245.7 L274.1,250.5 L286.9,255.3 z" fill="#F0811A" fill-opacity="1" stroke="#F0811A" stroke-width="4" stroke-opacity="1"/>
    </g>
    <g>
      <path d="M250.5,270.5 L250.5,314.1" fill-opacity="0" stroke="#F0811A" stroke-width="4"/>
      <path d="M245.7,314.1 L250.5,326.9 L255.3,314.1 z" fill="#F0811A" fill-opacity="1" stroke="#F0811A" stroke-width="4" stroke-opacity="1"/>
    </g>
    <g>
      <path d="M270.5,350.5 L314.1,350.5" fill-opacity="0" stroke="#F0811A" stroke-width="4"/>
      <path d="M314.1,355.3 L326.9,350.5 L314.1,345.7 z" fill="#F0811A" fill-opacity="1" stroke="#F0811A" stroke-width="4" stroke-opacity="1"/>
    </g>
    <g>
      <path d="M720.5,110.5 L780.5,110.5 C786.023,110.5 790.5,114.977 790.5,120.5 L790.5,180.5 C790.5,186.023 786.023,190.5 780.5,190.5 L720.5,190.5 C714.977,190.5 710.5,186.023 710.5,180.5 L710.5,120.5 C710.5,114.977 714.977,110.5 720.5,110.5 z" fill="#8FC7ED"/>
      <path d="M720.5,110.5 L780.5,110.5 C786.023,110.5 790.5,114.977 790.5,120.5 L790.5,180.5 C790.5,186.023 786.023,190.5 780.5,190.5 L720.5,190.5 C714.977,190.5 710.5,186.023 710.5,180.5 L710.5,120.5 C710.5,114.977 714.977,110.5 720.5,110.5 z" fill-opacity="0" stroke="#294270" stroke-width="4"/>
    </g>
    <g>
      <path d="M820.5,110.5 L880.5,110.5 C886.023,110.5 890.5,114.977 890.5,120.5 L890.5,180.5 C890.5,186.023 886.023,190.5 880.5,190.5 L820.5,190.5 C814.977,190.5 810.5,186.023 810.5,180.5 L810.5,120.5 C810.5,114.977 814.977,110.5 820.5,110.5 z" fill="#8FC7ED"/>
      <path d="M820.5,110.5 L880.5,110.5 C886.023,110.5 890.5,114.977 890.5,120.5 L890.5,180.5 C890.5,186.023 886.023,190.5 880.5,190.5 L820.5,190.5 C814.977,190.5 810.5,186.023 810.5,180.5 L810.5,120.5 C810.5,114.977 814.977,110.5 820.5,110.5 z" fill-opacity="0" stroke="#294270" stroke-width="4"/>
    </g>
    <text transform="matrix(1, 0, 0, 1, 850, 160)">
      <tspan x="-12.797" y="6" font-family="Verdana-Bold" font-size="36" fill="#294270">2</tspan>
    </text>
    <g>
      <path d="M920.5,110.5 L980.5,110.5 C986.023,110.5 990.5,114.977 990.5,120.5 L990.5,180.5 C990.5,186.023 986.023,190.5 980.5,190.5 L920.5,190.5 C914.977,190.5 910.5,186.023 910.5,180.5 L910.5,120.5 C910.5,114.977 914.977,110.5 920.5,110.5 z" fill="#8FC7ED"/>
      <path d="M920.5,110.5 L980.5,110.5 C986.023,110.5 990.5,114.977 990.5,120.5 L990.5,180.5 C990.5,186.023 986.023,190.5 980.5,190.5 L920.5,190.5 C914.977,190.5 910.5,186.023 910.5,180.5 L910.5,120.5 C910.5,114.977 914.977,110.5 920.5,110.5 z" fill-opacity="0" stroke="#294270" stroke-width="4"/>
    </g>
    <text transform="matrix(1, 0, 0, 1, 950, 160)">
      <tspan x="-12.797" y="6" font-family="Verdana-Bold" font-size="36" fill="#294270">3</tspan>
    </text>
    <g>
      <path d="M720.5,210.5 L780.5,210.5 C786.023,210.5 790.5,214.977 790.5,220.5 L790.5,280.5 C790.5,286.023 786.023,290.5 780.5,290.5 L720.5,290.5 C714.977,290.5 710.5,286.023 710.5,280.5 L710.5,220.5 C710.5,214.977 714.977,210.5 720.5,210.5 z" fill="#8FC7ED"/>
      <path d="M720.5,210.5 L780.5,210.5 C786.023,210.5 790.5,214.977 790.5,220.5 L790.5,280.5 C790.5,286.023 786.023,290.5 780.5,290.5 L720.5,290.5 C714.977,290.5 710.5,286.023 710.5,280.5 L710.5,220.5 C710.5,214.977 714.977,210.5 720.5,210.5 z" fill-opacity="0" stroke="#294270" stroke-width="4"/>
    </g>
    <text transform="matrix(1, 0, 0, 1, 750, 260)">
      <tspan x="-12.797" y="6" font-family="Verdana-Bold" font-size="36" fill="#294270">4</tspan>
    </text>
    <g>
      <path d="M820.5,210.5 L880.5,210.5 C886.023,210.5 890.5,214.977 890.5,220.5 L890.5,280.5 C890.5,286.023 886.023,290.5 880.5,290.5 L820.5,290.5 C814.977,290.5 810.5,286.023 810.5,280.5 L810.5,220.5 C810.5,214.977 814.977,210.5 820.5,210.5 z" fill="#8FC7ED"/>
      <path d="M820.5,210.5 L880.5,210.5 C886.023,210.5 890.5,214.977 890.5,220.5 L890.5,280.5 C890.5,286.023 886.023,290.5 880.5,290.5 L820.5,290.5 C814.977,290.5 810.5,286.023 810.5,280.5 L810.5,220.5 C810.5,214.977 814.977,210.5 820.5,210.5 z" fill-opacity="0" stroke="#294270" stroke-width="4"/>
    </g>
    <text transform="matrix(1, 0, 0, 1, 850, 274.5)">
      <tspan x="-12.797" y="-8.5" font-family="Verdana-Bold" font-size="36" fill="#294270">5</tspan>
    </text>
    <g>
      <path d="M920.5,210.5 L980.5,210.5 C986.023,210.5 990.5,214.977 990.5,220.5 L990.5,280.5 C990.5,286.023 986.023,290.5 980.5,290.5 L920.5,290.5 C914.977,290.5 910.5,286.023 910.5,280.5 L910.5,220.5 C910.5,214.977 914.977,210.5 920.5,210.5 z" fill="#8FC7ED"/>
      <path d="M920.5,210.5 L980.5,210.5 C986.023,210.5 990.5,214.977 990.5,220.5 L990.5,280.5 C990.5,286.023 986.023,290.5 980.5,290.5 L920.5,290.5 C914.977,290.5 910.5,286.023 910.5,280.5 L910.5,220.5 C910.5,214.977 914.977,210.5 920.5,210.5 z" fill-opacity="0" stroke="#294270" stroke-width="4"/>
    </g>
    <text transform="matrix(1, 0, 0, 1, 950, 260)">
      <tspan x="-12.797" y="6" font-family="Verdana-Bold" font-size="36" fill="#294270">6</tspan>
    </text>
    <g>
      <path d="M720.5,310.5 L780.5,310.5 C786.023,310.5 790.5,314.977 790.5,320.5 L790.5,380.5 C790.5,386.023 786.023,390.5 780.5,390.5 L720.5,390.5 C714.977,390.5 710.5,386.023 710.5,380.5 L710.5,320.5 C710.5,314.977 714.977,310.5 720.5,310.5 z" fill="#8FC7ED"/>
      <path d="M720.5,310.5 L780.5,310.5 C786.023,310.5 790.5,314.977 790.5,320.5 L790.5,380.5 C790.5,386.023 786.023,390.5 780.5,390.5 L720.5,390.5 C714.977,390.5 710.5,386.023 710.5,380.5 L710.5,320.5 C710.5,314.977 714.977,310.5 720.5,310.5 z" fill-opacity="0" stroke="#294270" stroke-width="4"/>
    </g>
    <text transform="matrix(1, 0, 0, 1, 750, 360)">
      <tspan x="-12.797" y="6" font-family="Verdana-Bold" font-size="36" fill="#294270">7</tspan>
    </text>
    <g>
      <path d="M820.5,310.5 L880.5,310.5 C886.023,310.5 890.5,314.977 890.5,320.5 L890.5,380.5 C890.5,386.023 886.023,390.5 880.5,390.5 L820.5,390.5 C814.977,390.5 810.5,386.023 810.5,380.5 L810.5,320.5 C810.5,314.977 814.977,310.5 820.5,310.5 z" fill="#8FC7ED"/>
      <path d="M820.5,310.5 L880.5,310.5 C886.023,310.5 890.5,314.977 890.5,320.5 L890.5,380.5 C890.5,386.023 886.023,390.5 880.5,390.5 L820.5,390.5 C814.977,390.5 810.5,386.023 810.5,380.5 L810.5,320.5 C810.5,314.977 814.977,310.5 820.5,310.5 z" fill-opacity="0" stroke="#294270" stroke-width="4"/>
    </g>
    <text transform="matrix(1, 0, 0, 1, 850, 355)">
      <tspan x="-12.797" y="11" font-family="Verdana-Bold" font-size="36" fill="#294270">8</tspan>
    </text>
    <path d="M708,100.5 L993,100.5 C997.142,100.5 1000.5,103.858 1000.5,108 L1000.5,393 C1000.5,397.142 997.142,400.5 993,400.5 L708,400.5 C703.858,400.5 700.5,397.142 700.5,393 L700.5,108 C700.5,103.858 703.858,100.5 708,100.5 z" fill-opacity="0" stroke="#294270" stroke-width="4"/>
    <path d="M800.5,100.5 L800.5,400.5" fill-opacity="0" stroke="#294270" stroke-width="1"/>
    <path d="M900.5,100.5 L900.5,400.5" fill-opacity="0" stroke="#294270" stroke-width="1"/>
    <path d="M1000.5,100.5 L1000.5,393" fill-opacity="0" stroke="#294270" stroke-width="0.5"/>
    <path d="M700.5,400.5 L1000.5,400.5" fill-opacity="0" stroke="#294270" stroke-width="0.5"/>
    <path d="M1000.5,300.5 L700.5,300.5" fill-opacity="0" stroke="#294270" stroke-width="1"/>
    <path d="M700.5,200.5 L1000.5,200.5" fill-opacity="0" stroke="#294270" stroke-width="1"/>
    <g>
      <text transform="matrix(1, 0, 0, 1, 750, 160)">
        <tspan x="-12.797" y="6" font-family="Verdana-Bold" font-size="36" fill="#000000">1</tspan>
      </text>
      <path d="M759.352,166 L741.879,166 L741.879,161.43 L747.398,161.43 L747.398,147.596 L741.879,147.596 L741.879,143.324 Q743.145,143.324 744.305,143.175 Q745.465,143.025 746.238,142.656 Q747.152,142.217 747.609,141.514 Q748.066,140.811 748.137,139.756 L753.955,139.756 L753.955,161.43 L759.352,161.43 z" fill="#294270"/>
    </g>
  </g>
  <defs/>
</svg>
