<?xml version="1.0" encoding="UTF-8"?>
<!DOCTYPE svg PUBLIC "-//W3C//DTD SVG 1.1//EN" "http://www.w3.org/Graphics/SVG/1.1/DTD/svg11.dtd">
<svg version="1.1" xmlns="http://www.w3.org/2000/svg" xmlns:xlink="http://www.w3.org/1999/xlink" x="0px" y="0px" width="1200" height="1500" viewBox="0, 0, 1200, 1500">
  <g id="Background">
    <rect x="0" y="0" width="1200" height="1500" fill="#000000" fill-opacity="0"/>
  </g>
  <g id="Layer 1">
    <g>
      <path d="M840.5,80.5 L880.5,80.5 L880.5,400.5 L840.5,400.5 z" fill="#7DB2D5"/>
      <path d="M840.5,80.5 L880.5,80.5 L880.5,400.5 L840.5,400.5 z" fill-opacity="0" stroke="#202C4C" stroke-width="2"/>
    </g>
    <g>
      <path d="M920.5,240.5 L1040.5,240.5 L1040.5,400.5 L920.5,400.5 z" fill="#7DB2D5"/>
      <path d="M920.5,240.5 L1040.5,240.5 L1040.5,400.5 L920.5,400.5 z" fill-opacity="0" stroke="#202C4C" stroke-width="2"/>
    </g>
    <g>
      <path d="M840.5,160.5 L1000.5,160.5 L1000.5,400.5 L840.5,400.5 z" fill="#7DB2D5"/>
      <path d="M840.5,160.5 L1000.5,160.5 L1000.5,400.5 L840.5,400.5 z" fill-opacity="0" stroke="#202C4C" stroke-width="2"/>
    </g>
    <g>
      <path d="M720.5,200.5 L800.5,200.5 L800.5,400.5 L720.5,400.5 z" fill="#7DB2D5"/>
      <path d="M720.5,200.5 L800.5,200.5 L800.5,400.5 L720.5,400.5 z" fill-opacity="0" stroke="#202C4C" stroke-width="2"/>
    </g>
    <g>
      <path d="M80.5,400.5 L548.7,400.5" fill-opacity="0" stroke="#202C4C" stroke-width="2"/>
      <path d="M548.7,404.1 L558.3,400.5 L548.7,396.9 z" fill="#202C4C" fill-opacity="1" stroke="#202C4C" stroke-width="2" stroke-opacity="1"/>
    </g>
    <g>
      <path d="M80.5,400.5 L80.5,52.3" fill-opacity="0" stroke="#202C4C" stroke-width="2"/>
      <path d="M84.1,52.3 L80.5,42.7 L76.9,52.3 z" fill="#202C4C" fill-opacity="1" stroke="#202C4C" stroke-width="2" stroke-opacity="1"/>
    </g>
    <g>
      <path d="M120.5,200.5 L240.5,200.5 L240.5,360.5 L120.5,360.5 z" fill="#7DB2D5"/>
      <path d="M120.5,200.5 L240.5,200.5 L240.5,360.5 L120.5,360.5 z" fill-opacity="0" stroke="#202C4C" stroke-width="2"/>
    </g>
    <g>
      <path d="M160.5,80.5 L240.5,80.5 L240.5,160.5 L160.5,160.5 z" fill="#7DB2D5"/>
      <path d="M160.5,80.5 L240.5,80.5 L240.5,160.5 L160.5,160.5 z" fill-opacity="0" stroke="#202C4C" stroke-width="2"/>
    </g>
    <g>
      <path d="M280.5,280.5 L440.5,280.5 L440.5,360.5 L280.5,360.5 z" fill="#7DB2D5"/>
      <path d="M280.5,280.5 L440.5,280.5 L440.5,360.5 L280.5,360.5 z" fill-opacity="0" stroke="#202C4C" stroke-width="2"/>
    </g>
    <g>
      <path d="M360.5,160.5 L480.5,160.5 L480.5,240.5 L360.5,240.5 z" fill="#7DB2D5"/>
      <path d="M360.5,160.5 L480.5,160.5 L480.5,240.5 L360.5,240.5 z" fill-opacity="0" stroke="#202C4C" stroke-width="2"/>
    </g>
    <g>
      <path d="M280.5,80.5 L480.5,80.5 L480.5,120.5 L280.5,120.5 z" fill="#EAA620"/>
      <path d="M280.5,80.5 L480.5,80.5 L480.5,120.5 L280.5,120.5 z" fill-opacity="0" stroke="#202C4C" stroke-width="2"/>
    </g>
    <g>
      <path d="M280.5,160.5 L320.5,160.5 L320.5,200.5 L280.5,200.5 z" fill="#7DB2D5"/>
      <path d="M280.5,160.5 L320.5,160.5 L320.5,200.5 L280.5,200.5 z" fill-opacity="0" stroke="#202C4C" stroke-width="2"/>
    </g>
    <g>
      <path d="M640.5,400.5 L1108.7,400.5" fill-opacity="0" stroke="#202C4C" stroke-width="2"/>
      <path d="M1108.7,404.1 L1118.3,400.5 L1108.7,396.9 z" fill="#202C4C" fill-opacity="1" stroke="#202C4C" stroke-width="2" stroke-opacity="1"/>
    </g>
    <g>
      <path d="M640.5,400.5 L640.5,52.3" fill-opacity="0" stroke="#202C4C" stroke-width="2"/>
      <path d="M644.1,52.3 L640.5,42.7 L636.9,52.3 z" fill="#202C4C" fill-opacity="1" stroke="#202C4C" stroke-width="2" stroke-opacity="1"/>
    </g>
    <text transform="matrix(1, 0, 0, 1, 41.552, 216.336)">
      <tspan x="-14.16" y="10.5" font-family="HelveticaNeue-Bold" font-size="30" fill="#202C4C">W</tspan>
    </text>
    <text transform="matrix(1, 0, 0, 1, 332.339, 20.823)">
      <tspan x="-11.115" y="10.5" font-family="HelveticaNeue-Bold" font-size="30" fill="#202C4C">N</tspan>
    </text>
    <text transform="matrix(1, 0, 0, 1, 339.735, 428.5)">
      <tspan x="-9.735" y="10.5" font-family="HelveticaNeue-Bold" font-size="30" fill="#202C4C">S</tspan>
    </text>
    <text transform="matrix(1, 0, 0, 1, 546.538, 212.029)">
      <tspan x="-9.72" y="10.5" font-family="HelveticaNeue-Bold" font-size="30" fill="#202C4C">E</tspan>
    </text>
    <g>
      <text transform="matrix(1, 0, 0, 1, 550.355, 423.72)">
        <tspan x="-5.639" y="7" font-family="HelveticaNeue-Bold" font-size="21" fill="#202C4C">x</tspan>
      </text>
      <path d="M548.623,425.008 L544.717,430.72 L548.056,430.72 L550.324,427.297 L552.592,430.72 L555.994,430.72 L551.983,424.945 L555.553,419.863 L552.256,419.863 L550.366,422.698 L548.455,419.863 L545.053,419.863 z" fill-opacity="0" stroke="#202C4C" stroke-width="1"/>
    </g>
    <g>
      <text transform="matrix(1, 0, 0, 1, 53.838, 40.633)">
        <tspan x="-5.45" y="7" font-family="HelveticaNeue-Bold" font-size="21" fill="#202C4C">y</tspan>
      </text>
      <path d="M54.878,48.977 L59.414,36.776 L56.327,36.776 L53.954,44.21 L53.912,44.21 L51.455,36.776 L48.284,36.776 L52.085,46.961 Q52.211,47.276 52.211,47.633 Q52.211,48.116 51.927,48.515 Q51.644,48.914 51.056,48.977 Q50.615,48.998 50.174,48.956 Q49.733,48.914 49.313,48.872 L49.313,51.329 Q49.775,51.371 50.226,51.402 Q50.678,51.434 51.14,51.434 Q52.673,51.434 53.534,50.867 Q54.395,50.3 54.878,48.977 z" fill-opacity="0" stroke="#202C4C" stroke-width="1"/>
    </g>
    <g>
      <text transform="matrix(1, 0, 0, 1, 66.784, 413.513)">
        <tspan x="-14.595" y="7" font-family="HelveticaNeue-Bold" font-size="21" fill="#202C4C">0,0</tspan>
      </text>
      <path d="M55.612,413.1 Q55.612,412.722 55.623,412.186 Q55.633,411.651 55.696,411.084 Q55.759,410.517 55.906,409.961 Q56.053,409.404 56.316,408.963 Q56.578,408.522 56.988,408.249 Q57.397,407.976 58.006,407.976 Q58.615,407.976 59.035,408.249 Q59.455,408.522 59.728,408.963 Q60.001,409.404 60.138,409.961 Q60.274,410.517 60.348,411.084 Q60.421,411.651 60.432,412.186 Q60.442,412.722 60.442,413.1 Q60.442,413.73 60.4,414.622 Q60.358,415.515 60.138,416.345 Q59.917,417.174 59.424,417.762 Q58.93,418.35 58.006,418.35 Q57.103,418.35 56.62,417.762 Q56.137,417.174 55.917,416.345 Q55.696,415.515 55.654,414.622 Q55.612,413.73 55.612,413.1 z M52.63,413.1 Q52.63,415.305 53.061,416.785 Q53.491,418.266 54.226,419.148 Q54.961,420.03 55.938,420.408 Q56.914,420.786 58.006,420.786 Q59.119,420.786 60.096,420.408 Q61.072,420.03 61.818,419.148 Q62.563,418.266 62.994,416.785 Q63.424,415.305 63.424,413.1 Q63.424,410.958 62.994,409.499 Q62.563,408.039 61.818,407.157 Q61.072,406.275 60.096,405.897 Q59.119,405.519 58.006,405.519 Q56.914,405.519 55.938,405.897 Q54.961,406.275 54.226,407.157 Q53.491,408.039 53.061,409.499 Q52.63,410.958 52.63,413.1 z M65.146,417.279 L65.146,420.513 L66.658,420.513 Q66.679,420.849 66.574,421.174 Q66.469,421.5 66.259,421.763 Q66.049,422.025 65.766,422.214 Q65.482,422.403 65.167,422.466 L65.167,423.978 Q65.839,423.873 66.438,423.59 Q67.036,423.306 67.477,422.865 Q67.918,422.424 68.181,421.826 Q68.443,421.227 68.443,420.513 L68.443,417.279 z M73.126,413.1 Q73.126,412.722 73.137,412.186 Q73.147,411.651 73.21,411.084 Q73.273,410.517 73.42,409.961 Q73.567,409.404 73.83,408.963 Q74.092,408.522 74.502,408.249 Q74.911,407.976 75.52,407.976 Q76.129,407.976 76.549,408.249 Q76.969,408.522 77.242,408.963 Q77.515,409.404 77.652,409.961 Q77.788,410.517 77.862,411.084 Q77.935,411.651 77.946,412.186 Q77.956,412.722 77.956,413.1 Q77.956,413.73 77.914,414.622 Q77.872,415.515 77.652,416.345 Q77.431,417.174 76.938,417.762 Q76.444,418.35 75.52,418.35 Q74.617,418.35 74.134,417.762 Q73.651,417.174 73.431,416.345 Q73.21,415.515 73.168,414.622 Q73.126,413.73 73.126,413.1 z M70.144,413.1 Q70.144,415.305 70.575,416.785 Q71.005,418.266 71.74,419.148 Q72.475,420.03 73.452,420.408 Q74.428,420.786 75.52,420.786 Q76.633,420.786 77.61,420.408 Q78.586,420.03 79.332,419.148 Q80.077,418.266 80.508,416.785 Q80.938,415.305 80.938,413.1 Q80.938,410.958 80.508,409.499 Q80.077,408.039 79.332,407.157 Q78.586,406.275 77.61,405.897 Q76.633,405.519 75.52,405.519 Q74.428,405.519 73.452,405.897 Q72.475,406.275 71.74,407.157 Q71.005,408.039 70.575,409.499 Q70.144,410.958 70.144,413.1 z" fill-opacity="0" stroke="#202C4C" stroke-width="1"/>
    </g>
    <text transform="matrix(1, 0, 0, 1, 137.532, 347.436)">
      <tspan x="-14.595" y="7" font-family="HelveticaNeue-Bold" font-size="21" fill="#202C4C">1,1</tspan>
    </text>
    <text transform="matrix(1, 0, 0, 1, 214.595, 213)">
      <tspan x="-14.595" y="7" font-family="HelveticaNeue-Bold" font-size="21" fill="#202C4C">4,5</tspan>
    </text>
    <path d="M120.5,390.5 L120.5,410.5" fill-opacity="0" stroke="#000000" stroke-width="1"/>
    <path d="M70.5,360.5 L90.5,360.5" fill-opacity="0" stroke="#000000" stroke-width="1"/>
    <text transform="matrix(1, 0, 0, 1, 54.501, 350.023)">
      <tspan x="-5.838" y="7" font-family="HelveticaNeue-Bold" font-size="21" fill="#202C4C">1</tspan>
    </text>
    <text transform="matrix(1, 0, 0, 1, 115.838, 423)">
      <tspan x="-5.838" y="7" font-family="HelveticaNeue-Bold" font-size="21" fill="#202C4C">1</tspan>
    </text>
    <text transform="matrix(1, 0, 0, 1, 178.802, 149.304)">
      <tspan x="-14.595" y="7" font-family="HelveticaNeue-Bold" font-size="21" fill="#202C4C">2,6</tspan>
    </text>
    <text transform="matrix(1, 0, 0, 1, 220.677, 94.277)">
      <tspan x="-14.595" y="7" font-family="HelveticaNeue-Bold" font-size="21" fill="#202C4C">4,8</tspan>
    </text>
    <text transform="matrix(1, 0, 0, 1, 297.841, 109.546)">
      <tspan x="-14.595" y="7" font-family="HelveticaNeue-Bold" font-size="21" fill="#202C4C">5,7</tspan>
    </text>
    <text transform="matrix(1, 0, 0, 1, 457.362, 94.505)">
      <tspan x="-20.433" y="7" font-family="HelveticaNeue-Bold" font-size="21" fill="#202C4C">10,8</tspan>
    </text>
    <text transform="matrix(1, 0, 0, 1, 456.455, 176.3)">
      <tspan x="-20.433" y="7" font-family="HelveticaNeue-Bold" font-size="21" fill="#202C4C">10,6</tspan>
    </text>
    <text transform="matrix(1, 0, 0, 1, 274.595, 213)">
      <tspan x="-14.595" y="7" font-family="HelveticaNeue-Bold" font-size="21" fill="#202C4C">5,5</tspan>
    </text>
    <text transform="matrix(1, 0, 0, 1, 334.595, 143)">
      <tspan x="-14.595" y="7" font-family="HelveticaNeue-Bold" font-size="21" fill="#202C4C">6,6</tspan>
    </text>
    <text transform="matrix(1, 0, 0, 1, 299.077, 345.036)">
      <tspan x="-14.595" y="7" font-family="HelveticaNeue-Bold" font-size="21" fill="#202C4C">5,1</tspan>
    </text>
    <text transform="matrix(1, 0, 0, 1, 423.177, 294.687)">
      <tspan x="-14.595" y="7" font-family="HelveticaNeue-Bold" font-size="21" fill="#202C4C">9,3</tspan>
    </text>
    <text transform="matrix(1, 0, 0, 1, 377.747, 228.786)">
      <tspan x="-14.595" y="7" font-family="HelveticaNeue-Bold" font-size="21" fill="#202C4C">7,4</tspan>
    </text>
    <text transform="matrix(1, 0, 0, 1, 181.963, 278.127)">
      <tspan x="-16.68" y="4.873" font-family="HelveticaNeue-Bold" font-size="24" fill="#202C4C">3.5</tspan>
    </text>
    <text transform="matrix(1, 0, 0, 1, 357.952, 320.01)">
      <tspan x="-6.672" y="3.01" font-family="HelveticaNeue-Bold" font-size="24" fill="#202C4C">6</tspan>
    </text>
    <text transform="matrix(1, 0, 0, 1, 416.672, 204.5)">
      <tspan x="-6.672" y="8.5" font-family="HelveticaNeue-Bold" font-size="24" fill="#202C4C">4</tspan>
    </text>
    <text transform="matrix(1, 0, 0, 1, 376.672, 94.5)">
      <tspan x="-6.672" y="8.5" font-family="HelveticaNeue-Bold" font-size="24" fill="#202C4C">3</tspan>
    </text>
    <text transform="matrix(1, 0, 0, 1, 301.847, 178.156)">
      <tspan x="-6.672" y="8.5" font-family="HelveticaNeue-Bold" font-size="24" fill="#202C4C">8</tspan>
    </text>
    <text transform="matrix(1, 0, 0, 1, 196.672, 124.5)">
      <tspan x="-6.672" y="8.5" font-family="HelveticaNeue-Bold" font-size="24" fill="#202C4C">5</tspan>
    </text>
    <g>
      <path d="M680.5,260.5 L800.5,260.5 L800.5,400.5 L680.5,400.5 z" fill="#7DB2D5"/>
      <path d="M680.5,260.5 L800.5,260.5 L800.5,400.5 L680.5,400.5 z" fill-opacity="0" stroke="#202C4C" stroke-width="2"/>
    </g>
    <path d="M840.5,400.5 L840.5,160.5" fill-opacity="0" stroke="#202C4C" stroke-width="2"/>
    <text transform="matrix(1, 0, 0, 1, 743.141, 333.041)">
      <tspan x="-16.68" y="8.5" font-family="HelveticaNeue-Bold" font-size="24" fill="#202C4C">3.5</tspan>
    </text>
    <text transform="matrix(1, 0, 0, 1, 752.83, 221.566)">
      <tspan x="-6.672" y="8.5" font-family="HelveticaNeue-Bold" font-size="24" fill="#202C4C">5</tspan>
    </text>
    <text transform="matrix(1, 0, 0, 1, 864.247, 110.149)">
      <tspan x="-6.672" y="8.5" font-family="HelveticaNeue-Bold" font-size="24" fill="#202C4C">8</tspan>
    </text>
    <text transform="matrix(1, 0, 0, 1, 925.854, 275.449)">
      <tspan x="-6.672" y="8.5" font-family="HelveticaNeue-Bold" font-size="24" fill="#202C4C">6</tspan>
    </text>
    <text transform="matrix(1, 0, 0, 1, 1022.786, 310.564)">
      <tspan x="-6.672" y="8.5" font-family="HelveticaNeue-Bold" font-size="24" fill="#202C4C">4</tspan>
    </text>
    <text transform="matrix(1, 0, 0, 1, 892.952, 432)">
      <tspan x="-92.952" y="13" font-family="HelveticaNeue-Bold" font-size="36" fill="#202C4C">5 buildings</tspan>
    </text>
    <g>
      <path d="M80.5,880.5 L550.6,880.5" fill-opacity="0" stroke="#202C4C" stroke-width="1.5"/>
      <path d="M550.6,883.8 L559.4,880.5 L550.6,877.2 z" fill="#202C4C" fill-opacity="1" stroke="#202C4C" stroke-width="1.5" stroke-opacity="1"/>
    </g>
    <g>
      <path d="M80.5,880.5 L80.5,530.4" fill-opacity="0" stroke="#202C4C" stroke-width="1.5"/>
      <path d="M83.8,530.4 L80.5,521.6 L77.2,530.4 z" fill="#202C4C" fill-opacity="1" stroke="#202C4C" stroke-width="1.5" stroke-opacity="1"/>
    </g>
    <g>
      <path d="M640.5,880.5 L1108.7,880.5" fill-opacity="0" stroke="#202C4C" stroke-width="2"/>
      <path d="M1108.7,884.1 L1118.3,880.5 L1108.7,876.9 z" fill="#202C4C" fill-opacity="1" stroke="#202C4C" stroke-width="2" stroke-opacity="1"/>
    </g>
    <g>
      <path d="M640.5,880.5 L640.5,532.3" fill-opacity="0" stroke="#202C4C" stroke-width="2"/>
      <path d="M644.1,532.3 L640.5,522.7 L636.9,532.3 z" fill="#202C4C" fill-opacity="1" stroke="#202C4C" stroke-width="2" stroke-opacity="1"/>
    </g>
    <g>
      <text transform="matrix(1, 0, 0, 1, 44.16, 694.498)">
        <tspan x="-14.16" y="10.5" font-family="HelveticaNeue-Bold" font-size="30" fill="#202C4C">W</tspan>
      </text>
      <path d="M52.47,704.998 L58.23,683.578 L53.61,683.578 L50.1,698.338 L50.04,698.338 L46.38,683.578 L41.97,683.578 L38.25,698.158 L38.19,698.158 L34.8,683.578 L30.09,683.578 L35.76,704.998 L40.53,704.998 L44.1,690.418 L44.16,690.418 L47.79,704.998 z" fill-opacity="0" stroke="#202C4C" stroke-width="1"/>
    </g>
    <g>
      <text transform="matrix(1, 0, 0, 1, 341.115, 518.5)">
        <tspan x="-11.115" y="10.5" font-family="HelveticaNeue-Bold" font-size="30" fill="#202C4C">N</tspan>
      </text>
      <path d="M332.07,507.58 L332.07,529 L336.48,529 L336.48,514.66 L336.54,514.66 L345.45,529 L350.16,529 L350.16,507.58 L345.75,507.58 L345.75,521.95 L345.69,521.95 L336.75,507.58 z" fill-opacity="0" stroke="#202C4C" stroke-width="1"/>
    </g>
    <g>
      <text transform="matrix(1, 0, 0, 1, 342.328, 907.323)">
        <tspan x="-9.735" y="10.5" font-family="HelveticaNeue-Bold" font-size="30" fill="#202C4C">S</tspan>
      </text>
      <path d="M337.873,910.713 L333.313,910.713 Q333.283,912.693 334.033,914.133 Q334.783,915.573 336.058,916.503 Q337.333,917.433 338.998,917.868 Q340.663,918.303 342.433,918.303 Q344.623,918.303 346.288,917.793 Q347.953,917.283 349.078,916.368 Q350.203,915.453 350.773,914.193 Q351.343,912.933 351.343,911.463 Q351.343,909.663 350.578,908.508 Q349.813,907.353 348.763,906.663 Q347.713,905.973 346.648,905.658 Q345.583,905.343 344.983,905.223 Q342.973,904.713 341.728,904.383 Q340.483,904.053 339.778,903.723 Q339.073,903.393 338.833,903.003 Q338.593,902.613 338.593,901.983 Q338.593,901.293 338.893,900.843 Q339.193,900.393 339.658,900.093 Q340.123,899.793 340.693,899.673 Q341.263,899.553 341.833,899.553 Q342.703,899.553 343.438,899.703 Q344.173,899.853 344.743,900.213 Q345.313,900.573 345.658,901.203 Q346.003,901.833 346.063,902.793 L350.623,902.793 Q350.623,900.933 349.918,899.628 Q349.213,898.323 348.013,897.483 Q346.813,896.643 345.268,896.268 Q343.723,895.893 342.043,895.893 Q340.603,895.893 339.163,896.283 Q337.723,896.673 336.583,897.483 Q335.443,898.293 334.738,899.508 Q334.033,900.723 334.033,902.373 Q334.033,903.843 334.588,904.878 Q335.143,905.913 336.043,906.603 Q336.943,907.293 338.083,907.728 Q339.223,908.163 340.423,908.463 Q341.593,908.793 342.733,909.063 Q343.873,909.333 344.773,909.693 Q345.673,910.053 346.228,910.593 Q346.783,911.133 346.783,912.003 Q346.783,912.813 346.363,913.338 Q345.943,913.863 345.313,914.163 Q344.683,914.463 343.963,914.568 Q343.243,914.673 342.613,914.673 Q341.683,914.673 340.813,914.448 Q339.943,914.223 339.298,913.758 Q338.653,913.293 338.263,912.543 Q337.873,911.793 337.873,910.713 z" fill-opacity="0" stroke="#202C4C" stroke-width="1"/>
    </g>
    <g>
      <text transform="matrix(1, 0, 0, 1, 549.146, 690.19)">
        <tspan x="-9.72" y="10.5" font-family="HelveticaNeue-Bold" font-size="30" fill="#202C4C">E</tspan>
      </text>
      <path d="M541.496,679.27 L541.496,700.69 L557.756,700.69 L557.756,696.73 L546.206,696.73 L546.206,691.48 L556.586,691.48 L556.586,687.82 L546.206,687.82 L546.206,683.23 L557.516,683.23 L557.516,679.27 z" fill-opacity="0" stroke="#202C4C" stroke-width="1"/>
    </g>
    <g>
      <text transform="matrix(1, 0, 0, 1, 552.963, 901.881)">
        <tspan x="-5.639" y="7" font-family="HelveticaNeue-Bold" font-size="21" fill="#202C4C">x</tspan>
      </text>
      <path d="M551.23,903.169 L547.324,908.881 L550.663,908.881 L552.931,905.458 L555.199,908.881 L558.601,908.881 L554.59,903.107 L558.16,898.024 L554.863,898.024 L552.973,900.859 L551.062,898.024 L547.66,898.024 z" fill-opacity="0" stroke="#202C4C" stroke-width="1"/>
    </g>
    <g>
      <text transform="matrix(1, 0, 0, 1, 56.446, 518.795)">
        <tspan x="-5.45" y="7" font-family="HelveticaNeue-Bold" font-size="21" fill="#202C4C">y</tspan>
      </text>
      <path d="M57.485,527.139 L62.021,514.938 L58.934,514.938 L56.561,522.372 L56.519,522.372 L54.062,514.938 L50.891,514.938 L54.692,525.123 Q54.818,525.438 54.818,525.795 Q54.818,526.278 54.535,526.677 Q54.251,527.076 53.663,527.139 Q53.222,527.16 52.781,527.118 Q52.34,527.076 51.92,527.034 L51.92,529.491 Q52.382,529.533 52.834,529.564 Q53.285,529.596 53.747,529.596 Q55.28,529.596 56.141,529.029 Q57.002,528.462 57.485,527.139 z" fill-opacity="0" stroke="#202C4C" stroke-width="1"/>
    </g>
    <g>
      <text transform="matrix(1, 0, 0, 1, 69.392, 891.675)">
        <tspan x="-14.595" y="7" font-family="HelveticaNeue-Bold" font-size="21" fill="#202C4C">0,0</tspan>
      </text>
      <path d="M58.22,891.262 Q58.22,890.884 58.23,890.348 Q58.241,889.813 58.304,889.246 Q58.367,888.679 58.514,888.122 Q58.661,887.566 58.923,887.125 Q59.186,886.684 59.595,886.411 Q60.005,886.138 60.614,886.138 Q61.223,886.138 61.643,886.411 Q62.063,886.684 62.336,887.125 Q62.609,887.566 62.745,888.122 Q62.882,888.679 62.955,889.246 Q63.029,889.813 63.039,890.348 Q63.05,890.884 63.05,891.262 Q63.05,891.892 63.008,892.784 Q62.966,893.677 62.745,894.506 Q62.525,895.336 62.031,895.924 Q61.538,896.512 60.614,896.512 Q59.711,896.512 59.228,895.924 Q58.745,895.336 58.524,894.506 Q58.304,893.677 58.262,892.784 Q58.22,891.892 58.22,891.262 z M55.238,891.262 Q55.238,893.467 55.668,894.947 Q56.099,896.428 56.834,897.31 Q57.569,898.192 58.545,898.57 Q59.522,898.948 60.614,898.948 Q61.727,898.948 62.703,898.57 Q63.68,898.192 64.425,897.31 Q65.171,896.428 65.601,894.947 Q66.032,893.467 66.032,891.262 Q66.032,889.12 65.601,887.66 Q65.171,886.201 64.425,885.319 Q63.68,884.437 62.703,884.059 Q61.727,883.681 60.614,883.681 Q59.522,883.681 58.545,884.059 Q57.569,884.437 56.834,885.319 Q56.099,886.201 55.668,887.66 Q55.238,889.12 55.238,891.262 z M67.754,895.441 L67.754,898.675 L69.266,898.675 Q69.287,899.011 69.182,899.336 Q69.077,899.662 68.867,899.924 Q68.657,900.187 68.373,900.376 Q68.09,900.565 67.775,900.628 L67.775,902.14 Q68.447,902.035 69.045,901.751 Q69.644,901.468 70.085,901.027 Q70.526,900.586 70.788,899.987 Q71.051,899.389 71.051,898.675 L71.051,895.441 z M75.734,891.262 Q75.734,890.884 75.744,890.348 Q75.755,889.813 75.818,889.246 Q75.881,888.679 76.028,888.122 Q76.175,887.566 76.437,887.125 Q76.7,886.684 77.109,886.411 Q77.519,886.138 78.128,886.138 Q78.737,886.138 79.157,886.411 Q79.577,886.684 79.85,887.125 Q80.123,887.566 80.259,888.122 Q80.396,888.679 80.469,889.246 Q80.543,889.813 80.553,890.348 Q80.564,890.884 80.564,891.262 Q80.564,891.892 80.522,892.784 Q80.48,893.677 80.259,894.506 Q80.039,895.336 79.545,895.924 Q79.052,896.512 78.128,896.512 Q77.225,896.512 76.742,895.924 Q76.259,895.336 76.038,894.506 Q75.818,893.677 75.776,892.784 Q75.734,891.892 75.734,891.262 z M72.752,891.262 Q72.752,893.467 73.182,894.947 Q73.613,896.428 74.348,897.31 Q75.083,898.192 76.059,898.57 Q77.036,898.948 78.128,898.948 Q79.241,898.948 80.217,898.57 Q81.194,898.192 81.939,897.31 Q82.685,896.428 83.115,894.947 Q83.546,893.467 83.546,891.262 Q83.546,889.12 83.115,887.66 Q82.685,886.201 81.939,885.319 Q81.194,884.437 80.217,884.059 Q79.241,883.681 78.128,883.681 Q77.036,883.681 76.059,884.059 Q75.083,884.437 74.348,885.319 Q73.613,886.201 73.182,887.66 Q72.752,889.12 72.752,891.262 z" fill-opacity="0" stroke="#202C4C" stroke-width="1"/>
    </g>
    <path d="M120.5,870.5 L120.5,890.5" fill-opacity="0" stroke="#202C4C" stroke-width="1"/>
    <path d="M70.5,840.5 L90.5,840.5" fill-opacity="0" stroke="#202C4C" stroke-width="1"/>
    <g>
      <text transform="matrix(1, 0, 0, 1, 55.838, 843)">
        <tspan x="-5.838" y="7" font-family="HelveticaNeue-Bold" font-size="21" fill="#202C4C">1</tspan>
      </text>
      <path d="M58.232,850 L58.232,835.3 L55.859,835.3 Q55.733,836.14 55.334,836.707 Q54.935,837.274 54.357,837.62 Q53.78,837.967 53.056,838.104 Q52.331,838.24 51.554,838.219 L51.554,840.466 L55.25,840.466 L55.25,850 z" fill-opacity="0" stroke="#202C4C" stroke-width="1"/>
    </g>
    <g>
      <text transform="matrix(1, 0, 0, 1, 115.838, 903)">
        <tspan x="-5.838" y="7" font-family="HelveticaNeue-Bold" font-size="21" fill="#202C4C">1</tspan>
      </text>
      <path d="M118.232,910 L118.232,895.3 L115.859,895.3 Q115.733,896.14 115.334,896.707 Q114.935,897.274 114.357,897.62 Q113.78,897.967 113.055,898.104 Q112.331,898.24 111.554,898.219 L111.554,900.466 L115.25,900.466 L115.25,910 z" fill-opacity="0" stroke="#202C4C" stroke-width="1"/>
    </g>
    <text transform="matrix(1, 0, 0, 1, 897.945, 909.677)">
      <tspan x="-92.952" y="13" font-family="HelveticaNeue-Bold" font-size="36" fill="#202C4C">2 buildings</tspan>
    </text>
    <g>
      <path d="M400.5,460.5 L400.5,441.5" fill-opacity="0" stroke="#202C4C" stroke-width="6"/>
      <path d="M406.5,441.5 L400.5,425.5 L394.5,441.5 z" fill="#202C4C" fill-opacity="1" stroke="#202C4C" stroke-width="6" stroke-opacity="1"/>
    </g>
    <path d="M80.5,490.5 L1120.5,490.5" fill-opacity="0" stroke="#202C4C" stroke-width="1" stroke-dasharray="10,7"/>
    <g>
      <path d="M120.5,800.5 L520.5,800.5 L520.5,840.5 L120.5,840.5 z" fill="#7DB2D5"/>
      <path d="M120.5,800.5 L520.5,800.5 L520.5,840.5 L120.5,840.5 z" fill-opacity="0" stroke="#202C4C" stroke-width="2"/>
    </g>
    <g>
      <path d="M160.5,720.5 L480.5,720.5 L480.5,760.5 L160.5,760.5 z" fill="#EAA620"/>
      <path d="M160.5,720.5 L480.5,720.5 L480.5,760.5 L160.5,760.5 z" fill-opacity="0" stroke="#202C4C" stroke-width="2"/>
    </g>
    <g>
      <path d="M200.5,640.5 L440.5,640.5 L440.5,680.5 L200.5,680.5 z" fill="#7DB2D5"/>
      <path d="M200.5,640.5 L440.5,640.5 L440.5,680.5 L200.5,680.5 z" fill-opacity="0" stroke="#202C4C" stroke-width="2"/>
    </g>
    <g>
      <path d="M240.5,560.5 L400.5,560.5 L400.5,600.5 L240.5,600.5 z" fill="#EAA620"/>
      <path d="M240.5,560.5 L400.5,560.5 L400.5,600.5 L240.5,600.5 z" fill-opacity="0" stroke="#202C4C" stroke-width="2"/>
    </g>
    <text transform="matrix(1, 0, 0, 1, 320.741, 819.485)">
      <tspan x="-6.672" y="8.5" font-family="HelveticaNeue-Bold" font-size="24" fill="#202C4C">2</tspan>
    </text>
    <text transform="matrix(1, 0, 0, 1, 320.168, 739.371)">
      <tspan x="-6.672" y="8.5" font-family="HelveticaNeue-Bold" font-size="24" fill="#202C4C">1</tspan>
    </text>
    <text transform="matrix(1, 0, 0, 1, 321.304, 658.909)">
      <tspan x="-6.672" y="8.5" font-family="HelveticaNeue-Bold" font-size="24" fill="#202C4C">3</tspan>
    </text>
    <text transform="matrix(1, 0, 0, 1, 320.725, 579.13)">
      <tspan x="-6.672" y="8.5" font-family="HelveticaNeue-Bold" font-size="24" fill="#202C4C">2</tspan>
    </text>
    <g>
      <path d="M760.5,760.5 L1000.5,760.5 L1000.5,880.5 L760.5,880.5 z" fill="#7DB2D5"/>
      <path d="M760.5,760.5 L1000.5,760.5 L1000.5,880.5 L760.5,880.5 z" fill-opacity="0" stroke="#202C4C" stroke-width="2"/>
    </g>
    <g>
      <path d="M680.5,800.5 L1080.5,800.5 L1080.5,880.5 L680.5,880.5 z" fill="#7DB2D5"/>
      <path d="M680.5,800.5 L1080.5,800.5 L1080.5,880.5 L680.5,880.5 z" fill-opacity="0" stroke="#202C4C" stroke-width="2"/>
    </g>
    <text transform="matrix(1, 0, 0, 1, 882.287, 845.408)">
      <tspan x="-6.672" y="8.5" font-family="HelveticaNeue-Bold" font-size="24" fill="#202C4C">2</tspan>
    </text>
    <text transform="matrix(1, 0, 0, 1, 883.401, 780.236)">
      <tspan x="-6.672" y="8.5" font-family="HelveticaNeue-Bold" font-size="24" fill="#202C4C">3</tspan>
    </text>
    <g>
      <path d="M400.5,930.5 L400.679,910.825" fill-opacity="0" stroke="#202C4C" stroke-width="6"/>
      <path d="M406.679,910.88 L400.825,894.826 L394.679,910.771 z" fill="#202C4C" fill-opacity="1" stroke="#202C4C" stroke-width="6" stroke-opacity="1"/>
    </g>
    <g>
      <path d="M80.5,1360.5 L550.6,1360.5" fill-opacity="0" stroke="#202C4C" stroke-width="1.5"/>
      <path d="M550.6,1363.8 L559.4,1360.5 L550.6,1357.2 z" fill="#202C4C" fill-opacity="1" stroke="#202C4C" stroke-width="1.5" stroke-opacity="1"/>
    </g>
    <g>
      <path d="M80.5,1360.5 L80.5,1010.4" fill-opacity="0" stroke="#202C4C" stroke-width="1.5"/>
      <path d="M83.8,1010.4 L80.5,1001.6 L77.2,1010.4 z" fill="#202C4C" fill-opacity="1" stroke="#202C4C" stroke-width="1.5" stroke-opacity="1"/>
    </g>
    <g>
      <path d="M640.5,1360.5 L1108.7,1360.5" fill-opacity="0" stroke="#202C4C" stroke-width="2"/>
      <path d="M1108.7,1364.1 L1118.3,1360.5 L1108.7,1356.9 z" fill="#202C4C" fill-opacity="1" stroke="#202C4C" stroke-width="2" stroke-opacity="1"/>
    </g>
    <g>
      <path d="M640.5,1360.5 L640.5,1012.3" fill-opacity="0" stroke="#202C4C" stroke-width="2"/>
      <path d="M644.1,1012.3 L640.5,1002.7 L636.9,1012.3 z" fill="#202C4C" fill-opacity="1" stroke="#202C4C" stroke-width="2" stroke-opacity="1"/>
    </g>
    <g>
      <text transform="matrix(1, 0, 0, 1, 44.16, 1174.498)">
        <tspan x="-14.16" y="10.5" font-family="HelveticaNeue-Bold" font-size="30" fill="#202C4C">W</tspan>
      </text>
      <path d="M52.47,1184.998 L58.23,1163.578 L53.61,1163.578 L50.1,1178.338 L50.04,1178.338 L46.38,1163.578 L41.97,1163.578 L38.25,1178.158 L38.19,1178.158 L34.8,1163.578 L30.09,1163.578 L35.76,1184.998 L40.53,1184.998 L44.1,1170.418 L44.16,1170.418 L47.79,1184.998 z" fill-opacity="0" stroke="#202C4C" stroke-width="1"/>
    </g>
    <g>
      <text transform="matrix(1, 0, 0, 1, 341.115, 998.5)">
        <tspan x="-11.115" y="10.5" font-family="HelveticaNeue-Bold" font-size="30" fill="#202C4C">N</tspan>
      </text>
      <path d="M332.07,987.58 L332.07,1009 L336.48,1009 L336.48,994.66 L336.54,994.66 L345.45,1009 L350.16,1009 L350.16,987.58 L345.75,987.58 L345.75,1001.95 L345.69,1001.95 L336.75,987.58 z" fill-opacity="0" stroke="#202C4C" stroke-width="1"/>
    </g>
    <g>
      <text transform="matrix(1, 0, 0, 1, 342.328, 1387.323)">
        <tspan x="-9.735" y="10.5" font-family="HelveticaNeue-Bold" font-size="30" fill="#202C4C">S</tspan>
      </text>
      <path d="M337.873,1390.713 L333.313,1390.713 Q333.283,1392.693 334.033,1394.133 Q334.783,1395.573 336.058,1396.503 Q337.333,1397.433 338.998,1397.868 Q340.663,1398.303 342.433,1398.303 Q344.623,1398.303 346.288,1397.793 Q347.953,1397.283 349.078,1396.368 Q350.203,1395.453 350.773,1394.193 Q351.343,1392.933 351.343,1391.463 Q351.343,1389.663 350.578,1388.508 Q349.813,1387.353 348.763,1386.663 Q347.713,1385.973 346.648,1385.658 Q345.583,1385.343 344.983,1385.223 Q342.973,1384.713 341.728,1384.383 Q340.483,1384.053 339.778,1383.723 Q339.073,1383.393 338.833,1383.003 Q338.593,1382.613 338.593,1381.983 Q338.593,1381.293 338.893,1380.843 Q339.193,1380.393 339.658,1380.093 Q340.123,1379.793 340.693,1379.673 Q341.263,1379.553 341.833,1379.553 Q342.703,1379.553 343.438,1379.703 Q344.173,1379.853 344.743,1380.213 Q345.313,1380.573 345.658,1381.203 Q346.003,1381.833 346.063,1382.793 L350.623,1382.793 Q350.623,1380.933 349.918,1379.628 Q349.213,1378.323 348.013,1377.483 Q346.813,1376.643 345.268,1376.268 Q343.723,1375.893 342.043,1375.893 Q340.603,1375.893 339.163,1376.283 Q337.723,1376.673 336.583,1377.483 Q335.443,1378.293 334.738,1379.508 Q334.033,1380.723 334.033,1382.373 Q334.033,1383.843 334.588,1384.878 Q335.143,1385.913 336.043,1386.603 Q336.943,1387.293 338.083,1387.728 Q339.223,1388.163 340.423,1388.463 Q341.593,1388.793 342.733,1389.063 Q343.873,1389.333 344.773,1389.693 Q345.673,1390.053 346.228,1390.593 Q346.783,1391.133 346.783,1392.003 Q346.783,1392.813 346.363,1393.338 Q345.943,1393.863 345.313,1394.163 Q344.683,1394.463 343.963,1394.568 Q343.243,1394.673 342.613,1394.673 Q341.683,1394.673 340.813,1394.448 Q339.943,1394.223 339.298,1393.758 Q338.653,1393.293 338.263,1392.543 Q337.873,1391.793 337.873,1390.713 z" fill-opacity="0" stroke="#202C4C" stroke-width="1"/>
    </g>
    <g>
      <text transform="matrix(1, 0, 0, 1, 549.146, 1170.19)">
        <tspan x="-9.72" y="10.5" font-family="HelveticaNeue-Bold" font-size="30" fill="#202C4C">E</tspan>
      </text>
      <path d="M541.496,1159.27 L541.496,1180.69 L557.756,1180.69 L557.756,1176.73 L546.206,1176.73 L546.206,1171.48 L556.586,1171.48 L556.586,1167.82 L546.206,1167.82 L546.206,1163.23 L557.516,1163.23 L557.516,1159.27 z" fill-opacity="0" stroke="#202C4C" stroke-width="1"/>
    </g>
    <g>
      <text transform="matrix(1, 0, 0, 1, 552.963, 1381.881)">
        <tspan x="-5.639" y="7" font-family="HelveticaNeue-Bold" font-size="21" fill="#202C4C">x</tspan>
      </text>
      <path d="M551.23,1383.169 L547.324,1388.881 L550.663,1388.881 L552.931,1385.458 L555.199,1388.881 L558.601,1388.881 L554.59,1383.106 L558.16,1378.025 L554.863,1378.025 L552.973,1380.859 L551.062,1378.025 L547.66,1378.025 z" fill-opacity="0" stroke="#202C4C" stroke-width="1"/>
    </g>
    <g>
      <text transform="matrix(1, 0, 0, 1, 56.446, 998.795)">
        <tspan x="-5.45" y="7" font-family="HelveticaNeue-Bold" font-size="21" fill="#202C4C">y</tspan>
      </text>
      <path d="M57.485,1007.139 L62.021,994.938 L58.934,994.938 L56.561,1002.372 L56.519,1002.372 L54.062,994.938 L50.891,994.938 L54.692,1005.123 Q54.818,1005.438 54.818,1005.795 Q54.818,1006.278 54.535,1006.677 Q54.251,1007.076 53.663,1007.139 Q53.222,1007.16 52.781,1007.118 Q52.34,1007.076 51.92,1007.034 L51.92,1009.491 Q52.382,1009.533 52.834,1009.564 Q53.285,1009.596 53.747,1009.596 Q55.28,1009.596 56.141,1009.029 Q57.002,1008.462 57.485,1007.139 z" fill-opacity="0" stroke="#202C4C" stroke-width="1"/>
    </g>
    <g>
      <text transform="matrix(1, 0, 0, 1, 69.392, 1371.675)">
        <tspan x="-14.595" y="7" font-family="HelveticaNeue-Bold" font-size="21" fill="#202C4C">0,0</tspan>
      </text>
      <path d="M58.22,1371.262 Q58.22,1370.884 58.23,1370.348 Q58.241,1369.813 58.304,1369.246 Q58.367,1368.679 58.514,1368.122 Q58.661,1367.566 58.923,1367.125 Q59.186,1366.684 59.595,1366.411 Q60.005,1366.138 60.614,1366.138 Q61.223,1366.138 61.643,1366.411 Q62.063,1366.684 62.336,1367.125 Q62.609,1367.566 62.745,1368.122 Q62.882,1368.679 62.955,1369.246 Q63.029,1369.813 63.039,1370.348 Q63.05,1370.884 63.05,1371.262 Q63.05,1371.892 63.008,1372.784 Q62.966,1373.677 62.745,1374.506 Q62.525,1375.336 62.031,1375.924 Q61.538,1376.512 60.614,1376.512 Q59.711,1376.512 59.228,1375.924 Q58.745,1375.336 58.524,1374.506 Q58.304,1373.677 58.262,1372.784 Q58.22,1371.892 58.22,1371.262 z M55.238,1371.262 Q55.238,1373.467 55.668,1374.947 Q56.099,1376.428 56.834,1377.31 Q57.569,1378.192 58.545,1378.57 Q59.522,1378.948 60.614,1378.948 Q61.727,1378.948 62.703,1378.57 Q63.68,1378.192 64.425,1377.31 Q65.171,1376.428 65.601,1374.947 Q66.032,1373.467 66.032,1371.262 Q66.032,1369.12 65.601,1367.66 Q65.171,1366.201 64.425,1365.319 Q63.68,1364.437 62.703,1364.059 Q61.727,1363.681 60.614,1363.681 Q59.522,1363.681 58.545,1364.059 Q57.569,1364.437 56.834,1365.319 Q56.099,1366.201 55.668,1367.66 Q55.238,1369.12 55.238,1371.262 z M67.754,1375.441 L67.754,1378.675 L69.266,1378.675 Q69.287,1379.011 69.182,1379.336 Q69.077,1379.662 68.867,1379.924 Q68.657,1380.187 68.373,1380.376 Q68.09,1380.565 67.775,1380.628 L67.775,1382.14 Q68.447,1382.035 69.045,1381.751 Q69.644,1381.468 70.085,1381.027 Q70.526,1380.586 70.788,1379.987 Q71.051,1379.389 71.051,1378.675 L71.051,1375.441 z M75.734,1371.262 Q75.734,1370.884 75.744,1370.348 Q75.755,1369.813 75.818,1369.246 Q75.881,1368.679 76.028,1368.122 Q76.175,1367.566 76.437,1367.125 Q76.7,1366.684 77.109,1366.411 Q77.519,1366.138 78.128,1366.138 Q78.737,1366.138 79.157,1366.411 Q79.577,1366.684 79.85,1367.125 Q80.123,1367.566 80.259,1368.122 Q80.396,1368.679 80.469,1369.246 Q80.543,1369.813 80.553,1370.348 Q80.564,1370.884 80.564,1371.262 Q80.564,1371.892 80.522,1372.784 Q80.48,1373.677 80.259,1374.506 Q80.039,1375.336 79.545,1375.924 Q79.052,1376.512 78.128,1376.512 Q77.225,1376.512 76.742,1375.924 Q76.259,1375.336 76.038,1374.506 Q75.818,1373.677 75.776,1372.784 Q75.734,1371.892 75.734,1371.262 z M72.752,1371.262 Q72.752,1373.467 73.182,1374.947 Q73.613,1376.428 74.348,1377.31 Q75.083,1378.192 76.059,1378.57 Q77.036,1378.948 78.128,1378.948 Q79.241,1378.948 80.217,1378.57 Q81.194,1378.192 81.939,1377.31 Q82.685,1376.428 83.115,1374.947 Q83.546,1373.467 83.546,1371.262 Q83.546,1369.12 83.115,1367.66 Q82.685,1366.201 81.939,1365.319 Q81.194,1364.437 80.217,1364.059 Q79.241,1363.681 78.128,1363.681 Q77.036,1363.681 76.059,1364.059 Q75.083,1364.437 74.348,1365.319 Q73.613,1366.201 73.182,1367.66 Q72.752,1369.12 72.752,1371.262 z" fill-opacity="0" stroke="#202C4C" stroke-width="1"/>
    </g>
    <path d="M120.5,1350.5 L120.5,1370.5" fill-opacity="0" stroke="#202C4C" stroke-width="1"/>
    <path d="M70.5,1320.5 L90.5,1320.5" fill-opacity="0" stroke="#202C4C" stroke-width="1"/>
    <g>
      <text transform="matrix(1, 0, 0, 1, 55.838, 1323)">
        <tspan x="-5.838" y="7" font-family="HelveticaNeue-Bold" font-size="21" fill="#202C4C">1</tspan>
      </text>
      <path d="M58.232,1330 L58.232,1315.3 L55.859,1315.3 Q55.733,1316.14 55.334,1316.707 Q54.935,1317.274 54.357,1317.62 Q53.78,1317.967 53.056,1318.104 Q52.331,1318.24 51.554,1318.219 L51.554,1320.466 L55.25,1320.466 L55.25,1330 z" fill-opacity="0" stroke="#202C4C" stroke-width="1"/>
    </g>
    <g>
      <text transform="matrix(1, 0, 0, 1, 115.838, 1383)">
        <tspan x="-5.838" y="7" font-family="HelveticaNeue-Bold" font-size="21" fill="#202C4C">1</tspan>
      </text>
      <path d="M118.232,1390 L118.232,1375.3 L115.859,1375.3 Q115.733,1376.14 115.334,1376.707 Q114.935,1377.274 114.357,1377.62 Q113.78,1377.967 113.055,1378.104 Q112.331,1378.24 111.554,1378.219 L111.554,1380.466 L115.25,1380.466 L115.25,1390 z" fill-opacity="0" stroke="#202C4C" stroke-width="1"/>
    </g>
    <text transform="matrix(1, 0, 0, 1, 897.945, 1389.677)">
      <tspan x="-92.952" y="13" font-family="HelveticaNeue-Bold" font-size="36" fill="#202C4C">4 buildings</tspan>
    </text>
    <g>
      <path d="M400.5,1410.5 L400.679,1390.825" fill-opacity="0" stroke="#202C4C" stroke-width="6"/>
      <path d="M406.679,1390.88 L400.825,1374.826 L394.679,1390.771 z" fill="#202C4C" fill-opacity="1" stroke="#202C4C" stroke-width="6" stroke-opacity="1"/>
    </g>
    <path d="M80.5,940.5 L1120.5,940.5" fill-opacity="0" stroke="#202C4C" stroke-width="1" stroke-dasharray="10,7"/>
    <text transform="matrix(1, 0, 0, 1, 139.469, 825.515)">
      <tspan x="-14.595" y="5.5" font-family="HelveticaNeue-Bold" font-size="21" fill="#202C4C">1,1</tspan>
    </text>
    <text transform="matrix(1, 0, 0, 1, 493.352, 814.5)">
      <tspan x="-20.433" y="5.5" font-family="HelveticaNeue-Bold" font-size="21" fill="#202C4C">11,2</tspan>
    </text>
    <text transform="matrix(1, 0, 0, 1, 179.865, 744.863)">
      <tspan x="-14.595" y="5.5" font-family="HelveticaNeue-Bold" font-size="21" fill="#202C4C">2,3</tspan>
    </text>
    <text transform="matrix(1, 0, 0, 1, 453.352, 734.5)">
      <tspan x="-20.433" y="5.5" font-family="HelveticaNeue-Bold" font-size="21" fill="#202C4C">10,4</tspan>
    </text>
    <text transform="matrix(1, 0, 0, 1, 216.68, 664.5)">
      <tspan x="-14.595" y="5.5" font-family="HelveticaNeue-Bold" font-size="21" fill="#202C4C">3,5</tspan>
    </text>
    <text transform="matrix(1, 0, 0, 1, 416.68, 654.5)">
      <tspan x="-14.595" y="5.5" font-family="HelveticaNeue-Bold" font-size="21" fill="#202C4C">9,6</tspan>
    </text>
    <text transform="matrix(1, 0, 0, 1, 260.813, 587.847)">
      <tspan x="-14.595" y="5.5" font-family="HelveticaNeue-Bold" font-size="21" fill="#202C4C">4,7</tspan>
    </text>
    <text transform="matrix(1, 0, 0, 1, 378.898, 574.554)">
      <tspan x="-14.595" y="5.5" font-family="HelveticaNeue-Bold" font-size="21" fill="#202C4C">8,8</tspan>
    </text>
    <g>
      <path d="M120.5,1240.5 L200.5,1240.5 L200.5,1320.5 L120.5,1320.5 z" fill="#7DB2D5"/>
      <path d="M120.5,1240.5 L200.5,1240.5 L200.5,1320.5 L120.5,1320.5 z" fill-opacity="0" stroke="#202C4C" stroke-width="2"/>
    </g>
    <g>
      <path d="M120.5,1120.5 L200.5,1120.5 L200.5,1200.5 L120.5,1200.5 z" fill="#EAA620"/>
      <path d="M120.5,1120.5 L200.5,1120.5 L200.5,1200.5 L120.5,1200.5 z" fill-opacity="0" stroke="#202C4C" stroke-width="2"/>
    </g>
    <g>
      <path d="M280.5,1240.5 L360.5,1240.5 L360.5,1320.5 L280.5,1320.5 z" fill="#7DB2D5"/>
      <path d="M280.5,1240.5 L360.5,1240.5 L360.5,1320.5 L280.5,1320.5 z" fill-opacity="0" stroke="#202C4C" stroke-width="2"/>
    </g>
    <g>
      <path d="M440.5,1240.5 L520.5,1240.5 L520.5,1320.5 L440.5,1320.5 z" fill="#7DB2D5"/>
      <path d="M440.5,1240.5 L520.5,1240.5 L520.5,1320.5 L440.5,1320.5 z" fill-opacity="0" stroke="#202C4C" stroke-width="2"/>
    </g>
    <g>
      <path d="M440.5,1120.5 L520.5,1120.5 L520.5,1200.5 L440.5,1200.5 z" fill="#EAA620"/>
      <path d="M440.5,1120.5 L520.5,1120.5 L520.5,1200.5 L440.5,1200.5 z" fill-opacity="0" stroke="#202C4C" stroke-width="2"/>
    </g>
    <g>
      <path d="M280.5,1120.5 L360.5,1120.5 L360.5,1200.5 L280.5,1200.5 z" fill="#EAA620"/>
      <path d="M280.5,1120.5 L360.5,1120.5 L360.5,1200.5 L280.5,1200.5 z" fill-opacity="0" stroke="#202C4C" stroke-width="2"/>
    </g>
    <g>
      <path d="M120.5,1040.5 L520.5,1040.5 L520.5,1080.5 L120.5,1080.5 z" fill="#7DB2D5"/>
      <path d="M120.5,1040.5 L520.5,1040.5 L520.5,1080.5 L120.5,1080.5 z" fill-opacity="0" stroke="#202C4C" stroke-width="2"/>
    </g>
    <text transform="matrix(1, 0, 0, 1, 159.874, 1279.178)">
      <tspan x="-6.672" y="8.5" font-family="HelveticaNeue-Bold" font-size="24" fill="#202C4C">6</tspan>
    </text>
    <text transform="matrix(1, 0, 0, 1, 319.789, 1281.2)">
      <tspan x="-6.672" y="8.5" font-family="HelveticaNeue-Bold" font-size="24" fill="#202C4C">6</tspan>
    </text>
    <text transform="matrix(1, 0, 0, 1, 480.912, 1281.295)">
      <tspan x="-6.672" y="8.5" font-family="HelveticaNeue-Bold" font-size="24" fill="#202C4C">6</tspan>
    </text>
    <text transform="matrix(1, 0, 0, 1, 161.176, 1158.446)">
      <tspan x="-6.672" y="8.5" font-family="HelveticaNeue-Bold" font-size="24" fill="#202C4C">6</tspan>
    </text>
    <text transform="matrix(1, 0, 0, 1, 320.456, 1157.593)">
      <tspan x="-6.672" y="8.5" font-family="HelveticaNeue-Bold" font-size="24" fill="#202C4C">6</tspan>
    </text>
    <text transform="matrix(1, 0, 0, 1, 481.315, 1157.586)">
      <tspan x="-6.672" y="8.5" font-family="HelveticaNeue-Bold" font-size="24" fill="#202C4C">6</tspan>
    </text>
    <text transform="matrix(1, 0, 0, 1, 333.812, 1061.241)">
      <tspan x="-23.352" y="7.783" font-family="HelveticaNeue-Bold" font-size="24" fill="#202C4C">3.25</tspan>
    </text>
    <text transform="matrix(1, 0, 0, 1, 138.437, 1308.214)">
      <tspan x="-14.595" y="7" font-family="HelveticaNeue-Bold" font-size="21" fill="#202C4C">1,1</tspan>
    </text>
    <text transform="matrix(1, 0, 0, 1, 183.274, 1253.242)">
      <tspan x="-14.595" y="7" font-family="HelveticaNeue-Bold" font-size="21" fill="#202C4C">3,3</tspan>
    </text>
    <text transform="matrix(1, 0, 0, 1, 136.821, 1188.338)">
      <tspan x="-14.595" y="7" font-family="HelveticaNeue-Bold" font-size="21" fill="#202C4C">1,4</tspan>
    </text>
    <text transform="matrix(1, 0, 0, 1, 183.089, 1133.009)">
      <tspan x="-14.595" y="7" font-family="HelveticaNeue-Bold" font-size="21" fill="#202C4C">3,6</tspan>
    </text>
    <text transform="matrix(1, 0, 0, 1, 136.363, 1068.789)">
      <tspan x="-14.595" y="7" font-family="HelveticaNeue-Bold" font-size="21" fill="#202C4C">1,7</tspan>
    </text>
    <text transform="matrix(1, 0, 0, 1, 297.342, 1310.001)">
      <tspan x="-14.595" y="7" font-family="HelveticaNeue-Bold" font-size="21" fill="#202C4C">5,1</tspan>
    </text>
    <text transform="matrix(1, 0, 0, 1, 343.318, 1253.9)">
      <tspan x="-14.595" y="7" font-family="HelveticaNeue-Bold" font-size="21" fill="#202C4C">7,3</tspan>
    </text>
    <text transform="matrix(1, 0, 0, 1, 299.292, 1188.526)">
      <tspan x="-14.595" y="7" font-family="HelveticaNeue-Bold" font-size="21" fill="#202C4C">5,4</tspan>
    </text>
    <text transform="matrix(1, 0, 0, 1, 342.135, 1132.469)">
      <tspan x="-14.595" y="7" font-family="HelveticaNeue-Bold" font-size="21" fill="#202C4C">7,6</tspan>
    </text>
    <text transform="matrix(1, 0, 0, 1, 458.807, 1309.974)">
      <tspan x="-14.595" y="7" font-family="HelveticaNeue-Bold" font-size="21" fill="#202C4C">9,1</tspan>
    </text>
    <text transform="matrix(1, 0, 0, 1, 496.844, 1253.369)">
      <tspan x="-20.433" y="7" font-family="HelveticaNeue-Bold" font-size="21" fill="#202C4C">11,3</tspan>
    </text>
    <text transform="matrix(1, 0, 0, 1, 457.797, 1188.474)">
      <tspan x="-14.595" y="7" font-family="HelveticaNeue-Bold" font-size="21" fill="#202C4C">9,4</tspan>
    </text>
    <text transform="matrix(1, 0, 0, 1, 497.149, 1133.617)">
      <tspan x="-20.433" y="7" font-family="HelveticaNeue-Bold" font-size="21" fill="#202C4C">11,6</tspan>
    </text>
    <text transform="matrix(1, 0, 0, 1, 495.669, 1053.342)">
      <tspan x="-20.433" y="7" font-family="HelveticaNeue-Bold" font-size="21" fill="#202C4C">11,8</tspan>
    </text>
    <g>
      <path d="M680.5,1230.5 L1080.5,1230.5 L1080.5,1360.5 L680.5,1360.5 z" fill="#7DB2D5"/>
      <path d="M680.5,1230.5 L1080.5,1230.5 L1080.5,1360.5 L680.5,1360.5 z" fill-opacity="0" stroke="#202C4C" stroke-width="2"/>
    </g>
    <g>
      <path d="M680.5,1120.5 L760.5,1120.5 L760.5,1360.5 L680.5,1360.5 z" fill="#7DB2D5"/>
      <path d="M680.5,1120.5 L760.5,1120.5 L760.5,1360.5 L680.5,1360.5 z" fill-opacity="0" stroke="#202C4C" stroke-width="2"/>
    </g>
    <g>
      <path d="M840.5,1120.5 L920.5,1120.5 L920.5,1360.5 L840.5,1360.5 z" fill="#7DB2D5"/>
      <path d="M840.5,1120.5 L920.5,1120.5 L920.5,1360.5 L840.5,1360.5 z" fill-opacity="0" stroke="#202C4C" stroke-width="2"/>
    </g>
    <g>
      <path d="M1000.5,1120.5 L1080.5,1120.5 L1080.5,1360.5 L1000.5,1360.5 z" fill="#7DB2D5"/>
      <path d="M1000.5,1120.5 L1080.5,1120.5 L1080.5,1360.5 L1000.5,1360.5 z" fill-opacity="0" stroke="#202C4C" stroke-width="2"/>
    </g>
    <text transform="matrix(1, 0, 0, 1, 1042.116, 1234.251)">
      <tspan x="-6.672" y="8.5" font-family="HelveticaNeue-Bold" font-size="24" fill="#202C4C">6</tspan>
    </text>
    <text transform="matrix(1, 0, 0, 1, 880.647, 1234.609)">
      <tspan x="-6.672" y="8.5" font-family="HelveticaNeue-Bold" font-size="24" fill="#202C4C">6</tspan>
    </text>
    <text transform="matrix(1, 0, 0, 1, 716.672, 1234.5)">
      <tspan x="-6.672" y="8.5" font-family="HelveticaNeue-Bold" font-size="24" fill="#202C4C">6</tspan>
    </text>
    <text transform="matrix(1, 0, 0, 1, 800.385, 1271.788)">
      <tspan x="-23.352" y="7.783" font-family="HelveticaNeue-Bold" font-size="24" fill="#202C4C">3.25</tspan>
    </text>
  </g>
  <defs/>
</svg>
