<?xml version="1.0" encoding="UTF-8"?>
<!DOCTYPE svg PUBLIC "-//W3C//DTD SVG 1.1//EN" "http://www.w3.org/Graphics/SVG/1.1/DTD/svg11.dtd">
<svg version="1.1" xmlns="http://www.w3.org/2000/svg" xmlns:xlink="http://www.w3.org/1999/xlink" x="0px" y="0px" width="1200" height="840" viewBox="0, 0, 1200, 840">
  <g id="Background">
    <rect x="0" y="0" width="1200" height="840" fill="#000000" fill-opacity="0"/>
  </g>
  <g id="Layer 1">
    <g>
      <path d="M60.5,180.5 L120.5,180.5 L120.5,240.5 L60.5,240.5 z" fill="#82D1F5"/>
      <path d="M60.5,180.5 L120.5,180.5 L120.5,240.5 L60.5,240.5 z" fill-opacity="0" stroke="#B2B3B3" stroke-width="2"/>
    </g>
    <g>
      <path d="M120.5,180.5 L180.5,180.5 L180.5,240.5 L120.5,240.5 z" fill="#82D1F5"/>
      <path d="M120.5,180.5 L180.5,180.5 L180.5,240.5 L120.5,240.5 z" fill-opacity="0" stroke="#B2B3B3" stroke-width="2"/>
    </g>
    <g>
      <path d="M180.5,180.5 L240.5,180.5 L240.5,240.5 L180.5,240.5 z" fill="#82D1F5"/>
      <path d="M180.5,180.5 L240.5,180.5 L240.5,240.5 L180.5,240.5 z" fill-opacity="0" stroke="#B2B3B3" stroke-width="2"/>
    </g>
    <g>
      <path d="M240.5,180.5 L300.5,180.5 L300.5,240.5 L240.5,240.5 z" fill="#82D1F5"/>
      <path d="M240.5,180.5 L300.5,180.5 L300.5,240.5 L240.5,240.5 z" fill-opacity="0" stroke="#B2B3B3" stroke-width="2"/>
    </g>
    <g>
      <path d="M300.5,180.5 L360.5,180.5 L360.5,240.5 L300.5,240.5 z" fill="#82D1F5"/>
      <path d="M300.5,180.5 L360.5,180.5 L360.5,240.5 L300.5,240.5 z" fill-opacity="0" stroke="#B2B3B3" stroke-width="2"/>
    </g>
    <g>
      <path d="M60.5,240.5 L120.5,240.5 L120.5,300.5 L60.5,300.5 z" fill="#82D1F5"/>
      <path d="M60.5,240.5 L120.5,240.5 L120.5,300.5 L60.5,300.5 z" fill-opacity="0" stroke="#B2B3B3" stroke-width="2"/>
    </g>
    <g>
      <path d="M120.5,240.5 L180.5,240.5 L180.5,300.5 L120.5,300.5 z" fill="#82D1F5"/>
      <path d="M120.5,240.5 L180.5,240.5 L180.5,300.5 L120.5,300.5 z" fill-opacity="0" stroke="#B2B3B3" stroke-width="2"/>
    </g>
    <g>
      <path d="M180.5,240.5 L240.5,240.5 L240.5,300.5 L180.5,300.5 z" fill="#FABA00"/>
      <path d="M180.5,240.5 L240.5,240.5 L240.5,300.5 L180.5,300.5 z" fill-opacity="0" stroke="#B2B3B3" stroke-width="2"/>
    </g>
    <g>
      <path d="M240.5,240.5 L300.5,240.5 L300.5,300.5 L240.5,300.5 z" fill="#FABA00"/>
      <path d="M240.5,240.5 L300.5,240.5 L300.5,300.5 L240.5,300.5 z" fill-opacity="0" stroke="#B2B3B3" stroke-width="2"/>
    </g>
    <g>
      <path d="M300.5,240.5 L360.5,240.5 L360.5,300.5 L300.5,300.5 z" fill="#82D1F5"/>
      <path d="M300.5,240.5 L360.5,240.5 L360.5,300.5 L300.5,300.5 z" fill-opacity="0" stroke="#B2B3B3" stroke-width="2"/>
    </g>
    <g>
      <path d="M60.5,300.5 L120.5,300.5 L120.5,360.5 L60.5,360.5 z" fill="#82D1F5"/>
      <path d="M60.5,300.5 L120.5,300.5 L120.5,360.5 L60.5,360.5 z" fill-opacity="0" stroke="#B2B3B3" stroke-width="2"/>
    </g>
    <g>
      <path d="M120.5,300.5 L180.5,300.5 L180.5,360.5 L120.5,360.5 z" fill="#82D1F5"/>
      <path d="M120.5,300.5 L180.5,300.5 L180.5,360.5 L120.5,360.5 z" fill-opacity="0" stroke="#B2B3B3" stroke-width="2"/>
    </g>
    <g>
      <path d="M180.5,300.5 L240.5,300.5 L240.5,360.5 L180.5,360.5 z" fill="#82D1F5"/>
      <path d="M180.5,300.5 L240.5,300.5 L240.5,360.5 L180.5,360.5 z" fill-opacity="0" stroke="#B2B3B3" stroke-width="2"/>
    </g>
    <g>
      <path d="M240.5,300.5 L300.5,300.5 L300.5,360.5 L240.5,360.5 z" fill="#FABA00"/>
      <path d="M240.5,300.5 L300.5,300.5 L300.5,360.5 L240.5,360.5 z" fill-opacity="0" stroke="#B2B3B3" stroke-width="2"/>
    </g>
    <g>
      <path d="M300.5,300.5 L360.5,300.5 L360.5,360.5 L300.5,360.5 z" fill="#82D1F5"/>
      <path d="M300.5,300.5 L360.5,300.5 L360.5,360.5 L300.5,360.5 z" fill-opacity="0" stroke="#B2B3B3" stroke-width="2"/>
    </g>
    <g>
      <path d="M60.5,420.5 L120.5,420.5 L120.5,480.5 L60.5,480.5 z" fill="#82D1F5"/>
      <path d="M60.5,420.5 L120.5,420.5 L120.5,480.5 L60.5,480.5 z" fill-opacity="0" stroke="#B2B3B3" stroke-width="2"/>
    </g>
    <g>
      <path d="M120.5,420.5 L180.5,420.5 L180.5,480.5 L120.5,480.5 z" fill="#82D1F5"/>
      <path d="M120.5,420.5 L180.5,420.5 L180.5,480.5 L120.5,480.5 z" fill-opacity="0" stroke="#B2B3B3" stroke-width="2"/>
    </g>
    <g>
      <path d="M180.5,420.5 L240.5,420.5 L240.5,480.5 L180.5,480.5 z" fill="#82D1F5"/>
      <path d="M180.5,420.5 L240.5,420.5 L240.5,480.5 L180.5,480.5 z" fill-opacity="0" stroke="#B2B3B3" stroke-width="2"/>
    </g>
    <g>
      <path d="M240.5,420.5 L300.5,420.5 L300.5,480.5 L240.5,480.5 z" fill="#82D1F5"/>
      <path d="M240.5,420.5 L300.5,420.5 L300.5,480.5 L240.5,480.5 z" fill-opacity="0" stroke="#B2B3B3" stroke-width="2"/>
    </g>
    <g>
      <path d="M300.5,420.5 L360.5,420.5 L360.5,480.5 L300.5,480.5 z" fill="#82D1F5"/>
      <path d="M300.5,420.5 L360.5,420.5 L360.5,480.5 L300.5,480.5 z" fill-opacity="0" stroke="#B2B3B3" stroke-width="2"/>
    </g>
    <g>
      <path d="M60.5,360.5 L120.5,360.5 L120.5,420.5 L60.5,420.5 z" fill="#82D1F5"/>
      <path d="M60.5,360.5 L120.5,360.5 L120.5,420.5 L60.5,420.5 z" fill-opacity="0" stroke="#B2B3B3" stroke-width="2"/>
    </g>
    <g>
      <path d="M120.5,360.5 L180.5,360.5 L180.5,420.5 L120.5,420.5 z" fill="#FABA00"/>
      <path d="M120.5,360.5 L180.5,360.5 L180.5,420.5 L120.5,420.5 z" fill-opacity="0" stroke="#B2B3B3" stroke-width="2"/>
    </g>
    <g>
      <path d="M180.5,360.5 L240.5,360.5 L240.5,420.5 L180.5,420.5 z" fill="#82D1F5"/>
      <path d="M180.5,360.5 L240.5,360.5 L240.5,420.5 L180.5,420.5 z" fill-opacity="0" stroke="#B2B3B3" stroke-width="2"/>
    </g>
    <g>
      <path d="M240.5,360.5 L300.5,360.5 L300.5,420.5 L240.5,420.5 z" fill="#82D1F5"/>
      <path d="M240.5,360.5 L300.5,360.5 L300.5,420.5 L240.5,420.5 z" fill-opacity="0" stroke="#B2B3B3" stroke-width="2"/>
    </g>
    <g>
      <path d="M300.5,360.5 L360.5,360.5 L360.5,420.5 L300.5,420.5 z" fill="#82D1F5"/>
      <path d="M300.5,360.5 L360.5,360.5 L360.5,420.5 L300.5,420.5 z" fill-opacity="0" stroke="#B2B3B3" stroke-width="2"/>
    </g>
    <g>
      <path d="M420.5,240.5 L480.5,240.5 L480.5,300.5 L420.5,300.5 z" fill="#82D1F5"/>
      <path d="M420.5,240.5 L480.5,240.5 L480.5,300.5 L420.5,300.5 z" fill-opacity="0" stroke="#B2B3B3" stroke-width="2"/>
    </g>
    <g>
      <path d="M480.5,240.5 L540.5,240.5 L540.5,300.5 L480.5,300.5 z" fill="#82D1F5"/>
      <path d="M480.5,240.5 L540.5,240.5 L540.5,300.5 L480.5,300.5 z" fill-opacity="0" stroke="#B2B3B3" stroke-width="2"/>
    </g>
    <g>
      <path d="M540.5,240.5 L600.5,240.5 L600.5,300.5 L540.5,300.5 z" fill="#82D1F5"/>
      <path d="M540.5,240.5 L600.5,240.5 L600.5,300.5 L540.5,300.5 z" fill-opacity="0" stroke="#B2B3B3" stroke-width="2"/>
    </g>
    <g>
      <path d="M600.5,240.5 L660.5,240.5 L660.5,300.5 L600.5,300.5 z" fill="#82D1F5"/>
      <path d="M600.5,240.5 L660.5,240.5 L660.5,300.5 L600.5,300.5 z" fill-opacity="0" stroke="#B2B3B3" stroke-width="2"/>
    </g>
    <g>
      <path d="M660.5,240.5 L720.5,240.5 L720.5,300.5 L660.5,300.5 z" fill="#82D1F5"/>
      <path d="M660.5,240.5 L720.5,240.5 L720.5,300.5 L660.5,300.5 z" fill-opacity="0" stroke="#B2B3B3" stroke-width="2"/>
    </g>
    <g>
      <path d="M420.5,300.5 L480.5,300.5 L480.5,360.5 L420.5,360.5 z" fill="#82D1F5"/>
      <path d="M420.5,300.5 L480.5,300.5 L480.5,360.5 L420.5,360.5 z" fill-opacity="0" stroke="#B2B3B3" stroke-width="2"/>
    </g>
    <g>
      <path d="M480.5,300.5 L540.5,300.5 L540.5,360.5 L480.5,360.5 z" fill="#82D1F5"/>
      <path d="M480.5,300.5 L540.5,300.5 L540.5,360.5 L480.5,360.5 z" fill-opacity="0" stroke="#B2B3B3" stroke-width="2"/>
    </g>
    <g>
      <path d="M540.5,300.5 L600.5,300.5 L600.5,360.5 L540.5,360.5 z" fill="#FABA00"/>
      <path d="M540.5,300.5 L600.5,300.5 L600.5,360.5 L540.5,360.5 z" fill-opacity="0" stroke="#B2B3B3" stroke-width="2"/>
    </g>
    <g>
      <path d="M600.5,300.5 L660.5,300.5 L660.5,360.5 L600.5,360.5 z" fill="#FABA00"/>
      <path d="M600.5,300.5 L660.5,300.5 L660.5,360.5 L600.5,360.5 z" fill-opacity="0" stroke="#B2B3B3" stroke-width="2"/>
    </g>
    <g>
      <path d="M660.5,300.5 L720.5,300.5 L720.5,360.5 L660.5,360.5 z" fill="#82D1F5"/>
      <path d="M660.5,300.5 L720.5,300.5 L720.5,360.5 L660.5,360.5 z" fill-opacity="0" stroke="#B2B3B3" stroke-width="2"/>
    </g>
    <g>
      <path d="M420.5,360.5 L480.5,360.5 L480.5,420.5 L420.5,420.5 z" fill="#82D1F5"/>
      <path d="M420.5,360.5 L480.5,360.5 L480.5,420.5 L420.5,420.5 z" fill-opacity="0" stroke="#B2B3B3" stroke-width="2"/>
    </g>
    <g>
      <path d="M480.5,360.5 L540.5,360.5 L540.5,420.5 L480.5,420.5 z" fill="#82D1F5"/>
      <path d="M480.5,360.5 L540.5,360.5 L540.5,420.5 L480.5,420.5 z" fill-opacity="0" stroke="#B2B3B3" stroke-width="2"/>
    </g>
    <g>
      <path d="M540.5,360.5 L600.5,360.5 L600.5,420.5 L540.5,420.5 z" fill="#82D1F5"/>
      <path d="M540.5,360.5 L600.5,360.5 L600.5,420.5 L540.5,420.5 z" fill-opacity="0" stroke="#B2B3B3" stroke-width="2"/>
    </g>
    <g>
      <path d="M600.5,360.5 L660.5,360.5 L660.5,420.5 L600.5,420.5 z" fill="#FABA00"/>
      <path d="M600.5,360.5 L660.5,360.5 L660.5,420.5 L600.5,420.5 z" fill-opacity="0" stroke="#B2B3B3" stroke-width="2"/>
    </g>
    <g>
      <path d="M660.5,360.5 L720.5,360.5 L720.5,420.5 L660.5,420.5 z" fill="#82D1F5"/>
      <path d="M660.5,360.5 L720.5,360.5 L720.5,420.5 L660.5,420.5 z" fill-opacity="0" stroke="#B2B3B3" stroke-width="2"/>
    </g>
    <g>
      <path d="M420.5,420.5 L480.5,420.5 L480.5,480.5 L420.5,480.5 z" fill="#82D1F5"/>
      <path d="M420.5,420.5 L480.5,420.5 L480.5,480.5 L420.5,480.5 z" fill-opacity="0" stroke="#B2B3B3" stroke-width="2"/>
    </g>
    <g>
      <path d="M480.5,420.5 L540.5,420.5 L540.5,480.5 L480.5,480.5 z" fill="#FABA00"/>
      <path d="M480.5,420.5 L540.5,420.5 L540.5,480.5 L480.5,480.5 z" fill-opacity="0" stroke="#B2B3B3" stroke-width="2"/>
    </g>
    <g>
      <path d="M540.5,420.5 L600.5,420.5 L600.5,480.5 L540.5,480.5 z" fill="#FABA00"/>
      <path d="M540.5,420.5 L600.5,420.5 L600.5,480.5 L540.5,480.5 z" fill-opacity="0" stroke="#B2B3B3" stroke-width="2"/>
    </g>
    <g>
      <path d="M600.5,420.5 L660.5,420.5 L660.5,480.5 L600.5,480.5 z" fill="#82D1F5"/>
      <path d="M600.5,420.5 L660.5,420.5 L660.5,480.5 L600.5,480.5 z" fill-opacity="0" stroke="#B2B3B3" stroke-width="2"/>
    </g>
    <g>
      <path d="M660.5,420.5 L720.5,420.5 L720.5,480.5 L660.5,480.5 z" fill="#82D1F5"/>
      <path d="M660.5,420.5 L720.5,420.5 L720.5,480.5 L660.5,480.5 z" fill-opacity="0" stroke="#B2B3B3" stroke-width="2"/>
    </g>
    <text transform="matrix(1, 0, 0, 1, 240.797, 298.5)">
      <tspan x="-12.797" y="13.5" font-family="Verdana-Bold" font-size="36" fill="#294270">3</tspan>
    </text>
    <text transform="matrix(1, 0, 0, 1, 600.797, 418.5)">
      <tspan x="-12.797" y="13.5" font-family="Verdana-Bold" font-size="36" fill="#294270">5</tspan>
    </text>
    <g>
      <path d="M840.5,60.5 L900.5,60.5 L900.5,120.5 L840.5,120.5 z" fill="#82D1F5"/>
      <path d="M840.5,60.5 L900.5,60.5 L900.5,120.5 L840.5,120.5 z" fill-opacity="0" stroke="#B2B3B3" stroke-width="2"/>
    </g>
    <g>
      <path d="M900.5,60.5 L960.5,60.5 L960.5,120.5 L900.5,120.5 z" fill="#82D1F5"/>
      <path d="M900.5,60.5 L960.5,60.5 L960.5,120.5 L900.5,120.5 z" fill-opacity="0" stroke="#B2B3B3" stroke-width="2"/>
    </g>
    <g>
      <path d="M960.5,60.5 L1020.5,60.5 L1020.5,120.5 L960.5,120.5 z" fill="#82D1F5"/>
      <path d="M960.5,60.5 L1020.5,60.5 L1020.5,120.5 L960.5,120.5 z" fill-opacity="0" stroke="#B2B3B3" stroke-width="2"/>
    </g>
    <g>
      <path d="M1020.5,60.5 L1080.5,60.5 L1080.5,120.5 L1020.5,120.5 z" fill="#82D1F5"/>
      <path d="M1020.5,60.5 L1080.5,60.5 L1080.5,120.5 L1020.5,120.5 z" fill-opacity="0" stroke="#B2B3B3" stroke-width="2"/>
    </g>
    <g>
      <path d="M1080.5,60.5 L1140.5,60.5 L1140.5,120.5 L1080.5,120.5 z" fill="#82D1F5"/>
      <path d="M1080.5,60.5 L1140.5,60.5 L1140.5,120.5 L1080.5,120.5 z" fill-opacity="0" stroke="#B2B3B3" stroke-width="2"/>
    </g>
    <g>
      <path d="M840.5,120.5 L900.5,120.5 L900.5,180.5 L840.5,180.5 z" fill="#82D1F5"/>
      <path d="M840.5,120.5 L900.5,120.5 L900.5,180.5 L840.5,180.5 z" fill-opacity="0" stroke="#B2B3B3" stroke-width="2"/>
    </g>
    <g>
      <path d="M900.5,120.5 L960.5,120.5 L960.5,180.5 L900.5,180.5 z" fill="#82D1F5"/>
      <path d="M900.5,120.5 L960.5,120.5 L960.5,180.5 L900.5,180.5 z" fill-opacity="0" stroke="#B2B3B3" stroke-width="2"/>
    </g>
    <g>
      <path d="M960.5,120.5 L1020.5,120.5 L1020.5,180.5 L960.5,180.5 z" fill="#FABA00"/>
      <path d="M960.5,120.5 L1020.5,120.5 L1020.5,180.5 L960.5,180.5 z" fill-opacity="0" stroke="#B2B3B3" stroke-width="2"/>
    </g>
    <g>
      <path d="M1020.5,120.5 L1080.5,120.5 L1080.5,180.5 L1020.5,180.5 z" fill="#FABA00"/>
      <path d="M1020.5,120.5 L1080.5,120.5 L1080.5,180.5 L1020.5,180.5 z" fill-opacity="0" stroke="#B2B3B3" stroke-width="2"/>
    </g>
    <g>
      <path d="M1080.5,120.5 L1140.5,120.5 L1140.5,180.5 L1080.5,180.5 z" fill="#FABA00"/>
      <path d="M1080.5,120.5 L1140.5,120.5 L1140.5,180.5 L1080.5,180.5 z" fill-opacity="0" stroke="#B2B3B3" stroke-width="2"/>
    </g>
    <g>
      <path d="M840.5,180.5 L900.5,180.5 L900.5,240.5 L840.5,240.5 z" fill="#82D1F5"/>
      <path d="M840.5,180.5 L900.5,180.5 L900.5,240.5 L840.5,240.5 z" fill-opacity="0" stroke="#B2B3B3" stroke-width="2"/>
    </g>
    <g>
      <path d="M900.5,180.5 L960.5,180.5 L960.5,240.5 L900.5,240.5 z" fill="#82D1F5"/>
      <path d="M900.5,180.5 L960.5,180.5 L960.5,240.5 L900.5,240.5 z" fill-opacity="0" stroke="#B2B3B3" stroke-width="2"/>
    </g>
    <g>
      <path d="M960.5,180.5 L1020.5,180.5 L1020.5,240.5 L960.5,240.5 z" fill="#82D1F5"/>
      <path d="M960.5,180.5 L1020.5,180.5 L1020.5,240.5 L960.5,240.5 z" fill-opacity="0" stroke="#B2B3B3" stroke-width="2"/>
    </g>
    <g>
      <path d="M1020.5,180.5 L1080.5,180.5 L1080.5,240.5 L1020.5,240.5 z" fill="#82D1F5"/>
      <path d="M1020.5,180.5 L1080.5,180.5 L1080.5,240.5 L1020.5,240.5 z" fill-opacity="0" stroke="#B2B3B3" stroke-width="2"/>
    </g>
    <g>
      <path d="M1080.5,180.5 L1140.5,180.5 L1140.5,240.5 L1080.5,240.5 z" fill="#82D1F5"/>
      <path d="M1080.5,180.5 L1140.5,180.5 L1140.5,240.5 L1080.5,240.5 z" fill-opacity="0" stroke="#B2B3B3" stroke-width="2"/>
    </g>
    <g>
      <path d="M840.5,300.5 L900.5,300.5 L900.5,360.5 L840.5,360.5 z" fill="#82D1F5"/>
      <path d="M840.5,300.5 L900.5,300.5 L900.5,360.5 L840.5,360.5 z" fill-opacity="0" stroke="#B2B3B3" stroke-width="2"/>
    </g>
    <g>
      <path d="M900.5,300.5 L960.5,300.5 L960.5,360.5 L900.5,360.5 z" fill="#82D1F5"/>
      <path d="M900.5,300.5 L960.5,300.5 L960.5,360.5 L900.5,360.5 z" fill-opacity="0" stroke="#B2B3B3" stroke-width="2"/>
    </g>
    <g>
      <path d="M960.5,300.5 L1020.5,300.5 L1020.5,360.5 L960.5,360.5 z" fill="#82D1F5"/>
      <path d="M960.5,300.5 L1020.5,300.5 L1020.5,360.5 L960.5,360.5 z" fill-opacity="0" stroke="#B2B3B3" stroke-width="2"/>
    </g>
    <g>
      <path d="M1020.5,300.5 L1080.5,300.5 L1080.5,360.5 L1020.5,360.5 z" fill="#82D1F5"/>
      <path d="M1020.5,300.5 L1080.5,300.5 L1080.5,360.5 L1020.5,360.5 z" fill-opacity="0" stroke="#B2B3B3" stroke-width="2"/>
    </g>
    <g>
      <path d="M1080.5,300.5 L1140.5,300.5 L1140.5,360.5 L1080.5,360.5 z" fill="#82D1F5"/>
      <path d="M1080.5,300.5 L1140.5,300.5 L1140.5,360.5 L1080.5,360.5 z" fill-opacity="0" stroke="#B2B3B3" stroke-width="2"/>
    </g>
    <g>
      <path d="M840.5,240.5 L900.5,240.5 L900.5,300.5 L840.5,300.5 z" fill="#82D1F5"/>
      <path d="M840.5,240.5 L900.5,240.5 L900.5,300.5 L840.5,300.5 z" fill-opacity="0" stroke="#B2B3B3" stroke-width="2"/>
    </g>
    <g>
      <path d="M900.5,240.5 L960.5,240.5 L960.5,300.5 L900.5,300.5 z" fill="#FABA00"/>
      <path d="M900.5,240.5 L960.5,240.5 L960.5,300.5 L900.5,300.5 z" fill-opacity="0" stroke="#B2B3B3" stroke-width="2"/>
    </g>
    <g>
      <path d="M960.5,240.5 L1020.5,240.5 L1020.5,300.5 L960.5,300.5 z" fill="#FABA00"/>
      <path d="M960.5,240.5 L1020.5,240.5 L1020.5,300.5 L960.5,300.5 z" fill-opacity="0" stroke="#B2B3B3" stroke-width="2"/>
    </g>
    <g>
      <path d="M1020.5,240.5 L1080.5,240.5 L1080.5,300.5 L1020.5,300.5 z" fill="#FABA00"/>
      <path d="M1020.5,240.5 L1080.5,240.5 L1080.5,300.5 L1020.5,300.5 z" fill-opacity="0" stroke="#B2B3B3" stroke-width="2"/>
    </g>
    <g>
      <path d="M1080.5,240.5 L1140.5,240.5 L1140.5,300.5 L1080.5,300.5 z" fill="#82D1F5"/>
      <path d="M1080.5,240.5 L1140.5,240.5 L1140.5,300.5 L1080.5,300.5 z" fill-opacity="0" stroke="#B2B3B3" stroke-width="2"/>
    </g>
    <g>
      <path d="M780.5,60.5 L840.5,60.5 L840.5,120.5 L780.5,120.5 z" fill="#82D1F5"/>
      <path d="M780.5,60.5 L840.5,60.5 L840.5,120.5 L780.5,120.5 z" fill-opacity="0" stroke="#B2B3B3" stroke-width="2"/>
    </g>
    <g>
      <path d="M780.5,120.5 L840.5,120.5 L840.5,180.5 L780.5,180.5 z" fill="#FABA00"/>
      <path d="M780.5,120.5 L840.5,120.5 L840.5,180.5 L780.5,180.5 z" fill-opacity="0" stroke="#B2B3B3" stroke-width="2"/>
    </g>
    <g>
      <path d="M780.5,180.5 L840.5,180.5 L840.5,240.5 L780.5,240.5 z" fill="#FABA00"/>
      <path d="M780.5,180.5 L840.5,180.5 L840.5,240.5 L780.5,240.5 z" fill-opacity="0" stroke="#B2B3B3" stroke-width="2"/>
    </g>
    <g>
      <path d="M780.5,300.5 L840.5,300.5 L840.5,360.5 L780.5,360.5 z" fill="#82D1F5"/>
      <path d="M780.5,300.5 L840.5,300.5 L840.5,360.5 L780.5,360.5 z" fill-opacity="0" stroke="#B2B3B3" stroke-width="2"/>
    </g>
    <g>
      <path d="M780.5,240.5 L840.5,240.5 L840.5,300.5 L780.5,300.5 z" fill="#82D1F5"/>
      <path d="M780.5,240.5 L840.5,240.5 L840.5,300.5 L780.5,300.5 z" fill-opacity="0" stroke="#B2B3B3" stroke-width="2"/>
    </g>
    <g>
      <path d="M840.5,420.5 L900.5,420.5 L900.5,480.5 L840.5,480.5 z" fill="#82D1F5"/>
      <path d="M840.5,420.5 L900.5,420.5 L900.5,480.5 L840.5,480.5 z" fill-opacity="0" stroke="#B2B3B3" stroke-width="2"/>
    </g>
    <g>
      <path d="M900.5,420.5 L960.5,420.5 L960.5,480.5 L900.5,480.5 z" fill="#82D1F5"/>
      <path d="M900.5,420.5 L960.5,420.5 L960.5,480.5 L900.5,480.5 z" fill-opacity="0" stroke="#B2B3B3" stroke-width="2"/>
    </g>
    <g>
      <path d="M960.5,420.5 L1020.5,420.5 L1020.5,480.5 L960.5,480.5 z" fill="#82D1F5"/>
      <path d="M960.5,420.5 L1020.5,420.5 L1020.5,480.5 L960.5,480.5 z" fill-opacity="0" stroke="#B2B3B3" stroke-width="2"/>
    </g>
    <g>
      <path d="M1020.5,420.5 L1080.5,420.5 L1080.5,480.5 L1020.5,480.5 z" fill="#82D1F5"/>
      <path d="M1020.5,420.5 L1080.5,420.5 L1080.5,480.5 L1020.5,480.5 z" fill-opacity="0" stroke="#B2B3B3" stroke-width="2"/>
    </g>
    <g>
      <path d="M1080.5,420.5 L1140.5,420.5 L1140.5,480.5 L1080.5,480.5 z" fill="#82D1F5"/>
      <path d="M1080.5,420.5 L1140.5,420.5 L1140.5,480.5 L1080.5,480.5 z" fill-opacity="0" stroke="#B2B3B3" stroke-width="2"/>
    </g>
    <g>
      <path d="M840.5,360.5 L900.5,360.5 L900.5,420.5 L840.5,420.5 z" fill="#FABA00"/>
      <path d="M840.5,360.5 L900.5,360.5 L900.5,420.5 L840.5,420.5 z" fill-opacity="0" stroke="#B2B3B3" stroke-width="2"/>
    </g>
    <g>
      <path d="M900.5,360.5 L960.5,360.5 L960.5,420.5 L900.5,420.5 z" fill="#FABA00"/>
      <path d="M900.5,360.5 L960.5,360.5 L960.5,420.5 L900.5,420.5 z" fill-opacity="0" stroke="#B2B3B3" stroke-width="2"/>
    </g>
    <g>
      <path d="M960.5,360.5 L1020.5,360.5 L1020.5,420.5 L960.5,420.5 z" fill="#FABA00"/>
      <path d="M960.5,360.5 L1020.5,360.5 L1020.5,420.5 L960.5,420.5 z" fill-opacity="0" stroke="#B2B3B3" stroke-width="2"/>
    </g>
    <g>
      <path d="M1020.5,360.5 L1080.5,360.5 L1080.5,420.5 L1020.5,420.5 z" fill="#FABA00"/>
      <path d="M1020.5,360.5 L1080.5,360.5 L1080.5,420.5 L1020.5,420.5 z" fill-opacity="0" stroke="#B2B3B3" stroke-width="2"/>
    </g>
    <g>
      <path d="M1080.5,360.5 L1140.5,360.5 L1140.5,420.5 L1080.5,420.5 z" fill="#82D1F5"/>
      <path d="M1080.5,360.5 L1140.5,360.5 L1140.5,420.5 L1080.5,420.5 z" fill-opacity="0" stroke="#B2B3B3" stroke-width="2"/>
    </g>
    <g>
      <path d="M780.5,420.5 L840.5,420.5 L840.5,480.5 L780.5,480.5 z" fill="#82D1F5"/>
      <path d="M780.5,420.5 L840.5,420.5 L840.5,480.5 L780.5,480.5 z" fill-opacity="0" stroke="#B2B3B3" stroke-width="2"/>
    </g>
    <g>
      <path d="M780.5,360.5 L840.5,360.5 L840.5,420.5 L780.5,420.5 z" fill="#82D1F5"/>
      <path d="M780.5,360.5 L840.5,360.5 L840.5,420.5 L780.5,420.5 z" fill-opacity="0" stroke="#B2B3B3" stroke-width="2"/>
    </g>
    <text transform="matrix(1, 0, 0, 1, 808.797, 178.5)">
      <tspan x="-12.797" y="13.5" font-family="Verdana-Bold" font-size="36" fill="#294270">2</tspan>
    </text>
    <text transform="matrix(1, 0, 0, 1, 187.5, 621.5)">
      <tspan x="-127.5" y="-92.5" font-family="Verdana-Bold" font-size="24" fill="#294270">Input: </tspan>
      <tspan x="-127.5" y="-63.5" font-family="Verdana-Bold" font-size="24" fill="#294270">[[0, 0, 0, 0, 0],</tspan>
      <tspan x="-127.5" y="-34.5" font-family="Verdana-Bold" font-size="24" fill="#294270"> [0, 0, 1, 1, 0],</tspan>
      <tspan x="-127.5" y="-5.5" font-family="Verdana-Bold" font-size="24" fill="#294270"> [0, 0, 0, 1, 0],</tspan>
      <tspan x="-127.5" y="23.5" font-family="Verdana-Bold" font-size="24" fill="#294270"> [0, 1, 0, 0, 0],</tspan>
      <tspan x="-127.5" y="52.5" font-family="Verdana-Bold" font-size="24" fill="#294270"> [0, 0, 0, 0, 0]]</tspan>
      <tspan x="-127.5" y="110.5" font-family="Verdana-Bold" font-size="24" fill="#294270">Output: [1, 3]</tspan>
    </text>
    <text transform="matrix(1, 0, 0, 1, 570, 694)">
      <tspan x="-150" y="-165" font-family="Verdana-Bold" font-size="24" fill="#294270">Input:</tspan>
      <tspan x="-150" y="-136" font-family="Verdana-Bold" font-size="24" fill="#294270">[[0, 0, 0, 0, 0],</tspan>
      <tspan x="-150" y="-107" font-family="Verdana-Bold" font-size="24" fill="#294270"> [0, 0, 1, 1, 0],</tspan>
      <tspan x="-150" y="-78" font-family="Verdana-Bold" font-size="24" fill="#294270"> [0, 0, 0, 1, 0],</tspan>
      <tspan x="-150" y="-49" font-family="Verdana-Bold" font-size="24" fill="#294270"> [0, 1, 0, 0, 0]]</tspan>
      <tspan x="-150" y="9" font-family="Verdana-Bold" font-size="24" fill="#294270">Output: [5]</tspan>
    </text>
    <text transform="matrix(1, 0, 0, 1, 960, 650.5)">
      <tspan x="-180" y="-121.5" font-family="Verdana-Bold" font-size="24" fill="#294270">Input: </tspan>
      <tspan x="-180" y="-92.5" font-family="Verdana-Bold" font-size="24" fill="#294270">[[0, 0, 0, 0, 0, 0],</tspan>
      <tspan x="-180" y="-63.5" font-family="Verdana-Bold" font-size="24" fill="#294270"> [1, 0, 0, 1, 1, 1],</tspan>
      <tspan x="-180" y="-34.5" font-family="Verdana-Bold" font-size="24" fill="#294270"> [1, 0, 0, 0, 0, 0],</tspan>
      <tspan x="-180" y="-5.5" font-family="Verdana-Bold" font-size="24" fill="#294270"> [0, 0, 1, 1, 1, 0],</tspan>
      <tspan x="-180" y="23.5" font-family="Verdana-Bold" font-size="24" fill="#294270"> [0, 0, 0, 0, 0, 0],</tspan>
      <tspan x="-180" y="52.5" font-family="Verdana-Bold" font-size="24" fill="#294270"> [0, 1, 1, 1, 1, 0],</tspan>
      <tspan x="-180" y="81.5" font-family="Verdana-Bold" font-size="24" fill="#294270"> [0, 0, 0, 0, 0, 0]]</tspan>
      <tspan x="-180" y="139.5" font-family="Verdana-Bold" font-size="24" fill="#294270">Output: [2, 3, 3, 4]</tspan>
    </text>
    <g>
      <path d="M70.5,200.5 C70.5,197.739 72.739,195.5 75.5,195.5 M75.5,195.5 C75.5,198.261 77.739,200.5 80.5,200.5 M85.5,195.5 C82.739,195.5 80.5,197.739 80.5,200.5 M85.5,195.5 C85.5,198.261 87.739,200.5 90.5,200.5 M95.5,195.5 C92.739,195.5 90.5,197.739 90.5,200.5 M95.5,195.5 C95.5,198.261 97.739,200.5 100.5,200.5" fill-opacity="0" stroke="#6BA3CF" stroke-width="2" stroke-linecap="round" stroke-linejoin="round"/>
      <path d="M80.5,220.5 C80.5,217.739 82.739,215.5 85.5,215.5 M85.5,215.5 C85.5,218.261 87.739,220.5 90.5,220.5 M95.5,215.5 C92.739,215.5 90.5,217.739 90.5,220.5 M95.5,215.5 C95.5,218.261 97.739,220.5 100.5,220.5 M105.5,215.5 C102.739,215.5 100.5,217.739 100.5,220.5 M105.5,215.5 C105.5,218.261 107.739,220.5 110.5,220.5" fill-opacity="0" stroke="#6BA3CF" stroke-width="2" stroke-linecap="round" stroke-linejoin="round"/>
    </g>
    <path d="M130.5,200.5 C130.5,197.739 132.739,195.5 135.5,195.5 M135.5,195.5 C135.5,198.261 137.739,200.5 140.5,200.5 M145.5,195.5 C142.739,195.5 140.5,197.739 140.5,200.5 M145.5,195.5 C145.5,198.261 147.739,200.5 150.5,200.5 M155.5,195.5 C152.739,195.5 150.5,197.739 150.5,200.5 M155.5,195.5 C155.5,198.261 157.739,200.5 160.5,200.5" fill-opacity="0" stroke="#6BA3CF" stroke-width="2" stroke-linecap="round" stroke-linejoin="round"/>
    <path d="M140.5,220.5 C140.5,217.739 142.739,215.5 145.5,215.5 M145.5,215.5 C145.5,218.261 147.739,220.5 150.5,220.5 M155.5,215.5 C152.739,215.5 150.5,217.739 150.5,220.5 M155.5,215.5 C155.5,218.261 157.739,220.5 160.5,220.5 M165.5,215.5 C162.739,215.5 160.5,217.739 160.5,220.5 M165.5,215.5 C165.5,218.261 167.739,220.5 170.5,220.5" fill-opacity="0" stroke="#6BA3CF" stroke-width="2" stroke-linecap="round" stroke-linejoin="round"/>
    <path d="M190.5,200.5 C190.5,197.739 192.739,195.5 195.5,195.5 M195.5,195.5 C195.5,198.261 197.739,200.5 200.5,200.5 M205.5,195.5 C202.739,195.5 200.5,197.739 200.5,200.5 M205.5,195.5 C205.5,198.261 207.739,200.5 210.5,200.5 M215.5,195.5 C212.739,195.5 210.5,197.739 210.5,200.5 M215.5,195.5 C215.5,198.261 217.739,200.5 220.5,200.5" fill-opacity="0" stroke="#6BA3CF" stroke-width="2" stroke-linecap="round" stroke-linejoin="round"/>
    <path d="M200.5,220.5 C200.5,217.739 202.739,215.5 205.5,215.5 M205.5,215.5 C205.5,218.261 207.739,220.5 210.5,220.5 M215.5,215.5 C212.739,215.5 210.5,217.739 210.5,220.5 M215.5,215.5 C215.5,218.261 217.739,220.5 220.5,220.5 M225.5,215.5 C222.739,215.5 220.5,217.739 220.5,220.5 M225.5,215.5 C225.5,218.261 227.739,220.5 230.5,220.5" fill-opacity="0" stroke="#6BA3CF" stroke-width="2" stroke-linecap="round" stroke-linejoin="round"/>
    <path d="M250.5,200.5 C250.5,197.739 252.739,195.5 255.5,195.5 M255.5,195.5 C255.5,198.261 257.739,200.5 260.5,200.5 M265.5,195.5 C262.739,195.5 260.5,197.739 260.5,200.5 M265.5,195.5 C265.5,198.261 267.739,200.5 270.5,200.5 M275.5,195.5 C272.739,195.5 270.5,197.739 270.5,200.5 M275.5,195.5 C275.5,198.261 277.739,200.5 280.5,200.5" fill-opacity="0" stroke="#6BA3CF" stroke-width="2" stroke-linecap="round" stroke-linejoin="round"/>
    <path d="M260.5,220.5 C260.5,217.739 262.739,215.5 265.5,215.5 M265.5,215.5 C265.5,218.261 267.739,220.5 270.5,220.5 M275.5,215.5 C272.739,215.5 270.5,217.739 270.5,220.5 M275.5,215.5 C275.5,218.261 277.739,220.5 280.5,220.5 M285.5,215.5 C282.739,215.5 280.5,217.739 280.5,220.5 M285.5,215.5 C285.5,218.261 287.739,220.5 290.5,220.5" fill-opacity="0" stroke="#6BA3CF" stroke-width="2" stroke-linecap="round" stroke-linejoin="round"/>
    <path d="M310.5,200.5 C310.5,197.739 312.739,195.5 315.5,195.5 M315.5,195.5 C315.5,198.261 317.739,200.5 320.5,200.5 M325.5,195.5 C322.739,195.5 320.5,197.739 320.5,200.5 M325.5,195.5 C325.5,198.261 327.739,200.5 330.5,200.5 M335.5,195.5 C332.739,195.5 330.5,197.739 330.5,200.5 M335.5,195.5 C335.5,198.261 337.739,200.5 340.5,200.5" fill-opacity="0" stroke="#6BA3CF" stroke-width="2" stroke-linecap="round" stroke-linejoin="round"/>
    <path d="M320.5,220.5 C320.5,217.739 322.739,215.5 325.5,215.5 M325.5,215.5 C325.5,218.261 327.739,220.5 330.5,220.5 M335.5,215.5 C332.739,215.5 330.5,217.739 330.5,220.5 M335.5,215.5 C335.5,218.261 337.739,220.5 340.5,220.5 M345.5,215.5 C342.739,215.5 340.5,217.739 340.5,220.5 M345.5,215.5 C345.5,218.261 347.739,220.5 350.5,220.5" fill-opacity="0" stroke="#6BA3CF" stroke-width="2" stroke-linecap="round" stroke-linejoin="round"/>
    <path d="M70.5,260.5 C70.5,257.739 72.739,255.5 75.5,255.5 M75.5,255.5 C75.5,258.261 77.739,260.5 80.5,260.5 M85.5,255.5 C82.739,255.5 80.5,257.739 80.5,260.5 M85.5,255.5 C85.5,258.261 87.739,260.5 90.5,260.5 M95.5,255.5 C92.739,255.5 90.5,257.739 90.5,260.5 M95.5,255.5 C95.5,258.261 97.739,260.5 100.5,260.5" fill-opacity="0" stroke="#6BA3CF" stroke-width="2" stroke-linecap="round" stroke-linejoin="round"/>
    <path d="M80.5,280.5 C80.5,277.739 82.739,275.5 85.5,275.5 M85.5,275.5 C85.5,278.261 87.739,280.5 90.5,280.5 M95.5,275.5 C92.739,275.5 90.5,277.739 90.5,280.5 M95.5,275.5 C95.5,278.261 97.739,280.5 100.5,280.5 M105.5,275.5 C102.739,275.5 100.5,277.739 100.5,280.5 M105.5,275.5 C105.5,278.261 107.739,280.5 110.5,280.5" fill-opacity="0" stroke="#6BA3CF" stroke-width="2" stroke-linecap="round" stroke-linejoin="round"/>
    <path d="M130.5,260.5 C130.5,257.739 132.739,255.5 135.5,255.5 M135.5,255.5 C135.5,258.261 137.739,260.5 140.5,260.5 M145.5,255.5 C142.739,255.5 140.5,257.739 140.5,260.5 M145.5,255.5 C145.5,258.261 147.739,260.5 150.5,260.5 M155.5,255.5 C152.739,255.5 150.5,257.739 150.5,260.5 M155.5,255.5 C155.5,258.261 157.739,260.5 160.5,260.5" fill-opacity="0" stroke="#6BA3CF" stroke-width="2" stroke-linecap="round" stroke-linejoin="round"/>
    <path d="M140.5,280.5 C140.5,277.739 142.739,275.5 145.5,275.5 M145.5,275.5 C145.5,278.261 147.739,280.5 150.5,280.5 M155.5,275.5 C152.739,275.5 150.5,277.739 150.5,280.5 M155.5,275.5 C155.5,278.261 157.739,280.5 160.5,280.5 M165.5,275.5 C162.739,275.5 160.5,277.739 160.5,280.5 M165.5,275.5 C165.5,278.261 167.739,280.5 170.5,280.5" fill-opacity="0" stroke="#6BA3CF" stroke-width="2" stroke-linecap="round" stroke-linejoin="round"/>
    <path d="M310.5,260.5 C310.5,257.739 312.739,255.5 315.5,255.5 M315.5,255.5 C315.5,258.261 317.739,260.5 320.5,260.5 M325.5,255.5 C322.739,255.5 320.5,257.739 320.5,260.5 M325.5,255.5 C325.5,258.261 327.739,260.5 330.5,260.5 M335.5,255.5 C332.739,255.5 330.5,257.739 330.5,260.5 M335.5,255.5 C335.5,258.261 337.739,260.5 340.5,260.5" fill-opacity="0" stroke="#6BA3CF" stroke-width="2" stroke-linecap="round" stroke-linejoin="round"/>
    <path d="M320.5,280.5 C320.5,277.739 322.739,275.5 325.5,275.5 M325.5,275.5 C325.5,278.261 327.739,280.5 330.5,280.5 M335.5,275.5 C332.739,275.5 330.5,277.739 330.5,280.5 M335.5,275.5 C335.5,278.261 337.739,280.5 340.5,280.5 M345.5,275.5 C342.739,275.5 340.5,277.739 340.5,280.5 M345.5,275.5 C345.5,278.261 347.739,280.5 350.5,280.5" fill-opacity="0" stroke="#6BA3CF" stroke-width="2" stroke-linecap="round" stroke-linejoin="round"/>
    <g>
      <path d="M70.5,320.5 C70.5,317.739 72.739,315.5 75.5,315.5 M75.5,315.5 C75.5,318.261 77.739,320.5 80.5,320.5 M85.5,315.5 C82.739,315.5 80.5,317.739 80.5,320.5 M85.5,315.5 C85.5,318.261 87.739,320.5 90.5,320.5 M95.5,315.5 C92.739,315.5 90.5,317.739 90.5,320.5 M95.5,315.5 C95.5,318.261 97.739,320.5 100.5,320.5" fill-opacity="0" stroke="#6BA3CF" stroke-width="2" stroke-linecap="round" stroke-linejoin="round"/>
      <path d="M80.5,340.5 C80.5,337.739 82.739,335.5 85.5,335.5 M85.5,335.5 C85.5,338.261 87.739,340.5 90.5,340.5 M95.5,335.5 C92.739,335.5 90.5,337.739 90.5,340.5 M95.5,335.5 C95.5,338.261 97.739,340.5 100.5,340.5 M105.5,335.5 C102.739,335.5 100.5,337.739 100.5,340.5 M105.5,335.5 C105.5,338.261 107.739,340.5 110.5,340.5" fill-opacity="0" stroke="#6BA3CF" stroke-width="2" stroke-linecap="round" stroke-linejoin="round"/>
    </g>
    <g>
      <path d="M130.5,320.5 C130.5,317.739 132.739,315.5 135.5,315.5 M135.5,315.5 C135.5,318.261 137.739,320.5 140.5,320.5 M145.5,315.5 C142.739,315.5 140.5,317.739 140.5,320.5 M145.5,315.5 C145.5,318.261 147.739,320.5 150.5,320.5 M155.5,315.5 C152.739,315.5 150.5,317.739 150.5,320.5 M155.5,315.5 C155.5,318.261 157.739,320.5 160.5,320.5" fill-opacity="0" stroke="#6BA3CF" stroke-width="2" stroke-linecap="round" stroke-linejoin="round"/>
      <path d="M140.5,340.5 C140.5,337.739 142.739,335.5 145.5,335.5 M145.5,335.5 C145.5,338.261 147.739,340.5 150.5,340.5 M155.5,335.5 C152.739,335.5 150.5,337.739 150.5,340.5 M155.5,335.5 C155.5,338.261 157.739,340.5 160.5,340.5 M165.5,335.5 C162.739,335.5 160.5,337.739 160.5,340.5 M165.5,335.5 C165.5,338.261 167.739,340.5 170.5,340.5" fill-opacity="0" stroke="#6BA3CF" stroke-width="2" stroke-linecap="round" stroke-linejoin="round"/>
    </g>
    <g>
      <path d="M190.5,320.5 C190.5,317.739 192.739,315.5 195.5,315.5 M195.5,315.5 C195.5,318.261 197.739,320.5 200.5,320.5 M205.5,315.5 C202.739,315.5 200.5,317.739 200.5,320.5 M205.5,315.5 C205.5,318.261 207.739,320.5 210.5,320.5 M215.5,315.5 C212.739,315.5 210.5,317.739 210.5,320.5 M215.5,315.5 C215.5,318.261 217.739,320.5 220.5,320.5" fill-opacity="0" stroke="#6BA3CF" stroke-width="2" stroke-linecap="round" stroke-linejoin="round"/>
      <path d="M200.5,340.5 C200.5,337.739 202.739,335.5 205.5,335.5 M205.5,335.5 C205.5,338.261 207.739,340.5 210.5,340.5 M215.5,335.5 C212.739,335.5 210.5,337.739 210.5,340.5 M215.5,335.5 C215.5,338.261 217.739,340.5 220.5,340.5 M225.5,335.5 C222.739,335.5 220.5,337.739 220.5,340.5 M225.5,335.5 C225.5,338.261 227.739,340.5 230.5,340.5" fill-opacity="0" stroke="#6BA3CF" stroke-width="2" stroke-linecap="round" stroke-linejoin="round"/>
    </g>
    <g>
      <path d="M310.5,320.5 C310.5,317.739 312.739,315.5 315.5,315.5 M315.5,315.5 C315.5,318.261 317.739,320.5 320.5,320.5 M325.5,315.5 C322.739,315.5 320.5,317.739 320.5,320.5 M325.5,315.5 C325.5,318.261 327.739,320.5 330.5,320.5 M335.5,315.5 C332.739,315.5 330.5,317.739 330.5,320.5 M335.5,315.5 C335.5,318.261 337.739,320.5 340.5,320.5" fill-opacity="0" stroke="#6BA3CF" stroke-width="2" stroke-linecap="round" stroke-linejoin="round"/>
      <path d="M320.5,340.5 C320.5,337.739 322.739,335.5 325.5,335.5 M325.5,335.5 C325.5,338.261 327.739,340.5 330.5,340.5 M335.5,335.5 C332.739,335.5 330.5,337.739 330.5,340.5 M335.5,335.5 C335.5,338.261 337.739,340.5 340.5,340.5 M345.5,335.5 C342.739,335.5 340.5,337.739 340.5,340.5 M345.5,335.5 C345.5,338.261 347.739,340.5 350.5,340.5" fill-opacity="0" stroke="#6BA3CF" stroke-width="2" stroke-linecap="round" stroke-linejoin="round"/>
    </g>
    <g>
      <path d="M70.5,380.5 C70.5,377.739 72.739,375.5 75.5,375.5 M75.5,375.5 C75.5,378.261 77.739,380.5 80.5,380.5 M85.5,375.5 C82.739,375.5 80.5,377.739 80.5,380.5 M85.5,375.5 C85.5,378.261 87.739,380.5 90.5,380.5 M95.5,375.5 C92.739,375.5 90.5,377.739 90.5,380.5 M95.5,375.5 C95.5,378.261 97.739,380.5 100.5,380.5" fill-opacity="0" stroke="#6BA3CF" stroke-width="2" stroke-linecap="round" stroke-linejoin="round"/>
      <path d="M80.5,400.5 C80.5,397.739 82.739,395.5 85.5,395.5 M85.5,395.5 C85.5,398.261 87.739,400.5 90.5,400.5 M95.5,395.5 C92.739,395.5 90.5,397.739 90.5,400.5 M95.5,395.5 C95.5,398.261 97.739,400.5 100.5,400.5 M105.5,395.5 C102.739,395.5 100.5,397.739 100.5,400.5 M105.5,395.5 C105.5,398.261 107.739,400.5 110.5,400.5" fill-opacity="0" stroke="#6BA3CF" stroke-width="2" stroke-linecap="round" stroke-linejoin="round"/>
    </g>
    <g>
      <path d="M250.5,380.5 C250.5,377.739 252.739,375.5 255.5,375.5 M255.5,375.5 C255.5,378.261 257.739,380.5 260.5,380.5 M265.5,375.5 C262.739,375.5 260.5,377.739 260.5,380.5 M265.5,375.5 C265.5,378.261 267.739,380.5 270.5,380.5 M275.5,375.5 C272.739,375.5 270.5,377.739 270.5,380.5 M275.5,375.5 C275.5,378.261 277.739,380.5 280.5,380.5" fill-opacity="0" stroke="#6BA3CF" stroke-width="2" stroke-linecap="round" stroke-linejoin="round"/>
      <path d="M260.5,400.5 C260.5,397.739 262.739,395.5 265.5,395.5 M265.5,395.5 C265.5,398.261 267.739,400.5 270.5,400.5 M275.5,395.5 C272.739,395.5 270.5,397.739 270.5,400.5 M275.5,395.5 C275.5,398.261 277.739,400.5 280.5,400.5 M285.5,395.5 C282.739,395.5 280.5,397.739 280.5,400.5 M285.5,395.5 C285.5,398.261 287.739,400.5 290.5,400.5" fill-opacity="0" stroke="#6BA3CF" stroke-width="2" stroke-linecap="round" stroke-linejoin="round"/>
    </g>
    <g>
      <path d="M190.5,380.5 C190.5,377.739 192.739,375.5 195.5,375.5 M195.5,375.5 C195.5,378.261 197.739,380.5 200.5,380.5 M205.5,375.5 C202.739,375.5 200.5,377.739 200.5,380.5 M205.5,375.5 C205.5,378.261 207.739,380.5 210.5,380.5 M215.5,375.5 C212.739,375.5 210.5,377.739 210.5,380.5 M215.5,375.5 C215.5,378.261 217.739,380.5 220.5,380.5" fill-opacity="0" stroke="#6BA3CF" stroke-width="2" stroke-linecap="round" stroke-linejoin="round"/>
      <path d="M200.5,400.5 C200.5,397.739 202.739,395.5 205.5,395.5 M205.5,395.5 C205.5,398.261 207.739,400.5 210.5,400.5 M215.5,395.5 C212.739,395.5 210.5,397.739 210.5,400.5 M215.5,395.5 C215.5,398.261 217.739,400.5 220.5,400.5 M225.5,395.5 C222.739,395.5 220.5,397.739 220.5,400.5 M225.5,395.5 C225.5,398.261 227.739,400.5 230.5,400.5" fill-opacity="0" stroke="#6BA3CF" stroke-width="2" stroke-linecap="round" stroke-linejoin="round"/>
    </g>
    <g>
      <path d="M310.5,380.5 C310.5,377.739 312.739,375.5 315.5,375.5 M315.5,375.5 C315.5,378.261 317.739,380.5 320.5,380.5 M325.5,375.5 C322.739,375.5 320.5,377.739 320.5,380.5 M325.5,375.5 C325.5,378.261 327.739,380.5 330.5,380.5 M335.5,375.5 C332.739,375.5 330.5,377.739 330.5,380.5 M335.5,375.5 C335.5,378.261 337.739,380.5 340.5,380.5" fill-opacity="0" stroke="#6BA3CF" stroke-width="2" stroke-linecap="round" stroke-linejoin="round"/>
      <path d="M320.5,400.5 C320.5,397.739 322.739,395.5 325.5,395.5 M325.5,395.5 C325.5,398.261 327.739,400.5 330.5,400.5 M335.5,395.5 C332.739,395.5 330.5,397.739 330.5,400.5 M335.5,395.5 C335.5,398.261 337.739,400.5 340.5,400.5 M345.5,395.5 C342.739,395.5 340.5,397.739 340.5,400.5 M345.5,395.5 C345.5,398.261 347.739,400.5 350.5,400.5" fill-opacity="0" stroke="#6BA3CF" stroke-width="2" stroke-linecap="round" stroke-linejoin="round"/>
    </g>
    <g>
      <path d="M70.5,440.5 C70.5,437.739 72.739,435.5 75.5,435.5 M75.5,435.5 C75.5,438.261 77.739,440.5 80.5,440.5 M85.5,435.5 C82.739,435.5 80.5,437.739 80.5,440.5 M85.5,435.5 C85.5,438.261 87.739,440.5 90.5,440.5 M95.5,435.5 C92.739,435.5 90.5,437.739 90.5,440.5 M95.5,435.5 C95.5,438.261 97.739,440.5 100.5,440.5" fill-opacity="0" stroke="#6BA3CF" stroke-width="2" stroke-linecap="round" stroke-linejoin="round"/>
      <path d="M80.5,460.5 C80.5,457.739 82.739,455.5 85.5,455.5 M85.5,455.5 C85.5,458.261 87.739,460.5 90.5,460.5 M95.5,455.5 C92.739,455.5 90.5,457.739 90.5,460.5 M95.5,455.5 C95.5,458.261 97.739,460.5 100.5,460.5 M105.5,455.5 C102.739,455.5 100.5,457.739 100.5,460.5 M105.5,455.5 C105.5,458.261 107.739,460.5 110.5,460.5" fill-opacity="0" stroke="#6BA3CF" stroke-width="2" stroke-linecap="round" stroke-linejoin="round"/>
    </g>
    <g>
      <path d="M130.5,440.5 C130.5,437.739 132.739,435.5 135.5,435.5 M135.5,435.5 C135.5,438.261 137.739,440.5 140.5,440.5 M145.5,435.5 C142.739,435.5 140.5,437.739 140.5,440.5 M145.5,435.5 C145.5,438.261 147.739,440.5 150.5,440.5 M155.5,435.5 C152.739,435.5 150.5,437.739 150.5,440.5 M155.5,435.5 C155.5,438.261 157.739,440.5 160.5,440.5" fill-opacity="0" stroke="#6BA3CF" stroke-width="2" stroke-linecap="round" stroke-linejoin="round"/>
      <path d="M140.5,460.5 C140.5,457.739 142.739,455.5 145.5,455.5 M145.5,455.5 C145.5,458.261 147.739,460.5 150.5,460.5 M155.5,455.5 C152.739,455.5 150.5,457.739 150.5,460.5 M155.5,455.5 C155.5,458.261 157.739,460.5 160.5,460.5 M165.5,455.5 C162.739,455.5 160.5,457.739 160.5,460.5 M165.5,455.5 C165.5,458.261 167.739,460.5 170.5,460.5" fill-opacity="0" stroke="#6BA3CF" stroke-width="2" stroke-linecap="round" stroke-linejoin="round"/>
    </g>
    <g>
      <path d="M190.5,440.5 C190.5,437.739 192.739,435.5 195.5,435.5 M195.5,435.5 C195.5,438.261 197.739,440.5 200.5,440.5 M205.5,435.5 C202.739,435.5 200.5,437.739 200.5,440.5 M205.5,435.5 C205.5,438.261 207.739,440.5 210.5,440.5 M215.5,435.5 C212.739,435.5 210.5,437.739 210.5,440.5 M215.5,435.5 C215.5,438.261 217.739,440.5 220.5,440.5" fill-opacity="0" stroke="#6BA3CF" stroke-width="2" stroke-linecap="round" stroke-linejoin="round"/>
      <path d="M200.5,460.5 C200.5,457.739 202.739,455.5 205.5,455.5 M205.5,455.5 C205.5,458.261 207.739,460.5 210.5,460.5 M215.5,455.5 C212.739,455.5 210.5,457.739 210.5,460.5 M215.5,455.5 C215.5,458.261 217.739,460.5 220.5,460.5 M225.5,455.5 C222.739,455.5 220.5,457.739 220.5,460.5 M225.5,455.5 C225.5,458.261 227.739,460.5 230.5,460.5" fill-opacity="0" stroke="#6BA3CF" stroke-width="2" stroke-linecap="round" stroke-linejoin="round"/>
    </g>
    <g>
      <path d="M310.5,440.5 C310.5,437.739 312.739,435.5 315.5,435.5 M315.5,435.5 C315.5,438.261 317.739,440.5 320.5,440.5 M325.5,435.5 C322.739,435.5 320.5,437.739 320.5,440.5 M325.5,435.5 C325.5,438.261 327.739,440.5 330.5,440.5 M335.5,435.5 C332.739,435.5 330.5,437.739 330.5,440.5 M335.5,435.5 C335.5,438.261 337.739,440.5 340.5,440.5" fill-opacity="0" stroke="#6BA3CF" stroke-width="2" stroke-linecap="round" stroke-linejoin="round"/>
      <path d="M320.5,460.5 C320.5,457.739 322.739,455.5 325.5,455.5 M325.5,455.5 C325.5,458.261 327.739,460.5 330.5,460.5 M335.5,455.5 C332.739,455.5 330.5,457.739 330.5,460.5 M335.5,455.5 C335.5,458.261 337.739,460.5 340.5,460.5 M345.5,455.5 C342.739,455.5 340.5,457.739 340.5,460.5 M345.5,455.5 C345.5,458.261 347.739,460.5 350.5,460.5" fill-opacity="0" stroke="#6BA3CF" stroke-width="2" stroke-linecap="round" stroke-linejoin="round"/>
    </g>
    <g>
      <path d="M250.5,440.5 C250.5,437.739 252.739,435.5 255.5,435.5 M255.5,435.5 C255.5,438.261 257.739,440.5 260.5,440.5 M265.5,435.5 C262.739,435.5 260.5,437.739 260.5,440.5 M265.5,435.5 C265.5,438.261 267.739,440.5 270.5,440.5 M275.5,435.5 C272.739,435.5 270.5,437.739 270.5,440.5 M275.5,435.5 C275.5,438.261 277.739,440.5 280.5,440.5" fill-opacity="0" stroke="#6BA3CF" stroke-width="2" stroke-linecap="round" stroke-linejoin="round"/>
      <path d="M260.5,460.5 C260.5,457.739 262.739,455.5 265.5,455.5 M265.5,455.5 C265.5,458.261 267.739,460.5 270.5,460.5 M275.5,455.5 C272.739,455.5 270.5,457.739 270.5,460.5 M275.5,455.5 C275.5,458.261 277.739,460.5 280.5,460.5 M285.5,455.5 C282.739,455.5 280.5,457.739 280.5,460.5 M285.5,455.5 C285.5,458.261 287.739,460.5 290.5,460.5" fill-opacity="0" stroke="#6BA3CF" stroke-width="2" stroke-linecap="round" stroke-linejoin="round"/>
    </g>
    <path d="M210.5,265.5 C200.5,255.5 195.5,260.5 190.5,265.5" fill-opacity="0" stroke="#F0801A" stroke-width="2"/>
    <path d="M230.5,281.273 C220.5,271.273 215.5,276.273 210.5,281.273" fill-opacity="0" stroke="#F0801A" stroke-width="2"/>
    <g>
      <path d="M270.5,266.273 C260.5,256.273 255.5,261.273 250.5,266.273" fill-opacity="0" stroke="#F0801A" stroke-width="2"/>
      <path d="M290.5,282.047 C280.5,272.047 275.5,277.047 270.5,282.047" fill-opacity="0" stroke="#F0801A" stroke-width="2"/>
    </g>
    <path d="M270.5,326.273 C260.5,316.273 255.5,321.273 250.5,326.273" fill-opacity="0" stroke="#F0801A" stroke-width="2"/>
    <path d="M290.5,342.047 C280.5,332.047 275.5,337.047 270.5,342.047" fill-opacity="0" stroke="#F0801A" stroke-width="2"/>
    <path d="M150.5,381.273 C140.5,371.273 135.5,376.273 130.5,381.273" fill-opacity="0" stroke="#F0801A" stroke-width="2"/>
    <path d="M170.5,397.047 C160.5,387.047 155.5,392.047 150.5,397.047" fill-opacity="0" stroke="#F0801A" stroke-width="2"/>
    <text transform="matrix(1, 0, 0, 1, 150.797, 390.5)">
      <tspan x="-12.797" y="13.5" font-family="Verdana-Bold" font-size="36" fill="#294270">1</tspan>
    </text>
    <g>
      <path d="M570.5,326.273 C560.5,316.273 555.5,321.273 550.5,326.273" fill-opacity="0" stroke="#F0801A" stroke-width="2"/>
      <path d="M590.5,342.047 C580.5,332.047 575.5,337.047 570.5,342.047" fill-opacity="0" stroke="#F0801A" stroke-width="2"/>
    </g>
    <g>
      <path d="M630.5,326.273 C620.5,316.273 615.5,321.273 610.5,326.273" fill-opacity="0" stroke="#F0801A" stroke-width="2"/>
      <path d="M650.5,342.047 C640.5,332.047 635.5,337.047 630.5,342.047" fill-opacity="0" stroke="#F0801A" stroke-width="2"/>
    </g>
    <g>
      <path d="M630.5,386.273 C620.5,376.273 615.5,381.273 610.5,386.273" fill-opacity="0" stroke="#F0801A" stroke-width="2"/>
      <path d="M650.5,402.047 C640.5,392.047 635.5,397.047 630.5,402.047" fill-opacity="0" stroke="#F0801A" stroke-width="2"/>
    </g>
    <g>
      <path d="M510.5,446.273 C500.5,436.273 495.5,441.273 490.5,446.273" fill-opacity="0" stroke="#F0801A" stroke-width="2"/>
      <path d="M530.5,462.047 C520.5,452.047 515.5,457.047 510.5,462.047" fill-opacity="0" stroke="#F0801A" stroke-width="2"/>
    </g>
    <g>
      <path d="M570.5,446.273 C560.5,436.273 555.5,441.273 550.5,446.273" fill-opacity="0" stroke="#F0801A" stroke-width="2"/>
      <path d="M590.5,462.047 C580.5,452.047 575.5,457.047 570.5,462.047" fill-opacity="0" stroke="#F0801A" stroke-width="2"/>
    </g>
    <g>
      <path d="M990.5,146.273 C980.5,136.273 975.5,141.273 970.5,146.273" fill-opacity="0" stroke="#F0801A" stroke-width="2"/>
      <path d="M1010.5,162.047 C1000.5,152.047 995.5,157.047 990.5,162.047" fill-opacity="0" stroke="#F0801A" stroke-width="2"/>
    </g>
    <g>
      <path d="M1050.5,146.273 C1040.5,136.273 1035.5,141.273 1030.5,146.273" fill-opacity="0" stroke="#F0801A" stroke-width="2"/>
      <path d="M1070.5,162.047 C1060.5,152.047 1055.5,157.047 1050.5,162.047" fill-opacity="0" stroke="#F0801A" stroke-width="2"/>
    </g>
    <g>
      <path d="M1110.5,146.273 C1100.5,136.273 1095.5,141.273 1090.5,146.273" fill-opacity="0" stroke="#F0801A" stroke-width="2"/>
      <path d="M1130.5,162.047 C1120.5,152.047 1115.5,157.047 1110.5,162.047" fill-opacity="0" stroke="#F0801A" stroke-width="2"/>
    </g>
    <text transform="matrix(1, 0, 0, 1, 1047.295, 152.09)">
      <tspan x="-12.797" y="13.5" font-family="Verdana-Bold" font-size="36" fill="#294270">3</tspan>
    </text>
    <g>
      <path d="M930.5,266.273 C920.5,256.273 915.5,261.273 910.5,266.273" fill-opacity="0" stroke="#F0801A" stroke-width="2"/>
      <path d="M950.5,282.047 C940.5,272.047 935.5,277.047 930.5,282.047" fill-opacity="0" stroke="#F0801A" stroke-width="2"/>
    </g>
    <g>
      <path d="M990.5,266.273 C980.5,256.273 975.5,261.273 970.5,266.273" fill-opacity="0" stroke="#F0801A" stroke-width="2"/>
      <path d="M1010.5,282.047 C1000.5,272.047 995.5,277.047 990.5,282.047" fill-opacity="0" stroke="#F0801A" stroke-width="2"/>
    </g>
    <g>
      <path d="M1050.5,266.273 C1040.5,256.273 1035.5,261.273 1030.5,266.273" fill-opacity="0" stroke="#F0801A" stroke-width="2"/>
      <path d="M1070.5,282.047 C1060.5,272.047 1055.5,277.047 1050.5,282.047" fill-opacity="0" stroke="#F0801A" stroke-width="2"/>
    </g>
    <g>
      <path d="M870.5,386.273 C860.5,376.273 855.5,381.273 850.5,386.273" fill-opacity="0" stroke="#F0801A" stroke-width="2"/>
      <path d="M890.5,402.047 C880.5,392.047 875.5,397.047 870.5,402.047" fill-opacity="0" stroke="#F0801A" stroke-width="2"/>
    </g>
    <g>
      <path d="M930.5,386.273 C920.5,376.273 915.5,381.273 910.5,386.273" fill-opacity="0" stroke="#F0801A" stroke-width="2"/>
      <path d="M950.5,402.047 C940.5,392.047 935.5,397.047 930.5,402.047" fill-opacity="0" stroke="#F0801A" stroke-width="2"/>
    </g>
    <g>
      <path d="M1050.5,386.273 C1040.5,376.273 1035.5,381.273 1030.5,386.273" fill-opacity="0" stroke="#F0801A" stroke-width="2"/>
      <path d="M1070.5,402.047 C1060.5,392.047 1055.5,397.047 1050.5,402.047" fill-opacity="0" stroke="#F0801A" stroke-width="2"/>
    </g>
    <g>
      <path d="M810.5,146.273 C800.5,136.273 795.5,141.273 790.5,146.273" fill-opacity="0" stroke="#F0801A" stroke-width="2"/>
      <path d="M830.5,162.047 C820.5,152.047 815.5,157.047 810.5,162.047" fill-opacity="0" stroke="#F0801A" stroke-width="2"/>
    </g>
    <g>
      <path d="M990.5,386.273 C980.5,376.273 975.5,381.273 970.5,386.273" fill-opacity="0" stroke="#F0801A" stroke-width="2"/>
      <path d="M1010.5,402.047 C1000.5,392.047 995.5,397.047 990.5,402.047" fill-opacity="0" stroke="#F0801A" stroke-width="2"/>
    </g>
    <g>
      <path d="M810.5,206.273 C800.5,196.273 795.5,201.273 790.5,206.273" fill-opacity="0" stroke="#F0801A" stroke-width="2"/>
      <path d="M830.5,222.047 C820.5,212.047 815.5,217.047 810.5,222.047" fill-opacity="0" stroke="#F0801A" stroke-width="2"/>
    </g>
    <text transform="matrix(1, 0, 0, 1, 990.797, 272.5)">
      <tspan x="-12.797" y="13.5" font-family="Verdana-Bold" font-size="36" fill="#294270">3</tspan>
    </text>
    <text transform="matrix(1, 0, 0, 1, 958.797, 392.5)">
      <tspan x="-12.797" y="13.5" font-family="Verdana-Bold" font-size="36" fill="#294270">4</tspan>
    </text>
    <g>
      <path d="M430.5,260.5 C430.5,257.739 432.739,255.5 435.5,255.5 M435.5,255.5 C435.5,258.261 437.739,260.5 440.5,260.5 M445.5,255.5 C442.739,255.5 440.5,257.739 440.5,260.5 M445.5,255.5 C445.5,258.261 447.739,260.5 450.5,260.5 M455.5,255.5 C452.739,255.5 450.5,257.739 450.5,260.5 M455.5,255.5 C455.5,258.261 457.739,260.5 460.5,260.5" fill-opacity="0" stroke="#6BA3CF" stroke-width="2" stroke-linecap="round" stroke-linejoin="round"/>
      <path d="M440.5,280.5 C440.5,277.739 442.739,275.5 445.5,275.5 M445.5,275.5 C445.5,278.261 447.739,280.5 450.5,280.5 M455.5,275.5 C452.739,275.5 450.5,277.739 450.5,280.5 M455.5,275.5 C455.5,278.261 457.739,280.5 460.5,280.5 M465.5,275.5 C462.739,275.5 460.5,277.739 460.5,280.5 M465.5,275.5 C465.5,278.261 467.739,280.5 470.5,280.5" fill-opacity="0" stroke="#6BA3CF" stroke-width="2" stroke-linecap="round" stroke-linejoin="round"/>
    </g>
    <g>
      <path d="M490.5,260.5 C490.5,257.739 492.739,255.5 495.5,255.5 M495.5,255.5 C495.5,258.261 497.739,260.5 500.5,260.5 M505.5,255.5 C502.739,255.5 500.5,257.739 500.5,260.5 M505.5,255.5 C505.5,258.261 507.739,260.5 510.5,260.5 M515.5,255.5 C512.739,255.5 510.5,257.739 510.5,260.5 M515.5,255.5 C515.5,258.261 517.739,260.5 520.5,260.5" fill-opacity="0" stroke="#6BA3CF" stroke-width="2" stroke-linecap="round" stroke-linejoin="round"/>
      <path d="M500.5,280.5 C500.5,277.739 502.739,275.5 505.5,275.5 M505.5,275.5 C505.5,278.261 507.739,280.5 510.5,280.5 M515.5,275.5 C512.739,275.5 510.5,277.739 510.5,280.5 M515.5,275.5 C515.5,278.261 517.739,280.5 520.5,280.5 M525.5,275.5 C522.739,275.5 520.5,277.739 520.5,280.5 M525.5,275.5 C525.5,278.261 527.739,280.5 530.5,280.5" fill-opacity="0" stroke="#6BA3CF" stroke-width="2" stroke-linecap="round" stroke-linejoin="round"/>
    </g>
    <g>
      <path d="M550.5,260.5 C550.5,257.739 552.739,255.5 555.5,255.5 M555.5,255.5 C555.5,258.261 557.739,260.5 560.5,260.5 M565.5,255.5 C562.739,255.5 560.5,257.739 560.5,260.5 M565.5,255.5 C565.5,258.261 567.739,260.5 570.5,260.5 M575.5,255.5 C572.739,255.5 570.5,257.739 570.5,260.5 M575.5,255.5 C575.5,258.261 577.739,260.5 580.5,260.5" fill-opacity="0" stroke="#6BA3CF" stroke-width="2" stroke-linecap="round" stroke-linejoin="round"/>
      <path d="M560.5,280.5 C560.5,277.739 562.739,275.5 565.5,275.5 M565.5,275.5 C565.5,278.261 567.739,280.5 570.5,280.5 M575.5,275.5 C572.739,275.5 570.5,277.739 570.5,280.5 M575.5,275.5 C575.5,278.261 577.739,280.5 580.5,280.5 M585.5,275.5 C582.739,275.5 580.5,277.739 580.5,280.5 M585.5,275.5 C585.5,278.261 587.739,280.5 590.5,280.5" fill-opacity="0" stroke="#6BA3CF" stroke-width="2" stroke-linecap="round" stroke-linejoin="round"/>
    </g>
    <g>
      <path d="M670.5,260.5 C670.5,257.739 672.739,255.5 675.5,255.5 M675.5,255.5 C675.5,258.261 677.739,260.5 680.5,260.5 M685.5,255.5 C682.739,255.5 680.5,257.739 680.5,260.5 M685.5,255.5 C685.5,258.261 687.739,260.5 690.5,260.5 M695.5,255.5 C692.739,255.5 690.5,257.739 690.5,260.5 M695.5,255.5 C695.5,258.261 697.739,260.5 700.5,260.5" fill-opacity="0" stroke="#6BA3CF" stroke-width="2" stroke-linecap="round" stroke-linejoin="round"/>
      <path d="M680.5,280.5 C680.5,277.739 682.739,275.5 685.5,275.5 M685.5,275.5 C685.5,278.261 687.739,280.5 690.5,280.5 M695.5,275.5 C692.739,275.5 690.5,277.739 690.5,280.5 M695.5,275.5 C695.5,278.261 697.739,280.5 700.5,280.5 M705.5,275.5 C702.739,275.5 700.5,277.739 700.5,280.5 M705.5,275.5 C705.5,278.261 707.739,280.5 710.5,280.5" fill-opacity="0" stroke="#6BA3CF" stroke-width="2" stroke-linecap="round" stroke-linejoin="round"/>
    </g>
    <g>
      <path d="M610.5,260.5 C610.5,257.739 612.739,255.5 615.5,255.5 M615.5,255.5 C615.5,258.261 617.739,260.5 620.5,260.5 M625.5,255.5 C622.739,255.5 620.5,257.739 620.5,260.5 M625.5,255.5 C625.5,258.261 627.739,260.5 630.5,260.5 M635.5,255.5 C632.739,255.5 630.5,257.739 630.5,260.5 M635.5,255.5 C635.5,258.261 637.739,260.5 640.5,260.5" fill-opacity="0" stroke="#6BA3CF" stroke-width="2" stroke-linecap="round" stroke-linejoin="round"/>
      <path d="M620.5,280.5 C620.5,277.739 622.739,275.5 625.5,275.5 M625.5,275.5 C625.5,278.261 627.739,280.5 630.5,280.5 M635.5,275.5 C632.739,275.5 630.5,277.739 630.5,280.5 M635.5,275.5 C635.5,278.261 637.739,280.5 640.5,280.5 M645.5,275.5 C642.739,275.5 640.5,277.739 640.5,280.5 M645.5,275.5 C645.5,278.261 647.739,280.5 650.5,280.5" fill-opacity="0" stroke="#6BA3CF" stroke-width="2" stroke-linecap="round" stroke-linejoin="round"/>
    </g>
    <g>
      <path d="M430.5,320.5 C430.5,317.739 432.739,315.5 435.5,315.5 M435.5,315.5 C435.5,318.261 437.739,320.5 440.5,320.5 M445.5,315.5 C442.739,315.5 440.5,317.739 440.5,320.5 M445.5,315.5 C445.5,318.261 447.739,320.5 450.5,320.5 M455.5,315.5 C452.739,315.5 450.5,317.739 450.5,320.5 M455.5,315.5 C455.5,318.261 457.739,320.5 460.5,320.5" fill-opacity="0" stroke="#6BA3CF" stroke-width="2" stroke-linecap="round" stroke-linejoin="round"/>
      <path d="M440.5,340.5 C440.5,337.739 442.739,335.5 445.5,335.5 M445.5,335.5 C445.5,338.261 447.739,340.5 450.5,340.5 M455.5,335.5 C452.739,335.5 450.5,337.739 450.5,340.5 M455.5,335.5 C455.5,338.261 457.739,340.5 460.5,340.5 M465.5,335.5 C462.739,335.5 460.5,337.739 460.5,340.5 M465.5,335.5 C465.5,338.261 467.739,340.5 470.5,340.5" fill-opacity="0" stroke="#6BA3CF" stroke-width="2" stroke-linecap="round" stroke-linejoin="round"/>
    </g>
    <g>
      <path d="M490.5,320.5 C490.5,317.739 492.739,315.5 495.5,315.5 M495.5,315.5 C495.5,318.261 497.739,320.5 500.5,320.5 M505.5,315.5 C502.739,315.5 500.5,317.739 500.5,320.5 M505.5,315.5 C505.5,318.261 507.739,320.5 510.5,320.5 M515.5,315.5 C512.739,315.5 510.5,317.739 510.5,320.5 M515.5,315.5 C515.5,318.261 517.739,320.5 520.5,320.5" fill-opacity="0" stroke="#6BA3CF" stroke-width="2" stroke-linecap="round" stroke-linejoin="round"/>
      <path d="M500.5,340.5 C500.5,337.739 502.739,335.5 505.5,335.5 M505.5,335.5 C505.5,338.261 507.739,340.5 510.5,340.5 M515.5,335.5 C512.739,335.5 510.5,337.739 510.5,340.5 M515.5,335.5 C515.5,338.261 517.739,340.5 520.5,340.5 M525.5,335.5 C522.739,335.5 520.5,337.739 520.5,340.5 M525.5,335.5 C525.5,338.261 527.739,340.5 530.5,340.5" fill-opacity="0" stroke="#6BA3CF" stroke-width="2" stroke-linecap="round" stroke-linejoin="round"/>
    </g>
    <g>
      <path d="M670.5,320.5 C670.5,317.739 672.739,315.5 675.5,315.5 M675.5,315.5 C675.5,318.261 677.739,320.5 680.5,320.5 M685.5,315.5 C682.739,315.5 680.5,317.739 680.5,320.5 M685.5,315.5 C685.5,318.261 687.739,320.5 690.5,320.5 M695.5,315.5 C692.739,315.5 690.5,317.739 690.5,320.5 M695.5,315.5 C695.5,318.261 697.739,320.5 700.5,320.5" fill-opacity="0" stroke="#6BA3CF" stroke-width="2" stroke-linecap="round" stroke-linejoin="round"/>
      <path d="M680.5,340.5 C680.5,337.739 682.739,335.5 685.5,335.5 M685.5,335.5 C685.5,338.261 687.739,340.5 690.5,340.5 M695.5,335.5 C692.739,335.5 690.5,337.739 690.5,340.5 M695.5,335.5 C695.5,338.261 697.739,340.5 700.5,340.5 M705.5,335.5 C702.739,335.5 700.5,337.739 700.5,340.5 M705.5,335.5 C705.5,338.261 707.739,340.5 710.5,340.5" fill-opacity="0" stroke="#6BA3CF" stroke-width="2" stroke-linecap="round" stroke-linejoin="round"/>
    </g>
    <g>
      <path d="M430.5,380.5 C430.5,377.739 432.739,375.5 435.5,375.5 M435.5,375.5 C435.5,378.261 437.739,380.5 440.5,380.5 M445.5,375.5 C442.739,375.5 440.5,377.739 440.5,380.5 M445.5,375.5 C445.5,378.261 447.739,380.5 450.5,380.5 M455.5,375.5 C452.739,375.5 450.5,377.739 450.5,380.5 M455.5,375.5 C455.5,378.261 457.739,380.5 460.5,380.5" fill-opacity="0" stroke="#6BA3CF" stroke-width="2" stroke-linecap="round" stroke-linejoin="round"/>
      <path d="M440.5,400.5 C440.5,397.739 442.739,395.5 445.5,395.5 M445.5,395.5 C445.5,398.261 447.739,400.5 450.5,400.5 M455.5,395.5 C452.739,395.5 450.5,397.739 450.5,400.5 M455.5,395.5 C455.5,398.261 457.739,400.5 460.5,400.5 M465.5,395.5 C462.739,395.5 460.5,397.739 460.5,400.5 M465.5,395.5 C465.5,398.261 467.739,400.5 470.5,400.5" fill-opacity="0" stroke="#6BA3CF" stroke-width="2" stroke-linecap="round" stroke-linejoin="round"/>
    </g>
    <g>
      <path d="M490.5,380.5 C490.5,377.739 492.739,375.5 495.5,375.5 M495.5,375.5 C495.5,378.261 497.739,380.5 500.5,380.5 M505.5,375.5 C502.739,375.5 500.5,377.739 500.5,380.5 M505.5,375.5 C505.5,378.261 507.739,380.5 510.5,380.5 M515.5,375.5 C512.739,375.5 510.5,377.739 510.5,380.5 M515.5,375.5 C515.5,378.261 517.739,380.5 520.5,380.5" fill-opacity="0" stroke="#6BA3CF" stroke-width="2" stroke-linecap="round" stroke-linejoin="round"/>
      <path d="M500.5,400.5 C500.5,397.739 502.739,395.5 505.5,395.5 M505.5,395.5 C505.5,398.261 507.739,400.5 510.5,400.5 M515.5,395.5 C512.739,395.5 510.5,397.739 510.5,400.5 M515.5,395.5 C515.5,398.261 517.739,400.5 520.5,400.5 M525.5,395.5 C522.739,395.5 520.5,397.739 520.5,400.5 M525.5,395.5 C525.5,398.261 527.739,400.5 530.5,400.5" fill-opacity="0" stroke="#6BA3CF" stroke-width="2" stroke-linecap="round" stroke-linejoin="round"/>
    </g>
    <g>
      <path d="M550.5,380.5 C550.5,377.739 552.739,375.5 555.5,375.5 M555.5,375.5 C555.5,378.261 557.739,380.5 560.5,380.5 M565.5,375.5 C562.739,375.5 560.5,377.739 560.5,380.5 M565.5,375.5 C565.5,378.261 567.739,380.5 570.5,380.5 M575.5,375.5 C572.739,375.5 570.5,377.739 570.5,380.5 M575.5,375.5 C575.5,378.261 577.739,380.5 580.5,380.5" fill-opacity="0" stroke="#6BA3CF" stroke-width="2" stroke-linecap="round" stroke-linejoin="round"/>
      <path d="M560.5,400.5 C560.5,397.739 562.739,395.5 565.5,395.5 M565.5,395.5 C565.5,398.261 567.739,400.5 570.5,400.5 M575.5,395.5 C572.739,395.5 570.5,397.739 570.5,400.5 M575.5,395.5 C575.5,398.261 577.739,400.5 580.5,400.5 M585.5,395.5 C582.739,395.5 580.5,397.739 580.5,400.5 M585.5,395.5 C585.5,398.261 587.739,400.5 590.5,400.5" fill-opacity="0" stroke="#6BA3CF" stroke-width="2" stroke-linecap="round" stroke-linejoin="round"/>
    </g>
    <g>
      <path d="M670.5,380.5 C670.5,377.739 672.739,375.5 675.5,375.5 M675.5,375.5 C675.5,378.261 677.739,380.5 680.5,380.5 M685.5,375.5 C682.739,375.5 680.5,377.739 680.5,380.5 M685.5,375.5 C685.5,378.261 687.739,380.5 690.5,380.5 M695.5,375.5 C692.739,375.5 690.5,377.739 690.5,380.5 M695.5,375.5 C695.5,378.261 697.739,380.5 700.5,380.5" fill-opacity="0" stroke="#6BA3CF" stroke-width="2" stroke-linecap="round" stroke-linejoin="round"/>
      <path d="M680.5,400.5 C680.5,397.739 682.739,395.5 685.5,395.5 M685.5,395.5 C685.5,398.261 687.739,400.5 690.5,400.5 M695.5,395.5 C692.739,395.5 690.5,397.739 690.5,400.5 M695.5,395.5 C695.5,398.261 697.739,400.5 700.5,400.5 M705.5,395.5 C702.739,395.5 700.5,397.739 700.5,400.5 M705.5,395.5 C705.5,398.261 707.739,400.5 710.5,400.5" fill-opacity="0" stroke="#6BA3CF" stroke-width="2" stroke-linecap="round" stroke-linejoin="round"/>
    </g>
    <g>
      <path d="M430.5,440.5 C430.5,437.739 432.739,435.5 435.5,435.5 M435.5,435.5 C435.5,438.261 437.739,440.5 440.5,440.5 M445.5,435.5 C442.739,435.5 440.5,437.739 440.5,440.5 M445.5,435.5 C445.5,438.261 447.739,440.5 450.5,440.5 M455.5,435.5 C452.739,435.5 450.5,437.739 450.5,440.5 M455.5,435.5 C455.5,438.261 457.739,440.5 460.5,440.5" fill-opacity="0" stroke="#6BA3CF" stroke-width="2" stroke-linecap="round" stroke-linejoin="round"/>
      <path d="M440.5,460.5 C440.5,457.739 442.739,455.5 445.5,455.5 M445.5,455.5 C445.5,458.261 447.739,460.5 450.5,460.5 M455.5,455.5 C452.739,455.5 450.5,457.739 450.5,460.5 M455.5,455.5 C455.5,458.261 457.739,460.5 460.5,460.5 M465.5,455.5 C462.739,455.5 460.5,457.739 460.5,460.5 M465.5,455.5 C465.5,458.261 467.739,460.5 470.5,460.5" fill-opacity="0" stroke="#6BA3CF" stroke-width="2" stroke-linecap="round" stroke-linejoin="round"/>
    </g>
    <g>
      <path d="M670.5,440.5 C670.5,437.739 672.739,435.5 675.5,435.5 M675.5,435.5 C675.5,438.261 677.739,440.5 680.5,440.5 M685.5,435.5 C682.739,435.5 680.5,437.739 680.5,440.5 M685.5,435.5 C685.5,438.261 687.739,440.5 690.5,440.5 M695.5,435.5 C692.739,435.5 690.5,437.739 690.5,440.5 M695.5,435.5 C695.5,438.261 697.739,440.5 700.5,440.5" fill-opacity="0" stroke="#6BA3CF" stroke-width="2" stroke-linecap="round" stroke-linejoin="round"/>
      <path d="M680.5,460.5 C680.5,457.739 682.739,455.5 685.5,455.5 M685.5,455.5 C685.5,458.261 687.739,460.5 690.5,460.5 M695.5,455.5 C692.739,455.5 690.5,457.739 690.5,460.5 M695.5,455.5 C695.5,458.261 697.739,460.5 700.5,460.5 M705.5,455.5 C702.739,455.5 700.5,457.739 700.5,460.5 M705.5,455.5 C705.5,458.261 707.739,460.5 710.5,460.5" fill-opacity="0" stroke="#6BA3CF" stroke-width="2" stroke-linecap="round" stroke-linejoin="round"/>
    </g>
    <g>
      <path d="M610.5,440.5 C610.5,437.739 612.739,435.5 615.5,435.5 M615.5,435.5 C615.5,438.261 617.739,440.5 620.5,440.5 M625.5,435.5 C622.739,435.5 620.5,437.739 620.5,440.5 M625.5,435.5 C625.5,438.261 627.739,440.5 630.5,440.5 M635.5,435.5 C632.739,435.5 630.5,437.739 630.5,440.5 M635.5,435.5 C635.5,438.261 637.739,440.5 640.5,440.5" fill-opacity="0" stroke="#6BA3CF" stroke-width="2" stroke-linecap="round" stroke-linejoin="round"/>
      <path d="M620.5,460.5 C620.5,457.739 622.739,455.5 625.5,455.5 M625.5,455.5 C625.5,458.261 627.739,460.5 630.5,460.5 M635.5,455.5 C632.739,455.5 630.5,457.739 630.5,460.5 M635.5,455.5 C635.5,458.261 637.739,460.5 640.5,460.5 M645.5,455.5 C642.739,455.5 640.5,457.739 640.5,460.5 M645.5,455.5 C645.5,458.261 647.739,460.5 650.5,460.5" fill-opacity="0" stroke="#6BA3CF" stroke-width="2" stroke-linecap="round" stroke-linejoin="round"/>
    </g>
    <g>
      <path d="M790.5,80.5 C790.5,77.739 792.739,75.5 795.5,75.5 M795.5,75.5 C795.5,78.261 797.739,80.5 800.5,80.5 M805.5,75.5 C802.739,75.5 800.5,77.739 800.5,80.5 M805.5,75.5 C805.5,78.261 807.739,80.5 810.5,80.5 M815.5,75.5 C812.739,75.5 810.5,77.739 810.5,80.5 M815.5,75.5 C815.5,78.261 817.739,80.5 820.5,80.5" fill-opacity="0" stroke="#6BA3CF" stroke-width="2" stroke-linecap="round" stroke-linejoin="round"/>
      <path d="M800.5,100.5 C800.5,97.739 802.739,95.5 805.5,95.5 M805.5,95.5 C805.5,98.261 807.739,100.5 810.5,100.5 M815.5,95.5 C812.739,95.5 810.5,97.739 810.5,100.5 M815.5,95.5 C815.5,98.261 817.739,100.5 820.5,100.5 M825.5,95.5 C822.739,95.5 820.5,97.739 820.5,100.5 M825.5,95.5 C825.5,98.261 827.739,100.5 830.5,100.5" fill-opacity="0" stroke="#6BA3CF" stroke-width="2" stroke-linecap="round" stroke-linejoin="round"/>
    </g>
    <g>
      <path d="M850.5,80.5 C850.5,77.739 852.739,75.5 855.5,75.5 M855.5,75.5 C855.5,78.261 857.739,80.5 860.5,80.5 M865.5,75.5 C862.739,75.5 860.5,77.739 860.5,80.5 M865.5,75.5 C865.5,78.261 867.739,80.5 870.5,80.5 M875.5,75.5 C872.739,75.5 870.5,77.739 870.5,80.5 M875.5,75.5 C875.5,78.261 877.739,80.5 880.5,80.5" fill-opacity="0" stroke="#6BA3CF" stroke-width="2" stroke-linecap="round" stroke-linejoin="round"/>
      <path d="M860.5,100.5 C860.5,97.739 862.739,95.5 865.5,95.5 M865.5,95.5 C865.5,98.261 867.739,100.5 870.5,100.5 M875.5,95.5 C872.739,95.5 870.5,97.739 870.5,100.5 M875.5,95.5 C875.5,98.261 877.739,100.5 880.5,100.5 M885.5,95.5 C882.739,95.5 880.5,97.739 880.5,100.5 M885.5,95.5 C885.5,98.261 887.739,100.5 890.5,100.5" fill-opacity="0" stroke="#6BA3CF" stroke-width="2" stroke-linecap="round" stroke-linejoin="round"/>
    </g>
    <g>
      <path d="M910.5,80.5 C910.5,77.739 912.739,75.5 915.5,75.5 M915.5,75.5 C915.5,78.261 917.739,80.5 920.5,80.5 M925.5,75.5 C922.739,75.5 920.5,77.739 920.5,80.5 M925.5,75.5 C925.5,78.261 927.739,80.5 930.5,80.5 M935.5,75.5 C932.739,75.5 930.5,77.739 930.5,80.5 M935.5,75.5 C935.5,78.261 937.739,80.5 940.5,80.5" fill-opacity="0" stroke="#6BA3CF" stroke-width="2" stroke-linecap="round" stroke-linejoin="round"/>
      <path d="M920.5,100.5 C920.5,97.739 922.739,95.5 925.5,95.5 M925.5,95.5 C925.5,98.261 927.739,100.5 930.5,100.5 M935.5,95.5 C932.739,95.5 930.5,97.739 930.5,100.5 M935.5,95.5 C935.5,98.261 937.739,100.5 940.5,100.5 M945.5,95.5 C942.739,95.5 940.5,97.739 940.5,100.5 M945.5,95.5 C945.5,98.261 947.739,100.5 950.5,100.5" fill-opacity="0" stroke="#6BA3CF" stroke-width="2" stroke-linecap="round" stroke-linejoin="round"/>
    </g>
    <g>
      <path d="M1030.5,80.5 C1030.5,77.739 1032.739,75.5 1035.5,75.5 M1035.5,75.5 C1035.5,78.261 1037.739,80.5 1040.5,80.5 M1045.5,75.5 C1042.739,75.5 1040.5,77.739 1040.5,80.5 M1045.5,75.5 C1045.5,78.261 1047.739,80.5 1050.5,80.5 M1055.5,75.5 C1052.739,75.5 1050.5,77.739 1050.5,80.5 M1055.5,75.5 C1055.5,78.261 1057.739,80.5 1060.5,80.5" fill-opacity="0" stroke="#6BA3CF" stroke-width="2" stroke-linecap="round" stroke-linejoin="round"/>
      <path d="M1040.5,100.5 C1040.5,97.739 1042.739,95.5 1045.5,95.5 M1045.5,95.5 C1045.5,98.261 1047.739,100.5 1050.5,100.5 M1055.5,95.5 C1052.739,95.5 1050.5,97.739 1050.5,100.5 M1055.5,95.5 C1055.5,98.261 1057.739,100.5 1060.5,100.5 M1065.5,95.5 C1062.739,95.5 1060.5,97.739 1060.5,100.5 M1065.5,95.5 C1065.5,98.261 1067.739,100.5 1070.5,100.5" fill-opacity="0" stroke="#6BA3CF" stroke-width="2" stroke-linecap="round" stroke-linejoin="round"/>
    </g>
    <g>
      <path d="M970.5,80.5 C970.5,77.739 972.739,75.5 975.5,75.5 M975.5,75.5 C975.5,78.261 977.739,80.5 980.5,80.5 M985.5,75.5 C982.739,75.5 980.5,77.739 980.5,80.5 M985.5,75.5 C985.5,78.261 987.739,80.5 990.5,80.5 M995.5,75.5 C992.739,75.5 990.5,77.739 990.5,80.5 M995.5,75.5 C995.5,78.261 997.739,80.5 1000.5,80.5" fill-opacity="0" stroke="#6BA3CF" stroke-width="2" stroke-linecap="round" stroke-linejoin="round"/>
      <path d="M980.5,100.5 C980.5,97.739 982.739,95.5 985.5,95.5 M985.5,95.5 C985.5,98.261 987.739,100.5 990.5,100.5 M995.5,95.5 C992.739,95.5 990.5,97.739 990.5,100.5 M995.5,95.5 C995.5,98.261 997.739,100.5 1000.5,100.5 M1005.5,95.5 C1002.739,95.5 1000.5,97.739 1000.5,100.5 M1005.5,95.5 C1005.5,98.261 1007.739,100.5 1010.5,100.5" fill-opacity="0" stroke="#6BA3CF" stroke-width="2" stroke-linecap="round" stroke-linejoin="round"/>
    </g>
    <g>
      <path d="M850.5,200.5 C850.5,197.739 852.739,195.5 855.5,195.5 M855.5,195.5 C855.5,198.261 857.739,200.5 860.5,200.5 M865.5,195.5 C862.739,195.5 860.5,197.739 860.5,200.5 M865.5,195.5 C865.5,198.261 867.739,200.5 870.5,200.5 M875.5,195.5 C872.739,195.5 870.5,197.739 870.5,200.5 M875.5,195.5 C875.5,198.261 877.739,200.5 880.5,200.5" fill-opacity="0" stroke="#6BA3CF" stroke-width="2" stroke-linecap="round" stroke-linejoin="round"/>
      <path d="M860.5,220.5 C860.5,217.739 862.739,215.5 865.5,215.5 M865.5,215.5 C865.5,218.261 867.739,220.5 870.5,220.5 M875.5,215.5 C872.739,215.5 870.5,217.739 870.5,220.5 M875.5,215.5 C875.5,218.261 877.739,220.5 880.5,220.5 M885.5,215.5 C882.739,215.5 880.5,217.739 880.5,220.5 M885.5,215.5 C885.5,218.261 887.739,220.5 890.5,220.5" fill-opacity="0" stroke="#6BA3CF" stroke-width="2" stroke-linecap="round" stroke-linejoin="round"/>
    </g>
    <g>
      <path d="M910.5,200.5 C910.5,197.739 912.739,195.5 915.5,195.5 M915.5,195.5 C915.5,198.261 917.739,200.5 920.5,200.5 M925.5,195.5 C922.739,195.5 920.5,197.739 920.5,200.5 M925.5,195.5 C925.5,198.261 927.739,200.5 930.5,200.5 M935.5,195.5 C932.739,195.5 930.5,197.739 930.5,200.5 M935.5,195.5 C935.5,198.261 937.739,200.5 940.5,200.5" fill-opacity="0" stroke="#6BA3CF" stroke-width="2" stroke-linecap="round" stroke-linejoin="round"/>
      <path d="M920.5,220.5 C920.5,217.739 922.739,215.5 925.5,215.5 M925.5,215.5 C925.5,218.261 927.739,220.5 930.5,220.5 M935.5,215.5 C932.739,215.5 930.5,217.739 930.5,220.5 M935.5,215.5 C935.5,218.261 937.739,220.5 940.5,220.5 M945.5,215.5 C942.739,215.5 940.5,217.739 940.5,220.5 M945.5,215.5 C945.5,218.261 947.739,220.5 950.5,220.5" fill-opacity="0" stroke="#6BA3CF" stroke-width="2" stroke-linecap="round" stroke-linejoin="round"/>
    </g>
    <g>
      <path d="M970.5,200.5 C970.5,197.739 972.739,195.5 975.5,195.5 M975.5,195.5 C975.5,198.261 977.739,200.5 980.5,200.5 M985.5,195.5 C982.739,195.5 980.5,197.739 980.5,200.5 M985.5,195.5 C985.5,198.261 987.739,200.5 990.5,200.5 M995.5,195.5 C992.739,195.5 990.5,197.739 990.5,200.5 M995.5,195.5 C995.5,198.261 997.739,200.5 1000.5,200.5" fill-opacity="0" stroke="#6BA3CF" stroke-width="2" stroke-linecap="round" stroke-linejoin="round"/>
      <path d="M980.5,220.5 C980.5,217.739 982.739,215.5 985.5,215.5 M985.5,215.5 C985.5,218.261 987.739,220.5 990.5,220.5 M995.5,215.5 C992.739,215.5 990.5,217.739 990.5,220.5 M995.5,215.5 C995.5,218.261 997.739,220.5 1000.5,220.5 M1005.5,215.5 C1002.739,215.5 1000.5,217.739 1000.5,220.5 M1005.5,215.5 C1005.5,218.261 1007.739,220.5 1010.5,220.5" fill-opacity="0" stroke="#6BA3CF" stroke-width="2" stroke-linecap="round" stroke-linejoin="round"/>
    </g>
    <g>
      <path d="M1090.5,200.5 C1090.5,197.739 1092.739,195.5 1095.5,195.5 M1095.5,195.5 C1095.5,198.261 1097.739,200.5 1100.5,200.5 M1105.5,195.5 C1102.739,195.5 1100.5,197.739 1100.5,200.5 M1105.5,195.5 C1105.5,198.261 1107.739,200.5 1110.5,200.5 M1115.5,195.5 C1112.739,195.5 1110.5,197.739 1110.5,200.5 M1115.5,195.5 C1115.5,198.261 1117.739,200.5 1120.5,200.5" fill-opacity="0" stroke="#6BA3CF" stroke-width="2" stroke-linecap="round" stroke-linejoin="round"/>
      <path d="M1100.5,220.5 C1100.5,217.739 1102.739,215.5 1105.5,215.5 M1105.5,215.5 C1105.5,218.261 1107.739,220.5 1110.5,220.5 M1115.5,215.5 C1112.739,215.5 1110.5,217.739 1110.5,220.5 M1115.5,215.5 C1115.5,218.261 1117.739,220.5 1120.5,220.5 M1125.5,215.5 C1122.739,215.5 1120.5,217.739 1120.5,220.5 M1125.5,215.5 C1125.5,218.261 1127.739,220.5 1130.5,220.5" fill-opacity="0" stroke="#6BA3CF" stroke-width="2" stroke-linecap="round" stroke-linejoin="round"/>
    </g>
    <g>
      <path d="M1030.5,200.5 C1030.5,197.739 1032.739,195.5 1035.5,195.5 M1035.5,195.5 C1035.5,198.261 1037.739,200.5 1040.5,200.5 M1045.5,195.5 C1042.739,195.5 1040.5,197.739 1040.5,200.5 M1045.5,195.5 C1045.5,198.261 1047.739,200.5 1050.5,200.5 M1055.5,195.5 C1052.739,195.5 1050.5,197.739 1050.5,200.5 M1055.5,195.5 C1055.5,198.261 1057.739,200.5 1060.5,200.5" fill-opacity="0" stroke="#6BA3CF" stroke-width="2" stroke-linecap="round" stroke-linejoin="round"/>
      <path d="M1040.5,220.5 C1040.5,217.739 1042.739,215.5 1045.5,215.5 M1045.5,215.5 C1045.5,218.261 1047.739,220.5 1050.5,220.5 M1055.5,215.5 C1052.739,215.5 1050.5,217.739 1050.5,220.5 M1055.5,215.5 C1055.5,218.261 1057.739,220.5 1060.5,220.5 M1065.5,215.5 C1062.739,215.5 1060.5,217.739 1060.5,220.5 M1065.5,215.5 C1065.5,218.261 1067.739,220.5 1070.5,220.5" fill-opacity="0" stroke="#6BA3CF" stroke-width="2" stroke-linecap="round" stroke-linejoin="round"/>
    </g>
    <g>
      <path d="M790.5,320.5 C790.5,317.739 792.739,315.5 795.5,315.5 M795.5,315.5 C795.5,318.261 797.739,320.5 800.5,320.5 M805.5,315.5 C802.739,315.5 800.5,317.739 800.5,320.5 M805.5,315.5 C805.5,318.261 807.739,320.5 810.5,320.5 M815.5,315.5 C812.739,315.5 810.5,317.739 810.5,320.5 M815.5,315.5 C815.5,318.261 817.739,320.5 820.5,320.5" fill-opacity="0" stroke="#6BA3CF" stroke-width="2" stroke-linecap="round" stroke-linejoin="round"/>
      <path d="M800.5,340.5 C800.5,337.739 802.739,335.5 805.5,335.5 M805.5,335.5 C805.5,338.261 807.739,340.5 810.5,340.5 M815.5,335.5 C812.739,335.5 810.5,337.739 810.5,340.5 M815.5,335.5 C815.5,338.261 817.739,340.5 820.5,340.5 M825.5,335.5 C822.739,335.5 820.5,337.739 820.5,340.5 M825.5,335.5 C825.5,338.261 827.739,340.5 830.5,340.5" fill-opacity="0" stroke="#6BA3CF" stroke-width="2" stroke-linecap="round" stroke-linejoin="round"/>
    </g>
    <g>
      <path d="M850.5,320.5 C850.5,317.739 852.739,315.5 855.5,315.5 M855.5,315.5 C855.5,318.261 857.739,320.5 860.5,320.5 M865.5,315.5 C862.739,315.5 860.5,317.739 860.5,320.5 M865.5,315.5 C865.5,318.261 867.739,320.5 870.5,320.5 M875.5,315.5 C872.739,315.5 870.5,317.739 870.5,320.5 M875.5,315.5 C875.5,318.261 877.739,320.5 880.5,320.5" fill-opacity="0" stroke="#6BA3CF" stroke-width="2" stroke-linecap="round" stroke-linejoin="round"/>
      <path d="M860.5,340.5 C860.5,337.739 862.739,335.5 865.5,335.5 M865.5,335.5 C865.5,338.261 867.739,340.5 870.5,340.5 M875.5,335.5 C872.739,335.5 870.5,337.739 870.5,340.5 M875.5,335.5 C875.5,338.261 877.739,340.5 880.5,340.5 M885.5,335.5 C882.739,335.5 880.5,337.739 880.5,340.5 M885.5,335.5 C885.5,338.261 887.739,340.5 890.5,340.5" fill-opacity="0" stroke="#6BA3CF" stroke-width="2" stroke-linecap="round" stroke-linejoin="round"/>
    </g>
    <g>
      <path d="M910.5,320.5 C910.5,317.739 912.739,315.5 915.5,315.5 M915.5,315.5 C915.5,318.261 917.739,320.5 920.5,320.5 M925.5,315.5 C922.739,315.5 920.5,317.739 920.5,320.5 M925.5,315.5 C925.5,318.261 927.739,320.5 930.5,320.5 M935.5,315.5 C932.739,315.5 930.5,317.739 930.5,320.5 M935.5,315.5 C935.5,318.261 937.739,320.5 940.5,320.5" fill-opacity="0" stroke="#6BA3CF" stroke-width="2" stroke-linecap="round" stroke-linejoin="round"/>
      <path d="M920.5,340.5 C920.5,337.739 922.739,335.5 925.5,335.5 M925.5,335.5 C925.5,338.261 927.739,340.5 930.5,340.5 M935.5,335.5 C932.739,335.5 930.5,337.739 930.5,340.5 M935.5,335.5 C935.5,338.261 937.739,340.5 940.5,340.5 M945.5,335.5 C942.739,335.5 940.5,337.739 940.5,340.5 M945.5,335.5 C945.5,338.261 947.739,340.5 950.5,340.5" fill-opacity="0" stroke="#6BA3CF" stroke-width="2" stroke-linecap="round" stroke-linejoin="round"/>
    </g>
    <g>
      <path d="M1030.5,320.5 C1030.5,317.739 1032.739,315.5 1035.5,315.5 M1035.5,315.5 C1035.5,318.261 1037.739,320.5 1040.5,320.5 M1045.5,315.5 C1042.739,315.5 1040.5,317.739 1040.5,320.5 M1045.5,315.5 C1045.5,318.261 1047.739,320.5 1050.5,320.5 M1055.5,315.5 C1052.739,315.5 1050.5,317.739 1050.5,320.5 M1055.5,315.5 C1055.5,318.261 1057.739,320.5 1060.5,320.5" fill-opacity="0" stroke="#6BA3CF" stroke-width="2" stroke-linecap="round" stroke-linejoin="round"/>
      <path d="M1040.5,340.5 C1040.5,337.739 1042.739,335.5 1045.5,335.5 M1045.5,335.5 C1045.5,338.261 1047.739,340.5 1050.5,340.5 M1055.5,335.5 C1052.739,335.5 1050.5,337.739 1050.5,340.5 M1055.5,335.5 C1055.5,338.261 1057.739,340.5 1060.5,340.5 M1065.5,335.5 C1062.739,335.5 1060.5,337.739 1060.5,340.5 M1065.5,335.5 C1065.5,338.261 1067.739,340.5 1070.5,340.5" fill-opacity="0" stroke="#6BA3CF" stroke-width="2" stroke-linecap="round" stroke-linejoin="round"/>
    </g>
    <g>
      <path d="M970.5,320.5 C970.5,317.739 972.739,315.5 975.5,315.5 M975.5,315.5 C975.5,318.261 977.739,320.5 980.5,320.5 M985.5,315.5 C982.739,315.5 980.5,317.739 980.5,320.5 M985.5,315.5 C985.5,318.261 987.739,320.5 990.5,320.5 M995.5,315.5 C992.739,315.5 990.5,317.739 990.5,320.5 M995.5,315.5 C995.5,318.261 997.739,320.5 1000.5,320.5" fill-opacity="0" stroke="#6BA3CF" stroke-width="2" stroke-linecap="round" stroke-linejoin="round"/>
      <path d="M980.5,340.5 C980.5,337.739 982.739,335.5 985.5,335.5 M985.5,335.5 C985.5,338.261 987.739,340.5 990.5,340.5 M995.5,335.5 C992.739,335.5 990.5,337.739 990.5,340.5 M995.5,335.5 C995.5,338.261 997.739,340.5 1000.5,340.5 M1005.5,335.5 C1002.739,335.5 1000.5,337.739 1000.5,340.5 M1005.5,335.5 C1005.5,338.261 1007.739,340.5 1010.5,340.5" fill-opacity="0" stroke="#6BA3CF" stroke-width="2" stroke-linecap="round" stroke-linejoin="round"/>
    </g>
    <g>
      <path d="M790.5,440.5 C790.5,437.739 792.739,435.5 795.5,435.5 M795.5,435.5 C795.5,438.261 797.739,440.5 800.5,440.5 M805.5,435.5 C802.739,435.5 800.5,437.739 800.5,440.5 M805.5,435.5 C805.5,438.261 807.739,440.5 810.5,440.5 M815.5,435.5 C812.739,435.5 810.5,437.739 810.5,440.5 M815.5,435.5 C815.5,438.261 817.739,440.5 820.5,440.5" fill-opacity="0" stroke="#6BA3CF" stroke-width="2" stroke-linecap="round" stroke-linejoin="round"/>
      <path d="M800.5,460.5 C800.5,457.739 802.739,455.5 805.5,455.5 M805.5,455.5 C805.5,458.261 807.739,460.5 810.5,460.5 M815.5,455.5 C812.739,455.5 810.5,457.739 810.5,460.5 M815.5,455.5 C815.5,458.261 817.739,460.5 820.5,460.5 M825.5,455.5 C822.739,455.5 820.5,457.739 820.5,460.5 M825.5,455.5 C825.5,458.261 827.739,460.5 830.5,460.5" fill-opacity="0" stroke="#6BA3CF" stroke-width="2" stroke-linecap="round" stroke-linejoin="round"/>
    </g>
    <g>
      <path d="M850.5,440.5 C850.5,437.739 852.739,435.5 855.5,435.5 M855.5,435.5 C855.5,438.261 857.739,440.5 860.5,440.5 M865.5,435.5 C862.739,435.5 860.5,437.739 860.5,440.5 M865.5,435.5 C865.5,438.261 867.739,440.5 870.5,440.5 M875.5,435.5 C872.739,435.5 870.5,437.739 870.5,440.5 M875.5,435.5 C875.5,438.261 877.739,440.5 880.5,440.5" fill-opacity="0" stroke="#6BA3CF" stroke-width="2" stroke-linecap="round" stroke-linejoin="round"/>
      <path d="M860.5,460.5 C860.5,457.739 862.739,455.5 865.5,455.5 M865.5,455.5 C865.5,458.261 867.739,460.5 870.5,460.5 M875.5,455.5 C872.739,455.5 870.5,457.739 870.5,460.5 M875.5,455.5 C875.5,458.261 877.739,460.5 880.5,460.5 M885.5,455.5 C882.739,455.5 880.5,457.739 880.5,460.5 M885.5,455.5 C885.5,458.261 887.739,460.5 890.5,460.5" fill-opacity="0" stroke="#6BA3CF" stroke-width="2" stroke-linecap="round" stroke-linejoin="round"/>
    </g>
    <g>
      <path d="M910.5,440.5 C910.5,437.739 912.739,435.5 915.5,435.5 M915.5,435.5 C915.5,438.261 917.739,440.5 920.5,440.5 M925.5,435.5 C922.739,435.5 920.5,437.739 920.5,440.5 M925.5,435.5 C925.5,438.261 927.739,440.5 930.5,440.5 M935.5,435.5 C932.739,435.5 930.5,437.739 930.5,440.5 M935.5,435.5 C935.5,438.261 937.739,440.5 940.5,440.5" fill-opacity="0" stroke="#6BA3CF" stroke-width="2" stroke-linecap="round" stroke-linejoin="round"/>
      <path d="M920.5,460.5 C920.5,457.739 922.739,455.5 925.5,455.5 M925.5,455.5 C925.5,458.261 927.739,460.5 930.5,460.5 M935.5,455.5 C932.739,455.5 930.5,457.739 930.5,460.5 M935.5,455.5 C935.5,458.261 937.739,460.5 940.5,460.5 M945.5,455.5 C942.739,455.5 940.5,457.739 940.5,460.5 M945.5,455.5 C945.5,458.261 947.739,460.5 950.5,460.5" fill-opacity="0" stroke="#6BA3CF" stroke-width="2" stroke-linecap="round" stroke-linejoin="round"/>
    </g>
    <g>
      <path d="M1030.5,440.5 C1030.5,437.739 1032.739,435.5 1035.5,435.5 M1035.5,435.5 C1035.5,438.261 1037.739,440.5 1040.5,440.5 M1045.5,435.5 C1042.739,435.5 1040.5,437.739 1040.5,440.5 M1045.5,435.5 C1045.5,438.261 1047.739,440.5 1050.5,440.5 M1055.5,435.5 C1052.739,435.5 1050.5,437.739 1050.5,440.5 M1055.5,435.5 C1055.5,438.261 1057.739,440.5 1060.5,440.5" fill-opacity="0" stroke="#6BA3CF" stroke-width="2" stroke-linecap="round" stroke-linejoin="round"/>
      <path d="M1040.5,460.5 C1040.5,457.739 1042.739,455.5 1045.5,455.5 M1045.5,455.5 C1045.5,458.261 1047.739,460.5 1050.5,460.5 M1055.5,455.5 C1052.739,455.5 1050.5,457.739 1050.5,460.5 M1055.5,455.5 C1055.5,458.261 1057.739,460.5 1060.5,460.5 M1065.5,455.5 C1062.739,455.5 1060.5,457.739 1060.5,460.5 M1065.5,455.5 C1065.5,458.261 1067.739,460.5 1070.5,460.5" fill-opacity="0" stroke="#6BA3CF" stroke-width="2" stroke-linecap="round" stroke-linejoin="round"/>
    </g>
    <g>
      <path d="M970.5,440.5 C970.5,437.739 972.739,435.5 975.5,435.5 M975.5,435.5 C975.5,438.261 977.739,440.5 980.5,440.5 M985.5,435.5 C982.739,435.5 980.5,437.739 980.5,440.5 M985.5,435.5 C985.5,438.261 987.739,440.5 990.5,440.5 M995.5,435.5 C992.739,435.5 990.5,437.739 990.5,440.5 M995.5,435.5 C995.5,438.261 997.739,440.5 1000.5,440.5" fill-opacity="0" stroke="#6BA3CF" stroke-width="2" stroke-linecap="round" stroke-linejoin="round"/>
      <path d="M980.5,460.5 C980.5,457.739 982.739,455.5 985.5,455.5 M985.5,455.5 C985.5,458.261 987.739,460.5 990.5,460.5 M995.5,455.5 C992.739,455.5 990.5,457.739 990.5,460.5 M995.5,455.5 C995.5,458.261 997.739,460.5 1000.5,460.5 M1005.5,455.5 C1002.739,455.5 1000.5,457.739 1000.5,460.5 M1005.5,455.5 C1005.5,458.261 1007.739,460.5 1010.5,460.5" fill-opacity="0" stroke="#6BA3CF" stroke-width="2" stroke-linecap="round" stroke-linejoin="round"/>
    </g>
    <g>
      <path d="M850.5,140.5 C850.5,137.739 852.739,135.5 855.5,135.5 M855.5,135.5 C855.5,138.261 857.739,140.5 860.5,140.5 M865.5,135.5 C862.739,135.5 860.5,137.739 860.5,140.5 M865.5,135.5 C865.5,138.261 867.739,140.5 870.5,140.5 M875.5,135.5 C872.739,135.5 870.5,137.739 870.5,140.5 M875.5,135.5 C875.5,138.261 877.739,140.5 880.5,140.5" fill-opacity="0" stroke="#6BA3CF" stroke-width="2" stroke-linecap="round" stroke-linejoin="round"/>
      <path d="M860.5,160.5 C860.5,157.739 862.739,155.5 865.5,155.5 M865.5,155.5 C865.5,158.261 867.739,160.5 870.5,160.5 M875.5,155.5 C872.739,155.5 870.5,157.739 870.5,160.5 M875.5,155.5 C875.5,158.261 877.739,160.5 880.5,160.5 M885.5,155.5 C882.739,155.5 880.5,157.739 880.5,160.5 M885.5,155.5 C885.5,158.261 887.739,160.5 890.5,160.5" fill-opacity="0" stroke="#6BA3CF" stroke-width="2" stroke-linecap="round" stroke-linejoin="round"/>
    </g>
    <g>
      <path d="M910.5,140.5 C910.5,137.739 912.739,135.5 915.5,135.5 M915.5,135.5 C915.5,138.261 917.739,140.5 920.5,140.5 M925.5,135.5 C922.739,135.5 920.5,137.739 920.5,140.5 M925.5,135.5 C925.5,138.261 927.739,140.5 930.5,140.5 M935.5,135.5 C932.739,135.5 930.5,137.739 930.5,140.5 M935.5,135.5 C935.5,138.261 937.739,140.5 940.5,140.5" fill-opacity="0" stroke="#6BA3CF" stroke-width="2" stroke-linecap="round" stroke-linejoin="round"/>
      <path d="M920.5,160.5 C920.5,157.739 922.739,155.5 925.5,155.5 M925.5,155.5 C925.5,158.261 927.739,160.5 930.5,160.5 M935.5,155.5 C932.739,155.5 930.5,157.739 930.5,160.5 M935.5,155.5 C935.5,158.261 937.739,160.5 940.5,160.5 M945.5,155.5 C942.739,155.5 940.5,157.739 940.5,160.5 M945.5,155.5 C945.5,158.261 947.739,160.5 950.5,160.5" fill-opacity="0" stroke="#6BA3CF" stroke-width="2" stroke-linecap="round" stroke-linejoin="round"/>
    </g>
    <g>
      <path d="M1090.5,80.5 C1090.5,77.739 1092.739,75.5 1095.5,75.5 M1095.5,75.5 C1095.5,78.261 1097.739,80.5 1100.5,80.5 M1105.5,75.5 C1102.739,75.5 1100.5,77.739 1100.5,80.5 M1105.5,75.5 C1105.5,78.261 1107.739,80.5 1110.5,80.5 M1115.5,75.5 C1112.739,75.5 1110.5,77.739 1110.5,80.5 M1115.5,75.5 C1115.5,78.261 1117.739,80.5 1120.5,80.5" fill-opacity="0" stroke="#6BA3CF" stroke-width="2" stroke-linecap="round" stroke-linejoin="round"/>
      <path d="M1100.5,100.5 C1100.5,97.739 1102.739,95.5 1105.5,95.5 M1105.5,95.5 C1105.5,98.261 1107.739,100.5 1110.5,100.5 M1115.5,95.5 C1112.739,95.5 1110.5,97.739 1110.5,100.5 M1115.5,95.5 C1115.5,98.261 1117.739,100.5 1120.5,100.5 M1125.5,95.5 C1122.739,95.5 1120.5,97.739 1120.5,100.5 M1125.5,95.5 C1125.5,98.261 1127.739,100.5 1130.5,100.5" fill-opacity="0" stroke="#6BA3CF" stroke-width="2" stroke-linecap="round" stroke-linejoin="round"/>
    </g>
    <g>
      <path d="M790.5,260.5 C790.5,257.739 792.739,255.5 795.5,255.5 M795.5,255.5 C795.5,258.261 797.739,260.5 800.5,260.5 M805.5,255.5 C802.739,255.5 800.5,257.739 800.5,260.5 M805.5,255.5 C805.5,258.261 807.739,260.5 810.5,260.5 M815.5,255.5 C812.739,255.5 810.5,257.739 810.5,260.5 M815.5,255.5 C815.5,258.261 817.739,260.5 820.5,260.5" fill-opacity="0" stroke="#6BA3CF" stroke-width="2" stroke-linecap="round" stroke-linejoin="round"/>
      <path d="M800.5,280.5 C800.5,277.739 802.739,275.5 805.5,275.5 M805.5,275.5 C805.5,278.261 807.739,280.5 810.5,280.5 M815.5,275.5 C812.739,275.5 810.5,277.739 810.5,280.5 M815.5,275.5 C815.5,278.261 817.739,280.5 820.5,280.5 M825.5,275.5 C822.739,275.5 820.5,277.739 820.5,280.5 M825.5,275.5 C825.5,278.261 827.739,280.5 830.5,280.5" fill-opacity="0" stroke="#6BA3CF" stroke-width="2" stroke-linecap="round" stroke-linejoin="round"/>
    </g>
    <g>
      <path d="M850.5,260.5 C850.5,257.739 852.739,255.5 855.5,255.5 M855.5,255.5 C855.5,258.261 857.739,260.5 860.5,260.5 M865.5,255.5 C862.739,255.5 860.5,257.739 860.5,260.5 M865.5,255.5 C865.5,258.261 867.739,260.5 870.5,260.5 M875.5,255.5 C872.739,255.5 870.5,257.739 870.5,260.5 M875.5,255.5 C875.5,258.261 877.739,260.5 880.5,260.5" fill-opacity="0" stroke="#6BA3CF" stroke-width="2" stroke-linecap="round" stroke-linejoin="round"/>
      <path d="M860.5,280.5 C860.5,277.739 862.739,275.5 865.5,275.5 M865.5,275.5 C865.5,278.261 867.739,280.5 870.5,280.5 M875.5,275.5 C872.739,275.5 870.5,277.739 870.5,280.5 M875.5,275.5 C875.5,278.261 877.739,280.5 880.5,280.5 M885.5,275.5 C882.739,275.5 880.5,277.739 880.5,280.5 M885.5,275.5 C885.5,278.261 887.739,280.5 890.5,280.5" fill-opacity="0" stroke="#6BA3CF" stroke-width="2" stroke-linecap="round" stroke-linejoin="round"/>
    </g>
    <g>
      <path d="M1090.5,260.5 C1090.5,257.739 1092.739,255.5 1095.5,255.5 M1095.5,255.5 C1095.5,258.261 1097.739,260.5 1100.5,260.5 M1105.5,255.5 C1102.739,255.5 1100.5,257.739 1100.5,260.5 M1105.5,255.5 C1105.5,258.261 1107.739,260.5 1110.5,260.5 M1115.5,255.5 C1112.739,255.5 1110.5,257.739 1110.5,260.5 M1115.5,255.5 C1115.5,258.261 1117.739,260.5 1120.5,260.5" fill-opacity="0" stroke="#6BA3CF" stroke-width="2" stroke-linecap="round" stroke-linejoin="round"/>
      <path d="M1100.5,280.5 C1100.5,277.739 1102.739,275.5 1105.5,275.5 M1105.5,275.5 C1105.5,278.261 1107.739,280.5 1110.5,280.5 M1115.5,275.5 C1112.739,275.5 1110.5,277.739 1110.5,280.5 M1115.5,275.5 C1115.5,278.261 1117.739,280.5 1120.5,280.5 M1125.5,275.5 C1122.739,275.5 1120.5,277.739 1120.5,280.5 M1125.5,275.5 C1125.5,278.261 1127.739,280.5 1130.5,280.5" fill-opacity="0" stroke="#6BA3CF" stroke-width="2" stroke-linecap="round" stroke-linejoin="round"/>
    </g>
    <g>
      <path d="M1090.5,320.5 C1090.5,317.739 1092.739,315.5 1095.5,315.5 M1095.5,315.5 C1095.5,318.261 1097.739,320.5 1100.5,320.5 M1105.5,315.5 C1102.739,315.5 1100.5,317.739 1100.5,320.5 M1105.5,315.5 C1105.5,318.261 1107.739,320.5 1110.5,320.5 M1115.5,315.5 C1112.739,315.5 1110.5,317.739 1110.5,320.5 M1115.5,315.5 C1115.5,318.261 1117.739,320.5 1120.5,320.5" fill-opacity="0" stroke="#6BA3CF" stroke-width="2" stroke-linecap="round" stroke-linejoin="round"/>
      <path d="M1100.5,340.5 C1100.5,337.739 1102.739,335.5 1105.5,335.5 M1105.5,335.5 C1105.5,338.261 1107.739,340.5 1110.5,340.5 M1115.5,335.5 C1112.739,335.5 1110.5,337.739 1110.5,340.5 M1115.5,335.5 C1115.5,338.261 1117.739,340.5 1120.5,340.5 M1125.5,335.5 C1122.739,335.5 1120.5,337.739 1120.5,340.5 M1125.5,335.5 C1125.5,338.261 1127.739,340.5 1130.5,340.5" fill-opacity="0" stroke="#6BA3CF" stroke-width="2" stroke-linecap="round" stroke-linejoin="round"/>
    </g>
    <g>
      <path d="M790.5,380.5 C790.5,377.739 792.739,375.5 795.5,375.5 M795.5,375.5 C795.5,378.261 797.739,380.5 800.5,380.5 M805.5,375.5 C802.739,375.5 800.5,377.739 800.5,380.5 M805.5,375.5 C805.5,378.261 807.739,380.5 810.5,380.5 M815.5,375.5 C812.739,375.5 810.5,377.739 810.5,380.5 M815.5,375.5 C815.5,378.261 817.739,380.5 820.5,380.5" fill-opacity="0" stroke="#6BA3CF" stroke-width="2" stroke-linecap="round" stroke-linejoin="round"/>
      <path d="M800.5,400.5 C800.5,397.739 802.739,395.5 805.5,395.5 M805.5,395.5 C805.5,398.261 807.739,400.5 810.5,400.5 M815.5,395.5 C812.739,395.5 810.5,397.739 810.5,400.5 M815.5,395.5 C815.5,398.261 817.739,400.5 820.5,400.5 M825.5,395.5 C822.739,395.5 820.5,397.739 820.5,400.5 M825.5,395.5 C825.5,398.261 827.739,400.5 830.5,400.5" fill-opacity="0" stroke="#6BA3CF" stroke-width="2" stroke-linecap="round" stroke-linejoin="round"/>
    </g>
    <g>
      <path d="M1090.5,380.5 C1090.5,377.739 1092.739,375.5 1095.5,375.5 M1095.5,375.5 C1095.5,378.261 1097.739,380.5 1100.5,380.5 M1105.5,375.5 C1102.739,375.5 1100.5,377.739 1100.5,380.5 M1105.5,375.5 C1105.5,378.261 1107.739,380.5 1110.5,380.5 M1115.5,375.5 C1112.739,375.5 1110.5,377.739 1110.5,380.5 M1115.5,375.5 C1115.5,378.261 1117.739,380.5 1120.5,380.5" fill-opacity="0" stroke="#6BA3CF" stroke-width="2" stroke-linecap="round" stroke-linejoin="round"/>
      <path d="M1100.5,400.5 C1100.5,397.739 1102.739,395.5 1105.5,395.5 M1105.5,395.5 C1105.5,398.261 1107.739,400.5 1110.5,400.5 M1115.5,395.5 C1112.739,395.5 1110.5,397.739 1110.5,400.5 M1115.5,395.5 C1115.5,398.261 1117.739,400.5 1120.5,400.5 M1125.5,395.5 C1122.739,395.5 1120.5,397.739 1120.5,400.5 M1125.5,395.5 C1125.5,398.261 1127.739,400.5 1130.5,400.5" fill-opacity="0" stroke="#6BA3CF" stroke-width="2" stroke-linecap="round" stroke-linejoin="round"/>
    </g>
    <g>
      <path d="M1090.5,440.5 C1090.5,437.739 1092.739,435.5 1095.5,435.5 M1095.5,435.5 C1095.5,438.261 1097.739,440.5 1100.5,440.5 M1105.5,435.5 C1102.739,435.5 1100.5,437.739 1100.5,440.5 M1105.5,435.5 C1105.5,438.261 1107.739,440.5 1110.5,440.5 M1115.5,435.5 C1112.739,435.5 1110.5,437.739 1110.5,440.5 M1115.5,435.5 C1115.5,438.261 1117.739,440.5 1120.5,440.5" fill-opacity="0" stroke="#6BA3CF" stroke-width="2" stroke-linecap="round" stroke-linejoin="round"/>
      <path d="M1100.5,460.5 C1100.5,457.739 1102.739,455.5 1105.5,455.5 M1105.5,455.5 C1105.5,458.261 1107.739,460.5 1110.5,460.5 M1115.5,455.5 C1112.739,455.5 1110.5,457.739 1110.5,460.5 M1115.5,455.5 C1115.5,458.261 1117.739,460.5 1120.5,460.5 M1125.5,455.5 C1122.739,455.5 1120.5,457.739 1120.5,460.5 M1125.5,455.5 C1125.5,458.261 1127.739,460.5 1130.5,460.5" fill-opacity="0" stroke="#6BA3CF" stroke-width="2" stroke-linecap="round" stroke-linejoin="round"/>
    </g>
  </g>
  <defs/>
</svg>
