<?xml version="1.0" encoding="UTF-8"?>
<!DOCTYPE svg PUBLIC "-//W3C//DTD SVG 1.1//EN" "http://www.w3.org/Graphics/SVG/1.1/DTD/svg11.dtd">
<svg version="1.1" xmlns="http://www.w3.org/2000/svg" xmlns:xlink="http://www.w3.org/1999/xlink" x="0px" y="0px" width="1200" height="750" viewBox="0, 0, 1200, 750">
  <g id="Background">
    <rect x="0" y="0" width="1200" height="750" fill="#000000" fill-opacity="0"/>
  </g>
  <g id="Layer 1">
    <g>
      <path d="M960.5,80.5 L1040.5,80.5 L1040.5,160.5 L960.5,160.5 z" fill="#FABA00"/>
      <path d="M960.5,80.5 L1040.5,80.5 L1040.5,160.5 L960.5,160.5 z" fill-opacity="0" stroke="#737370" stroke-width="2"/>
    </g>
    <g>
      <path d="M960.5,160.5 L1040.5,160.5 L1040.5,240.5 L960.5,240.5 z" fill="#8FC7ED"/>
      <path d="M960.5,160.5 L1040.5,160.5 L1040.5,240.5 L960.5,240.5 z" fill-opacity="0" stroke="#737370" stroke-width="2"/>
    </g>
    <g>
      <path d="M1040.5,160.5 L1120.5,160.5 L1120.5,240.5 L1040.5,240.5 z" fill="#8FC7ED"/>
      <path d="M1040.5,160.5 L1120.5,160.5 L1120.5,240.5 L1040.5,240.5 z" fill-opacity="0" stroke="#737370" stroke-width="2"/>
    </g>
    <g>
      <path d="M160.5,80.5 L240.5,80.5 L240.5,160.5 L160.5,160.5 z" fill="#8FC7ED"/>
      <path d="M160.5,80.5 L240.5,80.5 L240.5,160.5 L160.5,160.5 z" fill-opacity="0" stroke="#737370" stroke-width="2"/>
    </g>
    <g>
      <path d="M240.5,80.5 L320.5,80.5 L320.5,160.5 L240.5,160.5 z" fill="#FABA00"/>
      <path d="M240.5,80.5 L320.5,80.5 L320.5,160.5 L240.5,160.5 z" fill-opacity="0" stroke="#737370" stroke-width="2"/>
    </g>
    <g>
      <path d="M320.5,80.5 L400.5,80.5 L400.5,160.5 L320.5,160.5 z" fill="#FABA00"/>
      <path d="M320.5,80.5 L400.5,80.5 L400.5,160.5 L320.5,160.5 z" fill-opacity="0" stroke="#737370" stroke-width="2"/>
    </g>
    <g>
      <path d="M400.5,80.5 L480.5,80.5 L480.5,160.5 L400.5,160.5 z" fill="#8FC7ED"/>
      <path d="M400.5,80.5 L480.5,80.5 L480.5,160.5 L400.5,160.5 z" fill-opacity="0" stroke="#737370" stroke-width="2"/>
    </g>
    <g>
      <path d="M80.5,160.5 L160.5,160.5 L160.5,240.5 L80.5,240.5 z" fill="#8FC7ED"/>
      <path d="M80.5,160.5 L160.5,160.5 L160.5,240.5 L80.5,240.5 z" fill-opacity="0" stroke="#737370" stroke-width="2"/>
    </g>
    <g>
      <path d="M160.5,160.5 L240.5,160.5 L240.5,240.5 L160.5,240.5 z" fill="#FABA00"/>
      <path d="M160.5,160.5 L240.5,160.5 L240.5,240.5 L160.5,240.5 z" fill-opacity="0" stroke="#737370" stroke-width="2"/>
    </g>
    <g>
      <path d="M240.5,160.5 L320.5,160.5 L320.5,240.5 L240.5,240.5 z" fill="#FABA00"/>
      <path d="M240.5,160.5 L320.5,160.5 L320.5,240.5 L240.5,240.5 z" fill-opacity="0" stroke="#737370" stroke-width="2"/>
    </g>
    <g>
      <path d="M320.5,160.5 L400.5,160.5 L400.5,240.5 L320.5,240.5 z" fill="#8FC7ED"/>
      <path d="M320.5,160.5 L400.5,160.5 L400.5,240.5 L320.5,240.5 z" fill-opacity="0" stroke="#737370" stroke-width="2"/>
    </g>
    <g>
      <path d="M400.5,160.5 L480.5,160.5 L480.5,240.5 L400.5,240.5 z" fill="#8FC7ED"/>
      <path d="M400.5,160.5 L480.5,160.5 L480.5,240.5 L400.5,240.5 z" fill-opacity="0" stroke="#737370" stroke-width="2"/>
    </g>
    <g>
      <path d="M80.5,240.5 L160.5,240.5 L160.5,320.5 L80.5,320.5 z" fill="#8FC7ED"/>
      <path d="M80.5,240.5 L160.5,240.5 L160.5,320.5 L80.5,320.5 z" fill-opacity="0" stroke="#737370" stroke-width="2"/>
    </g>
    <g>
      <path d="M160.5,240.5 L240.5,240.5 L240.5,320.5 L160.5,320.5 z" fill="#8FC7ED"/>
      <path d="M160.5,240.5 L240.5,240.5 L240.5,320.5 L160.5,320.5 z" fill-opacity="0" stroke="#737370" stroke-width="2"/>
    </g>
    <g>
      <path d="M240.5,240.5 L320.5,240.5 L320.5,320.5 L240.5,320.5 z" fill="#8FC7ED"/>
      <path d="M240.5,240.5 L320.5,240.5 L320.5,320.5 L240.5,320.5 z" fill-opacity="0" stroke="#737370" stroke-width="2"/>
    </g>
    <g>
      <path d="M320.5,240.5 L400.5,240.5 L400.5,320.5 L320.5,320.5 z" fill="#FABA00"/>
      <path d="M320.5,240.5 L400.5,240.5 L400.5,320.5 L320.5,320.5 z" fill-opacity="0" stroke="#737370" stroke-width="2"/>
    </g>
    <g>
      <path d="M400.5,240.5 L480.5,240.5 L480.5,320.5 L400.5,320.5 z" fill="#FABA00"/>
      <path d="M400.5,240.5 L480.5,240.5 L480.5,320.5 L400.5,320.5 z" fill-opacity="0" stroke="#737370" stroke-width="2"/>
    </g>
    <g>
      <path d="M80.5,320.5 L160.5,320.5 L160.5,400.5 L80.5,400.5 z" fill="#FABA00"/>
      <path d="M80.5,320.5 L160.5,320.5 L160.5,400.5 L80.5,400.5 z" fill-opacity="0" stroke="#737370" stroke-width="2"/>
    </g>
    <g>
      <path d="M160.5,320.5 L240.5,320.5 L240.5,400.5 L160.5,400.5 z" fill="#8FC7ED"/>
      <path d="M160.5,320.5 L240.5,320.5 L240.5,400.5 L160.5,400.5 z" fill-opacity="0" stroke="#737370" stroke-width="2"/>
    </g>
    <g>
      <path d="M240.5,320.5 L320.5,320.5 L320.5,400.5 L240.5,400.5 z" fill="#8FC7ED"/>
      <path d="M240.5,320.5 L320.5,320.5 L320.5,400.5 L240.5,400.5 z" fill-opacity="0" stroke="#737370" stroke-width="2"/>
    </g>
    <g>
      <path d="M320.5,320.5 L400.5,320.5 L400.5,400.5 L320.5,400.5 z" fill="#8FC7ED"/>
      <path d="M320.5,320.5 L400.5,320.5 L400.5,400.5 L320.5,400.5 z" fill-opacity="0" stroke="#737370" stroke-width="2"/>
    </g>
    <g>
      <path d="M400.5,320.5 L480.5,320.5 L480.5,400.5 L400.5,400.5 z" fill="#8FC7ED"/>
      <path d="M400.5,320.5 L480.5,320.5 L480.5,400.5 L400.5,400.5 z" fill-opacity="0" stroke="#737370" stroke-width="2"/>
    </g>
    <g>
      <path d="M80.5,400.5 L160.5,400.5 L160.5,480.5 L80.5,480.5 z" fill="#8FC7ED"/>
      <path d="M80.5,400.5 L160.5,400.5 L160.5,480.5 L80.5,480.5 z" fill-opacity="0" stroke="#737370" stroke-width="2"/>
    </g>
    <g>
      <path d="M160.5,400.5 L240.5,400.5 L240.5,480.5 L160.5,480.5 z" fill="#FABA00"/>
      <path d="M160.5,400.5 L240.5,400.5 L240.5,480.5 L160.5,480.5 z" fill-opacity="0" stroke="#737370" stroke-width="2"/>
    </g>
    <g>
      <path d="M240.5,400.5 L320.5,400.5 L320.5,480.5 L240.5,480.5 z" fill="#8FC7ED"/>
      <path d="M240.5,400.5 L320.5,400.5 L320.5,480.5 L240.5,480.5 z" fill-opacity="0" stroke="#737370" stroke-width="2"/>
    </g>
    <g>
      <path d="M320.5,400.5 L400.5,400.5 L400.5,480.5 L320.5,480.5 z" fill="#FABA00"/>
      <path d="M320.5,400.5 L400.5,400.5 L400.5,480.5 L320.5,480.5 z" fill-opacity="0" stroke="#737370" stroke-width="2"/>
    </g>
    <g>
      <path d="M400.5,400.5 L480.5,400.5 L480.5,480.5 L400.5,480.5 z" fill="#8FC7ED"/>
      <path d="M400.5,400.5 L480.5,400.5 L480.5,480.5 L400.5,480.5 z" fill-opacity="0" stroke="#294270" stroke-width="6" stroke-linejoin="round"/>
    </g>
    <g>
      <text transform="matrix(1, 0, 0, 1, 271.326, 650.5)">
        <tspan x="-191.325" y="-129.5" font-family="Verdana-Bold" font-size="21" fill="#294270">Matrix:	[[0, 0, 5, 4, 0],</tspan>
        <tspan x="-191.325" y="-104.5" font-family="Verdana-Bold" font-size="21" fill="#294270">			  [0, 1, 5, 0, 0],</tspan>
        <tspan x="-191.325" y="-79.5" font-family="Verdana-Bold" font-size="21" fill="#294270">			  [0, 0, 0, 7, 2],</tspan>
        <tspan x="-191.325" y="-54.5" font-family="Verdana-Bold" font-size="21" fill="#294270">			  [8, 0, 0, 0, 0],</tspan>
        <tspan x="-191.325" y="-29.5" font-family="Verdana-Bold" font-size="21" fill="#294270">			  [0, 9, 0, 1, 0]]</tspan>
        <tspan x="-191.325" y="-4.5" font-family="Verdana-Bold" font-size="21" fill="#294270">From:  	[1,1]</tspan>
        <tspan x="-191.325" y="20.5" font-family="Verdana-Bold" font-size="21" fill="#294270">To:     	[5,3]</tspan>
        <tspan x="-191.325" y="70.5" font-family="Verdana-Bold" font-size="21" fill="#294270">Result: True</tspan>
      </text>
      <path d="M97.955,521 L94.038,521 L94.038,510.777 L91.208,517.411 L88.49,517.411 L85.66,510.777 L85.66,521 L81.948,521 L81.948,505.732 L86.521,505.732 L89.957,513.392 L93.381,505.732 L97.955,505.732 z M108.619,517.996 L108.619,515.596 Q107.87,515.658 106.999,515.765 Q106.127,515.873 105.676,516.017 Q105.122,516.191 104.83,516.524 Q104.538,516.857 104.538,517.401 Q104.538,517.76 104.599,517.985 Q104.661,518.211 104.907,518.416 Q105.143,518.621 105.471,518.719 Q105.799,518.816 106.496,518.816 Q107.05,518.816 107.619,518.59 Q108.188,518.365 108.619,517.996 z M108.619,519.78 Q108.321,520.005 107.88,520.323 Q107.439,520.641 107.05,520.826 Q106.506,521.072 105.922,521.19 Q105.337,521.308 104.64,521.308 Q103,521.308 101.892,520.292 Q100.785,519.277 100.785,517.698 Q100.785,516.437 101.349,515.637 Q101.913,514.837 102.948,514.376 Q103.974,513.915 105.491,513.72 Q107.009,513.525 108.639,513.433 L108.639,513.371 Q108.639,512.417 107.86,512.053 Q107.081,511.689 105.563,511.689 Q104.65,511.689 103.615,512.012 Q102.579,512.335 102.128,512.51 L101.79,512.51 L101.79,509.731 Q102.374,509.577 103.692,509.367 Q105.009,509.157 106.332,509.157 Q109.48,509.157 110.88,510.126 Q112.279,511.095 112.279,513.166 L112.279,521 L108.619,521 z M123.036,520.897 Q122.441,521.051 121.774,521.138 Q121.108,521.226 120.144,521.226 Q117.991,521.226 116.94,520.354 Q115.889,519.482 115.889,517.37 L115.889,511.987 L114.371,511.987 L114.371,509.485 L115.889,509.485 L115.889,506.193 L119.58,506.193 L119.58,509.485 L123.036,509.485 L123.036,511.987 L119.58,511.987 L119.58,516.068 Q119.58,516.673 119.59,517.124 Q119.601,517.575 119.754,517.934 Q119.898,518.293 120.262,518.503 Q120.626,518.713 121.323,518.713 Q121.61,518.713 122.077,518.59 Q122.543,518.467 122.728,518.365 L123.036,518.365 z M133.587,513.002 L133.259,513.002 Q133.023,512.92 132.5,512.879 Q131.977,512.838 131.628,512.838 Q130.839,512.838 130.234,512.94 Q129.629,513.043 128.932,513.289 L128.932,521 L125.24,521 L125.24,509.485 L128.932,509.485 L128.932,511.177 Q130.152,510.131 131.054,509.787 Q131.957,509.444 132.715,509.444 Q132.91,509.444 133.156,509.454 Q133.402,509.464 133.587,509.485 z M139.37,521 L135.679,521 L135.679,509.485 L139.37,509.485 z M139.473,507.844 L135.576,507.844 L135.576,505.045 L139.473,505.045 z M154.895,521 L150.588,521 L148.127,517.555 L145.604,521 L141.38,521 L145.922,515.248 L141.452,509.485 L145.758,509.485 L148.178,512.869 L150.608,509.485 L154.843,509.485 L150.362,515.155 z M161.303,513.515 L157.468,513.515 L157.468,509.485 L161.303,509.485 z M161.303,521 L157.468,521 L157.468,516.97 L161.303,516.97 z M173.393,525.02 L166.543,525.02 L166.543,505.045 L173.393,505.045 L173.393,507.506 L169.752,507.506 L169.752,522.559 L173.393,522.559 z M184.805,525.02 L177.956,525.02 L177.956,505.045 L184.805,505.045 L184.805,507.506 L181.165,507.506 L181.165,522.559 L184.805,522.559 z M200.606,513.361 Q200.606,515.289 200.258,516.811 Q199.909,518.334 199.171,519.308 Q198.412,520.303 197.223,520.81 Q196.033,521.318 194.29,521.318 Q192.578,521.318 191.368,520.805 Q190.158,520.292 189.409,519.288 Q188.65,518.283 188.312,516.791 Q187.974,515.299 187.974,513.371 Q187.974,511.382 188.322,509.916 Q188.671,508.449 189.43,507.434 Q190.188,506.429 191.398,505.927 Q192.608,505.424 194.29,505.424 Q196.043,505.424 197.233,505.942 Q198.422,506.46 199.181,507.485 Q199.93,508.49 200.268,509.962 Q200.606,511.433 200.606,513.361 z M196.638,513.361 Q196.638,510.592 196.095,509.418 Q195.551,508.244 194.29,508.244 Q193.029,508.244 192.485,509.418 Q191.942,510.592 191.942,513.381 Q191.942,516.099 192.496,517.298 Q193.049,518.498 194.29,518.498 Q195.531,518.498 196.084,517.298 Q196.638,516.099 196.638,513.361 z M208.092,516.97 L204.4,524.794 L202.114,524.794 L204.134,516.97 z M230.302,513.361 Q230.302,515.289 229.953,516.811 Q229.604,518.334 228.866,519.308 Q228.107,520.303 226.918,520.81 Q225.729,521.318 223.985,521.318 Q222.273,521.318 221.063,520.805 Q219.853,520.292 219.104,519.288 Q218.346,518.283 218.007,516.791 Q217.669,515.299 217.669,513.371 Q217.669,511.382 218.018,509.916 Q218.366,508.449 219.125,507.434 Q219.884,506.429 221.094,505.927 Q222.304,505.424 223.985,505.424 Q225.739,505.424 226.928,505.942 Q228.118,506.46 228.876,507.485 Q229.625,508.49 229.963,509.962 Q230.302,511.433 230.302,513.361 z M226.333,513.361 Q226.333,510.592 225.79,509.418 Q225.247,508.244 223.985,508.244 Q222.724,508.244 222.181,509.418 Q221.637,510.592 221.637,513.381 Q221.637,516.099 222.191,517.298 Q222.745,518.498 223.985,518.498 Q225.226,518.498 225.78,517.298 Q226.333,516.099 226.333,513.361 z M237.787,516.97 L234.096,524.794 L231.809,524.794 L233.829,516.97 z M259.771,515.832 Q259.771,517.021 259.325,518.042 Q258.879,519.062 258.028,519.79 Q257.085,520.569 255.86,520.944 Q254.634,521.318 253.065,521.318 Q251.23,521.308 249.964,521.026 Q248.697,520.744 247.897,520.395 L247.897,517.021 L248.328,517.021 Q249.261,517.575 250.338,517.944 Q251.415,518.313 252.481,518.313 Q253.127,518.313 253.881,518.165 Q254.634,518.016 255.075,517.626 Q255.424,517.309 255.603,516.98 Q255.783,516.652 255.783,515.965 Q255.783,515.432 255.542,515.048 Q255.301,514.663 254.921,514.427 Q254.368,514.089 253.588,513.981 Q252.809,513.874 252.173,513.874 Q251.25,513.874 250.405,514.032 Q249.559,514.191 248.923,514.345 L248.472,514.345 L248.472,505.732 L259.331,505.732 L259.331,508.654 L252.173,508.654 L252.173,511.146 Q252.491,511.125 252.978,511.11 Q253.465,511.095 253.834,511.095 Q255.096,511.095 256.085,511.336 Q257.075,511.577 257.792,512.007 Q258.726,512.571 259.249,513.499 Q259.771,514.427 259.771,515.832 z M267.482,516.97 L263.791,524.794 L261.504,524.794 L263.524,516.97 z M290.01,517.483 L287.929,517.483 L287.929,521.041 L284.166,521.041 L284.166,517.483 L276.772,517.483 L276.772,514.591 L283.919,505.732 L287.929,505.732 L287.929,514.694 L290.01,514.694 z M284.166,514.694 L284.166,509.177 L279.726,514.694 z M297.178,516.97 L293.486,524.794 L291.2,524.794 L293.22,516.97 z M319.388,513.361 Q319.388,515.289 319.039,516.811 Q318.69,518.334 317.952,519.308 Q317.193,520.303 316.004,520.81 Q314.814,521.318 313.071,521.318 Q311.359,521.318 310.149,520.805 Q308.939,520.292 308.19,519.288 Q307.432,518.283 307.093,516.791 Q306.755,515.299 306.755,513.371 Q306.755,511.382 307.104,509.916 Q307.452,508.449 308.211,507.434 Q308.97,506.429 310.18,505.927 Q311.39,505.424 313.071,505.424 Q314.825,505.424 316.014,505.942 Q317.204,506.46 317.962,507.485 Q318.711,508.49 319.049,509.962 Q319.388,511.433 319.388,513.361 z M315.419,513.361 Q315.419,510.592 314.876,509.418 Q314.333,508.244 313.071,508.244 Q311.81,508.244 311.267,509.418 Q310.723,510.592 310.723,513.381 Q310.723,516.099 311.277,517.298 Q311.831,518.498 313.071,518.498 Q314.312,518.498 314.866,517.298 Q315.419,516.099 315.419,513.361 z M329.416,525.02 L322.566,525.02 L322.566,522.559 L326.207,522.559 L326.207,507.506 L322.566,507.506 L322.566,505.045 L329.416,505.045 z M338.286,516.97 L334.594,524.794 L332.308,524.794 L334.328,516.97 z M187.748,550.02 L180.898,550.02 L180.898,530.045 L187.748,530.045 L187.748,532.506 L184.108,532.506 L184.108,547.559 L187.748,547.559 z M203.549,538.361 Q203.549,540.289 203.201,541.811 Q202.852,543.334 202.114,544.308 Q201.355,545.303 200.166,545.81 Q198.976,546.318 197.233,546.318 Q195.521,546.318 194.311,545.805 Q193.101,545.292 192.352,544.288 Q191.593,543.283 191.255,541.791 Q190.917,540.299 190.917,538.371 Q190.917,536.382 191.265,534.916 Q191.614,533.449 192.373,532.434 Q193.131,531.429 194.341,530.927 Q195.551,530.424 197.233,530.424 Q198.986,530.424 200.176,530.942 Q201.365,531.46 202.124,532.485 Q202.873,533.49 203.211,534.962 Q203.549,536.433 203.549,538.361 z M199.581,538.361 Q199.581,535.592 199.038,534.418 Q198.494,533.244 197.233,533.244 Q195.972,533.244 195.428,534.418 Q194.885,535.592 194.885,538.381 Q194.885,541.099 195.438,542.298 Q195.992,543.498 197.233,543.498 Q198.474,543.498 199.027,542.298 Q199.581,541.099 199.581,538.361 z M211.035,541.97 L207.343,549.794 L205.057,549.794 L207.077,541.97 z M232.383,546 L222.191,546 L222.191,543.334 L225.411,543.334 L225.411,535.264 L222.191,535.264 L222.191,532.772 Q222.929,532.772 223.606,532.685 Q224.283,532.598 224.734,532.383 Q225.267,532.126 225.534,531.716 Q225.8,531.306 225.841,530.691 L229.235,530.691 L229.235,543.334 L232.383,543.334 z M240.73,541.97 L237.039,549.794 L234.752,549.794 L236.772,541.97 z M262.714,540.832 Q262.714,542.021 262.268,543.042 Q261.822,544.062 260.971,544.79 Q260.028,545.569 258.802,545.944 Q257.577,546.318 256.008,546.318 Q254.173,546.308 252.906,546.026 Q251.64,545.744 250.84,545.395 L250.84,542.021 L251.271,542.021 Q252.204,542.575 253.281,542.944 Q254.357,543.313 255.424,543.313 Q256.07,543.313 256.823,543.165 Q257.577,543.016 258.018,542.626 Q258.367,542.309 258.546,541.98 Q258.726,541.652 258.726,540.965 Q258.726,540.432 258.485,540.048 Q258.244,539.663 257.864,539.427 Q257.311,539.089 256.531,538.981 Q255.752,538.874 255.116,538.874 Q254.193,538.874 253.347,539.032 Q252.501,539.191 251.866,539.345 L251.415,539.345 L251.415,530.732 L262.273,530.732 L262.273,533.654 L255.116,533.654 L255.116,536.146 Q255.434,536.125 255.921,536.11 Q256.408,536.095 256.777,536.095 Q258.039,536.095 259.028,536.336 Q260.018,536.577 260.735,537.007 Q261.668,537.571 262.191,538.499 Q262.714,539.427 262.714,540.832 z M270.425,541.97 L266.734,549.794 L264.447,549.794 L266.467,541.97 z M292.635,538.361 Q292.635,540.289 292.287,541.811 Q291.938,543.334 291.2,544.308 Q290.441,545.303 289.251,545.81 Q288.062,546.318 286.319,546.318 Q284.606,546.318 283.396,545.805 Q282.187,545.292 281.438,544.288 Q280.679,543.283 280.341,541.791 Q280.002,540.299 280.002,538.371 Q280.002,536.382 280.351,534.916 Q280.7,533.449 281.458,532.434 Q282.217,531.429 283.427,530.927 Q284.637,530.424 286.319,530.424 Q288.072,530.424 289.262,530.942 Q290.451,531.46 291.21,532.485 Q291.958,533.49 292.297,534.962 Q292.635,536.433 292.635,538.361 z M288.667,538.361 Q288.667,535.592 288.124,534.418 Q287.58,533.244 286.319,533.244 Q285.058,533.244 284.514,534.418 Q283.971,535.592 283.971,538.381 Q283.971,541.099 284.524,542.298 Q285.078,543.498 286.319,543.498 Q287.56,543.498 288.113,542.298 Q288.667,541.099 288.667,538.361 z M300.121,541.97 L296.429,549.794 L294.143,549.794 L296.163,541.97 z M322.331,538.361 Q322.331,540.289 321.982,541.811 Q321.633,543.334 320.895,544.308 Q320.136,545.303 318.947,545.81 Q317.757,546.318 316.014,546.318 Q314.302,546.318 313.092,545.805 Q311.882,545.292 311.133,544.288 Q310.375,543.283 310.036,541.791 Q309.698,540.299 309.698,538.371 Q309.698,536.382 310.046,534.916 Q310.395,533.449 311.154,532.434 Q311.913,531.429 313.123,530.927 Q314.333,530.424 316.014,530.424 Q317.768,530.424 318.957,530.942 Q320.146,531.46 320.905,532.485 Q321.654,533.49 321.992,534.962 Q322.331,536.433 322.331,538.361 z M318.362,538.361 Q318.362,535.592 317.819,534.418 Q317.275,533.244 316.014,533.244 Q314.753,533.244 314.209,534.418 Q313.666,535.592 313.666,538.381 Q313.666,541.099 314.22,542.298 Q314.773,543.498 316.014,543.498 Q317.255,543.498 317.809,542.298 Q318.362,541.099 318.362,538.361 z M332.359,550.02 L325.509,550.02 L325.509,547.559 L329.149,547.559 L329.149,532.506 L325.509,532.506 L325.509,530.045 L332.359,530.045 z M341.229,541.97 L337.537,549.794 L335.25,549.794 L337.271,541.97 z M187.748,575.02 L180.898,575.02 L180.898,555.045 L187.748,555.045 L187.748,557.506 L184.108,557.506 L184.108,572.559 L187.748,572.559 z M203.549,563.361 Q203.549,565.289 203.201,566.811 Q202.852,568.334 202.114,569.308 Q201.355,570.303 200.166,570.81 Q198.976,571.318 197.233,571.318 Q195.521,571.318 194.311,570.805 Q193.101,570.292 192.352,569.288 Q191.593,568.283 191.255,566.791 Q190.917,565.299 190.917,563.371 Q190.917,561.382 191.265,559.916 Q191.614,558.449 192.373,557.434 Q193.131,556.429 194.341,555.927 Q195.551,555.424 197.233,555.424 Q198.986,555.424 200.176,555.942 Q201.365,556.46 202.124,557.485 Q202.873,558.49 203.211,559.962 Q203.549,561.433 203.549,563.361 z M199.581,563.361 Q199.581,560.592 199.038,559.418 Q198.494,558.244 197.233,558.244 Q195.972,558.244 195.428,559.418 Q194.885,560.592 194.885,563.381 Q194.885,566.099 195.438,567.298 Q195.992,568.498 197.233,568.498 Q198.474,568.498 199.027,567.298 Q199.581,566.099 199.581,563.361 z M211.035,566.97 L207.343,574.794 L205.057,574.794 L207.077,566.97 z M233.245,563.361 Q233.245,565.289 232.896,566.811 Q232.547,568.334 231.809,569.308 Q231.05,570.303 229.861,570.81 Q228.671,571.318 226.928,571.318 Q225.216,571.318 224.006,570.805 Q222.796,570.292 222.047,569.288 Q221.289,568.283 220.95,566.791 Q220.612,565.299 220.612,563.371 Q220.612,561.382 220.96,559.916 Q221.309,558.449 222.068,557.434 Q222.827,556.429 224.037,555.927 Q225.247,555.424 226.928,555.424 Q228.682,555.424 229.871,555.942 Q231.061,556.46 231.819,557.485 Q232.568,558.49 232.906,559.962 Q233.245,561.433 233.245,563.361 z M229.276,563.361 Q229.276,560.592 228.733,559.418 Q228.189,558.244 226.928,558.244 Q225.667,558.244 225.124,559.418 Q224.58,560.592 224.58,563.381 Q224.58,566.099 225.134,567.298 Q225.688,568.498 226.928,568.498 Q228.169,568.498 228.723,567.298 Q229.276,566.099 229.276,563.361 z M240.73,566.97 L237.039,574.794 L234.752,574.794 L236.772,566.97 z M262.94,563.361 Q262.94,565.289 262.591,566.811 Q262.243,568.334 261.504,569.308 Q260.746,570.303 259.556,570.81 Q258.367,571.318 256.624,571.318 Q254.911,571.318 253.701,570.805 Q252.491,570.292 251.743,569.288 Q250.984,568.283 250.646,566.791 Q250.307,565.299 250.307,563.371 Q250.307,561.382 250.656,559.916 Q251.004,558.449 251.763,557.434 Q252.522,556.429 253.732,555.927 Q254.942,555.424 256.624,555.424 Q258.377,555.424 259.566,555.942 Q260.756,556.46 261.515,557.485 Q262.263,558.49 262.602,559.962 Q262.94,561.433 262.94,563.361 z M258.972,563.361 Q258.972,560.592 258.428,559.418 Q257.885,558.244 256.624,558.244 Q255.362,558.244 254.819,559.418 Q254.275,560.592 254.275,563.381 Q254.275,566.099 254.829,567.298 Q255.383,568.498 256.624,568.498 Q257.864,568.498 258.418,567.298 Q258.972,566.099 258.972,563.361 z M270.425,566.97 L266.734,574.794 L264.447,574.794 L266.467,566.97 z M292.42,558.767 L285.509,571 L281.12,571 L288.298,558.654 L280.454,558.654 L280.454,555.732 L292.42,555.732 z M300.121,566.97 L296.429,574.794 L294.143,574.794 L296.163,566.97 z M322.433,571 L310.446,571 L310.446,568.478 Q311.82,567.483 313.199,566.365 Q314.579,565.248 315.409,564.438 Q316.65,563.238 317.173,562.346 Q317.696,561.454 317.696,560.582 Q317.696,559.536 317.024,558.967 Q316.353,558.398 315.091,558.398 Q314.148,558.398 313.107,558.788 Q312.066,559.177 311.174,559.782 L310.846,559.782 L310.846,556.388 Q311.574,556.07 312.994,555.752 Q314.415,555.435 315.84,555.435 Q318.711,555.435 320.218,556.639 Q321.726,557.844 321.726,560.049 Q321.726,561.495 321.003,562.797 Q320.28,564.099 318.793,565.483 Q317.86,566.345 316.917,567.068 Q315.973,567.791 315.573,568.078 L322.433,568.078 z M332.359,575.02 L325.509,575.02 L325.509,572.559 L329.149,572.559 L329.149,557.506 L325.509,557.506 L325.509,555.045 L332.359,555.045 z M341.229,566.97 L337.537,574.794 L335.25,574.794 L337.271,566.97 z M187.748,600.02 L180.898,600.02 L180.898,580.045 L187.748,580.045 L187.748,582.506 L184.108,582.506 L184.108,597.559 L187.748,597.559 z M203.683,591.734 Q203.683,593.765 201.955,595.057 Q200.227,596.349 197.212,596.349 Q195.521,596.349 194.311,596 Q193.101,595.651 192.311,595.036 Q191.532,594.431 191.157,593.621 Q190.783,592.811 190.783,591.878 Q190.783,590.729 191.455,589.843 Q192.126,588.956 193.777,588.289 L193.777,588.228 Q192.444,587.612 191.819,586.679 Q191.193,585.746 191.193,584.516 Q191.193,582.701 192.875,581.542 Q194.557,580.383 197.253,580.383 Q200.083,580.383 201.688,581.434 Q203.293,582.485 203.293,584.239 Q203.293,585.326 202.616,586.177 Q201.939,587.028 200.545,587.623 L200.545,587.684 Q202.145,588.289 202.914,589.314 Q203.683,590.34 203.683,591.734 z M199.448,584.68 Q199.448,583.9 198.848,583.439 Q198.248,582.978 197.253,582.978 Q196.884,582.978 196.5,583.07 Q196.115,583.162 195.797,583.336 Q195.5,583.511 195.305,583.793 Q195.11,584.075 195.11,584.434 Q195.11,585.039 195.454,585.377 Q195.797,585.715 196.577,586.054 Q196.864,586.177 197.361,586.356 Q197.858,586.536 198.566,586.761 Q199.038,586.208 199.243,585.767 Q199.448,585.326 199.448,584.68 z M199.766,591.909 Q199.766,591.17 199.396,590.791 Q199.027,590.412 197.879,589.919 Q197.541,589.766 196.895,589.54 Q196.249,589.314 195.808,589.15 Q195.367,589.55 195.013,590.119 Q194.659,590.688 194.659,591.396 Q194.659,592.462 195.423,593.093 Q196.187,593.724 197.417,593.724 Q197.746,593.724 198.187,593.626 Q198.627,593.529 198.945,593.324 Q199.314,593.088 199.54,592.77 Q199.766,592.452 199.766,591.909 z M211.035,591.97 L207.343,599.794 L205.057,599.794 L207.077,591.97 z M233.245,588.361 Q233.245,590.289 232.896,591.811 Q232.547,593.334 231.809,594.308 Q231.05,595.303 229.861,595.81 Q228.671,596.318 226.928,596.318 Q225.216,596.318 224.006,595.805 Q222.796,595.292 222.047,594.288 Q221.289,593.283 220.95,591.791 Q220.612,590.299 220.612,588.371 Q220.612,586.382 220.96,584.916 Q221.309,583.449 222.068,582.434 Q222.827,581.429 224.037,580.927 Q225.247,580.424 226.928,580.424 Q228.682,580.424 229.871,580.942 Q231.061,581.46 231.819,582.485 Q232.568,583.49 232.906,584.962 Q233.245,586.433 233.245,588.361 z M229.276,588.361 Q229.276,585.592 228.733,584.418 Q228.189,583.244 226.928,583.244 Q225.667,583.244 225.124,584.418 Q224.58,585.592 224.58,588.381 Q224.58,591.099 225.134,592.298 Q225.688,593.498 226.928,593.498 Q228.169,593.498 228.723,592.298 Q229.276,591.099 229.276,588.361 z M240.73,591.97 L237.039,599.794 L234.752,599.794 L236.772,591.97 z M262.94,588.361 Q262.94,590.289 262.591,591.811 Q262.243,593.334 261.504,594.308 Q260.746,595.303 259.556,595.81 Q258.367,596.318 256.624,596.318 Q254.911,596.318 253.701,595.805 Q252.491,595.292 251.743,594.288 Q250.984,593.283 250.646,591.791 Q250.307,590.299 250.307,588.371 Q250.307,586.382 250.656,584.916 Q251.004,583.449 251.763,582.434 Q252.522,581.429 253.732,580.927 Q254.942,580.424 256.624,580.424 Q258.377,580.424 259.566,580.942 Q260.756,581.46 261.515,582.485 Q262.263,583.49 262.602,584.962 Q262.94,586.433 262.94,588.361 z M258.972,588.361 Q258.972,585.592 258.428,584.418 Q257.885,583.244 256.624,583.244 Q255.362,583.244 254.819,584.418 Q254.275,585.592 254.275,588.381 Q254.275,591.099 254.829,592.298 Q255.383,593.498 256.624,593.498 Q257.864,593.498 258.418,592.298 Q258.972,591.099 258.972,588.361 z M270.425,591.97 L266.734,599.794 L264.447,599.794 L266.467,591.97 z M292.635,588.361 Q292.635,590.289 292.287,591.811 Q291.938,593.334 291.2,594.308 Q290.441,595.303 289.251,595.81 Q288.062,596.318 286.319,596.318 Q284.606,596.318 283.396,595.805 Q282.187,595.292 281.438,594.288 Q280.679,593.283 280.341,591.791 Q280.002,590.299 280.002,588.371 Q280.002,586.382 280.351,584.916 Q280.7,583.449 281.458,582.434 Q282.217,581.429 283.427,580.927 Q284.637,580.424 286.319,580.424 Q288.072,580.424 289.262,580.942 Q290.451,581.46 291.21,582.485 Q291.958,583.49 292.297,584.962 Q292.635,586.433 292.635,588.361 z M288.667,588.361 Q288.667,585.592 288.124,584.418 Q287.58,583.244 286.319,583.244 Q285.058,583.244 284.514,584.418 Q283.971,585.592 283.971,588.381 Q283.971,591.099 284.524,592.298 Q285.078,593.498 286.319,593.498 Q287.56,593.498 288.113,592.298 Q288.667,591.099 288.667,588.361 z M300.121,591.97 L296.429,599.794 L294.143,599.794 L296.163,591.97 z M322.331,588.361 Q322.331,590.289 321.982,591.811 Q321.633,593.334 320.895,594.308 Q320.136,595.303 318.947,595.81 Q317.757,596.318 316.014,596.318 Q314.302,596.318 313.092,595.805 Q311.882,595.292 311.133,594.288 Q310.375,593.283 310.036,591.791 Q309.698,590.299 309.698,588.371 Q309.698,586.382 310.046,584.916 Q310.395,583.449 311.154,582.434 Q311.913,581.429 313.123,580.927 Q314.333,580.424 316.014,580.424 Q317.768,580.424 318.957,580.942 Q320.146,581.46 320.905,582.485 Q321.654,583.49 321.992,584.962 Q322.331,586.433 322.331,588.361 z M318.362,588.361 Q318.362,585.592 317.819,584.418 Q317.275,583.244 316.014,583.244 Q314.753,583.244 314.209,584.418 Q313.666,585.592 313.666,588.381 Q313.666,591.099 314.22,592.298 Q314.773,593.498 316.014,593.498 Q317.255,593.498 317.809,592.298 Q318.362,591.099 318.362,588.361 z M332.359,600.02 L325.509,600.02 L325.509,597.559 L329.149,597.559 L329.149,582.506 L325.509,582.506 L325.509,580.045 L332.359,580.045 z M341.229,591.97 L337.537,599.794 L335.25,599.794 L337.271,591.97 z M187.748,625.02 L180.898,625.02 L180.898,605.045 L187.748,605.045 L187.748,607.506 L184.108,607.506 L184.108,622.559 L187.748,622.559 z M203.549,613.361 Q203.549,615.289 203.201,616.811 Q202.852,618.334 202.114,619.308 Q201.355,620.303 200.166,620.81 Q198.976,621.318 197.233,621.318 Q195.521,621.318 194.311,620.805 Q193.101,620.292 192.352,619.288 Q191.593,618.283 191.255,616.791 Q190.917,615.299 190.917,613.371 Q190.917,611.382 191.265,609.916 Q191.614,608.449 192.373,607.434 Q193.131,606.429 194.341,605.927 Q195.551,605.424 197.233,605.424 Q198.986,605.424 200.176,605.942 Q201.365,606.46 202.124,607.485 Q202.873,608.49 203.211,609.962 Q203.549,611.433 203.549,613.361 z M199.581,613.361 Q199.581,610.592 199.038,609.418 Q198.494,608.244 197.233,608.244 Q195.972,608.244 195.428,609.418 Q194.885,610.592 194.885,613.381 Q194.885,616.099 195.438,617.298 Q195.992,618.498 197.233,618.498 Q198.474,618.498 199.027,617.298 Q199.581,616.099 199.581,613.361 z M211.035,616.97 L207.343,624.794 L205.057,624.794 L207.077,616.97 z M233.019,612.51 Q233.019,614.427 232.527,616.078 Q232.035,617.729 231.03,618.857 Q229.943,620.077 228.333,620.687 Q226.723,621.297 224.58,621.297 Q223.821,621.297 222.939,621.205 Q222.058,621.113 221.781,621.041 L221.781,618.037 L222.191,618.037 Q222.499,618.18 223.068,618.344 Q223.637,618.508 224.621,618.508 Q225.421,618.508 226.19,618.308 Q226.959,618.108 227.513,617.678 Q228.118,617.216 228.507,616.524 Q228.897,615.832 229.03,614.858 Q228.138,615.371 227.374,615.642 Q226.61,615.914 225.472,615.914 Q224.611,615.914 223.826,615.704 Q223.042,615.494 222.396,615.053 Q221.545,614.448 221.037,613.458 Q220.53,612.469 220.53,610.961 Q220.53,608.511 222.237,606.968 Q223.944,605.424 226.713,605.424 Q228.138,605.424 229.24,605.799 Q230.343,606.173 231.143,606.942 Q232.076,607.824 232.547,609.188 Q233.019,610.551 233.019,612.51 z M229.092,611.936 Q229.092,610.685 228.851,609.88 Q228.61,609.075 228.189,608.634 Q227.892,608.306 227.502,608.162 Q227.113,608.019 226.682,608.019 Q226.282,608.019 225.918,608.157 Q225.554,608.295 225.216,608.634 Q224.898,608.962 224.698,609.495 Q224.498,610.028 224.498,610.767 Q224.498,611.484 224.713,611.971 Q224.929,612.458 225.308,612.746 Q225.667,613.022 226.154,613.135 Q226.641,613.248 227.215,613.248 Q227.677,613.248 228.22,613.13 Q228.764,613.012 229.061,612.889 Q229.061,612.776 229.076,612.566 Q229.092,612.356 229.092,611.936 z M240.73,616.97 L237.039,624.794 L234.752,624.794 L236.772,616.97 z M262.94,613.361 Q262.94,615.289 262.591,616.811 Q262.243,618.334 261.504,619.308 Q260.746,620.303 259.556,620.81 Q258.367,621.318 256.624,621.318 Q254.911,621.318 253.701,620.805 Q252.491,620.292 251.743,619.288 Q250.984,618.283 250.646,616.791 Q250.307,615.299 250.307,613.371 Q250.307,611.382 250.656,609.916 Q251.004,608.449 251.763,607.434 Q252.522,606.429 253.732,605.927 Q254.942,605.424 256.624,605.424 Q258.377,605.424 259.566,605.942 Q260.756,606.46 261.515,607.485 Q262.263,608.49 262.602,609.962 Q262.94,611.433 262.94,613.361 z M258.972,613.361 Q258.972,610.592 258.428,609.418 Q257.885,608.244 256.624,608.244 Q255.362,608.244 254.819,609.418 Q254.275,610.592 254.275,613.381 Q254.275,616.099 254.829,617.298 Q255.383,618.498 256.624,618.498 Q257.864,618.498 258.418,617.298 Q258.972,616.099 258.972,613.361 z M270.425,616.97 L266.734,624.794 L264.447,624.794 L266.467,616.97 z M291.774,621 L281.582,621 L281.582,618.334 L284.801,618.334 L284.801,610.264 L281.582,610.264 L281.582,607.772 Q282.32,607.772 282.997,607.685 Q283.673,607.598 284.125,607.383 Q284.658,607.126 284.924,606.716 Q285.191,606.306 285.232,605.691 L288.626,605.691 L288.626,618.334 L291.774,618.334 z M300.121,616.97 L296.429,624.794 L294.143,624.794 L296.163,616.97 z M322.331,613.361 Q322.331,615.289 321.982,616.811 Q321.633,618.334 320.895,619.308 Q320.136,620.303 318.947,620.81 Q317.757,621.318 316.014,621.318 Q314.302,621.318 313.092,620.805 Q311.882,620.292 311.133,619.288 Q310.375,618.283 310.036,616.791 Q309.698,615.299 309.698,613.371 Q309.698,611.382 310.046,609.916 Q310.395,608.449 311.154,607.434 Q311.913,606.429 313.123,605.927 Q314.333,605.424 316.014,605.424 Q317.768,605.424 318.957,605.942 Q320.146,606.46 320.905,607.485 Q321.654,608.49 321.992,609.962 Q322.331,611.433 322.331,613.361 z M318.362,613.361 Q318.362,610.592 317.819,609.418 Q317.275,608.244 316.014,608.244 Q314.753,608.244 314.209,609.418 Q313.666,610.592 313.666,613.381 Q313.666,616.099 314.22,617.298 Q314.773,618.498 316.014,618.498 Q317.255,618.498 317.809,617.298 Q318.362,616.099 318.362,613.361 z M332.359,625.02 L325.509,625.02 L325.509,622.559 L329.149,622.559 L329.149,607.506 L325.509,607.506 L325.509,605.045 L332.359,605.045 z M343.771,625.02 L336.922,625.02 L336.922,622.559 L340.562,622.559 L340.562,607.506 L336.922,607.506 L336.922,605.045 L343.771,605.045 z M92.889,633.685 L85.865,633.685 L85.865,636.525 L92.376,636.525 L92.376,639.479 L85.865,639.479 L85.865,646 L81.948,646 L81.948,630.732 L92.889,630.732 z M103.748,638.002 L103.42,638.002 Q103.184,637.92 102.661,637.879 Q102.138,637.838 101.79,637.838 Q101,637.838 100.395,637.94 Q99.79,638.043 99.093,638.289 L99.093,646 L95.401,646 L95.401,634.485 L99.093,634.485 L99.093,636.177 Q100.313,635.131 101.215,634.787 Q102.118,634.444 102.876,634.444 Q103.071,634.444 103.317,634.454 Q103.563,634.464 103.748,634.485 z M117.611,640.248 Q117.611,643.088 115.955,644.723 Q114.299,646.359 111.305,646.359 Q108.311,646.359 106.655,644.723 Q104.999,643.088 104.999,640.248 Q104.999,637.387 106.665,635.756 Q108.332,634.126 111.305,634.126 Q114.32,634.126 115.966,635.767 Q117.611,637.407 117.611,640.248 z M113.069,643.047 Q113.428,642.606 113.607,641.986 Q113.787,641.365 113.787,640.268 Q113.787,639.253 113.602,638.566 Q113.417,637.879 113.089,637.469 Q112.761,637.048 112.3,636.874 Q111.838,636.7 111.305,636.7 Q110.772,636.7 110.357,636.843 Q109.941,636.987 109.562,637.417 Q109.224,637.817 109.024,638.515 Q108.824,639.212 108.824,640.268 Q108.824,641.211 108.998,641.904 Q109.172,642.596 109.511,643.016 Q109.839,643.416 110.295,643.601 Q110.751,643.785 111.336,643.785 Q111.838,643.785 112.295,643.616 Q112.751,643.447 113.069,643.047 z M131.516,637.838 L131.516,646 L127.804,646 L127.804,640.248 Q127.804,639.407 127.763,638.817 Q127.722,638.228 127.537,637.858 Q127.353,637.489 126.978,637.32 Q126.604,637.151 125.927,637.151 Q125.384,637.151 124.871,637.371 Q124.358,637.592 123.948,637.838 L123.948,646 L120.257,646 L120.257,634.485 L123.948,634.485 L123.948,635.756 Q124.902,635.008 125.773,634.587 Q126.645,634.167 127.701,634.167 Q128.839,634.167 129.711,634.675 Q130.583,635.182 131.075,636.167 Q132.182,635.233 133.228,634.7 Q134.274,634.167 135.279,634.167 Q137.145,634.167 138.114,635.285 Q139.083,636.402 139.083,638.504 L139.083,646 L135.371,646 L135.371,640.248 Q135.371,639.396 135.335,638.812 Q135.299,638.228 135.115,637.858 Q134.94,637.489 134.561,637.32 Q134.182,637.151 133.495,637.151 Q133.033,637.151 132.592,637.31 Q132.151,637.469 131.516,637.838 z M146.876,638.515 L143.041,638.515 L143.041,634.485 L146.876,634.485 z M146.876,646 L143.041,646 L143.041,641.97 L146.876,641.97 z M173.393,650.02 L166.543,650.02 L166.543,630.045 L173.393,630.045 L173.393,632.506 L169.752,632.506 L169.752,647.559 L173.393,647.559 z M188.333,646 L178.14,646 L178.14,643.334 L181.36,643.334 L181.36,635.264 L178.14,635.264 L178.14,632.772 Q178.878,632.772 179.555,632.685 Q180.232,632.598 180.683,632.383 Q181.216,632.126 181.483,631.716 Q181.75,631.306 181.791,630.691 L185.185,630.691 L185.185,643.334 L188.333,643.334 z M196.679,641.97 L192.988,649.794 L190.701,649.794 L192.721,641.97 z M210.85,646 L200.658,646 L200.658,643.334 L203.877,643.334 L203.877,635.264 L200.658,635.264 L200.658,632.772 Q201.396,632.772 202.073,632.685 Q202.75,632.598 203.201,632.383 Q203.734,632.126 204,631.716 Q204.267,631.306 204.308,630.691 L207.702,630.691 L207.702,643.334 L210.85,643.334 z M221.74,650.02 L214.89,650.02 L214.89,647.559 L218.53,647.559 L218.53,632.506 L214.89,632.506 L214.89,630.045 L221.74,630.045 z M93.894,658.685 L89.126,658.685 L89.126,671 L85.188,671 L85.188,658.685 L80.42,658.685 L80.42,655.732 L93.894,655.732 z M107.829,665.248 Q107.829,668.088 106.173,669.723 Q104.517,671.359 101.523,671.359 Q98.529,671.359 96.873,669.723 Q95.217,668.088 95.217,665.248 Q95.217,662.387 96.883,660.756 Q98.549,659.126 101.523,659.126 Q104.538,659.126 106.183,660.767 Q107.829,662.407 107.829,665.248 z M103.287,668.047 Q103.646,667.606 103.825,666.986 Q104.004,666.365 104.004,665.268 Q104.004,664.253 103.82,663.566 Q103.635,662.879 103.307,662.469 Q102.979,662.048 102.518,661.874 Q102.056,661.7 101.523,661.7 Q100.99,661.7 100.574,661.843 Q100.159,661.987 99.78,662.417 Q99.441,662.817 99.241,663.515 Q99.042,664.212 99.042,665.268 Q99.042,666.211 99.216,666.904 Q99.39,667.596 99.729,668.016 Q100.057,668.416 100.513,668.601 Q100.969,668.785 101.554,668.785 Q102.056,668.785 102.512,668.616 Q102.969,668.447 103.287,668.047 z M114.874,663.515 L111.039,663.515 L111.039,659.485 L114.874,659.485 z M114.874,671 L111.039,671 L111.039,666.97 L114.874,666.97 z M173.393,675.02 L166.543,675.02 L166.543,655.045 L173.393,655.045 L173.393,657.506 L169.752,657.506 L169.752,672.559 L173.393,672.559 z M188.968,665.832 Q188.968,667.021 188.522,668.042 Q188.076,669.062 187.225,669.79 Q186.282,670.569 185.056,670.944 Q183.831,671.318 182.262,671.318 Q180.427,671.308 179.16,671.026 Q177.894,670.744 177.094,670.395 L177.094,667.021 L177.525,667.021 Q178.458,667.575 179.535,667.944 Q180.611,668.313 181.678,668.313 Q182.324,668.313 183.077,668.165 Q183.831,668.016 184.272,667.626 Q184.621,667.309 184.8,666.98 Q184.979,666.652 184.979,665.965 Q184.979,665.432 184.739,665.048 Q184.498,664.663 184.118,664.427 Q183.564,664.089 182.785,663.981 Q182.006,663.874 181.37,663.874 Q180.447,663.874 179.601,664.032 Q178.755,664.191 178.12,664.345 L177.668,664.345 L177.668,655.732 L188.527,655.732 L188.527,658.654 L181.37,658.654 L181.37,661.146 Q181.688,661.125 182.175,661.11 Q182.662,661.095 183.031,661.095 Q184.292,661.095 185.282,661.336 Q186.271,661.577 186.989,662.007 Q187.922,662.571 188.445,663.499 Q188.968,664.427 188.968,665.832 z M196.679,666.97 L192.988,674.794 L190.701,674.794 L192.721,666.97 z M210.317,663.843 Q210.819,664.273 211.117,664.848 Q211.414,665.422 211.414,666.375 Q211.414,667.452 210.989,668.385 Q210.563,669.318 209.681,669.985 Q208.82,670.631 207.656,670.974 Q206.492,671.318 204.831,671.318 Q202.934,671.318 201.575,671.021 Q200.217,670.723 199.366,670.354 L199.366,667.001 L199.766,667.001 Q200.647,667.534 201.873,667.924 Q203.098,668.313 204.113,668.313 Q204.708,668.313 205.405,668.216 Q206.103,668.119 206.584,667.791 Q206.964,667.534 207.189,667.17 Q207.415,666.806 207.415,666.119 Q207.415,665.453 207.107,665.089 Q206.8,664.725 206.297,664.571 Q205.795,664.407 205.087,664.391 Q204.38,664.376 203.775,664.376 L202.934,664.376 L202.934,661.648 L203.806,661.648 Q204.605,661.648 205.221,661.597 Q205.836,661.546 206.267,661.361 Q206.718,661.167 206.943,660.844 Q207.169,660.521 207.169,659.895 Q207.169,659.434 206.933,659.152 Q206.697,658.87 206.338,658.706 Q205.938,658.521 205.395,658.459 Q204.852,658.398 204.462,658.398 Q203.498,658.398 202.37,658.731 Q201.242,659.064 200.186,659.69 L199.807,659.69 L199.807,656.378 Q200.647,656.04 202.093,655.727 Q203.539,655.414 205.026,655.414 Q206.472,655.414 207.559,655.665 Q208.646,655.917 209.353,656.337 Q210.194,656.839 210.604,657.557 Q211.014,658.275 211.014,659.239 Q211.014,660.51 210.225,661.51 Q209.435,662.51 208.143,662.787 L208.143,662.93 Q208.666,663.002 209.25,663.217 Q209.835,663.433 210.317,663.843 z M221.74,675.02 L214.89,675.02 L214.89,672.559 L218.53,672.559 L218.53,657.506 L214.89,657.506 L214.89,655.045 L221.74,655.045 z M90.51,710.408 Q90.51,709.833 90.274,709.423 Q90.039,709.013 89.464,708.777 Q89.064,708.613 88.531,708.577 Q87.998,708.542 87.291,708.542 L85.865,708.542 L85.865,712.653 L87.075,712.653 Q88.019,712.653 88.654,712.561 Q89.29,712.469 89.721,712.141 Q90.131,711.823 90.321,711.438 Q90.51,711.054 90.51,710.408 z M96.652,721 L91.843,721 L87.68,715.401 L85.865,715.401 L85.865,721 L81.948,721 L81.948,705.732 L88.552,705.732 Q89.905,705.732 90.879,705.886 Q91.854,706.04 92.705,706.552 Q93.566,707.065 94.073,707.88 Q94.581,708.695 94.581,709.926 Q94.581,711.618 93.797,712.684 Q93.012,713.75 91.556,714.458 z M109.511,715.924 L101.062,715.924 Q101.144,717.278 102.092,717.996 Q103.041,718.713 104.886,718.713 Q106.055,718.713 107.152,718.293 Q108.25,717.873 108.885,717.391 L109.295,717.391 L109.295,720.354 Q108.044,720.856 106.937,721.082 Q105.83,721.308 104.486,721.308 Q101.021,721.308 99.175,719.749 Q97.329,718.19 97.329,715.309 Q97.329,712.458 99.077,710.792 Q100.826,709.126 103.871,709.126 Q106.681,709.126 108.096,710.546 Q109.511,711.966 109.511,714.632 z M105.84,713.761 Q105.809,712.602 105.266,712.018 Q104.722,711.433 103.574,711.433 Q102.507,711.433 101.82,711.987 Q101.133,712.541 101.051,713.761 z M122.123,717.35 Q122.123,719.134 120.523,720.226 Q118.924,721.318 116.145,721.318 Q114.607,721.318 113.356,721.031 Q112.105,720.744 111.346,720.395 L111.346,717.36 L111.685,717.36 Q111.961,717.555 112.325,717.785 Q112.689,718.016 113.356,718.283 Q113.93,718.519 114.658,718.688 Q115.386,718.857 116.217,718.857 Q117.304,718.857 117.827,718.616 Q118.35,718.375 118.35,717.903 Q118.35,717.483 118.042,717.293 Q117.734,717.104 116.873,716.929 Q116.463,716.837 115.76,716.729 Q115.058,716.622 114.484,716.468 Q112.915,716.058 112.156,715.191 Q111.397,714.325 111.397,713.033 Q111.397,711.372 112.971,710.269 Q114.545,709.167 117.273,709.167 Q118.565,709.167 119.749,709.428 Q120.934,709.69 121.6,709.987 L121.6,712.899 L121.282,712.899 Q120.462,712.335 119.411,711.982 Q118.36,711.628 117.283,711.628 Q116.391,711.628 115.781,711.874 Q115.171,712.12 115.171,712.571 Q115.171,712.981 115.448,713.197 Q115.725,713.412 116.75,713.627 Q117.314,713.74 117.965,713.848 Q118.616,713.956 119.272,714.12 Q120.729,714.499 121.426,715.314 Q122.123,716.129 122.123,717.35 z M136.048,721 L132.356,721 L132.356,719.729 Q131.331,720.508 130.48,720.913 Q129.629,721.318 128.45,721.318 Q126.542,721.318 125.512,720.221 Q124.481,719.124 124.481,716.98 L124.481,709.485 L128.193,709.485 L128.193,715.196 Q128.193,716.068 128.25,716.647 Q128.306,717.227 128.511,717.606 Q128.706,717.985 129.101,718.16 Q129.496,718.334 130.203,718.334 Q130.675,718.334 131.249,718.16 Q131.823,717.985 132.356,717.647 L132.356,709.485 L136.048,709.485 z M143.226,721 L139.534,721 L139.534,705.045 L143.226,705.045 z M154.074,720.897 Q153.479,721.051 152.813,721.138 Q152.146,721.226 151.183,721.226 Q149.029,721.226 147.978,720.354 Q146.927,719.482 146.927,717.37 L146.927,711.987 L145.41,711.987 L145.41,709.485 L146.927,709.485 L146.927,706.193 L150.619,706.193 L150.619,709.485 L154.074,709.485 L154.074,711.987 L150.619,711.987 L150.619,716.068 Q150.619,716.673 150.629,717.124 Q150.639,717.575 150.793,717.934 Q150.937,718.293 151.301,718.503 Q151.665,718.713 152.362,718.713 Q152.649,718.713 153.115,718.59 Q153.582,718.467 153.767,718.365 L154.074,718.365 z M160.678,713.515 L156.843,713.515 L156.843,709.485 L160.678,709.485 z M160.678,721 L156.843,721 L156.843,716.97 L160.678,716.97 z M184.057,708.685 L179.289,708.685 L179.289,721 L175.351,721 L175.351,708.685 L170.583,708.685 L170.583,705.732 L184.057,705.732 z M194.567,713.002 L194.239,713.002 Q194.003,712.92 193.48,712.879 Q192.957,712.838 192.608,712.838 Q191.819,712.838 191.214,712.94 Q190.609,713.043 189.912,713.289 L189.912,721 L186.22,721 L186.22,709.485 L189.912,709.485 L189.912,711.177 Q191.132,710.131 192.034,709.787 Q192.937,709.444 193.695,709.444 Q193.89,709.444 194.136,709.454 Q194.382,709.464 194.567,709.485 z M208.133,721 L204.441,721 L204.441,719.729 Q203.416,720.508 202.565,720.913 Q201.714,721.318 200.535,721.318 Q198.627,721.318 197.597,720.221 Q196.566,719.124 196.566,716.98 L196.566,709.485 L200.278,709.485 L200.278,715.196 Q200.278,716.068 200.335,716.647 Q200.391,717.227 200.596,717.606 Q200.791,717.985 201.186,718.16 Q201.581,718.334 202.288,718.334 Q202.76,718.334 203.334,718.16 Q203.908,717.985 204.441,717.647 L204.441,709.485 L208.133,709.485 z M222.96,715.924 L214.511,715.924 Q214.593,717.278 215.541,717.996 Q216.49,718.713 218.335,718.713 Q219.504,718.713 220.602,718.293 Q221.699,717.873 222.334,717.391 L222.745,717.391 L222.745,720.354 Q221.494,720.856 220.386,721.082 Q219.279,721.308 217.936,721.308 Q214.47,721.308 212.624,719.749 Q210.778,718.19 210.778,715.309 Q210.778,712.458 212.527,710.792 Q214.275,709.126 217.32,709.126 Q220.13,709.126 221.545,710.546 Q222.96,711.966 222.96,714.632 z M219.289,713.761 Q219.258,712.602 218.715,712.018 Q218.171,711.433 217.023,711.433 Q215.957,711.433 215.27,711.987 Q214.583,712.541 214.5,713.761 z" fill="#294270"/>
    </g>
    <text transform="matrix(1, 0, 0, 1, 282.062, 364.5)">
      <tspan x="-17.062" y="18.5" font-family="Verdana-Bold" font-size="48" fill="#006DA9">0</tspan>
    </text>
    <text transform="matrix(1, 0, 0, 1, 362.062, 364.5)">
      <tspan x="-17.062" y="18.5" font-family="Verdana-Bold" font-size="48" fill="#006DA9">0</tspan>
    </text>
    <text transform="matrix(1, 0, 0, 1, 442.062, 364.5)">
      <tspan x="-17.062" y="18.5" font-family="Verdana-Bold" font-size="48" fill="#006DA9">0</tspan>
    </text>
    <text transform="matrix(1, 0, 0, 1, 442.062, 434.5)">
      <tspan x="-17.062" y="18.5" font-family="Verdana-Bold" font-size="48" fill="#006DA9">0</tspan>
    </text>
    <text transform="matrix(1, 0, 0, 1, 362.062, 199.5)">
      <tspan x="-17.062" y="18.5" font-family="Verdana-Bold" font-size="48" fill="#006DA9">0</tspan>
    </text>
    <text transform="matrix(1, 0, 0, 1, 442.062, 199.5)">
      <tspan x="-17.062" y="18.5" font-family="Verdana-Bold" font-size="48" fill="#006DA9">0</tspan>
    </text>
    <text transform="matrix(1, 0, 0, 1, 442.062, 119.5)">
      <tspan x="-17.062" y="18.5" font-family="Verdana-Bold" font-size="48" fill="#006DA9">0</tspan>
    </text>
    <text transform="matrix(1, 0, 0, 1, 202.062, 119.5)">
      <tspan x="-17.062" y="18.5" font-family="Verdana-Bold" font-size="48" fill="#006DA9">0</tspan>
    </text>
    <text transform="matrix(1, 0, 0, 1, 122.062, 199.5)">
      <tspan x="-17.062" y="18.5" font-family="Verdana-Bold" font-size="48" fill="#006DA9">0</tspan>
    </text>
    <text transform="matrix(1, 0, 0, 1, 122.062, 439.5)">
      <tspan x="-17.062" y="18.5" font-family="Verdana-Bold" font-size="48" fill="#006DA9">0</tspan>
    </text>
    <text transform="matrix(1, 0, 0, 1, 202.062, 364.5)">
      <tspan x="-17.062" y="18.5" font-family="Verdana-Bold" font-size="48" fill="#006DA9">0</tspan>
    </text>
    <text transform="matrix(1, 0, 0, 1, 282.062, 439.5)">
      <tspan x="-17.062" y="18.5" font-family="Verdana-Bold" font-size="48" fill="#006DA9">0</tspan>
    </text>
    <text transform="matrix(1, 0, 0, 1, 282.062, 284.5)">
      <tspan x="-17.062" y="18.5" font-family="Verdana-Bold" font-size="48" fill="#006DA9">0</tspan>
    </text>
    <text transform="matrix(1, 0, 0, 1, 122.062, 279.5)">
      <tspan x="-17.062" y="18.5" font-family="Verdana-Bold" font-size="48" fill="#006DA9">0</tspan>
    </text>
    <text transform="matrix(1, 0, 0, 1, 202.062, 284.5)">
      <tspan x="-17.062" y="18.5" font-family="Verdana-Bold" font-size="48" fill="#006DA9">0</tspan>
    </text>
    <text transform="matrix(1, 0, 0, 1, 282.062, 119.5)">
      <tspan x="-17.062" y="18.5" font-family="Verdana-Bold" font-size="48" fill="#FA8F00">5</tspan>
    </text>
    <text transform="matrix(1, 0, 0, 1, 362.062, 119.5)">
      <tspan x="-17.062" y="18.5" font-family="Verdana-Bold" font-size="48" fill="#FA8F00">4</tspan>
    </text>
    <text transform="matrix(1, 0, 0, 1, 282.062, 199.5)">
      <tspan x="-17.062" y="18.5" font-family="Verdana-Bold" font-size="48" fill="#FA8F00">5</tspan>
    </text>
    <text transform="matrix(1, 0, 0, 1, 202.062, 199.5)">
      <tspan x="-17.062" y="18.5" font-family="Verdana-Bold" font-size="48" fill="#FA8F00">1</tspan>
    </text>
    <text transform="matrix(1, 0, 0, 1, 362.062, 279.5)">
      <tspan x="-17.062" y="18.5" font-family="Verdana-Bold" font-size="48" fill="#FA8F00">7</tspan>
    </text>
    <text transform="matrix(1, 0, 0, 1, 442.062, 279.5)">
      <tspan x="-17.062" y="18.5" font-family="Verdana-Bold" font-size="48" fill="#FA8F00">2</tspan>
    </text>
    <text transform="matrix(1, 0, 0, 1, 122.063, 364.5)">
      <tspan x="-17.062" y="18.5" font-family="Verdana-Bold" font-size="48" fill="#FA8F00">8</tspan>
    </text>
    <text transform="matrix(1, 0, 0, 1, 202.062, 434.5)">
      <tspan x="-17.062" y="18.5" font-family="Verdana-Bold" font-size="48" fill="#FA8F00">9</tspan>
    </text>
    <text transform="matrix(1, 0, 0, 1, 362.062, 434.5)">
      <tspan x="-17.062" y="18.5" font-family="Verdana-Bold" font-size="48" fill="#FA8F00">1</tspan>
    </text>
    <g>
      <path d="M80.5,80.5 L160.5,80.5 L160.5,160.5 L80.5,160.5 z" fill="#8FC7ED"/>
      <path d="M80.5,80.5 L160.5,80.5 L160.5,160.5 L80.5,160.5 z" fill-opacity="0" stroke="#294270" stroke-width="6" stroke-linejoin="round"/>
    </g>
    <text transform="matrix(1, 0, 0, 1, 122.062, 119.5)">
      <tspan x="-17.062" y="18.5" font-family="Verdana-Bold" font-size="48" fill="#006DA9">0</tspan>
    </text>
    <g>
      <text transform="matrix(1, 0, 0, 1, 911.326, 655.5)">
        <tspan x="-191.325" y="-129.5" font-family="Verdana-Bold" font-size="21" fill="#294270">Matrix:	[[0, 0, 5, 4, 0],</tspan>
        <tspan x="-191.325" y="-104.5" font-family="Verdana-Bold" font-size="21" fill="#294270">			  [0, 0, 5, 0, 0],</tspan>
        <tspan x="-191.325" y="-79.5" font-family="Verdana-Bold" font-size="21" fill="#294270">			  [0, 0, 0, 7, 2],</tspan>
        <tspan x="-191.325" y="-54.5" font-family="Verdana-Bold" font-size="21" fill="#294270">			  [8, 0, 0, 4, 0],</tspan>
        <tspan x="-191.325" y="-29.5" font-family="Verdana-Bold" font-size="21" fill="#294270">			  [0, 9, 0, 1, 0]]</tspan>
        <tspan x="-191.325" y="-4.5" font-family="Verdana-Bold" font-size="21" fill="#294270">From:  	[1,1]</tspan>
        <tspan x="-191.325" y="20.5" font-family="Verdana-Bold" font-size="21" fill="#294270">To:     	[1,5]</tspan>
        <tspan x="-191.325" y="70.5" font-family="Verdana-Bold" font-size="21" fill="#294270">Result: False</tspan>
      </text>
      <path d="M737.955,526 L734.038,526 L734.038,515.777 L731.208,522.411 L728.49,522.411 L725.66,515.777 L725.66,526 L721.948,526 L721.948,510.732 L726.521,510.732 L729.957,518.392 L733.381,510.732 L737.955,510.732 z M748.619,522.996 L748.619,520.596 Q747.87,520.658 746.999,520.765 Q746.127,520.873 745.676,521.017 Q745.122,521.191 744.83,521.524 Q744.538,521.857 744.538,522.401 Q744.538,522.76 744.599,522.985 Q744.661,523.211 744.907,523.416 Q745.143,523.621 745.471,523.719 Q745.799,523.816 746.496,523.816 Q747.05,523.816 747.619,523.59 Q748.188,523.365 748.619,522.996 z M748.619,524.78 Q748.321,525.005 747.88,525.323 Q747.439,525.641 747.05,525.826 Q746.506,526.072 745.922,526.19 Q745.337,526.308 744.64,526.308 Q743,526.308 741.892,525.292 Q740.785,524.277 740.785,522.698 Q740.785,521.437 741.349,520.637 Q741.913,519.837 742.948,519.376 Q743.974,518.915 745.491,518.72 Q747.009,518.525 748.639,518.433 L748.639,518.371 Q748.639,517.417 747.86,517.053 Q747.081,516.689 745.563,516.689 Q744.65,516.689 743.615,517.012 Q742.579,517.335 742.128,517.51 L741.79,517.51 L741.79,514.731 Q742.374,514.577 743.692,514.367 Q745.009,514.157 746.332,514.157 Q749.48,514.157 750.88,515.126 Q752.279,516.095 752.279,518.166 L752.279,526 L748.619,526 z M763.036,525.897 Q762.441,526.051 761.774,526.138 Q761.108,526.226 760.144,526.226 Q757.991,526.226 756.94,525.354 Q755.889,524.482 755.889,522.37 L755.889,516.987 L754.371,516.987 L754.371,514.485 L755.889,514.485 L755.889,511.193 L759.58,511.193 L759.58,514.485 L763.036,514.485 L763.036,516.987 L759.58,516.987 L759.58,521.068 Q759.58,521.673 759.59,522.124 Q759.601,522.575 759.754,522.934 Q759.898,523.293 760.262,523.503 Q760.626,523.713 761.323,523.713 Q761.61,523.713 762.077,523.59 Q762.543,523.467 762.728,523.365 L763.036,523.365 z M773.587,518.002 L773.259,518.002 Q773.023,517.92 772.5,517.879 Q771.977,517.838 771.628,517.838 Q770.839,517.838 770.234,517.94 Q769.629,518.043 768.932,518.289 L768.932,526 L765.24,526 L765.24,514.485 L768.932,514.485 L768.932,516.177 Q770.152,515.131 771.054,514.787 Q771.957,514.444 772.715,514.444 Q772.91,514.444 773.156,514.454 Q773.402,514.464 773.587,514.485 z M779.37,526 L775.679,526 L775.679,514.485 L779.37,514.485 z M779.473,512.844 L775.576,512.844 L775.576,510.045 L779.473,510.045 z M794.895,526 L790.588,526 L788.127,522.555 L785.604,526 L781.38,526 L785.922,520.248 L781.452,514.485 L785.758,514.485 L788.178,517.869 L790.608,514.485 L794.843,514.485 L790.362,520.155 z M801.303,518.515 L797.468,518.515 L797.468,514.485 L801.303,514.485 z M801.303,526 L797.468,526 L797.468,521.97 L801.303,521.97 z M813.393,530.02 L806.543,530.02 L806.543,510.045 L813.393,510.045 L813.393,512.506 L809.752,512.506 L809.752,527.559 L813.393,527.559 z M824.805,530.02 L817.956,530.02 L817.956,510.045 L824.805,510.045 L824.805,512.506 L821.165,512.506 L821.165,527.559 L824.805,527.559 z M840.606,518.361 Q840.606,520.289 840.258,521.811 Q839.909,523.334 839.171,524.308 Q838.412,525.303 837.223,525.81 Q836.033,526.318 834.29,526.318 Q832.578,526.318 831.368,525.805 Q830.158,525.292 829.409,524.288 Q828.65,523.283 828.312,521.791 Q827.974,520.299 827.974,518.371 Q827.974,516.382 828.322,514.916 Q828.671,513.449 829.43,512.434 Q830.188,511.429 831.398,510.927 Q832.608,510.424 834.29,510.424 Q836.043,510.424 837.233,510.942 Q838.422,511.46 839.181,512.485 Q839.93,513.49 840.268,514.962 Q840.606,516.433 840.606,518.361 z M836.638,518.361 Q836.638,515.592 836.095,514.418 Q835.551,513.244 834.29,513.244 Q833.029,513.244 832.485,514.418 Q831.942,515.592 831.942,518.381 Q831.942,521.099 832.496,522.298 Q833.049,523.498 834.29,523.498 Q835.531,523.498 836.084,522.298 Q836.638,521.099 836.638,518.361 z M848.092,521.97 L844.4,529.794 L842.114,529.794 L844.134,521.97 z M870.302,518.361 Q870.302,520.289 869.953,521.811 Q869.604,523.334 868.866,524.308 Q868.107,525.303 866.918,525.81 Q865.729,526.318 863.985,526.318 Q862.273,526.318 861.063,525.805 Q859.853,525.292 859.104,524.288 Q858.346,523.283 858.007,521.791 Q857.669,520.299 857.669,518.371 Q857.669,516.382 858.018,514.916 Q858.366,513.449 859.125,512.434 Q859.884,511.429 861.094,510.927 Q862.304,510.424 863.985,510.424 Q865.739,510.424 866.928,510.942 Q868.118,511.46 868.876,512.485 Q869.625,513.49 869.963,514.962 Q870.302,516.433 870.302,518.361 z M866.333,518.361 Q866.333,515.592 865.79,514.418 Q865.247,513.244 863.985,513.244 Q862.724,513.244 862.181,514.418 Q861.637,515.592 861.637,518.381 Q861.637,521.099 862.191,522.298 Q862.745,523.498 863.985,523.498 Q865.226,523.498 865.78,522.298 Q866.333,521.099 866.333,518.361 z M877.787,521.97 L874.096,529.794 L871.809,529.794 L873.829,521.97 z M899.771,520.832 Q899.771,522.021 899.325,523.042 Q898.879,524.062 898.028,524.79 Q897.085,525.569 895.86,525.944 Q894.634,526.318 893.065,526.318 Q891.23,526.308 889.964,526.026 Q888.697,525.744 887.897,525.395 L887.897,522.021 L888.328,522.021 Q889.261,522.575 890.338,522.944 Q891.415,523.313 892.481,523.313 Q893.127,523.313 893.881,523.165 Q894.634,523.016 895.075,522.626 Q895.424,522.309 895.603,521.98 Q895.783,521.652 895.783,520.965 Q895.783,520.432 895.542,520.048 Q895.301,519.663 894.921,519.427 Q894.368,519.089 893.588,518.981 Q892.809,518.874 892.173,518.874 Q891.25,518.874 890.405,519.032 Q889.559,519.191 888.923,519.345 L888.472,519.345 L888.472,510.732 L899.331,510.732 L899.331,513.654 L892.173,513.654 L892.173,516.146 Q892.491,516.125 892.978,516.11 Q893.465,516.095 893.834,516.095 Q895.096,516.095 896.085,516.336 Q897.075,516.577 897.792,517.007 Q898.726,517.571 899.249,518.499 Q899.771,519.427 899.771,520.832 z M907.482,521.97 L903.791,529.794 L901.504,529.794 L903.524,521.97 z M930.01,522.483 L927.929,522.483 L927.929,526.041 L924.166,526.041 L924.166,522.483 L916.772,522.483 L916.772,519.591 L923.919,510.732 L927.929,510.732 L927.929,519.694 L930.01,519.694 z M924.166,519.694 L924.166,514.177 L919.726,519.694 z M937.178,521.97 L933.486,529.794 L931.2,529.794 L933.22,521.97 z M959.388,518.361 Q959.388,520.289 959.039,521.811 Q958.69,523.334 957.952,524.308 Q957.193,525.303 956.004,525.81 Q954.814,526.318 953.071,526.318 Q951.359,526.318 950.149,525.805 Q948.939,525.292 948.19,524.288 Q947.432,523.283 947.093,521.791 Q946.755,520.299 946.755,518.371 Q946.755,516.382 947.104,514.916 Q947.452,513.449 948.211,512.434 Q948.97,511.429 950.18,510.927 Q951.39,510.424 953.071,510.424 Q954.825,510.424 956.014,510.942 Q957.204,511.46 957.962,512.485 Q958.711,513.49 959.049,514.962 Q959.388,516.433 959.388,518.361 z M955.419,518.361 Q955.419,515.592 954.876,514.418 Q954.333,513.244 953.071,513.244 Q951.81,513.244 951.267,514.418 Q950.723,515.592 950.723,518.381 Q950.723,521.099 951.277,522.298 Q951.831,523.498 953.071,523.498 Q954.312,523.498 954.866,522.298 Q955.419,521.099 955.419,518.361 z M969.416,530.02 L962.566,530.02 L962.566,527.559 L966.207,527.559 L966.207,512.506 L962.566,512.506 L962.566,510.045 L969.416,510.045 z M978.286,521.97 L974.594,529.794 L972.308,529.794 L974.328,521.97 z M827.748,555.02 L820.898,555.02 L820.898,535.045 L827.748,535.045 L827.748,537.506 L824.108,537.506 L824.108,552.559 L827.748,552.559 z M843.549,543.361 Q843.549,545.289 843.201,546.811 Q842.852,548.334 842.114,549.308 Q841.355,550.303 840.166,550.81 Q838.976,551.318 837.233,551.318 Q835.521,551.318 834.311,550.805 Q833.101,550.292 832.352,549.288 Q831.593,548.283 831.255,546.791 Q830.917,545.299 830.917,543.371 Q830.917,541.382 831.265,539.916 Q831.614,538.449 832.373,537.434 Q833.131,536.429 834.341,535.927 Q835.551,535.424 837.233,535.424 Q838.986,535.424 840.176,535.942 Q841.365,536.46 842.124,537.485 Q842.873,538.49 843.211,539.962 Q843.549,541.433 843.549,543.361 z M839.581,543.361 Q839.581,540.592 839.038,539.418 Q838.494,538.244 837.233,538.244 Q835.972,538.244 835.428,539.418 Q834.885,540.592 834.885,543.381 Q834.885,546.099 835.438,547.298 Q835.992,548.498 837.233,548.498 Q838.474,548.498 839.027,547.298 Q839.581,546.099 839.581,543.361 z M851.035,546.97 L847.343,554.794 L845.057,554.794 L847.077,546.97 z M873.245,543.361 Q873.245,545.289 872.896,546.811 Q872.547,548.334 871.809,549.308 Q871.05,550.303 869.861,550.81 Q868.671,551.318 866.928,551.318 Q865.216,551.318 864.006,550.805 Q862.796,550.292 862.047,549.288 Q861.289,548.283 860.95,546.791 Q860.612,545.299 860.612,543.371 Q860.612,541.382 860.96,539.916 Q861.309,538.449 862.068,537.434 Q862.827,536.429 864.037,535.927 Q865.247,535.424 866.928,535.424 Q868.682,535.424 869.871,535.942 Q871.061,536.46 871.819,537.485 Q872.568,538.49 872.906,539.962 Q873.245,541.433 873.245,543.361 z M869.276,543.361 Q869.276,540.592 868.733,539.418 Q868.189,538.244 866.928,538.244 Q865.667,538.244 865.124,539.418 Q864.58,540.592 864.58,543.381 Q864.58,546.099 865.134,547.298 Q865.688,548.498 866.928,548.498 Q868.169,548.498 868.723,547.298 Q869.276,546.099 869.276,543.361 z M880.73,546.97 L877.039,554.794 L874.752,554.794 L876.772,546.97 z M902.714,545.832 Q902.714,547.021 902.268,548.042 Q901.822,549.062 900.971,549.79 Q900.028,550.569 898.802,550.944 Q897.577,551.318 896.008,551.318 Q894.173,551.308 892.906,551.026 Q891.64,550.744 890.84,550.395 L890.84,547.021 L891.271,547.021 Q892.204,547.575 893.281,547.944 Q894.357,548.313 895.424,548.313 Q896.07,548.313 896.823,548.165 Q897.577,548.016 898.018,547.626 Q898.367,547.309 898.546,546.98 Q898.726,546.652 898.726,545.965 Q898.726,545.432 898.485,545.048 Q898.244,544.663 897.864,544.427 Q897.311,544.089 896.531,543.981 Q895.752,543.874 895.116,543.874 Q894.193,543.874 893.347,544.032 Q892.501,544.191 891.866,544.345 L891.415,544.345 L891.415,535.732 L902.273,535.732 L902.273,538.654 L895.116,538.654 L895.116,541.146 Q895.434,541.125 895.921,541.11 Q896.408,541.095 896.777,541.095 Q898.039,541.095 899.028,541.336 Q900.018,541.577 900.735,542.007 Q901.668,542.571 902.191,543.499 Q902.714,544.427 902.714,545.832 z M910.425,546.97 L906.734,554.794 L904.447,554.794 L906.467,546.97 z M932.635,543.361 Q932.635,545.289 932.287,546.811 Q931.938,548.334 931.2,549.308 Q930.441,550.303 929.251,550.81 Q928.062,551.318 926.319,551.318 Q924.606,551.318 923.396,550.805 Q922.187,550.292 921.438,549.288 Q920.679,548.283 920.341,546.791 Q920.002,545.299 920.002,543.371 Q920.002,541.382 920.351,539.916 Q920.7,538.449 921.458,537.434 Q922.217,536.429 923.427,535.927 Q924.637,535.424 926.319,535.424 Q928.072,535.424 929.262,535.942 Q930.451,536.46 931.21,537.485 Q931.958,538.49 932.297,539.962 Q932.635,541.433 932.635,543.361 z M928.667,543.361 Q928.667,540.592 928.124,539.418 Q927.58,538.244 926.319,538.244 Q925.058,538.244 924.514,539.418 Q923.971,540.592 923.971,543.381 Q923.971,546.099 924.524,547.298 Q925.078,548.498 926.319,548.498 Q927.56,548.498 928.113,547.298 Q928.667,546.099 928.667,543.361 z M940.121,546.97 L936.429,554.794 L934.143,554.794 L936.163,546.97 z M962.331,543.361 Q962.331,545.289 961.982,546.811 Q961.633,548.334 960.895,549.308 Q960.136,550.303 958.947,550.81 Q957.757,551.318 956.014,551.318 Q954.302,551.318 953.092,550.805 Q951.882,550.292 951.133,549.288 Q950.375,548.283 950.036,546.791 Q949.698,545.299 949.698,543.371 Q949.698,541.382 950.046,539.916 Q950.395,538.449 951.154,537.434 Q951.913,536.429 953.123,535.927 Q954.333,535.424 956.014,535.424 Q957.768,535.424 958.957,535.942 Q960.146,536.46 960.905,537.485 Q961.654,538.49 961.992,539.962 Q962.331,541.433 962.331,543.361 z M958.362,543.361 Q958.362,540.592 957.819,539.418 Q957.275,538.244 956.014,538.244 Q954.753,538.244 954.209,539.418 Q953.666,540.592 953.666,543.381 Q953.666,546.099 954.22,547.298 Q954.773,548.498 956.014,548.498 Q957.255,548.498 957.809,547.298 Q958.362,546.099 958.362,543.361 z M972.359,555.02 L965.509,555.02 L965.509,552.559 L969.149,552.559 L969.149,537.506 L965.509,537.506 L965.509,535.045 L972.359,535.045 z M981.229,546.97 L977.537,554.794 L975.25,554.794 L977.271,546.97 z M827.748,580.02 L820.898,580.02 L820.898,560.045 L827.748,560.045 L827.748,562.506 L824.108,562.506 L824.108,577.559 L827.748,577.559 z M843.549,568.361 Q843.549,570.289 843.201,571.811 Q842.852,573.334 842.114,574.308 Q841.355,575.303 840.166,575.81 Q838.976,576.318 837.233,576.318 Q835.521,576.318 834.311,575.805 Q833.101,575.292 832.352,574.288 Q831.593,573.283 831.255,571.791 Q830.917,570.299 830.917,568.371 Q830.917,566.382 831.265,564.916 Q831.614,563.449 832.373,562.434 Q833.131,561.429 834.341,560.927 Q835.551,560.424 837.233,560.424 Q838.986,560.424 840.176,560.942 Q841.365,561.46 842.124,562.485 Q842.873,563.49 843.211,564.962 Q843.549,566.433 843.549,568.361 z M839.581,568.361 Q839.581,565.592 839.038,564.418 Q838.494,563.244 837.233,563.244 Q835.972,563.244 835.428,564.418 Q834.885,565.592 834.885,568.381 Q834.885,571.099 835.438,572.298 Q835.992,573.498 837.233,573.498 Q838.474,573.498 839.027,572.298 Q839.581,571.099 839.581,568.361 z M851.035,571.97 L847.343,579.794 L845.057,579.794 L847.077,571.97 z M873.245,568.361 Q873.245,570.289 872.896,571.811 Q872.547,573.334 871.809,574.308 Q871.05,575.303 869.861,575.81 Q868.671,576.318 866.928,576.318 Q865.216,576.318 864.006,575.805 Q862.796,575.292 862.047,574.288 Q861.289,573.283 860.95,571.791 Q860.612,570.299 860.612,568.371 Q860.612,566.382 860.96,564.916 Q861.309,563.449 862.068,562.434 Q862.827,561.429 864.037,560.927 Q865.247,560.424 866.928,560.424 Q868.682,560.424 869.871,560.942 Q871.061,561.46 871.819,562.485 Q872.568,563.49 872.906,564.962 Q873.245,566.433 873.245,568.361 z M869.276,568.361 Q869.276,565.592 868.733,564.418 Q868.189,563.244 866.928,563.244 Q865.667,563.244 865.124,564.418 Q864.58,565.592 864.58,568.381 Q864.58,571.099 865.134,572.298 Q865.688,573.498 866.928,573.498 Q868.169,573.498 868.723,572.298 Q869.276,571.099 869.276,568.361 z M880.73,571.97 L877.039,579.794 L874.752,579.794 L876.772,571.97 z M902.94,568.361 Q902.94,570.289 902.591,571.811 Q902.243,573.334 901.504,574.308 Q900.746,575.303 899.556,575.81 Q898.367,576.318 896.624,576.318 Q894.911,576.318 893.701,575.805 Q892.491,575.292 891.743,574.288 Q890.984,573.283 890.646,571.791 Q890.307,570.299 890.307,568.371 Q890.307,566.382 890.656,564.916 Q891.004,563.449 891.763,562.434 Q892.522,561.429 893.732,560.927 Q894.942,560.424 896.624,560.424 Q898.377,560.424 899.566,560.942 Q900.756,561.46 901.515,562.485 Q902.263,563.49 902.602,564.962 Q902.94,566.433 902.94,568.361 z M898.972,568.361 Q898.972,565.592 898.428,564.418 Q897.885,563.244 896.624,563.244 Q895.362,563.244 894.819,564.418 Q894.275,565.592 894.275,568.381 Q894.275,571.099 894.829,572.298 Q895.383,573.498 896.624,573.498 Q897.864,573.498 898.418,572.298 Q898.972,571.099 898.972,568.361 z M910.425,571.97 L906.734,579.794 L904.447,579.794 L906.467,571.97 z M932.42,563.767 L925.509,576 L921.12,576 L928.298,563.654 L920.454,563.654 L920.454,560.732 L932.42,560.732 z M940.121,571.97 L936.429,579.794 L934.143,579.794 L936.163,571.97 z M962.433,576 L950.446,576 L950.446,573.478 Q951.82,572.483 953.199,571.365 Q954.579,570.248 955.409,569.438 Q956.65,568.238 957.173,567.346 Q957.696,566.454 957.696,565.582 Q957.696,564.536 957.024,563.967 Q956.353,563.398 955.091,563.398 Q954.148,563.398 953.107,563.788 Q952.066,564.177 951.174,564.782 L950.846,564.782 L950.846,561.388 Q951.574,561.07 952.994,560.752 Q954.415,560.435 955.84,560.435 Q958.711,560.435 960.218,561.639 Q961.726,562.844 961.726,565.049 Q961.726,566.495 961.003,567.797 Q960.28,569.099 958.793,570.483 Q957.86,571.345 956.917,572.068 Q955.973,572.791 955.573,573.078 L962.433,573.078 z M972.359,580.02 L965.509,580.02 L965.509,577.559 L969.149,577.559 L969.149,562.506 L965.509,562.506 L965.509,560.045 L972.359,560.045 z M981.229,571.97 L977.537,579.794 L975.25,579.794 L977.271,571.97 z M827.748,605.02 L820.898,605.02 L820.898,585.045 L827.748,585.045 L827.748,587.506 L824.108,587.506 L824.108,602.559 L827.748,602.559 z M843.683,596.734 Q843.683,598.765 841.955,600.057 Q840.227,601.349 837.212,601.349 Q835.521,601.349 834.311,601 Q833.101,600.651 832.311,600.036 Q831.532,599.431 831.157,598.621 Q830.783,597.811 830.783,596.878 Q830.783,595.729 831.455,594.843 Q832.126,593.956 833.777,593.289 L833.777,593.228 Q832.444,592.612 831.819,591.679 Q831.193,590.746 831.193,589.516 Q831.193,587.701 832.875,586.542 Q834.557,585.383 837.253,585.383 Q840.083,585.383 841.688,586.434 Q843.293,587.485 843.293,589.239 Q843.293,590.326 842.616,591.177 Q841.939,592.028 840.545,592.623 L840.545,592.684 Q842.145,593.289 842.914,594.314 Q843.683,595.34 843.683,596.734 z M839.448,589.68 Q839.448,588.9 838.848,588.439 Q838.248,587.978 837.253,587.978 Q836.884,587.978 836.5,588.07 Q836.115,588.162 835.797,588.336 Q835.5,588.511 835.305,588.793 Q835.11,589.075 835.11,589.434 Q835.11,590.039 835.454,590.377 Q835.797,590.715 836.577,591.054 Q836.864,591.177 837.361,591.356 Q837.858,591.536 838.566,591.761 Q839.038,591.208 839.243,590.767 Q839.448,590.326 839.448,589.68 z M839.766,596.909 Q839.766,596.17 839.396,595.791 Q839.027,595.412 837.879,594.919 Q837.541,594.766 836.895,594.54 Q836.249,594.314 835.808,594.15 Q835.367,594.55 835.013,595.119 Q834.659,595.688 834.659,596.396 Q834.659,597.462 835.423,598.093 Q836.187,598.724 837.417,598.724 Q837.746,598.724 838.187,598.626 Q838.627,598.529 838.945,598.324 Q839.314,598.088 839.54,597.77 Q839.766,597.452 839.766,596.909 z M851.035,596.97 L847.343,604.794 L845.057,604.794 L847.077,596.97 z M873.245,593.361 Q873.245,595.289 872.896,596.811 Q872.547,598.334 871.809,599.308 Q871.05,600.303 869.861,600.81 Q868.671,601.318 866.928,601.318 Q865.216,601.318 864.006,600.805 Q862.796,600.292 862.047,599.288 Q861.289,598.283 860.95,596.791 Q860.612,595.299 860.612,593.371 Q860.612,591.382 860.96,589.916 Q861.309,588.449 862.068,587.434 Q862.827,586.429 864.037,585.927 Q865.247,585.424 866.928,585.424 Q868.682,585.424 869.871,585.942 Q871.061,586.46 871.819,587.485 Q872.568,588.49 872.906,589.962 Q873.245,591.433 873.245,593.361 z M869.276,593.361 Q869.276,590.592 868.733,589.418 Q868.189,588.244 866.928,588.244 Q865.667,588.244 865.124,589.418 Q864.58,590.592 864.58,593.381 Q864.58,596.099 865.134,597.298 Q865.688,598.498 866.928,598.498 Q868.169,598.498 868.723,597.298 Q869.276,596.099 869.276,593.361 z M880.73,596.97 L877.039,604.794 L874.752,604.794 L876.772,596.97 z M902.94,593.361 Q902.94,595.289 902.591,596.811 Q902.243,598.334 901.504,599.308 Q900.746,600.303 899.556,600.81 Q898.367,601.318 896.624,601.318 Q894.911,601.318 893.701,600.805 Q892.491,600.292 891.743,599.288 Q890.984,598.283 890.646,596.791 Q890.307,595.299 890.307,593.371 Q890.307,591.382 890.656,589.916 Q891.004,588.449 891.763,587.434 Q892.522,586.429 893.732,585.927 Q894.942,585.424 896.624,585.424 Q898.377,585.424 899.566,585.942 Q900.756,586.46 901.515,587.485 Q902.263,588.49 902.602,589.962 Q902.94,591.433 902.94,593.361 z M898.972,593.361 Q898.972,590.592 898.428,589.418 Q897.885,588.244 896.624,588.244 Q895.362,588.244 894.819,589.418 Q894.275,590.592 894.275,593.381 Q894.275,596.099 894.829,597.298 Q895.383,598.498 896.624,598.498 Q897.864,598.498 898.418,597.298 Q898.972,596.099 898.972,593.361 z M910.425,596.97 L906.734,604.794 L904.447,604.794 L906.467,596.97 z M932.953,597.483 L930.872,597.483 L930.872,601.041 L927.108,601.041 L927.108,597.483 L919.715,597.483 L919.715,594.591 L926.862,585.732 L930.872,585.732 L930.872,594.694 L932.953,594.694 z M927.108,594.694 L927.108,589.177 L922.668,594.694 z M940.121,596.97 L936.429,604.794 L934.143,604.794 L936.163,596.97 z M962.331,593.361 Q962.331,595.289 961.982,596.811 Q961.633,598.334 960.895,599.308 Q960.136,600.303 958.947,600.81 Q957.757,601.318 956.014,601.318 Q954.302,601.318 953.092,600.805 Q951.882,600.292 951.133,599.288 Q950.375,598.283 950.036,596.791 Q949.698,595.299 949.698,593.371 Q949.698,591.382 950.046,589.916 Q950.395,588.449 951.154,587.434 Q951.913,586.429 953.123,585.927 Q954.333,585.424 956.014,585.424 Q957.768,585.424 958.957,585.942 Q960.146,586.46 960.905,587.485 Q961.654,588.49 961.992,589.962 Q962.331,591.433 962.331,593.361 z M958.362,593.361 Q958.362,590.592 957.819,589.418 Q957.275,588.244 956.014,588.244 Q954.753,588.244 954.209,589.418 Q953.666,590.592 953.666,593.381 Q953.666,596.099 954.22,597.298 Q954.773,598.498 956.014,598.498 Q957.255,598.498 957.809,597.298 Q958.362,596.099 958.362,593.361 z M972.359,605.02 L965.509,605.02 L965.509,602.559 L969.149,602.559 L969.149,587.506 L965.509,587.506 L965.509,585.045 L972.359,585.045 z M981.229,596.97 L977.537,604.794 L975.25,604.794 L977.271,596.97 z M827.748,630.02 L820.898,630.02 L820.898,610.045 L827.748,610.045 L827.748,612.506 L824.108,612.506 L824.108,627.559 L827.748,627.559 z M843.549,618.361 Q843.549,620.289 843.201,621.811 Q842.852,623.334 842.114,624.308 Q841.355,625.303 840.166,625.81 Q838.976,626.318 837.233,626.318 Q835.521,626.318 834.311,625.805 Q833.101,625.292 832.352,624.288 Q831.593,623.283 831.255,621.791 Q830.917,620.299 830.917,618.371 Q830.917,616.382 831.265,614.916 Q831.614,613.449 832.373,612.434 Q833.131,611.429 834.341,610.927 Q835.551,610.424 837.233,610.424 Q838.986,610.424 840.176,610.942 Q841.365,611.46 842.124,612.485 Q842.873,613.49 843.211,614.962 Q843.549,616.433 843.549,618.361 z M839.581,618.361 Q839.581,615.592 839.038,614.418 Q838.494,613.244 837.233,613.244 Q835.972,613.244 835.428,614.418 Q834.885,615.592 834.885,618.381 Q834.885,621.099 835.438,622.298 Q835.992,623.498 837.233,623.498 Q838.474,623.498 839.027,622.298 Q839.581,621.099 839.581,618.361 z M851.035,621.97 L847.343,629.794 L845.057,629.794 L847.077,621.97 z M873.019,617.51 Q873.019,619.427 872.527,621.078 Q872.035,622.729 871.03,623.857 Q869.943,625.077 868.333,625.687 Q866.723,626.297 864.58,626.297 Q863.821,626.297 862.939,626.205 Q862.058,626.113 861.781,626.041 L861.781,623.037 L862.191,623.037 Q862.499,623.18 863.068,623.344 Q863.637,623.508 864.621,623.508 Q865.421,623.508 866.19,623.308 Q866.959,623.108 867.513,622.678 Q868.118,622.216 868.507,621.524 Q868.897,620.832 869.03,619.858 Q868.138,620.371 867.374,620.642 Q866.61,620.914 865.472,620.914 Q864.611,620.914 863.826,620.704 Q863.042,620.494 862.396,620.053 Q861.545,619.448 861.037,618.458 Q860.53,617.469 860.53,615.961 Q860.53,613.511 862.237,611.968 Q863.944,610.424 866.713,610.424 Q868.138,610.424 869.24,610.799 Q870.343,611.173 871.143,611.942 Q872.076,612.824 872.547,614.188 Q873.019,615.551 873.019,617.51 z M869.092,616.936 Q869.092,615.685 868.851,614.88 Q868.61,614.075 868.189,613.634 Q867.892,613.306 867.502,613.162 Q867.113,613.019 866.682,613.019 Q866.282,613.019 865.918,613.157 Q865.554,613.295 865.216,613.634 Q864.898,613.962 864.698,614.495 Q864.498,615.028 864.498,615.767 Q864.498,616.484 864.713,616.971 Q864.929,617.458 865.308,617.746 Q865.667,618.022 866.154,618.135 Q866.641,618.248 867.215,618.248 Q867.677,618.248 868.22,618.13 Q868.764,618.012 869.061,617.889 Q869.061,617.776 869.076,617.566 Q869.092,617.356 869.092,616.936 z M880.73,621.97 L877.039,629.794 L874.752,629.794 L876.772,621.97 z M902.94,618.361 Q902.94,620.289 902.591,621.811 Q902.243,623.334 901.504,624.308 Q900.746,625.303 899.556,625.81 Q898.367,626.318 896.624,626.318 Q894.911,626.318 893.701,625.805 Q892.491,625.292 891.743,624.288 Q890.984,623.283 890.646,621.791 Q890.307,620.299 890.307,618.371 Q890.307,616.382 890.656,614.916 Q891.004,613.449 891.763,612.434 Q892.522,611.429 893.732,610.927 Q894.942,610.424 896.624,610.424 Q898.377,610.424 899.566,610.942 Q900.756,611.46 901.515,612.485 Q902.263,613.49 902.602,614.962 Q902.94,616.433 902.94,618.361 z M898.972,618.361 Q898.972,615.592 898.428,614.418 Q897.885,613.244 896.624,613.244 Q895.362,613.244 894.819,614.418 Q894.275,615.592 894.275,618.381 Q894.275,621.099 894.829,622.298 Q895.383,623.498 896.624,623.498 Q897.864,623.498 898.418,622.298 Q898.972,621.099 898.972,618.361 z M910.425,621.97 L906.734,629.794 L904.447,629.794 L906.467,621.97 z M931.774,626 L921.582,626 L921.582,623.334 L924.801,623.334 L924.801,615.264 L921.582,615.264 L921.582,612.772 Q922.32,612.772 922.997,612.685 Q923.673,612.598 924.125,612.383 Q924.658,612.126 924.924,611.716 Q925.191,611.306 925.232,610.691 L928.626,610.691 L928.626,623.334 L931.774,623.334 z M940.121,621.97 L936.429,629.794 L934.143,629.794 L936.163,621.97 z M962.331,618.361 Q962.331,620.289 961.982,621.811 Q961.633,623.334 960.895,624.308 Q960.136,625.303 958.947,625.81 Q957.757,626.318 956.014,626.318 Q954.302,626.318 953.092,625.805 Q951.882,625.292 951.133,624.288 Q950.375,623.283 950.036,621.791 Q949.698,620.299 949.698,618.371 Q949.698,616.382 950.046,614.916 Q950.395,613.449 951.154,612.434 Q951.913,611.429 953.123,610.927 Q954.333,610.424 956.014,610.424 Q957.768,610.424 958.957,610.942 Q960.146,611.46 960.905,612.485 Q961.654,613.49 961.992,614.962 Q962.331,616.433 962.331,618.361 z M958.362,618.361 Q958.362,615.592 957.819,614.418 Q957.275,613.244 956.014,613.244 Q954.753,613.244 954.209,614.418 Q953.666,615.592 953.666,618.381 Q953.666,621.099 954.22,622.298 Q954.773,623.498 956.014,623.498 Q957.255,623.498 957.809,622.298 Q958.362,621.099 958.362,618.361 z M972.359,630.02 L965.509,630.02 L965.509,627.559 L969.149,627.559 L969.149,612.506 L965.509,612.506 L965.509,610.045 L972.359,610.045 z M983.771,630.02 L976.922,630.02 L976.922,627.559 L980.562,627.559 L980.562,612.506 L976.922,612.506 L976.922,610.045 L983.771,610.045 z M732.889,638.685 L725.865,638.685 L725.865,641.525 L732.376,641.525 L732.376,644.479 L725.865,644.479 L725.865,651 L721.948,651 L721.948,635.732 L732.889,635.732 z M743.748,643.002 L743.42,643.002 Q743.184,642.92 742.661,642.879 Q742.138,642.838 741.79,642.838 Q741,642.838 740.395,642.94 Q739.79,643.043 739.093,643.289 L739.093,651 L735.401,651 L735.401,639.485 L739.093,639.485 L739.093,641.177 Q740.313,640.131 741.215,639.787 Q742.118,639.444 742.876,639.444 Q743.071,639.444 743.317,639.454 Q743.563,639.464 743.748,639.485 z M757.611,645.248 Q757.611,648.088 755.955,649.723 Q754.299,651.359 751.305,651.359 Q748.311,651.359 746.655,649.723 Q744.999,648.088 744.999,645.248 Q744.999,642.387 746.665,640.756 Q748.332,639.126 751.305,639.126 Q754.32,639.126 755.966,640.767 Q757.611,642.407 757.611,645.248 z M753.069,648.047 Q753.428,647.606 753.607,646.986 Q753.787,646.365 753.787,645.268 Q753.787,644.253 753.602,643.566 Q753.417,642.879 753.089,642.469 Q752.761,642.048 752.3,641.874 Q751.838,641.7 751.305,641.7 Q750.772,641.7 750.357,641.843 Q749.941,641.987 749.562,642.417 Q749.224,642.817 749.024,643.515 Q748.824,644.212 748.824,645.268 Q748.824,646.211 748.998,646.904 Q749.172,647.596 749.511,648.016 Q749.839,648.416 750.295,648.601 Q750.751,648.785 751.336,648.785 Q751.838,648.785 752.295,648.616 Q752.751,648.447 753.069,648.047 z M771.516,642.838 L771.516,651 L767.804,651 L767.804,645.248 Q767.804,644.407 767.763,643.817 Q767.722,643.228 767.537,642.858 Q767.353,642.489 766.978,642.32 Q766.604,642.151 765.927,642.151 Q765.384,642.151 764.871,642.371 Q764.358,642.592 763.948,642.838 L763.948,651 L760.257,651 L760.257,639.485 L763.948,639.485 L763.948,640.756 Q764.902,640.008 765.773,639.587 Q766.645,639.167 767.701,639.167 Q768.839,639.167 769.711,639.675 Q770.583,640.182 771.075,641.167 Q772.182,640.233 773.228,639.7 Q774.274,639.167 775.279,639.167 Q777.145,639.167 778.114,640.285 Q779.083,641.402 779.083,643.504 L779.083,651 L775.371,651 L775.371,645.248 Q775.371,644.396 775.335,643.812 Q775.299,643.228 775.115,642.858 Q774.94,642.489 774.561,642.32 Q774.182,642.151 773.495,642.151 Q773.033,642.151 772.592,642.31 Q772.151,642.469 771.516,642.838 z M786.876,643.515 L783.041,643.515 L783.041,639.485 L786.876,639.485 z M786.876,651 L783.041,651 L783.041,646.97 L786.876,646.97 z M813.393,655.02 L806.543,655.02 L806.543,635.045 L813.393,635.045 L813.393,637.506 L809.752,637.506 L809.752,652.559 L813.393,652.559 z M828.333,651 L818.14,651 L818.14,648.334 L821.36,648.334 L821.36,640.264 L818.14,640.264 L818.14,637.772 Q818.878,637.772 819.555,637.685 Q820.232,637.598 820.683,637.383 Q821.216,637.126 821.483,636.716 Q821.75,636.306 821.791,635.691 L825.185,635.691 L825.185,648.334 L828.333,648.334 z M836.679,646.97 L832.988,654.794 L830.701,654.794 L832.721,646.97 z M850.85,651 L840.658,651 L840.658,648.334 L843.877,648.334 L843.877,640.264 L840.658,640.264 L840.658,637.772 Q841.396,637.772 842.073,637.685 Q842.75,637.598 843.201,637.383 Q843.734,637.126 844,636.716 Q844.267,636.306 844.308,635.691 L847.702,635.691 L847.702,648.334 L850.85,648.334 z M861.74,655.02 L854.89,655.02 L854.89,652.559 L858.53,652.559 L858.53,637.506 L854.89,637.506 L854.89,635.045 L861.74,635.045 z M733.894,663.685 L729.126,663.685 L729.126,676 L725.188,676 L725.188,663.685 L720.42,663.685 L720.42,660.732 L733.894,660.732 z M747.829,670.248 Q747.829,673.088 746.173,674.723 Q744.517,676.359 741.523,676.359 Q738.529,676.359 736.873,674.723 Q735.217,673.088 735.217,670.248 Q735.217,667.387 736.883,665.756 Q738.549,664.126 741.523,664.126 Q744.538,664.126 746.183,665.767 Q747.829,667.407 747.829,670.248 z M743.287,673.047 Q743.646,672.606 743.825,671.986 Q744.004,671.365 744.004,670.268 Q744.004,669.253 743.82,668.566 Q743.635,667.879 743.307,667.469 Q742.979,667.048 742.518,666.874 Q742.056,666.7 741.523,666.7 Q740.99,666.7 740.574,666.843 Q740.159,666.987 739.78,667.417 Q739.441,667.817 739.241,668.515 Q739.042,669.212 739.042,670.268 Q739.042,671.211 739.216,671.904 Q739.39,672.596 739.729,673.016 Q740.057,673.416 740.513,673.601 Q740.969,673.785 741.554,673.785 Q742.056,673.785 742.512,673.616 Q742.969,673.447 743.287,673.047 z M754.874,668.515 L751.039,668.515 L751.039,664.485 L754.874,664.485 z M754.874,676 L751.039,676 L751.039,671.97 L754.874,671.97 z M813.393,680.02 L806.543,680.02 L806.543,660.045 L813.393,660.045 L813.393,662.506 L809.752,662.506 L809.752,677.559 L813.393,677.559 z M828.333,676 L818.14,676 L818.14,673.334 L821.36,673.334 L821.36,665.264 L818.14,665.264 L818.14,662.772 Q818.878,662.772 819.555,662.685 Q820.232,662.598 820.683,662.383 Q821.216,662.126 821.483,661.716 Q821.75,661.306 821.791,660.691 L825.185,660.691 L825.185,673.334 L828.333,673.334 z M836.679,671.97 L832.988,679.794 L830.701,679.794 L832.721,671.97 z M851.486,670.832 Q851.486,672.021 851.04,673.042 Q850.594,674.062 849.743,674.79 Q848.799,675.569 847.574,675.944 Q846.349,676.318 844.78,676.318 Q842.944,676.308 841.678,676.026 Q840.412,675.744 839.612,675.395 L839.612,672.021 L840.042,672.021 Q840.976,672.575 842.052,672.944 Q843.129,673.313 844.195,673.313 Q844.841,673.313 845.595,673.165 Q846.349,673.016 846.79,672.626 Q847.138,672.309 847.318,671.98 Q847.497,671.652 847.497,670.965 Q847.497,670.432 847.256,670.048 Q847.015,669.663 846.636,669.427 Q846.082,669.089 845.303,668.981 Q844.523,668.874 843.888,668.874 Q842.965,668.874 842.119,669.032 Q841.273,669.191 840.637,669.345 L840.186,669.345 L840.186,660.732 L851.045,660.732 L851.045,663.654 L843.888,663.654 L843.888,666.146 Q844.206,666.125 844.693,666.11 Q845.18,666.095 845.549,666.095 Q846.81,666.095 847.8,666.336 Q848.789,666.577 849.507,667.007 Q850.44,667.571 850.963,668.499 Q851.486,669.427 851.486,670.832 z M861.74,680.02 L854.89,680.02 L854.89,677.559 L858.53,677.559 L858.53,662.506 L854.89,662.506 L854.89,660.045 L861.74,660.045 z M730.51,715.408 Q730.51,714.833 730.274,714.423 Q730.039,714.013 729.464,713.777 Q729.064,713.613 728.531,713.577 Q727.998,713.542 727.291,713.542 L725.865,713.542 L725.865,717.653 L727.075,717.653 Q728.019,717.653 728.654,717.561 Q729.29,717.469 729.721,717.141 Q730.131,716.823 730.321,716.438 Q730.51,716.054 730.51,715.408 z M736.652,726 L731.843,726 L727.68,720.401 L725.865,720.401 L725.865,726 L721.948,726 L721.948,710.732 L728.552,710.732 Q729.905,710.732 730.879,710.886 Q731.854,711.04 732.705,711.552 Q733.566,712.065 734.073,712.88 Q734.581,713.695 734.581,714.926 Q734.581,716.618 733.797,717.684 Q733.012,718.75 731.556,719.458 z M749.511,720.924 L741.062,720.924 Q741.144,722.278 742.092,722.996 Q743.041,723.713 744.886,723.713 Q746.055,723.713 747.152,723.293 Q748.25,722.873 748.885,722.391 L749.295,722.391 L749.295,725.354 Q748.044,725.856 746.937,726.082 Q745.83,726.308 744.486,726.308 Q741.021,726.308 739.175,724.749 Q737.329,723.19 737.329,720.309 Q737.329,717.458 739.077,715.792 Q740.826,714.126 743.871,714.126 Q746.681,714.126 748.096,715.546 Q749.511,716.966 749.511,719.632 z M745.84,718.761 Q745.809,717.602 745.266,717.018 Q744.722,716.433 743.574,716.433 Q742.507,716.433 741.82,716.987 Q741.133,717.541 741.051,718.761 z M762.123,722.35 Q762.123,724.134 760.523,725.226 Q758.924,726.318 756.145,726.318 Q754.607,726.318 753.356,726.031 Q752.105,725.744 751.346,725.395 L751.346,722.36 L751.685,722.36 Q751.961,722.555 752.325,722.785 Q752.689,723.016 753.356,723.283 Q753.93,723.519 754.658,723.688 Q755.386,723.857 756.217,723.857 Q757.304,723.857 757.827,723.616 Q758.35,723.375 758.35,722.903 Q758.35,722.483 758.042,722.293 Q757.734,722.104 756.873,721.929 Q756.463,721.837 755.76,721.729 Q755.058,721.622 754.484,721.468 Q752.915,721.058 752.156,720.191 Q751.397,719.325 751.397,718.033 Q751.397,716.372 752.971,715.269 Q754.545,714.167 757.273,714.167 Q758.565,714.167 759.749,714.428 Q760.934,714.69 761.6,714.987 L761.6,717.899 L761.282,717.899 Q760.462,717.335 759.411,716.982 Q758.36,716.628 757.283,716.628 Q756.391,716.628 755.781,716.874 Q755.171,717.12 755.171,717.571 Q755.171,717.981 755.448,718.197 Q755.725,718.412 756.75,718.627 Q757.314,718.74 757.965,718.848 Q758.616,718.956 759.272,719.12 Q760.729,719.499 761.426,720.314 Q762.123,721.129 762.123,722.35 z M776.048,726 L772.356,726 L772.356,724.729 Q771.331,725.508 770.48,725.913 Q769.629,726.318 768.45,726.318 Q766.542,726.318 765.512,725.221 Q764.481,724.124 764.481,721.98 L764.481,714.485 L768.193,714.485 L768.193,720.196 Q768.193,721.068 768.25,721.647 Q768.306,722.227 768.511,722.606 Q768.706,722.985 769.101,723.16 Q769.496,723.334 770.203,723.334 Q770.675,723.334 771.249,723.16 Q771.823,722.985 772.356,722.647 L772.356,714.485 L776.048,714.485 z M783.226,726 L779.534,726 L779.534,710.045 L783.226,710.045 z M794.074,725.897 Q793.479,726.051 792.813,726.138 Q792.146,726.226 791.183,726.226 Q789.029,726.226 787.978,725.354 Q786.927,724.482 786.927,722.37 L786.927,716.987 L785.41,716.987 L785.41,714.485 L786.927,714.485 L786.927,711.193 L790.619,711.193 L790.619,714.485 L794.074,714.485 L794.074,716.987 L790.619,716.987 L790.619,721.068 Q790.619,721.673 790.629,722.124 Q790.639,722.575 790.793,722.934 Q790.937,723.293 791.301,723.503 Q791.665,723.713 792.362,723.713 Q792.649,723.713 793.115,723.59 Q793.582,723.467 793.767,723.365 L794.074,723.365 z M800.678,718.515 L796.843,718.515 L796.843,714.485 L800.678,714.485 z M800.678,726 L796.843,726 L796.843,721.97 L800.678,721.97 z M823.052,713.685 L816.028,713.685 L816.028,716.525 L822.539,716.525 L822.539,719.479 L816.028,719.479 L816.028,726 L812.111,726 L812.111,710.732 L823.052,710.732 z M832.537,722.996 L832.537,720.596 Q831.788,720.658 830.917,720.765 Q830.045,720.873 829.594,721.017 Q829.04,721.191 828.748,721.524 Q828.456,721.857 828.456,722.401 Q828.456,722.76 828.517,722.985 Q828.579,723.211 828.825,723.416 Q829.061,723.621 829.389,723.719 Q829.717,723.816 830.414,723.816 Q830.968,723.816 831.537,723.59 Q832.106,723.365 832.537,722.996 z M832.537,724.78 Q832.239,725.005 831.798,725.323 Q831.357,725.641 830.968,725.826 Q830.424,726.072 829.84,726.19 Q829.255,726.308 828.558,726.308 Q826.917,726.308 825.81,725.292 Q824.703,724.277 824.703,722.698 Q824.703,721.437 825.267,720.637 Q825.831,719.837 826.866,719.376 Q827.892,718.915 829.409,718.72 Q830.927,718.525 832.557,718.433 L832.557,718.371 Q832.557,717.417 831.778,717.053 Q830.999,716.689 829.481,716.689 Q828.568,716.689 827.533,717.012 Q826.497,717.335 826.046,717.51 L825.708,717.51 L825.708,714.731 Q826.292,714.577 827.61,714.367 Q828.927,714.157 830.25,714.157 Q833.398,714.157 834.798,715.126 Q836.197,716.095 836.197,718.166 L836.197,726 L832.537,726 z M843.283,726 L839.591,726 L839.591,710.045 L843.283,710.045 z M856.777,722.35 Q856.777,724.134 855.177,725.226 Q853.578,726.318 850.799,726.318 Q849.261,726.318 848.01,726.031 Q846.759,725.744 846,725.395 L846,722.36 L846.338,722.36 Q846.615,722.555 846.979,722.785 Q847.343,723.016 848.01,723.283 Q848.584,723.519 849.312,723.688 Q850.04,723.857 850.871,723.857 Q851.958,723.857 852.48,723.616 Q853.003,723.375 853.003,722.903 Q853.003,722.483 852.696,722.293 Q852.388,722.104 851.527,721.929 Q851.117,721.837 850.414,721.729 Q849.712,721.622 849.138,721.468 Q847.569,721.058 846.81,720.191 Q846.051,719.325 846.051,718.033 Q846.051,716.372 847.625,715.269 Q849.199,714.167 851.927,714.167 Q853.219,714.167 854.403,714.428 Q855.587,714.69 856.254,714.987 L856.254,717.899 L855.936,717.899 Q855.116,717.335 854.065,716.982 Q853.014,716.628 851.937,716.628 Q851.045,716.628 850.435,716.874 Q849.825,717.12 849.825,717.571 Q849.825,717.981 850.102,718.197 Q850.378,718.412 851.404,718.627 Q851.968,718.74 852.619,718.848 Q853.27,718.956 853.926,719.12 Q855.382,719.499 856.08,720.314 Q856.777,721.129 856.777,722.35 z M870.568,720.924 L862.119,720.924 Q862.201,722.278 863.15,722.996 Q864.098,723.713 865.944,723.713 Q867.113,723.713 868.21,723.293 Q869.307,722.873 869.943,722.391 L870.353,722.391 L870.353,725.354 Q869.102,725.856 867.995,726.082 Q866.887,726.308 865.544,726.308 Q862.078,726.308 860.232,724.749 Q858.387,723.19 858.387,720.309 Q858.387,717.458 860.135,715.792 Q861.883,714.126 864.929,714.126 Q867.738,714.126 869.153,715.546 Q870.568,716.966 870.568,719.632 z M866.897,718.761 Q866.867,717.602 866.323,717.018 Q865.78,716.433 864.631,716.433 Q863.565,716.433 862.878,716.987 Q862.191,717.541 862.109,718.761 z" fill="#294270"/>
    </g>
    <g>
      <path d="M800.5,80.5 L880.5,80.5 L880.5,160.5 L800.5,160.5 z" fill="#8FC7ED"/>
      <path d="M800.5,80.5 L880.5,80.5 L880.5,160.5 L800.5,160.5 z" fill-opacity="0" stroke="#737370" stroke-width="2"/>
    </g>
    <g>
      <path d="M880.5,80.5 L960.5,80.5 L960.5,160.5 L880.5,160.5 z" fill="#FABA00"/>
      <path d="M880.5,80.5 L960.5,80.5 L960.5,160.5 L880.5,160.5 z" fill-opacity="0" stroke="#737370" stroke-width="2"/>
    </g>
    <g>
      <path d="M720.5,160.5 L800.5,160.5 L800.5,240.5 L720.5,240.5 z" fill="#8FC7ED"/>
      <path d="M720.5,160.5 L800.5,160.5 L800.5,240.5 L720.5,240.5 z" fill-opacity="0" stroke="#737370" stroke-width="2"/>
    </g>
    <g>
      <path d="M800.5,160.5 L880.5,160.5 L880.5,240.5 L800.5,240.5 z" fill="#8FC7ED"/>
      <path d="M800.5,160.5 L880.5,160.5 L880.5,240.5 L800.5,240.5 z" fill-opacity="0" stroke="#737370" stroke-width="2"/>
    </g>
    <g>
      <path d="M1040.5,80.5 L1120.5,80.5 L1120.5,160.5 L1040.5,160.5 z" fill="#8FC7ED"/>
      <path d="M1040.5,80.5 L1120.5,80.5 L1120.5,160.5 L1040.5,160.5 z" fill-opacity="0" stroke="#294270" stroke-width="6" stroke-linejoin="bevel"/>
    </g>
    <g>
      <path d="M880.5,160.5 L960.5,160.5 L960.5,240.5 L880.5,240.5 z" fill="#FABA00"/>
      <path d="M880.5,160.5 L960.5,160.5 L960.5,240.5 L880.5,240.5 z" fill-opacity="0" stroke="#737370" stroke-width="2"/>
    </g>
    <g>
      <path d="M720.5,240.5 L800.5,240.5 L800.5,320.5 L720.5,320.5 z" fill="#8FC7ED"/>
      <path d="M720.5,240.5 L800.5,240.5 L800.5,320.5 L720.5,320.5 z" fill-opacity="0" stroke="#737370" stroke-width="2"/>
    </g>
    <g>
      <path d="M800.5,240.5 L880.5,240.5 L880.5,320.5 L800.5,320.5 z" fill="#8FC7ED"/>
      <path d="M800.5,240.5 L880.5,240.5 L880.5,320.5 L800.5,320.5 z" fill-opacity="0" stroke="#737370" stroke-width="2"/>
    </g>
    <g>
      <path d="M880.5,240.5 L960.5,240.5 L960.5,320.5 L880.5,320.5 z" fill="#8FC7ED"/>
      <path d="M880.5,240.5 L960.5,240.5 L960.5,320.5 L880.5,320.5 z" fill-opacity="0" stroke="#737370" stroke-width="2"/>
    </g>
    <g>
      <path d="M960.5,240.5 L1040.5,240.5 L1040.5,320.5 L960.5,320.5 z" fill="#FABA00"/>
      <path d="M960.5,240.5 L1040.5,240.5 L1040.5,320.5 L960.5,320.5 z" fill-opacity="0" stroke="#737370" stroke-width="2"/>
    </g>
    <g>
      <path d="M1040.5,240.5 L1120.5,240.5 L1120.5,320.5 L1040.5,320.5 z" fill="#FABA00"/>
      <path d="M1040.5,240.5 L1120.5,240.5 L1120.5,320.5 L1040.5,320.5 z" fill-opacity="0" stroke="#737370" stroke-width="2"/>
    </g>
    <g>
      <path d="M720.5,320.5 L800.5,320.5 L800.5,400.5 L720.5,400.5 z" fill="#FABA00"/>
      <path d="M720.5,320.5 L800.5,320.5 L800.5,400.5 L720.5,400.5 z" fill-opacity="0" stroke="#737370" stroke-width="2"/>
    </g>
    <g>
      <path d="M800.5,320.5 L880.5,320.5 L880.5,400.5 L800.5,400.5 z" fill="#8FC7ED"/>
      <path d="M800.5,320.5 L880.5,320.5 L880.5,400.5 L800.5,400.5 z" fill-opacity="0" stroke="#737370" stroke-width="2"/>
    </g>
    <g>
      <path d="M880.5,320.5 L960.5,320.5 L960.5,400.5 L880.5,400.5 z" fill="#8FC7ED"/>
      <path d="M880.5,320.5 L960.5,320.5 L960.5,400.5 L880.5,400.5 z" fill-opacity="0" stroke="#737370" stroke-width="2"/>
    </g>
    <g>
      <path d="M960.5,320.5 L1040.5,320.5 L1040.5,400.5 L960.5,400.5 z" fill="#FABA00"/>
      <path d="M960.5,320.5 L1040.5,320.5 L1040.5,400.5 L960.5,400.5 z" fill-opacity="0" stroke="#737370" stroke-width="2"/>
    </g>
    <g>
      <path d="M1040.5,320.5 L1120.5,320.5 L1120.5,400.5 L1040.5,400.5 z" fill="#8FC7ED"/>
      <path d="M1040.5,320.5 L1120.5,320.5 L1120.5,400.5 L1040.5,400.5 z" fill-opacity="0" stroke="#737370" stroke-width="2"/>
    </g>
    <g>
      <path d="M720.5,400.5 L800.5,400.5 L800.5,480.5 L720.5,480.5 z" fill="#8FC7ED"/>
      <path d="M720.5,400.5 L800.5,400.5 L800.5,480.5 L720.5,480.5 z" fill-opacity="0" stroke="#737370" stroke-width="2"/>
    </g>
    <g>
      <path d="M800.5,400.5 L880.5,400.5 L880.5,480.5 L800.5,480.5 z" fill="#FABA00"/>
      <path d="M800.5,400.5 L880.5,400.5 L880.5,480.5 L800.5,480.5 z" fill-opacity="0" stroke="#737370" stroke-width="2"/>
    </g>
    <g>
      <path d="M880.5,400.5 L960.5,400.5 L960.5,480.5 L880.5,480.5 z" fill="#8FC7ED"/>
      <path d="M880.5,400.5 L960.5,400.5 L960.5,480.5 L880.5,480.5 z" fill-opacity="0" stroke="#737370" stroke-width="2"/>
    </g>
    <g>
      <path d="M960.5,400.5 L1040.5,400.5 L1040.5,480.5 L960.5,480.5 z" fill="#FABA00"/>
      <path d="M960.5,400.5 L1040.5,400.5 L1040.5,480.5 L960.5,480.5 z" fill-opacity="0" stroke="#737370" stroke-width="2"/>
    </g>
    <g>
      <path d="M1040.5,400.5 L1120.5,400.5 L1120.5,480.5 L1040.5,480.5 z" fill="#8FC7ED"/>
      <path d="M1040.5,400.5 L1120.5,400.5 L1120.5,480.5 L1040.5,480.5 z" fill-opacity="0" stroke="#737370" stroke-width="2" stroke-linejoin="round"/>
    </g>
    <text transform="matrix(1, 0, 0, 1, 922.062, 364.5)">
      <tspan x="-17.062" y="18.5" font-family="Verdana-Bold" font-size="48" fill="#006DA9">0</tspan>
    </text>
    <text transform="matrix(1, 0, 0, 1, 1002.062, 364.5)">
      <tspan x="-17.062" y="18.5" font-family="Verdana-Bold" font-size="48" fill="#FA8F00">4</tspan>
    </text>
    <text transform="matrix(1, 0, 0, 1, 1082.062, 364.5)">
      <tspan x="-17.062" y="18.5" font-family="Verdana-Bold" font-size="48" fill="#006DA9">0</tspan>
    </text>
    <text transform="matrix(1, 0, 0, 1, 1082.062, 434.5)">
      <tspan x="-17.062" y="18.5" font-family="Verdana-Bold" font-size="48" fill="#006DA9">0</tspan>
    </text>
    <text transform="matrix(1, 0, 0, 1, 1002.062, 199.5)">
      <tspan x="-17.062" y="18.5" font-family="Verdana-Bold" font-size="48" fill="#006DA9">0</tspan>
    </text>
    <text transform="matrix(1, 0, 0, 1, 1082.062, 199.5)">
      <tspan x="-17.062" y="18.5" font-family="Verdana-Bold" font-size="48" fill="#006DA9">0</tspan>
    </text>
    <text transform="matrix(1, 0, 0, 1, 842.062, 119.5)">
      <tspan x="-17.062" y="18.5" font-family="Verdana-Bold" font-size="48" fill="#006DA9">0</tspan>
    </text>
    <text transform="matrix(1, 0, 0, 1, 762.062, 199.5)">
      <tspan x="-17.062" y="18.5" font-family="Verdana-Bold" font-size="48" fill="#006DA9">0</tspan>
    </text>
    <text transform="matrix(1, 0, 0, 1, 762.062, 439.5)">
      <tspan x="-17.062" y="18.5" font-family="Verdana-Bold" font-size="48" fill="#006DA9">0</tspan>
    </text>
    <text transform="matrix(1, 0, 0, 1, 842.062, 364.5)">
      <tspan x="-17.062" y="18.5" font-family="Verdana-Bold" font-size="48" fill="#006DA9">0</tspan>
    </text>
    <text transform="matrix(1, 0, 0, 1, 922.062, 439.5)">
      <tspan x="-17.062" y="18.5" font-family="Verdana-Bold" font-size="48" fill="#006DA9">0</tspan>
    </text>
    <text transform="matrix(1, 0, 0, 1, 922.062, 284.5)">
      <tspan x="-17.062" y="18.5" font-family="Verdana-Bold" font-size="48" fill="#006DA9">0</tspan>
    </text>
    <text transform="matrix(1, 0, 0, 1, 762.062, 279.5)">
      <tspan x="-17.062" y="18.5" font-family="Verdana-Bold" font-size="48" fill="#006DA9">0</tspan>
    </text>
    <text transform="matrix(1, 0, 0, 1, 842.062, 284.5)">
      <tspan x="-17.062" y="18.5" font-family="Verdana-Bold" font-size="48" fill="#006DA9">0</tspan>
    </text>
    <text transform="matrix(1, 0, 0, 1, 922.062, 119.5)">
      <tspan x="-17.062" y="18.5" font-family="Verdana-Bold" font-size="48" fill="#FA8F00">5</tspan>
    </text>
    <text transform="matrix(1, 0, 0, 1, 1002.062, 119.5)">
      <tspan x="-17.062" y="18.5" font-family="Verdana-Bold" font-size="48" fill="#FA8F00">4</tspan>
    </text>
    <text transform="matrix(1, 0, 0, 1, 922.062, 199.5)">
      <tspan x="-17.062" y="18.5" font-family="Verdana-Bold" font-size="48" fill="#FA8F00">6</tspan>
    </text>
    <text transform="matrix(1, 0, 0, 1, 842.062, 199.5)">
      <tspan x="-17.062" y="18.5" font-family="Verdana-Bold" font-size="48" fill="#006DA9">0</tspan>
    </text>
    <text transform="matrix(1, 0, 0, 1, 1002.062, 279.5)">
      <tspan x="-17.062" y="18.5" font-family="Verdana-Bold" font-size="48" fill="#FA8F00">7</tspan>
    </text>
    <text transform="matrix(1, 0, 0, 1, 1082.062, 279.5)">
      <tspan x="-17.062" y="18.5" font-family="Verdana-Bold" font-size="48" fill="#FA8F00">2</tspan>
    </text>
    <text transform="matrix(1, 0, 0, 1, 762.062, 364.5)">
      <tspan x="-17.062" y="18.5" font-family="Verdana-Bold" font-size="48" fill="#FA8F00">8</tspan>
    </text>
    <text transform="matrix(1, 0, 0, 1, 842.062, 434.5)">
      <tspan x="-17.062" y="18.5" font-family="Verdana-Bold" font-size="48" fill="#FA8F00">9</tspan>
    </text>
    <text transform="matrix(1, 0, 0, 1, 1002.062, 434.5)">
      <tspan x="-17.062" y="18.5" font-family="Verdana-Bold" font-size="48" fill="#FA8F00">1</tspan>
    </text>
    <g>
      <path d="M720.5,80.5 L800.5,80.5 L800.5,160.5 L720.5,160.5 z" fill="#8FC7ED"/>
      <path d="M720.5,80.5 L800.5,80.5 L800.5,160.5 L720.5,160.5 z" fill-opacity="0" stroke="#294270" stroke-width="6" stroke-linejoin="round"/>
    </g>
    <text transform="matrix(1, 0, 0, 1, 762.062, 119.5)">
      <tspan x="-17.062" y="18.5" font-family="Verdana-Bold" font-size="48" fill="#006DA9">0</tspan>
    </text>
    <text transform="matrix(1, 0, 0, 1, 1082.062, 119.5)">
      <tspan x="-17.062" y="18.5" font-family="Verdana-Bold" font-size="48" fill="#006DA9">0</tspan>
    </text>
  </g>
  <defs/>
</svg>
