<?xml version="1.0" encoding="UTF-8"?>
<!DOCTYPE svg PUBLIC "-//W3C//DTD SVG 1.1//EN" "http://www.w3.org/Graphics/SVG/1.1/DTD/svg11.dtd">
<svg version="1.1" xmlns="http://www.w3.org/2000/svg" xmlns:xlink="http://www.w3.org/1999/xlink" x="0px" y="0px" width="1200" height="1500" viewBox="0, 0, 1200, 1500">
  <g id="Background">
    <rect x="0" y="0" width="1200" height="1500" fill="#000000" fill-opacity="0"/>
  </g>
  <g id="Layer 1">
    <path d="M100.5,100.5 L500.5,100.5" fill-opacity="0" stroke="#6BA3CF" stroke-width="8"/>
    <path d="M300.5,170.5 L500.5,100.5" fill-opacity="0" stroke="#6BA3CF" stroke-width="8"/>
    <path d="M300.5,170.5 L170.5,300.5" fill-opacity="0" stroke="#6BA3CF" stroke-width="8"/>
    <path d="M170.5,300.5 L430.5,300.5" fill-opacity="0" stroke="#6BA3CF" stroke-width="8"/>
    <path d="M430.5,300.5 L300.5,430.5" fill-opacity="0" stroke="#6BA3CF" stroke-width="8"/>
    <path d="M300.5,430.5 L100.5,500.5" fill-opacity="0" stroke="#6BA3CF" stroke-width="8"/>
    <path d="M100.5,500.5 L500.5,500.5" fill-opacity="0" stroke="#6BA3CF" stroke-width="8"/>
    <path d="M500.5,500.5 L100.5,100.5" fill-opacity="0" stroke="#6BA3CF" stroke-width="8"/>
    <g>
      <g>
        <g>
          <path d="M100.5,130.5 C83.931,130.5 70.5,117.069 70.5,100.5 C70.5,83.931 83.931,70.5 100.5,70.5 C117.069,70.5 130.5,83.931 130.5,100.5 C130.5,117.069 117.069,130.5 100.5,130.5 z" fill="#FFFF00"/>
          <path d="M100.5,130.5 C83.931,130.5 70.5,117.069 70.5,100.5 C70.5,83.931 83.931,70.5 100.5,70.5 C117.069,70.5 130.5,83.931 130.5,100.5 C130.5,117.069 117.069,130.5 100.5,130.5 z" fill-opacity="0" stroke="#294270" stroke-width="8"/>
        </g>
        <text fill="#294270" transform="matrix(1, 0, -0, 1, 100, 100)">
          <tspan x="-10.664" y="11.931" font-family="Verdana-Bold" font-size="30">1</tspan>
        </text>
      </g>
      <g>
        <g>
          <path d="M500.5,130.5 C483.931,130.5 470.5,117.069 470.5,100.5 C470.5,83.931 483.931,70.5 500.5,70.5 C517.069,70.5 530.5,83.931 530.5,100.5 C530.5,117.069 517.069,130.5 500.5,130.5 z" fill="#FFFF00"/>
          <path d="M500.5,130.5 C483.931,130.5 470.5,117.069 470.5,100.5 C470.5,83.931 483.931,70.5 500.5,70.5 C517.069,70.5 530.5,83.931 530.5,100.5 C530.5,117.069 517.069,130.5 500.5,130.5 z" fill-opacity="0" stroke="#294270" stroke-width="8"/>
        </g>
        <text fill="#294270" transform="matrix(1, 0, -0, 1, 500, 100)">
          <tspan x="-10.664" y="11.931" font-family="Verdana-Bold" font-size="30">2</tspan>
        </text>
      </g>
      <g>
        <g>
          <path d="M300.5,200.5 C283.931,200.5 270.5,187.069 270.5,170.5 C270.5,153.931 283.931,140.5 300.5,140.5 C317.069,140.5 330.5,153.931 330.5,170.5 C330.5,187.069 317.069,200.5 300.5,200.5 z" fill="#FFFF00"/>
          <path d="M300.5,200.5 C283.931,200.5 270.5,187.069 270.5,170.5 C270.5,153.931 283.931,140.5 300.5,140.5 C317.069,140.5 330.5,153.931 330.5,170.5 C330.5,187.069 317.069,200.5 300.5,200.5 z" fill-opacity="0" stroke="#294270" stroke-width="8"/>
        </g>
        <text fill="#294270" transform="matrix(1, 0, -0, 1, 300, 170)">
          <tspan x="-10.664" y="11.931" font-family="Verdana-Bold" font-size="30">3</tspan>
        </text>
      </g>
      <g>
        <g>
          <path d="M170.5,330.5 C153.931,330.5 140.5,317.069 140.5,300.5 C140.5,283.931 153.931,270.5 170.5,270.5 C187.069,270.5 200.5,283.931 200.5,300.5 C200.5,317.069 187.069,330.5 170.5,330.5 z" fill="#FFFF00"/>
          <path d="M170.5,330.5 C153.931,330.5 140.5,317.069 140.5,300.5 C140.5,283.931 153.931,270.5 170.5,270.5 C187.069,270.5 200.5,283.931 200.5,300.5 C200.5,317.069 187.069,330.5 170.5,330.5 z" fill-opacity="0" stroke="#294270" stroke-width="8"/>
        </g>
        <text fill="#294270" transform="matrix(1, 0, -0, 1, 170, 300)">
          <tspan x="-10.664" y="11.931" font-family="Verdana-Bold" font-size="30">4</tspan>
        </text>
      </g>
      <g>
        <g>
          <path d="M100.5,530.5 C83.931,530.5 70.5,517.069 70.5,500.5 C70.5,483.931 83.931,470.5 100.5,470.5 C117.069,470.5 130.5,483.931 130.5,500.5 C130.5,517.069 117.069,530.5 100.5,530.5 z" fill="#FFFF00"/>
          <path d="M100.5,530.5 C83.931,530.5 70.5,517.069 70.5,500.5 C70.5,483.931 83.931,470.5 100.5,470.5 C117.069,470.5 130.5,483.931 130.5,500.5 C130.5,517.069 117.069,530.5 100.5,530.5 z" fill-opacity="0" stroke="#294270" stroke-width="8"/>
        </g>
        <text fill="#294270" transform="matrix(1, 0, -0, 1, 100, 500)">
          <tspan x="-10.664" y="11.931" font-family="Verdana-Bold" font-size="30">7</tspan>
        </text>
      </g>
      <g>
        <g>
          <path d="M300.5,460.5 C283.931,460.5 270.5,447.069 270.5,430.5 C270.5,413.931 283.931,400.5 300.5,400.5 C317.069,400.5 330.5,413.931 330.5,430.5 C330.5,447.069 317.069,460.5 300.5,460.5 z" fill="#FFFF00"/>
          <path d="M300.5,460.5 C283.931,460.5 270.5,447.069 270.5,430.5 C270.5,413.931 283.931,400.5 300.5,400.5 C317.069,400.5 330.5,413.931 330.5,430.5 C330.5,447.069 317.069,460.5 300.5,460.5 z" fill-opacity="0" stroke="#294270" stroke-width="8"/>
        </g>
        <text fill="#294270" transform="matrix(1, 0, -0, 1, 300, 430)">
          <tspan x="-10.664" y="11.931" font-family="Verdana-Bold" font-size="30">6</tspan>
        </text>
      </g>
      <g>
        <g>
          <path d="M500.5,530.5 C483.931,530.5 470.5,517.069 470.5,500.5 C470.5,483.931 483.931,470.5 500.5,470.5 C517.069,470.5 530.5,483.931 530.5,500.5 C530.5,517.069 517.069,530.5 500.5,530.5 z" fill="#FFFF00"/>
          <path d="M500.5,530.5 C483.931,530.5 470.5,517.069 470.5,500.5 C470.5,483.931 483.931,470.5 500.5,470.5 C517.069,470.5 530.5,483.931 530.5,500.5 C530.5,517.069 517.069,530.5 500.5,530.5 z" fill-opacity="0" stroke="#294270" stroke-width="8"/>
        </g>
        <text fill="#294270" transform="matrix(1, 0, -0, 1, 500, 500)">
          <tspan x="-10.664" y="11.931" font-family="Verdana-Bold" font-size="30">8</tspan>
        </text>
      </g>
      <g>
        <g>
          <path d="M430.5,330.5 C413.931,330.5 400.5,317.069 400.5,300.5 C400.5,283.931 413.931,270.5 430.5,270.5 C447.069,270.5 460.5,283.931 460.5,300.5 C460.5,317.069 447.069,330.5 430.5,330.5 z" fill="#FFFF00"/>
          <path d="M430.5,330.5 C413.931,330.5 400.5,317.069 400.5,300.5 C400.5,283.931 413.931,270.5 430.5,270.5 C447.069,270.5 460.5,283.931 460.5,300.5 C460.5,317.069 447.069,330.5 430.5,330.5 z" fill-opacity="0" stroke="#294270" stroke-width="8"/>
        </g>
        <text fill="#294270" transform="matrix(1, 0, -0, 1, 430, 300)">
          <tspan x="-10.664" y="11.931" font-family="Verdana-Bold" font-size="30">5</tspan>
        </text>
      </g>
    </g>
    <path d="M700.5,100.5 L1100.5,100.5" fill-opacity="0" stroke="#6BA3CF" stroke-width="8"/>
    <path d="M1100.5,100.5 L1100.5,500.5" fill-opacity="0" stroke="#6BA3CF" stroke-width="8"/>
    <path d="M1100.5,500.5 L700.5,500.5" fill-opacity="0" stroke="#6BA3CF" stroke-width="8"/>
    <path d="M700.5,500.5 L700.5,100.5" fill-opacity="0" stroke="#6BA3CF" stroke-width="8"/>
    <path d="M700.5,100.5 L900.5,170.5" fill-opacity="0" stroke="#6BA3CF" stroke-width="8"/>
    <path d="M900.5,170.5 L1030.5,300.5" fill-opacity="0" stroke="#6BA3CF" stroke-width="8"/>
    <path d="M1030.5,300.5 L900.5,430.5" fill-opacity="0" stroke="#6BA3CF" stroke-width="8"/>
    <path d="M900.5,430.5 L770.5,300.5" fill-opacity="0" stroke="#6BA3CF" stroke-width="8"/>
    <path d="M770.5,300.5 L700.5,100.5" fill-opacity="0" stroke="#6BA3CF" stroke-width="8"/>
    <path d="M770.5,300.5 L900.5,170.5" fill-opacity="0" stroke="#6BA3CF" stroke-width="8"/>
    <path d="M900.5,170.5 L900.5,430.5" fill-opacity="0" stroke="#6BA3CF" stroke-width="8"/>
    <path d="M770.5,300.5 L1030.5,300.5" fill-opacity="0" stroke="#6BA3CF" stroke-width="8"/>
    <g>
      <g>
        <g>
          <path d="M700.5,130.5 C683.931,130.5 670.5,117.069 670.5,100.5 C670.5,83.931 683.931,70.5 700.5,70.5 C717.069,70.5 730.5,83.931 730.5,100.5 C730.5,117.069 717.069,130.5 700.5,130.5 z" fill="#FFFF00"/>
          <path d="M700.5,130.5 C683.931,130.5 670.5,117.069 670.5,100.5 C670.5,83.931 683.931,70.5 700.5,70.5 C717.069,70.5 730.5,83.931 730.5,100.5 C730.5,117.069 717.069,130.5 700.5,130.5 z" fill-opacity="0" stroke="#294270" stroke-width="8"/>
        </g>
        <text fill="#294270" transform="matrix(1, 0, -0, 1, 700, 100)">
          <tspan x="-10.664" y="11.931" font-family="Verdana-Bold" font-size="30">1</tspan>
        </text>
      </g>
      <g>
        <g>
          <path d="M1100.5,130.5 C1083.931,130.5 1070.5,117.069 1070.5,100.5 C1070.5,83.931 1083.931,70.5 1100.5,70.5 C1117.069,70.5 1130.5,83.931 1130.5,100.5 C1130.5,117.069 1117.069,130.5 1100.5,130.5 z" fill="#FFFF00"/>
          <path d="M1100.5,130.5 C1083.931,130.5 1070.5,117.069 1070.5,100.5 C1070.5,83.931 1083.931,70.5 1100.5,70.5 C1117.069,70.5 1130.5,83.931 1130.5,100.5 C1130.5,117.069 1117.069,130.5 1100.5,130.5 z" fill-opacity="0" stroke="#294270" stroke-width="8"/>
        </g>
        <text fill="#294270" transform="matrix(1, 0, -0, 1, 1100, 100)">
          <tspan x="-10.664" y="11.931" font-family="Verdana-Bold" font-size="30">2</tspan>
        </text>
      </g>
      <g>
        <g>
          <path d="M900.5,200.5 C883.931,200.5 870.5,187.069 870.5,170.5 C870.5,153.931 883.931,140.5 900.5,140.5 C917.069,140.5 930.5,153.931 930.5,170.5 C930.5,187.069 917.069,200.5 900.5,200.5 z" fill="#FFFF00"/>
          <path d="M900.5,200.5 C883.931,200.5 870.5,187.069 870.5,170.5 C870.5,153.931 883.931,140.5 900.5,140.5 C917.069,140.5 930.5,153.931 930.5,170.5 C930.5,187.069 917.069,200.5 900.5,200.5 z" fill-opacity="0" stroke="#294270" stroke-width="8"/>
        </g>
        <text fill="#294270" transform="matrix(1, 0, -0, 1, 900, 170)">
          <tspan x="-10.664" y="11.931" font-family="Verdana-Bold" font-size="30">3</tspan>
        </text>
      </g>
      <g>
        <g>
          <path d="M770.5,330.5 C753.931,330.5 740.5,317.069 740.5,300.5 C740.5,283.931 753.931,270.5 770.5,270.5 C787.069,270.5 800.5,283.931 800.5,300.5 C800.5,317.069 787.069,330.5 770.5,330.5 z" fill="#FFFF00"/>
          <path d="M770.5,330.5 C753.931,330.5 740.5,317.069 740.5,300.5 C740.5,283.931 753.931,270.5 770.5,270.5 C787.069,270.5 800.5,283.931 800.5,300.5 C800.5,317.069 787.069,330.5 770.5,330.5 z" fill-opacity="0" stroke="#294270" stroke-width="8"/>
        </g>
        <text fill="#294270" transform="matrix(1, 0, -0, 1, 770, 300)">
          <tspan x="-10.664" y="11.931" font-family="Verdana-Bold" font-size="30">4</tspan>
        </text>
      </g>
      <g>
        <g>
          <path d="M700.5,530.5 C683.931,530.5 670.5,517.069 670.5,500.5 C670.5,483.931 683.931,470.5 700.5,470.5 C717.069,470.5 730.5,483.931 730.5,500.5 C730.5,517.069 717.069,530.5 700.5,530.5 z" fill="#FFFF00"/>
          <path d="M700.5,530.5 C683.931,530.5 670.5,517.069 670.5,500.5 C670.5,483.931 683.931,470.5 700.5,470.5 C717.069,470.5 730.5,483.931 730.5,500.5 C730.5,517.069 717.069,530.5 700.5,530.5 z" fill-opacity="0" stroke="#294270" stroke-width="8"/>
        </g>
        <text fill="#294270" transform="matrix(1, 0, -0, 1, 700, 500)">
          <tspan x="-10.664" y="11.931" font-family="Verdana-Bold" font-size="30">7</tspan>
        </text>
      </g>
      <g>
        <g>
          <path d="M900.5,460.5 C883.931,460.5 870.5,447.069 870.5,430.5 C870.5,413.931 883.931,400.5 900.5,400.5 C917.069,400.5 930.5,413.931 930.5,430.5 C930.5,447.069 917.069,460.5 900.5,460.5 z" fill="#FFFF00"/>
          <path d="M900.5,460.5 C883.931,460.5 870.5,447.069 870.5,430.5 C870.5,413.931 883.931,400.5 900.5,400.5 C917.069,400.5 930.5,413.931 930.5,430.5 C930.5,447.069 917.069,460.5 900.5,460.5 z" fill-opacity="0" stroke="#294270" stroke-width="8"/>
        </g>
        <text fill="#294270" transform="matrix(1, 0, -0, 1, 900, 430)">
          <tspan x="-10.664" y="11.931" font-family="Verdana-Bold" font-size="30">6</tspan>
        </text>
      </g>
      <g>
        <g>
          <path d="M1100.5,530.5 C1083.931,530.5 1070.5,517.069 1070.5,500.5 C1070.5,483.931 1083.931,470.5 1100.5,470.5 C1117.069,470.5 1130.5,483.931 1130.5,500.5 C1130.5,517.069 1117.069,530.5 1100.5,530.5 z" fill="#FFFF00"/>
          <path d="M1100.5,530.5 C1083.931,530.5 1070.5,517.069 1070.5,500.5 C1070.5,483.931 1083.931,470.5 1100.5,470.5 C1117.069,470.5 1130.5,483.931 1130.5,500.5 C1130.5,517.069 1117.069,530.5 1100.5,530.5 z" fill-opacity="0" stroke="#294270" stroke-width="8"/>
        </g>
        <text fill="#294270" transform="matrix(1, 0, -0, 1, 1100, 500)">
          <tspan x="-10.664" y="11.931" font-family="Verdana-Bold" font-size="30">8</tspan>
        </text>
      </g>
      <g>
        <g>
          <path d="M1030.5,330.5 C1013.931,330.5 1000.5,317.069 1000.5,300.5 C1000.5,283.931 1013.931,270.5 1030.5,270.5 C1047.069,270.5 1060.5,283.931 1060.5,300.5 C1060.5,317.069 1047.069,330.5 1030.5,330.5 z" fill="#FFFF00"/>
          <path d="M1030.5,330.5 C1013.931,330.5 1000.5,317.069 1000.5,300.5 C1000.5,283.931 1013.931,270.5 1030.5,270.5 C1047.069,270.5 1060.5,283.931 1060.5,300.5 C1060.5,317.069 1047.069,330.5 1030.5,330.5 z" fill-opacity="0" stroke="#294270" stroke-width="8"/>
        </g>
        <text fill="#294270" transform="matrix(1, 0, -0, 1, 1030, 300)">
          <tspan x="-10.664" y="11.931" font-family="Verdana-Bold" font-size="30">5</tspan>
        </text>
      </g>
    </g>
    <path d="M100.5,800.5 L300.5,1130.5" fill-opacity="0" stroke="#6BA3CF" stroke-width="8"/>
    <path d="M100.5,800.5 L430.5,1000.5" fill-opacity="0" stroke="#6BA3CF" stroke-width="8"/>
    <path d="M430.5,1000.5 L300.5,1130.5" fill-opacity="0" stroke="#6BA3CF" stroke-width="8"/>
    <path d="M100.5,800.5 L500.5,800.5" fill-opacity="0" stroke="#6BA3CF" stroke-width="8"/>
    <path d="M500.5,800.5 L300.5,870.5" fill-opacity="0" stroke="#6BA3CF" stroke-width="8"/>
    <path d="M300.5,870.5 L500.5,1200.5" fill-opacity="0" stroke="#6BA3CF" stroke-width="8"/>
    <path d="M500.5,1200.5 L500.5,800.5" fill-opacity="0" stroke="#6BA3CF" stroke-width="8"/>
    <path d="M500.5,800.5 L170.5,1000.5" fill-opacity="0" stroke="#6BA3CF" stroke-width="8"/>
    <path d="M170.5,1000.5 L100.5,1200.5" fill-opacity="0" stroke="#6BA3CF" stroke-width="8"/>
    <path d="M100.5,1200.5 L100.5,800.5" fill-opacity="0" stroke="#6BA3CF" stroke-width="8"/>
    <path d="M100.5,1200.5 L500.5,1200.5" fill-opacity="0" stroke="#6BA3CF" stroke-width="8"/>
    <path d="M300.5,1130.5 L500.5,1200.5" fill-opacity="0" stroke="#6BA3CF" stroke-width="8"/>
    <path d="M430.5,1000.5 L500.5,1200.5" fill-opacity="0" stroke="#6BA3CF" stroke-width="8"/>
    <g>
      <g>
        <g>
          <path d="M100.5,830.5 C83.931,830.5 70.5,817.069 70.5,800.5 C70.5,783.931 83.931,770.5 100.5,770.5 C117.069,770.5 130.5,783.931 130.5,800.5 C130.5,817.069 117.069,830.5 100.5,830.5 z" fill="#FFFF00"/>
          <path d="M100.5,830.5 C83.931,830.5 70.5,817.069 70.5,800.5 C70.5,783.931 83.931,770.5 100.5,770.5 C117.069,770.5 130.5,783.931 130.5,800.5 C130.5,817.069 117.069,830.5 100.5,830.5 z" fill-opacity="0" stroke="#294270" stroke-width="8"/>
        </g>
        <text fill="#294270" transform="matrix(1, 0, -0, 1, 100, 800)">
          <tspan x="-10.664" y="11.931" font-family="Verdana-Bold" font-size="30">1</tspan>
        </text>
      </g>
      <g>
        <g>
          <path d="M500.5,830.5 C483.931,830.5 470.5,817.069 470.5,800.5 C470.5,783.931 483.931,770.5 500.5,770.5 C517.069,770.5 530.5,783.931 530.5,800.5 C530.5,817.069 517.069,830.5 500.5,830.5 z" fill="#FFFF00"/>
          <path d="M500.5,830.5 C483.931,830.5 470.5,817.069 470.5,800.5 C470.5,783.931 483.931,770.5 500.5,770.5 C517.069,770.5 530.5,783.931 530.5,800.5 C530.5,817.069 517.069,830.5 500.5,830.5 z" fill-opacity="0" stroke="#294270" stroke-width="8"/>
        </g>
        <text fill="#294270" transform="matrix(1, 0, -0, 1, 500, 800)">
          <tspan x="-10.664" y="11.931" font-family="Verdana-Bold" font-size="30">2</tspan>
        </text>
      </g>
      <g>
        <g>
          <path d="M300.5,900.5 C283.931,900.5 270.5,887.069 270.5,870.5 C270.5,853.931 283.931,840.5 300.5,840.5 C317.069,840.5 330.5,853.931 330.5,870.5 C330.5,887.069 317.069,900.5 300.5,900.5 z" fill="#FFFF00"/>
          <path d="M300.5,900.5 C283.931,900.5 270.5,887.069 270.5,870.5 C270.5,853.931 283.931,840.5 300.5,840.5 C317.069,840.5 330.5,853.931 330.5,870.5 C330.5,887.069 317.069,900.5 300.5,900.5 z" fill-opacity="0" stroke="#294270" stroke-width="8"/>
        </g>
        <text fill="#294270" transform="matrix(1, 0, -0, 1, 300, 870)">
          <tspan x="-10.664" y="11.931" font-family="Verdana-Bold" font-size="30">3</tspan>
        </text>
      </g>
      <g>
        <g>
          <path d="M170.5,1030.5 C153.931,1030.5 140.5,1017.069 140.5,1000.5 C140.5,983.931 153.931,970.5 170.5,970.5 C187.069,970.5 200.5,983.931 200.5,1000.5 C200.5,1017.069 187.069,1030.5 170.5,1030.5 z" fill="#FFFF00"/>
          <path d="M170.5,1030.5 C153.931,1030.5 140.5,1017.069 140.5,1000.5 C140.5,983.931 153.931,970.5 170.5,970.5 C187.069,970.5 200.5,983.931 200.5,1000.5 C200.5,1017.069 187.069,1030.5 170.5,1030.5 z" fill-opacity="0" stroke="#294270" stroke-width="8"/>
        </g>
        <text fill="#294270" transform="matrix(1, 0, -0, 1, 170, 1000)">
          <tspan x="-10.664" y="11.931" font-family="Verdana-Bold" font-size="30">4</tspan>
        </text>
      </g>
      <g>
        <g>
          <path d="M100.5,1230.5 C83.931,1230.5 70.5,1217.069 70.5,1200.5 C70.5,1183.931 83.931,1170.5 100.5,1170.5 C117.069,1170.5 130.5,1183.931 130.5,1200.5 C130.5,1217.069 117.069,1230.5 100.5,1230.5 z" fill="#FFFF00"/>
          <path d="M100.5,1230.5 C83.931,1230.5 70.5,1217.069 70.5,1200.5 C70.5,1183.931 83.931,1170.5 100.5,1170.5 C117.069,1170.5 130.5,1183.931 130.5,1200.5 C130.5,1217.069 117.069,1230.5 100.5,1230.5 z" fill-opacity="0" stroke="#294270" stroke-width="8"/>
        </g>
        <text fill="#294270" transform="matrix(1, 0, -0, 1, 100, 1200)">
          <tspan x="-10.664" y="11.931" font-family="Verdana-Bold" font-size="30">7</tspan>
        </text>
      </g>
      <g>
        <g>
          <path d="M300.5,1160.5 C283.931,1160.5 270.5,1147.069 270.5,1130.5 C270.5,1113.931 283.931,1100.5 300.5,1100.5 C317.069,1100.5 330.5,1113.931 330.5,1130.5 C330.5,1147.069 317.069,1160.5 300.5,1160.5 z" fill="#FFFF00"/>
          <path d="M300.5,1160.5 C283.931,1160.5 270.5,1147.069 270.5,1130.5 C270.5,1113.931 283.931,1100.5 300.5,1100.5 C317.069,1100.5 330.5,1113.931 330.5,1130.5 C330.5,1147.069 317.069,1160.5 300.5,1160.5 z" fill-opacity="0" stroke="#294270" stroke-width="8"/>
        </g>
        <text fill="#294270" transform="matrix(1, 0, -0, 1, 300, 1130)">
          <tspan x="-10.664" y="11.931" font-family="Verdana-Bold" font-size="30">6</tspan>
        </text>
      </g>
      <g>
        <g>
          <path d="M500.5,1230.5 C483.931,1230.5 470.5,1217.069 470.5,1200.5 C470.5,1183.931 483.931,1170.5 500.5,1170.5 C517.069,1170.5 530.5,1183.931 530.5,1200.5 C530.5,1217.069 517.069,1230.5 500.5,1230.5 z" fill="#FFFF00"/>
          <path d="M500.5,1230.5 C483.931,1230.5 470.5,1217.069 470.5,1200.5 C470.5,1183.931 483.931,1170.5 500.5,1170.5 C517.069,1170.5 530.5,1183.931 530.5,1200.5 C530.5,1217.069 517.069,1230.5 500.5,1230.5 z" fill-opacity="0" stroke="#294270" stroke-width="8"/>
        </g>
        <text fill="#294270" transform="matrix(1, 0, -0, 1, 500, 1200)">
          <tspan x="-10.664" y="11.931" font-family="Verdana-Bold" font-size="30">8</tspan>
        </text>
      </g>
      <g>
        <g>
          <path d="M430.5,1030.5 C413.931,1030.5 400.5,1017.069 400.5,1000.5 C400.5,983.931 413.931,970.5 430.5,970.5 C447.069,970.5 460.5,983.931 460.5,1000.5 C460.5,1017.069 447.069,1030.5 430.5,1030.5 z" fill="#FFFF00"/>
          <path d="M430.5,1030.5 C413.931,1030.5 400.5,1017.069 400.5,1000.5 C400.5,983.931 413.931,970.5 430.5,970.5 C447.069,970.5 460.5,983.931 460.5,1000.5 C460.5,1017.069 447.069,1030.5 430.5,1030.5 z" fill-opacity="0" stroke="#294270" stroke-width="8"/>
        </g>
        <text fill="#294270" transform="matrix(1, 0, -0, 1, 430, 1000)">
          <tspan x="-10.664" y="11.931" font-family="Verdana-Bold" font-size="30">5</tspan>
        </text>
      </g>
    </g>
    <path d="M700.5,800.5 L900.5,870.5" fill-opacity="0" stroke="#6BA3CF" stroke-width="8"/>
    <path d="M900.5,870.5 L1100.5,800.5" fill-opacity="0" stroke="#6BA3CF" stroke-width="8"/>
    <path d="M1100.5,800.5 L1030.5,1000.5" fill-opacity="0" stroke="#6BA3CF" stroke-width="8"/>
    <path d="M1030.5,1000.5 L1100.5,1200.5" fill-opacity="0" stroke="#6BA3CF" stroke-width="8"/>
    <path d="M1100.5,1200.5 L900.5,1130.5" fill-opacity="0" stroke="#6BA3CF" stroke-width="8"/>
    <path d="M900.5,1130.5 L700.5,1200.5" fill-opacity="0" stroke="#6BA3CF" stroke-width="8"/>
    <path d="M700.5,1200.5 L770.5,1000.5" fill-opacity="0" stroke="#6BA3CF" stroke-width="8"/>
    <path d="M770.5,1000.5 L700.5,800.5" fill-opacity="0" stroke="#6BA3CF" stroke-width="8"/>
    <path d="M770.5,1000.5 L900.5,870.5" fill-opacity="0" stroke="#6BA3CF" stroke-width="8"/>
    <path d="M900.5,870.5 L1030.5,1000.5" fill-opacity="0" stroke="#6BA3CF" stroke-width="8"/>
    <path d="M1030.5,1000.5 L900.5,1130.5" fill-opacity="0" stroke="#6BA3CF" stroke-width="8"/>
    <g>
      <g>
        <g>
          <path d="M700.5,830.5 C683.931,830.5 670.5,817.069 670.5,800.5 C670.5,783.931 683.931,770.5 700.5,770.5 C717.069,770.5 730.5,783.931 730.5,800.5 C730.5,817.069 717.069,830.5 700.5,830.5 z" fill="#FFFF00"/>
          <path d="M700.5,830.5 C683.931,830.5 670.5,817.069 670.5,800.5 C670.5,783.931 683.931,770.5 700.5,770.5 C717.069,770.5 730.5,783.931 730.5,800.5 C730.5,817.069 717.069,830.5 700.5,830.5 z" fill-opacity="0" stroke="#294270" stroke-width="8"/>
        </g>
        <text fill="#294270" transform="matrix(1, 0, -0, 1, 700, 800)">
          <tspan x="-10.664" y="11.931" font-family="Verdana-Bold" font-size="30">1</tspan>
        </text>
      </g>
      <g>
        <g>
          <path d="M1100.5,830.5 C1083.931,830.5 1070.5,817.069 1070.5,800.5 C1070.5,783.931 1083.931,770.5 1100.5,770.5 C1117.069,770.5 1130.5,783.931 1130.5,800.5 C1130.5,817.069 1117.069,830.5 1100.5,830.5 z" fill="#FFFF00"/>
          <path d="M1100.5,830.5 C1083.931,830.5 1070.5,817.069 1070.5,800.5 C1070.5,783.931 1083.931,770.5 1100.5,770.5 C1117.069,770.5 1130.5,783.931 1130.5,800.5 C1130.5,817.069 1117.069,830.5 1100.5,830.5 z" fill-opacity="0" stroke="#294270" stroke-width="8"/>
        </g>
        <text fill="#294270" transform="matrix(1, 0, -0, 1, 1100, 800)">
          <tspan x="-10.664" y="11.931" font-family="Verdana-Bold" font-size="30">2</tspan>
        </text>
      </g>
      <g>
        <g>
          <path d="M900.5,900.5 C883.931,900.5 870.5,887.069 870.5,870.5 C870.5,853.931 883.931,840.5 900.5,840.5 C917.069,840.5 930.5,853.931 930.5,870.5 C930.5,887.069 917.069,900.5 900.5,900.5 z" fill="#FFFF00"/>
          <path d="M900.5,900.5 C883.931,900.5 870.5,887.069 870.5,870.5 C870.5,853.931 883.931,840.5 900.5,840.5 C917.069,840.5 930.5,853.931 930.5,870.5 C930.5,887.069 917.069,900.5 900.5,900.5 z" fill-opacity="0" stroke="#294270" stroke-width="8"/>
        </g>
        <text fill="#294270" transform="matrix(1, 0, -0, 1, 900, 870)">
          <tspan x="-10.664" y="11.931" font-family="Verdana-Bold" font-size="30">3</tspan>
        </text>
      </g>
      <g>
        <g>
          <path d="M770.5,1030.5 C753.931,1030.5 740.5,1017.069 740.5,1000.5 C740.5,983.931 753.931,970.5 770.5,970.5 C787.069,970.5 800.5,983.931 800.5,1000.5 C800.5,1017.069 787.069,1030.5 770.5,1030.5 z" fill="#FFFF00"/>
          <path d="M770.5,1030.5 C753.931,1030.5 740.5,1017.069 740.5,1000.5 C740.5,983.931 753.931,970.5 770.5,970.5 C787.069,970.5 800.5,983.931 800.5,1000.5 C800.5,1017.069 787.069,1030.5 770.5,1030.5 z" fill-opacity="0" stroke="#294270" stroke-width="8"/>
        </g>
        <text fill="#294270" transform="matrix(1, 0, -0, 1, 770, 1000)">
          <tspan x="-10.664" y="11.931" font-family="Verdana-Bold" font-size="30">4</tspan>
        </text>
      </g>
      <g>
        <g>
          <path d="M700.5,1230.5 C683.931,1230.5 670.5,1217.069 670.5,1200.5 C670.5,1183.931 683.931,1170.5 700.5,1170.5 C717.069,1170.5 730.5,1183.931 730.5,1200.5 C730.5,1217.069 717.069,1230.5 700.5,1230.5 z" fill="#FFFF00"/>
          <path d="M700.5,1230.5 C683.931,1230.5 670.5,1217.069 670.5,1200.5 C670.5,1183.931 683.931,1170.5 700.5,1170.5 C717.069,1170.5 730.5,1183.931 730.5,1200.5 C730.5,1217.069 717.069,1230.5 700.5,1230.5 z" fill-opacity="0" stroke="#294270" stroke-width="8"/>
        </g>
        <text fill="#294270" transform="matrix(1, 0, -0, 1, 700, 1200)">
          <tspan x="-10.664" y="11.931" font-family="Verdana-Bold" font-size="30">7</tspan>
        </text>
      </g>
      <g>
        <g>
          <path d="M900.5,1160.5 C883.931,1160.5 870.5,1147.069 870.5,1130.5 C870.5,1113.931 883.931,1100.5 900.5,1100.5 C917.069,1100.5 930.5,1113.931 930.5,1130.5 C930.5,1147.069 917.069,1160.5 900.5,1160.5 z" fill="#FFFF00"/>
          <path d="M900.5,1160.5 C883.931,1160.5 870.5,1147.069 870.5,1130.5 C870.5,1113.931 883.931,1100.5 900.5,1100.5 C917.069,1100.5 930.5,1113.931 930.5,1130.5 C930.5,1147.069 917.069,1160.5 900.5,1160.5 z" fill-opacity="0" stroke="#294270" stroke-width="8"/>
        </g>
        <text fill="#294270" transform="matrix(1, 0, -0, 1, 900, 1130)">
          <tspan x="-10.664" y="11.931" font-family="Verdana-Bold" font-size="30">6</tspan>
        </text>
      </g>
      <g>
        <g>
          <path d="M1100.5,1230.5 C1083.931,1230.5 1070.5,1217.069 1070.5,1200.5 C1070.5,1183.931 1083.931,1170.5 1100.5,1170.5 C1117.069,1170.5 1130.5,1183.931 1130.5,1200.5 C1130.5,1217.069 1117.069,1230.5 1100.5,1230.5 z" fill="#FFFF00"/>
          <path d="M1100.5,1230.5 C1083.931,1230.5 1070.5,1217.069 1070.5,1200.5 C1070.5,1183.931 1083.931,1170.5 1100.5,1170.5 C1117.069,1170.5 1130.5,1183.931 1130.5,1200.5 C1130.5,1217.069 1117.069,1230.5 1100.5,1230.5 z" fill-opacity="0" stroke="#294270" stroke-width="8"/>
        </g>
        <text fill="#294270" transform="matrix(1, 0, -0, 1, 1100, 1200)">
          <tspan x="-10.664" y="11.931" font-family="Verdana-Bold" font-size="30">8</tspan>
        </text>
      </g>
      <g>
        <g>
          <path d="M1030.5,1030.5 C1013.931,1030.5 1000.5,1017.069 1000.5,1000.5 C1000.5,983.931 1013.931,970.5 1030.5,970.5 C1047.069,970.5 1060.5,983.931 1060.5,1000.5 C1060.5,1017.069 1047.069,1030.5 1030.5,1030.5 z" fill="#FFFF00"/>
          <path d="M1030.5,1030.5 C1013.931,1030.5 1000.5,1017.069 1000.5,1000.5 C1000.5,983.931 1013.931,970.5 1030.5,970.5 C1047.069,970.5 1060.5,983.931 1060.5,1000.5 C1060.5,1017.069 1047.069,1030.5 1030.5,1030.5 z" fill-opacity="0" stroke="#294270" stroke-width="8"/>
        </g>
        <text fill="#294270" transform="matrix(1, 0, -0, 1, 1030, 1000)">
          <tspan x="-10.664" y="11.931" font-family="Verdana-Bold" font-size="30">5</tspan>
        </text>
      </g>
    </g>
    <text transform="matrix(1, 0, 0, 1, 307.662, 616)">
      <tspan x="-32.607" y="-52.05" font-family="Verdana-Bold" font-size="24" fill="#294270">Map:</tspan>
      <tspan x="-166.852" y="-14.35" font-family="Verdana-Bold" font-size="24" fill="#294270">12,32,34,45,56,76,78,18</tspan>
      <tspan x="-125.32" y="23.35" font-family="Verdana-Bold" font-size="24" fill="#294270">Route: 123456781</tspan>
      <tspan x="-152.643" y="61.05" font-family="Verdana-Bold" font-size="24" fill="#294270">Alt. Route: 187654321</tspan>
    </text>
    <text transform="matrix(1, 0, 0, 1, 915, 643.5)">
      <tspan x="-32.607" y="-89.55" font-family="Verdana-Bold" font-size="24" fill="#294270">Map:</tspan>
      <tspan x="-128.391" y="-51.85" font-family="Verdana-Bold" font-size="24" fill="#294270">12,28,87,71,13,14,</tspan>
      <tspan x="-124.055" y="-14.15" font-family="Verdana-Bold" font-size="24" fill="#294270">34,35,45,46,63,65</tspan>
      <tspan x="-142.383" y="23.55" font-family="Verdana-Bold" font-size="24" fill="#294270">Route: 12871135641</tspan>
      <tspan x="-161.174" y="61.25" font-family="Verdana-Bold" font-size="24" fill="#294270">Alt. Route: 1365417821</tspan>
    </text>
    <text transform="matrix(1, 0, 0, 1, 315, 1343.5)">
      <tspan x="-32.607" y="-89.55" font-family="Verdana-Bold" font-size="24" fill="#294270">Map:</tspan>
      <tspan x="-149.789" y="-51.85" font-family="Verdana-Bold" font-size="24" fill="#294270">12,15,16,23,24,28,83,</tspan>
      <tspan x="-124.055" y="-14.15" font-family="Verdana-Bold" font-size="24" fill="#294270">85,86,87,71,74,56</tspan>
      <tspan x="-142.383" y="23.55" font-family="Verdana-Bold" font-size="24" fill="#294270">Route: 12382478561</tspan>
      <tspan x="-152.643" y="61.25" font-family="Verdana-Bold" font-size="24" fill="#294270">Alt. Route: 174238561</tspan>
    </text>
    <text transform="matrix(1, 0, 0, 1, 915, 1343.5)">
      <tspan x="-32.607" y="-89.55" font-family="Verdana-Bold" font-size="24" fill="#294270">Map:</tspan>
      <tspan x="-128.391" y="-51.85" font-family="Verdana-Bold" font-size="24" fill="#294270">13,14,23,25,34,35,</tspan>
      <tspan x="-102.656" y="-14.15" font-family="Verdana-Bold" font-size="24" fill="#294270">47,56,58,76,68</tspan>
      <tspan x="-125.32" y="23.55" font-family="Verdana-Bold" font-size="24" fill="#294270">Route: 132586741</tspan>
      <tspan x="-152.643" y="61.25" font-family="Verdana-Bold" font-size="24" fill="#294270">Alt. Route: 147685231</tspan>
    </text>
  </g>
  <defs/>
</svg>
