<?xml version="1.0" encoding="UTF-8"?>
<!DOCTYPE svg PUBLIC "-//W3C//DTD SVG 1.1//EN" "http://www.w3.org/Graphics/SVG/1.1/DTD/svg11.dtd">
<svg version="1.1" xmlns="http://www.w3.org/2000/svg" xmlns:xlink="http://www.w3.org/1999/xlink" x="0px" y="0px" width="1200" height="360" viewBox="0, 0, 1200, 360">
  <g id="Background">
    <rect x="0" y="0" width="1200" height="360" fill="#000000" fill-opacity="0"/>
  </g>
  <g id="Layer 1">
    <path d="M80.5,40.5 L120.5,40.5 L120.5,80.5 L80.5,80.5 z" fill-opacity="0" stroke="#294270" stroke-width="2"/>
    <path d="M120.5,40.5 L160.5,40.5 L160.5,80.5 L120.5,80.5 z" fill-opacity="0" stroke="#294270" stroke-width="2"/>
    <path d="M160.5,40.5 L200.5,40.5 L200.5,80.5 L160.5,80.5 z" fill-opacity="0" stroke="#294270" stroke-width="2"/>
    <path d="M200.5,40.5 L240.5,40.5 L240.5,80.5 L200.5,80.5 z" fill-opacity="0" stroke="#294270" stroke-width="2"/>
    <path d="M80.5,80.5 L120.5,80.5 L120.5,120.5 L80.5,120.5 z" fill-opacity="0" stroke="#294270" stroke-width="2"/>
    <path d="M120.5,80.5 L160.5,80.5 L160.5,120.5 L120.5,120.5 z" fill-opacity="0" stroke="#294270" stroke-width="2"/>
    <path d="M160.5,80.5 L200.5,80.5 L200.5,120.5 L160.5,120.5 z" fill-opacity="0" stroke="#294270" stroke-width="2"/>
    <path d="M200.5,80.5 L240.5,80.5 L240.5,120.5 L200.5,120.5 z" fill-opacity="0" stroke="#294270" stroke-width="2"/>
    <path d="M80.5,120.5 L120.5,120.5 L120.5,160.5 L80.5,160.5 z" fill-opacity="0" stroke="#294270" stroke-width="2"/>
    <path d="M120.5,120.5 L160.5,120.5 L160.5,160.5 L120.5,160.5 z" fill-opacity="0" stroke="#294270" stroke-width="2"/>
    <path d="M160.5,120.5 L200.5,120.5 L200.5,160.5 L160.5,160.5 z" fill-opacity="0" stroke="#294270" stroke-width="2"/>
    <path d="M200.5,120.5 L240.5,120.5 L240.5,160.5 L200.5,160.5 z" fill-opacity="0" stroke="#294270" stroke-width="2"/>
    <path d="M80.5,160.5 L120.5,160.5 L120.5,200.5 L80.5,200.5 z" fill-opacity="0" stroke="#294270" stroke-width="2"/>
    <path d="M120.5,160.5 L160.5,160.5 L160.5,200.5 L120.5,200.5 z" fill-opacity="0" stroke="#294270" stroke-width="2"/>
    <path d="M160.5,160.5 L200.5,160.5 L200.5,200.5 L160.5,200.5 z" fill-opacity="0" stroke="#294270" stroke-width="2"/>
    <path d="M200.5,160.5 L240.5,160.5 L240.5,200.5 L200.5,200.5 z" fill-opacity="0" stroke="#294270" stroke-width="2"/>
    <path d="M320.5,40.5 L360.5,40.5 L360.5,80.5 L320.5,80.5 z" fill-opacity="0" stroke="#294270" stroke-width="2"/>
    <path d="M360.5,40.5 L400.5,40.5 L400.5,80.5 L360.5,80.5 z" fill-opacity="0" stroke="#294270" stroke-width="2"/>
    <path d="M400.5,40.5 L440.5,40.5 L440.5,80.5 L400.5,80.5 z" fill-opacity="0" stroke="#294270" stroke-width="2"/>
    <path d="M440.5,40.5 L480.5,40.5 L480.5,80.5 L440.5,80.5 z" fill-opacity="0" stroke="#294270" stroke-width="2"/>
    <path d="M320.5,80.5 L360.5,80.5 L360.5,120.5 L320.5,120.5 z" fill-opacity="0" stroke="#294270" stroke-width="2"/>
    <path d="M360.5,80.5 L400.5,80.5 L400.5,120.5 L360.5,120.5 z" fill-opacity="0" stroke="#294270" stroke-width="2"/>
    <path d="M400.5,80.5 L440.5,80.5 L440.5,120.5 L400.5,120.5 z" fill-opacity="0" stroke="#294270" stroke-width="2"/>
    <path d="M440.5,80.5 L480.5,80.5 L480.5,120.5 L440.5,120.5 z" fill-opacity="0" stroke="#294270" stroke-width="2"/>
    <path d="M320.5,120.5 L360.5,120.5 L360.5,160.5 L320.5,160.5 z" fill-opacity="0" stroke="#294270" stroke-width="2"/>
    <path d="M360.5,120.5 L400.5,120.5 L400.5,160.5 L360.5,160.5 z" fill-opacity="0" stroke="#294270" stroke-width="2"/>
    <path d="M400.5,120.5 L440.5,120.5 L440.5,160.5 L400.5,160.5 z" fill-opacity="0" stroke="#294270" stroke-width="2"/>
    <path d="M440.5,120.5 L480.5,120.5 L480.5,160.5 L440.5,160.5 z" fill-opacity="0" stroke="#294270" stroke-width="2"/>
    <path d="M320.5,160.5 L360.5,160.5 L360.5,200.5 L320.5,200.5 z" fill-opacity="0" stroke="#294270" stroke-width="2"/>
    <path d="M360.5,160.5 L400.5,160.5 L400.5,200.5 L360.5,200.5 z" fill-opacity="0" stroke="#294270" stroke-width="2"/>
    <path d="M400.5,160.5 L440.5,160.5 L440.5,200.5 L400.5,200.5 z" fill-opacity="0" stroke="#294270" stroke-width="2"/>
    <path d="M440.5,160.5 L480.5,160.5 L480.5,200.5 L440.5,200.5 z" fill-opacity="0" stroke="#294270" stroke-width="2"/>
    <path d="M560.5,40.5 L600.5,40.5 L600.5,80.5 L560.5,80.5 z" fill-opacity="0" stroke="#294270" stroke-width="2"/>
    <path d="M600.5,40.5 L640.5,40.5 L640.5,80.5 L600.5,80.5 z" fill-opacity="0" stroke="#294270" stroke-width="2"/>
    <path d="M640.5,40.5 L680.5,40.5 L680.5,80.5 L640.5,80.5 z" fill-opacity="0" stroke="#294270" stroke-width="2"/>
    <path d="M680.5,40.5 L720.5,40.5 L720.5,80.5 L680.5,80.5 z" fill-opacity="0" stroke="#294270" stroke-width="2"/>
    <path d="M560.5,80.5 L600.5,80.5 L600.5,120.5 L560.5,120.5 z" fill-opacity="0" stroke="#294270" stroke-width="2"/>
    <path d="M600.5,80.5 L640.5,80.5 L640.5,120.5 L600.5,120.5 z" fill-opacity="0" stroke="#294270" stroke-width="2"/>
    <path d="M640.5,80.5 L680.5,80.5 L680.5,120.5 L640.5,120.5 z" fill-opacity="0" stroke="#294270" stroke-width="2"/>
    <path d="M680.5,80.5 L720.5,80.5 L720.5,120.5 L680.5,120.5 z" fill-opacity="0" stroke="#294270" stroke-width="2"/>
    <path d="M560.5,120.5 L600.5,120.5 L600.5,160.5 L560.5,160.5 z" fill-opacity="0" stroke="#294270" stroke-width="2"/>
    <path d="M600.5,120.5 L640.5,120.5 L640.5,160.5 L600.5,160.5 z" fill-opacity="0" stroke="#294270" stroke-width="2"/>
    <path d="M640.5,120.5 L680.5,120.5 L680.5,160.5 L640.5,160.5 z" fill-opacity="0" stroke="#294270" stroke-width="2"/>
    <path d="M680.5,120.5 L720.5,120.5 L720.5,160.5 L680.5,160.5 z" fill-opacity="0" stroke="#294270" stroke-width="2"/>
    <path d="M560.5,160.5 L600.5,160.5 L600.5,200.5 L560.5,200.5 z" fill-opacity="0" stroke="#294270" stroke-width="2"/>
    <path d="M600.5,160.5 L640.5,160.5 L640.5,200.5 L600.5,200.5 z" fill-opacity="0" stroke="#294270" stroke-width="2"/>
    <path d="M640.5,160.5 L680.5,160.5 L680.5,200.5 L640.5,200.5 z" fill-opacity="0" stroke="#294270" stroke-width="2"/>
    <path d="M680.5,160.5 L720.5,160.5 L720.5,200.5 L680.5,200.5 z" fill-opacity="0" stroke="#294270" stroke-width="2"/>
    <path d="M840.5,40.5 L880.5,40.5 L880.5,80.5 L840.5,80.5 z" fill-opacity="0" stroke="#294270" stroke-width="2"/>
    <path d="M880.5,40.5 L920.5,40.5 L920.5,80.5 L880.5,80.5 z" fill-opacity="0" stroke="#294270" stroke-width="2"/>
    <path d="M920.5,40.5 L960.5,40.5 L960.5,80.5 L920.5,80.5 z" fill-opacity="0" stroke="#294270" stroke-width="2"/>
    <path d="M960.5,40.5 L1000.5,40.5 L1000.5,80.5 L960.5,80.5 z" fill-opacity="0" stroke="#294270" stroke-width="2"/>
    <path d="M840.5,80.5 L880.5,80.5 L880.5,120.5 L840.5,120.5 z" fill-opacity="0" stroke="#294270" stroke-width="2"/>
    <path d="M880.5,80.5 L920.5,80.5 L920.5,120.5 L880.5,120.5 z" fill-opacity="0" stroke="#294270" stroke-width="2"/>
    <path d="M920.5,80.5 L960.5,80.5 L960.5,120.5 L920.5,120.5 z" fill-opacity="0" stroke="#294270" stroke-width="2"/>
    <path d="M960.5,80.5 L1000.5,80.5 L1000.5,120.5 L960.5,120.5 z" fill-opacity="0" stroke="#294270" stroke-width="2"/>
    <path d="M840.5,120.5 L880.5,120.5 L880.5,160.5 L840.5,160.5 z" fill-opacity="0" stroke="#294270" stroke-width="2"/>
    <path d="M880.5,120.5 L920.5,120.5 L920.5,160.5 L880.5,160.5 z" fill-opacity="0" stroke="#294270" stroke-width="2"/>
    <path d="M920.5,120.5 L960.5,120.5 L960.5,160.5 L920.5,160.5 z" fill-opacity="0" stroke="#294270" stroke-width="2"/>
    <path d="M960.5,120.5 L1000.5,120.5 L1000.5,160.5 L960.5,160.5 z" fill-opacity="0" stroke="#294270" stroke-width="2"/>
    <path d="M840.5,160.5 L880.5,160.5 L880.5,200.5 L840.5,200.5 z" fill-opacity="0" stroke="#294270" stroke-width="2"/>
    <path d="M880.5,160.5 L920.5,160.5 L920.5,200.5 L880.5,200.5 z" fill-opacity="0" stroke="#294270" stroke-width="2"/>
    <path d="M920.5,160.5 L960.5,160.5 L960.5,200.5 L920.5,200.5 z" fill-opacity="0" stroke="#294270" stroke-width="2"/>
    <path d="M960.5,160.5 L1000.5,160.5 L1000.5,200.5 L960.5,200.5 z" fill-opacity="0" stroke="#294270" stroke-width="2"/>
    <path d="M720.5,40.5 L760.5,40.5 L760.5,80.5 L720.5,80.5 z" fill-opacity="0" stroke="#294270" stroke-width="2"/>
    <path d="M720.5,80.5 L760.5,80.5 L760.5,120.5 L720.5,120.5 z" fill-opacity="0" stroke="#294270" stroke-width="2"/>
    <path d="M720.5,120.5 L760.5,120.5 L760.5,160.5 L720.5,160.5 z" fill-opacity="0" stroke="#294270" stroke-width="2"/>
    <path d="M720.5,160.5 L760.5,160.5 L760.5,200.5 L720.5,200.5 z" fill-opacity="0" stroke="#294270" stroke-width="2"/>
    <path d="M1000.5,40.5 L1040.5,40.5 L1040.5,80.5 L1000.5,80.5 z" fill-opacity="0" stroke="#294270" stroke-width="2"/>
    <path d="M1000.5,80.5 L1040.5,80.5 L1040.5,120.5 L1000.5,120.5 z" fill-opacity="0" stroke="#294270" stroke-width="2"/>
    <path d="M1000.5,120.5 L1040.5,120.5 L1040.5,160.5 L1000.5,160.5 z" fill-opacity="0" stroke="#294270" stroke-width="2"/>
    <path d="M1000.5,160.5 L1040.5,160.5 L1040.5,200.5 L1000.5,200.5 z" fill-opacity="0" stroke="#294270" stroke-width="2"/>
    <path d="M1040.5,40.5 L1080.5,40.5 L1080.5,80.5 L1040.5,80.5 z" fill-opacity="0" stroke="#294270" stroke-width="2"/>
    <path d="M1040.5,80.5 L1080.5,80.5 L1080.5,120.5 L1040.5,120.5 z" fill-opacity="0" stroke="#294270" stroke-width="2"/>
    <path d="M1040.5,120.5 L1080.5,120.5 L1080.5,160.5 L1040.5,160.5 z" fill-opacity="0" stroke="#294270" stroke-width="2"/>
    <path d="M1040.5,160.5 L1080.5,160.5 L1080.5,200.5 L1040.5,200.5 z" fill-opacity="0" stroke="#294270" stroke-width="2"/>
    <path d="M840.5,200.5 L880.5,200.5 L880.5,240.5 L840.5,240.5 z" fill-opacity="0" stroke="#294270" stroke-width="2"/>
    <path d="M880.5,200.5 L920.5,200.5 L920.5,240.5 L880.5,240.5 z" fill-opacity="0" stroke="#294270" stroke-width="2"/>
    <path d="M920.5,200.5 L960.5,200.5 L960.5,240.5 L920.5,240.5 z" fill-opacity="0" stroke="#294270" stroke-width="2"/>
    <path d="M960.5,200.5 L1000.5,200.5 L1000.5,240.5 L960.5,240.5 z" fill-opacity="0" stroke="#294270" stroke-width="2"/>
    <path d="M840.5,240.5 L880.5,240.5 L880.5,280.5 L840.5,280.5 z" fill-opacity="0" stroke="#294270" stroke-width="2"/>
    <path d="M880.5,240.5 L920.5,240.5 L920.5,280.5 L880.5,280.5 z" fill-opacity="0" stroke="#294270" stroke-width="2"/>
    <path d="M920.5,240.5 L960.5,240.5 L960.5,280.5 L920.5,280.5 z" fill-opacity="0" stroke="#294270" stroke-width="2"/>
    <path d="M960.5,240.5 L1000.5,240.5 L1000.5,280.5 L960.5,280.5 z" fill-opacity="0" stroke="#294270" stroke-width="2"/>
    <path d="M1000.5,200.5 L1040.5,200.5 L1040.5,240.5 L1000.5,240.5 z" fill-opacity="0" stroke="#294270" stroke-width="2"/>
    <path d="M1000.5,240.5 L1040.5,240.5 L1040.5,280.5 L1000.5,280.5 z" fill-opacity="0" stroke="#294270" stroke-width="2"/>
    <path d="M1040.5,200.5 L1080.5,200.5 L1080.5,240.5 L1040.5,240.5 z" fill-opacity="0" stroke="#294270" stroke-width="2"/>
    <path d="M1040.5,240.5 L1080.5,240.5 L1080.5,280.5 L1040.5,280.5 z" fill-opacity="0" stroke="#294270" stroke-width="2"/>
    <path d="M560.5,200.5 L600.5,200.5 L600.5,240.5 L560.5,240.5 z" fill-opacity="0" stroke="#294270" stroke-width="2"/>
    <path d="M600.5,200.5 L640.5,200.5 L640.5,240.5 L600.5,240.5 z" fill-opacity="0" stroke="#294270" stroke-width="2"/>
    <path d="M640.5,200.5 L680.5,200.5 L680.5,240.5 L640.5,240.5 z" fill-opacity="0" stroke="#294270" stroke-width="2"/>
    <path d="M680.5,200.5 L720.5,200.5 L720.5,240.5 L680.5,240.5 z" fill-opacity="0" stroke="#294270" stroke-width="2"/>
    <path d="M720.5,200.5 L760.5,200.5 L760.5,240.5 L720.5,240.5 z" fill-opacity="0" stroke="#294270" stroke-width="2"/>
    <text transform="matrix(1, 0, 0, 1, 101.375, 60)">
      <tspan x="-11.375" y="12" font-family="Verdana-Bold" font-size="32" fill="#F0801A">1</tspan>
    </text>
    <text transform="matrix(1, 0, 0, 1, 101.375, 100)">
      <tspan x="-11.375" y="12" font-family="Verdana-Bold" font-size="32" fill="#F0801A">1</tspan>
    </text>
    <text transform="matrix(1, 0, 0, 1, 101.375, 140)">
      <tspan x="-11.375" y="12" font-family="Verdana-Bold" font-size="32" fill="#F0801A">1</tspan>
    </text>
    <text transform="matrix(1, 0, 0, 1, 101.375, 180)">
      <tspan x="-11.375" y="12" font-family="Verdana-Bold" font-size="32" fill="#F0801A">1</tspan>
    </text>
    <text transform="matrix(1, 0, 0, 1, 141.375, 60)">
      <tspan x="-11.375" y="12" font-family="Verdana-Bold" font-size="32" fill="#294270">2</tspan>
    </text>
    <text transform="matrix(1, 0, 0, 1, 141.375, 100)">
      <tspan x="-11.375" y="12" font-family="Verdana-Bold" font-size="32" fill="#294270">1</tspan>
    </text>
    <text transform="matrix(1, 0, 0, 1, 141.375, 140)">
      <tspan x="-11.375" y="12" font-family="Verdana-Bold" font-size="32" fill="#294270">3</tspan>
    </text>
    <text transform="matrix(1, 0, 0, 1, 141.375, 180)">
      <tspan x="-11.375" y="12" font-family="Verdana-Bold" font-size="32" fill="#294270">7</tspan>
    </text>
    <text transform="matrix(1, 0, 0, 1, 181.375, 60)">
      <tspan x="-11.375" y="12" font-family="Verdana-Bold" font-size="32" fill="#294270">1</tspan>
    </text>
    <text transform="matrix(1, 0, 0, 1, 181.375, 100)">
      <tspan x="-11.375" y="12" font-family="Verdana-Bold" font-size="32" fill="#294270">4</tspan>
    </text>
    <text transform="matrix(1, 0, 0, 1, 181.375, 140)">
      <tspan x="-11.375" y="12" font-family="Verdana-Bold" font-size="32" fill="#294270">1</tspan>
    </text>
    <text transform="matrix(1, 0, 0, 1, 181.375, 180)">
      <tspan x="-11.375" y="12" font-family="Verdana-Bold" font-size="32" fill="#294270">2</tspan>
    </text>
    <text transform="matrix(1, 0, 0, 1, 221.375, 60)">
      <tspan x="-11.375" y="12" font-family="Verdana-Bold" font-size="32" fill="#294270">1</tspan>
    </text>
    <text transform="matrix(1, 0, 0, 1, 221.375, 100)">
      <tspan x="-11.375" y="12" font-family="Verdana-Bold" font-size="32" fill="#294270">1</tspan>
    </text>
    <text transform="matrix(1, 0, 0, 1, 221.375, 140)">
      <tspan x="-11.375" y="12" font-family="Verdana-Bold" font-size="32" fill="#294270">6</tspan>
    </text>
    <text transform="matrix(1, 0, 0, 1, 221.375, 180)">
      <tspan x="-11.375" y="12" font-family="Verdana-Bold" font-size="32" fill="#294270">5</tspan>
    </text>
    <text transform="matrix(1, 0, 0, 1, 341.375, 60)">
      <tspan x="-11.375" y="12" font-family="Verdana-Bold" font-size="32" fill="#294270">7</tspan>
    </text>
    <text transform="matrix(1, 0, 0, 1, 341.375, 100)">
      <tspan x="-11.375" y="12" font-family="Verdana-Bold" font-size="32" fill="#294270">1</tspan>
    </text>
    <text transform="matrix(1, 0, 0, 1, 341.375, 140)">
      <tspan x="-11.375" y="12" font-family="Verdana-Bold" font-size="32" fill="#294270">3</tspan>
    </text>
    <text transform="matrix(1, 0, 0, 1, 341.375, 180)">
      <tspan x="-11.375" y="12" font-family="Verdana-Bold" font-size="32" fill="#294270">1</tspan>
    </text>
    <text transform="matrix(1, 0, 0, 1, 381.375, 60)">
      <tspan x="-11.375" y="12" font-family="Verdana-Bold" font-size="32" fill="#294270">1</tspan>
    </text>
    <text transform="matrix(1, 0, 0, 1, 381.375, 100)">
      <tspan x="-11.375" y="12" font-family="Verdana-Bold" font-size="32" fill="#294270">2</tspan>
    </text>
    <text transform="matrix(1, 0, 0, 1, 381.375, 140)">
      <tspan x="-11.375" y="12" font-family="Verdana-Bold" font-size="32" fill="#294270">4</tspan>
    </text>
    <text transform="matrix(1, 0, 0, 1, 381.375, 180)">
      <tspan x="-11.375" y="12" font-family="Verdana-Bold" font-size="32" fill="#294270">1</tspan>
    </text>
    <text transform="matrix(1, 0, 0, 1, 421.375, 60)">
      <tspan x="-11.375" y="12" font-family="Verdana-Bold" font-size="32" fill="#294270">4</tspan>
    </text>
    <text transform="matrix(1, 0, 0, 1, 421.375, 100)">
      <tspan x="-11.375" y="12" font-family="Verdana-Bold" font-size="32" fill="#294270">5</tspan>
    </text>
    <text transform="matrix(1, 0, 0, 1, 421.375, 140)">
      <tspan x="-11.375" y="12" font-family="Verdana-Bold" font-size="32" fill="#294270">1</tspan>
    </text>
    <text transform="matrix(1, 0, 0, 1, 421.375, 180)">
      <tspan x="-11.375" y="12" font-family="Verdana-Bold" font-size="32" fill="#294270">8</tspan>
    </text>
    <text transform="matrix(1, 0, 0, 1, 461.375, 60)">
      <tspan x="-11.375" y="12" font-family="Verdana-Bold" font-size="32" fill="#294270">1</tspan>
    </text>
    <text transform="matrix(1, 0, 0, 1, 461.375, 100)">
      <tspan x="-11.375" y="12" font-family="Verdana-Bold" font-size="32" fill="#294270">2</tspan>
    </text>
    <text transform="matrix(1, 0, 0, 1, 461.375, 140)">
      <tspan x="-11.375" y="12" font-family="Verdana-Bold" font-size="32" fill="#294270">3</tspan>
    </text>
    <text transform="matrix(1, 0, 0, 1, 461.375, 180)">
      <tspan x="-11.375" y="12" font-family="Verdana-Bold" font-size="32" fill="#294270">1</tspan>
    </text>
    <text transform="matrix(1, 0, 0, 1, 581.375, 60)">
      <tspan x="-11.375" y="12" font-family="Verdana-Bold" font-size="32" fill="#294270">2</tspan>
    </text>
    <text transform="matrix(1, 0, 0, 1, 581.375, 100)">
      <tspan x="-11.375" y="12" font-family="Verdana-Bold" font-size="32" fill="#294270">1</tspan>
    </text>
    <text transform="matrix(1, 0, 0, 1, 581.375, 140)">
      <tspan x="-11.375" y="12" font-family="Verdana-Bold" font-size="32" fill="#294270">4</tspan>
    </text>
    <text transform="matrix(1, 0, 0, 1, 581.375, 180)">
      <tspan x="-11.375" y="12" font-family="Verdana-Bold" font-size="32" fill="#F0801A">5</tspan>
    </text>
    <text transform="matrix(1, 0, 0, 1, 621.375, 60)">
      <tspan x="-11.375" y="12" font-family="Verdana-Bold" font-size="32" fill="#294270">1</tspan>
    </text>
    <text transform="matrix(1, 0, 0, 1, 621.375, 100)">
      <tspan x="-11.375" y="12" font-family="Verdana-Bold" font-size="32" fill="#294270">3</tspan>
    </text>
    <text transform="matrix(1, 0, 0, 1, 621.375, 140)">
      <tspan x="-11.375" y="12" font-family="Verdana-Bold" font-size="32" fill="#294270">1</tspan>
    </text>
    <text transform="matrix(1, 0, 0, 1, 621.375, 180)">
      <tspan x="-11.375" y="12" font-family="Verdana-Bold" font-size="32" fill="#F0801A">5</tspan>
    </text>
    <text transform="matrix(1, 0, 0, 1, 661.375, 60)">
      <tspan x="-11.375" y="12" font-family="Verdana-Bold" font-size="32" fill="#294270">1</tspan>
    </text>
    <text transform="matrix(1, 0, 0, 1, 661.375, 100)">
      <tspan x="-11.375" y="12" font-family="Verdana-Bold" font-size="32" fill="#294270">2</tspan>
    </text>
    <text transform="matrix(1, 0, 0, 1, 661.375, 140)">
      <tspan x="-11.375" y="12" font-family="Verdana-Bold" font-size="32" fill="#294270">1</tspan>
    </text>
    <text transform="matrix(1, 0, 0, 1, 661.375, 180)">
      <tspan x="-11.375" y="12" font-family="Verdana-Bold" font-size="32" fill="#F0801A">5</tspan>
    </text>
    <text transform="matrix(1, 0, 0, 1, 701.375, 60)">
      <tspan x="-11.375" y="12" font-family="Verdana-Bold" font-size="32" fill="#294270">6</tspan>
    </text>
    <text transform="matrix(1, 0, 0, 1, 701.375, 100)">
      <tspan x="-11.375" y="12" font-family="Verdana-Bold" font-size="32" fill="#294270">1</tspan>
    </text>
    <text transform="matrix(1, 0, 0, 1, 701.375, 140)">
      <tspan x="-11.375" y="12" font-family="Verdana-Bold" font-size="32" fill="#294270">3</tspan>
    </text>
    <text transform="matrix(1, 0, 0, 1, 701.375, 180)">
      <tspan x="-11.375" y="12" font-family="Verdana-Bold" font-size="32" fill="#F0801A">5</tspan>
    </text>
    <text transform="matrix(1, 0, 0, 1, 861.375, 60)">
      <tspan x="-11.375" y="12" font-family="Verdana-Bold" font-size="32" fill="#294270">7</tspan>
    </text>
    <text transform="matrix(1, 0, 0, 1, 861.375, 100)">
      <tspan x="-11.375" y="12" font-family="Verdana-Bold" font-size="32" fill="#294270">1</tspan>
    </text>
    <text transform="matrix(1, 0, 0, 1, 861.375, 140)">
      <tspan x="-11.375" y="12" font-family="Verdana-Bold" font-size="32" fill="#294270">2</tspan>
    </text>
    <text transform="matrix(1, 0, 0, 1, 861.375, 180)">
      <tspan x="-11.375" y="12" font-family="Verdana-Bold" font-size="32" fill="#294270">1</tspan>
    </text>
    <text transform="matrix(1, 0, 0, 1, 901.375, 60)">
      <tspan x="-11.375" y="12" font-family="Verdana-Bold" font-size="32" fill="#294270">1</tspan>
    </text>
    <text transform="matrix(1, 0, 0, 1, 901.375, 100)">
      <tspan x="-11.375" y="12" font-family="Verdana-Bold" font-size="32" fill="#294270">1</tspan>
    </text>
    <text transform="matrix(1, 0, 0, 1, 901.375, 140)">
      <tspan x="-11.375" y="12" font-family="Verdana-Bold" font-size="32" fill="#294270">3</tspan>
    </text>
    <text transform="matrix(1, 0, 0, 1, 901.375, 180)">
      <tspan x="-11.375" y="12" font-family="Verdana-Bold" font-size="32" fill="#294270">1</tspan>
    </text>
    <text transform="matrix(1, 0, 0, 1, 941.375, 60)">
      <tspan x="-11.375" y="12" font-family="Verdana-Bold" font-size="32" fill="#294270">1</tspan>
    </text>
    <text transform="matrix(1, 0, 0, 1, 941.375, 100)">
      <tspan x="-11.375" y="12" font-family="Verdana-Bold" font-size="32" fill="#294270">7</tspan>
    </text>
    <text transform="matrix(1, 0, 0, 1, 941.375, 140)">
      <tspan x="-11.375" y="12" font-family="Verdana-Bold" font-size="32" fill="#294270">1</tspan>
    </text>
    <text transform="matrix(1, 0, 0, 1, 941.375, 180)">
      <tspan x="-11.375" y="12" font-family="Verdana-Bold" font-size="32" fill="#294270">1</tspan>
    </text>
    <text transform="matrix(1, 0, 0, 1, 981.375, 60)">
      <tspan x="-11.375" y="12" font-family="Verdana-Bold" font-size="32" fill="#294270">8</tspan>
    </text>
    <text transform="matrix(1, 0, 0, 1, 981.375, 100)">
      <tspan x="-11.375" y="12" font-family="Verdana-Bold" font-size="32" fill="#294270">3</tspan>
    </text>
    <text transform="matrix(1, 0, 0, 1, 981.375, 140)">
      <tspan x="-11.375" y="12" font-family="Verdana-Bold" font-size="32" fill="#294270">2</tspan>
    </text>
    <text transform="matrix(1, 0, 0, 1, 981.375, 180)">
      <tspan x="-11.375" y="12" font-family="Verdana-Bold" font-size="32" fill="#F0801A">5</tspan>
    </text>
    <text transform="matrix(1, 0, 0, 1, 741.375, 60)">
      <tspan x="-11.375" y="12" font-family="Verdana-Bold" font-size="32" fill="#294270">1</tspan>
    </text>
    <text transform="matrix(1, 0, 0, 1, 741.375, 100)">
      <tspan x="-11.375" y="12" font-family="Verdana-Bold" font-size="32" fill="#294270">1</tspan>
    </text>
    <text transform="matrix(1, 0, 0, 1, 741.375, 140)">
      <tspan x="-11.375" y="12" font-family="Verdana-Bold" font-size="32" fill="#294270">1</tspan>
    </text>
    <text transform="matrix(1, 0, 0, 1, 741.375, 180)">
      <tspan x="-11.375" y="12" font-family="Verdana-Bold" font-size="32" fill="#F0801A">5</tspan>
    </text>
    <text transform="matrix(1, 0, 0, 1, 581.375, 220)">
      <tspan x="-11.375" y="12" font-family="Verdana-Bold" font-size="32" fill="#294270">1</tspan>
    </text>
    <text transform="matrix(1, 0, 0, 1, 621.375, 220)">
      <tspan x="-11.375" y="12" font-family="Verdana-Bold" font-size="32" fill="#294270">1</tspan>
    </text>
    <text transform="matrix(1, 0, 0, 1, 661.375, 220)">
      <tspan x="-11.375" y="12" font-family="Verdana-Bold" font-size="32" fill="#294270">3</tspan>
    </text>
    <text transform="matrix(1, 0, 0, 1, 701.375, 220)">
      <tspan x="-11.375" y="12" font-family="Verdana-Bold" font-size="32" fill="#294270">1</tspan>
    </text>
    <text transform="matrix(1, 0, 0, 1, 741.375, 220)">
      <tspan x="-11.375" y="12" font-family="Verdana-Bold" font-size="32" fill="#294270">1</tspan>
    </text>
    <text transform="matrix(1, 0, 0, 1, 861.375, 220)">
      <tspan x="-11.375" y="12" font-family="Verdana-Bold" font-size="32" fill="#294270">4</tspan>
    </text>
    <text transform="matrix(1, 0, 0, 1, 901.375, 220)">
      <tspan x="-11.375" y="12" font-family="Verdana-Bold" font-size="32" fill="#294270">6</tspan>
    </text>
    <text transform="matrix(1, 0, 0, 1, 941.375, 220)">
      <tspan x="-11.375" y="12" font-family="Verdana-Bold" font-size="32" fill="#F0801A">5</tspan>
    </text>
    <text transform="matrix(1, 0, 0, 1, 981.375, 220)">
      <tspan x="-11.375" y="12" font-family="Verdana-Bold" font-size="32" fill="#294270">1</tspan>
    </text>
    <text transform="matrix(1, 0, 0, 1, 1021.375, 220)">
      <tspan x="-11.375" y="12" font-family="Verdana-Bold" font-size="32" fill="#294270">3</tspan>
    </text>
    <text transform="matrix(1, 0, 0, 1, 861.375, 260)">
      <tspan x="-11.375" y="12" font-family="Verdana-Bold" font-size="32" fill="#294270">1</tspan>
    </text>
    <text transform="matrix(1, 0, 0, 1, 901.375, 260)">
      <tspan x="-11.375" y="12" font-family="Verdana-Bold" font-size="32" fill="#294270">1</tspan>
    </text>
    <text transform="matrix(1, 0, 0, 1, 941.375, 260)">
      <tspan x="-11.375" y="12" font-family="Verdana-Bold" font-size="32" fill="#294270">9</tspan>
    </text>
    <text transform="matrix(1, 0, 0, 1, 981.375, 260)">
      <tspan x="-11.375" y="12" font-family="Verdana-Bold" font-size="32" fill="#294270">1</tspan>
    </text>
    <text transform="matrix(1, 0, 0, 1, 1021.375, 260)">
      <tspan x="-11.375" y="12" font-family="Verdana-Bold" font-size="32" fill="#294270">2</tspan>
    </text>
    <text transform="matrix(1, 0, 0, 1, 1021.375, 60)">
      <tspan x="-11.375" y="12" font-family="Verdana-Bold" font-size="32" fill="#294270">1</tspan>
    </text>
    <text transform="matrix(1, 0, 0, 1, 1021.375, 100)">
      <tspan x="-11.375" y="12" font-family="Verdana-Bold" font-size="32" fill="#294270">1</tspan>
    </text>
    <text transform="matrix(1, 0, 0, 1, 1021.375, 140)">
      <tspan x="-11.375" y="12" font-family="Verdana-Bold" font-size="32" fill="#F0801A">5</tspan>
    </text>
    <text transform="matrix(1, 0, 0, 1, 1021.375, 180)">
      <tspan x="-11.375" y="12" font-family="Verdana-Bold" font-size="32" fill="#294270">1</tspan>
    </text>
    <text transform="matrix(1, 0, 0, 1, 1061.375, 60)">
      <tspan x="-11.375" y="12" font-family="Verdana-Bold" font-size="32" fill="#294270">1</tspan>
    </text>
    <text transform="matrix(1, 0, 0, 1, 1061.375, 100)">
      <tspan x="-11.375" y="12" font-family="Verdana-Bold" font-size="32" fill="#F0801A">5</tspan>
    </text>
    <text transform="matrix(1, 0, 0, 1, 1061.375, 140)">
      <tspan x="-11.375" y="12" font-family="Verdana-Bold" font-size="32" fill="#294270">1</tspan>
    </text>
    <text transform="matrix(1, 0, 0, 1, 1061.375, 180)">
      <tspan x="-11.375" y="12" font-family="Verdana-Bold" font-size="32" fill="#294270">4</tspan>
    </text>
    <text transform="matrix(1, 0, 0, 1, 1061.375, 220)">
      <tspan x="-11.375" y="12" font-family="Verdana-Bold" font-size="32" fill="#294270">1</tspan>
    </text>
    <text transform="matrix(1, 0, 0, 1, 1061.375, 260)">
      <tspan x="-11.375" y="12" font-family="Verdana-Bold" font-size="32" fill="#294270">1</tspan>
    </text>
    <text transform="matrix(1, 0, 0, 1, 160.883, 220)">
      <tspan x="-40.883" y="12" font-family="Verdana-Bold" font-size="32" fill="#294270">True</tspan>
    </text>
    <text transform="matrix(1, 0, 0, 1, 401.68, 220)">
      <tspan x="-46.68" y="12" font-family="Verdana-Bold" font-size="32" fill="#294270">False</tspan>
    </text>
    <text transform="matrix(1, 0, 0, 1, 660.883, 260)">
      <tspan x="-40.883" y="12" font-family="Verdana-Bold" font-size="32" fill="#294270">True</tspan>
    </text>
    <text transform="matrix(1, 0, 0, 1, 960.883, 300)">
      <tspan x="-40.883" y="12" font-family="Verdana-Bold" font-size="32" fill="#294270">True</tspan>
    </text>
  </g>
  <defs/>
</svg>
