<?xml version="1.0" encoding="UTF-8"?>
<!DOCTYPE svg PUBLIC "-//W3C//DTD SVG 1.1//EN" "http://www.w3.org/Graphics/SVG/1.1/DTD/svg11.dtd">
<svg version="1.1" xmlns="http://www.w3.org/2000/svg" xmlns:xlink="http://www.w3.org/1999/xlink" x="0px" y="0px" width="1200" height="3300" viewBox="0, 0, 1200, 3300">
  <g id="Background">
    <rect x="0" y="0" width="1200" height="3300" fill="#000000" fill-opacity="0"/>
  </g>
  <g id="Layer 1">
    <path d="M80.5,80.5 L480.5,80.5" fill-opacity="0" stroke="#202C4C" stroke-width="1" stroke-dasharray="10,7" stroke-miterlimit="9"/>
    <path d="M80.5,80.5 L80.5,320.5" fill-opacity="0" stroke="#202C4C" stroke-width="1" stroke-dasharray="10,7"/>
    <path d="M80.5,320.5 L480.5,320.5" fill-opacity="0" stroke="#202C4C" stroke-width="1" stroke-dasharray="10,7"/>
    <path d="M480.5,320.5 L480.5,80.5" fill-opacity="0" stroke="#202C4C" stroke-width="1" stroke-dasharray="10,7"/>
    <path d="M160.5,80.5 L160.5,320.5" fill-opacity="0" stroke="#202C4C" stroke-width="1" stroke-dasharray="10,7"/>
    <path d="M240.5,80.5 L240.5,320.5" fill-opacity="0" stroke="#202C4C" stroke-width="1" stroke-dasharray="10,7"/>
    <path d="M320.5,80.5 L320.5,320.5" fill-opacity="0" stroke="#202C4C" stroke-width="1" stroke-dasharray="10,7"/>
    <path d="M400.5,80.5 L400.5,320.5" fill-opacity="0" stroke="#202C4C" stroke-width="1" stroke-dasharray="10,7"/>
    <path d="M80.5,160.5 L480.5,160.5" fill-opacity="0" stroke="#202C4C" stroke-width="1" stroke-dasharray="10,7"/>
    <path d="M80.5,240.5 L480.5,240.5" fill-opacity="0" stroke="#202C4C" stroke-width="1" stroke-dasharray="10,7"/>
    <path d="M80.5,480.5 L480.5,480.5" fill-opacity="0" stroke="#202C4C" stroke-width="1" stroke-dasharray="10,7" stroke-miterlimit="9"/>
    <path d="M80.5,480.5 L80.5,720.5" fill-opacity="0" stroke="#202C4C" stroke-width="1" stroke-dasharray="10,7"/>
    <path d="M80.5,720.5 L480.5,720.5" fill-opacity="0" stroke="#202C4C" stroke-width="1" stroke-dasharray="10,7"/>
    <path d="M480.5,720.5 L480.5,480.5" fill-opacity="0" stroke="#202C4C" stroke-width="1" stroke-dasharray="10,7"/>
    <path d="M160.5,480.5 L160.5,720.5" fill-opacity="0" stroke="#202C4C" stroke-width="1" stroke-dasharray="10,7"/>
    <path d="M240.5,480.5 L240.5,720.5" fill-opacity="0" stroke="#202C4C" stroke-width="1" stroke-dasharray="10,7"/>
    <path d="M320.5,480.5 L320.5,720.5" fill-opacity="0" stroke="#202C4C" stroke-width="1" stroke-dasharray="10,7"/>
    <path d="M400.5,480.5 L400.5,720.5" fill-opacity="0" stroke="#202C4C" stroke-width="1" stroke-dasharray="10,7"/>
    <path d="M80.5,560.5 L480.5,560.5" fill-opacity="0" stroke="#202C4C" stroke-width="1" stroke-dasharray="10,7"/>
    <path d="M80.5,640.5 L480.5,640.5" fill-opacity="0" stroke="#202C4C" stroke-width="1" stroke-dasharray="10,7"/>
    <text transform="matrix(1, 0, 0, 1, 275.548, 44.5)">
      <tspan x="-25.548" y="8.5" font-family="HelveticaNeue-Bold" font-size="24" fill="#202C4C">First</tspan>
    </text>
    <text transform="matrix(1, 0, 0, 1, 283.344, 444.5)">
      <tspan x="-43.344" y="8.5" font-family="HelveticaNeue-Bold" font-size="24" fill="#202C4C">Second</tspan>
    </text>
    <text transform="matrix(1, 0, 0, 1, 279.328, 844.5)">
      <tspan x="-29.328" y="8.5" font-family="HelveticaNeue-Bold" font-size="24" fill="#202C4C">Third</tspan>
    </text>
    <g>
      <path d="M80.5,80.5 L160.5,80.5 L160.5,160.5 L80.5,160.5 z" fill="#7DB2D5"/>
      <path d="M80.5,80.5 L160.5,80.5 L160.5,160.5 L80.5,160.5 z" fill-opacity="0" stroke="#202C4C" stroke-width="1"/>
    </g>
    <g>
      <path d="M80.5,240.5 L160.5,240.5 L160.5,320.5 L80.5,320.5 z" fill="#7DB2D5"/>
      <path d="M80.5,240.5 L160.5,240.5 L160.5,320.5 L80.5,320.5 z" fill-opacity="0" stroke="#202C4C" stroke-width="1"/>
    </g>
    <g>
      <path d="M240.5,160.5 L320.5,160.5 L320.5,240.5 L240.5,240.5 z" fill="#7DB2D5"/>
      <path d="M240.5,160.5 L320.5,160.5 L320.5,240.5 L240.5,240.5 z" fill-opacity="0" stroke="#202C4C" stroke-width="1"/>
    </g>
    <g>
      <path d="M400.5,80.5 L480.5,80.5 L480.5,160.5 L400.5,160.5 z" fill="#7DB2D5"/>
      <path d="M400.5,80.5 L480.5,80.5 L480.5,160.5 L400.5,160.5 z" fill-opacity="0" stroke="#202C4C" stroke-width="1"/>
    </g>
    <g>
      <path d="M400.5,240.5 L480.5,240.5 L480.5,320.5 L400.5,320.5 z" fill="#7DB2D5"/>
      <path d="M400.5,240.5 L480.5,240.5 L480.5,320.5 L400.5,320.5 z" fill-opacity="0" stroke="#202C4C" stroke-width="1"/>
    </g>
    <path d="M720.5,80.5 L1120.5,80.5" fill-opacity="0" stroke="#202C4C" stroke-width="1" stroke-dasharray="10,7" stroke-miterlimit="9"/>
    <path d="M720.5,80.5 L720.5,320.5" fill-opacity="0" stroke="#202C4C" stroke-width="1" stroke-dasharray="10,7"/>
    <path d="M720.5,320.5 L1120.5,320.5" fill-opacity="0" stroke="#202C4C" stroke-width="1" stroke-dasharray="10,7"/>
    <path d="M1120.5,320.5 L1120.5,80.5" fill-opacity="0" stroke="#202C4C" stroke-width="1" stroke-dasharray="10,7"/>
    <path d="M800.5,80.5 L800.5,320.5" fill-opacity="0" stroke="#202C4C" stroke-width="1" stroke-dasharray="10,7"/>
    <path d="M880.5,80.5 L880.5,320.5" fill-opacity="0" stroke="#202C4C" stroke-width="1" stroke-dasharray="10,7"/>
    <path d="M960.5,80.5 L960.5,320.5" fill-opacity="0" stroke="#202C4C" stroke-width="1" stroke-dasharray="10,7"/>
    <path d="M1040.5,80.5 L1040.5,320.5" fill-opacity="0" stroke="#202C4C" stroke-width="1" stroke-dasharray="10,7"/>
    <path d="M720.5,160.5 L1120.5,160.5" fill-opacity="0" stroke="#202C4C" stroke-width="1" stroke-dasharray="10,7"/>
    <path d="M720.5,240.5 L1120.5,240.5" fill-opacity="0" stroke="#202C4C" stroke-width="1" stroke-dasharray="10,7"/>
    <g>
      <path d="M720.5,80.5 L800.5,80.5 L800.5,160.5 L720.5,160.5 z" fill="#7DB2D5"/>
      <path d="M720.5,80.5 L800.5,80.5 L800.5,160.5 L720.5,160.5 z" fill-opacity="0" stroke="#202C4C" stroke-width="1"/>
    </g>
    <g>
      <path d="M720.5,240.5 L800.5,240.5 L800.5,320.5 L720.5,320.5 z" fill="#7DB2D5"/>
      <path d="M720.5,240.5 L800.5,240.5 L800.5,320.5 L720.5,320.5 z" fill-opacity="0" stroke="#202C4C" stroke-width="1"/>
    </g>
    <g>
      <path d="M880.5,160.5 L960.5,160.5 L960.5,240.5 L880.5,240.5 z" fill="#7DB2D5"/>
      <path d="M880.5,160.5 L960.5,160.5 L960.5,240.5 L880.5,240.5 z" fill-opacity="0" stroke="#202C4C" stroke-width="1"/>
    </g>
    <g>
      <path d="M1040.5,80.5 L1120.5,80.5 L1120.5,160.5 L1040.5,160.5 z" fill="#7DB2D5"/>
      <path d="M1040.5,80.5 L1120.5,80.5 L1120.5,160.5 L1040.5,160.5 z" fill-opacity="0" stroke="#202C4C" stroke-width="1"/>
    </g>
    <g>
      <path d="M1040.5,240.5 L1120.5,240.5 L1120.5,320.5 L1040.5,320.5 z" fill="#7DB2D5"/>
      <path d="M1040.5,240.5 L1120.5,240.5 L1120.5,320.5 L1040.5,320.5 z" fill-opacity="0" stroke="#202C4C" stroke-width="1"/>
    </g>
    <path d="M800.5,160.5 L880.5,160.5" fill-opacity="0" stroke="#202C4C" stroke-width="6"/>
    <path d="M800.5,240.5 L880.5,240.5" fill-opacity="0" stroke="#202C4C" stroke-width="6"/>
    <path d="M960.5,240.5 L1040.5,240.5" fill-opacity="0" stroke="#202C4C" stroke-width="6"/>
    <path d="M960.5,160.5 L1040.5,160.5" fill-opacity="0" stroke="#202C4C" stroke-width="6"/>
    <text transform="matrix(1, 0, 0, 1, 923.552, 354.5)">
      <tspan x="-93.552" y="8.5" font-family="HelveticaNeue-Bold" font-size="24" fill="#202C4C">4 pipes, 4 lenght</tspan>
    </text>
    <text transform="matrix(1, 0, 0, 1, 915.548, 44.5)">
      <tspan x="-25.548" y="8.5" font-family="HelveticaNeue-Bold" font-size="24" fill="#202C4C">First</tspan>
    </text>
    <g>
      <path d="M80.5,480.5 L160.5,480.5 L160.5,560.5 L80.5,560.5 z" fill="#7DB2D5"/>
      <path d="M80.5,480.5 L160.5,480.5 L160.5,560.5 L80.5,560.5 z" fill-opacity="0" stroke="#202C4C" stroke-width="1"/>
    </g>
    <g>
      <path d="M80.5,560.5 L160.5,560.5 L160.5,640.5 L80.5,640.5 z" fill="#7DB2D5"/>
      <path d="M80.5,560.5 L160.5,560.5 L160.5,640.5 L80.5,640.5 z" fill-opacity="0" stroke="#202C4C" stroke-width="1"/>
    </g>
    <g>
      <path d="M80.5,640.5 L160.5,640.5 L160.5,720.5 L80.5,720.5 z" fill="#7DB2D5"/>
      <path d="M80.5,640.5 L160.5,640.5 L160.5,720.5 L80.5,720.5 z" fill-opacity="0" stroke="#202C4C" stroke-width="1"/>
    </g>
    <g>
      <path d="M160.5,640.5 L240.5,640.5 L240.5,720.5 L160.5,720.5 z" fill="#7DB2D5"/>
      <path d="M160.5,640.5 L240.5,640.5 L240.5,720.5 L160.5,720.5 z" fill-opacity="0" stroke="#202C4C" stroke-width="1"/>
    </g>
    <g>
      <path d="M240.5,640.5 L320.5,640.5 L320.5,720.5 L240.5,720.5 z" fill="#7DB2D5"/>
      <path d="M240.5,640.5 L320.5,640.5 L320.5,720.5 L240.5,720.5 z" fill-opacity="0" stroke="#202C4C" stroke-width="1"/>
    </g>
    <g>
      <path d="M240.5,560.5 L320.5,560.5 L320.5,640.5 L240.5,640.5 z" fill="#7DB2D5"/>
      <path d="M240.5,560.5 L320.5,560.5 L320.5,640.5 L240.5,640.5 z" fill-opacity="0" stroke="#202C4C" stroke-width="1"/>
    </g>
    <g>
      <path d="M240.5,480.5 L320.5,480.5 L320.5,560.5 L240.5,560.5 z" fill="#7DB2D5"/>
      <path d="M240.5,480.5 L320.5,480.5 L320.5,560.5 L240.5,560.5 z" fill-opacity="0" stroke="#202C4C" stroke-width="1"/>
    </g>
    <g>
      <path d="M320.5,480.5 L400.5,480.5 L400.5,560.5 L320.5,560.5 z" fill="#7DB2D5"/>
      <path d="M320.5,480.5 L400.5,480.5 L400.5,560.5 L320.5,560.5 z" fill-opacity="0" stroke="#202C4C" stroke-width="1"/>
    </g>
    <g>
      <path d="M400.5,480.5 L480.5,480.5 L480.5,560.5 L400.5,560.5 z" fill="#7DB2D5"/>
      <path d="M400.5,480.5 L480.5,480.5 L480.5,560.5 L400.5,560.5 z" fill-opacity="0" stroke="#202C4C" stroke-width="1"/>
    </g>
    <g>
      <path d="M400.5,560.5 L480.5,560.5 L480.5,640.5 L400.5,640.5 z" fill="#7DB2D5"/>
      <path d="M400.5,560.5 L480.5,560.5 L480.5,640.5 L400.5,640.5 z" fill-opacity="0" stroke="#202C4C" stroke-width="1"/>
    </g>
    <g>
      <path d="M400.5,640.5 L480.5,640.5 L480.5,720.5 L400.5,720.5 z" fill="#7DB2D5"/>
      <path d="M400.5,640.5 L480.5,640.5 L480.5,720.5 L400.5,720.5 z" fill-opacity="0" stroke="#202C4C" stroke-width="1"/>
    </g>
    <path d="M720.5,480.5 L1120.5,480.5" fill-opacity="0" stroke="#202C4C" stroke-width="1" stroke-dasharray="10,7" stroke-miterlimit="9"/>
    <path d="M720.5,480.5 L720.5,720.5" fill-opacity="0" stroke="#202C4C" stroke-width="1" stroke-dasharray="10,7"/>
    <path d="M720.5,720.5 L1120.5,720.5" fill-opacity="0" stroke="#202C4C" stroke-width="1" stroke-dasharray="10,7"/>
    <path d="M1120.5,720.5 L1120.5,480.5" fill-opacity="0" stroke="#202C4C" stroke-width="1" stroke-dasharray="10,7"/>
    <path d="M800.5,480.5 L800.5,720.5" fill-opacity="0" stroke="#202C4C" stroke-width="1" stroke-dasharray="10,7"/>
    <path d="M880.5,480.5 L880.5,720.5" fill-opacity="0" stroke="#202C4C" stroke-width="1" stroke-dasharray="10,7"/>
    <path d="M960.5,480.5 L960.5,720.5" fill-opacity="0" stroke="#202C4C" stroke-width="1" stroke-dasharray="10,7"/>
    <path d="M1040.5,480.5 L1040.5,720.5" fill-opacity="0" stroke="#202C4C" stroke-width="1" stroke-dasharray="10,7"/>
    <path d="M720.5,560.5 L1120.5,560.5" fill-opacity="0" stroke="#202C4C" stroke-width="1" stroke-dasharray="10,7"/>
    <path d="M720.5,640.5 L1120.5,640.5" fill-opacity="0" stroke="#202C4C" stroke-width="1" stroke-dasharray="10,7"/>
    <text transform="matrix(1, 0, 0, 1, 923.344, 444.5)">
      <tspan x="-43.344" y="8.5" font-family="HelveticaNeue-Bold" font-size="24" fill="#202C4C">Second</tspan>
    </text>
    <g>
      <path d="M720.5,480.5 L800.5,480.5 L800.5,560.5 L720.5,560.5 z" fill="#7DB2D5"/>
      <path d="M720.5,480.5 L800.5,480.5 L800.5,560.5 L720.5,560.5 z" fill-opacity="0" stroke="#202C4C" stroke-width="1"/>
    </g>
    <g>
      <path d="M720.5,560.5 L800.5,560.5 L800.5,640.5 L720.5,640.5 z" fill="#7DB2D5"/>
      <path d="M720.5,560.5 L800.5,560.5 L800.5,640.5 L720.5,640.5 z" fill-opacity="0" stroke="#202C4C" stroke-width="1"/>
    </g>
    <g>
      <path d="M720.5,640.5 L800.5,640.5 L800.5,720.5 L720.5,720.5 z" fill="#7DB2D5"/>
      <path d="M720.5,640.5 L800.5,640.5 L800.5,720.5 L720.5,720.5 z" fill-opacity="0" stroke="#202C4C" stroke-width="1"/>
    </g>
    <g>
      <path d="M800.5,640.5 L880.5,640.5 L880.5,720.5 L800.5,720.5 z" fill="#7DB2D5"/>
      <path d="M800.5,640.5 L880.5,640.5 L880.5,720.5 L800.5,720.5 z" fill-opacity="0" stroke="#202C4C" stroke-width="1"/>
    </g>
    <g>
      <path d="M880.5,640.5 L960.5,640.5 L960.5,720.5 L880.5,720.5 z" fill="#7DB2D5"/>
      <path d="M880.5,640.5 L960.5,640.5 L960.5,720.5 L880.5,720.5 z" fill-opacity="0" stroke="#202C4C" stroke-width="1"/>
    </g>
    <g>
      <path d="M880.5,560.5 L960.5,560.5 L960.5,640.5 L880.5,640.5 z" fill="#7DB2D5"/>
      <path d="M880.5,560.5 L960.5,560.5 L960.5,640.5 L880.5,640.5 z" fill-opacity="0" stroke="#202C4C" stroke-width="1"/>
    </g>
    <g>
      <path d="M880.5,480.5 L960.5,480.5 L960.5,560.5 L880.5,560.5 z" fill="#7DB2D5"/>
      <path d="M880.5,480.5 L960.5,480.5 L960.5,560.5 L880.5,560.5 z" fill-opacity="0" stroke="#202C4C" stroke-width="1"/>
    </g>
    <g>
      <path d="M960.5,480.5 L1040.5,480.5 L1040.5,560.5 L960.5,560.5 z" fill="#7DB2D5"/>
      <path d="M960.5,480.5 L1040.5,480.5 L1040.5,560.5 L960.5,560.5 z" fill-opacity="0" stroke="#202C4C" stroke-width="1"/>
    </g>
    <g>
      <path d="M1040.5,480.5 L1120.5,480.5 L1120.5,560.5 L1040.5,560.5 z" fill="#7DB2D5"/>
      <path d="M1040.5,480.5 L1120.5,480.5 L1120.5,560.5 L1040.5,560.5 z" fill-opacity="0" stroke="#202C4C" stroke-width="1"/>
    </g>
    <g>
      <path d="M1040.5,560.5 L1120.5,560.5 L1120.5,640.5 L1040.5,640.5 z" fill="#7DB2D5"/>
      <path d="M1040.5,560.5 L1120.5,560.5 L1120.5,640.5 L1040.5,640.5 z" fill-opacity="0" stroke="#202C4C" stroke-width="1"/>
    </g>
    <g>
      <path d="M1040.5,640.5 L1120.5,640.5 L1120.5,720.5 L1040.5,720.5 z" fill="#7DB2D5"/>
      <path d="M1040.5,640.5 L1120.5,640.5 L1120.5,720.5 L1040.5,720.5 z" fill-opacity="0" stroke="#202C4C" stroke-width="1"/>
    </g>
    <text transform="matrix(1, 0, 0, 1, 923.552, 754.5)">
      <tspan x="-93.552" y="8.5" font-family="HelveticaNeue-Bold" font-size="24" fill="#202C4C">0 pipes, 0 lenght</tspan>
    </text>
    <path d="M80.5,880.5 L480.5,880.5" fill-opacity="0" stroke="#202C4C" stroke-width="1" stroke-dasharray="10,7" stroke-miterlimit="9"/>
    <path d="M80.5,880.5 L80.5,1120.5" fill-opacity="0" stroke="#202C4C" stroke-width="1" stroke-dasharray="10,7"/>
    <path d="M80.5,1120.5 L480.5,1120.5" fill-opacity="0" stroke="#202C4C" stroke-width="1" stroke-dasharray="10,7"/>
    <path d="M480.5,1120.5 L480.5,880.5" fill-opacity="0" stroke="#202C4C" stroke-width="1" stroke-dasharray="10,7"/>
    <path d="M160.5,880.5 L160.5,1120.5" fill-opacity="0" stroke="#202C4C" stroke-width="1" stroke-dasharray="10,7"/>
    <path d="M240.5,880.5 L240.5,1120.5" fill-opacity="0" stroke="#202C4C" stroke-width="1" stroke-dasharray="10,7"/>
    <path d="M320.5,880.5 L320.5,1120.5" fill-opacity="0" stroke="#202C4C" stroke-width="1" stroke-dasharray="10,7"/>
    <path d="M400.5,880.5 L400.5,1120.5" fill-opacity="0" stroke="#202C4C" stroke-width="1" stroke-dasharray="10,7"/>
    <path d="M80.5,960.5 L480.5,960.5" fill-opacity="0" stroke="#202C4C" stroke-width="1" stroke-dasharray="10,7"/>
    <path d="M80.5,1040.5 L480.5,1040.5" fill-opacity="0" stroke="#202C4C" stroke-width="1" stroke-dasharray="10,7"/>
    <g>
      <path d="M80.5,880.5 L160.5,880.5 L160.5,960.5 L80.5,960.5 z" fill="#7DB2D5"/>
      <path d="M80.5,880.5 L160.5,880.5 L160.5,960.5 L80.5,960.5 z" fill-opacity="0" stroke="#202C4C" stroke-width="1"/>
    </g>
    <g>
      <path d="M240.5,1040.5 L320.5,1040.5 L320.5,1120.5 L240.5,1120.5 z" fill="#7DB2D5"/>
      <path d="M240.5,1040.5 L320.5,1040.5 L320.5,1120.5 L240.5,1120.5 z" fill-opacity="0" stroke="#202C4C" stroke-width="1"/>
    </g>
    <g>
      <path d="M400.5,880.5 L480.5,880.5 L480.5,960.5 L400.5,960.5 z" fill="#7DB2D5"/>
      <path d="M400.5,880.5 L480.5,880.5 L480.5,960.5 L400.5,960.5 z" fill-opacity="0" stroke="#202C4C" stroke-width="1"/>
    </g>
    <g>
      <path d="M400.5,1040.5 L480.5,1040.5 L480.5,1120.5 L400.5,1120.5 z" fill="#7DB2D5"/>
      <path d="M400.5,1040.5 L480.5,1040.5 L480.5,1120.5 L400.5,1120.5 z" fill-opacity="0" stroke="#202C4C" stroke-width="1"/>
    </g>
    <text transform="matrix(1, 0, 0, 1, 283.524, 354.5)">
      <tspan x="-41.022" y="-16.5" font-family="HelveticaNeue-Bold" font-size="18" fill="#202C4C">[1,0,0,0,1]</tspan>
      <tspan x="-41.022" y="6.5" font-family="HelveticaNeue-Bold" font-size="18" fill="#202C4C">[0,0,1,0,0]</tspan>
      <tspan x="-41.022" y="29.5" font-family="HelveticaNeue-Bold" font-size="18" fill="#202C4C">[1,0,0,0,1]</tspan>
    </text>
    <text transform="matrix(1, 0, 0, 1, 283.524, 754.5)">
      <tspan x="-41.022" y="-16.5" font-family="HelveticaNeue-Bold" font-size="18" fill="#202C4C">[1,0,1,1,1]</tspan>
      <tspan x="-41.022" y="6.5" font-family="HelveticaNeue-Bold" font-size="18" fill="#202C4C">[1,0,1,0,1]</tspan>
      <tspan x="-41.022" y="29.5" font-family="HelveticaNeue-Bold" font-size="18" fill="#202C4C">[1,1,1,0,1]</tspan>
    </text>
    <text transform="matrix(1, 0, 0, 1, 919.328, 844.5)">
      <tspan x="-29.328" y="8.5" font-family="HelveticaNeue-Bold" font-size="24" fill="#202C4C">Third</tspan>
    </text>
    <path d="M720.5,880.5 L1120.5,880.5" fill-opacity="0" stroke="#202C4C" stroke-width="1" stroke-dasharray="10,7" stroke-miterlimit="9"/>
    <path d="M720.5,880.5 L720.5,1120.5" fill-opacity="0" stroke="#202C4C" stroke-width="1" stroke-dasharray="10,7"/>
    <path d="M720.5,1120.5 L1120.5,1120.5" fill-opacity="0" stroke="#202C4C" stroke-width="1" stroke-dasharray="10,7"/>
    <path d="M1120.5,1120.5 L1120.5,880.5" fill-opacity="0" stroke="#202C4C" stroke-width="1" stroke-dasharray="10,7"/>
    <path d="M800.5,880.5 L800.5,1120.5" fill-opacity="0" stroke="#202C4C" stroke-width="1" stroke-dasharray="10,7"/>
    <path d="M880.5,880.5 L880.5,1120.5" fill-opacity="0" stroke="#202C4C" stroke-width="1" stroke-dasharray="10,7"/>
    <path d="M960.5,880.5 L960.5,1120.5" fill-opacity="0" stroke="#202C4C" stroke-width="1" stroke-dasharray="10,7"/>
    <path d="M1040.5,880.5 L1040.5,1120.5" fill-opacity="0" stroke="#202C4C" stroke-width="1" stroke-dasharray="10,7"/>
    <path d="M720.5,960.5 L1120.5,960.5" fill-opacity="0" stroke="#202C4C" stroke-width="1" stroke-dasharray="10,7"/>
    <path d="M720.5,1040.5 L1120.5,1040.5" fill-opacity="0" stroke="#202C4C" stroke-width="1" stroke-dasharray="10,7"/>
    <g>
      <path d="M720.5,880.5 L800.5,880.5 L800.5,960.5 L720.5,960.5 z" fill="#7DB2D5"/>
      <path d="M720.5,880.5 L800.5,880.5 L800.5,960.5 L720.5,960.5 z" fill-opacity="0" stroke="#202C4C" stroke-width="1"/>
    </g>
    <g>
      <path d="M880.5,1040.5 L960.5,1040.5 L960.5,1120.5 L880.5,1120.5 z" fill="#7DB2D5"/>
      <path d="M880.5,1040.5 L960.5,1040.5 L960.5,1120.5 L880.5,1120.5 z" fill-opacity="0" stroke="#202C4C" stroke-width="1"/>
    </g>
    <g>
      <path d="M1040.5,880.5 L1120.5,880.5 L1120.5,960.5 L1040.5,960.5 z" fill="#7DB2D5"/>
      <path d="M1040.5,880.5 L1120.5,880.5 L1120.5,960.5 L1040.5,960.5 z" fill-opacity="0" stroke="#202C4C" stroke-width="1"/>
    </g>
    <g>
      <path d="M1040.5,1040.5 L1120.5,1040.5 L1120.5,1120.5 L1040.5,1120.5 z" fill="#7DB2D5"/>
      <path d="M1040.5,1040.5 L1120.5,1040.5 L1120.5,1120.5 L1040.5,1120.5 z" fill-opacity="0" stroke="#202C4C" stroke-width="1"/>
    </g>
    <path d="M800.5,960.5 L1040.5,960.5" fill-opacity="0" stroke="#202C4C" stroke-width="6"/>
    <path d="M1040.5,960.5 L1040.5,1040.5" fill-opacity="0" stroke="#202C4C" stroke-width="6"/>
    <path d="M1040.5,1040.5 L960.5,1040.5" fill-opacity="0" stroke="#202C4C" stroke-width="6"/>
    <text transform="matrix(1, 0, 0, 1, 923.552, 1154.5)">
      <tspan x="-93.552" y="8.5" font-family="HelveticaNeue-Bold" font-size="24" fill="#202C4C">3 pipes, 5 lenght</tspan>
    </text>
    <text transform="matrix(1, 0, 0, 1, 283.524, 1154.5)">
      <tspan x="-41.022" y="-16.5" font-family="HelveticaNeue-Bold" font-size="18" fill="#202C4C">[1,0,0,0,1]</tspan>
      <tspan x="-41.022" y="6.5" font-family="HelveticaNeue-Bold" font-size="18" fill="#202C4C">[0,0,0,0,1]</tspan>
      <tspan x="-41.022" y="29.5" font-family="HelveticaNeue-Bold" font-size="18" fill="#202C4C">[0,0,1,0,1]</tspan>
    </text>
    <text transform="matrix(1, 0, 0, 1, 285, 1245)">
      <tspan x="-37.572" y="8" font-family="HelveticaNeue-Bold" font-size="24" fill="#202C4C">Fourth</tspan>
    </text>
    <path d="M80.5,1280.5 L480.5,1280.5" fill-opacity="0" stroke="#202C4C" stroke-width="1" stroke-dasharray="10,7" stroke-miterlimit="9"/>
    <path d="M80.5,1280.5 L80.5,1520.5" fill-opacity="0" stroke="#202C4C" stroke-width="1" stroke-dasharray="10,7"/>
    <path d="M80.5,1520.5 L480.5,1520.5" fill-opacity="0" stroke="#202C4C" stroke-width="1" stroke-dasharray="10,7"/>
    <path d="M480.5,1520.5 L480.5,1280.5" fill-opacity="0" stroke="#202C4C" stroke-width="1" stroke-dasharray="10,7"/>
    <path d="M160.5,1280.5 L160.5,1520.5" fill-opacity="0" stroke="#202C4C" stroke-width="1" stroke-dasharray="10,7"/>
    <path d="M240.5,1280.5 L240.5,1520.5" fill-opacity="0" stroke="#202C4C" stroke-width="1" stroke-dasharray="10,7"/>
    <path d="M320.5,1280.5 L320.5,1520.5" fill-opacity="0" stroke="#202C4C" stroke-width="1" stroke-dasharray="10,7"/>
    <path d="M400.5,1280.5 L400.5,1520.5" fill-opacity="0" stroke="#202C4C" stroke-width="1" stroke-dasharray="10,7"/>
    <path d="M80.5,1360.5 L480.5,1360.5" fill-opacity="0" stroke="#202C4C" stroke-width="1" stroke-dasharray="10,7"/>
    <path d="M80.5,1440.5 L480.5,1440.5" fill-opacity="0" stroke="#202C4C" stroke-width="1" stroke-dasharray="10,7"/>
    <g>
      <path d="M80.5,1280.5 L160.5,1280.5 L160.5,1360.5 L80.5,1360.5 z" fill="#7DB2D5"/>
      <path d="M80.5,1280.5 L160.5,1280.5 L160.5,1360.5 L80.5,1360.5 z" fill-opacity="0" stroke="#202C4C" stroke-width="1"/>
    </g>
    <g>
      <path d="M240.5,1280.5 L320.5,1280.5 L320.5,1360.5 L240.5,1360.5 z" fill="#7DB2D5"/>
      <path d="M240.5,1280.5 L320.5,1280.5 L320.5,1360.5 L240.5,1360.5 z" fill-opacity="0" stroke="#202C4C" stroke-width="1"/>
    </g>
    <g>
      <path d="M400.5,1440.5 L480.5,1440.5 L480.5,1520.5 L400.5,1520.5 z" fill="#7DB2D5"/>
      <path d="M400.5,1440.5 L480.5,1440.5 L480.5,1520.5 L400.5,1520.5 z" fill-opacity="0" stroke="#202C4C" stroke-width="1"/>
    </g>
    <path d="M720.5,1280.5 L1120.5,1280.5" fill-opacity="0" stroke="#202C4C" stroke-width="1" stroke-dasharray="10,7" stroke-miterlimit="9"/>
    <path d="M720.5,1280.5 L720.5,1520.5" fill-opacity="0" stroke="#202C4C" stroke-width="1" stroke-dasharray="10,7"/>
    <path d="M720.5,1520.5 L1120.5,1520.5" fill-opacity="0" stroke="#202C4C" stroke-width="1" stroke-dasharray="10,7"/>
    <path d="M1120.5,1520.5 L1120.5,1280.5" fill-opacity="0" stroke="#202C4C" stroke-width="1" stroke-dasharray="10,7"/>
    <path d="M800.5,1280.5 L800.5,1520.5" fill-opacity="0" stroke="#202C4C" stroke-width="1" stroke-dasharray="10,7"/>
    <path d="M880.5,1280.5 L880.5,1520.5" fill-opacity="0" stroke="#202C4C" stroke-width="1" stroke-dasharray="10,7"/>
    <path d="M960.5,1280.5 L960.5,1520.5" fill-opacity="0" stroke="#202C4C" stroke-width="1" stroke-dasharray="10,7"/>
    <path d="M1040.5,1280.5 L1040.5,1520.5" fill-opacity="0" stroke="#202C4C" stroke-width="1" stroke-dasharray="10,7"/>
    <path d="M720.5,1360.5 L1120.5,1360.5" fill-opacity="0" stroke="#202C4C" stroke-width="1" stroke-dasharray="10,7"/>
    <path d="M720.5,1440.5 L1120.5,1440.5" fill-opacity="0" stroke="#202C4C" stroke-width="1" stroke-dasharray="10,7"/>
    <g>
      <path d="M720.5,1280.5 L800.5,1280.5 L800.5,1360.5 L720.5,1360.5 z" fill="#7DB2D5"/>
      <path d="M720.5,1280.5 L800.5,1280.5 L800.5,1360.5 L720.5,1360.5 z" fill-opacity="0" stroke="#202C4C" stroke-width="1"/>
    </g>
    <g>
      <path d="M880.5,1280.5 L960.5,1280.5 L960.5,1360.5 L880.5,1360.5 z" fill="#7DB2D5"/>
      <path d="M880.5,1280.5 L960.5,1280.5 L960.5,1360.5 L880.5,1360.5 z" fill-opacity="0" stroke="#202C4C" stroke-width="1"/>
    </g>
    <g>
      <path d="M1040.5,1440.5 L1120.5,1440.5 L1120.5,1520.5 L1040.5,1520.5 z" fill="#7DB2D5"/>
      <path d="M1040.5,1440.5 L1120.5,1440.5 L1120.5,1520.5 L1040.5,1520.5 z" fill-opacity="0" stroke="#202C4C" stroke-width="1"/>
    </g>
    <path d="M800.5,1360.5 L880.5,1360.5" fill-opacity="0" stroke="#202C4C" stroke-width="6"/>
    <text transform="matrix(1, 0, 0, 1, 923.552, 1554.5)">
      <tspan x="-93.552" y="8.5" font-family="HelveticaNeue-Bold" font-size="24" fill="#202C4C">1 pipes, 1 lenght</tspan>
    </text>
    <text transform="matrix(1, 0, 0, 1, 283.524, 1554.5)">
      <tspan x="-41.022" y="-16.5" font-family="HelveticaNeue-Bold" font-size="18" fill="#202C4C">[1,0,1,0,0]</tspan>
      <tspan x="-41.022" y="6.5" font-family="HelveticaNeue-Bold" font-size="18" fill="#202C4C">[0,0,0,0,0]</tspan>
      <tspan x="-41.022" y="29.5" font-family="HelveticaNeue-Bold" font-size="18" fill="#202C4C">[0,0,0,0,1]</tspan>
    </text>
    <text transform="matrix(1, 0, 0, 1, 925, 1245)">
      <tspan x="-37.572" y="8" font-family="HelveticaNeue-Bold" font-size="24" fill="#202C4C">Fourth</tspan>
    </text>
    <text transform="matrix(1, 0, 0, 1, 285, 1645)">
      <tspan x="-25.548" y="8" font-family="HelveticaNeue-Bold" font-size="24" fill="#202C4C">Fifth</tspan>
    </text>
    <path d="M80.5,1680.5 L480.5,1680.5" fill-opacity="0" stroke="#202C4C" stroke-width="1" stroke-dasharray="10,7" stroke-miterlimit="9"/>
    <path d="M80.5,1680.5 L80.5,1920.5" fill-opacity="0" stroke="#202C4C" stroke-width="1" stroke-dasharray="10,7"/>
    <path d="M80.5,1920.5 L480.5,1920.5" fill-opacity="0" stroke="#202C4C" stroke-width="1" stroke-dasharray="10,7"/>
    <path d="M480.5,1920.5 L480.5,1680.5" fill-opacity="0" stroke="#202C4C" stroke-width="1" stroke-dasharray="10,7"/>
    <path d="M160.5,1680.5 L160.5,1920.5" fill-opacity="0" stroke="#202C4C" stroke-width="1" stroke-dasharray="10,7"/>
    <path d="M240.5,1680.5 L240.5,1920.5" fill-opacity="0" stroke="#202C4C" stroke-width="1" stroke-dasharray="10,7"/>
    <path d="M320.5,1680.5 L320.5,1920.5" fill-opacity="0" stroke="#202C4C" stroke-width="1" stroke-dasharray="10,7"/>
    <path d="M400.5,1680.5 L400.5,1920.5" fill-opacity="0" stroke="#202C4C" stroke-width="1" stroke-dasharray="10,7"/>
    <path d="M80.5,1760.5 L480.5,1760.5" fill-opacity="0" stroke="#202C4C" stroke-width="1" stroke-dasharray="10,7"/>
    <path d="M80.5,1840.5 L480.5,1840.5" fill-opacity="0" stroke="#202C4C" stroke-width="1" stroke-dasharray="10,7"/>
    <g>
      <path d="M80.5,1680.5 L160.5,1680.5 L160.5,1760.5 L80.5,1760.5 z" fill="#7DB2D5"/>
      <path d="M80.5,1680.5 L160.5,1680.5 L160.5,1760.5 L80.5,1760.5 z" fill-opacity="0" stroke="#202C4C" stroke-width="1"/>
    </g>
    <g>
      <path d="M400.5,1680.5 L480.5,1680.5 L480.5,1760.5 L400.5,1760.5 z" fill="#7DB2D5"/>
      <path d="M400.5,1680.5 L480.5,1680.5 L480.5,1760.5 L400.5,1760.5 z" fill-opacity="0" stroke="#202C4C" stroke-width="1"/>
    </g>
    <g>
      <path d="M240.5,1840.5 L320.5,1840.5 L320.5,1920.5 L240.5,1920.5 z" fill="#7DB2D5"/>
      <path d="M240.5,1840.5 L320.5,1840.5 L320.5,1920.5 L240.5,1920.5 z" fill-opacity="0" stroke="#202C4C" stroke-width="1"/>
    </g>
    <path d="M720.5,1680.5 L1120.5,1680.5" fill-opacity="0" stroke="#202C4C" stroke-width="1" stroke-dasharray="10,7" stroke-miterlimit="9"/>
    <path d="M720.5,1680.5 L720.5,1920.5" fill-opacity="0" stroke="#202C4C" stroke-width="1" stroke-dasharray="10,7"/>
    <path d="M720.5,1920.5 L1120.5,1920.5" fill-opacity="0" stroke="#202C4C" stroke-width="1" stroke-dasharray="10,7"/>
    <path d="M1120.5,1920.5 L1120.5,1680.5" fill-opacity="0" stroke="#202C4C" stroke-width="1" stroke-dasharray="10,7"/>
    <path d="M800.5,1680.5 L800.5,1920.5" fill-opacity="0" stroke="#202C4C" stroke-width="1" stroke-dasharray="10,7"/>
    <path d="M880.5,1680.5 L880.5,1920.5" fill-opacity="0" stroke="#202C4C" stroke-width="1" stroke-dasharray="10,7"/>
    <path d="M960.5,1680.5 L960.5,1920.5" fill-opacity="0" stroke="#202C4C" stroke-width="1" stroke-dasharray="10,7"/>
    <path d="M1040.5,1680.5 L1040.5,1920.5" fill-opacity="0" stroke="#202C4C" stroke-width="1" stroke-dasharray="10,7"/>
    <path d="M720.5,1760.5 L1120.5,1760.5" fill-opacity="0" stroke="#202C4C" stroke-width="1" stroke-dasharray="10,7"/>
    <path d="M720.5,1840.5 L1120.5,1840.5" fill-opacity="0" stroke="#202C4C" stroke-width="1" stroke-dasharray="10,7"/>
    <g>
      <path d="M720.5,1680.5 L800.5,1680.5 L800.5,1760.5 L720.5,1760.5 z" fill="#7DB2D5"/>
      <path d="M720.5,1680.5 L800.5,1680.5 L800.5,1760.5 L720.5,1760.5 z" fill-opacity="0" stroke="#202C4C" stroke-width="1"/>
    </g>
    <g>
      <path d="M1040.5,1680.5 L1120.5,1680.5 L1120.5,1760.5 L1040.5,1760.5 z" fill="#7DB2D5"/>
      <path d="M1040.5,1680.5 L1120.5,1680.5 L1120.5,1760.5 L1040.5,1760.5 z" fill-opacity="0" stroke="#202C4C" stroke-width="1"/>
    </g>
    <g>
      <path d="M880.5,1840.5 L960.5,1840.5 L960.5,1920.5 L880.5,1920.5 z" fill="#7DB2D5"/>
      <path d="M880.5,1840.5 L960.5,1840.5 L960.5,1920.5 L880.5,1920.5 z" fill-opacity="0" stroke="#202C4C" stroke-width="1"/>
    </g>
    <path d="M800.5,1760.5 L1040.5,1760.5" fill-opacity="0" stroke="#202C4C" stroke-width="6"/>
    <text transform="matrix(1, 0, 0, 1, 923.552, 1954.5)">
      <tspan x="-93.552" y="8.5" font-family="HelveticaNeue-Bold" font-size="24" fill="#202C4C">1 pipes, 3 lenght</tspan>
    </text>
    <text transform="matrix(1, 0, 0, 1, 283.524, 1954.5)">
      <tspan x="-41.022" y="-16.5" font-family="HelveticaNeue-Bold" font-size="18" fill="#202C4C">[1,0,0,0,1]</tspan>
      <tspan x="-41.022" y="6.5" font-family="HelveticaNeue-Bold" font-size="18" fill="#202C4C">[0,0,0,0,0]</tspan>
      <tspan x="-41.022" y="29.5" font-family="HelveticaNeue-Bold" font-size="18" fill="#202C4C">[0,0,1,0,0]</tspan>
    </text>
    <text transform="matrix(1, 0, 0, 1, 925, 1645)">
      <tspan x="-25.548" y="8" font-family="HelveticaNeue-Bold" font-size="24" fill="#202C4C">Fifth</tspan>
    </text>
    <text transform="matrix(1, 0, 0, 1, 285, 2045)">
      <tspan x="-28.668" y="8" font-family="HelveticaNeue-Bold" font-size="24" fill="#202C4C">Sixth</tspan>
    </text>
    <path d="M80.5,2080.5 L480.5,2080.5" fill-opacity="0" stroke="#202C4C" stroke-width="1" stroke-dasharray="10,7" stroke-miterlimit="9"/>
    <path d="M80.5,2080.5 L80.5,2480.5" fill-opacity="0" stroke="#202C4C" stroke-width="1" stroke-dasharray="10,7"/>
    <path d="M80.5,2320.5 L480.5,2320.5" fill-opacity="0" stroke="#202C4C" stroke-width="1" stroke-dasharray="10,7"/>
    <path d="M480.5,2480.5 L480.5,2080.5" fill-opacity="0" stroke="#202C4C" stroke-width="1" stroke-dasharray="10,7"/>
    <path d="M160.5,2080.5 L160.5,2480.5" fill-opacity="0" stroke="#202C4C" stroke-width="1" stroke-dasharray="10,7"/>
    <path d="M240.5,2080.5 L240.5,2480.5" fill-opacity="0" stroke="#202C4C" stroke-width="1" stroke-dasharray="10,7"/>
    <path d="M320.5,2080.5 L320.5,2480.5" fill-opacity="0" stroke="#202C4C" stroke-width="1" stroke-dasharray="10,7"/>
    <path d="M400.5,2080.5 L400.5,2480.5" fill-opacity="0" stroke="#202C4C" stroke-width="1" stroke-dasharray="10,7"/>
    <path d="M80.5,2160.5 L480.5,2160.5" fill-opacity="0" stroke="#202C4C" stroke-width="1" stroke-dasharray="10,7"/>
    <path d="M80.5,2240.5 L480.5,2240.5" fill-opacity="0" stroke="#202C4C" stroke-width="1" stroke-dasharray="10,7"/>
    <g>
      <path d="M80.5,2080.5 L160.5,2080.5 L160.5,2160.5 L80.5,2160.5 z" fill="#7DB2D5"/>
      <path d="M80.5,2080.5 L160.5,2080.5 L160.5,2160.5 L80.5,2160.5 z" fill-opacity="0" stroke="#202C4C" stroke-width="1"/>
    </g>
    <g>
      <path d="M400.5,2080.5 L480.5,2080.5 L480.5,2160.5 L400.5,2160.5 z" fill="#7DB2D5"/>
      <path d="M400.5,2080.5 L480.5,2080.5 L480.5,2160.5 L400.5,2160.5 z" fill-opacity="0" stroke="#202C4C" stroke-width="1"/>
    </g>
    <g>
      <path d="M240.5,2240.5 L320.5,2240.5 L320.5,2320.5 L240.5,2320.5 z" fill="#7DB2D5"/>
      <path d="M240.5,2240.5 L320.5,2240.5 L320.5,2320.5 L240.5,2320.5 z" fill-opacity="0" stroke="#202C4C" stroke-width="1"/>
    </g>
    <text transform="matrix(1, 0, 0, 1, 283.524, 2537.5)">
      <tspan x="-41.022" y="-39.5" font-family="HelveticaNeue-Bold" font-size="18" fill="#202C4C">[1,0,0,0,1]</tspan>
      <tspan x="-41.022" y="-16.5" font-family="HelveticaNeue-Bold" font-size="18" fill="#202C4C">[0,0,0,0,0]</tspan>
      <tspan x="-41.022" y="6.5" font-family="HelveticaNeue-Bold" font-size="18" fill="#202C4C">[0,0,1,0,0]</tspan>
      <tspan x="-41.022" y="29.5" font-family="HelveticaNeue-Bold" font-size="18" fill="#202C4C">[0,0,0,0,0]</tspan>
      <tspan x="-41.022" y="52.5" font-family="HelveticaNeue-Bold" font-size="18" fill="#202C4C">[1,0,0,0,1]</tspan>
    </text>
    <path d="M80.5,2400.5 L480.5,2400.5" fill-opacity="0" stroke="#202C4C" stroke-width="1" stroke-dasharray="10,7"/>
    <path d="M80.5,2480.5 L480.5,2480.5" fill-opacity="0" stroke="#202C4C" stroke-width="1" stroke-dasharray="10,7"/>
    <g>
      <path d="M80.5,2400.5 L160.5,2400.5 L160.5,2480.5 L80.5,2480.5 z" fill="#7DB2D5"/>
      <path d="M80.5,2400.5 L160.5,2400.5 L160.5,2480.5 L80.5,2480.5 z" fill-opacity="0" stroke="#202C4C" stroke-width="1"/>
    </g>
    <g>
      <path d="M400.5,2400.5 L480.5,2400.5 L480.5,2480.5 L400.5,2480.5 z" fill="#7DB2D5"/>
      <path d="M400.5,2400.5 L480.5,2400.5 L480.5,2480.5 L400.5,2480.5 z" fill-opacity="0" stroke="#202C4C" stroke-width="1"/>
    </g>
    <text transform="matrix(1, 0, 0, 1, 925, 2045)">
      <tspan x="-28.668" y="8" font-family="HelveticaNeue-Bold" font-size="24" fill="#202C4C">Sixth</tspan>
    </text>
    <path d="M720.5,2080.5 L1120.5,2080.5" fill-opacity="0" stroke="#202C4C" stroke-width="1" stroke-dasharray="10,7" stroke-miterlimit="9"/>
    <path d="M720.5,2320.5 L1120.5,2320.5" fill-opacity="0" stroke="#202C4C" stroke-width="1" stroke-dasharray="10,7"/>
    <path d="M1120.5,2480.5 L1120.5,2080.5" fill-opacity="0" stroke="#202C4C" stroke-width="1" stroke-dasharray="10,7"/>
    <path d="M800.5,2080.5 L800.5,2480.5" fill-opacity="0" stroke="#202C4C" stroke-width="1" stroke-dasharray="10,7"/>
    <path d="M880.5,2080.5 L880.5,2480.5" fill-opacity="0" stroke="#202C4C" stroke-width="1" stroke-dasharray="10,7"/>
    <path d="M960.5,2080.5 L960.5,2480.5" fill-opacity="0" stroke="#202C4C" stroke-width="1" stroke-dasharray="10,7"/>
    <path d="M1040.5,2080.5 L1040.5,2480.5" fill-opacity="0" stroke="#202C4C" stroke-width="1" stroke-dasharray="10,7"/>
    <path d="M720.5,2160.5 L1120.5,2160.5" fill-opacity="0" stroke="#202C4C" stroke-width="1" stroke-dasharray="10,7"/>
    <path d="M720.5,2240.5 L1120.5,2240.5" fill-opacity="0" stroke="#202C4C" stroke-width="1" stroke-dasharray="10,7"/>
    <g>
      <path d="M720.5,2080.5 L800.5,2080.5 L800.5,2160.5 L720.5,2160.5 z" fill="#7DB2D5"/>
      <path d="M720.5,2080.5 L800.5,2080.5 L800.5,2160.5 L720.5,2160.5 z" fill-opacity="0" stroke="#202C4C" stroke-width="1"/>
    </g>
    <g>
      <path d="M1040.5,2080.5 L1120.5,2080.5 L1120.5,2160.5 L1040.5,2160.5 z" fill="#7DB2D5"/>
      <path d="M1040.5,2080.5 L1120.5,2080.5 L1120.5,2160.5 L1040.5,2160.5 z" fill-opacity="0" stroke="#202C4C" stroke-width="1"/>
    </g>
    <g>
      <path d="M880.5,2240.5 L960.5,2240.5 L960.5,2320.5 L880.5,2320.5 z" fill="#7DB2D5"/>
      <path d="M880.5,2240.5 L960.5,2240.5 L960.5,2320.5 L880.5,2320.5 z" fill-opacity="0" stroke="#202C4C" stroke-width="1"/>
    </g>
    <path d="M720.5,2400.5 L1120.5,2400.5" fill-opacity="0" stroke="#202C4C" stroke-width="1" stroke-dasharray="10,7"/>
    <path d="M720.5,2480.5 L1120.5,2480.5" fill-opacity="0" stroke="#202C4C" stroke-width="1" stroke-dasharray="10,7"/>
    <g>
      <path d="M720.5,2400.5 L800.5,2400.5 L800.5,2480.5 L720.5,2480.5 z" fill="#7DB2D5"/>
      <path d="M720.5,2400.5 L800.5,2400.5 L800.5,2480.5 L720.5,2480.5 z" fill-opacity="0" stroke="#202C4C" stroke-width="1"/>
    </g>
    <g>
      <path d="M1040.5,2400.5 L1120.5,2400.5 L1120.5,2480.5 L1040.5,2480.5 z" fill="#7DB2D5"/>
      <path d="M1040.5,2400.5 L1120.5,2400.5 L1120.5,2480.5 L1040.5,2480.5 z" fill-opacity="0" stroke="#202C4C" stroke-width="1"/>
    </g>
    <text transform="matrix(1, 0, 0, 1, 923.552, 2514.5)">
      <tspan x="-93.552" y="8.5" font-family="HelveticaNeue-Bold" font-size="24" fill="#202C4C">3 pipes, 9 lenght</tspan>
    </text>
    <path d="M720.5,2080.5 L720.5,2480.5" fill-opacity="0" stroke="#202C4C" stroke-width="1" stroke-dasharray="10,7"/>
    <path d="M800.5,2400.5 L800.5,2160.5" fill-opacity="0" stroke="#202C4C" stroke-width="6"/>
    <path d="M800.5,2160.5 L1040.5,2160.5" fill-opacity="0" stroke="#202C4C" stroke-width="6"/>
    <path d="M1040.5,2160.5 L1040.5,2400.5" fill-opacity="0" stroke="#202C4C" stroke-width="6"/>
    <text transform="matrix(1, 0, 0, 1, 290, 2699)">
      <tspan x="-46.26" y="-6" font-family="HelveticaNeue-Bold" font-size="24" fill="#202C4C">Seventh</tspan>
    </text>
    <path d="M80.5,2720.5 L480.5,2720.5" fill-opacity="0" stroke="#202C4C" stroke-width="1" stroke-dasharray="10,7" stroke-miterlimit="9"/>
    <path d="M80.5,2960.5 L480.5,2960.5" fill-opacity="0" stroke="#202C4C" stroke-width="1" stroke-dasharray="10,7"/>
    <path d="M480.5,3120.5 L480.5,2720.5" fill-opacity="0" stroke="#202C4C" stroke-width="1" stroke-dasharray="10,7"/>
    <path d="M160.5,2720.5 L160.5,3120.5" fill-opacity="0" stroke="#202C4C" stroke-width="1" stroke-dasharray="10,7"/>
    <path d="M240.5,2720.5 L240.5,3120.5" fill-opacity="0" stroke="#202C4C" stroke-width="1" stroke-dasharray="10,7"/>
    <path d="M320.5,2720.5 L320.5,3120.5" fill-opacity="0" stroke="#202C4C" stroke-width="1" stroke-dasharray="10,7"/>
    <path d="M400.5,2720.5 L400.5,3120.5" fill-opacity="0" stroke="#202C4C" stroke-width="1" stroke-dasharray="10,7"/>
    <path d="M80.5,2800.5 L480.5,2800.5" fill-opacity="0" stroke="#202C4C" stroke-width="1" stroke-dasharray="10,7"/>
    <path d="M80.5,2880.5 L480.5,2880.5" fill-opacity="0" stroke="#202C4C" stroke-width="1" stroke-dasharray="10,7"/>
    <g>
      <path d="M80.5,2720.5 L160.5,2720.5 L160.5,2800.5 L80.5,2800.5 z" fill="#7DB2D5"/>
      <path d="M80.5,2720.5 L160.5,2720.5 L160.5,2800.5 L80.5,2800.5 z" fill-opacity="0" stroke="#202C4C" stroke-width="1"/>
    </g>
    <g>
      <path d="M400.5,2720.5 L480.5,2720.5 L480.5,2800.5 L400.5,2800.5 z" fill="#7DB2D5"/>
      <path d="M400.5,2720.5 L480.5,2720.5 L480.5,2800.5 L400.5,2800.5 z" fill-opacity="0" stroke="#202C4C" stroke-width="1"/>
    </g>
    <g>
      <path d="M160.5,2880.5 L240.5,2880.5 L240.5,2960.5 L160.5,2960.5 z" fill="#7DB2D5"/>
      <path d="M160.5,2880.5 L240.5,2880.5 L240.5,2960.5 L160.5,2960.5 z" fill-opacity="0" stroke="#202C4C" stroke-width="1"/>
    </g>
    <text transform="matrix(1, 0, 0, 1, 283.524, 3177.5)">
      <tspan x="-41.022" y="-39.5" font-family="HelveticaNeue-Bold" font-size="18" fill="#202C4C">[1,0,0,0,1]</tspan>
      <tspan x="-41.022" y="-16.5" font-family="HelveticaNeue-Bold" font-size="18" fill="#202C4C">[0,0,1,0,0]</tspan>
      <tspan x="-41.022" y="6.5" font-family="HelveticaNeue-Bold" font-size="18" fill="#202C4C">[0,1,0,1,0]</tspan>
      <tspan x="-41.022" y="29.5" font-family="HelveticaNeue-Bold" font-size="18" fill="#202C4C">[0,0,1,0,0]</tspan>
      <tspan x="-41.022" y="52.5" font-family="HelveticaNeue-Bold" font-size="18" fill="#202C4C">[1,0,0,0,1]</tspan>
    </text>
    <path d="M80.5,3040.5 L480.5,3040.5" fill-opacity="0" stroke="#202C4C" stroke-width="1" stroke-dasharray="10,7"/>
    <path d="M80.5,3120.5 L480.5,3120.5" fill-opacity="0" stroke="#202C4C" stroke-width="1" stroke-dasharray="10,7"/>
    <g>
      <path d="M80.5,3040.5 L160.5,3040.5 L160.5,3120.5 L80.5,3120.5 z" fill="#7DB2D5"/>
      <path d="M80.5,3040.5 L160.5,3040.5 L160.5,3120.5 L80.5,3120.5 z" fill-opacity="0" stroke="#202C4C" stroke-width="1"/>
    </g>
    <g>
      <path d="M400.5,3040.5 L480.5,3040.5 L480.5,3120.5 L400.5,3120.5 z" fill="#7DB2D5"/>
      <path d="M400.5,3040.5 L480.5,3040.5 L480.5,3120.5 L400.5,3120.5 z" fill-opacity="0" stroke="#202C4C" stroke-width="1"/>
    </g>
    <text transform="matrix(1, 0, 0, 1, 930, 2699)">
      <tspan x="-46.26" y="-6" font-family="HelveticaNeue-Bold" font-size="24" fill="#202C4C">Seventh</tspan>
    </text>
    <path d="M720.5,2720.5 L1120.5,2720.5" fill-opacity="0" stroke="#202C4C" stroke-width="1" stroke-dasharray="10,7" stroke-miterlimit="9"/>
    <path d="M720.5,2960.5 L1120.5,2960.5" fill-opacity="0" stroke="#202C4C" stroke-width="1" stroke-dasharray="10,7"/>
    <path d="M1120.5,3120.5 L1120.5,2720.5" fill-opacity="0" stroke="#202C4C" stroke-width="1" stroke-dasharray="10,7"/>
    <path d="M800.5,2720.5 L800.5,3120.5" fill-opacity="0" stroke="#202C4C" stroke-width="1" stroke-dasharray="10,7"/>
    <path d="M880.5,2720.5 L880.5,3120.5" fill-opacity="0" stroke="#202C4C" stroke-width="1" stroke-dasharray="10,7"/>
    <path d="M960.5,2720.5 L960.5,3120.5" fill-opacity="0" stroke="#202C4C" stroke-width="1" stroke-dasharray="10,7"/>
    <path d="M1040.5,2720.5 L1040.5,3120.5" fill-opacity="0" stroke="#202C4C" stroke-width="1" stroke-dasharray="10,7"/>
    <path d="M720.5,2800.5 L1120.5,2800.5" fill-opacity="0" stroke="#202C4C" stroke-width="1" stroke-dasharray="10,7"/>
    <path d="M720.5,2880.5 L1120.5,2880.5" fill-opacity="0" stroke="#202C4C" stroke-width="1" stroke-dasharray="10,7"/>
    <g>
      <path d="M720.5,2720.5 L800.5,2720.5 L800.5,2800.5 L720.5,2800.5 z" fill="#7DB2D5"/>
      <path d="M720.5,2720.5 L800.5,2720.5 L800.5,2800.5 L720.5,2800.5 z" fill-opacity="0" stroke="#202C4C" stroke-width="1"/>
    </g>
    <g>
      <path d="M1040.5,2720.5 L1120.5,2720.5 L1120.5,2800.5 L1040.5,2800.5 z" fill="#7DB2D5"/>
      <path d="M1040.5,2720.5 L1120.5,2720.5 L1120.5,2800.5 L1040.5,2800.5 z" fill-opacity="0" stroke="#202C4C" stroke-width="1"/>
    </g>
    <path d="M720.5,3040.5 L1120.5,3040.5" fill-opacity="0" stroke="#202C4C" stroke-width="1" stroke-dasharray="10,7"/>
    <path d="M720.5,3120.5 L1120.5,3120.5" fill-opacity="0" stroke="#202C4C" stroke-width="1" stroke-dasharray="10,7"/>
    <g>
      <path d="M720.5,3040.5 L800.5,3040.5 L800.5,3120.5 L720.5,3120.5 z" fill="#7DB2D5"/>
      <path d="M720.5,3040.5 L800.5,3040.5 L800.5,3120.5 L720.5,3120.5 z" fill-opacity="0" stroke="#202C4C" stroke-width="1"/>
    </g>
    <g>
      <path d="M1040.5,3040.5 L1120.5,3040.5 L1120.5,3120.5 L1040.5,3120.5 z" fill="#7DB2D5"/>
      <path d="M1040.5,3040.5 L1120.5,3040.5 L1120.5,3120.5 L1040.5,3120.5 z" fill-opacity="0" stroke="#202C4C" stroke-width="1"/>
    </g>
    <text transform="matrix(1, 0, 0, 1, 923.552, 3154.5)">
      <tspan x="-93.552" y="8.5" font-family="HelveticaNeue-Bold" font-size="24" fill="#202C4C">4 pipes, 4 lenght</tspan>
    </text>
    <path d="M720.5,2720.5 L720.5,3120.5" fill-opacity="0" stroke="#202C4C" stroke-width="1" stroke-dasharray="10,7"/>
    <g>
      <path d="M240.5,2800.5 L320.5,2800.5 L320.5,2880.5 L240.5,2880.5 z" fill="#7DB2D5"/>
      <path d="M240.5,2800.5 L320.5,2800.5 L320.5,2880.5 L240.5,2880.5 z" fill-opacity="0" stroke="#202C4C" stroke-width="1"/>
    </g>
    <g>
      <path d="M320.5,2880.5 L400.5,2880.5 L400.5,2960.5 L320.5,2960.5 z" fill="#7DB2D5"/>
      <path d="M320.5,2880.5 L400.5,2880.5 L400.5,2960.5 L320.5,2960.5 z" fill-opacity="0" stroke="#202C4C" stroke-width="1"/>
    </g>
    <g>
      <path d="M240.5,2960.5 L320.5,2960.5 L320.5,3040.5 L240.5,3040.5 z" fill="#7DB2D5"/>
      <path d="M240.5,2960.5 L320.5,2960.5 L320.5,3040.5 L240.5,3040.5 z" fill-opacity="0" stroke="#202C4C" stroke-width="1"/>
    </g>
    <g>
      <path d="M800.5,2880.5 L880.5,2880.5 L880.5,2960.5 L800.5,2960.5 z" fill="#7DB2D5"/>
      <path d="M800.5,2880.5 L880.5,2880.5 L880.5,2960.5 L800.5,2960.5 z" fill-opacity="0" stroke="#202C4C" stroke-width="1"/>
    </g>
    <g>
      <path d="M880.5,2800.5 L960.5,2800.5 L960.5,2880.5 L880.5,2880.5 z" fill="#7DB2D5"/>
      <path d="M880.5,2800.5 L960.5,2800.5 L960.5,2880.5 L880.5,2880.5 z" fill-opacity="0" stroke="#202C4C" stroke-width="1"/>
    </g>
    <g>
      <path d="M960.5,2880.5 L1040.5,2880.5 L1040.5,2960.5 L960.5,2960.5 z" fill="#7DB2D5"/>
      <path d="M960.5,2880.5 L1040.5,2880.5 L1040.5,2960.5 L960.5,2960.5 z" fill-opacity="0" stroke="#202C4C" stroke-width="1"/>
    </g>
    <g>
      <path d="M880.5,2960.5 L960.5,2960.5 L960.5,3040.5 L880.5,3040.5 z" fill="#7DB2D5"/>
      <path d="M880.5,2960.5 L960.5,2960.5 L960.5,3040.5 L880.5,3040.5 z" fill-opacity="0" stroke="#202C4C" stroke-width="1"/>
    </g>
    <path d="M800.5,2800.5 L880.5,2800.5" fill-opacity="0" stroke="#202C4C" stroke-width="6"/>
    <path d="M960.5,2800.5 L1040.5,2800.5" fill-opacity="0" stroke="#202C4C" stroke-width="6"/>
    <path d="M1040.5,3040.5 L960.5,3040.5" fill-opacity="0" stroke="#202C4C" stroke-width="6"/>
    <path d="M880.5,3040.5 L800.5,3040.5" fill-opacity="0" stroke="#202C4C" stroke-width="6"/>
    <path d="M80.5,2720.5 L80.5,3120.5" fill-opacity="0" stroke="#202C4C" stroke-width="1" stroke-dasharray="10,7"/>
  </g>
  <defs/>
</svg>
