<?xml version="1.0" encoding="UTF-8"?>
<!DOCTYPE svg PUBLIC "-//W3C//DTD SVG 1.1//EN" "http://www.w3.org/Graphics/SVG/1.1/DTD/svg11.dtd">
<svg version="1.1" xmlns="http://www.w3.org/2000/svg" xmlns:xlink="http://www.w3.org/1999/xlink" x="0px" y="0px" width="1200" height="552" viewBox="0, 0, 1200, 552">
  <g id="Background">
    <rect x="0" y="0" width="1200" height="552" fill="#000000" fill-opacity="0"/>
  </g>
  <g id="Layer 1">
    <path d="M72.5,24.5 L1080.5,24.5 L1080.5,96.5 L72.5,96.5 z" fill-opacity="0" stroke="#294270" stroke-width="4"/>
    <text transform="matrix(1, 0, 0, 1, 180, 58.5)">
      <tspan x="-72.246" y="13.5" font-family="Verdana" font-size="36" fill="#294270">Fraction</tspan>
    </text>
    <text transform="matrix(1, 0, 0, 1, 540, 58.5)">
      <tspan x="-61.11" y="13.5" font-family="Verdana" font-size="36" fill="#294270">Ellipsis</tspan>
    </text>
    <text transform="matrix(1, 0, 0, 1, 936, 58.5)">
      <tspan x="-77.563" y="13.5" font-family="Verdana" font-size="36" fill="#294270">Brackets</tspan>
    </text>
    <path d="M288.5,24.5 L288.5,528.5" fill-opacity="0" stroke="#294270" stroke-width="4"/>
    <path d="M72.5,24.5 L72.5,528.5" fill-opacity="0" stroke="#294270" stroke-width="4"/>
    <path d="M792.5,24.5 L792.5,528.5" fill-opacity="0" stroke="#294270" stroke-width="4"/>
    <path d="M1080.5,24.5 L1080.5,528.5" fill-opacity="0" stroke="#294270" stroke-width="4"/>
    <text transform="matrix(1, 0, 0, 1, 180, 130.5)">
      <tspan x="-31.061" y="13.5" font-family="Verdana" font-size="36" fill="#294270">1/3</tspan>
    </text>
    <text transform="matrix(1, 0, 0, 1, 540, 130.5)">
      <tspan x="-117.738" y="13.5" font-family="Verdana" font-size="36" fill="#294270">0.3333333...</tspan>
    </text>
    <text transform="matrix(1, 0, 0, 1, 936, 130.5)">
      <tspan x="-45.782" y="13.5" font-family="Verdana" font-size="36" fill="#294270">0.(3)</tspan>
    </text>
    <text transform="matrix(1, 0, 0, 1, 180, 202.5)">
      <tspan x="-31.061" y="13.5" font-family="Verdana" font-size="36" fill="#294270">5/3</tspan>
    </text>
    <text transform="matrix(1, 0, 0, 1, 540, 202.5)">
      <tspan x="-117.738" y="13.5" font-family="Verdana" font-size="36" fill="#294270">1.6666666...</tspan>
    </text>
    <text transform="matrix(1, 0, 0, 1, 936, 202.5)">
      <tspan x="-45.782" y="13.5" font-family="Verdana" font-size="36" fill="#294270">1.(6)</tspan>
    </text>
    <text transform="matrix(1, 0, 0, 1, 180, 274.5)">
      <tspan x="-31.061" y="13.5" font-family="Verdana" font-size="36" fill="#294270">3/8</tspan>
    </text>
    <text transform="matrix(1, 0, 0, 1, 540, 274.5)">
      <tspan x="-52.321" y="13.5" font-family="Verdana" font-size="36" fill="#294270">0.375</tspan>
    </text>
    <text transform="matrix(1, 0, 0, 1, 936, 274.5)">
      <tspan x="-52.321" y="13.5" font-family="Verdana" font-size="36" fill="#294270">0.375</tspan>
    </text>
    <text transform="matrix(1, 0, 0, 1, 180, 346.5)">
      <tspan x="-42.504" y="13.5" font-family="Verdana" font-size="36" fill="#294270">7/11</tspan>
    </text>
    <text transform="matrix(1, 0, 0, 1, 540, 346.5)">
      <tspan x="-129.182" y="13.5" font-family="Verdana" font-size="36" fill="#294270">0.63636363...</tspan>
    </text>
    <text transform="matrix(1, 0, 0, 1, 936, 346.5)">
      <tspan x="-57.226" y="13.5" font-family="Verdana" font-size="36" fill="#294270">0.(63)</tspan>
    </text>
    <text transform="matrix(1, 0, 0, 1, 180, 418.5)">
      <tspan x="-53.947" y="13.5" font-family="Verdana" font-size="36" fill="#294270">29/12</tspan>
    </text>
    <text transform="matrix(1, 0, 0, 1, 540, 418.5)">
      <tspan x="-117.738" y="13.5" font-family="Verdana" font-size="36" fill="#294270">2.4166666...</tspan>
    </text>
    <text transform="matrix(1, 0, 0, 1, 936, 418.5)">
      <tspan x="-68.669" y="13.5" font-family="Verdana" font-size="36" fill="#294270">2.41(6)</tspan>
    </text>
    <text transform="matrix(1, 0, 0, 1, 180, 490.5)">
      <tspan x="-42.504" y="13.5" font-family="Verdana" font-size="36" fill="#294270">11/7</tspan>
    </text>
    <text transform="matrix(1, 0, 0, 1, 540, 490.5)">
      <tspan x="-220.729" y="13.5" font-family="Verdana" font-size="36" fill="#294270">1.5714285714285714...</tspan>
    </text>
    <path d="M72.5,168.5 L1080.5,168.5" fill-opacity="0" stroke="#294270" stroke-width="4"/>
    <path d="M1080.5,240.5 L72.5,240.5" fill-opacity="0" stroke="#294270" stroke-width="4"/>
    <path d="M72.5,312.5 L1080.5,312.5" fill-opacity="0" stroke="#294270" stroke-width="4"/>
    <path d="M72.5,384.5 L1080.5,384.5" fill-opacity="0" stroke="#294270" stroke-width="4"/>
    <path d="M1080.5,456.5 L72.5,456.5" fill-opacity="0" stroke="#294270" stroke-width="4"/>
    <path d="M72.5,528.5 L1080.5,528.5" fill-opacity="0" stroke="#294270" stroke-width="4"/>
    <text transform="matrix(1, 0, 0, 1, 936, 490.5)">
      <tspan x="-102.999" y="13.5" font-family="Verdana" font-size="36" fill="#294270">1.(571428)</tspan>
    </text>
  </g>
  <defs/>
</svg>
