<?xml version="1.0" encoding="UTF-8"?>
<!DOCTYPE svg PUBLIC "-//W3C//DTD SVG 1.1//EN" "http://www.w3.org/Graphics/SVG/1.1/DTD/svg11.dtd">
<svg version="1.1" xmlns="http://www.w3.org/2000/svg" xmlns:xlink="http://www.w3.org/1999/xlink" x="0px" y="0px" width="720" height="480" viewBox="0, 0, 720, 480">
  <g id="Background">
    <rect x="0" y="0" width="720" height="480" fill="#000000" fill-opacity="0"/>
  </g>
  <g id="Layer 1">
    <g>
      <path d="M240.5,120.5 L320.5,120.5 L320.5,200.5 L240.5,200.5 z" fill="#8FC7ED"/>
      <path d="M240.5,120.5 L320.5,120.5 L320.5,200.5 L240.5,200.5 z" fill-opacity="0" stroke="#294270" stroke-width="4"/>
    </g>
    <g>
      <path d="M240.5,200.5 L320.5,200.5 L320.5,280.5 L240.5,280.5 z" fill="#8FC7ED"/>
      <path d="M240.5,200.5 L320.5,200.5 L320.5,280.5 L240.5,280.5 z" fill-opacity="0" stroke="#294270" stroke-width="4"/>
    </g>
    <g>
      <path d="M320.5,200.5 L400.5,200.5 L400.5,280.5 L320.5,280.5 z" fill="#8FC7ED"/>
      <path d="M320.5,200.5 L400.5,200.5 L400.5,280.5 L320.5,280.5 z" fill-opacity="0" stroke="#294270" stroke-width="4"/>
    </g>
    <path d="M280.5,160.5 L280.5,240.5" fill-opacity="0" stroke="#F0801A" stroke-width="6"/>
    <path d="M280.5,240.5 L360.5,240.5" fill-opacity="0" stroke="#F0801A" stroke-width="6"/>
    <g>
      <path d="M160.5,40.5 L240.5,40.5 L240.5,120.5 L160.5,120.5 z" fill="#8FC7ED"/>
      <path d="M160.5,40.5 L240.5,40.5 L240.5,120.5 L160.5,120.5 z" fill-opacity="0" stroke="#294270" stroke-width="4"/>
    </g>
    <g>
      <path d="M240.5,40.5 L320.5,40.5 L320.5,120.5 L240.5,120.5 z" fill="#8FC7ED"/>
      <path d="M240.5,40.5 L320.5,40.5 L320.5,120.5 L240.5,120.5 z" fill-opacity="0" stroke="#294270" stroke-width="4"/>
    </g>
    <g>
      <path d="M320.5,40.5 L400.5,40.5 L400.5,120.5 L320.5,120.5 z" fill="#8FC7ED"/>
      <path d="M320.5,40.5 L400.5,40.5 L400.5,120.5 L320.5,120.5 z" fill-opacity="0" stroke="#294270" stroke-width="4"/>
    </g>
    <g>
      <path d="M400.5,40.5 L480.5,40.5 L480.5,120.5 L400.5,120.5 z" fill="#8FC7ED"/>
      <path d="M400.5,40.5 L480.5,40.5 L480.5,120.5 L400.5,120.5 z" fill-opacity="0" stroke="#294270" stroke-width="4"/>
    </g>
    <g>
      <path d="M480.5,40.5 L560.5,40.5 L560.5,120.5 L480.5,120.5 z" fill="#8FC7ED"/>
      <path d="M480.5,40.5 L560.5,40.5 L560.5,120.5 L480.5,120.5 z" fill-opacity="0" stroke="#294270" stroke-width="4"/>
    </g>
    <g>
      <path d="M160.5,120.5 L240.5,120.5 L240.5,200.5 L160.5,200.5 z" fill="#8FC7ED"/>
      <path d="M160.5,120.5 L240.5,120.5 L240.5,200.5 L160.5,200.5 z" fill-opacity="0" stroke="#294270" stroke-width="4"/>
    </g>
    <g>
      <path d="M320.5,120.5 L400.5,120.5 L400.5,200.5 L320.5,200.5 z" fill="#8FC7ED"/>
      <path d="M320.5,120.5 L400.5,120.5 L400.5,200.5 L320.5,200.5 z" fill-opacity="0" stroke="#294270" stroke-width="4"/>
    </g>
    <g>
      <path d="M400.5,120.5 L480.5,120.5 L480.5,200.5 L400.5,200.5 z" fill="#8FC7ED"/>
      <path d="M400.5,120.5 L480.5,120.5 L480.5,200.5 L400.5,200.5 z" fill-opacity="0" stroke="#294270" stroke-width="4"/>
    </g>
    <g>
      <path d="M480.5,120.5 L560.5,120.5 L560.5,200.5 L480.5,200.5 z" fill="#8FC7ED"/>
      <path d="M480.5,120.5 L560.5,120.5 L560.5,200.5 L480.5,200.5 z" fill-opacity="0" stroke="#294270" stroke-width="4"/>
    </g>
    <g>
      <path d="M160.5,200.5 L240.5,200.5 L240.5,280.5 L160.5,280.5 z" fill="#8FC7ED"/>
      <path d="M160.5,200.5 L240.5,200.5 L240.5,280.5 L160.5,280.5 z" fill-opacity="0" stroke="#294270" stroke-width="4"/>
    </g>
    <g>
      <path d="M400.5,200.5 L480.5,200.5 L480.5,280.5 L400.5,280.5 z" fill="#8FC7ED"/>
      <path d="M400.5,200.5 L480.5,200.5 L480.5,280.5 L400.5,280.5 z" fill-opacity="0" stroke="#294270" stroke-width="4"/>
    </g>
    <g>
      <path d="M480.5,200.5 L560.5,200.5 L560.5,280.5 L480.5,280.5 z" fill="#8FC7ED"/>
      <path d="M480.5,200.5 L560.5,200.5 L560.5,280.5 L480.5,280.5 z" fill-opacity="0" stroke="#294270" stroke-width="4"/>
    </g>
    <g>
      <path d="M160.5,280.5 L240.5,280.5 L240.5,360.5 L160.5,360.5 z" fill="#8FC7ED"/>
      <path d="M160.5,280.5 L240.5,280.5 L240.5,360.5 L160.5,360.5 z" fill-opacity="0" stroke="#294270" stroke-width="4"/>
    </g>
    <g>
      <path d="M240.5,280.5 L320.5,280.5 L320.5,360.5 L240.5,360.5 z" fill="#8FC7ED"/>
      <path d="M240.5,280.5 L320.5,280.5 L320.5,360.5 L240.5,360.5 z" fill-opacity="0" stroke="#294270" stroke-width="4"/>
    </g>
    <g>
      <path d="M320.5,280.5 L400.5,280.5 L400.5,360.5 L320.5,360.5 z" fill="#8FC7ED"/>
      <path d="M320.5,280.5 L400.5,280.5 L400.5,360.5 L320.5,360.5 z" fill-opacity="0" stroke="#294270" stroke-width="4"/>
    </g>
    <g>
      <path d="M400.5,280.5 L480.5,280.5 L480.5,360.5 L400.5,360.5 z" fill="#8FC7ED"/>
      <path d="M400.5,280.5 L480.5,280.5 L480.5,360.5 L400.5,360.5 z" fill-opacity="0" stroke="#294270" stroke-width="4"/>
    </g>
    <g>
      <path d="M480.5,280.5 L560.5,280.5 L560.5,360.5 L480.5,360.5 z" fill="#8FC7ED"/>
      <path d="M480.5,280.5 L560.5,280.5 L560.5,360.5 L480.5,360.5 z" fill-opacity="0" stroke="#294270" stroke-width="4"/>
    </g>
    <g>
      <path d="M160.5,360.5 L240.5,360.5 L240.5,440.5 L160.5,440.5 z" fill="#8FC7ED"/>
      <path d="M160.5,360.5 L240.5,360.5 L240.5,440.5 L160.5,440.5 z" fill-opacity="0" stroke="#294270" stroke-width="4"/>
    </g>
    <g>
      <path d="M240.5,360.5 L320.5,360.5 L320.5,440.5 L240.5,440.5 z" fill="#8FC7ED"/>
      <path d="M240.5,360.5 L320.5,360.5 L320.5,440.5 L240.5,440.5 z" fill-opacity="0" stroke="#294270" stroke-width="4"/>
    </g>
    <g>
      <path d="M320.5,360.5 L400.5,360.5 L400.5,440.5 L320.5,440.5 z" fill="#8FC7ED"/>
      <path d="M320.5,360.5 L400.5,360.5 L400.5,440.5 L320.5,440.5 z" fill-opacity="0" stroke="#294270" stroke-width="4"/>
    </g>
    <g>
      <path d="M400.5,360.5 L480.5,360.5 L480.5,440.5 L400.5,440.5 z" fill="#8FC7ED"/>
      <path d="M400.5,360.5 L480.5,360.5 L480.5,440.5 L400.5,440.5 z" fill-opacity="0" stroke="#294270" stroke-width="4"/>
    </g>
    <g>
      <path d="M480.5,360.5 L560.5,360.5 L560.5,440.5 L480.5,440.5 z" fill="#8FC7ED"/>
      <path d="M480.5,360.5 L560.5,360.5 L560.5,440.5 L480.5,440.5 z" fill-opacity="0" stroke="#294270" stroke-width="4"/>
    </g>
    <text transform="matrix(1, 0, 0, 1, 358.67, 220.741)"/>
    <text transform="matrix(1, 0, 0, 1, 360.664, 238.5)">
      <tspan x="-10.664" y="11.5" font-family="Verdana-Bold" font-size="30" fill="#294270">1</tspan>
    </text>
    <text transform="matrix(1, 0, 0, 1, 360.664, 158.5)">
      <tspan x="-10.664" y="11.5" font-family="Verdana-Bold" font-size="30" fill="#294270">2</tspan>
    </text>
    <text transform="matrix(1, 0, 0, 1, 440.664, 158.5)">
      <tspan x="-10.664" y="11.5" font-family="Verdana-Bold" font-size="30" fill="#294270">3</tspan>
    </text>
    <text transform="matrix(1, 0, 0, 1, 440.664, 238.5)">
      <tspan x="-10.664" y="11.5" font-family="Verdana-Bold" font-size="30" fill="#294270">4</tspan>
    </text>
    <text transform="matrix(1, 0, 0, 1, 440.664, 318.5)">
      <tspan x="-10.664" y="11.5" font-family="Verdana-Bold" font-size="30" fill="#294270">5</tspan>
    </text>
    <text transform="matrix(1, 0, 0, 1, 360.664, 318.5)">
      <tspan x="-10.664" y="11.5" font-family="Verdana-Bold" font-size="30" fill="#294270">6</tspan>
    </text>
    <text transform="matrix(1, 0, 0, 1, 280.664, 318.5)">
      <tspan x="-10.664" y="11.5" font-family="Verdana-Bold" font-size="30" fill="#294270">7</tspan>
    </text>
    <text transform="matrix(1, 0, 0, 1, 280.664, 238.5)">
      <tspan x="-10.664" y="11.5" font-family="Verdana-Bold" font-size="30" fill="#294270">8</tspan>
    </text>
    <text transform="matrix(1, 0, 0, 1, 280.664, 158.5)">
      <tspan x="-10.664" y="11.5" font-family="Verdana-Bold" font-size="30" fill="#294270">9</tspan>
    </text>
    <text transform="matrix(1, 0, 0, 1, 281.328, 78.5)">
      <tspan x="-21.328" y="11.5" font-family="Verdana-Bold" font-size="30" fill="#294270">10</tspan>
    </text>
    <text transform="matrix(1, 0, 0, 1, 361.328, 78.5)">
      <tspan x="-21.328" y="11.5" font-family="Verdana-Bold" font-size="30" fill="#294270">11</tspan>
    </text>
    <text transform="matrix(1, 0, 0, 1, 441.328, 78.5)">
      <tspan x="-21.328" y="11.5" font-family="Verdana-Bold" font-size="30" fill="#294270">12</tspan>
    </text>
    <text transform="matrix(1, 0, 0, 1, 521.328, 78.5)">
      <tspan x="-21.328" y="11.5" font-family="Verdana-Bold" font-size="30" fill="#294270">13</tspan>
    </text>
    <text transform="matrix(1, 0, 0, 1, 521.328, 158.5)">
      <tspan x="-21.328" y="11.5" font-family="Verdana-Bold" font-size="30" fill="#294270">14</tspan>
    </text>
    <text transform="matrix(1, 0, 0, 1, 521.328, 238.5)">
      <tspan x="-21.328" y="11.5" font-family="Verdana-Bold" font-size="30" fill="#294270">15</tspan>
    </text>
    <text transform="matrix(1, 0, 0, 1, 521.328, 318.5)">
      <tspan x="-21.328" y="11.5" font-family="Verdana-Bold" font-size="30" fill="#294270">16</tspan>
    </text>
    <text transform="matrix(1, 0, 0, 1, 521.328, 398.5)">
      <tspan x="-21.328" y="11.5" font-family="Verdana-Bold" font-size="30" fill="#294270">17</tspan>
    </text>
    <text transform="matrix(1, 0, 0, 1, 441.328, 398.5)">
      <tspan x="-21.328" y="11.5" font-family="Verdana-Bold" font-size="30" fill="#294270">18</tspan>
    </text>
    <text transform="matrix(1, 0, 0, 1, 361.328, 398.5)">
      <tspan x="-21.328" y="11.5" font-family="Verdana-Bold" font-size="30" fill="#294270">19</tspan>
    </text>
    <text transform="matrix(1, 0, 0, 1, 281.328, 398.5)">
      <tspan x="-21.328" y="11.5" font-family="Verdana-Bold" font-size="30" fill="#294270">20</tspan>
    </text>
    <text transform="matrix(1, 0, 0, 1, 201.328, 398.5)">
      <tspan x="-21.328" y="11.5" font-family="Verdana-Bold" font-size="30" fill="#294270">21</tspan>
    </text>
    <text transform="matrix(1, 0, 0, 1, 201.328, 318.5)">
      <tspan x="-21.328" y="11.5" font-family="Verdana-Bold" font-size="30" fill="#294270">22</tspan>
    </text>
    <text transform="matrix(1, 0, 0, 1, 201.328, 238.5)">
      <tspan x="-21.328" y="11.5" font-family="Verdana-Bold" font-size="30" fill="#294270">23</tspan>
    </text>
    <text transform="matrix(1, 0, 0, 1, 201.328, 158.5)">
      <tspan x="-21.328" y="11.5" font-family="Verdana-Bold" font-size="30" fill="#294270">24</tspan>
    </text>
    <text transform="matrix(1, 0, 0, 1, 206.26, 78.5)">
      <tspan x="-16.26" y="11.5" font-family="Verdana-Bold" font-size="30" fill="#294270">...</tspan>
    </text>
  </g>
  <defs/>
</svg>
