<?xml version="1.0" encoding="UTF-8"?>
<!DOCTYPE svg PUBLIC "-//W3C//DTD SVG 1.1//EN" "http://www.w3.org/Graphics/SVG/1.1/DTD/svg11.dtd">
<svg version="1.1" xmlns="http://www.w3.org/2000/svg" xmlns:xlink="http://www.w3.org/1999/xlink" x="0px" y="0px" width="1000" height="660" viewBox="0, 0, 1000, 660">
  <g id="Background">
    <rect x="0" y="0" width="1000" height="660" fill="#000000" fill-opacity="0"/>
  </g>
  <g id="Layer 1">
    <g>
      <path d="M72.5,312.5 L120.5,312.5 L120.5,360.5 L72.5,360.5 z" fill="#8FC7ED"/>
      <path d="M72.5,312.5 L120.5,312.5 L120.5,360.5 L72.5,360.5 z" fill-opacity="0" stroke="#294270" stroke-width="1"/>
    </g>
    <g>
      <path d="M120.5,312.5 L168.5,312.5 L168.5,360.5 L120.5,360.5 z" fill="#8FC7ED"/>
      <path d="M120.5,312.5 L168.5,312.5 L168.5,360.5 L120.5,360.5 z" fill-opacity="0" stroke="#294270" stroke-width="1"/>
    </g>
    <g>
      <path d="M168.5,312.5 L216.5,312.5 L216.5,360.5 L168.5,360.5 z" fill="#8FC7ED"/>
      <path d="M168.5,312.5 L216.5,312.5 L216.5,360.5 L168.5,360.5 z" fill-opacity="0" stroke="#294270" stroke-width="1"/>
    </g>
    <g>
      <path d="M216.5,312.5 L264.5,312.5 L264.5,360.5 L216.5,360.5 z" fill="#FABA00"/>
      <path d="M216.5,312.5 L264.5,312.5 L264.5,360.5 L216.5,360.5 z" fill-opacity="0" stroke="#294270" stroke-width="1"/>
    </g>
    <g>
      <path d="M264.5,312.5 L312.5,312.5 L312.5,360.5 L264.5,360.5 z" fill="#8FC7ED"/>
      <path d="M264.5,312.5 L312.5,312.5 L312.5,360.5 L264.5,360.5 z" fill-opacity="0" stroke="#294270" stroke-width="1"/>
    </g>
    <g>
      <path d="M312.5,312.5 L360.5,312.5 L360.5,360.5 L312.5,360.5 z" fill="#8FC7ED"/>
      <path d="M312.5,312.5 L360.5,312.5 L360.5,360.5 L312.5,360.5 z" fill-opacity="0" stroke="#294270" stroke-width="1"/>
    </g>
    <g>
      <path d="M48.5,264.5 L96.5,264.5 L96.5,312.5 L48.5,312.5 z" fill="#8FC7ED"/>
      <path d="M48.5,264.5 L96.5,264.5 L96.5,312.5 L48.5,312.5 z" fill-opacity="0" stroke="#294270" stroke-width="1"/>
    </g>
    <g>
      <path d="M96.5,264.5 L144.5,264.5 L144.5,312.5 L96.5,312.5 z" fill="#8FC7ED"/>
      <path d="M96.5,264.5 L144.5,264.5 L144.5,312.5 L96.5,312.5 z" fill-opacity="0" stroke="#294270" stroke-width="1"/>
    </g>
    <g>
      <path d="M144.5,264.5 L192.5,264.5 L192.5,312.5 L144.5,312.5 z" fill="#8FC7ED"/>
      <path d="M144.5,264.5 L192.5,264.5 L192.5,312.5 L144.5,312.5 z" fill-opacity="0" stroke="#294270" stroke-width="1"/>
    </g>
    <g>
      <path d="M192.5,264.5 L240.5,264.5 L240.5,312.5 L192.5,312.5 z" fill="#FABA00"/>
      <path d="M192.5,264.5 L240.5,264.5 L240.5,312.5 L192.5,312.5 z" fill-opacity="0" stroke="#294270" stroke-width="1"/>
    </g>
    <g>
      <path d="M240.5,264.5 L288.5,264.5 L288.5,312.5 L240.5,312.5 z" fill="#8FC7ED"/>
      <path d="M240.5,264.5 L288.5,264.5 L288.5,312.5 L240.5,312.5 z" fill-opacity="0" stroke="#294270" stroke-width="1"/>
    </g>
    <g>
      <path d="M72.5,216.5 L120.5,216.5 L120.5,264.5 L72.5,264.5 z" fill="#8FC7ED"/>
      <path d="M72.5,216.5 L120.5,216.5 L120.5,264.5 L72.5,264.5 z" fill-opacity="0" stroke="#294270" stroke-width="1"/>
    </g>
    <g>
      <path d="M120.5,216.5 L168.5,216.5 L168.5,264.5 L120.5,264.5 z" fill="#8FC7ED"/>
      <path d="M120.5,216.5 L168.5,216.5 L168.5,264.5 L120.5,264.5 z" fill-opacity="0" stroke="#294270" stroke-width="1"/>
    </g>
    <g>
      <path d="M168.5,216.5 L216.5,216.5 L216.5,264.5 L168.5,264.5 z" fill="#FABA00"/>
      <path d="M168.5,216.5 L216.5,216.5 L216.5,264.5 L168.5,264.5 z" fill-opacity="0" stroke="#294270" stroke-width="1"/>
    </g>
    <g>
      <path d="M216.5,216.5 L264.5,216.5 L264.5,264.5 L216.5,264.5 z" fill="#8FC7ED"/>
      <path d="M216.5,216.5 L264.5,216.5 L264.5,264.5 L216.5,264.5 z" fill-opacity="0" stroke="#294270" stroke-width="1"/>
    </g>
    <g>
      <path d="M288.5,264.5 L336.5,264.5 L336.5,312.5 L288.5,312.5 z" fill="#8FC7ED"/>
      <path d="M288.5,264.5 L336.5,264.5 L336.5,312.5 L288.5,312.5 z" fill-opacity="0" stroke="#294270" stroke-width="1"/>
    </g>
    <g>
      <path d="M96.5,168.5 L144.5,168.5 L144.5,216.5 L96.5,216.5 z" fill="#8FC7ED"/>
      <path d="M96.5,168.5 L144.5,168.5 L144.5,216.5 L96.5,216.5 z" fill-opacity="0" stroke="#294270" stroke-width="1"/>
    </g>
    <g>
      <path d="M144.5,168.5 L192.5,168.5 L192.5,216.5 L144.5,216.5 z" fill="#8FC7ED"/>
      <path d="M144.5,168.5 L192.5,168.5 L192.5,216.5 L144.5,216.5 z" fill-opacity="0" stroke="#294270" stroke-width="1"/>
    </g>
    <g>
      <path d="M192.5,168.5 L240.5,168.5 L240.5,216.5 L192.5,216.5 z" fill="#FABA00"/>
      <path d="M192.5,168.5 L240.5,168.5 L240.5,216.5 L192.5,216.5 z" fill-opacity="0" stroke="#294270" stroke-width="1"/>
    </g>
    <g>
      <path d="M240.5,168.5 L288.5,168.5 L288.5,216.5 L240.5,216.5 z" fill="#8FC7ED"/>
      <path d="M240.5,168.5 L288.5,168.5 L288.5,216.5 L240.5,216.5 z" fill-opacity="0" stroke="#294270" stroke-width="1"/>
    </g>
    <g>
      <path d="M24.5,312.5 L72.5,312.5 L72.5,360.5 L24.5,360.5 z" fill="#8FC7ED"/>
      <path d="M24.5,312.5 L72.5,312.5 L72.5,360.5 L24.5,360.5 z" fill-opacity="0" stroke="#294270" stroke-width="1"/>
    </g>
    <g>
      <path d="M120.5,120.5 L168.5,120.5 L168.5,168.5 L120.5,168.5 z" fill="#8FC7ED"/>
      <path d="M120.5,120.5 L168.5,120.5 L168.5,168.5 L120.5,168.5 z" fill-opacity="0" stroke="#294270" stroke-width="1"/>
    </g>
    <g>
      <path d="M168.5,120.5 L216.5,120.5 L216.5,168.5 L168.5,168.5 z" fill="#FABA00"/>
      <path d="M168.5,120.5 L216.5,120.5 L216.5,168.5 L168.5,168.5 z" fill-opacity="0" stroke="#294270" stroke-width="1"/>
    </g>
    <g>
      <path d="M216.5,120.5 L264.5,120.5 L264.5,168.5 L216.5,168.5 z" fill="#8FC7ED"/>
      <path d="M216.5,120.5 L264.5,120.5 L264.5,168.5 L216.5,168.5 z" fill-opacity="0" stroke="#294270" stroke-width="1"/>
    </g>
    <g>
      <path d="M264.5,216.5 L312.5,216.5 L312.5,264.5 L264.5,264.5 z" fill="#8FC7ED"/>
      <path d="M264.5,216.5 L312.5,216.5 L312.5,264.5 L264.5,264.5 z" fill-opacity="0" stroke="#294270" stroke-width="1"/>
    </g>
    <g>
      <path d="M144.5,72.5 L192.5,72.5 L192.5,120.5 L144.5,120.5 z" fill="#8FC7ED"/>
      <path d="M144.5,72.5 L192.5,72.5 L192.5,120.5 L144.5,120.5 z" fill-opacity="0" stroke="#294270" stroke-width="1"/>
    </g>
    <g>
      <path d="M192.5,72.5 L240.5,72.5 L240.5,120.5 L192.5,120.5 z" fill="#FABA00"/>
      <path d="M192.5,72.5 L240.5,72.5 L240.5,120.5 L192.5,120.5 z" fill-opacity="0" stroke="#294270" stroke-width="1"/>
    </g>
    <g>
      <path d="M168.5,24.5 L216.5,24.5 L216.5,72.5 L168.5,72.5 z" fill="#FABA00"/>
      <path d="M168.5,24.5 L216.5,24.5 L216.5,72.5 L168.5,72.5 z" fill-opacity="0" stroke="#294270" stroke-width="1"/>
    </g>
    <g>
      <path d="M456.5,312.5 L504.5,312.5 L504.5,360.5 L456.5,360.5 z" fill="#8FC7ED"/>
      <path d="M456.5,312.5 L504.5,312.5 L504.5,360.5 L456.5,360.5 z" fill-opacity="0" stroke="#294270" stroke-width="1"/>
    </g>
    <g>
      <path d="M504.5,312.5 L552.5,312.5 L552.5,360.5 L504.5,360.5 z" fill="#8FC7ED"/>
      <path d="M504.5,312.5 L552.5,312.5 L552.5,360.5 L504.5,360.5 z" fill-opacity="0" stroke="#294270" stroke-width="1"/>
    </g>
    <g>
      <path d="M552.5,312.5 L600.5,312.5 L600.5,360.5 L552.5,360.5 z" fill="#8FC7ED"/>
      <path d="M552.5,312.5 L600.5,312.5 L600.5,360.5 L552.5,360.5 z" fill-opacity="0" stroke="#294270" stroke-width="1"/>
    </g>
    <g>
      <path d="M600.5,312.5 L648.5,312.5 L648.5,360.5 L600.5,360.5 z" fill="#8FC7ED"/>
      <path d="M600.5,312.5 L648.5,312.5 L648.5,360.5 L600.5,360.5 z" fill-opacity="0" stroke="#294270" stroke-width="1"/>
    </g>
    <g>
      <path d="M648.5,312.5 L696.5,312.5 L696.5,360.5 L648.5,360.5 z" fill="#8FC7ED"/>
      <path d="M648.5,312.5 L696.5,312.5 L696.5,360.5 L648.5,360.5 z" fill-opacity="0" stroke="#294270" stroke-width="1"/>
    </g>
    <g>
      <path d="M696.5,312.5 L744.5,312.5 L744.5,360.5 L696.5,360.5 z" fill="#FABA00"/>
      <path d="M696.5,312.5 L744.5,312.5 L744.5,360.5 L696.5,360.5 z" fill-opacity="0" stroke="#294270" stroke-width="1"/>
    </g>
    <g>
      <path d="M432.5,264.5 L480.5,264.5 L480.5,312.5 L432.5,312.5 z" fill="#8FC7ED"/>
      <path d="M432.5,264.5 L480.5,264.5 L480.5,312.5 L432.5,312.5 z" fill-opacity="0" stroke="#294270" stroke-width="1"/>
    </g>
    <g>
      <path d="M480.5,264.5 L528.5,264.5 L528.5,312.5 L480.5,312.5 z" fill="#8FC7ED"/>
      <path d="M480.5,264.5 L528.5,264.5 L528.5,312.5 L480.5,312.5 z" fill-opacity="0" stroke="#294270" stroke-width="1"/>
    </g>
    <g>
      <path d="M528.5,264.5 L576.5,264.5 L576.5,312.5 L528.5,312.5 z" fill="#8FC7ED"/>
      <path d="M528.5,264.5 L576.5,264.5 L576.5,312.5 L528.5,312.5 z" fill-opacity="0" stroke="#294270" stroke-width="1"/>
    </g>
    <g>
      <path d="M576.5,264.5 L624.5,264.5 L624.5,312.5 L576.5,312.5 z" fill="#8FC7ED"/>
      <path d="M576.5,264.5 L624.5,264.5 L624.5,312.5 L576.5,312.5 z" fill-opacity="0" stroke="#294270" stroke-width="1"/>
    </g>
    <g>
      <path d="M624.5,264.5 L672.5,264.5 L672.5,312.5 L624.5,312.5 z" fill="#8FC7ED"/>
      <path d="M624.5,264.5 L672.5,264.5 L672.5,312.5 L624.5,312.5 z" fill-opacity="0" stroke="#294270" stroke-width="1"/>
    </g>
    <g>
      <path d="M456.5,216.5 L504.5,216.5 L504.5,264.5 L456.5,264.5 z" fill="#8FC7ED"/>
      <path d="M456.5,216.5 L504.5,216.5 L504.5,264.5 L456.5,264.5 z" fill-opacity="0" stroke="#294270" stroke-width="1"/>
    </g>
    <g>
      <path d="M504.5,216.5 L552.5,216.5 L552.5,264.5 L504.5,264.5 z" fill="#8FC7ED"/>
      <path d="M504.5,216.5 L552.5,216.5 L552.5,264.5 L504.5,264.5 z" fill-opacity="0" stroke="#294270" stroke-width="1"/>
    </g>
    <g>
      <path d="M552.5,216.5 L600.5,216.5 L600.5,264.5 L552.5,264.5 z" fill="#8FC7ED"/>
      <path d="M552.5,216.5 L600.5,216.5 L600.5,264.5 L552.5,264.5 z" fill-opacity="0" stroke="#294270" stroke-width="1"/>
    </g>
    <g>
      <path d="M600.5,216.5 L648.5,216.5 L648.5,264.5 L600.5,264.5 z" fill="#8FC7ED"/>
      <path d="M600.5,216.5 L648.5,216.5 L648.5,264.5 L600.5,264.5 z" fill-opacity="0" stroke="#294270" stroke-width="1"/>
    </g>
    <g>
      <path d="M672.5,264.5 L720.5,264.5 L720.5,312.5 L672.5,312.5 z" fill="#FABA00"/>
      <path d="M672.5,264.5 L720.5,264.5 L720.5,312.5 L672.5,312.5 z" fill-opacity="0" stroke="#294270" stroke-width="1"/>
    </g>
    <g>
      <path d="M480.5,168.5 L528.5,168.5 L528.5,216.5 L480.5,216.5 z" fill="#8FC7ED"/>
      <path d="M480.5,168.5 L528.5,168.5 L528.5,216.5 L480.5,216.5 z" fill-opacity="0" stroke="#294270" stroke-width="1"/>
    </g>
    <g>
      <path d="M528.5,168.5 L576.5,168.5 L576.5,216.5 L528.5,216.5 z" fill="#8FC7ED"/>
      <path d="M528.5,168.5 L576.5,168.5 L576.5,216.5 L528.5,216.5 z" fill-opacity="0" stroke="#294270" stroke-width="1"/>
    </g>
    <g>
      <path d="M576.5,168.5 L624.5,168.5 L624.5,216.5 L576.5,216.5 z" fill="#8FC7ED"/>
      <path d="M576.5,168.5 L624.5,168.5 L624.5,216.5 L576.5,216.5 z" fill-opacity="0" stroke="#294270" stroke-width="1"/>
    </g>
    <g>
      <path d="M624.5,168.5 L672.5,168.5 L672.5,216.5 L624.5,216.5 z" fill="#FABA00"/>
      <path d="M624.5,168.5 L672.5,168.5 L672.5,216.5 L624.5,216.5 z" fill-opacity="0" stroke="#294270" stroke-width="1"/>
    </g>
    <g>
      <path d="M408.5,312.5 L456.5,312.5 L456.5,360.5 L408.5,360.5 z" fill="#8FC7ED"/>
      <path d="M408.5,312.5 L456.5,312.5 L456.5,360.5 L408.5,360.5 z" fill-opacity="0" stroke="#294270" stroke-width="1"/>
    </g>
    <g>
      <path d="M504.5,120.5 L552.5,120.5 L552.5,168.5 L504.5,168.5 z" fill="#8FC7ED"/>
      <path d="M504.5,120.5 L552.5,120.5 L552.5,168.5 L504.5,168.5 z" fill-opacity="0" stroke="#294270" stroke-width="1"/>
    </g>
    <g>
      <path d="M552.5,120.5 L600.5,120.5 L600.5,168.5 L552.5,168.5 z" fill="#8FC7ED"/>
      <path d="M552.5,120.5 L600.5,120.5 L600.5,168.5 L552.5,168.5 z" fill-opacity="0" stroke="#294270" stroke-width="1"/>
    </g>
    <g>
      <path d="M600.5,120.5 L648.5,120.5 L648.5,168.5 L600.5,168.5 z" fill="#FABA00"/>
      <path d="M600.5,120.5 L648.5,120.5 L648.5,168.5 L600.5,168.5 z" fill-opacity="0" stroke="#294270" stroke-width="1"/>
    </g>
    <g>
      <path d="M648.5,216.5 L696.5,216.5 L696.5,264.5 L648.5,264.5 z" fill="#FABA00"/>
      <path d="M648.5,216.5 L696.5,216.5 L696.5,264.5 L648.5,264.5 z" fill-opacity="0" stroke="#294270" stroke-width="1"/>
    </g>
    <g>
      <path d="M528.5,72.5 L576.5,72.5 L576.5,120.5 L528.5,120.5 z" fill="#8FC7ED"/>
      <path d="M528.5,72.5 L576.5,72.5 L576.5,120.5 L528.5,120.5 z" fill-opacity="0" stroke="#294270" stroke-width="1"/>
    </g>
    <g>
      <path d="M576.5,72.5 L624.5,72.5 L624.5,120.5 L576.5,120.5 z" fill="#FABA00"/>
      <path d="M576.5,72.5 L624.5,72.5 L624.5,120.5 L576.5,120.5 z" fill-opacity="0" stroke="#294270" stroke-width="1"/>
    </g>
    <g>
      <path d="M552.5,24.5 L600.5,24.5 L600.5,72.5 L552.5,72.5 z" fill="#FABA00"/>
      <path d="M552.5,24.5 L600.5,24.5 L600.5,72.5 L552.5,72.5 z" fill-opacity="0" stroke="#294270" stroke-width="1"/>
    </g>
    <g>
      <path d="M792.5,312.5 L840.5,312.5 L840.5,360.5 L792.5,360.5 z" fill="#8FC7ED"/>
      <path d="M792.5,312.5 L840.5,312.5 L840.5,360.5 L792.5,360.5 z" fill-opacity="0" stroke="#294270" stroke-width="1"/>
    </g>
    <g>
      <path d="M840.5,312.5 L888.5,312.5 L888.5,360.5 L840.5,360.5 z" fill="#8FC7ED"/>
      <path d="M840.5,312.5 L888.5,312.5 L888.5,360.5 L840.5,360.5 z" fill-opacity="0" stroke="#294270" stroke-width="1"/>
    </g>
    <g>
      <path d="M888.5,312.5 L936.5,312.5 L936.5,360.5 L888.5,360.5 z" fill="#8FC7ED"/>
      <path d="M888.5,312.5 L936.5,312.5 L936.5,360.5 L888.5,360.5 z" fill-opacity="0" stroke="#294270" stroke-width="1"/>
    </g>
    <g>
      <path d="M936.5,312.5 L984.5,312.5 L984.5,360.5 L936.5,360.5 z" fill="#8FC7ED"/>
      <path d="M936.5,312.5 L984.5,312.5 L984.5,360.5 L936.5,360.5 z" fill-opacity="0" stroke="#294270" stroke-width="1"/>
    </g>
    <g>
      <path d="M816.5,264.5 L864.5,264.5 L864.5,312.5 L816.5,312.5 z" fill="#8FC7ED"/>
      <path d="M816.5,264.5 L864.5,264.5 L864.5,312.5 L816.5,312.5 z" fill-opacity="0" stroke="#294270" stroke-width="1"/>
    </g>
    <g>
      <path d="M864.5,264.5 L912.5,264.5 L912.5,312.5 L864.5,312.5 z" fill="#8FC7ED"/>
      <path d="M864.5,264.5 L912.5,264.5 L912.5,312.5 L864.5,312.5 z" fill-opacity="0" stroke="#294270" stroke-width="1"/>
    </g>
    <g>
      <path d="M912.5,264.5 L960.5,264.5 L960.5,312.5 L912.5,312.5 z" fill="#8FC7ED"/>
      <path d="M912.5,264.5 L960.5,264.5 L960.5,312.5 L912.5,312.5 z" fill-opacity="0" stroke="#294270" stroke-width="1"/>
    </g>
    <g>
      <path d="M840.5,216.5 L888.5,216.5 L888.5,264.5 L840.5,264.5 z" fill="#8FC7ED"/>
      <path d="M840.5,216.5 L888.5,216.5 L888.5,264.5 L840.5,264.5 z" fill-opacity="0" stroke="#294270" stroke-width="1"/>
    </g>
    <g>
      <path d="M888.5,216.5 L936.5,216.5 L936.5,264.5 L888.5,264.5 z" fill="#8FC7ED"/>
      <path d="M888.5,216.5 L936.5,216.5 L936.5,264.5 L888.5,264.5 z" fill-opacity="0" stroke="#294270" stroke-width="1"/>
    </g>
    <g>
      <path d="M864.5,168.5 L912.5,168.5 L912.5,216.5 L864.5,216.5 z" fill="#8FC7ED"/>
      <path d="M864.5,168.5 L912.5,168.5 L912.5,216.5 L864.5,216.5 z" fill-opacity="0" stroke="#294270" stroke-width="1"/>
    </g>
    <text transform="matrix(1, 0, 0, 1, 196.944, 492.522)">
      <tspan x="-163.056" y="-92" font-family="Verdana-Bold" font-size="21" fill="#294270">[</tspan>
      <tspan x="-163.056" y="-67" font-family="Verdana-Bold" font-size="21" fill="#294270">[1],</tspan>
      <tspan x="-163.056" y="-42" font-family="Verdana-Bold" font-size="21" fill="#294270">[2, 3],</tspan>
      <tspan x="-163.056" y="-17" font-family="Verdana-Bold" font-size="21" fill="#294270">[3, 3, 1],</tspan>
      <tspan x="-163.056" y="8" font-family="Verdana-Bold" font-size="21" fill="#294270">[3, 1, 5, 4],</tspan>
      <tspan x="-163.056" y="33" font-family="Verdana-Bold" font-size="21" fill="#294270">[3, 1, 3, 1, 3],</tspan>
      <tspan x="-163.056" y="58" font-family="Verdana-Bold" font-size="21" fill="#294270">[2, 2, 2, 2, 2, 2],</tspan>
      <tspan x="-163.056" y="83" font-family="Verdana-Bold" font-size="21" fill="#294270">[5, 6, 4, 5, 6, 4, 3]</tspan>
      <tspan x="-163.056" y="108" font-family="Verdana-Bold" font-size="21" fill="#294270">]</tspan>
    </text>
    <text transform="matrix(1, 0, 0, 1, 193.465, 49)">
      <tspan x="-7.465" y="8" font-family="Verdana-Bold" font-size="21" fill="#294270">1</tspan>
    </text>
    <text transform="matrix(1, 0, 0, 1, 169.465, 97)">
      <tspan x="-7.465" y="8" font-family="Verdana-Bold" font-size="21" fill="#294270">2</tspan>
    </text>
    <text transform="matrix(1, 0, 0, 1, 217.465, 97)">
      <tspan x="-7.465" y="8" font-family="Verdana-Bold" font-size="21" fill="#294270">3</tspan>
    </text>
    <text transform="matrix(1, 0, 0, 1, 145.465, 145)">
      <tspan x="-7.465" y="8" font-family="Verdana-Bold" font-size="21" fill="#294270">3</tspan>
    </text>
    <text transform="matrix(1, 0, 0, 1, 193.465, 145)">
      <tspan x="-7.465" y="8" font-family="Verdana-Bold" font-size="21" fill="#294270">3</tspan>
    </text>
    <text transform="matrix(1, 0, 0, 1, 241.465, 145)">
      <tspan x="-7.465" y="8" font-family="Verdana-Bold" font-size="21" fill="#294270">1</tspan>
    </text>
    <text transform="matrix(1, 0, 0, 1, 121.465, 193)">
      <tspan x="-7.465" y="8" font-family="Verdana-Bold" font-size="21" fill="#294270">3</tspan>
    </text>
    <text transform="matrix(1, 0, 0, 1, 169.465, 193)">
      <tspan x="-7.465" y="8" font-family="Verdana-Bold" font-size="21" fill="#294270">1</tspan>
    </text>
    <text transform="matrix(1, 0, 0, 1, 217.465, 193)">
      <tspan x="-7.465" y="8" font-family="Verdana-Bold" font-size="21" fill="#294270">5</tspan>
    </text>
    <text transform="matrix(1, 0, 0, 1, 265.465, 193)">
      <tspan x="-7.465" y="8" font-family="Verdana-Bold" font-size="21" fill="#294270">4</tspan>
    </text>
    <text transform="matrix(1, 0, 0, 1, 97.465, 241)">
      <tspan x="-7.465" y="8" font-family="Verdana-Bold" font-size="21" fill="#294270">3</tspan>
    </text>
    <text transform="matrix(1, 0, 0, 1, 145.465, 241)">
      <tspan x="-7.465" y="8" font-family="Verdana-Bold" font-size="21" fill="#294270">1</tspan>
    </text>
    <text transform="matrix(1, 0, 0, 1, 193.465, 241)">
      <tspan x="-7.465" y="8" font-family="Verdana-Bold" font-size="21" fill="#294270">3</tspan>
    </text>
    <text transform="matrix(1, 0, 0, 1, 73.465, 289)">
      <tspan x="-7.465" y="8" font-family="Verdana-Bold" font-size="21" fill="#294270">2</tspan>
    </text>
    <text transform="matrix(1, 0, 0, 1, 121.465, 289)">
      <tspan x="-7.465" y="8" font-family="Verdana-Bold" font-size="21" fill="#294270">2</tspan>
    </text>
    <text transform="matrix(1, 0, 0, 1, 169.465, 289)">
      <tspan x="-7.465" y="8" font-family="Verdana-Bold" font-size="21" fill="#294270">2</tspan>
    </text>
    <text transform="matrix(1, 0, 0, 1, 217.465, 289)">
      <tspan x="-7.465" y="8" font-family="Verdana-Bold" font-size="21" fill="#294270">2</tspan>
    </text>
    <text transform="matrix(1, 0, 0, 1, 265.465, 289)">
      <tspan x="-7.465" y="8" font-family="Verdana-Bold" font-size="21" fill="#294270">2</tspan>
    </text>
    <text transform="matrix(1, 0, 0, 1, 313.465, 289)">
      <tspan x="-7.465" y="8" font-family="Verdana-Bold" font-size="21" fill="#294270">2</tspan>
    </text>
    <text transform="matrix(1, 0, 0, 1, 241.465, 241)">
      <tspan x="-7.465" y="8" font-family="Verdana-Bold" font-size="21" fill="#294270">1</tspan>
    </text>
    <text transform="matrix(1, 0, 0, 1, 289.465, 241)">
      <tspan x="-7.465" y="8" font-family="Verdana-Bold" font-size="21" fill="#294270">3</tspan>
    </text>
    <text transform="matrix(1, 0, 0, 1, 49.465, 337)">
      <tspan x="-7.465" y="8" font-family="Verdana-Bold" font-size="21" fill="#294270">5</tspan>
    </text>
    <text transform="matrix(1, 0, 0, 1, 97.465, 337)">
      <tspan x="-7.465" y="8" font-family="Verdana-Bold" font-size="21" fill="#294270">6</tspan>
    </text>
    <text transform="matrix(1, 0, 0, 1, 145.465, 337)">
      <tspan x="-7.465" y="8" font-family="Verdana-Bold" font-size="21" fill="#294270">4</tspan>
    </text>
    <text transform="matrix(1, 0, 0, 1, 193.465, 337)">
      <tspan x="-7.465" y="8" font-family="Verdana-Bold" font-size="21" fill="#294270">5</tspan>
    </text>
    <text transform="matrix(1, 0, 0, 1, 241.465, 337)">
      <tspan x="-7.465" y="8" font-family="Verdana-Bold" font-size="21" fill="#294270">6</tspan>
    </text>
    <text transform="matrix(1, 0, 0, 1, 289.465, 337)">
      <tspan x="-7.465" y="8" font-family="Verdana-Bold" font-size="21" fill="#294270">4</tspan>
    </text>
    <text transform="matrix(1, 0, 0, 1, 337.465, 337)">
      <tspan x="-7.465" y="8" font-family="Verdana-Bold" font-size="21" fill="#294270">3</tspan>
    </text>
    <text transform="matrix(1, 0, 0, 1, 577.465, 49)">
      <tspan x="-7.465" y="8" font-family="Verdana-Bold" font-size="21" fill="#294270">1</tspan>
    </text>
    <text transform="matrix(1, 0, 0, 1, 553.465, 97)">
      <tspan x="-7.465" y="8" font-family="Verdana-Bold" font-size="21" fill="#294270">2</tspan>
    </text>
    <text transform="matrix(1, 0, 0, 1, 601.465, 97)">
      <tspan x="-7.465" y="8" font-family="Verdana-Bold" font-size="21" fill="#294270">1</tspan>
    </text>
    <text transform="matrix(1, 0, 0, 1, 577.465, 145)">
      <tspan x="-7.465" y="8" font-family="Verdana-Bold" font-size="21" fill="#294270">2</tspan>
    </text>
    <text transform="matrix(1, 0, 0, 1, 553.465, 193)">
      <tspan x="-7.465" y="8" font-family="Verdana-Bold" font-size="21" fill="#294270">2</tspan>
    </text>
    <text transform="matrix(1, 0, 0, 1, 529.465, 241)">
      <tspan x="-7.465" y="8" font-family="Verdana-Bold" font-size="21" fill="#294270">2</tspan>
    </text>
    <text transform="matrix(1, 0, 0, 1, 505.465, 289)">
      <tspan x="-7.465" y="8" font-family="Verdana-Bold" font-size="21" fill="#294270">2</tspan>
    </text>
    <text transform="matrix(1, 0, 0, 1, 481.465, 337)">
      <tspan x="-7.465" y="8" font-family="Verdana-Bold" font-size="21" fill="#294270">2</tspan>
    </text>
    <text transform="matrix(1, 0, 0, 1, 625.465, 145)">
      <tspan x="-7.465" y="8" font-family="Verdana-Bold" font-size="21" fill="#294270">1</tspan>
    </text>
    <text transform="matrix(1, 0, 0, 1, 601.465, 193)">
      <tspan x="-7.465" y="8" font-family="Verdana-Bold" font-size="21" fill="#294270">1</tspan>
    </text>
    <text transform="matrix(1, 0, 0, 1, 649.465, 193)">
      <tspan x="-7.465" y="8" font-family="Verdana-Bold" font-size="21" fill="#294270">1</tspan>
    </text>
    <text transform="matrix(1, 0, 0, 1, 577.465, 241)">
      <tspan x="-7.465" y="8" font-family="Verdana-Bold" font-size="21" fill="#294270">1</tspan>
    </text>
    <text transform="matrix(1, 0, 0, 1, 625.465, 241)">
      <tspan x="-7.465" y="8" font-family="Verdana-Bold" font-size="21" fill="#294270">1</tspan>
    </text>
    <text transform="matrix(1, 0, 0, 1, 673.465, 241)">
      <tspan x="-7.465" y="8" font-family="Verdana-Bold" font-size="21" fill="#294270">1</tspan>
    </text>
    <text transform="matrix(1, 0, 0, 1, 553.465, 289)">
      <tspan x="-7.465" y="8" font-family="Verdana-Bold" font-size="21" fill="#294270">1</tspan>
    </text>
    <text transform="matrix(1, 0, 0, 1, 601.465, 289)">
      <tspan x="-7.465" y="8" font-family="Verdana-Bold" font-size="21" fill="#294270">1</tspan>
    </text>
    <text transform="matrix(1, 0, 0, 1, 649.465, 289)">
      <tspan x="-7.465" y="8" font-family="Verdana-Bold" font-size="21" fill="#294270">1</tspan>
    </text>
    <text transform="matrix(1, 0, 0, 1, 697.465, 289)">
      <tspan x="-7.465" y="8" font-family="Verdana-Bold" font-size="21" fill="#294270">1</tspan>
    </text>
    <text transform="matrix(1, 0, 0, 1, 721.465, 337)">
      <tspan x="-7.465" y="8" font-family="Verdana-Bold" font-size="21" fill="#294270">9</tspan>
    </text>
    <text transform="matrix(1, 0, 0, 1, 529.465, 145)">
      <tspan x="-7.465" y="8" font-family="Verdana-Bold" font-size="21" fill="#294270">1</tspan>
    </text>
    <text transform="matrix(1, 0, 0, 1, 505.465, 193)">
      <tspan x="-7.465" y="8" font-family="Verdana-Bold" font-size="21" fill="#294270">1</tspan>
    </text>
    <text transform="matrix(1, 0, 0, 1, 481.465, 241)">
      <tspan x="-7.465" y="8" font-family="Verdana-Bold" font-size="21" fill="#294270">1</tspan>
    </text>
    <text transform="matrix(1, 0, 0, 1, 457.465, 289)">
      <tspan x="-7.465" y="8" font-family="Verdana-Bold" font-size="21" fill="#294270">1</tspan>
    </text>
    <text transform="matrix(1, 0, 0, 1, 433.465, 337)">
      <tspan x="-7.465" y="8" font-family="Verdana-Bold" font-size="21" fill="#294270">1</tspan>
    </text>
    <text transform="matrix(1, 0, 0, 1, 529.465, 337)">
      <tspan x="-7.465" y="8" font-family="Verdana-Bold" font-size="21" fill="#294270">1</tspan>
    </text>
    <text transform="matrix(1, 0, 0, 1, 577.465, 337)">
      <tspan x="-7.465" y="8" font-family="Verdana-Bold" font-size="21" fill="#294270">1</tspan>
    </text>
    <text transform="matrix(1, 0, 0, 1, 625.465, 337)">
      <tspan x="-7.465" y="8" font-family="Verdana-Bold" font-size="21" fill="#294270">1</tspan>
    </text>
    <text transform="matrix(1, 0, 0, 1, 673.465, 337)">
      <tspan x="-7.465" y="8" font-family="Verdana-Bold" font-size="21" fill="#294270">1</tspan>
    </text>
    <text transform="matrix(1, 0, 0, 1, 589.056, 491)">
      <tspan x="-163.056" y="-92" font-family="Verdana-Bold" font-size="21" fill="#294270">[</tspan>
      <tspan x="-163.056" y="-67" font-family="Verdana-Bold" font-size="21" fill="#294270">[1],</tspan>
      <tspan x="-163.056" y="-42" font-family="Verdana-Bold" font-size="21" fill="#294270">[2, 1],</tspan>
      <tspan x="-163.056" y="-17" font-family="Verdana-Bold" font-size="21" fill="#294270">[1, 2, 1],</tspan>
      <tspan x="-163.056" y="8" font-family="Verdana-Bold" font-size="21" fill="#294270">[1, 2, 1, 1],</tspan>
      <tspan x="-163.056" y="33" font-family="Verdana-Bold" font-size="21" fill="#294270">[1, 2, 1, 1, 1],</tspan>
      <tspan x="-163.056" y="58" font-family="Verdana-Bold" font-size="21" fill="#294270">[1, 2, 1, 1, 1, 1],</tspan>
      <tspan x="-163.056" y="83" font-family="Verdana-Bold" font-size="21" fill="#294270">[1, 2, 1, 1, 1, 1, 9]</tspan>
      <tspan x="-163.056" y="108" font-family="Verdana-Bold" font-size="21" fill="#294270">]</tspan>
    </text>
    <text transform="matrix(1, 0, 0, 1, 82.732, 631)">
      <tspan x="-46.732" y="8" font-family="Verdana-Bold" font-size="21" fill="#294270">Max: 23</tspan>
    </text>
    <text transform="matrix(1, 0, 0, 1, 856.732, 565)">
      <tspan x="-46.732" y="8" font-family="Verdana-Bold" font-size="21" fill="#294270">Max: 18</tspan>
    </text>
    <text transform="matrix(1, 0, 0, 1, 889.465, 193)">
      <tspan x="-7.465" y="8" font-family="Verdana-Bold" font-size="21" fill="#294270">9</tspan>
    </text>
    <text transform="matrix(1, 0, 0, 1, 865.465, 241)">
      <tspan x="-7.465" y="8" font-family="Verdana-Bold" font-size="21" fill="#294270">2</tspan>
    </text>
    <text transform="matrix(1, 0, 0, 1, 913.465, 241)">
      <tspan x="-7.465" y="8" font-family="Verdana-Bold" font-size="21" fill="#294270">2</tspan>
    </text>
    <text transform="matrix(1, 0, 0, 1, 841.465, 289)">
      <tspan x="-7.465" y="8" font-family="Verdana-Bold" font-size="21" fill="#294270">3</tspan>
    </text>
    <text transform="matrix(1, 0, 0, 1, 889.465, 289)">
      <tspan x="-7.465" y="8" font-family="Verdana-Bold" font-size="21" fill="#294270">3</tspan>
    </text>
    <text transform="matrix(1, 0, 0, 1, 937.465, 289)">
      <tspan x="-7.465" y="8" font-family="Verdana-Bold" font-size="21" fill="#294270">3</tspan>
    </text>
    <text transform="matrix(1, 0, 0, 1, 817.465, 337)">
      <tspan x="-7.465" y="8" font-family="Verdana-Bold" font-size="21" fill="#294270">4</tspan>
    </text>
    <text transform="matrix(1, 0, 0, 1, 865.465, 337)">
      <tspan x="-7.465" y="8" font-family="Verdana-Bold" font-size="21" fill="#294270">4</tspan>
    </text>
    <text transform="matrix(1, 0, 0, 1, 913.465, 337)">
      <tspan x="-7.465" y="8" font-family="Verdana-Bold" font-size="21" fill="#294270">4</tspan>
    </text>
    <text transform="matrix(1, 0, 0, 1, 961.465, 337)">
      <tspan x="-7.465" y="8" font-family="Verdana-Bold" font-size="21" fill="#294270">4</tspan>
    </text>
    <text transform="matrix(1, 0, 0, 1, 973.056, 456)">
      <tspan x="-163.056" y="-57" font-family="Verdana-Bold" font-size="21" fill="#294270">[</tspan>
      <tspan x="-163.056" y="-32" font-family="Verdana-Bold" font-size="21" fill="#294270">[9],</tspan>
      <tspan x="-163.056" y="-7" font-family="Verdana-Bold" font-size="21" fill="#294270">[2, 2],</tspan>
      <tspan x="-163.056" y="18" font-family="Verdana-Bold" font-size="21" fill="#294270">[3, 3, 3],</tspan>
      <tspan x="-163.056" y="43" font-family="Verdana-Bold" font-size="21" fill="#294270">[4, 4, 4, 4]</tspan>
      <tspan x="-163.056" y="68" font-family="Verdana-Bold" font-size="21" fill="#294270">]</tspan>
    </text>
    <text transform="matrix(1, 0, 0, 1, 472.732, 631)">
      <tspan x="-46.732" y="8" font-family="Verdana-Bold" font-size="21" fill="#294270">Max: 15</tspan>
    </text>
  </g>
  <defs/>
</svg>
