<?xml version="1.0" encoding="UTF-8"?>
<!DOCTYPE svg PUBLIC "-//W3C//DTD SVG 1.1//EN" "http://www.w3.org/Graphics/SVG/1.1/DTD/svg11.dtd">
<svg version="1.1" xmlns="http://www.w3.org/2000/svg" xmlns:xlink="http://www.w3.org/1999/xlink" x="0px" y="0px" width="1200" height="650" viewBox="0, 0, 1200, 650">
  <g id="Background">
    <rect x="0" y="0" width="1200" height="650" fill="#000000" fill-opacity="0"/>
  </g>
  <g id="Layer 1">
    <g>
      <path d="M80.5,500.5 L80.5,56.9" fill-opacity="0" stroke="#294270" stroke-width="4" stroke-linecap="round"/>
      <path d="M85.3,56.9 L80.5,44.1 L75.7,56.9 z" fill="#294270" fill-opacity="1" stroke="#294270" stroke-width="4" stroke-opacity="1"/>
    </g>
    <g>
      <path d="M64.5,480.5 L518.1,480.5" fill-opacity="0" stroke="#294270" stroke-width="4" stroke-linecap="round"/>
      <path d="M518.1,485.3 L530.9,480.5 L518.1,475.7 z" fill="#294270" fill-opacity="1" stroke="#294270" stroke-width="4" stroke-opacity="1"/>
    </g>
    <path d="M120.5,482.5 L120.5,72.5" fill-opacity="0" stroke="#65A1D0" stroke-width="1" stroke-dasharray="6,5" stroke-linecap="round"/>
    <path d="M160.5,482.5 L160.5,72.5" fill-opacity="0" stroke="#65A1D0" stroke-width="1" stroke-dasharray="6,5" stroke-linecap="round"/>
    <path d="M200.5,482.5 L200.5,72.5" fill-opacity="0" stroke="#65A1D0" stroke-width="1" stroke-dasharray="6,5" stroke-linecap="round"/>
    <path d="M240.5,72.5 L240.5,482.5" fill-opacity="0" stroke="#65A1D0" stroke-width="1" stroke-dasharray="6,5" stroke-linecap="round"/>
    <path d="M280.5,72.5 L280.5,482.5" fill-opacity="0" stroke="#65A1D0" stroke-width="1" stroke-dasharray="6,5" stroke-linecap="round"/>
    <path d="M320.5,72.5 L320.5,482.5" fill-opacity="0" stroke="#65A1D0" stroke-width="1" stroke-dasharray="6,5" stroke-linecap="round"/>
    <path d="M360.5,72.5 L360.5,482.5" fill-opacity="0" stroke="#65A1D0" stroke-width="1" stroke-dasharray="6,5" stroke-linecap="round"/>
    <path d="M400.5,72.5 L400.5,482.5" fill-opacity="0" stroke="#65A1D0" stroke-width="1" stroke-dasharray="6,5" stroke-linecap="round"/>
    <path d="M440.5,482.5 L440.5,72.5" fill-opacity="0" stroke="#65A1D0" stroke-width="1" stroke-dasharray="6,5" stroke-linecap="round"/>
    <path d="M480.5,72.5 L480.5,482.5" fill-opacity="0" stroke="#65A1D0" stroke-width="1" stroke-dasharray="6,5" stroke-linecap="round"/>
    <path d="M80.5,80.5 L490.5,80.5" fill-opacity="0" stroke="#65A1D0" stroke-width="1" stroke-dasharray="6,5" stroke-linecap="round"/>
    <path d="M490.5,120.5 L80.5,120.5" fill-opacity="0" stroke="#65A1D0" stroke-width="1" stroke-dasharray="6,5" stroke-linecap="round"/>
    <path d="M80.5,160.5 L490.5,160.5" fill-opacity="0" stroke="#65A1D0" stroke-width="1" stroke-dasharray="6,5" stroke-linecap="round"/>
    <path d="M80.5,200.5 L490.5,200.5" fill-opacity="0" stroke="#65A1D0" stroke-width="1" stroke-dasharray="6,5" stroke-linecap="round"/>
    <path d="M80.5,240.5 L490.5,240.5" fill-opacity="0" stroke="#65A1D0" stroke-width="1" stroke-dasharray="6,5" stroke-linecap="round"/>
    <path d="M80.5,280.5 L490.5,280.5" fill-opacity="0" stroke="#65A1D0" stroke-width="1" stroke-dasharray="6,5" stroke-linecap="round"/>
    <path d="M490.5,320.5 L80.5,320.5" fill-opacity="0" stroke="#65A1D0" stroke-width="1" stroke-dasharray="6,5" stroke-linecap="round"/>
    <path d="M80.5,360.5 L490.5,360.5" fill-opacity="0" stroke="#65A1D0" stroke-width="1" stroke-dasharray="6,5" stroke-linecap="round"/>
    <path d="M490.5,400.5 L80.5,400.5" fill-opacity="0" stroke="#65A1D0" stroke-width="1" stroke-dasharray="6,5" stroke-linecap="round"/>
    <path d="M80.5,440.5 L490.5,440.5" fill-opacity="0" stroke="#65A1D0" stroke-width="1" stroke-dasharray="6,5" stroke-linecap="round"/>
    <text transform="matrix(1, 0, 0, 1, 57.109, 440.5)">
      <tspan x="-7.109" y="7.5" font-family="Verdana-Bold" font-size="20" fill="#294270">1</tspan>
    </text>
    <text transform="matrix(1, 0, 0, 1, 57.109, 400.5)">
      <tspan x="-7.109" y="7.5" font-family="Verdana-Bold" font-size="20" fill="#294270">2</tspan>
    </text>
    <text transform="matrix(1, 0, 0, 1, 57.109, 360.5)">
      <tspan x="-7.109" y="7.5" font-family="Verdana-Bold" font-size="20" fill="#294270">3</tspan>
    </text>
    <text transform="matrix(1, 0, 0, 1, 57.109, 320.5)">
      <tspan x="-7.109" y="7.5" font-family="Verdana-Bold" font-size="20" fill="#294270">4</tspan>
    </text>
    <text transform="matrix(1, 0, 0, 1, 57.109, 280.5)">
      <tspan x="-7.109" y="7.5" font-family="Verdana-Bold" font-size="20" fill="#294270">5</tspan>
    </text>
    <text transform="matrix(1, 0, 0, 1, 57.109, 240.5)">
      <tspan x="-7.109" y="7.5" font-family="Verdana-Bold" font-size="20" fill="#294270">6</tspan>
    </text>
    <text transform="matrix(1, 0, 0, 1, 57.109, 200.5)">
      <tspan x="-7.109" y="7.5" font-family="Verdana-Bold" font-size="20" fill="#294270">7</tspan>
    </text>
    <text transform="matrix(1, 0, 0, 1, 57.109, 160.5)">
      <tspan x="-7.109" y="7.5" font-family="Verdana-Bold" font-size="20" fill="#294270">8</tspan>
    </text>
    <text transform="matrix(1, 0, 0, 1, 57.109, 120.5)">
      <tspan x="-7.109" y="7.5" font-family="Verdana-Bold" font-size="20" fill="#294270">9</tspan>
    </text>
    <text transform="matrix(1, 0, 0, 1, 54.219, 80.5)">
      <tspan x="-14.219" y="7.5" font-family="Verdana-Bold" font-size="20" fill="#294270">10</tspan>
    </text>
    <text transform="matrix(1, 0, 0, 1, 117.109, 500.5)">
      <tspan x="-7.109" y="7.5" font-family="Verdana-Bold" font-size="20" fill="#294270">1</tspan>
    </text>
    <text transform="matrix(1, 0, 0, 1, 157.109, 500.5)">
      <tspan x="-7.109" y="7.5" font-family="Verdana-Bold" font-size="20" fill="#294270">2</tspan>
    </text>
    <text transform="matrix(1, 0, 0, 1, 197.109, 500.5)">
      <tspan x="-7.109" y="7.5" font-family="Verdana-Bold" font-size="20" fill="#294270">3</tspan>
    </text>
    <text transform="matrix(1, 0, 0, 1, 237.109, 500.5)">
      <tspan x="-7.109" y="7.5" font-family="Verdana-Bold" font-size="20" fill="#294270">4</tspan>
    </text>
    <text transform="matrix(1, 0, 0, 1, 277.109, 500.5)">
      <tspan x="-7.109" y="7.5" font-family="Verdana-Bold" font-size="20" fill="#294270">5</tspan>
    </text>
    <text transform="matrix(1, 0, 0, 1, 317.109, 500.5)">
      <tspan x="-7.109" y="7.5" font-family="Verdana-Bold" font-size="20" fill="#294270">6</tspan>
    </text>
    <text transform="matrix(1, 0, 0, 1, 357.109, 500.5)">
      <tspan x="-7.109" y="7.5" font-family="Verdana-Bold" font-size="20" fill="#294270">7</tspan>
    </text>
    <text transform="matrix(1, 0, 0, 1, 397.109, 500.5)">
      <tspan x="-7.109" y="7.5" font-family="Verdana-Bold" font-size="20" fill="#294270">8</tspan>
    </text>
    <text transform="matrix(1, 0, 0, 1, 437.109, 500.5)">
      <tspan x="-7.109" y="7.5" font-family="Verdana-Bold" font-size="20" fill="#294270">9</tspan>
    </text>
    <text transform="matrix(1, 0, 0, 1, 484.219, 500.5)">
      <tspan x="-14.219" y="7.5" font-family="Verdana-Bold" font-size="20" fill="#294270">10</tspan>
    </text>
    <text transform="matrix(1, 0, 0, 1, 62.982, 500.67)">
      <tspan x="-7.109" y="7.5" font-family="Verdana-Bold" font-size="20" fill="#294270">0</tspan>
    </text>
    <text transform="matrix(1, 0, 0, 1, 77.368, 20.5)">
      <tspan x="-7.368" y="7.5" font-family="Verdana-Bold" font-size="20" fill="#294270">Y</tspan>
    </text>
    <text transform="matrix(1, 0, 0, 1, 547.637, 480.5)">
      <tspan x="-7.637" y="7.5" font-family="Verdana-Bold" font-size="20" fill="#294270">X</tspan>
    </text>
    <g>
      <path d="M680.5,500.5 L680.5,56.9" fill-opacity="0" stroke="#294270" stroke-width="4" stroke-linecap="round"/>
      <path d="M685.3,56.9 L680.5,44.1 L675.7,56.9 z" fill="#294270" fill-opacity="1" stroke="#294270" stroke-width="4" stroke-opacity="1"/>
    </g>
    <g>
      <path d="M664.5,480.5 L1118.1,480.5" fill-opacity="0" stroke="#294270" stroke-width="4" stroke-linecap="round"/>
      <path d="M1118.1,485.3 L1130.9,480.5 L1118.1,475.7 z" fill="#294270" fill-opacity="1" stroke="#294270" stroke-width="4" stroke-opacity="1"/>
    </g>
    <path d="M720.5,482.5 L720.5,72.5" fill-opacity="0" stroke="#65A1D0" stroke-width="1" stroke-dasharray="6,5" stroke-linecap="round"/>
    <path d="M760.5,482.5 L760.5,72.5" fill-opacity="0" stroke="#65A1D0" stroke-width="1" stroke-dasharray="6,5" stroke-linecap="round"/>
    <path d="M800.5,482.5 L800.5,72.5" fill-opacity="0" stroke="#65A1D0" stroke-width="1" stroke-dasharray="6,5" stroke-linecap="round"/>
    <path d="M840.5,72.5 L840.5,482.5" fill-opacity="0" stroke="#65A1D0" stroke-width="1" stroke-dasharray="6,5" stroke-linecap="round"/>
    <path d="M880.5,72.5 L880.5,482.5" fill-opacity="0" stroke="#65A1D0" stroke-width="1" stroke-dasharray="6,5" stroke-linecap="round"/>
    <path d="M920.5,72.5 L920.5,482.5" fill-opacity="0" stroke="#65A1D0" stroke-width="1" stroke-dasharray="6,5" stroke-linecap="round"/>
    <path d="M960.5,72.5 L960.5,482.5" fill-opacity="0" stroke="#65A1D0" stroke-width="1" stroke-dasharray="6,5" stroke-linecap="round"/>
    <path d="M1000.5,72.5 L1000.5,482.5" fill-opacity="0" stroke="#65A1D0" stroke-width="1" stroke-dasharray="6,5" stroke-linecap="round"/>
    <path d="M1040.5,482.5 L1040.5,72.5" fill-opacity="0" stroke="#65A1D0" stroke-width="1" stroke-dasharray="6,5" stroke-linecap="round"/>
    <path d="M1080.5,72.5 L1080.5,482.5" fill-opacity="0" stroke="#65A1D0" stroke-width="1" stroke-dasharray="6,5" stroke-linecap="round"/>
    <path d="M680.5,80.5 L1090.5,80.5" fill-opacity="0" stroke="#65A1D0" stroke-width="1" stroke-dasharray="6,5" stroke-linecap="round"/>
    <path d="M1090.5,120.5 L680.5,120.5" fill-opacity="0" stroke="#65A1D0" stroke-width="1" stroke-dasharray="6,5" stroke-linecap="round"/>
    <path d="M680.5,160.5 L1090.5,160.5" fill-opacity="0" stroke="#65A1D0" stroke-width="1" stroke-dasharray="6,5" stroke-linecap="round"/>
    <path d="M680.5,200.5 L1090.5,200.5" fill-opacity="0" stroke="#65A1D0" stroke-width="1" stroke-dasharray="6,5" stroke-linecap="round"/>
    <path d="M680.5,240.5 L1090.5,240.5" fill-opacity="0" stroke="#65A1D0" stroke-width="1" stroke-dasharray="6,5" stroke-linecap="round"/>
    <path d="M680.5,280.5 L1090.5,280.5" fill-opacity="0" stroke="#65A1D0" stroke-width="1" stroke-dasharray="6,5" stroke-linecap="round"/>
    <path d="M1090.5,320.5 L680.5,320.5" fill-opacity="0" stroke="#65A1D0" stroke-width="1" stroke-dasharray="6,5" stroke-linecap="round"/>
    <path d="M680.5,360.5 L1090.5,360.5" fill-opacity="0" stroke="#65A1D0" stroke-width="1" stroke-dasharray="6,5" stroke-linecap="round"/>
    <path d="M1090.5,400.5 L680.5,400.5" fill-opacity="0" stroke="#65A1D0" stroke-width="1" stroke-dasharray="6,5" stroke-linecap="round"/>
    <path d="M680.5,440.5 L1090.5,440.5" fill-opacity="0" stroke="#65A1D0" stroke-width="1" stroke-dasharray="6,5" stroke-linecap="round"/>
    <text transform="matrix(1, 0, 0, 1, 657.109, 440.5)">
      <tspan x="-7.109" y="7.5" font-family="Verdana-Bold" font-size="20" fill="#294270">1</tspan>
    </text>
    <text transform="matrix(1, 0, 0, 1, 657.109, 400.5)">
      <tspan x="-7.109" y="7.5" font-family="Verdana-Bold" font-size="20" fill="#294270">2</tspan>
    </text>
    <text transform="matrix(1, 0, 0, 1, 657.109, 360.5)">
      <tspan x="-7.109" y="7.5" font-family="Verdana-Bold" font-size="20" fill="#294270">3</tspan>
    </text>
    <text transform="matrix(1, 0, 0, 1, 657.109, 320.5)">
      <tspan x="-7.109" y="7.5" font-family="Verdana-Bold" font-size="20" fill="#294270">4</tspan>
    </text>
    <text transform="matrix(1, 0, 0, 1, 657.109, 280.5)">
      <tspan x="-7.109" y="7.5" font-family="Verdana-Bold" font-size="20" fill="#294270">5</tspan>
    </text>
    <text transform="matrix(1, 0, 0, 1, 657.109, 240.5)">
      <tspan x="-7.109" y="7.5" font-family="Verdana-Bold" font-size="20" fill="#294270">6</tspan>
    </text>
    <text transform="matrix(1, 0, 0, 1, 657.109, 200.5)">
      <tspan x="-7.109" y="7.5" font-family="Verdana-Bold" font-size="20" fill="#294270">7</tspan>
    </text>
    <text transform="matrix(1, 0, 0, 1, 657.109, 160.5)">
      <tspan x="-7.109" y="7.5" font-family="Verdana-Bold" font-size="20" fill="#294270">8</tspan>
    </text>
    <text transform="matrix(1, 0, 0, 1, 657.109, 120.5)">
      <tspan x="-7.109" y="7.5" font-family="Verdana-Bold" font-size="20" fill="#294270">9</tspan>
    </text>
    <text transform="matrix(1, 0, 0, 1, 654.219, 80.5)">
      <tspan x="-14.219" y="7.5" font-family="Verdana-Bold" font-size="20" fill="#294270">10</tspan>
    </text>
    <text transform="matrix(1, 0, 0, 1, 717.109, 500.5)">
      <tspan x="-7.109" y="7.5" font-family="Verdana-Bold" font-size="20" fill="#294270">1</tspan>
    </text>
    <text transform="matrix(1, 0, 0, 1, 757.109, 500.5)">
      <tspan x="-7.109" y="7.5" font-family="Verdana-Bold" font-size="20" fill="#294270">2</tspan>
    </text>
    <text transform="matrix(1, 0, 0, 1, 797.109, 500.5)">
      <tspan x="-7.109" y="7.5" font-family="Verdana-Bold" font-size="20" fill="#294270">3</tspan>
    </text>
    <text transform="matrix(1, 0, 0, 1, 837.109, 500.5)">
      <tspan x="-7.109" y="7.5" font-family="Verdana-Bold" font-size="20" fill="#294270">4</tspan>
    </text>
    <text transform="matrix(1, 0, 0, 1, 877.109, 500.5)">
      <tspan x="-7.109" y="7.5" font-family="Verdana-Bold" font-size="20" fill="#294270">5</tspan>
    </text>
    <text transform="matrix(1, 0, 0, 1, 917.109, 500.5)">
      <tspan x="-7.109" y="7.5" font-family="Verdana-Bold" font-size="20" fill="#294270">6</tspan>
    </text>
    <text transform="matrix(1, 0, 0, 1, 957.109, 500.5)">
      <tspan x="-7.109" y="7.5" font-family="Verdana-Bold" font-size="20" fill="#294270">7</tspan>
    </text>
    <text transform="matrix(1, 0, 0, 1, 997.109, 500.5)">
      <tspan x="-7.109" y="7.5" font-family="Verdana-Bold" font-size="20" fill="#294270">8</tspan>
    </text>
    <text transform="matrix(1, 0, 0, 1, 1037.109, 500.5)">
      <tspan x="-7.109" y="7.5" font-family="Verdana-Bold" font-size="20" fill="#294270">9</tspan>
    </text>
    <text transform="matrix(1, 0, 0, 1, 1084.219, 500.5)">
      <tspan x="-14.219" y="7.5" font-family="Verdana-Bold" font-size="20" fill="#294270">10</tspan>
    </text>
    <text transform="matrix(1, 0, 0, 1, 662.982, 500.67)">
      <tspan x="-7.109" y="7.5" font-family="Verdana-Bold" font-size="20" fill="#294270">0</tspan>
    </text>
    <text transform="matrix(1, 0, 0, 1, 677.368, 20.5)">
      <tspan x="-7.368" y="7.5" font-family="Verdana-Bold" font-size="20" fill="#294270">Y</tspan>
    </text>
    <text transform="matrix(1, 0, 0, 1, 1147.637, 480.5)">
      <tspan x="-7.637" y="7.5" font-family="Verdana-Bold" font-size="20" fill="#294270">X</tspan>
    </text>
    <path d="M240.5,434.5 C177.54,434.5 126.5,383.46 126.5,320.5 C126.5,257.54 177.54,206.5 240.5,206.5 C303.46,206.5 354.5,257.54 354.5,320.5 C354.5,383.46 303.46,434.5 240.5,434.5 z" fill-opacity="0" stroke="#0A82BD" stroke-width="4"/>
    <g>
      <path d="M320.5,406.5 C317.186,406.5 314.5,403.814 314.5,400.5 C314.5,397.186 317.186,394.5 320.5,394.5 C323.814,394.5 326.5,397.186 326.5,400.5 C326.5,403.814 323.814,406.5 320.5,406.5 z" fill="#F0811A"/>
      <path d="M320.5,406.5 C317.186,406.5 314.5,403.814 314.5,400.5 C314.5,397.186 317.186,394.5 320.5,394.5 C323.814,394.5 326.5,397.186 326.5,400.5 C326.5,403.814 323.814,406.5 320.5,406.5 z" fill-opacity="0" stroke="#F0811A" stroke-width="4" stroke-linecap="round"/>
    </g>
    <g>
      <path d="M160.5,406.5 C157.186,406.5 154.5,403.814 154.5,400.5 C154.5,397.186 157.186,394.5 160.5,394.5 C163.814,394.5 166.5,397.186 166.5,400.5 C166.5,403.814 163.814,406.5 160.5,406.5 z" fill="#F0811A"/>
      <path d="M160.5,406.5 C157.186,406.5 154.5,403.814 154.5,400.5 C154.5,397.186 157.186,394.5 160.5,394.5 C163.814,394.5 166.5,397.186 166.5,400.5 C166.5,403.814 163.814,406.5 160.5,406.5 z" fill-opacity="0" stroke="#F0811A" stroke-width="4" stroke-linecap="round"/>
    </g>
    <g>
      <path d="M160.5,246.5 C157.186,246.5 154.5,243.814 154.5,240.5 C154.5,237.186 157.186,234.5 160.5,234.5 C163.814,234.5 166.5,237.186 166.5,240.5 C166.5,243.814 163.814,246.5 160.5,246.5 z" fill="#F0811A"/>
      <path d="M160.5,246.5 C157.186,246.5 154.5,243.814 154.5,240.5 C154.5,237.186 157.186,234.5 160.5,234.5 C163.814,234.5 166.5,237.186 166.5,240.5 C166.5,243.814 163.814,246.5 160.5,246.5 z" fill-opacity="0" stroke="#F0811A" stroke-width="4" stroke-linecap="round"/>
    </g>
    <path d="M80.5,320.5 L242.5,320.5" fill-opacity="0" stroke="#6BA3CF" stroke-width="4" stroke-dasharray="24,20"/>
    <path d="M240.5,320.5 L240.5,482.5" fill-opacity="0" stroke="#6BA3CF" stroke-width="4" stroke-dasharray="24,20"/>
    <g>
      <path d="M240.5,320.5 L308.903,252.097" fill-opacity="0" stroke="#6BA3CF" stroke-width="4"/>
      <path d="M312.298,255.491 L317.954,243.046 L305.509,248.702 z" fill="#6BA3CF" fill-opacity="1" stroke="#6BA3CF" stroke-width="4" stroke-opacity="1"/>
    </g>
    <text transform="matrix(1, 0, 0, 1, 162.016, 299)">
      <tspan x="-8.016" y="9" font-family="Verdana-Bold" font-size="24" fill="#294270">a</tspan>
    </text>
    <text transform="matrix(1, 0, 0, 1, 256.391, 397)">
      <tspan x="-8.391" y="9" font-family="Verdana-Bold" font-size="24" fill="#294270">b</tspan>
    </text>
    <text transform="matrix(1, 0, 0, 1, 273.965, 265)">
      <tspan x="-5.965" y="9" font-family="Verdana-Bold" font-size="24" fill="#294270">r</tspan>
    </text>
    <path d="M920.5,380.5 C848.703,380.5 790.5,322.297 790.5,250.5 C790.5,178.703 848.703,120.5 920.5,120.5 C992.297,120.5 1050.5,178.703 1050.5,250.5 C1050.5,322.297 992.297,380.5 920.5,380.5 z" fill-opacity="0" stroke="#0A82BD" stroke-width="4"/>
    <g>
      <path d="M1040.5,206.5 C1037.186,206.5 1034.5,203.814 1034.5,200.5 C1034.5,197.186 1037.186,194.5 1040.5,194.5 C1043.814,194.5 1046.5,197.186 1046.5,200.5 C1046.5,203.814 1043.814,206.5 1040.5,206.5 z" fill="#F0811A"/>
      <path d="M1040.5,206.5 C1037.186,206.5 1034.5,203.814 1034.5,200.5 C1034.5,197.186 1037.186,194.5 1040.5,194.5 C1043.814,194.5 1046.5,197.186 1046.5,200.5 C1046.5,203.814 1043.814,206.5 1040.5,206.5 z" fill-opacity="0" stroke="#F0811A" stroke-width="4" stroke-linecap="round"/>
    </g>
    <g>
      <path d="M800.5,206.5 C797.186,206.5 794.5,203.814 794.5,200.5 C794.5,197.186 797.186,194.5 800.5,194.5 C803.814,194.5 806.5,197.186 806.5,200.5 C806.5,203.814 803.814,206.5 800.5,206.5 z" fill="#F0811A"/>
      <path d="M800.5,206.5 C797.186,206.5 794.5,203.814 794.5,200.5 C794.5,197.186 797.186,194.5 800.5,194.5 C803.814,194.5 806.5,197.186 806.5,200.5 C806.5,203.814 803.814,206.5 800.5,206.5 z" fill-opacity="0" stroke="#F0811A" stroke-width="4" stroke-linecap="round"/>
    </g>
    <g>
      <path d="M920.5,126.5 C917.186,126.5 914.5,123.814 914.5,120.5 C914.5,117.186 917.186,114.5 920.5,114.5 C923.814,114.5 926.5,117.186 926.5,120.5 C926.5,123.814 923.814,126.5 920.5,126.5 z" fill="#F0811A"/>
      <path d="M920.5,126.5 C917.186,126.5 914.5,123.814 914.5,120.5 C914.5,117.186 917.186,114.5 920.5,114.5 C923.814,114.5 926.5,117.186 926.5,120.5 C926.5,123.814 923.814,126.5 920.5,126.5 z" fill-opacity="0" stroke="#F0811A" stroke-width="4" stroke-linecap="round"/>
    </g>
    <path d="M920.5,250.5 L920.5,482.5" fill-opacity="0" stroke="#6BA3CF" stroke-width="4" stroke-dasharray="24,20"/>
    <path d="M920.5,250.5 L682.5,252.5" fill-opacity="0" stroke="#6BA3CF" stroke-width="4" stroke-dasharray="24,20"/>
    <text transform="matrix(1, 0, 0, 1, 812.016, 233)">
      <tspan x="-8.016" y="9" font-family="Verdana-Bold" font-size="24" fill="#294270">a</tspan>
    </text>
    <text transform="matrix(1, 0, 0, 1, 938.391, 359)">
      <tspan x="-8.391" y="9" font-family="Verdana-Bold" font-size="24" fill="#294270">b</tspan>
    </text>
    <g>
      <path d="M920.5,250.5 L1003.267,162.45" fill-opacity="0" stroke="#6BA3CF" stroke-width="4"/>
      <path d="M1006.765,165.737 L1012.034,153.123 L999.77,159.162 z" fill="#6BA3CF" fill-opacity="1" stroke="#6BA3CF" stroke-width="4" stroke-opacity="1"/>
    </g>
    <text transform="matrix(1, 0, 0, 1, 951.965, 197)">
      <tspan x="-5.965" y="9" font-family="Verdana-Bold" font-size="24" fill="#294270">r</tspan>
    </text>
    <text transform="matrix(1, 0, 0, 1, 302, 544)">
      <tspan x="-220" y="8" font-family="Verdana-Bold" font-size="24" fill="#294270">input: "(2,2),(2,6),(6,2)"</tspan>
    </text>
    <text transform="matrix(1, 0, 0, 1, 902, 543)">
      <tspan x="-220" y="9" font-family="Verdana-Bold" font-size="24" fill="#294270">input: "(3,7),(6,9),(9,7)"</tspan>
    </text>
    <text transform="matrix(1, 0, 0, 1, 298.852, 599.5)">
      <tspan x="-216.852" y="-5.5" font-family="Verdana-Bold" font-size="24" fill="#294270">output: </tspan>
      <tspan x="-216.852" y="23.5" font-family="Verdana-Bold" font-size="24" fill="#294270">"(x-4)^2+(y-4)^2=2.83^2"</tspan>
    </text>
    <text transform="matrix(1, 0, 0, 1, 896.852, 597.5)">
      <tspan x="-216.852" y="-5.5" font-family="Verdana-Bold" font-size="24" fill="#294270">output: </tspan>
      <tspan x="-216.852" y="23.5" font-family="Verdana-Bold" font-size="24" fill="#294270">"(x-4)^2+(y-5.75)^2=3.25^2"</tspan>
    </text>
  </g>
  <defs/>
</svg>
