<?xml version="1.0" encoding="UTF-8"?>
<!DOCTYPE svg PUBLIC "-//W3C//DTD SVG 1.1//EN" "http://www.w3.org/Graphics/SVG/1.1/DTD/svg11.dtd">
<svg version="1.1" xmlns="http://www.w3.org/2000/svg" xmlns:xlink="http://www.w3.org/1999/xlink" x="0px" y="0px" width="1200" height="640" viewBox="0, 0, 1200, 640">
  <g id="Background">
    <rect x="0" y="0" width="1200" height="640" fill="#000000" fill-opacity="0"/>
  </g>
  <g id="Layer 1">
    <text transform="matrix(1, 0, 0, 1, 325.975, 150.43)">
      <tspan x="-13.975" y="13.5" font-family="Verdana-Bold" font-size="36" fill="#294270">A</tspan>
    </text>
    <text transform="matrix(1, 0, 0, 1, 394.264, 89.361)">
      <tspan x="-12.797" y="13.5" font-family="Verdana-Bold" font-size="36" fill="#294270">1</tspan>
    </text>
    <text transform="matrix(1, 0, 0, 1, 451.072, 89.361)">
      <tspan x="-12.797" y="13.5" font-family="Verdana-Bold" font-size="36" fill="#294270">2</tspan>
    </text>
    <text transform="matrix(1, 0, 0, 1, 508.555, 89.361)">
      <tspan x="-12.797" y="13.5" font-family="Verdana-Bold" font-size="36" fill="#294270">3</tspan>
    </text>
    <text transform="matrix(1, 0, 0, 1, 394.684, 150.43)">
      <tspan x="-12.797" y="13.5" font-family="Verdana-Bold" font-size="36" fill="#294270">4</tspan>
    </text>
    <text transform="matrix(1, 0, 0, 1, 451.072, 150.43)">
      <tspan x="-12.797" y="13.5" font-family="Verdana-Bold" font-size="36" fill="#294270">5</tspan>
    </text>
    <text transform="matrix(1, 0, 0, 1, 508.555, 150.43)">
      <tspan x="-12.797" y="13.5" font-family="Verdana-Bold" font-size="36" fill="#294270">6</tspan>
    </text>
    <text transform="matrix(1, 0, 0, 1, 394.684, 209.361)">
      <tspan x="-12.797" y="13.5" font-family="Verdana-Bold" font-size="36" fill="#294270">7</tspan>
    </text>
    <text transform="matrix(1, 0, 0, 1, 451.072, 209.361)">
      <tspan x="-12.797" y="13.5" font-family="Verdana-Bold" font-size="36" fill="#294270">8</tspan>
    </text>
    <text transform="matrix(1, 0, 0, 1, 508.555, 209.361)">
      <tspan x="-12.797" y="13.5" font-family="Verdana-Bold" font-size="36" fill="#294270">9</tspan>
    </text>
    <path d="M360.5,60.5 L360.5,241.361" fill-opacity="0" stroke="#294270" stroke-width="6" stroke-linecap="round" stroke-linejoin="round"/>
    <path d="M540.5,60.5 L540.5,241.361" fill-opacity="0" stroke="#294270" stroke-width="6" stroke-linecap="round" stroke-linejoin="round"/>
    <path d="M360.5,60.5 L372.5,60.5" fill-opacity="0" stroke="#294270" stroke-width="6" stroke-linecap="round" stroke-linejoin="round"/>
    <path d="M360.5,241.361 L372.5,241.361" fill-opacity="0" stroke="#294270" stroke-width="6" stroke-linecap="round" stroke-linejoin="round"/>
    <path d="M540.5,241.361 L528.5,241.361" fill-opacity="0" stroke="#294270" stroke-width="6" stroke-linecap="round" stroke-linejoin="round"/>
    <path d="M528.5,60.5 L540.5,60.5" fill-opacity="0" stroke="#294270" stroke-width="6" stroke-linecap="round" stroke-linejoin="round"/>
    <text transform="matrix(1, 0, 0, 1, 625.975, 150.43)">
      <tspan x="-13.975" y="13.5" font-family="Verdana-Bold" font-size="36" fill="#294270">A</tspan>
    </text>
    <text transform="matrix(1, 0, 0, 1, 694.264, 89.361)">
      <tspan x="-12.797" y="13.5" font-family="Verdana-Bold" font-size="36" fill="#294270">1</tspan>
    </text>
    <text transform="matrix(1, 0, 0, 1, 751.072, 89.361)">
      <tspan x="-12.797" y="13.5" font-family="Verdana-Bold" font-size="36" fill="#294270">4</tspan>
    </text>
    <text transform="matrix(1, 0, 0, 1, 808.555, 89.361)">
      <tspan x="-12.797" y="13.5" font-family="Verdana-Bold" font-size="36" fill="#294270">7</tspan>
    </text>
    <text transform="matrix(1, 0, 0, 1, 694.684, 150.43)">
      <tspan x="-12.797" y="13.5" font-family="Verdana-Bold" font-size="36" fill="#294270">2</tspan>
    </text>
    <text transform="matrix(1, 0, 0, 1, 751.072, 150.43)">
      <tspan x="-12.797" y="13.5" font-family="Verdana-Bold" font-size="36" fill="#294270">5</tspan>
    </text>
    <text transform="matrix(1, 0, 0, 1, 808.555, 150.43)">
      <tspan x="-12.797" y="13.5" font-family="Verdana-Bold" font-size="36" fill="#294270">8</tspan>
    </text>
    <text transform="matrix(1, 0, 0, 1, 694.684, 209.361)">
      <tspan x="-12.797" y="13.5" font-family="Verdana-Bold" font-size="36" fill="#294270">3</tspan>
    </text>
    <text transform="matrix(1, 0, 0, 1, 751.072, 209.361)">
      <tspan x="-12.797" y="13.5" font-family="Verdana-Bold" font-size="36" fill="#294270">6</tspan>
    </text>
    <text transform="matrix(1, 0, 0, 1, 808.555, 209.361)">
      <tspan x="-12.797" y="13.5" font-family="Verdana-Bold" font-size="36" fill="#294270">9</tspan>
    </text>
    <path d="M660.5,60.5 L660.5,241.361" fill-opacity="0" stroke="#294270" stroke-width="6" stroke-linecap="round" stroke-linejoin="round"/>
    <path d="M840.5,60.5 L840.5,241.361" fill-opacity="0" stroke="#294270" stroke-width="6" stroke-linecap="round" stroke-linejoin="round"/>
    <path d="M660.5,60.5 L672.5,60.5" fill-opacity="0" stroke="#294270" stroke-width="6" stroke-linecap="round" stroke-linejoin="round"/>
    <path d="M660.5,241.361 L672.5,241.361" fill-opacity="0" stroke="#294270" stroke-width="6" stroke-linecap="round" stroke-linejoin="round"/>
    <path d="M840.5,241.361 L828.5,241.361" fill-opacity="0" stroke="#294270" stroke-width="6" stroke-linecap="round" stroke-linejoin="round"/>
    <path d="M828.5,60.5 L840.5,60.5" fill-opacity="0" stroke="#294270" stroke-width="6" stroke-linecap="round" stroke-linejoin="round"/>
    <text transform="matrix(1, 0, 0, 1, 646.084, 132.361)">
      <tspan x="-6.135" y="6.5" font-family="Verdana-Bold" font-size="18" fill="#294270">T</tspan>
    </text>
    <text transform="matrix(1, 0, 0, 1, 325.975, 390.43)">
      <tspan x="-13.975" y="13.5" font-family="Verdana-Bold" font-size="36" fill="#294270">A</tspan>
    </text>
    <text transform="matrix(1, 0, 0, 1, 394.264, 329.361)">
      <tspan x="-12.797" y="13.5" font-family="Verdana-Bold" font-size="36" fill="#294270">1</tspan>
    </text>
    <text transform="matrix(1, 0, 0, 1, 451.072, 329.361)">
      <tspan x="-12.797" y="13.5" font-family="Verdana-Bold" font-size="36" fill="#294270">4</tspan>
    </text>
    <text transform="matrix(1, 0, 0, 1, 508.555, 329.361)">
      <tspan x="-12.797" y="13.5" font-family="Verdana-Bold" font-size="36" fill="#294270">3</tspan>
    </text>
    <text transform="matrix(1, 0, 0, 1, 394.684, 390.43)">
      <tspan x="-12.797" y="13.5" font-family="Verdana-Bold" font-size="36" fill="#294270">8</tspan>
    </text>
    <text transform="matrix(1, 0, 0, 1, 451.072, 390.43)">
      <tspan x="-12.797" y="13.5" font-family="Verdana-Bold" font-size="36" fill="#294270">2</tspan>
    </text>
    <text transform="matrix(1, 0, 0, 1, 508.555, 390.43)">
      <tspan x="-12.797" y="13.5" font-family="Verdana-Bold" font-size="36" fill="#294270">6</tspan>
    </text>
    <text transform="matrix(1, 0, 0, 1, 394.684, 449.361)">
      <tspan x="-12.797" y="13.5" font-family="Verdana-Bold" font-size="36" fill="#294270">7</tspan>
    </text>
    <text transform="matrix(1, 0, 0, 1, 451.072, 449.361)">
      <tspan x="-12.797" y="13.5" font-family="Verdana-Bold" font-size="36" fill="#294270">8</tspan>
    </text>
    <text transform="matrix(1, 0, 0, 1, 508.555, 449.361)">
      <tspan x="-12.797" y="13.5" font-family="Verdana-Bold" font-size="36" fill="#294270">3</tspan>
    </text>
    <path d="M360.5,300.5 L360.5,600.5" fill-opacity="0" stroke="#294270" stroke-width="6" stroke-linecap="round" stroke-linejoin="round"/>
    <path d="M540.5,300.5 L540.5,600.5" fill-opacity="0" stroke="#294270" stroke-width="6" stroke-linecap="round" stroke-linejoin="round"/>
    <path d="M360.5,300.5 L372.5,300.5" fill-opacity="0" stroke="#294270" stroke-width="6" stroke-linecap="round" stroke-linejoin="round"/>
    <path d="M360.5,600.5 L372.5,600.5" fill-opacity="0" stroke="#294270" stroke-width="6" stroke-linecap="round" stroke-linejoin="round"/>
    <path d="M540.5,600.5 L528.5,600.5" fill-opacity="0" stroke="#294270" stroke-width="6" stroke-linecap="round" stroke-linejoin="round"/>
    <path d="M528.5,300.5 L540.5,300.5" fill-opacity="0" stroke="#294270" stroke-width="6" stroke-linecap="round" stroke-linejoin="round"/>
    <text transform="matrix(1, 0, 0, 1, 625.975, 390.43)">
      <tspan x="-13.975" y="13.5" font-family="Verdana-Bold" font-size="36" fill="#294270">A</tspan>
    </text>
    <text transform="matrix(1, 0, 0, 1, 694.264, 329.361)">
      <tspan x="-12.797" y="13.5" font-family="Verdana-Bold" font-size="36" fill="#294270">1</tspan>
    </text>
    <text transform="matrix(1, 0, 0, 1, 751.072, 329.361)">
      <tspan x="-12.797" y="13.5" font-family="Verdana-Bold" font-size="36" fill="#294270">8</tspan>
    </text>
    <text transform="matrix(1, 0, 0, 1, 808.555, 329.361)">
      <tspan x="-12.797" y="13.5" font-family="Verdana-Bold" font-size="36" fill="#294270">7</tspan>
    </text>
    <text transform="matrix(1, 0, 0, 1, 694.684, 390.43)">
      <tspan x="-12.797" y="13.5" font-family="Verdana-Bold" font-size="36" fill="#294270">4</tspan>
    </text>
    <text transform="matrix(1, 0, 0, 1, 751.072, 390.43)">
      <tspan x="-12.797" y="13.5" font-family="Verdana-Bold" font-size="36" fill="#294270">2</tspan>
    </text>
    <text transform="matrix(1, 0, 0, 1, 808.555, 390.43)">
      <tspan x="-12.797" y="13.5" font-family="Verdana-Bold" font-size="36" fill="#294270">8</tspan>
    </text>
    <text transform="matrix(1, 0, 0, 1, 694.684, 449.361)">
      <tspan x="-12.797" y="13.5" font-family="Verdana-Bold" font-size="36" fill="#294270">3</tspan>
    </text>
    <text transform="matrix(1, 0, 0, 1, 751.072, 449.361)">
      <tspan x="-12.797" y="13.5" font-family="Verdana-Bold" font-size="36" fill="#294270">6</tspan>
    </text>
    <text transform="matrix(1, 0, 0, 1, 808.555, 449.361)">
      <tspan x="-12.797" y="13.5" font-family="Verdana-Bold" font-size="36" fill="#294270">3</tspan>
    </text>
    <path d="M660.5,300.5 L660.5,481.361" fill-opacity="0" stroke="#294270" stroke-width="6" stroke-linecap="round" stroke-linejoin="round"/>
    <path d="M960.5,300.5 L960.5,481.361" fill-opacity="0" stroke="#294270" stroke-width="6" stroke-linecap="round" stroke-linejoin="round"/>
    <path d="M660.5,300.5 L672.5,300.5" fill-opacity="0" stroke="#294270" stroke-width="6" stroke-linecap="round" stroke-linejoin="round"/>
    <path d="M660.5,481.361 L672.5,481.361" fill-opacity="0" stroke="#294270" stroke-width="6" stroke-linecap="round" stroke-linejoin="round"/>
    <path d="M960.5,481.361 L948.5,481.361" fill-opacity="0" stroke="#294270" stroke-width="6" stroke-linecap="round" stroke-linejoin="round"/>
    <path d="M948.5,300.5 L960.5,300.5" fill-opacity="0" stroke="#294270" stroke-width="6" stroke-linecap="round" stroke-linejoin="round"/>
    <text transform="matrix(1, 0, 0, 1, 646.084, 372.361)">
      <tspan x="-6.135" y="6.5" font-family="Verdana-Bold" font-size="18" fill="#294270">T</tspan>
    </text>
    <text transform="matrix(1, 0, 0, 1, 394.684, 508.5)">
      <tspan x="-12.797" y="13.5" font-family="Verdana-Bold" font-size="36" fill="#294270">4</tspan>
    </text>
    <text transform="matrix(1, 0, 0, 1, 451.072, 508.5)">
      <tspan x="-12.797" y="13.5" font-family="Verdana-Bold" font-size="36" fill="#294270">9</tspan>
    </text>
    <text transform="matrix(1, 0, 0, 1, 508.555, 508.5)">
      <tspan x="-12.797" y="13.5" font-family="Verdana-Bold" font-size="36" fill="#294270">6</tspan>
    </text>
    <text transform="matrix(1, 0, 0, 1, 394.684, 567.43)">
      <tspan x="-12.797" y="13.5" font-family="Verdana-Bold" font-size="36" fill="#294270">7</tspan>
    </text>
    <text transform="matrix(1, 0, 0, 1, 451.072, 567.43)">
      <tspan x="-12.797" y="13.5" font-family="Verdana-Bold" font-size="36" fill="#294270">8</tspan>
    </text>
    <text transform="matrix(1, 0, 0, 1, 508.555, 567.43)">
      <tspan x="-12.797" y="13.5" font-family="Verdana-Bold" font-size="36" fill="#294270">1</tspan>
    </text>
    <text transform="matrix(1, 0, 0, 1, 864.797, 329.361)">
      <tspan x="-12.797" y="13.5" font-family="Verdana-Bold" font-size="36" fill="#294270">4</tspan>
    </text>
    <text transform="matrix(1, 0, 0, 1, 922.281, 329.361)">
      <tspan x="-12.797" y="13.5" font-family="Verdana-Bold" font-size="36" fill="#294270">7</tspan>
    </text>
    <text transform="matrix(1, 0, 0, 1, 864.797, 390.43)">
      <tspan x="-12.797" y="13.5" font-family="Verdana-Bold" font-size="36" fill="#294270">9</tspan>
    </text>
    <text transform="matrix(1, 0, 0, 1, 922.281, 390.43)">
      <tspan x="-12.797" y="13.5" font-family="Verdana-Bold" font-size="36" fill="#294270">8</tspan>
    </text>
    <text transform="matrix(1, 0, 0, 1, 864.797, 449.361)">
      <tspan x="-12.797" y="13.5" font-family="Verdana-Bold" font-size="36" fill="#294270">6</tspan>
    </text>
    <text transform="matrix(1, 0, 0, 1, 922.281, 449.361)">
      <tspan x="-12.797" y="13.5" font-family="Verdana-Bold" font-size="36" fill="#294270">1</tspan>
    </text>
  </g>
  <defs/>
</svg>
