<?xml version="1.0" encoding="UTF-8"?>
<!DOCTYPE svg PUBLIC "-//W3C//DTD SVG 1.1//EN" "http://www.w3.org/Graphics/SVG/1.1/DTD/svg11.dtd">
<svg version="1.1" xmlns="http://www.w3.org/2000/svg" xmlns:xlink="http://www.w3.org/1999/xlink" x="0px" y="0px" width="800" height="800" viewBox="0, 0, 800, 800">
  <g id="Background">
    <rect x="0" y="0" width="800" height="800" fill="#000000" fill-opacity="0"/>
  </g>
  <g id="Layer 1">
    <path d="M74.454,708.46 L404.11,70.762 L733.766,708.46 z" fill-opacity="0" stroke="#202C4C" stroke-width="2" stroke-dasharray="6,4"/>
    <path d="M349.167,178.331 L459.053,177.045" fill-opacity="0" stroke="#202C4C" stroke-width="2" stroke-dasharray="6,4"/>
    <path d="M294.225,283.328 L513.995,283.328" fill-opacity="0" stroke="#202C4C" stroke-width="2" stroke-dasharray="6,4"/>
    <path d="M242.697,389.108 L570.583,390.395" fill-opacity="0" stroke="#202C4C" stroke-width="2" stroke-dasharray="6,4"/>
    <path d="M132.221,602.775 L679.049,601.786" fill-opacity="0" stroke="#202C4C" stroke-width="2" stroke-dasharray="6,4"/>
    <path d="M184.835,495.893 L625.12,496.536" fill-opacity="0" stroke="#202C4C" stroke-width="2" stroke-dasharray="6,4"/>
    <path d="M349.167,178.331 L653.276,761.601" fill-opacity="0" stroke="#202C4C" stroke-width="2" stroke-dasharray="6,4"/>
    <path d="M294.225,283.328 L545.364,761.601" fill-opacity="0" stroke="#202C4C" stroke-width="2" stroke-dasharray="6,4"/>
    <path d="M403.772,708.46 L242.697,389.108" fill-opacity="0" stroke="#202C4C" stroke-width="2" stroke-dasharray="6,4"/>
    <path d="M184.835,495.893 L323.342,761.601" fill-opacity="0" stroke="#202C4C" stroke-width="2" stroke-dasharray="6,4"/>
    <path d="M459.053,177.045 L157.41,761.601" fill-opacity="0" stroke="#202C4C" stroke-width="2" stroke-dasharray="6,4"/>
    <path d="M513.995,283.328 L267.382,761.601" fill-opacity="0" stroke="#202C4C" stroke-width="2" stroke-dasharray="6,4"/>
    <path d="M570.583,390.395 L403.772,708.46" fill-opacity="0" stroke="#202C4C" stroke-width="2" stroke-dasharray="6,4"/>
    <path d="M625.12,496.536 L487.153,761.601" fill-opacity="0" stroke="#202C4C" stroke-width="2" stroke-dasharray="6,4"/>
    <path d="M679.049,602.775 L603.11,761.601" fill-opacity="0" stroke="#202C4C" stroke-width="2" stroke-dasharray="6,4"/>
    <path d="M132.221,602.775 L206.316,761.601" fill-opacity="0" stroke="#202C4C" stroke-width="2" stroke-dasharray="6,4"/>
    <text transform="matrix(1, 0, 0, 1, 382.365, 51.131)">
      <tspan x="-6.629" y="4.869" font-family="Verdana" font-size="24" fill="#202C4C">1</tspan>
    </text>
    <text transform="matrix(1, 0, 0, 1, 322.734, 157.414)">
      <tspan x="-6.629" y="4.869" font-family="Verdana" font-size="24" fill="#202C4C">2</tspan>
    </text>
    <text transform="matrix(1, 0, 0, 1, 478.097, 158.7)">
      <tspan x="-6.629" y="4.869" font-family="Verdana" font-size="24" fill="#202C4C">3</tspan>
    </text>
    <text transform="matrix(1, 0, 0, 1, 258.326, 262.695)">
      <tspan x="-6.629" y="4.869" font-family="Verdana" font-size="24" fill="#202C4C">4</tspan>
    </text>
    <text transform="matrix(1, 0, 0, 1, 536.308, 263.697)">
      <tspan x="-6.629" y="4.869" font-family="Verdana" font-size="24" fill="#202C4C">6</tspan>
    </text>
    <text transform="matrix(1, 0, 0, 1, 214.372, 369.158)">
      <tspan x="-6.629" y="4.869" font-family="Verdana" font-size="24" fill="#202C4C">7</tspan>
    </text>
    <text transform="matrix(1, 0, 0, 1, 596.538, 370.764)">
      <tspan x="-13.258" y="4.869" font-family="Verdana" font-size="24" fill="#202C4C">10</tspan>
    </text>
    <text transform="matrix(1, 0, 0, 1, 158.028, 468.359)">
      <tspan x="-13.258" y="4.869" font-family="Verdana" font-size="24" fill="#202C4C">11</tspan>
    </text>
    <text transform="matrix(1, 0, 0, 1, 651.585, 476.905)">
      <tspan x="-13.258" y="4.869" font-family="Verdana" font-size="24" fill="#202C4C">15</tspan>
    </text>
    <text transform="matrix(1, 0, 0, 1, 91.066, 581.86)">
      <tspan x="-13.258" y="4.869" font-family="Verdana" font-size="24" fill="#202C4C">16</tspan>
    </text>
    <text transform="matrix(1, 0, 0, 1, 707.71, 581.86)">
      <tspan x="-13.258" y="4.869" font-family="Verdana" font-size="24" fill="#202C4C">21</tspan>
    </text>
    <text transform="matrix(1, 0, 0, 1, 47.112, 688.829)">
      <tspan x="-13.258" y="4.869" font-family="Verdana" font-size="24" fill="#202C4C">22</tspan>
    </text>
    <text transform="matrix(1, 0, 0, 1, 758.098, 689.818)">
      <tspan x="-13.258" y="4.869" font-family="Verdana" font-size="24" fill="#202C4C">28</tspan>
    </text>
    <g>
      <path d="M404.11,79.265 C399.255,79.265 395.319,75.458 395.319,70.762 C395.319,66.066 399.255,62.259 404.11,62.259 C408.965,62.259 412.901,66.066 412.901,70.762 C412.901,75.458 408.965,79.265 404.11,79.265 z" fill="#202C4C"/>
      <path d="M404.11,79.265 C399.255,79.265 395.319,75.458 395.319,70.762 C395.319,66.066 399.255,62.259 404.11,62.259 C408.965,62.259 412.901,66.066 412.901,70.762 C412.901,75.458 408.965,79.265 404.11,79.265 z" fill-opacity="0" stroke="#202C4C" stroke-width="4"/>
    </g>
    <g>
      <path d="M349.159,186.191 C344.304,186.191 340.368,182.384 340.368,177.688 C340.368,172.992 344.304,169.186 349.159,169.186 C354.014,169.186 357.95,172.992 357.95,177.688 C357.95,182.384 354.014,186.191 349.159,186.191 z" fill="#202C4C"/>
      <path d="M349.159,186.191 C344.304,186.191 340.368,182.384 340.368,177.688 C340.368,172.992 344.304,169.186 349.159,169.186 C354.014,169.186 357.95,172.992 357.95,177.688 C357.95,182.384 354.014,186.191 349.159,186.191 z" fill-opacity="0" stroke="#202C4C" stroke-width="4"/>
    </g>
    <g>
      <path d="M183.296,504.396 C178.441,504.396 174.506,500.59 174.506,495.894 C174.506,491.198 178.441,487.391 183.296,487.391 C188.151,487.391 192.087,491.198 192.087,495.894 C192.087,500.59 188.151,504.396 183.296,504.396 z" fill="#202C4C"/>
      <path d="M183.296,504.396 C178.441,504.396 174.506,500.59 174.506,495.894 C174.506,491.198 178.441,487.391 183.296,487.391 C188.151,487.391 192.087,491.198 192.087,495.894 C192.087,500.59 188.151,504.396 183.296,504.396 z" fill-opacity="0" stroke="#202C4C" stroke-width="4"/>
    </g>
    <g>
      <path d="M569.558,398.114 C564.703,398.114 560.767,394.307 560.767,389.611 C560.767,384.915 564.703,381.108 569.558,381.108 C574.413,381.108 578.349,384.915 578.349,389.611 C578.349,394.307 574.413,398.114 569.558,398.114 z" fill="#202C4C"/>
      <path d="M569.558,398.114 C564.703,398.114 560.767,394.307 560.767,389.611 C560.767,384.915 564.703,381.108 569.558,381.108 C574.413,381.108 578.349,384.915 578.349,389.611 C578.349,394.307 574.413,398.114 569.558,398.114 z" fill-opacity="0" stroke="#202C4C" stroke-width="4"/>
    </g>
    <g>
      <path d="M239.53,398.254 C234.675,398.254 230.739,394.448 230.739,389.752 C230.739,385.056 234.675,381.249 239.53,381.249 C244.385,381.249 248.321,385.056 248.321,389.752 C248.321,394.448 244.385,398.254 239.53,398.254 z" fill="#202C4C"/>
      <path d="M239.53,398.254 C234.675,398.254 230.739,394.448 230.739,389.752 C230.739,385.056 234.675,381.249 239.53,381.249 C244.385,381.249 248.321,385.056 248.321,389.752 C248.321,394.448 244.385,398.254 239.53,398.254 z" fill-opacity="0" stroke="#202C4C" stroke-width="4"/>
    </g>
    <g>
      <path d="M513.852,291.831 C508.997,291.831 505.062,288.024 505.062,283.328 C505.062,278.632 508.997,274.825 513.852,274.825 C518.707,274.825 522.643,278.632 522.643,283.328 C522.643,288.024 518.707,291.831 513.852,291.831 z" fill="#202C4C"/>
      <path d="M513.852,291.831 C508.997,291.831 505.062,288.024 505.062,283.328 C505.062,278.632 508.997,274.825 513.852,274.825 C518.707,274.825 522.643,278.632 522.643,283.328 C522.643,288.024 518.707,291.831 513.852,291.831 z" fill-opacity="0" stroke="#202C4C" stroke-width="4"/>
    </g>
    <g>
      <path d="M295.119,291.831 C290.264,291.831 286.328,288.024 286.328,283.328 C286.328,278.632 290.264,274.825 295.119,274.825 C299.974,274.825 303.91,278.632 303.91,283.328 C303.91,288.024 299.974,291.831 295.119,291.831 z" fill="#202C4C"/>
      <path d="M295.119,291.831 C290.264,291.831 286.328,288.024 286.328,283.328 C286.328,278.632 290.264,274.825 295.119,274.825 C299.974,274.825 303.91,278.632 303.91,283.328 C303.91,288.024 299.974,291.831 295.119,291.831 z" fill-opacity="0" stroke="#202C4C" stroke-width="4"/>
    </g>
    <g>
      <path d="M461.25,186.191 C456.395,186.191 452.46,182.384 452.46,177.688 C452.46,172.992 456.395,169.186 461.25,169.186 C466.105,169.186 470.041,172.992 470.041,177.688 C470.041,182.384 466.105,186.191 461.25,186.191 z" fill="#202C4C"/>
      <path d="M461.25,186.191 C456.395,186.191 452.46,182.384 452.46,177.688 C452.46,172.992 456.395,169.186 461.25,169.186 C466.105,169.186 470.041,172.992 470.041,177.688 C470.041,182.384 466.105,186.191 461.25,186.191 z" fill-opacity="0" stroke="#202C4C" stroke-width="4"/>
    </g>
    <g>
      <path d="M404.978,291.831 C400.122,291.831 396.187,288.024 396.187,283.328 C396.187,278.632 400.122,274.825 404.978,274.825 C409.833,274.825 413.768,278.632 413.768,283.328 C413.768,288.024 409.833,291.831 404.978,291.831 z" fill="#202C4C"/>
      <path d="M404.978,291.831 C400.122,291.831 396.187,288.024 396.187,283.328 C396.187,278.632 400.122,274.825 404.978,274.825 C409.833,274.825 413.768,278.632 413.768,283.328 C413.768,288.024 409.833,291.831 404.978,291.831 z" fill-opacity="0" stroke="#202C4C" stroke-width="4"/>
    </g>
    <g>
      <path d="M622.941,504.717 C618.086,504.717 614.15,500.91 614.15,496.215 C614.15,491.519 618.086,487.712 622.941,487.712 C627.796,487.712 631.731,491.519 631.731,496.215 C631.731,500.91 627.796,504.717 622.941,504.717 z" fill="#202C4C"/>
      <path d="M622.941,504.717 C618.086,504.717 614.15,500.91 614.15,496.215 C614.15,491.519 618.086,487.712 622.941,487.712 C627.796,487.712 631.731,491.519 631.731,496.215 C631.731,500.91 627.796,504.717 622.941,504.717 z" fill-opacity="0" stroke="#202C4C" stroke-width="4"/>
    </g>
    <g>
      <path d="M513.852,504.396 C508.997,504.396 505.062,500.59 505.062,495.894 C505.062,491.198 508.997,487.391 513.852,487.391 C518.707,487.391 522.643,491.198 522.643,495.894 C522.643,500.59 518.707,504.396 513.852,504.396 z" fill="#202C4C"/>
      <path d="M513.852,504.396 C508.997,504.396 505.062,500.59 505.062,495.894 C505.062,491.198 508.997,487.391 513.852,487.391 C518.707,487.391 522.643,491.198 522.643,495.894 C522.643,500.59 518.707,504.396 513.852,504.396 z" fill-opacity="0" stroke="#202C4C" stroke-width="4"/>
    </g>
    <g>
      <path d="M404.11,504.717 C399.255,504.717 395.319,500.91 395.319,496.215 C395.319,491.519 399.255,487.712 404.11,487.712 C408.965,487.712 412.901,491.519 412.901,496.215 C412.901,500.91 408.965,504.717 404.11,504.717 z" fill="#202C4C"/>
      <path d="M404.11,504.717 C399.255,504.717 395.319,500.91 395.319,496.215 C395.319,491.519 399.255,487.712 404.11,487.712 C408.965,487.712 412.901,491.519 412.901,496.215 C412.901,500.91 408.965,504.717 404.11,504.717 z" fill-opacity="0" stroke="#202C4C" stroke-width="4"/>
    </g>
    <g>
      <path d="M295.119,504.396 C290.264,504.396 286.328,500.59 286.328,495.894 C286.328,491.198 290.264,487.391 295.119,487.391 C299.974,487.391 303.91,491.198 303.91,495.894 C303.91,500.59 299.974,504.396 295.119,504.396 z" fill="#202C4C"/>
      <path d="M295.119,504.396 C290.264,504.396 286.328,500.59 286.328,495.894 C286.328,491.198 290.264,487.391 295.119,487.391 C299.974,487.391 303.91,491.198 303.91,495.894 C303.91,500.59 299.974,504.396 295.119,504.396 z" fill-opacity="0" stroke="#202C4C" stroke-width="4"/>
    </g>
    <g>
      <path d="M461.25,398.254 C456.395,398.254 452.46,394.448 452.46,389.752 C452.46,385.056 456.395,381.249 461.25,381.249 C466.105,381.249 470.041,385.056 470.041,389.752 C470.041,394.448 466.105,398.254 461.25,398.254 z" fill="#202C4C"/>
      <path d="M461.25,398.254 C456.395,398.254 452.46,394.448 452.46,389.752 C452.46,385.056 456.395,381.249 461.25,381.249 C466.105,381.249 470.041,385.056 470.041,389.752 C470.041,394.448 466.105,398.254 461.25,398.254 z" fill-opacity="0" stroke="#202C4C" stroke-width="4"/>
    </g>
    <g>
      <path d="M349.159,398.114 C344.304,398.114 340.368,394.307 340.368,389.611 C340.368,384.915 344.304,381.108 349.159,381.108 C354.014,381.108 357.95,384.915 357.95,389.611 C357.95,394.307 354.014,398.114 349.159,398.114 z" fill="#202C4C"/>
      <path d="M349.159,398.114 C344.304,398.114 340.368,394.307 340.368,389.611 C340.368,384.915 344.304,381.108 349.159,381.108 C354.014,381.108 357.95,384.915 357.95,389.611 C357.95,394.307 354.014,398.114 349.159,398.114 z" fill-opacity="0" stroke="#202C4C" stroke-width="4"/>
    </g>
    <g>
      <path d="M734.112,717.123 C729.257,717.123 725.322,713.317 725.322,708.621 C725.322,703.925 729.257,700.118 734.112,700.118 C738.968,700.118 742.903,703.925 742.903,708.621 C742.903,713.317 738.968,717.123 734.112,717.123 z" fill="#202C4C"/>
      <path d="M734.112,717.123 C729.257,717.123 725.322,713.317 725.322,708.621 C725.322,703.925 729.257,700.118 734.112,700.118 C738.968,700.118 742.903,703.925 742.903,708.621 C742.903,713.317 738.968,717.123 734.112,717.123 z" fill-opacity="0" stroke="#202C4C" stroke-width="4"/>
    </g>
    <g>
      <path d="M626.182,717.123 C621.327,717.123 617.391,713.317 617.391,708.621 C617.391,703.925 621.327,700.118 626.182,700.118 C631.037,700.118 634.973,703.925 634.973,708.621 C634.973,713.317 631.037,717.123 626.182,717.123 z" fill="#202C4C"/>
      <path d="M626.182,717.123 C621.327,717.123 617.391,713.317 617.391,708.621 C617.391,703.925 621.327,700.118 626.182,700.118 C631.037,700.118 634.973,703.925 634.973,708.621 C634.973,713.317 631.037,717.123 626.182,717.123 z" fill-opacity="0" stroke="#202C4C" stroke-width="4"/>
    </g>
    <g>
      <path d="M513.852,717.123 C508.997,717.123 505.062,713.317 505.062,708.621 C505.062,703.925 508.997,700.118 513.852,700.118 C518.707,700.118 522.643,703.925 522.643,708.621 C522.643,713.317 518.707,717.123 513.852,717.123 z" fill="#202C4C"/>
      <path d="M513.852,717.123 C508.997,717.123 505.062,713.317 505.062,708.621 C505.062,703.925 508.997,700.118 513.852,700.118 C518.707,700.118 522.643,703.925 522.643,708.621 C522.643,713.317 518.707,717.123 513.852,717.123 z" fill-opacity="0" stroke="#202C4C" stroke-width="4"/>
    </g>
    <g>
      <path d="M677.987,611.001 C673.132,611.001 669.196,607.194 669.196,602.498 C669.196,597.802 673.132,593.995 677.987,593.995 C682.842,593.995 686.778,597.802 686.778,602.498 C686.778,607.194 682.842,611.001 677.987,611.001 z" fill="#202C4C"/>
      <path d="M677.987,611.001 C673.132,611.001 669.196,607.194 669.196,602.498 C669.196,597.802 673.132,593.995 677.987,593.995 C682.842,593.995 686.778,597.802 686.778,602.498 C686.778,607.194 682.842,611.001 677.987,611.001 z" fill-opacity="0" stroke="#202C4C" stroke-width="4"/>
    </g>
    <g>
      <path d="M571.136,610.679 C566.281,610.679 562.345,606.872 562.345,602.176 C562.345,597.481 566.281,593.674 571.136,593.674 C575.991,593.674 579.926,597.481 579.926,602.176 C579.926,606.872 575.991,610.679 571.136,610.679 z" fill="#202C4C"/>
      <path d="M571.136,610.679 C566.281,610.679 562.345,606.872 562.345,602.176 C562.345,597.481 566.281,593.674 571.136,593.674 C575.991,593.674 579.926,597.481 579.926,602.176 C579.926,606.872 575.991,610.679 571.136,610.679 z" fill-opacity="0" stroke="#202C4C" stroke-width="4"/>
    </g>
    <g>
      <path d="M461.25,611.001 C456.395,611.001 452.46,607.194 452.46,602.498 C452.46,597.802 456.395,593.995 461.25,593.995 C466.105,593.995 470.041,597.802 470.041,602.498 C470.041,607.194 466.105,611.001 461.25,611.001 z" fill="#202C4C"/>
      <path d="M461.25,611.001 C456.395,611.001 452.46,607.194 452.46,602.498 C452.46,597.802 456.395,593.995 461.25,593.995 C466.105,593.995 470.041,597.802 470.041,602.498 C470.041,607.194 466.105,611.001 461.25,611.001 z" fill-opacity="0" stroke="#202C4C" stroke-width="4"/>
    </g>
    <g>
      <path d="M133.76,611.001 C128.905,611.001 124.969,607.194 124.969,602.498 C124.969,597.802 128.905,593.995 133.76,593.995 C138.615,593.995 142.551,597.802 142.551,602.498 C142.551,607.194 138.615,611.001 133.76,611.001 z" fill="#202C4C"/>
      <path d="M133.76,611.001 C128.905,611.001 124.969,607.194 124.969,602.498 C124.969,597.802 128.905,593.995 133.76,593.995 C138.615,593.995 142.551,597.802 142.551,602.498 C142.551,607.194 138.615,611.001 133.76,611.001 z" fill-opacity="0" stroke="#202C4C" stroke-width="4"/>
    </g>
    <g>
      <path d="M239.53,611.001 C234.675,611.001 230.739,607.194 230.739,602.498 C230.739,597.802 234.675,593.995 239.53,593.995 C244.385,593.995 248.321,597.802 248.321,602.498 C248.321,607.194 244.385,611.001 239.53,611.001 z" fill="#202C4C"/>
      <path d="M239.53,611.001 C234.675,611.001 230.739,607.194 230.739,602.498 C230.739,597.802 234.675,593.995 239.53,593.995 C244.385,593.995 248.321,597.802 248.321,602.498 C248.321,607.194 244.385,611.001 239.53,611.001 z" fill-opacity="0" stroke="#202C4C" stroke-width="4"/>
    </g>
    <g>
      <path d="M404.11,717.123 C399.255,717.123 395.319,713.317 395.319,708.621 C395.319,703.925 399.255,700.118 404.11,700.118 C408.965,700.118 412.901,703.925 412.901,708.621 C412.901,713.317 408.965,717.123 404.11,717.123 z" fill="#202C4C"/>
      <path d="M404.11,717.123 C399.255,717.123 395.319,713.317 395.319,708.621 C395.319,703.925 399.255,700.118 404.11,700.118 C408.965,700.118 412.901,703.925 412.901,708.621 C412.901,713.317 408.965,717.123 404.11,717.123 z" fill-opacity="0" stroke="#202C4C" stroke-width="4"/>
    </g>
    <g>
      <path d="M349.159,610.679 C344.304,610.679 340.368,606.872 340.368,602.176 C340.368,597.481 344.304,593.674 349.159,593.674 C354.014,593.674 357.95,597.481 357.95,602.176 C357.95,606.872 354.014,610.679 349.159,610.679 z" fill="#202C4C"/>
      <path d="M349.159,610.679 C344.304,610.679 340.368,606.872 340.368,602.176 C340.368,597.481 344.304,593.674 349.159,593.674 C354.014,593.674 357.95,597.481 357.95,602.176 C357.95,606.872 354.014,610.679 349.159,610.679 z" fill-opacity="0" stroke="#202C4C" stroke-width="4"/>
    </g>
    <g>
      <path d="M73.514,717.123 C68.659,717.123 64.723,713.317 64.723,708.621 C64.723,703.925 68.659,700.118 73.514,700.118 C78.369,700.118 82.305,703.925 82.305,708.621 C82.305,713.317 78.369,717.123 73.514,717.123 z" fill="#000000"/>
      <path d="M73.514,717.123 C68.659,717.123 64.723,713.317 64.723,708.621 C64.723,703.925 68.659,700.118 73.514,700.118 C78.369,700.118 82.305,703.925 82.305,708.621 C82.305,713.317 78.369,717.123 73.514,717.123 z" fill-opacity="0" stroke="#202C4C" stroke-width="4"/>
    </g>
    <g>
      <path d="M183.296,717.123 C178.441,717.123 174.506,713.317 174.506,708.621 C174.506,703.925 178.441,700.118 183.296,700.118 C188.151,700.118 192.087,703.925 192.087,708.621 C192.087,713.317 188.151,717.123 183.296,717.123 z" fill="#202C4C"/>
      <path d="M183.296,717.123 C178.441,717.123 174.506,713.317 174.506,708.621 C174.506,703.925 178.441,700.118 183.296,700.118 C188.151,700.118 192.087,703.925 192.087,708.621 C192.087,713.317 188.151,717.123 183.296,717.123 z" fill-opacity="0" stroke="#202C4C" stroke-width="4"/>
    </g>
    <g>
      <path d="M295.119,717.123 C290.264,717.123 286.328,713.317 286.328,708.621 C286.328,703.925 290.264,700.118 295.119,700.118 C299.974,700.118 303.91,703.925 303.91,708.621 C303.91,713.317 299.974,717.123 295.119,717.123 z" fill="#202C4C"/>
      <path d="M295.119,717.123 C290.264,717.123 286.328,713.317 286.328,708.621 C286.328,703.925 290.264,700.118 295.119,700.118 C299.974,700.118 303.91,703.925 303.91,708.621 C303.91,713.317 299.974,717.123 295.119,717.123 z" fill-opacity="0" stroke="#202C4C" stroke-width="4"/>
    </g>
    <path d="M410.203,773.855 C406.562,773.855 403.61,771 403.61,767.478 C403.61,763.956 406.562,761.101 410.203,761.101 C413.844,761.101 416.796,763.956 416.796,767.478 C416.796,771 413.844,773.855 410.203,773.855 z" fill="#202C4C"/>
    <path d="M382.365,773.855 C378.724,773.855 375.772,771 375.772,767.478 C375.772,763.956 378.724,761.101 382.365,761.101 C386.006,761.101 388.958,763.956 388.958,767.478 C388.958,771 386.006,773.855 382.365,773.855 z" fill="#202C4C"/>
    <path d="M436.97,773.855 C433.329,773.855 430.377,771 430.377,767.478 C430.377,763.956 433.329,761.101 436.97,761.101 C440.611,761.101 443.563,763.956 443.563,767.478 C443.563,771 440.611,773.855 436.97,773.855 z" fill="#202C4C"/>
    <path d="M73.514,717.123 L49.362,761.601" fill-opacity="0" stroke="#202C4C" stroke-width="2" stroke-dasharray="6,4"/>
    <path d="M733.766,717.123 L755.536,761.601" fill-opacity="0" stroke="#202C4C" stroke-width="2" stroke-dasharray="6,4"/>
    <g>
      <path d="M74.454,708.46 L96.224,752.938" fill="#202C4C"/>
      <path d="M74.454,708.46 L96.224,752.938" fill-opacity="0" stroke="#202C4C" stroke-width="2" stroke-dasharray="6,4"/>
    </g>
    <path d="M733.766,717.123 L709.614,761.601" fill-opacity="0" stroke="#202C4C" stroke-width="2" stroke-dasharray="6,4"/>
  </g>
  <defs/>
</svg>
