<?xml version="1.0" encoding="UTF-8"?>
<!DOCTYPE svg PUBLIC "-//W3C//DTD SVG 1.1//EN" "http://www.w3.org/Graphics/SVG/1.1/DTD/svg11.dtd">
<svg version="1.1" xmlns="http://www.w3.org/2000/svg" xmlns:xlink="http://www.w3.org/1999/xlink" x="0px" y="0px" width="128" height="128" viewBox="0, 0, 128, 128">
  <g id="Background">
    <rect x="0" y="0" width="128" height="128" fill="#000000" fill-opacity="0"/>
  </g>
  <g id="Background"/>
  <g id="Image">
    <path d="M29.795,6 L98.205,6 C111.347,6 122,16.745 122,30 L122,98 C122,111.255 111.347,122 98.205,122 L29.795,122 C16.652,122 6,111.255 6,98 L6,30 C6,16.745 16.652,6 29.795,6 z" fill="#737370"/>
    <path d="M105,104.867 L83.888,104.867 L78.411,88.7 L49.057,88.7 L43.58,104.867 L23,104.867 L52.248,24.891 L75.752,24.891 z M73.466,74.037 L63.734,45.355 L54.003,74.037 z" fill="#EBEDED"/>
    <path d="M74.892,88.911 L74.892,76.273 Q70.985,76.597 66.435,77.164 Q61.886,77.731 59.531,78.487 Q56.64,79.405 55.115,81.16 Q53.59,82.916 53.59,85.778 Q53.59,87.668 53.911,88.857 Q54.232,90.045 55.517,91.125 Q56.748,92.205 58.46,92.718 Q60.173,93.231 63.813,93.231 Q66.703,93.231 69.674,92.043 Q72.644,90.855 74.892,88.911 z M74.892,98.308 Q73.34,99.496 71.038,101.171 Q68.737,102.845 66.703,103.817 Q63.866,105.113 60.815,105.734 Q57.764,106.355 54.125,106.355 Q45.561,106.355 39.781,101.009 Q34,95.662 34,87.344 Q34,80.701 36.944,76.489 Q39.888,72.276 45.293,69.846 Q50.646,67.415 58.567,66.389 Q66.489,65.363 74.999,64.877 L74.999,64.553 Q74.999,59.53 70.931,57.613 Q66.864,55.695 58.942,55.695 Q54.178,55.695 48.773,57.397 Q43.367,59.098 41.012,60.016 L39.245,60.016 L39.245,45.38 Q42.296,44.57 49.174,43.463 Q56.052,42.355 62.956,42.355 Q79.388,42.355 86.694,47.459 Q94,52.563 94,63.473 L94,104.735 L74.892,104.735 z" fill="#FFFF00"/>
  </g>
  <defs/>
</svg>
