<?xml version="1.0" encoding="UTF-8"?>
<!DOCTYPE svg PUBLIC "-//W3C//DTD SVG 1.1//EN" "http://www.w3.org/Graphics/SVG/1.1/DTD/svg11.dtd">
<svg version="1.1" xmlns="http://www.w3.org/2000/svg" xmlns:xlink="http://www.w3.org/1999/xlink" x="0px" y="0px" width="128" height="128" viewBox="0, 0, 128, 128">
  <g id="Background">
    <rect x="0" y="0" width="128" height="128" fill="#000000" fill-opacity="0"/>
  </g>
  <g id="Background"/>
  <g id="Image">
    <path d="M29.795,6 L98.205,6 C111.347,6 122,16.745 122,30 L122,98 C122,111.255 111.347,122 98.205,122 L29.795,122 C16.652,122 6,111.255 6,98 L6,30 C6,16.745 16.652,6 29.795,6 z" fill="#737370"/>
    <path d="M105,102.511 L83.888,102.511 L78.411,86.344 L49.057,86.344 L43.58,102.511 L23,102.511 L52.248,22.536 L75.752,22.536 z M73.466,71.681 L63.734,43 L54.003,71.681 z" fill="#EBEDED"/>
    <path d="M74.892,86.555 L74.892,73.917 Q70.985,74.241 66.435,74.808 Q61.886,75.376 59.531,76.132 Q56.64,77.05 55.115,78.805 Q53.59,80.56 53.59,83.423 Q53.59,85.313 53.911,86.501 Q54.232,87.689 55.517,88.77 Q56.748,89.85 58.46,90.363 Q60.173,90.876 63.813,90.876 Q66.703,90.876 69.674,89.688 Q72.644,88.5 74.892,86.555 z M74.892,95.953 Q73.34,97.141 71.038,98.815 Q68.737,100.489 66.703,101.462 Q63.866,102.758 60.815,103.379 Q57.764,104 54.125,104 Q45.561,104 39.781,98.653 Q34,93.306 34,84.989 Q34,78.346 36.944,74.133 Q39.888,69.921 45.293,67.49 Q50.646,65.06 58.567,64.034 Q66.489,63.008 74.999,62.522 L74.999,62.197 Q74.999,57.175 70.931,55.257 Q66.864,53.34 58.942,53.34 Q54.178,53.34 48.773,55.041 Q43.367,56.743 41.012,57.661 L39.245,57.661 L39.245,43.024 Q42.296,42.214 49.174,41.107 Q56.052,40 62.956,40 Q79.388,40 86.694,45.104 Q94,50.208 94,61.117 L94,102.38 L74.892,102.38 z" fill="#82D1F5"/>
  </g>
  <defs/>
</svg>
