<?xml version="1.0" encoding="UTF-8"?>
<!DOCTYPE svg PUBLIC "-//W3C//DTD SVG 1.1//EN" "http://www.w3.org/Graphics/SVG/1.1/DTD/svg11.dtd">
<svg version="1.1" xmlns="http://www.w3.org/2000/svg" xmlns:xlink="http://www.w3.org/1999/xlink" x="0px" y="0px" width="128" height="128" viewBox="0, 0, 128, 128">
  <g id="Background">
    <rect x="0" y="0" width="128" height="128" fill="#000000" fill-opacity="0"/>
  </g>
  <g id="Background"/>
  <g id="Image">
    <path d="M29.795,6 L98.205,6 C111.347,6 122,16.745 122,30 L122,98 C122,111.255 111.347,122 98.205,122 L29.795,122 C16.652,122 6,111.255 6,98 L6,30 C6,16.745 16.652,6 29.795,6 z" fill="#737370"/>
    <g>
      <path d="M49.503,99 L29,78.497 L29,49.503 L49.503,29 L78.497,29 L99,49.503 L99,78.497 L78.497,99 z" fill="#737370"/>
      <path d="M49.503,99 L29,78.497 L29,49.503 L49.503,29 L78.497,29 L99,49.503 L99,78.497 L78.497,99 z" fill-opacity="0" stroke="#FFFF00" stroke-width="8"/>
    </g>
    <path d="M81,54.375 Q81,57.035 80.119,59.076 Q79.237,61.117 77.624,62.618 Q76.01,64.118 73.754,65.303 Q71.498,66.488 68.659,67.463 L68.659,73.467 L58.141,73.467 L58.141,64.592 Q60.263,64.092 61.981,63.566 Q63.699,63.039 65.582,61.854 Q67.345,60.801 68.346,59.405 Q69.347,58.009 69.347,56.245 Q69.347,53.612 67.419,52.492 Q65.492,51.373 61.996,51.373 Q59.845,51.373 57.14,52.19 Q54.436,53.006 52.195,54.296 L51,54.296 L51,46.265 Q52.912,45.554 56.886,44.777 Q60.861,44 64.954,44 Q72.335,44 76.667,46.87 Q81,49.741 81,54.375 z M69.496,84 L57.424,84 L57.424,77.048 L69.496,77.048 z" fill="#FFFF00"/>
  </g>
  <defs/>
</svg>
