<?xml version="1.0" encoding="UTF-8"?>
<!DOCTYPE svg PUBLIC "-//W3C//DTD SVG 1.1//EN" "http://www.w3.org/Graphics/SVG/1.1/DTD/svg11.dtd">
<svg version="1.1" xmlns="http://www.w3.org/2000/svg" xmlns:xlink="http://www.w3.org/1999/xlink" x="0px" y="0px" width="128" height="128" viewBox="0, 0, 128, 128">
  <g id="Background">
    <rect x="0" y="0" width="128" height="128" fill="#000000" fill-opacity="0"/>
  </g>
  <g id="Background"/>
  <g id="Image">
    <path d="M29.795,6 L98.205,6 C111.347,6 122,16.745 122,30 L122,98 C122,111.255 111.347,122 98.205,122 L29.795,122 C16.653,122 6,111.255 6,98 L6,30 C6,16.745 16.653,6 29.795,6 z" fill="#737370"/>
    <g>
      <path d="M64,112 C37.49,112 16,90.51 16,64 C16,37.49 37.49,16 64,16 C90.51,16 112,37.49 112,64 C112,90.51 90.51,112 64,112 z" fill="#737370"/>
      <path d="M64,112 C37.49,112 16,90.51 16,64 C16,37.49 37.49,16 64,16 C90.51,16 112,37.49 112,64 C112,90.51 90.51,112 64,112 z" fill-opacity="0" stroke="#FFFF00" stroke-width="6"/>
    </g>
    <path d="M64,64 L96,64" fill-opacity="0" stroke="#FFFF00" stroke-width="6" stroke-linecap="round"/>
    <path d="M64,64 L49.219,27.355" fill-opacity="0" stroke="#FFFF00" stroke-width="6" stroke-linecap="round"/>
    <path d="M78.854,30.68 Q78.854,32.402 78.238,33.747 Q77.623,35.092 76.621,36.129 Q75.637,37.131 74.354,38.01 Q73.07,38.889 71.629,39.715 L71.629,43.67 L68.482,43.67 L68.482,38.309 Q69.625,37.658 70.952,36.885 Q72.279,36.111 73.123,35.32 Q74.143,34.406 74.705,33.431 Q75.268,32.455 75.268,30.943 Q75.268,28.957 73.923,27.981 Q72.578,27.006 70.451,27.006 Q68.553,27.006 66.856,27.604 Q65.16,28.201 64.176,28.816 L64,28.816 L64,25.23 Q65.23,24.756 67.12,24.378 Q69.01,24 70.697,24 Q74.477,24 76.665,25.837 Q78.854,27.674 78.854,30.68 z M71.91,50.701 L68.324,50.701 L68.324,46.992 L71.91,46.992 z" fill="#FFFF00"/>
    <path d="M54.854,78.68 Q54.854,80.402 54.238,81.747 Q53.623,83.092 52.621,84.129 Q51.637,85.131 50.354,86.01 Q49.07,86.889 47.629,87.715 L47.629,91.67 L44.482,91.67 L44.482,86.309 Q45.625,85.658 46.952,84.885 Q48.279,84.111 49.123,83.32 Q50.143,82.406 50.705,81.431 Q51.268,80.455 51.268,78.943 Q51.268,76.957 49.923,75.981 Q48.578,75.006 46.451,75.006 Q44.553,75.006 42.856,75.604 Q41.16,76.201 40.176,76.816 L40,76.816 L40,73.23 Q41.23,72.756 43.12,72.378 Q45.01,72 46.697,72 Q50.477,72 52.665,73.837 Q54.854,75.674 54.854,78.68 z M47.91,98.701 L44.324,98.701 L44.324,94.992 L47.91,94.992 z" fill="#FFFF00"/>
  </g>
  <defs/>
</svg>
