<?xml version="1.0" encoding="UTF-8"?>
<!DOCTYPE svg PUBLIC "-//W3C//DTD SVG 1.1//EN" "http://www.w3.org/Graphics/SVG/1.1/DTD/svg11.dtd">
<svg version="1.1" xmlns="http://www.w3.org/2000/svg" xmlns:xlink="http://www.w3.org/1999/xlink" x="0px" y="0px" width="128" height="128" viewBox="0, 0, 128, 128">
  <g id="Background">
    <rect x="0" y="0" width="128" height="128" fill="#000000" fill-opacity="0"/>
  </g>
  <g id="Background"/>
  <g id="Image">
    <path d="M29.795,6 L98.205,6 C111.347,6 122,16.745 122,30 L122,98 C122,111.255 111.347,122 98.205,122 L29.795,122 C16.652,122 6,111.255 6,98 L6,30 C6,16.745 16.652,6 29.795,6 z" fill="#737370"/>
    <g>
      <path d="M25.329,83.191 L37.67,35.379" fill="#82D1F5"/>
      <path d="M25.329,83.191 L37.67,35.379" fill-opacity="0" stroke="#82D1F5" stroke-width="4" stroke-linecap="round" stroke-linejoin="round"/>
    </g>
    <g>
      <path d="M37.67,35.379 L82.85,19.82" fill="#82D1F5"/>
      <path d="M37.67,35.379 L82.85,19.82" fill-opacity="0" stroke="#82D1F5" stroke-width="4" stroke-linecap="round" stroke-linejoin="round"/>
    </g>
    <g>
      <path d="M82.85,19.82 L101.699,57.52" fill="#82D1F5"/>
      <path d="M82.85,19.82 L101.699,57.52" fill-opacity="0" stroke="#82D1F5" stroke-width="4" stroke-linecap="round" stroke-linejoin="round"/>
    </g>
    <g>
      <path d="M101.699,57.52 L99.904,95.818" fill="#82D1F5"/>
      <path d="M101.699,57.52 L99.904,95.818" fill-opacity="0" stroke="#82D1F5" stroke-width="4" stroke-linecap="round" stroke-linejoin="round"/>
    </g>
    <g>
      <path d="M99.904,95.818 L52.032,112.872" fill="#82D1F5"/>
      <path d="M99.904,95.818 L52.032,112.872" fill-opacity="0" stroke="#82D1F5" stroke-width="4" stroke-linecap="round" stroke-linejoin="round"/>
    </g>
    <g>
      <path d="M52.032,112.872 L25.329,83.191" fill="#82D1F5"/>
      <path d="M52.032,112.872 L25.329,83.191" fill-opacity="0" stroke="#82D1F5" stroke-width="4" stroke-linecap="round" stroke-linejoin="round"/>
    </g>
    <g>
      <g>
        <path d="M25.265,84.433 C24.437,84.433 23.765,83.761 23.765,82.933 C23.765,82.105 24.437,81.433 25.265,81.433 C26.093,81.433 26.765,82.105 26.765,82.933 C26.765,83.761 26.093,84.433 25.265,84.433 z" fill="#82D1F5"/>
        <path d="M25.265,84.433 C24.437,84.433 23.765,83.761 23.765,82.933 C23.765,82.105 24.437,81.433 25.265,81.433 C26.093,81.433 26.765,82.105 26.765,82.933 C26.765,83.761 26.093,84.433 25.265,84.433 z" fill-opacity="0" stroke="#82D1F5" stroke-width="1"/>
      </g>
      <g>
        <path d="M25.265,84.433 C24.437,84.433 23.765,83.761 23.765,82.933 C23.765,82.105 24.437,81.433 25.265,81.433 C26.093,81.433 26.765,82.105 26.765,82.933 C26.765,83.761 26.093,84.433 25.265,84.433 z" fill="#82D1F5"/>
        <path d="M25.265,84.433 C24.437,84.433 23.765,83.761 23.765,82.933 C23.765,82.105 24.437,81.433 25.265,81.433 C26.093,81.433 26.765,82.105 26.765,82.933 C26.765,83.761 26.093,84.433 25.265,84.433 z" fill-opacity="0" stroke="#82D1F5" stroke-width="4"/>
      </g>
    </g>
    <g>
      <g>
        <path d="M52.255,113.963 C51.426,113.963 50.755,113.291 50.755,112.463 C50.755,111.635 51.426,110.963 52.255,110.963 C53.083,110.963 53.755,111.635 53.755,112.463 C53.755,113.291 53.083,113.963 52.255,113.963 z" fill="#82D1F5"/>
        <path d="M52.255,113.963 C51.426,113.963 50.755,113.291 50.755,112.463 C50.755,111.635 51.426,110.963 52.255,110.963 C53.083,110.963 53.755,111.635 53.755,112.463 C53.755,113.291 53.083,113.963 52.255,113.963 z" fill-opacity="0" stroke="#82D1F5" stroke-width="1"/>
      </g>
      <g>
        <path d="M52.255,113.963 C51.426,113.963 50.755,113.291 50.755,112.463 C50.755,111.635 51.426,110.963 52.255,110.963 C53.083,110.963 53.755,111.635 53.755,112.463 C53.755,113.291 53.083,113.963 52.255,113.963 z" fill="#82D1F5"/>
        <path d="M52.255,113.963 C51.426,113.963 50.755,113.291 50.755,112.463 C50.755,111.635 51.426,110.963 52.255,110.963 C53.083,110.963 53.755,111.635 53.755,112.463 C53.755,113.291 53.083,113.963 52.255,113.963 z" fill-opacity="0" stroke="#82D1F5" stroke-width="4"/>
      </g>
    </g>
    <g>
      <g>
        <path d="M99.657,97.082 C98.829,97.082 98.157,96.411 98.157,95.582 C98.157,94.754 98.829,94.082 99.657,94.082 C100.486,94.082 101.157,94.754 101.157,95.582 C101.157,96.411 100.486,97.082 99.657,97.082 z" fill="#82D1F5"/>
        <path d="M99.657,97.082 C98.829,97.082 98.157,96.411 98.157,95.582 C98.157,94.754 98.829,94.082 99.657,94.082 C100.486,94.082 101.157,94.754 101.157,95.582 C101.157,96.411 100.486,97.082 99.657,97.082 z" fill-opacity="0" stroke="#82D1F5" stroke-width="1"/>
      </g>
      <g>
        <path d="M99.657,97.082 C98.829,97.082 98.157,96.411 98.157,95.582 C98.157,94.754 98.829,94.082 99.657,94.082 C100.486,94.082 101.157,94.754 101.157,95.582 C101.157,96.411 100.486,97.082 99.657,97.082 z" fill="#82D1F5"/>
        <path d="M99.657,97.082 C98.829,97.082 98.157,96.411 98.157,95.582 C98.157,94.754 98.829,94.082 99.657,94.082 C100.486,94.082 101.157,94.754 101.157,95.582 C101.157,96.411 100.486,97.082 99.657,97.082 z" fill-opacity="0" stroke="#82D1F5" stroke-width="4"/>
      </g>
    </g>
    <g>
      <g>
        <path d="M101.738,58.799 C100.91,58.799 100.238,58.128 100.238,57.299 C100.238,56.471 100.91,55.799 101.738,55.799 C102.566,55.799 103.238,56.471 103.238,57.299 C103.238,58.128 102.566,58.799 101.738,58.799 z" fill="#82D1F5"/>
        <path d="M101.738,58.799 C100.91,58.799 100.238,58.128 100.238,57.299 C100.238,56.471 100.91,55.799 101.738,55.799 C102.566,55.799 103.238,56.471 103.238,57.299 C103.238,58.128 102.566,58.799 101.738,58.799 z" fill-opacity="0" stroke="#82D1F5" stroke-width="1"/>
      </g>
      <g>
        <path d="M101.738,58.799 C100.91,58.799 100.238,58.128 100.238,57.299 C100.238,56.471 100.91,55.799 101.738,55.799 C102.566,55.799 103.238,56.471 103.238,57.299 C103.238,58.128 102.566,58.799 101.738,58.799 z" fill="#82D1F5"/>
        <path d="M101.738,58.799 C100.91,58.799 100.238,58.128 100.238,57.299 C100.238,56.471 100.91,55.799 101.738,55.799 C102.566,55.799 103.238,56.471 103.238,57.299 C103.238,58.128 102.566,58.799 101.738,58.799 z" fill-opacity="0" stroke="#82D1F5" stroke-width="4"/>
      </g>
    </g>
    <g>
      <g>
        <path d="M82.769,21.167 C81.941,21.167 81.269,20.495 81.269,19.667 C81.269,18.838 81.941,18.167 82.769,18.167 C83.598,18.167 84.269,18.838 84.269,19.667 C84.269,20.495 83.598,21.167 82.769,21.167 z" fill="#82D1F5"/>
        <path d="M82.769,21.167 C81.941,21.167 81.269,20.495 81.269,19.667 C81.269,18.838 81.941,18.167 82.769,18.167 C83.598,18.167 84.269,18.838 84.269,19.667 C84.269,20.495 83.598,21.167 82.769,21.167 z" fill-opacity="0" stroke="#82D1F5" stroke-width="1"/>
      </g>
      <g>
        <path d="M82.769,21.167 C81.941,21.167 81.269,20.495 81.269,19.667 C81.269,18.838 81.941,18.167 82.769,18.167 C83.598,18.167 84.269,18.838 84.269,19.667 C84.269,20.495 83.598,21.167 82.769,21.167 z" fill="#82D1F5"/>
        <path d="M82.769,21.167 C81.941,21.167 81.269,20.495 81.269,19.667 C81.269,18.838 81.941,18.167 82.769,18.167 C83.598,18.167 84.269,18.838 84.269,19.667 C84.269,20.495 83.598,21.167 82.769,21.167 z" fill-opacity="0" stroke="#82D1F5" stroke-width="4"/>
      </g>
    </g>
    <g>
      <g>
        <path d="M38.235,36.953 C37.406,36.953 36.735,36.281 36.735,35.453 C36.735,34.625 37.406,33.953 38.235,33.953 C39.063,33.953 39.735,34.625 39.735,35.453 C39.735,36.281 39.063,36.953 38.235,36.953 z" fill="#82D1F5"/>
        <path d="M38.235,36.953 C37.406,36.953 36.735,36.281 36.735,35.453 C36.735,34.625 37.406,33.953 38.235,33.953 C39.063,33.953 39.735,34.625 39.735,35.453 C39.735,36.281 39.063,36.953 38.235,36.953 z" fill-opacity="0" stroke="#82D1F5" stroke-width="1"/>
      </g>
      <g>
        <path d="M38.235,36.953 C37.406,36.953 36.735,36.281 36.735,35.453 C36.735,34.625 37.406,33.953 38.235,33.953 C39.063,33.953 39.735,34.625 39.735,35.453 C39.735,36.281 39.063,36.953 38.235,36.953 z" fill="#82D1F5"/>
        <path d="M38.235,36.953 C37.406,36.953 36.735,36.281 36.735,35.453 C36.735,34.625 37.406,33.953 38.235,33.953 C39.063,33.953 39.735,34.625 39.735,35.453 C39.735,36.281 39.063,36.953 38.235,36.953 z" fill-opacity="0" stroke="#82D1F5" stroke-width="4"/>
      </g>
    </g>
    <g>
      <g>
        <path d="M63.311,71.509 C62.483,71.509 61.811,70.838 61.811,70.009 C61.811,69.181 62.483,68.509 63.311,68.509 C64.14,68.509 64.811,69.181 64.811,70.009 C64.811,70.838 64.14,71.509 63.311,71.509 z" fill="#82D1F5"/>
        <path d="M63.311,71.509 C62.483,71.509 61.811,70.838 61.811,70.009 C61.811,69.181 62.483,68.509 63.311,68.509 C64.14,68.509 64.811,69.181 64.811,70.009 C64.811,70.838 64.14,71.509 63.311,71.509 z" fill-opacity="0" stroke="#82D1F5" stroke-width="1"/>
      </g>
      <g>
        <path d="M63.311,71.509 C62.483,71.509 61.811,70.838 61.811,70.009 C61.811,69.181 62.483,68.509 63.311,68.509 C64.14,68.509 64.811,69.181 64.811,70.009 C64.811,70.838 64.14,71.509 63.311,71.509 z" fill="#82D1F5"/>
        <path d="M63.311,71.509 C62.483,71.509 61.811,70.838 61.811,70.009 C61.811,69.181 62.483,68.509 63.311,68.509 C64.14,68.509 64.811,69.181 64.811,70.009 C64.811,70.838 64.14,71.509 63.311,71.509 z" fill-opacity="0" stroke="#82D1F5" stroke-width="4"/>
      </g>
    </g>
    <g>
      <g>
        <path d="M48.774,55.482 C47.946,55.482 47.274,54.811 47.274,53.982 C47.274,53.154 47.946,52.482 48.774,52.482 C49.603,52.482 50.274,53.154 50.274,53.982 C50.274,54.811 49.603,55.482 48.774,55.482 z" fill="#82D1F5"/>
        <path d="M48.774,55.482 C47.946,55.482 47.274,54.811 47.274,53.982 C47.274,53.154 47.946,52.482 48.774,52.482 C49.603,52.482 50.274,53.154 50.274,53.982 C50.274,54.811 49.603,55.482 48.774,55.482 z" fill-opacity="0" stroke="#82D1F5" stroke-width="1"/>
      </g>
      <g>
        <path d="M48.774,55.482 C47.946,55.482 47.274,54.811 47.274,53.982 C47.274,53.154 47.946,52.482 48.774,52.482 C49.603,52.482 50.274,53.154 50.274,53.982 C50.274,54.811 49.603,55.482 48.774,55.482 z" fill="#82D1F5"/>
        <path d="M48.774,55.482 C47.946,55.482 47.274,54.811 47.274,53.982 C47.274,53.154 47.946,52.482 48.774,52.482 C49.603,52.482 50.274,53.154 50.274,53.982 C50.274,54.811 49.603,55.482 48.774,55.482 z" fill-opacity="0" stroke="#82D1F5" stroke-width="4"/>
      </g>
    </g>
    <g>
      <g>
        <path d="M79.876,57.228 C79.047,57.228 78.376,56.557 78.376,55.728 C78.376,54.9 79.047,54.228 79.876,54.228 C80.704,54.228 81.376,54.9 81.376,55.728 C81.376,56.557 80.704,57.228 79.876,57.228 z" fill="#82D1F5"/>
        <path d="M79.876,57.228 C79.047,57.228 78.376,56.557 78.376,55.728 C78.376,54.9 79.047,54.228 79.876,54.228 C80.704,54.228 81.376,54.9 81.376,55.728 C81.376,56.557 80.704,57.228 79.876,57.228 z" fill-opacity="0" stroke="#82D1F5" stroke-width="1"/>
      </g>
      <g>
        <path d="M79.876,57.228 C79.047,57.228 78.376,56.557 78.376,55.728 C78.376,54.9 79.047,54.228 79.876,54.228 C80.704,54.228 81.376,54.9 81.376,55.728 C81.376,56.557 80.704,57.228 79.876,57.228 z" fill="#82D1F5"/>
        <path d="M79.876,57.228 C79.047,57.228 78.376,56.557 78.376,55.728 C78.376,54.9 79.047,54.228 79.876,54.228 C80.704,54.228 81.376,54.9 81.376,55.728 C81.376,56.557 80.704,57.228 79.876,57.228 z" fill-opacity="0" stroke="#82D1F5" stroke-width="4"/>
      </g>
    </g>
    <g>
      <g>
        <path d="M80.408,85.628 C79.579,85.628 78.908,84.957 78.908,84.128 C78.908,83.3 79.579,82.628 80.408,82.628 C81.236,82.628 81.908,83.3 81.908,84.128 C81.908,84.957 81.236,85.628 80.408,85.628 z" fill="#82D1F5"/>
        <path d="M80.408,85.628 C79.579,85.628 78.908,84.957 78.908,84.128 C78.908,83.3 79.579,82.628 80.408,82.628 C81.236,82.628 81.908,83.3 81.908,84.128 C81.908,84.957 81.236,85.628 80.408,85.628 z" fill-opacity="0" stroke="#82D1F5" stroke-width="1"/>
      </g>
      <g>
        <path d="M80.408,85.628 C79.579,85.628 78.908,84.957 78.908,84.128 C78.908,83.3 79.579,82.628 80.408,82.628 C81.236,82.628 81.908,83.3 81.908,84.128 C81.908,84.957 81.236,85.628 80.408,85.628 z" fill="#82D1F5"/>
        <path d="M80.408,85.628 C79.579,85.628 78.908,84.957 78.908,84.128 C78.908,83.3 79.579,82.628 80.408,82.628 C81.236,82.628 81.908,83.3 81.908,84.128 C81.908,84.957 81.236,85.628 80.408,85.628 z" fill-opacity="0" stroke="#82D1F5" stroke-width="4"/>
      </g>
    </g>
    <g>
      <g>
        <path d="M62.153,92.49 C61.324,92.49 60.653,91.818 60.653,90.99 C60.653,90.161 61.324,89.49 62.153,89.49 C62.981,89.49 63.653,90.161 63.653,90.99 C63.653,91.818 62.981,92.49 62.153,92.49 z" fill="#82D1F5"/>
        <path d="M62.153,92.49 C61.324,92.49 60.653,91.818 60.653,90.99 C60.653,90.161 61.324,89.49 62.153,89.49 C62.981,89.49 63.653,90.161 63.653,90.99 C63.653,91.818 62.981,92.49 62.153,92.49 z" fill-opacity="0" stroke="#82D1F5" stroke-width="1"/>
      </g>
      <g>
        <path d="M62.153,92.49 C61.324,92.49 60.653,91.818 60.653,90.99 C60.653,90.161 61.324,89.49 62.153,89.49 C62.981,89.49 63.653,90.161 63.653,90.99 C63.653,91.818 62.981,92.49 62.153,92.49 z" fill="#82D1F5"/>
        <path d="M62.153,92.49 C61.324,92.49 60.653,91.818 60.653,90.99 C60.653,90.161 61.324,89.49 62.153,89.49 C62.981,89.49 63.653,90.161 63.653,90.99 C63.653,91.818 62.981,92.49 62.153,92.49 z" fill-opacity="0" stroke="#82D1F5" stroke-width="4"/>
      </g>
    </g>
    <g>
      <g>
        <path d="M44.425,82.896 C43.597,82.896 42.925,82.224 42.925,81.396 C42.925,80.568 43.597,79.896 44.425,79.896 C45.254,79.896 45.925,80.568 45.925,81.396 C45.925,82.224 45.254,82.896 44.425,82.896 z" fill="#82D1F5"/>
        <path d="M44.425,82.896 C43.597,82.896 42.925,82.224 42.925,81.396 C42.925,80.568 43.597,79.896 44.425,79.896 C45.254,79.896 45.925,80.568 45.925,81.396 C45.925,82.224 45.254,82.896 44.425,82.896 z" fill-opacity="0" stroke="#82D1F5" stroke-width="1"/>
      </g>
      <g>
        <path d="M44.425,82.896 C43.597,82.896 42.925,82.224 42.925,81.396 C42.925,80.568 43.597,79.896 44.425,79.896 C45.254,79.896 45.925,80.568 45.925,81.396 C45.925,82.224 45.254,82.896 44.425,82.896 z" fill="#82D1F5"/>
        <path d="M44.425,82.896 C43.597,82.896 42.925,82.224 42.925,81.396 C42.925,80.568 43.597,79.896 44.425,79.896 C45.254,79.896 45.925,80.568 45.925,81.396 C45.925,82.224 45.254,82.896 44.425,82.896 z" fill-opacity="0" stroke="#82D1F5" stroke-width="4"/>
      </g>
    </g>
  </g>
  <defs/>
</svg>
