<?xml version="1.0" encoding="UTF-8"?>
<!DOCTYPE svg PUBLIC "-//W3C//DTD SVG 1.1//EN" "http://www.w3.org/Graphics/SVG/1.1/DTD/svg11.dtd">
<svg version="1.1" xmlns="http://www.w3.org/2000/svg" xmlns:xlink="http://www.w3.org/1999/xlink" x="0px" y="0px" width="128" height="128" viewBox="0, 0, 128, 128">
  <g id="Background">
    <rect x="0" y="0" width="128" height="128" fill="#000000" fill-opacity="0"/>
  </g>
  <g id="Background"/>
  <g id="Image">
    <path d="M29.795,6 L98.205,6 C111.347,6 122,16.745 122,30 L122,98 C122,111.255 111.347,122 98.205,122 L29.795,122 C16.653,122 6,111.255 6,98 L6,30 C6,16.745 16.653,6 29.795,6 z" fill="#737370"/>
    <path d="M35.495,39.641 L35.495,30.507 L30.776,30.507 L30.776,39.641 L22,39.641 L22,44.553 L30.776,44.553 L30.776,53.687 L35.495,53.687 L35.495,44.553 L44.272,44.553 L44.272,39.641 z" fill="#82D1F5"/>
    <path d="M39.425,99.099 L39.425,108.123 L87.191,108.123 L87.191,99.099 z" fill="#82D1F5"/>
    <path d="M66.127,57.485 L46.381,83.735 L54.407,83.735 L74.224,57.485 z" fill="#82D1F5"/>
    <path d="M92.682,48.115 L97.065,54.37 L101.74,51.011 L97.298,44.814 L104.779,42.439 L102.967,37.053 L95.545,39.427 L95.545,31.666 L89.818,31.666 L89.818,39.427 L82.397,37.053 L80.761,42.439 L88.065,44.814 L83.624,51.011 L88.299,54.37 z" fill="#82D1F5"/>
    <path d="M59.207,44.719 L59.207,51.316 L66.498,51.316 L66.498,44.719 z M51.73,30.582 L58.556,30.582 Q58.556,29.425 58.835,28.418 Q59.114,27.411 59.694,26.662 Q60.275,25.912 61.18,25.462 Q62.086,25.012 63.34,25.012 Q65.197,25.012 66.242,25.955 Q67.287,26.897 67.287,28.868 Q67.333,30.025 66.846,30.796 Q66.358,31.567 65.569,32.21 Q64.779,32.852 63.851,33.495 Q62.922,34.137 62.086,35.016 Q61.25,35.894 60.623,37.136 Q59.996,38.379 59.857,40.221 L59.857,42.148 L66.126,42.148 L66.126,40.521 Q66.312,39.235 67.032,38.379 Q67.751,37.522 68.68,36.858 Q69.609,36.194 70.654,35.53 Q71.699,34.866 72.558,33.923 Q73.417,32.981 73.997,31.653 Q74.578,30.325 74.578,28.268 Q74.578,27.026 73.997,25.591 Q73.417,24.156 72.07,22.913 Q70.724,21.671 68.518,20.836 Q66.312,20 63.015,20 Q60.46,20 58.394,20.793 Q56.327,21.585 54.865,22.999 Q53.402,24.413 52.589,26.34 Q51.776,28.268 51.73,30.582 z" fill="#82D1F5"/>
  </g>
  <defs/>
</svg>
