<?xml version="1.0" encoding="UTF-8"?>
<!DOCTYPE svg PUBLIC "-//W3C//DTD SVG 1.1//EN" "http://www.w3.org/Graphics/SVG/1.1/DTD/svg11.dtd">
<svg version="1.1" xmlns="http://www.w3.org/2000/svg" xmlns:xlink="http://www.w3.org/1999/xlink" x="0px" y="0px" width="128" height="128" viewBox="0, 0, 128, 128">
  <g id="Background">
    <rect x="0" y="0" width="128" height="128" fill="#000000" fill-opacity="0"/>
  </g>
  <g id="Background"/>
  <g id="Image">
    <path d="M29.795,6 L98.205,6 C111.347,6 122,16.745 122,30 L122,98 C122,111.255 111.347,122 98.205,122 L29.795,122 C16.652,122 6,111.255 6,98 L6,30 C6,16.745 16.652,6 29.795,6 z" fill="#737370"/>
    <g>
      <path d="M26,28 L26,100" fill="#82D1F5"/>
      <path d="M26,28 L26,100" fill-opacity="0" stroke="#82D1F5" stroke-width="6" stroke-linecap="square"/>
    </g>
    <g>
      <path d="M102,28 L102,100" fill="#82D1F5"/>
      <path d="M102,28 L102,100" fill-opacity="0" stroke="#82D1F5" stroke-width="6" stroke-linecap="square"/>
    </g>
    <path d="M84.61,64.064 Q84.61,73.005 81.827,80.075 Q79.044,87.146 74.796,90.928 Q71.603,93.765 67.794,94.882 Q63.985,96 58.771,96 L43.39,96 L43.39,32 L59.21,32 Q64.542,32 68.409,33.311 Q72.276,34.622 74.913,37.029 Q79.425,41.069 82.018,47.925 Q84.61,54.78 84.61,64.064 z M72.979,63.936 Q72.979,57.617 71.412,53.126 Q69.845,48.634 66.446,46.098 Q64.718,44.852 62.916,44.4 Q61.114,43.949 57.481,43.949 L54.64,43.949 L54.64,84.008 L57.481,84.008 Q61.495,84.008 63.37,83.471 Q65.245,82.934 67.032,81.515 Q70.108,78.936 71.544,74.617 Q72.979,70.297 72.979,63.936 z" fill="#82D1F5"/>
  </g>
  <defs/>
</svg>
