<?xml version="1.0" encoding="UTF-8"?>
<!DOCTYPE svg PUBLIC "-//W3C//DTD SVG 1.1//EN" "http://www.w3.org/Graphics/SVG/1.1/DTD/svg11.dtd">
<svg version="1.1" xmlns="http://www.w3.org/2000/svg" xmlns:xlink="http://www.w3.org/1999/xlink" x="0px" y="0px" width="128" height="128" viewBox="0, 0, 128, 128">
  <g id="Background">
    <rect x="0" y="0" width="128" height="128" fill="#000000" fill-opacity="0"/>
  </g>
  <g id="Background"/>
  <g id="Image">
    <path d="M29.795,6 L98.205,6 C111.347,6 122,16.745 122,30 L122,98 C122,111.255 111.347,122 98.205,122 L29.795,122 C16.652,122 6,111.255 6,98 L6,30 C6,16.745 16.652,6 29.795,6 z" fill="#737370"/>
    <path d="M94,39.938 Q94,46.587 92.237,51.689 Q90.474,56.791 87.247,60.544 Q84.02,64.296 79.508,67.259 Q74.996,70.221 69.319,72.657 L69.319,87.667 L48.283,87.667 L48.283,65.481 Q52.526,64.23 55.962,62.914 Q59.398,61.597 63.163,58.635 Q66.689,56.001 68.691,52.512 Q70.693,49.023 70.693,44.612 Q70.693,38.029 66.839,35.231 Q62.984,32.433 55.992,32.433 Q51.689,32.433 46.281,34.474 Q40.873,36.515 36.39,39.741 L34,39.741 L34,19.662 Q37.825,17.884 45.773,15.942 Q53.721,14 61.908,14 Q76.669,14 85.335,21.176 Q94,28.352 94,39.938 z M70.992,114 L46.849,114 L46.849,96.62 L70.992,96.62 z" fill="#EBEDED"/>
    <path d="M33.839,77.039 L33.839,70.547 Q31.943,70.714 29.736,71.005 Q27.529,71.296 26.386,71.685 Q24.984,72.156 24.244,73.058 Q23.504,73.96 23.504,75.43 Q23.504,76.401 23.66,77.011 Q23.816,77.622 24.439,78.177 Q25.036,78.731 25.867,78.995 Q26.698,79.259 28.464,79.259 Q29.866,79.259 31.307,78.648 Q32.748,78.038 33.839,77.039 z M33.839,81.866 Q33.086,82.477 31.969,83.337 Q30.853,84.197 29.866,84.696 Q28.49,85.362 27.01,85.681 Q25.529,86 23.764,86 Q19.609,86 16.804,83.253 Q14,80.507 14,76.235 Q14,72.822 15.428,70.658 Q16.856,68.494 19.479,67.246 Q22.076,65.997 25.919,65.47 Q29.762,64.943 33.891,64.694 L33.891,64.527 Q33.891,61.947 31.917,60.962 Q29.944,59.977 26.101,59.977 Q23.79,59.977 21.167,60.851 Q18.544,61.725 17.402,62.197 L16.545,62.197 L16.545,54.678 Q18.025,54.262 21.362,53.694 Q24.699,53.125 28.048,53.125 Q36.02,53.125 39.565,55.747 Q43.109,58.368 43.109,63.972 L43.109,85.168 L33.839,85.168 z M82.138,69.16 Q82.138,76.512 78.334,81.145 Q74.53,85.778 68.843,85.778 Q66.402,85.778 64.558,85.223 Q62.715,84.668 61.053,83.614 L60.663,85.168 L51.704,85.168 L51.704,42 L61.053,42 L61.053,57.259 Q63.208,55.427 65.454,54.29 Q67.7,53.153 70.635,53.153 Q76.166,53.153 79.152,57.411 Q82.138,61.67 82.138,69.16 z M72.504,69.354 Q72.504,65.193 71.18,62.946 Q69.856,60.699 66.454,60.699 Q65.13,60.699 63.727,61.129 Q62.325,61.559 61.053,62.363 L61.053,78.01 Q62.065,78.398 62.974,78.537 Q63.883,78.676 65.156,78.676 Q68.869,78.676 70.687,76.346 Q72.504,74.015 72.504,69.354 z M104.08,86 Q100.263,86 97.108,85.029 Q93.953,84.058 91.616,82.033 Q89.305,80.008 88.033,76.928 Q86.76,73.849 86.76,69.715 Q86.76,65.359 88.124,62.197 Q89.487,59.034 91.928,56.953 Q94.291,54.984 97.381,54.068 Q100.471,53.153 103.795,53.153 Q106.781,53.153 109.3,53.846 Q111.819,54.54 114,55.649 L114,64.166 L112.676,64.166 Q112.13,63.667 111.364,63.001 Q110.598,62.335 109.482,61.697 Q108.417,61.087 107.145,60.685 Q105.872,60.282 104.184,60.282 Q100.445,60.282 98.433,62.821 Q96.42,65.359 96.42,69.715 Q96.42,74.209 98.485,76.54 Q100.549,78.87 104.34,78.87 Q106.106,78.87 107.521,78.44 Q108.936,78.01 109.871,77.427 Q110.754,76.873 111.429,76.262 Q112.104,75.652 112.676,75.069 L114,75.069 L114,83.586 Q111.793,84.696 109.391,85.348 Q106.989,86 104.08,86 z" fill="#82D1F5"/>
  </g>
  <defs/>
</svg>
