<?xml version="1.0" encoding="UTF-8"?>
<!DOCTYPE svg PUBLIC "-//W3C//DTD SVG 1.1//EN" "http://www.w3.org/Graphics/SVG/1.1/DTD/svg11.dtd">
<svg version="1.1" xmlns="http://www.w3.org/2000/svg" xmlns:xlink="http://www.w3.org/1999/xlink" x="0px" y="0px" width="128" height="128" viewBox="0, 0, 128, 128">
  <g id="Background">
    <rect x="0" y="0" width="128" height="128" fill="#000000" fill-opacity="0"/>
  </g>
  <g id="Background"/>
  <g id="Image">
    <path d="M29.795,6 L98.205,6 C111.347,6 122,16.745 122,30 L122,98 C122,111.255 111.347,122 98.205,122 L29.795,122 C16.652,122 6,111.255 6,98 L6,30 C6,16.745 16.652,6 29.795,6 z" fill="#737370"/>
    <path d="M89.881,36.914 C87.808,35.64 85.3,34.348 82.572,33.458 L85.163,32.834 C85.297,32.801 85.365,32.585 85.345,32.324 L87.755,31.744 C87.777,31.739 87.785,31.682 87.781,31.598 L90.546,30.933 C90.276,32.643 90.02,35.337 89.881,36.914 z M102.163,48.835 L103.035,50.769 C103.044,50.789 103.092,50.786 103.157,50.768 L105.264,55.445 C105.112,55.477 104.963,55.526 104.821,55.6 C104.821,55.6 104.522,55.759 104.175,55.942 C102.777,53.264 97.429,42.655 96.104,40.138 C96.497,39.932 97.023,39.616 97.521,39.274 L101.781,48.724 C101.832,48.836 101.986,48.874 102.163,48.835 z M63.695,51.173 L61.105,58.363 L60.958,54.099 C62.838,51.032 64.757,48.26 66.516,46.371 L65.868,48.172 C65.718,48.126 65.603,48.12 65.588,48.163 L64.545,51.052 L64.455,51.015 C64.119,50.876 63.778,50.948 63.695,51.173 z M27.96,80.496 C28.025,80.571 28.1,80.632 28.182,80.684 L27.888,80.683 L27.96,80.496 z M12.206,88.471 C12.205,88.976 12.251,89.469 12.336,89.948 L10.557,89.069 L12.445,93.217 L13.192,92.406 C13.347,92.691 13.517,92.965 13.704,93.225 L11.236,94.064 L15.257,95.76 L15.286,94.869 C15.522,95.048 15.763,95.218 16.018,95.366 L15.06,97.848 L18.001,96.155 C18.314,96.227 18.634,96.273 18.962,96.301 L18.361,97.859 L21.001,96.339 L22.25,96.343 L21.661,97.87 L24.3,96.35 L25.55,96.354 L24.962,97.881 L27.6,96.36 L28.849,96.364 L28.261,97.892 L30.9,96.371 L32.149,96.375 L31.561,97.902 L34.2,96.382 L35.45,96.386 L34.86,97.913 L37.5,96.393 L38.751,96.397 L38.161,97.924 L40.8,96.404 L42.05,96.408 L41.461,97.935 L44.1,96.415 L45.35,96.419 L44.76,97.946 L47.399,96.425 L48.65,96.43 L48.06,97.957 L50.7,96.436 L51.95,96.44 L51.36,97.967 L53.999,96.447 L55.249,96.451 L54.659,97.978 L57.3,96.458 L58.55,96.462 L57.96,97.989 L60.663,96.432 C61.109,96.39 61.542,96.301 61.963,96.179 L61.26,98 L65.066,95.808 L64.25,95.024 C64.587,94.77 64.906,94.491 65.198,94.182 L65.583,95.989 L67.512,91.862 L66.749,91.764 C67.141,90.81 67.362,89.759 67.366,88.652 C67.366,88.515 67.353,88.382 67.348,88.247 L68.423,84.701 L66.859,85.777 C66.75,85.479 66.629,85.187 66.487,84.908 L66.03,80.61 L64.786,82.669 C64.469,82.38 64.127,82.123 63.767,81.894 L64.886,78.994 L61.494,80.948 C61.289,80.903 61.079,80.87 60.867,80.844 L61.586,78.983 L58.463,80.783 L57.588,80.781 L58.286,78.972 L55.163,80.773 L54.289,80.77 L54.986,78.961 L51.863,80.762 L50.988,80.759 L51.685,78.95 L50.178,79.82 L50.183,78.289 L59.765,78.384 C60.842,78.388 61.72,77.459 61.723,76.31 L61.391,66.656 L66.549,52.341 C66.609,52.172 66.509,51.964 66.315,51.812 L67.367,48.893 C67.379,48.862 67.334,48.813 67.259,48.761 L68.891,44.233 C74.884,39.584 81.904,38.701 92.707,46.674 L100.225,65.953 C98.994,66.455 99.023,67.859 99.283,69.512 L101.359,82.704 C101.649,84.556 101.933,87.588 101.933,87.588 L97.559,89.279 L97.677,91.197 C97.677,91.197 101.483,90.856 105.642,89.543 C105.649,89.54 105.657,89.538 105.665,89.535 C105.847,89.478 106.029,89.418 106.212,89.356 C106.215,89.356 106.217,89.356 106.219,89.355 C109.934,88.107 113.8,86.071 115.401,82.793 C115.828,82.246 115.96,80.719 115.999,79.983 C116.054,79.77 114.217,68.129 114.217,68.129 C113.925,66.278 111.286,64.059 109.181,64.365 C109.057,64.382 108.915,64.405 108.765,64.428 L107.827,57.076 C107.748,56.464 107.398,55.929 106.887,55.639 C106.778,55.577 106.662,55.535 106.545,55.499 L104.182,50.257 C104.283,50.193 104.348,50.131 104.335,50.104 L103.473,48.19 L103.539,48.158 C103.785,48.031 103.931,47.808 103.863,47.656 L99.07,37.025 C99.024,36.763 98.929,36.509 98.783,36.283 L93.877,29.868 C93.497,29.284 92.87,29.003 92.251,29.056 C91.81,28.983 91.344,29.08 90.949,29.371 C90.935,29.381 90.922,29.399 90.909,29.42 L87.506,30.241 C87.466,30.103 87.42,30.009 87.39,30.017 L84.992,30.594 L84.992,30.591 C84.924,30.263 84.737,30.03 84.577,30.067 L75.184,32.331 C72.055,32.458 68.886,33.452 65.935,35.825 C61.552,39.349 57.831,43.722 54.659,48.371 L41.964,48.329 C40.885,48.326 40.007,49.255 40.004,50.404 L39.374,63.564 L21.492,63.505 C20.414,63.501 19.536,64.43 19.533,65.58 L19.499,75.911 C19.495,77.061 20.366,77.996 21.445,77.999 L27.703,78.061 L27.699,79.386 L25.463,80.675 L24.589,80.672 L25.285,78.864 L22.163,80.664 L21.288,80.661 L21.985,78.853 L18.777,80.702 C18.48,80.736 18.191,80.793 17.906,80.862 L18.686,78.842 L14.88,81.036 L15.707,81.828 C15.351,82.063 15.016,82.327 14.703,82.62 L14.668,80.399 L11.988,84.02 L13.256,84.476 C12.989,84.95 12.766,85.456 12.597,85.989 L11.255,84.221 L11.234,88.831 L12.206,88.466 L12.206,88.471" fill="#82D1F5"/>
  </g>
  <defs/>
</svg>
