<?xml version="1.0" encoding="UTF-8"?>
<!DOCTYPE svg PUBLIC "-//W3C//DTD SVG 1.1//EN" "http://www.w3.org/Graphics/SVG/1.1/DTD/svg11.dtd">
<svg version="1.1" xmlns="http://www.w3.org/2000/svg" xmlns:xlink="http://www.w3.org/1999/xlink" x="0px" y="0px" width="128" height="128" viewBox="0, 0, 128, 128">
  <g id="Background">
    <rect x="0" y="0" width="128" height="128" fill="#000000" fill-opacity="0"/>
  </g>
  <g id="Background"/>
  <g id="Image">
    <path d="M29.795,6 L98.205,6 C111.347,6 122,16.745 122,30 L122,98 C122,111.255 111.347,122 98.205,122 L29.795,122 C16.652,122 6,111.255 6,98 L6,30 C6,16.745 16.652,6 29.795,6 z" fill="#737370"/>
    <path d="M91.644,36.706 C89.571,35.432 87.063,34.14 84.335,33.25 L86.926,32.626 C87.06,32.593 87.128,32.377 87.108,32.116 L89.518,31.536 C89.54,31.531 89.548,31.474 89.544,31.39 L92.309,30.725 C92.039,32.435 91.783,35.129 91.644,36.706 z M103.926,48.628 L104.798,50.561 C104.807,50.581 104.855,50.578 104.92,50.56 L107.027,55.237 C106.875,55.27 106.726,55.318 106.584,55.392 C106.584,55.392 106.285,55.551 105.938,55.734 C104.54,53.056 99.192,42.447 97.867,39.93 C98.26,39.725 98.786,39.408 99.284,39.066 L103.544,48.517 C103.595,48.628 103.749,48.666 103.926,48.628 z M65.458,50.965 L62.868,58.155 L62.721,53.891 C64.601,50.825 66.52,48.052 68.279,46.163 L67.631,47.964 C67.481,47.919 67.366,47.912 67.351,47.955 L66.308,50.845 L66.218,50.807 C65.882,50.668 65.541,50.74 65.458,50.965 z M29.723,80.288 C29.788,80.363 29.863,80.424 29.945,80.476 L29.652,80.475 L29.723,80.288 z M13.969,88.263 C13.968,88.768 14.014,89.261 14.099,89.74 L12.32,88.861 L14.208,93.009 L14.955,92.198 C15.11,92.483 15.28,92.757 15.467,93.018 L12.999,93.856 L17.02,95.552 L17.049,94.661 C17.285,94.84 17.526,95.01 17.781,95.159 L16.823,97.64 L19.764,95.947 C20.077,96.019 20.397,96.065 20.725,96.093 L20.124,97.651 L22.764,96.131 L24.013,96.135 L23.424,97.662 L26.063,96.142 L27.313,96.146 L26.725,97.673 L29.363,96.153 L30.612,96.157 L30.024,97.684 L32.663,96.163 L33.912,96.167 L33.324,97.695 L35.963,96.174 L37.213,96.178 L36.623,97.705 L39.263,96.185 L40.514,96.189 L39.924,97.716 L42.563,96.196 L43.813,96.2 L43.224,97.727 L45.863,96.207 L47.113,96.211 L46.523,97.738 L49.162,96.218 L50.413,96.222 L49.823,97.749 L52.463,96.228 L53.713,96.233 L53.123,97.76 L55.762,96.239 L57.012,96.243 L56.422,97.77 L59.063,96.25 L60.313,96.254 L59.723,97.781 L62.426,96.224 C62.872,96.183 63.305,96.094 63.726,95.971 L63.023,97.792 L66.829,95.6 L66.013,94.816 C66.35,94.563 66.669,94.283 66.961,93.974 L67.346,95.781 L69.275,91.654 L68.512,91.556 C68.904,90.602 69.125,89.552 69.129,88.444 C69.129,88.307 69.116,88.175 69.111,88.039 L70.186,84.493 L68.622,85.57 C68.513,85.271 68.392,84.979 68.251,84.7 L67.793,80.402 L66.549,82.462 C66.232,82.172 65.89,81.915 65.53,81.687 L66.649,78.786 L63.257,80.74 C63.052,80.695 62.842,80.662 62.63,80.636 L63.349,78.775 L60.226,80.576 L59.351,80.573 L60.049,78.764 L56.926,80.565 L56.052,80.562 L56.749,78.753 L53.626,80.554 L52.751,80.551 L53.448,78.742 L51.941,79.612 L51.946,78.081 L61.528,78.177 C62.605,78.18 63.483,77.251 63.487,76.103 L63.154,66.449 L68.312,52.133 C68.372,51.964 68.272,51.756 68.078,51.605 L69.13,48.685 C69.142,48.654 69.097,48.605 69.022,48.554 L70.654,44.025 C76.647,39.376 83.667,38.493 94.47,46.466 L101.988,65.745 C100.757,66.247 100.786,67.651 101.046,69.304 L103.122,82.496 C103.412,84.348 103.696,87.38 103.696,87.38 L99.322,89.071 L99.44,90.989 C99.44,90.989 103.246,90.648 107.405,89.335 C107.412,89.332 107.42,89.33 107.428,89.328 C107.61,89.27 107.792,89.21 107.975,89.148 C107.978,89.148 107.98,89.148 107.982,89.147 C111.697,87.899 115.563,85.863 117.164,82.585 C117.591,82.039 117.723,80.512 117.762,79.775 C117.817,79.562 115.98,67.921 115.98,67.921 C115.688,66.07 113.049,63.851 110.944,64.158 C110.82,64.174 110.678,64.197 110.528,64.22 L109.59,56.868 C109.511,56.256 109.161,55.721 108.65,55.432 C108.541,55.37 108.425,55.328 108.308,55.291 L105.945,50.049 C106.046,49.985 106.111,49.924 106.098,49.896 L105.236,47.983 L105.302,47.95 C105.548,47.823 105.694,47.6 105.626,47.448 L100.833,36.818 C100.787,36.555 100.692,36.301 100.546,36.075 L95.64,29.66 C95.26,29.076 94.633,28.795 94.014,28.848 C93.573,28.776 93.107,28.872 92.712,29.163 C92.698,29.173 92.685,29.191 92.672,29.212 L89.269,30.033 C89.229,29.895 89.183,29.801 89.153,29.809 L86.755,30.386 L86.755,30.383 C86.687,30.055 86.5,29.822 86.34,29.859 L76.947,32.123 C73.818,32.251 70.649,33.244 67.698,35.617 C63.315,39.141 59.594,43.515 56.422,48.163 L43.727,48.121 C42.648,48.118 41.77,49.047 41.767,50.196 L41.137,63.356 L23.255,63.297 C22.177,63.294 21.3,64.222 21.296,65.372 L21.262,75.704 C21.258,76.853 22.129,77.788 23.208,77.791 L29.466,77.854 L29.462,79.178 L27.226,80.467 L26.352,80.464 L27.048,78.656 L23.926,80.456 L23.051,80.453 L23.749,78.645 L20.54,80.494 C20.243,80.528 19.954,80.585 19.669,80.654 L20.449,78.634 L16.643,80.828 L17.47,81.62 C17.114,81.855 16.779,82.119 16.466,82.412 L16.432,80.191 L13.751,83.812 L15.019,84.268 C14.752,84.743 14.529,85.248 14.36,85.781 L13.018,84.013 L12.997,88.623 L13.969,88.258 L13.969,88.263" fill="#FFFFFF"/>
  </g>
  <defs/>
</svg>
