<?xml version="1.0" encoding="UTF-8"?>
<!DOCTYPE svg PUBLIC "-//W3C//DTD SVG 1.1//EN" "http://www.w3.org/Graphics/SVG/1.1/DTD/svg11.dtd">
<svg version="1.1" xmlns="http://www.w3.org/2000/svg" xmlns:xlink="http://www.w3.org/1999/xlink" x="0px" y="0px" width="128" height="128" viewBox="0, 0, 128, 128">
  <g id="Background">
    <rect x="0" y="0" width="128" height="128" fill="#000000" fill-opacity="0"/>
  </g>
  <g id="Layer 1">
    <path d="M29.795,6 L98.205,6 C111.347,6 122,16.745 122,30 L122,98 C122,111.255 111.347,122 98.205,122 L29.795,122 C16.652,122 6,111.255 6,98 L6,30 C6,16.745 16.652,6 29.795,6 z" fill="#737370"/>
    <path d="M65.559,92.766 C46.452,92.766 30.963,88.969 30.963,84.284 C30.963,79.6 46.452,75.802 65.559,75.802 C84.665,75.802 100.154,79.6 100.154,84.284 C100.154,88.969 84.665,92.766 65.559,92.766 z" fill-opacity="0" stroke="#C5C5C5" stroke-width="5"/>
    <path d="M65.979,73.044 C46.872,73.044 31.383,69.246 31.383,64.562 C31.383,59.877 46.872,56.08 65.979,56.08 C85.085,56.08 100.574,59.877 100.574,64.562 C100.574,69.246 85.085,73.044 65.979,73.044 z" fill-opacity="0" stroke="#C5C5C5" stroke-width="5"/>
    <path d="M65.306,55.368 C57.367,55.301 49.353,54.92 41.583,53.157 C37.804,52.3 32.68,50.915 29.852,47.993 C26.355,44.38 28.921,40.814 32.626,38.744 C37.088,36.251 42.506,35.255 47.489,34.544 C56.963,33.191 66.905,33.072 76.45,33.819 C80.555,34.14 84.996,34.7 89.029,35.614 C92.807,36.472 97.932,37.857 100.76,40.778 C104.256,44.391 101.691,47.957 97.986,50.028 C95.352,51.499 91.913,52.503 89.029,53.157 C82.251,54.695 76.047,54.973 69.149,55.321 M65.306,50.368 C74.417,50.368 82.938,49.484 89.173,47.955 C92.115,47.234 94.427,46.395 95.929,45.524 C96.577,45.148 97.03,44.792 97.279,44.493 L97.369,44.386 L97.279,44.278 C97.03,43.98 96.577,43.623 95.929,43.247 C94.427,42.376 92.115,41.537 89.173,40.816 C82.938,39.287 74.417,38.404 65.306,38.404 C56.194,38.404 47.674,39.287 41.439,40.816 C38.497,41.537 36.185,42.376 34.683,43.247 C34.035,43.623 33.582,43.98 33.333,44.278 L33.243,44.386 L33.333,44.493 C33.582,44.792 34.035,45.148 34.683,45.524 C36.185,46.395 38.497,47.234 41.439,47.955 C47.674,49.484 56.194,50.368 65.306,50.368" fill="#C5C5C5"/>
    <g>
      <path d="M65.216,35.753 C69.423,35.753 72.867,32.848 72.867,29.235 C72.867,25.641 69.423,22.717 65.216,22.717 C60.998,22.717 57.565,25.641 57.565,29.235 C57.554,32.848 60.986,35.753 65.216,35.753" fill="#82D1F5"/>
      <path d="M54.814,99.054 C54.814,101.072 56.745,102.716 59.114,102.716 C61.483,102.716 63.413,101.072 63.413,99.054 L63.413,68.353 L67.019,68.353 L67.019,99.054 C67.019,101.072 68.926,102.716 71.295,102.716 C73.664,102.716 75.595,101.072 75.595,99.054 L75.629,46.131 L79.189,46.131 L79.189,65.636 C79.189,69.574 85.199,69.574 85.176,65.636 L85.176,45.697 C85.176,41.375 81.235,37.141 75.282,37.141 L54.953,37.111 C49.533,37.111 45.176,40.902 45.176,45.579 L45.176,65.636 C45.176,69.525 51.209,69.525 51.209,65.636 L51.209,46.131 L54.849,46.131 L54.814,99.054 z" fill="#82D1F5"/>
    </g>
    <path d="M40.597,50.81 C40.597,50.782 68.135,57.404 86.752,51.586" fill-opacity="0" stroke="#C5C5C5" stroke-width="5"/>
    <path d="M79.631,72.349 C65.777,74.621 52.56,72.612 52.56,72.349" fill-opacity="0" stroke="#C5C5C5" stroke-width="5"/>
    <path d="M79.537,92.037 C65.623,93.552 52.277,92.3 52.277,92.037" fill-opacity="0" stroke="#C5C5C5" stroke-width="5"/>
  </g>
  <defs/>
</svg>
