<?xml version="1.0" encoding="UTF-8"?>
<!DOCTYPE svg PUBLIC "-//W3C//DTD SVG 1.1//EN" "http://www.w3.org/Graphics/SVG/1.1/DTD/svg11.dtd">
<svg version="1.1" xmlns="http://www.w3.org/2000/svg" xmlns:xlink="http://www.w3.org/1999/xlink" x="0px" y="0px" width="128" height="128" viewBox="0, 0, 128, 128">
  <g id="Background">
    <rect x="0" y="0" width="128" height="128" fill="#000000" fill-opacity="0"/>
  </g>
  <g id="Background"/>
  <g id="Image">
    <path d="M29.795,6 L98.205,6 C111.347,6 122,16.745 122,30 L122,98 C122,111.255 111.347,122 98.205,122 L29.795,122 C16.652,122 6,111.255 6,98 L6,30 C6,16.745 16.652,6 29.795,6 z" fill="#737370"/>
    <path d="M26,96 L40,34" fill-opacity="0" stroke="#EBEDED" stroke-width="4" stroke-linecap="round"/>
    <path d="M50,26 L62,90" fill-opacity="0" stroke="#EBEDED" stroke-width="4" stroke-linecap="round"/>
    <path d="M50,90 L94,38" fill-opacity="0" stroke="#EBEDED" stroke-width="4" stroke-linecap="round"/>
    <path d="M76,20 L100,90" fill-opacity="0" stroke="#EBEDED" stroke-width="4" stroke-linecap="round"/>
    <path d="M50,112 L114,64" fill-opacity="0" stroke="#EBEDED" stroke-width="4" stroke-linecap="round"/>
    <path d="M22,58 L104,104" fill-opacity="0" stroke="#EBEDED" stroke-width="4" stroke-linecap="round"/>
    <path d="M18,48 L96,28" fill-opacity="0" stroke="#EBEDED" stroke-width="4" stroke-linecap="round"/>
    <path d="M32,98 L62,14" fill-opacity="0" stroke="#FFFF00" stroke-width="8" stroke-linecap="round"/>
    <path d="M62,14 L104,96" fill-opacity="0" stroke="#FFFF00" stroke-width="8" stroke-linecap="round"/>
    <path d="M104,96 L32,98" fill-opacity="0" stroke="#FFFF00" stroke-width="8" stroke-linecap="round"/>
  </g>
  <defs/>
</svg>
