<?xml version="1.0" encoding="UTF-8"?>
<!DOCTYPE svg PUBLIC "-//W3C//DTD SVG 1.1//EN" "http://www.w3.org/Graphics/SVG/1.1/DTD/svg11.dtd">
<svg version="1.1" xmlns="http://www.w3.org/2000/svg" xmlns:xlink="http://www.w3.org/1999/xlink" x="0px" y="0px" width="128" height="128" viewBox="0, 0, 128, 128">
  <g id="Background">
    <rect x="0" y="0" width="128" height="128" fill="#000000" fill-opacity="0"/>
  </g>
  <g id="Background"/>
  <g id="Image">
    <path d="M29.795,6 L98.205,6 C111.347,6 122,16.745 122,30 L122,98 C122,111.255 111.347,122 98.205,122 L29.795,122 C16.652,122 6,111.255 6,98 L6,30 C6,16.745 16.652,6 29.795,6 z" fill="#737370"/>
    <path d="M34,106 L34,34" fill-opacity="0" stroke="#FFFF00" stroke-width="4" stroke-linecap="round" stroke-linejoin="round"/>
    <path d="M46,22 L58,34" fill-opacity="0" stroke="#FFFF00" stroke-width="4" stroke-linecap="round" stroke-linejoin="round"/>
    <path d="M58,34 L70,22" fill-opacity="0" stroke="#FFFF00" stroke-width="4" stroke-linecap="round" stroke-linejoin="round"/>
    <path d="M70,22 L82,34" fill-opacity="0" stroke="#FFFF00" stroke-width="4" stroke-linecap="round" stroke-linejoin="round"/>
    <path d="M82,34 L94,22" fill-opacity="0" stroke="#FFFF00" stroke-width="4" stroke-linecap="round" stroke-linejoin="round"/>
    <path d="M46,22 L34,34" fill-opacity="0" stroke="#FFFF00" stroke-width="4" stroke-linecap="round" stroke-linejoin="round"/>
    <path d="M94,22 L94,94" fill-opacity="0" stroke="#FFFF00" stroke-width="4" stroke-linecap="round" stroke-linejoin="round"/>
    <path d="M82,106 L70,94" fill-opacity="0" stroke="#FFFF00" stroke-width="4" stroke-linecap="round" stroke-linejoin="round"/>
    <path d="M70,94 L58,106" fill-opacity="0" stroke="#FFFF00" stroke-width="4" stroke-linecap="round" stroke-linejoin="round"/>
    <path d="M58,106 L46,94" fill-opacity="0" stroke="#FFFF00" stroke-width="4" stroke-linecap="round" stroke-linejoin="round"/>
    <path d="M46,94 L34,106" fill-opacity="0" stroke="#FFFF00" stroke-width="4" stroke-linecap="round" stroke-linejoin="round"/>
    <text transform="matrix(1, 0, 0, 1, 64, 63.5)">
      <tspan x="-26" y="-3.5" font-family="Verdana-Bold" font-size="16" fill="#FFFF00">777</tspan>
      <tspan x="-26" y="15.5" font-family="Verdana-Bold" font-size="16" fill="#FFFF00">   777</tspan>
    </text>
    <path d="M82,106 L94,94" fill-opacity="0" stroke="#FFFF00" stroke-width="4"/>
  </g>
  <defs/>
</svg>
