<?xml version="1.0" encoding="UTF-8"?>
<!DOCTYPE svg PUBLIC "-//W3C//DTD SVG 1.1//EN" "http://www.w3.org/Graphics/SVG/1.1/DTD/svg11.dtd">
<svg version="1.1" xmlns="http://www.w3.org/2000/svg" xmlns:xlink="http://www.w3.org/1999/xlink" x="0px" y="0px" width="128" height="128" viewBox="0, 0, 128, 128">
  <g id="Background">
    <rect x="0" y="0" width="128" height="128" fill="#000000" fill-opacity="0"/>
  </g>
  <g id="Background"/>
  <g id="Image">
    <path d="M29.795,6 L98.205,6 C111.347,6 122,16.745 122,30 L122,98 C122,111.255 111.347,122 98.205,122 L29.795,122 C16.652,122 6,111.255 6,98 L6,30 C6,16.745 16.652,6 29.795,6 z" fill="#737370"/>
    <g>
      <path d="M24,72 L34,72 L34,104 L24,104 z" fill="#FFFFFF"/>
      <path d="M24,72 L34,72 L34,104 L24,104 z" fill-opacity="0" stroke="#FFFF00" stroke-width="1"/>
    </g>
    <g>
      <path d="M42,48 L52,48 L52,104 L42,104 z" fill="#FFFFFF"/>
      <path d="M42,48 L52,48 L52,104 L42,104 z" fill-opacity="0" stroke="#FFFF00" stroke-width="1"/>
    </g>
    <g>
      <path d="M60,36 L70,36 L70,104 L60,104 z" fill="#EBEDED"/>
      <path d="M60,36 L70,36 L70,104 L60,104 z" fill-opacity="0" stroke="#EBEDED" stroke-width="1"/>
    </g>
    <g>
      <path d="M78,32 L88,32 L88,104 L78,104 z" fill="#FFFFFF"/>
      <path d="M78,32 L88,32 L88,104 L78,104 z" fill-opacity="0" stroke="#FFFF00" stroke-width="1"/>
    </g>
    <g>
      <path d="M96,18 L106,18 L106,104 L96,104 z" fill="#FFFFFF"/>
      <path d="M96,18 L106,18 L106,104 L96,104 z" fill-opacity="0" stroke="#FFFF00" stroke-width="1"/>
    </g>
  </g>
  <defs/>
</svg>
