<?xml version="1.0" encoding="UTF-8"?>
<!DOCTYPE svg PUBLIC "-//W3C//DTD SVG 1.1//EN" "http://www.w3.org/Graphics/SVG/1.1/DTD/svg11.dtd">
<svg version="1.1" xmlns="http://www.w3.org/2000/svg" xmlns:xlink="http://www.w3.org/1999/xlink" x="0px" y="0px" width="128" height="128" viewBox="0, 0, 128, 128">
  <g id="Background">
    <rect x="0" y="0" width="128" height="128" fill="#000000" fill-opacity="0"/>
  </g>
  <g id="Background"/>
  <g id="Image">
    <path d="M29.795,6 L98.205,6 C111.347,6 122,16.745 122,30 L122,98 C122,111.255 111.347,122 98.205,122 L29.795,122 C16.652,122 6,111.255 6,98 L6,30 C6,16.745 16.652,6 29.795,6 z" fill="#737370"/>
    <g>
      <path d="M23,75 L33,75 L33,107 L23,107 z" fill="#82D1F5"/>
      <path d="M23,75 L33,75 L33,107 L23,107 z" fill-opacity="0" stroke="#82D1F5" stroke-width="1"/>
    </g>
    <g>
      <path d="M41,51 L51,51 L51,107 L41,107 z" fill="#82D1F5"/>
      <path d="M41,51 L51,51 L51,107 L41,107 z" fill-opacity="0" stroke="#82D1F5" stroke-width="1"/>
    </g>
    <g>
      <path d="M59,39 L69,39 L69,107 L59,107 z" fill="#EBEDED"/>
      <path d="M59,39 L69,39 L69,107 L59,107 z" fill-opacity="0" stroke="#EBEDED" stroke-width="1"/>
    </g>
    <g>
      <path d="M77,35 L87,35 L87,107 L77,107 z" fill="#82D1F5"/>
      <path d="M77,35 L87,35 L87,107 L77,107 z" fill-opacity="0" stroke="#82D1F5" stroke-width="1"/>
    </g>
    <g>
      <path d="M95,21 L105,21 L105,107 L95,107 z" fill="#82D1F5"/>
      <path d="M95,21 L105,21 L105,107 L95,107 z" fill-opacity="0" stroke="#82D1F5" stroke-width="1"/>
    </g>
  </g>
  <defs/>
</svg>
