<?xml version="1.0" encoding="UTF-8"?>
<!DOCTYPE svg PUBLIC "-//W3C//DTD SVG 1.1//EN" "http://www.w3.org/Graphics/SVG/1.1/DTD/svg11.dtd">
<svg version="1.1" xmlns="http://www.w3.org/2000/svg" xmlns:xlink="http://www.w3.org/1999/xlink" x="0px" y="0px" width="128" height="128" viewBox="0, 0, 128, 128">
  <g id="Background">
    <rect x="0" y="0" width="128" height="128" fill="#000000" fill-opacity="0"/>
  </g>
  <g id="Background"/>
  <g id="Image">
    <path d="M28.558,6.028 L96.968,6.028 C110.11,6.028 120.763,16.773 120.763,30.028 L120.763,98.028 C120.763,111.283 110.11,122.028 96.968,122.028 L28.558,122.028 C15.415,122.028 4.763,111.283 4.763,98.028 L4.763,30.028 C4.763,16.773 15.415,6.028 28.558,6.028 z" fill="#737370"/>
    <path d="M24.241,90.285 L8.585,90.285 L8.585,44.629 L24.241,44.629 L24.241,50.254 L15.921,50.254 L15.921,84.66 L24.241,84.66 z" fill="#FFFFFF"/>
    <path d="M31.956,75.004 L39.151,75.004 L39.151,46.106 L46.909,46.106 Q47.003,47.512 47.612,48.45 Q48.222,49.387 49.441,49.973 Q50.472,50.465 52.019,50.665 Q53.566,50.864 55.253,50.864 L55.253,56.559 L47.894,56.559 L47.894,75.004 L55.253,75.004 L55.253,81.098 L31.956,81.098 z" fill="#FFFFFF"/>
    <path d="M92.515,75.004 L85.32,75.004 L85.32,46.106 L77.562,46.106 Q77.468,47.512 76.859,48.449 Q76.249,49.387 75.03,49.973 Q73.999,50.465 72.452,50.664 Q70.905,50.864 69.218,50.864 L69.218,56.559 L76.577,56.559 L76.577,75.004 L69.218,75.004 L69.218,81.098 L92.515,81.098 z" fill="#FFFFFF"/>
    <path d="M117.405,44.629 L101.749,44.629 L101.749,50.254 L110.07,50.254 L110.07,84.66 L101.749,84.66 L101.749,90.285 L117.405,90.285 z" fill="#FFFFFF"/>
  </g>
  <defs/>
</svg>
