<?xml version="1.0" encoding="UTF-8"?>
<!DOCTYPE svg PUBLIC "-//W3C//DTD SVG 1.1//EN" "http://www.w3.org/Graphics/SVG/1.1/DTD/svg11.dtd">
<svg version="1.1" xmlns="http://www.w3.org/2000/svg" xmlns:xlink="http://www.w3.org/1999/xlink" x="0px" y="0px" width="128" height="128" viewBox="0, 0, 128, 128">
  <g id="Background">
    <rect x="0" y="0" width="128" height="128" fill="#000000" fill-opacity="0"/>
  </g>
  <g id="Background"/>
  <g id="Image">
    <path d="M29.795,6 L98.205,6 C111.347,6 122,16.745 122,30 L122,98 C122,111.255 111.347,122 98.205,122 L29.795,122 C16.652,122 6,111.255 6,98 L6,30 C6,16.745 16.652,6 29.795,6 z" fill="#737370"/>
    <path d="M25.656,89.656 L10,89.656 L10,44 L25.656,44 L25.656,49.625 L17.336,49.625 L17.336,84.031 L25.656,84.031 z" fill="#FFFFFF"/>
    <path d="M33.371,74.375 L40.566,74.375 L40.566,45.477 L48.324,45.477 Q48.418,46.883 49.027,47.821 Q49.637,48.758 50.856,49.344 Q51.887,49.836 53.434,50.036 Q54.981,50.235 56.668,50.235 L56.668,55.93 L49.309,55.93 L49.309,74.375 L56.668,74.375 L56.668,80.469 L33.371,80.469 z" fill="#FFFFFF"/>
    <path d="M93.93,74.375 L86.735,74.375 L86.735,45.477 L78.977,45.477 Q78.883,46.883 78.274,47.82 Q77.664,48.758 76.445,49.344 Q75.414,49.836 73.867,50.035 Q72.32,50.235 70.633,50.235 L70.633,55.93 L77.992,55.93 L77.992,74.375 L70.633,74.375 L70.633,80.469 L93.93,80.469 z" fill="#FFFFFF"/>
    <path d="M118.82,44 L103.164,44 L103.164,49.625 L111.485,49.625 L111.485,84.031 L103.164,84.031 L103.164,89.656 L118.82,89.656 z" fill="#FFFFFF"/>
  </g>
  <defs/>
</svg>
