<?xml version="1.0" encoding="UTF-8"?>
<!DOCTYPE svg PUBLIC "-//W3C//DTD SVG 1.1//EN" "http://www.w3.org/Graphics/SVG/1.1/DTD/svg11.dtd">
<svg version="1.1" xmlns="http://www.w3.org/2000/svg" xmlns:xlink="http://www.w3.org/1999/xlink" x="0px" y="0px" width="128" height="128" viewBox="0, 0, 128, 128">
  <g id="Background">
    <rect x="0" y="0" width="128" height="128" fill="#000000" fill-opacity="0"/>
  </g>
  <g id="Background"/>
  <g id="Layer 1">
    <path d="M29.795,6 L98.205,6 C111.347,6 122,16.745 122,30 L122,98 C122,111.255 111.347,122 98.205,122 L29.795,122 C16.652,122 6,111.255 6,98 L6,30 C6,16.745 16.652,6 29.795,6 z" fill="#737370"/>
    <path d="M25.656,85.656 L10,85.656 L10,40 L25.656,40 L25.656,45.625 L17.336,45.625 L17.336,80.031 L25.656,80.031 z" fill="#8FC7ED"/>
    <path d="M33.371,70.375 L40.566,70.375 L40.566,41.477 L48.324,41.477 Q48.418,42.883 49.027,43.821 Q49.636,44.758 50.855,45.344 Q51.886,45.836 53.433,46.036 Q54.98,46.235 56.668,46.235 L56.668,51.93 L49.308,51.93 L49.308,70.375 L56.668,70.375 L56.668,76.469 L33.371,76.469 z" fill="#8FC7ED"/>
    <path d="M93.929,70.375 L86.734,70.375 L86.734,41.477 L78.976,41.477 Q78.882,42.883 78.273,43.82 Q77.664,44.758 76.445,45.344 Q75.414,45.836 73.867,46.035 Q72.32,46.234 70.632,46.234 L70.632,51.93 L77.992,51.93 L77.992,70.375 L70.632,70.375 L70.632,76.469 L93.929,76.469 z" fill="#8FC7ED"/>
    <path d="M118.82,40 L103.164,40 L103.164,45.625 L111.484,45.625 L111.484,80.031 L103.164,80.031 L103.164,85.656 L118.82,85.656 z" fill="#8FC7ED"/>
  </g>
  <defs/>
</svg>
