<?xml version="1.0" encoding="UTF-8"?>
<!DOCTYPE svg PUBLIC "-//W3C//DTD SVG 1.1//EN" "http://www.w3.org/Graphics/SVG/1.1/DTD/svg11.dtd">
<svg version="1.1" xmlns="http://www.w3.org/2000/svg" xmlns:xlink="http://www.w3.org/1999/xlink" x="0px" y="0px" width="118" height="118" viewBox="0, 0, 118, 118">
  <g id="Background">
    <rect x="0" y="0" width="118" height="118" fill="#000000" fill-opacity="0"/>
  </g>
  <g id="Layer 1">
    <path d="M24.795,1 L93.205,1 C106.347,1 117,11.745 117,25 L117,93 C117,106.255 106.347,117 93.205,117 L24.795,117 C11.652,117 1,106.255 1,93 L1,25 C1,11.745 11.652,1 24.795,1 z" fill="#737370"/>
    <path d="M20.478,85.257 L4.822,85.257 L4.822,39.601 L20.478,39.601 L20.478,45.226 L12.158,45.226 L12.158,79.632 L20.478,79.632 z" fill="#8FC7ED"/>
    <path d="M28.193,69.976 L35.388,69.976 L35.388,41.078 L43.146,41.078 Q43.24,42.484 43.849,43.422 Q44.458,44.359 45.677,44.945 Q46.708,45.437 48.255,45.637 Q49.802,45.836 51.49,45.836 L51.49,51.531 L44.13,51.531 L44.13,69.976 L51.49,69.976 L51.49,76.07 L28.193,76.07 z" fill="#8FC7ED"/>
    <path d="M88.751,69.976 L81.556,69.976 L81.556,41.078 L73.798,41.078 Q73.704,42.484 73.095,43.421 Q72.486,44.359 71.267,44.945 Q70.236,45.437 68.689,45.636 Q67.142,45.835 65.454,45.835 L65.454,51.531 L72.814,51.531 L72.814,69.976 L65.454,69.976 L65.454,76.07 L88.751,76.07 z" fill="#8FC7ED"/>
    <path d="M113.642,39.601 L97.986,39.601 L97.986,45.226 L106.306,45.226 L106.306,79.632 L97.986,79.632 L97.986,85.257 L113.642,85.257 z" fill="#8FC7ED"/>
  </g>
  <defs/>
</svg>
