<?xml version="1.0" encoding="UTF-8"?>
<!DOCTYPE svg PUBLIC "-//W3C//DTD SVG 1.1//EN" "http://www.w3.org/Graphics/SVG/1.1/DTD/svg11.dtd">
<svg version="1.1" xmlns="http://www.w3.org/2000/svg" xmlns:xlink="http://www.w3.org/1999/xlink" x="0px" y="0px" width="118" height="118" viewBox="0, 0, 118, 118">
  <g id="Background">
    <rect x="0" y="0" width="118" height="118" fill="#000000" fill-opacity="0"/>
  </g>
  <g id="Layer 1">
    <path d="M24.886,1.281 L93.296,1.281 C106.438,1.281 117.091,12.026 117.091,25.281 L117.091,93.281 C117.091,106.536 106.438,117.281 93.296,117.281 L24.886,117.281 C11.743,117.281 1.091,106.536 1.091,93.281 L1.091,25.281 C1.091,12.026 11.743,1.281 24.886,1.281 z" fill="#737370"/>
    <path d="M114.943,54.127 L115.024,53.717 C105.969,51.878 96.678,51.86 91.057,52.097 C91.98,48.717 92.258,44.827 92.258,40.49 C92.258,34.27 89.957,29.293 86.223,25.507 C86.875,23.367 87.747,18.614 85.352,12.529 C85.352,12.529 81.127,11.167 71.571,17.664 C67.827,16.714 63.843,16.245 59.853,16.245 C55.463,16.245 51.027,16.813 46.89,17.966 C37.028,11.131 32.675,12.531 32.675,12.531 C29.833,19.75 31.59,25.096 32.124,26.423 C28.784,30.085 26.745,34.76 26.745,40.492 C26.745,44.818 27.23,48.7 28.414,52.074 C22.745,51.864 13.793,51.945 5.061,53.719 L5.141,54.129 C13.925,52.344 22.934,52.282 28.569,52.499 C28.83,53.197 29.121,53.874 29.447,54.529 C23.875,54.712 14.36,55.433 5.242,58.046 L5.355,58.448 C14.545,55.815 24.142,55.112 29.66,54.94 C32.989,61.245 39.553,65.317 51.23,66.596 C49.572,67.727 47.881,69.65 47.196,72.905 C44.938,74.002 37.788,76.681 33.499,69.186 C33.499,69.186 31.098,64.726 26.502,64.377 C26.502,64.377 22.043,64.307 26.194,67.199 C26.194,67.199 29.177,68.627 31.235,73.994 C31.235,73.994 33.92,83.148 46.878,80.211 L46.878,89.666 C46.878,89.666 46.604,93.011 43.586,94.125 C43.586,94.125 41.802,95.379 43.724,96.075 C43.724,96.075 52.089,96.772 52.089,89.806 L52.089,79.495 C52.089,79.495 51.757,75.407 53.735,73.985 L53.735,90.92 C53.735,90.92 53.598,94.961 51.541,96.494 C51.541,96.494 50.168,99.001 53.186,98.305 C53.186,98.305 58.946,97.469 59.221,90.642 L59.351,73.503 L60.736,73.503 L60.867,90.642 C61.141,97.469 66.902,98.305 66.902,98.305 C69.919,99.001 68.547,96.494 68.547,96.494 C66.49,94.961 66.353,90.92 66.353,90.92 L66.353,74.131 C68.329,75.695 67.998,79.495 67.998,79.495 L67.998,89.806 C67.998,96.772 76.365,96.075 76.365,96.075 C78.284,95.379 76.502,94.125 76.502,94.125 C73.485,93.011 73.21,89.666 73.21,89.666 L73.21,76.151 C73.21,70.88 71.026,68.089 68.89,66.616 C81.343,65.362 87.319,61.277 90.072,54.929 C95.527,55.082 105.343,55.757 114.733,58.448 L114.844,58.046 C105.508,55.371 95.757,54.679 90.247,54.516 C90.508,53.875 90.736,53.208 90.938,52.522 C96.531,52.286 105.867,52.289 114.956,54.134 z" fill="#FFFFFF"/>
    <path d="M25.456,67.556 L24.565,70.709 C24.565,70.709 24.332,71.849 25.39,72.051 C26.494,72.029 26.403,70.98 26.326,70.64 z" fill="#9CDAF1"/>
  </g>
  <defs/>
</svg>
