<?xml version="1.0" encoding="UTF-8"?>
<!DOCTYPE svg PUBLIC "-//W3C//DTD SVG 1.1//EN" "http://www.w3.org/Graphics/SVG/1.1/DTD/svg11.dtd">
<svg version="1.1" xmlns="http://www.w3.org/2000/svg" xmlns:xlink="http://www.w3.org/1999/xlink" x="0px" y="0px" width="128" height="128" viewBox="0, 0, 128, 128">
  <g id="Background">
    <rect x="0" y="0" width="128" height="128" fill="#000000" fill-opacity="0"/>
  </g>
  <g id="Background"/>
  <g id="Image">
    <path d="M28.284,5.723 L96.694,5.723 C109.836,5.723 120.489,16.468 120.489,29.723 L120.489,97.723 C120.489,110.978 109.836,121.723 96.694,121.723 L28.284,121.723 C15.141,121.723 4.489,110.978 4.489,97.723 L4.489,29.723 C4.489,16.468 15.141,5.723 28.284,5.723 z" fill="#737370"/>
    <path d="M118.431,58.85 L118.513,58.44 C109.458,56.601 100.167,56.583 94.545,56.82 C95.469,53.44 95.747,49.55 95.747,45.213 C95.747,38.993 93.446,34.016 89.712,30.23 C90.364,28.09 91.236,23.337 88.841,17.252 C88.841,17.252 84.616,15.89 75.06,22.387 C71.316,21.437 67.332,20.968 63.342,20.968 C58.952,20.968 54.516,21.536 50.379,22.689 C40.517,15.854 36.164,17.254 36.164,17.254 C33.322,24.473 35.079,29.819 35.613,31.146 C32.273,34.808 30.234,39.483 30.234,45.215 C30.234,49.541 30.719,53.423 31.903,56.797 C26.234,56.587 17.281,56.668 8.55,58.442 L8.63,58.852 C17.414,57.067 26.423,57.005 32.058,57.222 C32.319,57.92 32.609,58.597 32.935,59.252 C27.363,59.435 17.849,60.156 8.731,62.769 L8.844,63.171 C18.034,60.538 27.63,59.835 33.148,59.663 C36.478,65.968 43.041,70.04 54.718,71.319 C53.061,72.45 51.37,74.373 50.685,77.628 C48.427,78.725 41.277,81.404 36.988,73.909 C36.988,73.909 34.586,69.449 29.99,69.1 C29.99,69.1 25.532,69.03 29.683,71.922 C29.683,71.922 32.666,73.35 34.724,78.717 C34.724,78.717 37.409,87.871 50.366,84.934 L50.366,94.389 C50.366,94.389 50.092,97.734 47.074,98.848 C47.074,98.848 45.291,100.102 47.212,100.798 C47.212,100.798 55.578,101.495 55.578,94.529 L55.578,84.218 C55.578,84.218 55.246,80.13 57.223,78.708 L57.223,95.643 C57.223,95.643 57.087,99.684 55.029,101.217 C55.029,101.217 53.657,103.724 56.675,103.028 C56.675,103.028 62.435,102.192 62.709,95.365 L62.84,78.226 L64.224,78.226 L64.356,95.365 C64.63,102.192 70.39,103.028 70.39,103.028 C73.407,103.724 72.036,101.217 72.036,101.217 C69.979,99.684 69.842,95.643 69.842,95.643 L69.842,78.854 C71.818,80.418 71.487,84.218 71.487,84.218 L71.487,94.529 C71.487,101.495 79.853,100.798 79.853,100.798 C81.773,100.102 79.991,98.848 79.991,98.848 C76.973,97.734 76.699,94.389 76.699,94.389 L76.699,80.874 C76.699,75.603 74.515,72.812 72.378,71.339 C84.831,70.085 90.807,66 93.561,59.652 C99.016,59.805 108.832,60.48 118.222,63.171 L118.333,62.769 C108.997,60.094 99.246,59.402 93.736,59.239 C93.997,58.598 94.225,57.931 94.427,57.245 C100.02,57.009 109.356,57.012 118.444,58.857 z" fill="#8FC7ED"/>
    <path d="M83.808,45.125 C86.49,47.594 88.059,50.575 88.059,53.787 C88.059,68.783 77.055,69.19 63.482,69.19 C49.907,69.19 38.904,67.113 38.904,53.787 C38.904,50.596 40.451,47.634 43.1,45.175 C47.519,41.077 54.997,43.247 63.482,43.247 C71.928,43.246 79.381,41.054 83.806,45.124 z" fill="#EBEEED"/>
    <path d="M55.307,54.55 C55.307,58.681 53.017,62.029 50.193,62.029 C47.369,62.029 45.079,58.681 45.079,54.55 C45.079,50.42 47.369,47.073 50.193,47.073 C53.017,47.076 55.307,50.42 55.307,54.55 z M82.744,54.55 C82.744,58.681 80.455,62.029 77.631,62.029 C74.806,62.029 72.517,58.681 72.517,54.55 C72.517,50.42 74.806,47.073 77.631,47.073 C80.455,47.076 82.744,50.42 82.744,54.55 z" fill="#FFFFFF"/>
    <g>
      <path d="M53.668,54.644 C53.668,57.398 52.14,59.629 50.259,59.629 C48.378,59.629 46.85,57.398 46.85,54.644 C46.85,51.89 48.377,49.657 50.259,49.657 C52.139,49.657 53.667,51.889 53.667,54.643 z M81.103,54.644 C81.103,57.398 79.574,59.629 77.693,59.629 C75.812,59.629 74.284,57.398 74.284,54.644 C74.284,51.89 75.811,49.657 77.693,49.657 C79.573,49.657 81.102,51.889 81.102,54.643 z" fill="#8FC7ED"/>
      <path d="M64.838,61.192 C64.838,61.909 64.265,62.491 63.559,62.491 C62.853,62.491 62.28,61.909 62.28,61.192 C62.28,60.474 62.853,59.892 63.559,59.892 C64.265,59.892 64.838,60.474 64.838,61.192 z" fill="#8FC7ED"/>
      <path d="M60.575,64.477 C60.499,64.259 60.612,64.021 60.825,63.944 C61.039,63.867 61.274,63.982 61.349,64.198 C61.679,65.142 62.56,65.776 63.543,65.776 C64.527,65.776 65.408,65.143 65.737,64.198 C65.813,63.98 66.047,63.867 66.262,63.944 C66.476,64.021 66.588,64.259 66.512,64.477 C66.068,65.753 64.874,66.611 63.543,66.611 C62.213,66.611 61.021,65.758 60.577,64.48 z" fill="#8FC7ED"/>
    </g>
    <path d="M28.944,72.279 L28.054,75.432 C28.054,75.432 27.821,76.572 28.879,76.774 C29.983,76.752 29.892,75.703 29.815,75.363 z" fill="#9CDAF1"/>
  </g>
  <defs/>
</svg>
