<?xml version="1.0" encoding="UTF-8"?>
<!DOCTYPE svg PUBLIC "-//W3C//DTD SVG 1.1//EN" "http://www.w3.org/Graphics/SVG/1.1/DTD/svg11.dtd">
<svg version="1.1" xmlns="http://www.w3.org/2000/svg" xmlns:xlink="http://www.w3.org/1999/xlink" x="0px" y="0px" width="128" height="128" viewBox="0, 0, 128, 128">
  <g id="Background">
    <rect x="0" y="0" width="128" height="128" fill="#000000" fill-opacity="0"/>
  </g>
  <g id="Background"/>
  <g id="Image">
    <path d="M29.795,6 L98.205,6 C111.347,6 122,16.745 122,30 L122,98 C122,111.255 111.347,122 98.205,122 L29.795,122 C16.653,122 6,111.255 6,98 L6,30 C6,16.745 16.653,6 29.795,6 z" fill="#737370"/>
    <g>
      <path d="M145.61,52.888" fill="#294270"/>
      <path d="M145.61,52.888" fill-opacity="0" stroke="#FFFF00" stroke-width="4"/>
    </g>
    <path d="M30,96 L30,32 L96,32 L96,96 L30,96 z" fill-opacity="0" stroke="#8FC7ED" stroke-width="8"/>
    <path d="M48,96 L48,76" fill-opacity="0" stroke="#8FC7ED" stroke-width="8"/>
    <path d="M30,48 L68,48" fill-opacity="0" stroke="#8FC7ED" stroke-width="8"/>
    <path d="M76,48 L96,48" fill-opacity="0" stroke="#8FC7ED" stroke-width="8"/>
    <path d="M44,64 L96,64" fill-opacity="0" stroke="#8FC7ED" stroke-width="8"/>
    <path d="M64,84 L64,64" fill-opacity="0" stroke="#8FC7ED" stroke-width="8"/>
    <path d="M80,96 L80,76" fill-opacity="0" stroke="#8FC7ED" stroke-width="8"/>
  </g>
  <defs/>
</svg>
