<?xml version="1.0" encoding="UTF-8"?>
<!DOCTYPE svg PUBLIC "-//W3C//DTD SVG 1.1//EN" "http://www.w3.org/Graphics/SVG/1.1/DTD/svg11.dtd">
<svg version="1.1" xmlns="http://www.w3.org/2000/svg" xmlns:xlink="http://www.w3.org/1999/xlink" x="0px" y="0px" width="128" height="128" viewBox="0, 0, 128, 128">
  <g id="Background">
    <rect x="0" y="0" width="128" height="128" fill="#000000" fill-opacity="0"/>
  </g>
  <g id="Background"/>
  <g id="Image">
    <path d="M29.795,6 L98.205,6 C111.347,6 122,16.745 122,30 L122,98 C122,111.255 111.347,122 98.205,122 L29.795,122 C16.653,122 6,111.255 6,98 L6,30 C6,16.745 16.653,6 29.795,6 z" fill="#737370"/>
    <path d="M21.107,92.227 L20.43,96 L16,95.976 L23.584,54.239 L19.207,54.191 L19.207,38.994 L32.003,32 L44.806,38.994 L44.806,54.183 L40.429,54.231 L48,95.968 L43.583,95.992 L42.907,92.235 L32.003,76.045 L21.107,92.227 z M22.894,82.397 L29.591,72.448 L25.727,66.736 L22.894,82.397 z M37.241,61.072 L36.012,54.223 L28.001,54.223 L26.772,61.064 L32.003,68.891 L37.241,61.072 z M38.273,66.736 L34.409,72.448 L41.106,82.397 L38.273,66.736 z M24.012,48.791 L39.995,48.791 L39.995,41.125 L24.012,41.125 L24.012,48.791 z" fill="#EBEDED"/>
    <path d="M85.107,92.227 L84.43,96 L80,95.976 L87.584,54.239 L83.207,54.191 L83.207,38.994 L96.003,32 L108.806,38.994 L108.806,54.183 L104.429,54.231 L112,95.968 L107.583,95.992 L106.907,92.235 L96.003,76.045 L85.107,92.227 z M86.894,82.397 L93.591,72.448 L89.727,66.736 L86.894,82.397 z M101.241,61.072 L100.012,54.223 L92.001,54.223 L90.772,61.064 L96.003,68.891 L101.241,61.072 z M102.273,66.736 L98.409,72.448 L105.106,82.397 L102.273,66.736 z M88.012,48.791 L103.995,48.791 L103.995,41.125 L88.012,41.125 L88.012,48.791 z" fill="#EBEDED"/>
    <path d="M49.473,63.897 L78.483,63.897 L78.483,71.897 L49.473,71.897 z" fill="#EBEDED"/>
    <path d="M50.236,62.504 L50.236,62.504 C50.643,62.504 50.973,62.834 50.973,63.241 L50.973,72.749 C50.973,73.156 50.643,73.486 50.236,73.486 L50.236,73.486 C49.829,73.486 49.499,73.156 49.499,72.749 L49.499,63.241 C49.499,62.834 49.829,62.504 50.236,62.504 z" fill="#EBEDED"/>
    <path d="M77.772,62.413 L77.772,62.413 C78.179,62.413 78.509,62.743 78.509,63.15 L78.509,72.658 C78.509,73.065 78.179,73.395 77.772,73.395 L77.772,73.395 C77.365,73.395 77.035,73.065 77.035,72.658 L77.035,63.15 C77.035,62.743 77.365,62.413 77.772,62.413 z" fill="#EBEDED"/>
  </g>
  <defs/>
</svg>
