<?xml version="1.0" encoding="UTF-8"?>
<!DOCTYPE svg PUBLIC "-//W3C//DTD SVG 1.1//EN" "http://www.w3.org/Graphics/SVG/1.1/DTD/svg11.dtd">
<svg version="1.1" xmlns="http://www.w3.org/2000/svg" xmlns:xlink="http://www.w3.org/1999/xlink" x="0px" y="0px" width="128" height="128" viewBox="0, 0, 128, 128">
  <g id="Background">
    <rect x="0" y="0" width="128" height="128" fill="#000000" fill-opacity="0"/>
  </g>
  <g id="Background"/>
  <g id="Image">
    <path d="M29.795,6 L98.205,6 C111.347,6 122,16.745 122,30 L122,98 C122,111.255 111.347,122 98.205,122 L29.795,122 C16.653,122 6,111.255 6,98 L6,30 C6,16.745 16.653,6 29.795,6 z" fill="#737370"/>
    <g>
      <path d="M87.867,109.993 L84.675,106.094 L81.602,109.896 L78.555,106.158 L75.496,109.896 L72.476,106.158 L68.489,111.04 L63.416,111.105 C61.243,115.793 57.124,119 52.395,119 C45.362,119 39.666,112.071 39.666,103.516 C39.666,94.96 45.362,88.032 52.395,88.032 C57.071,88.032 61.111,91.174 63.336,95.766 L88.953,95.83 L93.245,101.115 C93.92,101.937 93.867,102.63 93.271,103.387 L87.947,109.961 M46.832,107.447 C48.726,107.447 50.249,105.562 50.249,103.258 C50.249,101.002 48.726,99.101 46.832,99.101 C44.938,99.101 43.415,101.002 43.415,103.258 C43.415,105.562 44.925,107.447 46.832,107.447" fill="#82D1F5"/>
      <path d="M87.867,109.993 L84.675,106.094 L81.602,109.896 L78.555,106.158 L75.496,109.896 L72.476,106.158 L68.489,111.04 L63.416,111.105 C61.243,115.793 57.124,119 52.395,119 C45.362,119 39.666,112.071 39.666,103.516 C39.666,94.96 45.362,88.032 52.395,88.032 C57.071,88.032 61.111,91.174 63.336,95.766 L88.953,95.83 L93.245,101.115 C93.92,101.937 93.867,102.63 93.271,103.387 L87.947,109.961 M46.832,107.447 C48.726,107.447 50.249,105.562 50.249,103.258 C50.249,101.002 48.726,99.101 46.832,99.101 C44.938,99.101 43.415,101.002 43.415,103.258 C43.415,105.562 44.925,107.447 46.832,107.447" fill="#82D1F5"/>
    </g>
    <g>
      <g>
        <text transform="matrix(1, 0, 0, 1, 64, 30.712)">
          <tspan x="-46" y="12.12" font-family="HelveticaNeue-Bold" font-size="36" fill="#79B7E6">TEXT</tspan>
        </text>
        <path d="M26.172,21.88 L26.172,42.832 L31.824,42.832 L31.824,21.88 L39.528,21.88 L39.528,17.128 L18.468,17.128 L18.468,21.88 z M42.48,17.128 L42.48,42.832 L61.992,42.832 L61.992,38.08 L48.132,38.08 L48.132,31.78 L60.588,31.78 L60.588,27.388 L48.132,27.388 L48.132,21.88 L61.704,21.88 L61.704,17.128 z M72.108,29.368 L63.144,42.832 L69.48,42.832 L75.204,33.94 L80.82,42.832 L87.552,42.832 L78.588,29.404 L86.832,17.128 L80.64,17.128 L75.42,25.336 L70.38,17.128 L63.828,17.128 z M95.508,21.88 L95.508,42.832 L101.16,42.832 L101.16,21.88 L108.864,21.88 L108.864,17.128 L87.804,17.128 L87.804,21.88 z" fill="#82D1F5"/>
      </g>
      <path d="M26.172,21.98 L26.172,42.932 L31.824,42.932 L31.824,21.98 L39.528,21.98 L39.528,17.228 L18.468,17.228 L18.468,21.98 z M42.48,17.228 L42.48,42.932 L61.992,42.932 L61.992,38.18 L48.132,38.18 L48.132,31.88 L60.588,31.88 L60.588,27.488 L48.132,27.488 L48.132,21.98 L61.704,21.98 L61.704,17.228 z M72.108,29.468 L63.144,42.932 L69.48,42.932 L75.204,34.04 L80.82,42.932 L87.552,42.932 L78.588,29.504 L86.832,17.228 L80.64,17.228 L75.42,25.436 L70.38,17.228 L63.828,17.228 z M95.508,21.98 L95.508,42.932 L101.16,42.932 L101.16,21.98 L108.864,21.98 L108.864,17.228 L87.804,17.228 L87.804,21.98 z" fill="#82D1F5"/>
      <path d="M26.172,21.98 L26.172,42.932 L31.824,42.932 L31.824,21.98 L39.528,21.98 L39.528,17.228 L18.468,17.228 L18.468,21.98 z M42.48,17.228 L42.48,42.932 L61.992,42.932 L61.992,38.18 L48.132,38.18 L48.132,31.88 L60.588,31.88 L60.588,27.488 L48.132,27.488 L48.132,21.98 L61.704,21.98 L61.704,17.228 z M72.108,29.468 L63.144,42.932 L69.48,42.932 L75.204,34.04 L80.82,42.932 L87.552,42.932 L78.588,29.504 L86.832,17.228 L80.64,17.228 L75.42,25.436 L70.38,17.228 L63.828,17.228 z M95.508,21.98 L95.508,42.932 L101.16,42.932 L101.16,21.98 L108.864,21.98 L108.864,17.228 L87.804,17.228 L87.804,21.98 z" fill="#82D1F5"/>
    </g>
    <g>
      <g>
        <text transform="matrix(1, 0, 0, 1, 59.866, 62.712)">
          <tspan x="-11" y="12.12" font-family="HelveticaNeue-Bold" font-size="36" fill="#79B7E6">+</tspan>
        </text>
        <path d="M61.61,63.816 L61.61,56.652 L57.758,56.652 L57.758,63.816 L50.594,63.816 L50.594,67.668 L57.758,67.668 L57.758,74.832 L61.61,74.832 L61.61,67.668 L68.774,67.668 L68.774,63.816 z" fill="#82D1F5"/>
      </g>
      <path d="M61.61,63.916 L61.61,56.752 L57.758,56.752 L57.758,63.916 L50.594,63.916 L50.594,67.768 L57.758,67.768 L57.758,74.932 L61.61,74.932 L61.61,67.768 L68.774,67.768 L68.774,63.916 z" fill="#82D1F5"/>
      <path d="M61.61,63.916 L61.61,56.752 L57.758,56.752 L57.758,63.916 L50.594,63.916 L50.594,67.768 L57.758,67.768 L57.758,74.932 L61.61,74.932 L61.61,67.768 L68.774,67.768 L68.774,63.916 z" fill="#82D1F5"/>
    </g>
  </g>
  <defs/>
</svg>
