<?xml version="1.0" encoding="UTF-8"?>
<!DOCTYPE svg PUBLIC "-//W3C//DTD SVG 1.1//EN" "http://www.w3.org/Graphics/SVG/1.1/DTD/svg11.dtd">
<svg version="1.1" xmlns="http://www.w3.org/2000/svg" xmlns:xlink="http://www.w3.org/1999/xlink" x="0px" y="0px" width="118" height="118" viewBox="0, 0, 118, 118">
  <g id="Background">
    <rect x="0" y="0" width="118" height="118" fill="#000000" fill-opacity="0"/>
  </g>
  <g id="Layer 1">
    <path d="M24.795,1 L93.205,1 C106.347,1 117,11.745 117,25 L117,93 C117,106.255 106.347,117 93.205,117 L24.795,117 C11.652,117 1,106.255 1,93 L1,25 C1,11.745 11.652,1 24.795,1 z" fill="#737370"/>
    <g>
      <text transform="matrix(1, 0, 0, 1, 59.815, 61.215)">
        <tspan x="-53.719" y="18.5" font-family="Verdana-Bold" font-size="48" fill="#8FC7ED">X*X</tspan>
      </text>
      <path d="M42.19,79.715 L31.783,79.715 L24.26,68.231 L16.596,79.715 L6.658,79.715 L19.033,62.137 L6.916,44.817 L17.299,44.817 L24.565,55.692 L32.041,44.817 L42.002,44.817 L29.815,61.785 z M72.096,60.121 L69.494,63.989 L61.994,58.879 L62.252,67.199 L57.26,67.199 L57.447,59.09 L50.088,64.012 L47.533,60.121 L55.854,55.223 L47.557,50.278 L50.088,46.364 L57.424,51.356 L57.26,43.246 L62.229,43.246 L62.041,51.379 L69.471,46.434 L72.072,50.324 L63.682,55.199 z M112.971,79.715 L102.565,79.715 L95.041,68.231 L87.377,79.715 L77.44,79.715 L89.815,62.137 L77.697,44.817 L88.08,44.817 L95.346,55.692 L102.822,44.817 L112.783,44.817 L100.596,61.785 z" fill="#8FC7ED"/>
    </g>
  </g>
  <defs/>
</svg>
