<?xml version="1.0" encoding="UTF-8"?>
<!DOCTYPE svg PUBLIC "-//W3C//DTD SVG 1.1//EN" "http://www.w3.org/Graphics/SVG/1.1/DTD/svg11.dtd">
<svg version="1.1" xmlns="http://www.w3.org/2000/svg" xmlns:xlink="http://www.w3.org/1999/xlink" x="0px" y="0px" width="128" height="128" viewBox="0, 0, 128, 128">
  <g id="Background">
    <rect x="0" y="0" width="128" height="128" fill="#000000" fill-opacity="0"/>
  </g>
  <g id="Background"/>
  <g id="Image">
    <path d="M29.795,6 L98.205,6 C111.347,6 122,16.745 122,30 L122,98 C122,111.255 111.347,122 98.205,122 L29.795,122 C16.653,122 6,111.255 6,98 L6,30 C6,16.745 16.653,6 29.795,6 z" fill="#737370"/>
    <path d="M87.867,109.993 L84.675,106.094 L81.602,109.896 L78.555,106.158 L75.496,109.896 L72.476,106.158 L68.489,111.04 L63.416,111.105 C61.243,115.793 57.124,119 52.395,119 C45.362,119 39.666,112.071 39.666,103.516 C39.666,94.96 45.362,88.032 52.395,88.032 C57.071,88.032 61.111,91.174 63.336,95.766 L88.953,95.83 L93.245,101.115 C93.92,101.937 93.867,102.63 93.271,103.387 L87.947,109.961 M46.832,107.447 C48.726,107.447 50.249,105.562 50.249,103.258 C50.249,101.002 48.726,99.101 46.832,99.101 C44.938,99.101 43.415,101.002 43.415,103.258 C43.415,105.562 44.925,107.447 46.832,107.447" fill="#FFFFFF"/>
    <g>
      <text transform="matrix(1, 0, 0, 1, 64, 30.612)">
        <tspan x="-46" y="12.12" font-family="HelveticaNeue-Bold" font-size="36" fill="#FFFFFF">TEXT</tspan>
      </text>
      <path d="M26.172,21.78 L26.172,42.732 L31.824,42.732 L31.824,21.78 L39.528,21.78 L39.528,17.028 L18.468,17.028 L18.468,21.78 z M42.48,17.028 L42.48,42.732 L61.992,42.732 L61.992,37.98 L48.132,37.98 L48.132,31.68 L60.588,31.68 L60.588,27.288 L48.132,27.288 L48.132,21.78 L61.704,21.78 L61.704,17.028 z M72.108,29.268 L63.144,42.732 L69.48,42.732 L75.204,33.84 L80.82,42.732 L87.552,42.732 L78.588,29.304 L86.832,17.028 L80.64,17.028 L75.42,25.236 L70.38,17.028 L63.828,17.028 z M95.508,21.78 L95.508,42.732 L101.16,42.732 L101.16,21.78 L108.864,21.78 L108.864,17.028 L87.804,17.028 L87.804,21.78 z" fill="#FFFFFF"/>
    </g>
    <g>
      <text transform="matrix(1, 0, 0, 1, 59.866, 62.612)">
        <tspan x="-11" y="12.12" font-family="HelveticaNeue-Bold" font-size="36" fill="#FFFFFF">+</tspan>
      </text>
      <path d="M61.61,63.716 L61.61,56.552 L57.758,56.552 L57.758,63.716 L50.594,63.716 L50.594,67.568 L57.758,67.568 L57.758,74.732 L61.61,74.732 L61.61,67.568 L68.774,67.568 L68.774,63.716 z" fill="#FFFFFF"/>
    </g>
  </g>
  <defs/>
</svg>
