<?xml version="1.0" encoding="UTF-8"?>
<!DOCTYPE svg PUBLIC "-//W3C//DTD SVG 1.1//EN" "http://www.w3.org/Graphics/SVG/1.1/DTD/svg11.dtd">
<svg version="1.1" xmlns="http://www.w3.org/2000/svg" xmlns:xlink="http://www.w3.org/1999/xlink" x="0px" y="0px" width="128" height="128" viewBox="0, 0, 128, 128">
  <g id="Background">
    <rect x="0" y="0" width="128" height="128" fill="#000000" fill-opacity="0"/>
  </g>
  <g id="Background"/>
  <g id="Image">
    <path d="M29.795,6 L98.205,6 C111.347,6 122,16.745 122,30 L122,98 C122,111.255 111.347,122 98.205,122 L29.795,122 C16.652,122 6,111.255 6,98 L6,30 C6,16.745 16.652,6 29.795,6 z" fill="#737370"/>
    <path d="M107,112 L83.499,112 L43.357,46.109 L43.357,112 L21,112 L21,16 L50.154,16 L84.643,70.995 L84.643,16 L107,16 z" fill="#EBEDED"/>
    <text transform="matrix(1, 0, 0, 1, 40.633, 39.5)">
      <tspan x="-18.633" y="18.5" font-family="Verdana-Bold" font-size="48" fill="#FFFF00">A</tspan>
    </text>
    <text transform="matrix(1, 0, 0, 1, 64.633, 89.5)">
      <tspan x="-18.633" y="18.5" font-family="Verdana-Bold" font-size="48" fill="#FFFF00">C</tspan>
    </text>
    <text transform="matrix(1, 0, 0, 1, 90.633, 39.5)">
      <tspan x="-18.633" y="18.5" font-family="Verdana-Bold" font-size="48" fill="#FFFF00">B</tspan>
    </text>
  </g>
  <defs/>
</svg>
