<?xml version="1.0" encoding="UTF-8"?>
<!DOCTYPE svg PUBLIC "-//W3C//DTD SVG 1.1//EN" "http://www.w3.org/Graphics/SVG/1.1/DTD/svg11.dtd">
<svg version="1.1" xmlns="http://www.w3.org/2000/svg" xmlns:xlink="http://www.w3.org/1999/xlink" x="0px" y="0px" width="128" height="128" viewBox="0, 0, 128, 128">
  <g id="Background">
    <rect x="0" y="0" width="128" height="128" fill="#000000" fill-opacity="0"/>
  </g>
  <g id="Background"/>
  <g id="Image">
    <path d="M28.483,5.723 L96.893,5.723 C110.035,5.723 120.688,16.468 120.688,29.723 L120.688,97.723 C120.688,110.978 110.035,121.723 96.893,121.723 L28.483,121.723 C15.34,121.723 4.688,110.978 4.688,97.723 L4.688,29.723 C4.688,16.468 15.34,5.723 28.483,5.723 z" fill="#737370"/>
    <path d="M64,112 C37.49,112 16,90.51 16,64 C16,37.49 37.49,16 64,16 C90.51,16 112,37.49 112,64 C112,90.51 90.51,112 64,112 z" fill-opacity="0" stroke="#82D1F5" stroke-width="6"/>
    <g>
      <path d="M64,96 C46.327,96 32,81.673 32,64 C32,46.327 46.327,32 64,32 C81.673,32 96,46.327 96,64 C96,81.673 81.673,96 64,96 z" fill="#737370"/>
      <path d="M64,96 C46.327,96 32,81.673 32,64 C32,46.327 46.327,32 64,32 C81.673,32 96,46.327 96,64 C96,81.673 81.673,96 64,96 z" fill-opacity="0" stroke="#82D1F5" stroke-width="6"/>
    </g>
    <g>
      <path d="M64,80 C55.163,80 48,72.837 48,64 C48,55.163 55.163,48 64,48 C72.837,48 80,55.163 80,64 C80,72.837 72.837,80 64,80 z" fill="#737370"/>
      <path d="M64,80 C55.163,80 48,72.837 48,64 C48,55.163 55.163,48 64,48 C72.837,48 80,55.163 80,64 C80,72.837 72.837,80 64,80 z" fill-opacity="0" stroke="#82D1F5" stroke-width="6"/>
    </g>
    <path d="M112,64 L16,64" fill-opacity="0" stroke="#82D1F5" stroke-width="6"/>
    <path d="M64,16 L64,112" fill-opacity="0" stroke="#82D1F5" stroke-width="6"/>
  </g>
  <defs/>
</svg>
