<?xml version="1.0" encoding="UTF-8"?>
<!DOCTYPE svg PUBLIC "-//W3C//DTD SVG 1.1//EN" "http://www.w3.org/Graphics/SVG/1.1/DTD/svg11.dtd">
<svg version="1.1" xmlns="http://www.w3.org/2000/svg" xmlns:xlink="http://www.w3.org/1999/xlink" x="0px" y="0px" width="128" height="128" viewBox="0, 0, 128, 128">
  <g id="Background">
    <rect x="0" y="0" width="128" height="128" fill="#000000" fill-opacity="0"/>
  </g>
  <g id="Background"/>
  <g id="Image">
    <path d="M29.795,6 L98.205,6 C111.347,6 122,16.745 122,30 L122,98 C122,111.255 111.347,122 98.205,122 L29.795,122 C16.652,122 6,111.255 6,98 L6,30 C6,16.745 16.652,6 29.795,6 z" fill="#737370"/>
    <path d="M64,100 C44.118,100 28,83.882 28,64 C28,44.118 44.118,28 64,28 C83.882,28 100,44.118 100,64 C100,83.882 83.882,100 64,100 z" fill-opacity="0" stroke="#FFFFFF" stroke-width="8"/>
    <g>
      <path d="M64.204,38.171 C59.033,38.171 54.841,34.035 54.841,28.933 C54.841,23.831 59.033,19.694 64.204,19.694 C69.376,19.694 73.568,23.831 73.568,28.933 C73.568,34.035 69.376,38.171 64.204,38.171 z" fill="#EBEDED"/>
      <path d="M64.204,38.171 C59.033,38.171 54.841,34.035 54.841,28.933 C54.841,23.831 59.033,19.694 64.204,19.694 C69.376,19.694 73.568,23.831 73.568,28.933 C73.568,34.035 69.376,38.171 64.204,38.171 z" fill-opacity="0" stroke="#EBEDED" stroke-width="8"/>
    </g>
    <g>
      <path d="M98.665,83.76 C93.494,83.76 89.302,79.624 89.302,74.522 C89.302,69.42 93.494,65.283 98.665,65.283 C103.836,65.283 108.028,69.42 108.028,74.522 C108.028,79.624 103.836,83.76 98.665,83.76 z" fill="#EBEDED"/>
      <path d="M98.665,83.76 C93.494,83.76 89.302,79.624 89.302,74.522 C89.302,69.42 93.494,65.283 98.665,65.283 C103.836,65.283 108.028,69.42 108.028,74.522 C108.028,79.624 103.836,83.76 98.665,83.76 z" fill-opacity="0" stroke="#EBEDED" stroke-width="8"/>
    </g>
    <g>
      <path d="M28.56,81.836 C23.388,81.836 19.196,77.7 19.196,72.598 C19.196,67.496 23.388,63.36 28.56,63.36 C33.731,63.36 37.923,67.496 37.923,72.598 C37.923,77.7 33.731,81.836 28.56,81.836 z" fill="#EBEDED"/>
      <path d="M28.56,81.836 C23.388,81.836 19.196,77.7 19.196,72.598 C19.196,67.496 23.388,63.36 28.56,63.36 C33.731,63.36 37.923,67.496 37.923,72.598 C37.923,77.7 33.731,81.836 28.56,81.836 z" fill-opacity="0" stroke="#EBEDED" stroke-width="8"/>
    </g>
  </g>
  <defs/>
</svg>
