<?xml version="1.0" encoding="utf-8"?>
<!-- Generator: Adobe Illustrator 15.0.0, SVG Export Plug-In . SVG Version: 6.00 Build 0)  -->
<!DOCTYPE svg PUBLIC "-//W3C//DTD SVG 1.1//EN" "http://www.w3.org/Graphics/SVG/1.1/DTD/svg11.dtd">
<svg version="1.1" id="Layer_1" xmlns="http://www.w3.org/2000/svg" xmlns:xlink="http://www.w3.org/1999/xlink" x="0px" y="0px"
	 width="64px" height="64px" viewBox="0 0 64 64" enable-background="new 0 0 64 64" xml:space="preserve">
<rect id="_x3C_Slice_x3E_" x="0.001" y="0.001" fill="none" width="64" height="64"/>
<g>
	<path fill-rule="evenodd" clip-rule="evenodd" fill="#8FC7ED" d="M22.386,22.188h-7.803c-1.843,0-3.348,1.505-3.348,3.349v10.055
		c0,1.84,1.505,3.349,3.348,3.349h19.53H53.64c1.843,0,3.349-1.509,3.349-3.349V25.537c0-1.844-1.506-3.349-3.349-3.349h-7.801
		H22.386z"/>
	<path fill-rule="evenodd" clip-rule="evenodd" fill="#8FC7ED" d="M49.694,43.818l6.245-5.792l-2.58-5.531l-9.854,4.733
		L49.694,43.818z M6.188,28.766l5.92-5.474l7.136,0.766l-6.276,8.284L6.188,28.766z"/>
	<path fill-rule="evenodd" clip-rule="evenodd" fill="#294270" d="M16.279,27.856H8.475c-1.845,0-3.35,1.51-3.35,3.349v10.059
		c0,1.84,1.505,3.345,3.35,3.345h19.528h19.526c1.847,0,3.352-1.505,3.352-3.345V31.205c0-1.839-1.505-3.349-3.352-3.349h-7.801
		H16.279z"/>
	<path fill="#8FC7ED" d="M26.851,41.959v-7.817c-0.272,0.186-0.567,0.388-0.882,0.603c-0.312,0.215-0.562,0.39-0.738,0.509V32.43
		l2.046-1.418h2.625v10.947H26.851z"/>
	<path fill="#8FC7ED" d="M10.073,34.228c0.083-0.492,0.24-0.935,0.472-1.335c0.23-0.397,0.514-0.741,0.848-1.021
		c0.335-0.285,0.715-0.501,1.141-0.652c0.426-0.153,0.882-0.232,1.361-0.232c0.565,0,1.083,0.07,1.549,0.202
		c0.468,0.132,0.87,0.327,1.204,0.583c0.334,0.265,0.591,0.591,0.776,0.988c0.183,0.394,0.272,0.852,0.272,1.372
		c0,0.377-0.073,0.766-0.227,1.158c-0.149,0.393-0.364,0.744-0.637,1.046l-2.956,3.382h3.808v2.295H9.995v-1.919l4.262-4.907
		c0.071-0.083,0.149-0.206,0.229-0.377c0.078-0.169,0.116-0.338,0.116-0.503c0-0.543-0.241-0.815-0.725-0.815
		c-0.193,0-0.372,0.092-0.521,0.272c-0.144,0.183-0.255,0.514-0.326,0.98L10.073,34.228z"/>
	<path fill="#8FC7ED" d="M45.313,36.149c0.272,0.12,0.5,0.269,0.69,0.451c0.189,0.182,0.339,0.376,0.45,0.583
		c0.107,0.202,0.191,0.413,0.235,0.624c0.045,0.219,0.071,0.422,0.071,0.612c0,0.504-0.088,0.963-0.261,1.389
		c-0.173,0.421-0.426,0.785-0.761,1.091c-0.34,0.307-0.756,0.542-1.262,0.708c-0.499,0.169-1.083,0.256-1.743,0.256
		c-0.431,0-0.856-0.046-1.274-0.137s-0.81-0.243-1.17-0.472c-0.364-0.223-0.677-0.528-0.945-0.904
		c-0.265-0.376-0.452-0.856-0.56-1.427l2.956-0.409c0.065,0.364,0.179,0.604,0.34,0.723c0.161,0.112,0.347,0.171,0.558,0.171
		c0.242,0,0.449-0.075,0.629-0.232c0.181-0.149,0.269-0.413,0.269-0.789c0-0.368-0.1-0.653-0.299-0.859
		c-0.199-0.203-0.483-0.303-0.848-0.303h-0.976v-2.108h1.006c0.368,0,0.637-0.107,0.81-0.307c0.173-0.21,0.261-0.445,0.261-0.718
		c0-0.294-0.071-0.505-0.207-0.638c-0.137-0.132-0.318-0.193-0.549-0.193c-0.072,0-0.149,0.008-0.229,0.032
		c-0.077,0.017-0.155,0.062-0.234,0.133c-0.078,0.065-0.153,0.169-0.219,0.302c-0.07,0.14-0.128,0.318-0.182,0.537l-2.956-0.537
		c0.094-0.467,0.263-0.889,0.516-1.262c0.253-0.376,0.56-0.682,0.914-0.938c0.356-0.247,0.76-0.441,1.212-0.569
		c0.45-0.133,0.926-0.199,1.429-0.199c0.663,0,1.225,0.083,1.692,0.261c0.468,0.174,0.848,0.404,1.148,0.698
		c0.299,0.294,0.518,0.633,0.659,1.025c0.143,0.385,0.215,0.79,0.215,1.207c0,0.161-0.03,0.335-0.08,0.537
		c-0.054,0.195-0.135,0.394-0.242,0.597c-0.114,0.198-0.253,0.388-0.427,0.566c-0.175,0.177-0.382,0.318-0.621,0.421L45.313,36.149z
		"/>
</g>
<path fill-rule="evenodd" clip-rule="evenodd" fill="#294270" d="M18.18,11.333l-1.72,13.758l13.997-1.56l-3.997-3.976
	c2.737-2.138,6.401-3.011,10.022-2.056c2.036,0.54,4.655,2.27,6.003,4.618l5.227-0.031c-0.987-5.709-5.183-10.6-11.148-12.176
	c-5.716-1.519-11.542,0.421-15.253,4.53L18.18,11.333z"/>
<rect id="_x3C_Slice_x3E__1_" x="337.827" y="227.584" fill="none" width="64" height="64"/>
</svg>
